<svg xmlns="http://www.w3.org/2000/svg" viewBox="0 0 72 72" fill="currentColor" aria-hidden="true">
  <path d="M62.64,62.44c-.08.03-.14.06-.19.08-8.04,3.48-17.09,5.67-25.87,3.35-2.73-.72-5.35-2.11-6.94-4.3-4.69-6.45,3.95-12.89,7.96-17.39,2.21-2.48,3.99-5.61,3.45-8.79-.24-1.39-.96-2.75-2.2-3.54-1.27-.8-2.94-.92-4.41-.53s-2.77,1.23-3.88,2.22c-2.62,2.33-4.32,5.44-5.36,8.67-1.51,4.66-2.03,9.61-1.98,14.47.01,1.59.5,15.33.9,15.33,0,0,47.88,0,47.88,0l-9.36-9.56Z"/>
  <path d="M4.81,52.16c1.18-7.91,2.78-15.57,6.87-22.57.61-1.03,1.24-2.05,1.92-3.05,2.63-3.89,5.91-7.41,9.89-10.1,11.49-7.74,31.62-8.28,36.02,7.37,1.71,6.07.97,12.74-2.55,17.86-1.82,2.64-4.11,4.89-6.64,6.93-1.09.88-2.28,1.65-3.5,2.37-.34.2-3.38,1.63-2.65,1.97.9.43,3.81-.73,4.73-1.02,1.7-.54,3.33-1.26,4.87-2.13,3.07-1.73,5.75-4.04,7.93-6.7,4.4-5.36,6.85-12.18,6.58-18.94-.31-7.47-4.25-14.65-10.73-19.07C52.59,1.71,46.56,0,40.43,0H0v72h3.57c-.11-6.82.78-16.82,1.23-19.84Z"/>
</svg>
