<?xml version="1.0" encoding="utf-8"?>
<!-- Generator: Adobe Illustrator 24.1.3, SVG Export Plug-In . SVG Version: 6.00 Build 0)  -->
<svg version="1.1" id="Слой_1" xmlns="http://www.w3.org/2000/svg" xmlns:xlink="http://www.w3.org/1999/xlink" x="0px" y="0px"
	 viewBox="0 0 1080 720" style="enable-background:new 0 0 1080 720;" xml:space="preserve">
<style type="text/css">
	.st0{fill:none;}
	.st1{fill:#052E39;}
	.st2{fill:#003049;}
	.st3{fill:#E25526;}
	.st4{fill:#B1DFE6;}
	.st5{fill:#D5F0F2;}
	.st6{fill:#8DCED6;}
	.st7{fill:#FFFFFF;}
	.st8{fill:#1D1D1B;}
	.st9{fill:#3C3C3B;}
	.st10{fill:#878787;}
	.st11{fill:#EC7B35;}
	.st12{filter:url(#Adobe_OpacityMaskFilter);}
	.st13{filter:url(#Adobe_OpacityMaskFilter_1_);}
	.st14{mask:url(#SVGID_1_);fill:url(#SVGID_2_);}
	.st15{fill:url(#SVGID_3_);}
	.st16{fill:url(#SVGID_4_);}
	.st17{fill:url(#SVGID_5_);}
	.st18{fill:#F6F6F6;}
	.st19{fill:#575756;}
	.st20{fill:#EDEDED;}
	.st21{fill:#D66018;}
	.st22{fill:#EC955E;}
	.st23{fill:#B32C52;}
	.st24{fill:url(#SVGID_6_);}
	.st25{fill:url(#SVGID_7_);}
	.st26{fill:url(#SVGID_8_);}
	.st27{fill:url(#SVGID_9_);}
	.st28{fill:url(#SVGID_10_);}
	.st29{fill:url(#SVGID_11_);}
	.st30{fill:#DADADA;}
	.st31{filter:url(#Adobe_OpacityMaskFilter_2_);}
	.st32{filter:url(#Adobe_OpacityMaskFilter_3_);}
	.st33{mask:url(#SVGID_12_);fill:url(#SVGID_13_);}
	.st34{opacity:0.75;fill:url(#SVGID_14_);}
	.st35{fill:#BF5059;}
	.st36{fill:#223A61;}
	.st37{opacity:0.8;fill:url(#SVGID_15_);}
	.st38{clip-path:url(#SVGID_17_);fill:#D5F0F2;}
	.st39{opacity:0.7;}
	.st40{fill-rule:evenodd;clip-rule:evenodd;fill:#95952E;}
	.st41{fill-rule:evenodd;clip-rule:evenodd;fill:#E3E348;}
	.st42{fill-rule:evenodd;clip-rule:evenodd;fill:#686830;}
	.st43{fill-rule:evenodd;clip-rule:evenodd;fill:#77623F;}
	.st44{fill-rule:evenodd;clip-rule:evenodd;fill:#A5A537;}
	.st45{fill-rule:evenodd;clip-rule:evenodd;fill:#517952;}
	.st46{fill-rule:evenodd;clip-rule:evenodd;fill:#436145;}
	.st47{opacity:0.8;}
	.st48{fill-rule:evenodd;clip-rule:evenodd;fill:#A4CBCB;}
	.st49{fill-rule:evenodd;clip-rule:evenodd;fill:#8AB2B2;}
	.st50{fill-rule:evenodd;clip-rule:evenodd;fill:#568174;}
	.st51{fill-rule:evenodd;clip-rule:evenodd;fill:#B0CBBC;}
	.st52{fill-rule:evenodd;clip-rule:evenodd;fill:#7CA196;}
	.st53{fill-rule:evenodd;clip-rule:evenodd;fill:#C4D8CE;}
	.st54{fill-rule:evenodd;clip-rule:evenodd;fill:#9BB9B0;}
	.st55{fill-rule:evenodd;clip-rule:evenodd;fill:#B6CCC6;}
	.st56{fill-rule:evenodd;clip-rule:evenodd;fill:#F4D285;}
	.st57{fill-rule:evenodd;clip-rule:evenodd;fill:#FFFFFF;}
	.st58{fill-rule:evenodd;clip-rule:evenodd;fill:#DCF5EF;}
	.st59{fill-rule:evenodd;clip-rule:evenodd;fill:#C3E3E1;}
	.st60{fill-rule:evenodd;clip-rule:evenodd;fill:#E68F30;}
	.st61{fill-rule:evenodd;clip-rule:evenodd;fill:#C2651C;}
	.st62{fill-rule:evenodd;clip-rule:evenodd;fill:#5A482C;}
	.st63{fill-rule:evenodd;clip-rule:evenodd;fill:#7C4732;}
	.st64{fill-rule:evenodd;clip-rule:evenodd;fill:#573527;}
	.st65{fill-rule:evenodd;clip-rule:evenodd;fill:#CAA286;}
	.st66{fill:#8E5C47;}
	.st67{fill-rule:evenodd;clip-rule:evenodd;fill:#B28161;}
	.st68{fill:#7B4E3A;}
	.st69{fill:#1E2859;}
	.st70{fill:#597094;}
	.st71{fill:#C6C6C6;}
	.st72{fill:#FABD4A;}
	.st73{opacity:0.3;fill:url(#SVGID_18_);}
	.st74{fill:none;stroke:url(#SVGID_19_);stroke-width:0.6899;stroke-miterlimit:10;}
	.st75{fill:none;stroke:url(#SVGID_20_);stroke-width:0.6899;stroke-miterlimit:10;}
	.st76{fill:none;stroke:url(#SVGID_21_);stroke-width:0.6899;stroke-miterlimit:10;}
	.st77{fill:none;stroke:url(#SVGID_22_);stroke-width:0.6899;stroke-miterlimit:10;}
	.st78{fill:none;stroke:url(#SVGID_23_);stroke-width:0.6899;stroke-miterlimit:10;}
	.st79{opacity:0.3;fill:url(#SVGID_24_);}
	.st80{fill:#FABD4A;stroke:url(#SVGID_25_);stroke-width:0.6899;stroke-miterlimit:10;}
	.st81{fill:#C34427;stroke:url(#SVGID_26_);stroke-width:0.6899;stroke-miterlimit:10;}
	.st82{fill:#C34427;stroke:url(#SVGID_27_);stroke-width:0.6899;stroke-miterlimit:10;}
	.st83{fill:#C34427;stroke:url(#SVGID_28_);stroke-width:0.6899;stroke-miterlimit:10;}
	.st84{fill:#FABD4A;stroke:url(#SVGID_29_);stroke-width:0.6899;stroke-miterlimit:10;}
	.st85{opacity:0.3;fill:url(#SVGID_30_);}
	.st86{fill:#FABD4A;stroke:url(#SVGID_31_);stroke-width:0.6899;stroke-miterlimit:10;}
	.st87{opacity:0.3;fill:url(#SVGID_32_);}
	.st88{fill:#333332;}
	.st89{fill:#9B9B9A;}
	.st90{fill:#DAD9D8;}
	.st91{fill:#FABD4A;stroke:url(#SVGID_33_);stroke-width:0.6899;stroke-miterlimit:10;}
	.st92{fill:#C34427;stroke:url(#SVGID_34_);stroke-width:0.6899;stroke-miterlimit:10;}
	.st93{opacity:0.3;fill:url(#SVGID_35_);}
	.st94{opacity:0.3;fill:url(#SVGID_36_);}
	.st95{opacity:0.3;fill:url(#SVGID_37_);}
	.st96{opacity:0.3;fill:url(#SVGID_38_);}
	.st97{opacity:0.3;fill:url(#SVGID_39_);}
	.st98{opacity:0.3;fill:url(#SVGID_40_);}
	.st99{opacity:0.3;fill:url(#SVGID_41_);}
	.st100{fill:#B2B2B2;}
	.st101{fill:#ECECEC;}
	.st102{fill-rule:evenodd;clip-rule:evenodd;fill:#C34427;}
	.st103{fill-rule:evenodd;clip-rule:evenodd;fill:#052E39;}
	.st104{fill:none;stroke:url(#SVGID_42_);stroke-width:0.6899;stroke-miterlimit:10;}
	.st105{fill:none;stroke:url(#SVGID_43_);stroke-width:0.6899;stroke-miterlimit:10;}
	.st106{fill:none;stroke:url(#SVGID_44_);stroke-width:0.6899;stroke-miterlimit:10;}
	.st107{fill:none;stroke:url(#SVGID_45_);stroke-width:0.6899;stroke-miterlimit:10;}
	.st108{fill:none;stroke:url(#SVGID_46_);stroke-width:0.6899;stroke-miterlimit:10;}
	.st109{fill:none;stroke:url(#SVGID_47_);stroke-width:0.6899;stroke-miterlimit:10;}
	.st110{fill:none;stroke:url(#SVGID_48_);stroke-width:0.6899;stroke-miterlimit:10;}
	.st111{fill:none;stroke:url(#SVGID_49_);stroke-width:0.6899;stroke-miterlimit:10;}
	.st112{fill:none;stroke:url(#SVGID_50_);stroke-width:1.0349;stroke-miterlimit:10;}
	.st113{fill:none;stroke:url(#SVGID_51_);stroke-width:0.6899;stroke-miterlimit:10;}
	.st114{fill:none;stroke:url(#SVGID_52_);stroke-width:0.6899;stroke-miterlimit:10;}
	.st115{fill-rule:evenodd;clip-rule:evenodd;fill:#FABD4A;}
	.st116{fill:none;stroke:url(#SVGID_53_);stroke-width:0.6899;stroke-miterlimit:10;}
	.st117{opacity:0.3;fill:url(#SVGID_54_);}
	.st118{fill:#FABD4A;stroke:url(#SVGID_55_);stroke-width:0.6899;stroke-miterlimit:10;}
	.st119{fill:none;stroke:url(#SVGID_56_);stroke-width:0.6899;stroke-miterlimit:10;}
	.st120{opacity:0.3;fill:url(#SVGID_57_);}
	.st121{fill:#C34427;}
	.st122{opacity:0.3;fill:url(#SVGID_58_);}
	.st123{fill:#FABD4A;stroke:url(#SVGID_59_);stroke-width:0.6899;stroke-miterlimit:10;}
	.st124{opacity:0.3;fill:url(#SVGID_60_);}
	.st125{fill:none;stroke:url(#SVGID_61_);stroke-width:0.6899;stroke-miterlimit:10;}
	.st126{fill:none;stroke:url(#SVGID_62_);stroke-width:0.6899;stroke-miterlimit:10;}
	.st127{fill:url(#SVGID_63_);}
	.st128{fill:url(#SVGID_64_);}
	.st129{fill:url(#SVGID_65_);}
	.st130{opacity:0.3;}
	.st131{fill:url(#SVGID_66_);}
	.st132{fill:url(#SVGID_67_);}
	.st133{fill:url(#SVGID_68_);}
	.st134{fill:none;stroke:url(#SVGID_69_);stroke-width:0.6899;stroke-miterlimit:10;}
	.st135{fill:none;stroke:url(#SVGID_70_);stroke-width:0.6899;stroke-miterlimit:10;}
	.st136{fill:none;stroke:url(#SVGID_71_);stroke-width:0.6899;stroke-miterlimit:10;}
	.st137{fill:none;stroke:url(#SVGID_72_);stroke-width:0.6899;stroke-miterlimit:10;}
	.st138{fill:none;stroke:url(#SVGID_73_);stroke-width:0.6877;stroke-miterlimit:10;}
	.st139{fill:none;stroke:url(#SVGID_74_);stroke-width:0.6877;stroke-miterlimit:10;}
	.st140{opacity:0.3;fill:url(#SVGID_75_);}
	.st141{opacity:0.3;fill:url(#SVGID_76_);}
	.st142{fill-rule:evenodd;clip-rule:evenodd;fill:#247689;}
	.st143{fill-rule:evenodd;clip-rule:evenodd;fill:#1A5163;}
	.st144{fill:#247689;}
	.st145{opacity:0.3;fill:url(#SVGID_77_);}
	.st146{fill-rule:evenodd;clip-rule:evenodd;fill:#E9E0B5;}
	.st147{fill:none;stroke:url(#SVGID_78_);stroke-width:0.6899;stroke-miterlimit:10;}
	.st148{fill:none;stroke:url(#SVGID_79_);stroke-width:0.6899;stroke-miterlimit:10;}
	.st149{fill:none;stroke:url(#SVGID_80_);stroke-width:0.6899;stroke-miterlimit:10;}
	.st150{fill:none;stroke:url(#SVGID_81_);stroke-width:0.6899;stroke-miterlimit:10;}
	.st151{fill:none;stroke:url(#SVGID_82_);stroke-width:0.6899;stroke-miterlimit:10;}
	.st152{fill:none;stroke:url(#SVGID_83_);stroke-width:0.6899;stroke-miterlimit:10;}
	.st153{fill:none;stroke:url(#SVGID_84_);stroke-width:0.6899;stroke-miterlimit:10;}
	.st154{fill:none;stroke:url(#SVGID_85_);stroke-width:0.6899;stroke-miterlimit:10;}
	.st155{fill:none;stroke:url(#SVGID_86_);stroke-width:0.6899;stroke-miterlimit:10;}
	.st156{fill:none;stroke:url(#SVGID_87_);stroke-width:0.6899;stroke-miterlimit:10;}
	.st157{fill:url(#SVGID_88_);}
</style>
<pattern  x="-310.4" y="-206.9" width="100" height="93.2" patternUnits="userSpaceOnUse" id="New_Pattern_Swatch_3" viewBox="0 -93.2 100 93.2" style="overflow:visible;">
	<g>
		<rect y="-93.2" class="st0" width="100" height="93.2"/>
		<rect y="-93.2" class="st1" width="100" height="93.2"/>
	</g>
</pattern>
<pattern  x="-310.4" y="-206.9" width="100" height="93.2" patternUnits="userSpaceOnUse" id="New_Pattern_Swatch_4" viewBox="0 -93.2 100 93.2" style="overflow:visible;">
	<g>
		<rect y="-93.2" class="st0" width="100" height="93.2"/>
		<rect y="-93.2" class="st2" width="100" height="93.2"/>
	</g>
</pattern>
<pattern  x="-310.4" y="-206.9" width="100" height="93.2" patternUnits="userSpaceOnUse" id="New_Pattern_Swatch_7" viewBox="0 -93.2 100 93.2" style="overflow:visible;">
	<g>
		<rect y="-93.2" class="st0" width="100" height="93.2"/>
		<rect y="-93.2" class="st3" width="100" height="93.2"/>
	</g>
</pattern>
<g>
	<rect x="-358.2" y="2062.4" class="st4" width="94" height="197.4"/>
	<g>
		<rect x="-343.3" y="2079.8" class="st5" width="32.1" height="8.5"/>
		<rect x="-324.1" y="2100.4" class="st5" width="60" height="8.5"/>
		<rect x="-343.3" y="2120.9" class="st5" width="57.2" height="8.5"/>
		<rect x="-343.3" y="2141.5" class="st5" width="69.1" height="8.5"/>
		<rect x="-343.3" y="2162" class="st5" width="79.2" height="8.5"/>
		<rect x="-306.3" y="2182.5" class="st5" width="42.2" height="8.5"/>
		<rect x="-343.3" y="2203.1" class="st5" width="65.5" height="8.5"/>
		<rect x="-324.1" y="2223.6" class="st5" width="60" height="36.2"/>
	</g>
	<rect x="-227.7" y="1996.6" class="st4" width="46.5" height="263.2"/>
	<rect x="-264.1" y="2062.4" class="st6" width="36.5" height="197.4"/>
	<rect x="-279.4" y="2044.1" class="st6" width="30.4" height="18.3"/>
	
		<rect x="-314.5" y="2044.1" transform="matrix(-1 -1.224647e-16 1.224647e-16 -1 -593.8513 4106.459)" class="st4" width="35.1" height="18.3"/>
	<rect x="651.2" y="1895.7" class="st6" width="67.1" height="364.1"/>
	<rect x="684.8" y="1962.9" class="st4" width="94.8" height="296.8"/>
	
		<rect x="779.6" y="1962.2" transform="matrix(-1 -1.224647e-16 1.224647e-16 -1 1612.5638 4221.9805)" class="st6" width="53.4" height="297.6"/>
	<g>
		<g>
			<rect x="684.8" y="1977.2" class="st5" width="86.6" height="8.5"/>
			<rect x="684.8" y="1997.7" class="st5" width="68.2" height="8.5"/>
			<rect x="684.8" y="2018.2" class="st5" width="86.6" height="8.5"/>
			<rect x="723.8" y="2038.8" class="st5" width="47.6" height="8.5"/>
			<rect x="684.8" y="2059.3" class="st5" width="86.6" height="8.5"/>
			<rect x="684.8" y="2079.8" class="st5" width="78" height="8.5"/>
			<rect x="744.2" y="2100.4" class="st5" width="27.2" height="8.5"/>
			<rect x="696.6" y="2120.9" class="st5" width="74.8" height="8.5"/>
			<rect x="732.2" y="2141.5" class="st5" width="39.2" height="8.5"/>
			<rect x="684.8" y="2162" class="st5" width="86.6" height="8.5"/>
			<rect x="684.8" y="2182.5" class="st5" width="61.4" height="8.5"/>
			<rect x="684.8" y="2203.1" class="st5" width="86.6" height="8.5"/>
			<rect x="684.8" y="2223.6" class="st5" width="86.6" height="36.2"/>
		</g>
		<rect x="786.6" y="2223.6" class="st4" width="19.7" height="36.2"/>
	</g>
	
		<rect x="539" y="1895.7" transform="matrix(-1 -1.224647e-16 1.224647e-16 -1 1190.2206 4155.4526)" class="st4" width="112.2" height="364.1"/>
	<g>
		<g>
			<rect x="539" y="1915.5" class="st5" width="86.6" height="8.5"/>
			<rect x="539" y="1936.1" class="st5" width="86.6" height="8.5"/>
			<rect x="539" y="1956.6" class="st5" width="86.6" height="8.5"/>
			<rect x="539" y="1977.2" class="st5" width="86.6" height="8.5"/>
			<rect x="539" y="1997.7" class="st5" width="86.6" height="8.5"/>
			<rect x="539" y="2018.2" class="st5" width="86.6" height="8.5"/>
			<rect x="539" y="2038.8" class="st5" width="86.6" height="8.5"/>
			<rect x="539" y="2059.3" class="st5" width="86.6" height="8.5"/>
			<rect x="539" y="2079.8" class="st5" width="86.6" height="8.5"/>
			<rect x="539" y="2100.4" class="st5" width="86.6" height="8.5"/>
			<rect x="539" y="2120.9" class="st5" width="86.6" height="8.5"/>
			<rect x="539" y="2141.5" class="st5" width="86.6" height="8.5"/>
			<rect x="539" y="2162" class="st5" width="86.6" height="8.5"/>
			<rect x="539" y="2182.5" class="st5" width="86.6" height="8.5"/>
			<rect x="539" y="2203.1" class="st5" width="86.6" height="8.5"/>
			<rect x="539" y="2223.6" class="st5" width="86.6" height="8.5"/>
			<rect x="539" y="2244.2" class="st5" width="86.6" height="8.5"/>
		</g>
		<rect x="539" y="1977.2" class="st7" width="28.4" height="8.5"/>
		<rect x="567.4" y="2018.2" class="st7" width="6.8" height="8.5"/>
		<rect x="611.8" y="1936.1" class="st7" width="13.9" height="8.5"/>
		<rect x="577.7" y="1956.6" class="st7" width="6.7" height="8.5"/>
		<rect x="596.3" y="2059.3" class="st7" width="22.1" height="8.5"/>
		<rect x="549.9" y="1915.6" class="st7" width="6.1" height="8.5"/>
		<rect x="560.8" y="1956.6" class="st7" width="6.6" height="8.5"/>
	</g>
	<rect x="289.4" y="1828.5" class="st6" width="59.9" height="431.2"/>
	<rect x="195.2" y="1828.5" class="st4" width="94.2" height="431.2"/>
	<g>
		<g>
			<rect x="195.2" y="1848.4" class="st5" width="94.2" height="8.5"/>
			<rect x="195.2" y="1868.9" class="st5" width="94.2" height="8.5"/>
			<rect x="195.2" y="1889.5" class="st5" width="94.2" height="8.5"/>
			<rect x="195.2" y="1910" class="st5" width="94.2" height="8.5"/>
			<rect x="195.2" y="1930.5" class="st5" width="94.2" height="8.5"/>
			<rect x="195.2" y="1951.1" class="st5" width="94.2" height="8.5"/>
			<rect x="195.2" y="1971.6" class="st5" width="94.2" height="8.5"/>
			<rect x="195.2" y="1992.2" class="st5" width="94.2" height="8.5"/>
			<rect x="195.2" y="2012.7" class="st5" width="94.2" height="8.5"/>
			<rect x="195.2" y="2033.2" class="st5" width="94.2" height="8.5"/>
			<rect x="195.2" y="2053.8" class="st5" width="94.2" height="8.5"/>
			<rect x="195.2" y="2074.3" class="st5" width="94.2" height="8.5"/>
			<rect x="195.2" y="2094.9" class="st5" width="94.2" height="8.5"/>
			<rect x="195.2" y="2115.4" class="st5" width="94.2" height="8.5"/>
			<rect x="195.2" y="2135.9" class="st5" width="94.2" height="8.5"/>
			<rect x="195.2" y="2156.5" class="st5" width="94.2" height="8.5"/>
			<rect x="195.2" y="2177" class="st5" width="94.2" height="8.5"/>
		</g>
		<g>
			<rect x="289.4" y="1848.4" class="st4" width="38.8" height="8.5"/>
			<rect x="289.4" y="1868.9" class="st4" width="38.8" height="8.5"/>
			<rect x="289.4" y="1889.5" class="st4" width="38.8" height="8.5"/>
			<rect x="289.4" y="1910" class="st4" width="38.8" height="8.5"/>
			<rect x="289.4" y="1930.5" class="st4" width="38.8" height="8.5"/>
			<rect x="289.4" y="1951.1" class="st4" width="38.8" height="8.5"/>
			<rect x="289.4" y="1971.6" class="st4" width="38.8" height="8.5"/>
			<rect x="289.4" y="1992.2" class="st4" width="38.8" height="8.5"/>
			<rect x="289.4" y="2012.7" class="st4" width="38.8" height="8.5"/>
			<rect x="289.4" y="2033.2" class="st4" width="38.8" height="8.5"/>
			<rect x="289.4" y="2053.8" class="st4" width="38.8" height="8.5"/>
			<rect x="289.4" y="2074.3" class="st4" width="38.8" height="8.5"/>
			<rect x="289.4" y="2094.9" class="st4" width="38.8" height="8.5"/>
			<rect x="289.4" y="2115.4" class="st4" width="38.8" height="8.5"/>
			<rect x="289.4" y="2135.9" class="st4" width="38.8" height="8.5"/>
			<rect x="289.4" y="2156.5" class="st4" width="38.8" height="8.5"/>
			<rect x="289.4" y="2177" class="st4" width="38.8" height="8.5"/>
		</g>
		<rect x="207.8" y="1848.4" class="st7" width="8.5" height="8.5"/>
		<rect x="254.7" y="1889.5" class="st7" width="34.6" height="8.5"/>
		<rect x="225.9" y="1971.6" class="st7" width="8.5" height="8.5"/>
		<rect x="251" y="1992.2" class="st7" width="29.1" height="8.5"/>
		<rect x="214.7" y="2033.2" class="st7" width="8.1" height="8.5"/>
		<rect x="242.3" y="2033.2" class="st7" width="7.8" height="8.5"/>
		<rect x="214.7" y="2053.8" class="st7" width="8.1" height="8.5"/>
		<rect x="299.8" y="1992.2" class="st5" width="7.4" height="8.5"/>
		<rect x="314" y="1910" class="st5" width="14.2" height="8.5"/>
		<rect x="299.8" y="1868.9" class="st5" width="7.5" height="8.5"/>
	</g>
	
		<rect x="111.5" y="1928.6" transform="matrix(-1 -1.224647e-16 1.224647e-16 -1 274.5305 4188.354)" class="st6" width="51.5" height="331.2"/>
	<g>
		<rect x="122.1" y="1951.1" class="st4" width="8.9" height="308.7"/>
		<rect x="122.1" y="1971.6" class="st5" width="8.9" height="8.5"/>
		<rect x="122.1" y="2012.7" class="st5" width="8.9" height="29.1"/>
		<rect x="122.1" y="2115.4" class="st5" width="8.9" height="8.5"/>
	</g>
	<rect x="366.9" y="1761.3" class="st4" width="130.7" height="498.5"/>
	<g>
		<g>
			<rect x="378.5" y="1782.3" class="st7" width="2.9" height="477.5"/>
		</g>
		<g>
			<rect x="391.6" y="1782.3" class="st7" width="2.9" height="477.5"/>
		</g>
		<g>
			<rect x="404.7" y="1782.3" class="st7" width="2.9" height="477.5"/>
		</g>
		<g>
			<rect x="417.7" y="1782.3" class="st7" width="2.9" height="477.5"/>
		</g>
		<g>
			<rect x="430.8" y="1782.3" class="st5" width="2.9" height="477.5"/>
		</g>
		<g>
			<rect x="443.9" y="1782.3" class="st5" width="2.9" height="274.4"/>
		</g>
		<g>
			<rect x="456.9" y="1782.3" class="st7" width="2.9" height="477.5"/>
		</g>
		<g>
			<rect x="470" y="1782.3" class="st5" width="2.9" height="233.6"/>
		</g>
		<g>
			<rect x="483.1" y="1782.3" class="st5" width="2.9" height="225.6"/>
		</g>
	</g>
	
		<rect x="497.6" y="1996.6" transform="matrix(-1 -1.224647e-16 1.224647e-16 -1 1036.5901 4256.332)" class="st6" width="41.5" height="263.2"/>
	<rect x="298.6" y="1810.3" class="st6" width="30.4" height="18.3"/>
	
		<rect x="263.5" y="1810.3" transform="matrix(-1 -1.224647e-16 1.224647e-16 -1 562.1487 3638.8005)" class="st4" width="35.1" height="18.3"/>
	<rect x="636" y="1877.4" class="st6" width="30.4" height="18.3"/>
	
		<rect x="600.9" y="1877.4" transform="matrix(-1 -1.224647e-16 1.224647e-16 -1 1236.9114 3773.094)" class="st4" width="35.1" height="18.3"/>
</g>
<g>
	<g>
		<path class="st8" d="M380.4,1244.5c-20.7,0-37.4,28-37.4,62.5c0,34.5,16.7,62.5,37.4,62.5h36.2v-125.1H380.4z"/>
		<ellipse class="st8" cx="416.6" cy="1307.1" rx="37.4" ry="62.5"/>
		<ellipse class="st9" cx="416.6" cy="1307.1" rx="27" ry="46.9"/>
	</g>
	<path class="st8" d="M969.6,1323.6c0,0,31.2,1.2,40.3,0c3.9-0.5,11.2-6,11.2-6c0.3-1.9,0.6-3.9,0.9-5.9c6.2-48-9.8-89.6-35.7-92.8
		c-26-3.3-52.1,33-58.4,81.1c-1.1,8.1-1.5,16-1.3,23.6H969.6z"/>
	<g>
		<path class="st8" d="M935.4,1244.5c-20.7,0-37.4,28-37.4,62.5c0,34.5,16.7,62.5,37.4,62.5h36.2v-125.1H935.4z"/>
		<ellipse class="st9" cx="971.6" cy="1307.1" rx="37.4" ry="62.5"/>
		<ellipse class="st10" cx="971.6" cy="1307.1" rx="27" ry="46.9"/>
	</g>
	<g>
		<path class="st8" d="M669.4,1244.5c-20.7,0-37.4,28-37.4,62.5c0,34.5,16.7,62.5,37.4,62.5h36.2v-125.1H669.4z"/>
		<ellipse class="st8" cx="705.6" cy="1307.1" rx="37.4" ry="62.5"/>
		<ellipse class="st9" cx="705.6" cy="1307.1" rx="27" ry="46.9"/>
	</g>
	<path class="st8" d="M734.3,1333c1.8-6.2,3.2-12.7,4.1-19.5c6.1-47.1-13.9-88.4-44.7-92.3c-30.8-3.9-59.5,31.4-66.9,78.3
		c-2,12.9-2.9,23.9-2.8,33.5H734.3z"/>
	<g>
		<path class="st8" d="M646.3,1244.5c-20.7,0-37.4,28-37.4,62.5c0,34.5,16.7,62.5,37.4,62.5h36.2v-125.1H646.3z"/>
		<ellipse class="st9" cx="682.5" cy="1307.1" rx="37.4" ry="62.5"/>
		<ellipse class="st10" cx="682.5" cy="1307.1" rx="27" ry="46.9"/>
	</g>
	<path class="st11" d="M1031.9,1229c-0.2-5.1-1.6-9.4-3.9-13.9c-3.1-5.9-1.7-11-1.3-17.2c0.3-4.7,0.4-9.7-0.6-14.4
		c-1.3-5.8-5.2-7.6-8.9-11.8c-3.1-3.4-4.7-7.1-9.5-8.5c-2.6-0.8-4.2-1-6.7-2.4c-2.9-1.8-5.8-3.7-8.6-5.6
		c-20.2-14.1-38.2-30.4-59.9-42.5c-21.2-11.9-44.2-20.8-68-25.9c-24.2-5.3-49.2-7.4-73.9-9.2c-25.7-1.9-51.3-2.2-77.1-2.1
		c-26.7,0-61.2,1.9-87.9,4.8c-12.1,1.3-23.5,3.7-35,6.5c-12.6,3.1-22.7,7.1-34,12c-31,13.8-84.4,51.6-97.9,61.1
		c-3.4,2.4-8.6,5-13.6,6.1c-20.2,4.2-39.6,11.7-52.2,19.1c-4.5,2.6-8.4,5.2-12.9,7.8c-4.8,2.9-9.5,4.3-14.6,6.6
		c-5.2,2.3-11,4.1-15.9,6.5c-4.9,2.3-8.2,4.3-12.6,7.5c-3.8,2.8-8,7.2-8.7,12c-0.7,4.4,1.2,10.5-1.3,14.4c-0.7,1-3.5,3.3-4.4,3.9
		c-4.9,3.4-5.3,11-5.5,16.7c-0.6,16.4,1.8,31.4,1,40.5c-0.5,5.6-1.6,11.2-0.3,16.7c1,4.1,3.6,11.8,7.5,14c1.6,0.9,2.9,0.8,4.5,2
		c1.2,1,2,2.2,3.6,2.9c1.2,0.5,2.3,0.5,3.5,0.5c37.3,0,102.9,0,163.1,0c57.1,0,109.2,0,127.6,0h5.3c0.2-13.2,1.5-28.1,4.6-43
		c2.8-13.5,10.7-31.7,16.9-40.9c19.6-28.9,46.1-22.5,55-15.6c15.5,12.1,21.6,35.1,21.6,53.7c0,22.4-3.5,32.2-6,41.6h8.2
		c7.4,0,16.1,0,25.2,0c17.9,0,37.4,0,51.9,0c26.2,0,52.5,0,78.7,0c15.8,0,26.1,0,45.7,0c1.2,0,2.2-0.2,3-1.1
		c1.5-1.8-3.1-16.3,0.6-38.2c2.1-12.2,5.2-24.1,11.1-35c5.4-10,16.3-27.6,30.9-26.5c18.3,1.4,28.7,24.1,31.5,37.6
		c4.8,23.1,2,37.1-0.3,49.9c-0.9,5.1,3.5,2,6.1,0.5c4.2-2.4,6.4-3.7,9.1-7c3.3-4.1,2.9-8.6,3.4-13.5c1.2-12.3,3.6-23.8,0-37.1
		C1027,1251.4,1032.3,1240.2,1031.9,1229z"/>
	<defs>
		<filter id="Adobe_OpacityMaskFilter" filterUnits="userSpaceOnUse" x="317" y="1075.4" width="715" height="261.7">
			<feFlood  style="flood-color:white;flood-opacity:1" result="back"/>
			<feBlend  in="SourceGraphic" in2="back" mode="normal"/>
		</filter>
	</defs>
	<mask maskUnits="userSpaceOnUse" x="317" y="1075.4" width="715" height="261.7" id="SVGID_1_">
		<g class="st12">
			<defs>
				<filter id="Adobe_OpacityMaskFilter_1_" filterUnits="userSpaceOnUse" x="317" y="1075.4" width="715" height="261.7">
					<feFlood  style="flood-color:white;flood-opacity:1" result="back"/>
					<feBlend  in="SourceGraphic" in2="back" mode="normal"/>
				</filter>
			</defs>
			<mask maskUnits="userSpaceOnUse" x="317" y="1075.4" width="715" height="261.7" id="SVGID_1_">
				<g class="st13">
				</g>
			</mask>
			<linearGradient id="SVGID_2_" gradientUnits="userSpaceOnUse" x1="645.2279" y1="1099.1113" x2="691.9095" y2="1363.856">
				<stop  offset="0" style="stop-color:#000000"/>
				<stop  offset="0.5" style="stop-color:#1A1A1A"/>
				<stop  offset="0.5618" style="stop-color:#222222"/>
				<stop  offset="0.6626" style="stop-color:#3B3B3B"/>
				<stop  offset="0.7899" style="stop-color:#636363"/>
				<stop  offset="0.9372" style="stop-color:#999999"/>
				<stop  offset="1" style="stop-color:#B3B3B3"/>
			</linearGradient>
			<path class="st14" d="M1031.9,1229c-0.2-5.1-1.6-9.4-3.9-13.9c-3.1-5.9-1.7-11-1.3-17.2c0.3-4.7,0.4-9.7-0.6-14.4
				c-1.3-5.8-5.2-7.6-8.9-11.8c-3.1-3.4-4.7-7.1-9.5-8.5c-2.6-0.8-4.2-1-6.7-2.4c-2.9-1.8-5.8-3.7-8.6-5.6
				c-20.2-14.1-38.2-30.4-59.9-42.5c-21.2-11.9-44.2-20.8-68-25.9c-24.2-5.3-49.2-7.4-73.9-9.2c-25.7-1.9-51.3-2.2-77.1-2.1
				c-26.7,0-61.2,1.9-87.9,4.8c-12.1,1.3-23.5,3.7-35,6.5c-12.6,3.1-22.7,7.1-34,12c-31,13.8-84.4,51.6-97.9,61.1
				c-3.4,2.4-8.6,5-13.6,6.1c-20.2,4.2-39.6,11.7-52.2,19.1c-4.5,2.6-8.4,5.2-12.9,7.8c-4.8,2.9-9.5,4.3-14.6,6.6
				c-5.2,2.3-11,4.1-15.9,6.5c-4.9,2.3-8.2,4.3-12.6,7.5c-3.8,2.8-8,7.2-8.7,12c-0.7,4.4,1.2,10.5-1.3,14.4c-0.7,1-3.5,3.3-4.4,3.9
				c-4.9,3.4-5.3,11-5.5,16.7c-0.6,16.4,1.8,31.4,1,40.5c-0.5,5.6-1.6,11.2-0.3,16.7c1,4.1,3.6,11.8,7.5,14c1.6,0.9,2.9,0.8,4.5,2
				c1.2,1,2,2.2,3.6,2.9c1.2,0.5,2.3,0.5,3.5,0.5c37.3,0,102.9,0,163.1,0c57.1,0,109.2,0,127.6,0h5.3c0.2-13.2,1.5-28.1,4.6-43
				c2.8-13.5,10.7-31.7,16.9-40.9c19.6-28.9,46.1-22.5,55-15.6c15.5,12.1,21.6,35.1,21.6,53.7c0,22.4-3.5,32.2-6,41.6h8.2
				c7.4,0,16.1,0,25.2,0c17.9,0,37.4,0,51.9,0c26.2,0,52.5,0,78.7,0c15.8,0,26.1,0,45.7,0c1.2,0,2.2-0.2,3-1.1
				c1.5-1.8-3.1-16.3,0.6-38.2c2.1-12.2,5.2-24.1,11.1-35c5.4-10,16.3-27.6,30.9-26.5c18.3,1.4,28.7,24.1,31.5,37.6
				c4.8,23.1,2,37.1-0.3,49.9c-0.9,5.1,3.5,2,6.1,0.5c4.2-2.4,6.4-3.7,9.1-7c3.3-4.1,2.9-8.6,3.4-13.5c1.2-12.3,3.6-23.8,0-37.1
				C1027,1251.4,1032.3,1240.2,1031.9,1229z"/>
		</g>
	</mask>
	<linearGradient id="SVGID_3_" gradientUnits="userSpaceOnUse" x1="645.2279" y1="1099.1113" x2="691.9095" y2="1363.856">
		<stop  offset="0" style="stop-color:#EC7B35"/>
		<stop  offset="0.5" style="stop-color:#EC7B35"/>
		<stop  offset="0.7215" style="stop-color:#E3742F"/>
		<stop  offset="1" style="stop-color:#D16524"/>
	</linearGradient>
	<path class="st15" d="M1031.9,1229c-0.2-5.1-1.6-9.4-3.9-13.9c-3.1-5.9-1.7-11-1.3-17.2c0.3-4.7,0.4-9.7-0.6-14.4
		c-1.3-5.8-5.2-7.6-8.9-11.8c-3.1-3.4-4.7-7.1-9.5-8.5c-2.6-0.8-4.2-1-6.7-2.4c-2.9-1.8-5.8-3.7-8.6-5.6
		c-20.2-14.1-38.2-30.4-59.9-42.5c-21.2-11.9-44.2-20.8-68-25.9c-24.2-5.3-49.2-7.4-73.9-9.2c-25.7-1.9-51.3-2.2-77.1-2.1
		c-26.7,0-61.2,1.9-87.9,4.8c-12.1,1.3-23.5,3.7-35,6.5c-12.6,3.1-22.7,7.1-34,12c-31,13.8-84.4,51.6-97.9,61.1
		c-3.4,2.4-8.6,5-13.6,6.1c-20.2,4.2-39.6,11.7-52.2,19.1c-4.5,2.6-8.4,5.2-12.9,7.8c-4.8,2.9-9.5,4.3-14.6,6.6
		c-5.2,2.3-11,4.1-15.9,6.5c-4.9,2.3-8.2,4.3-12.6,7.5c-3.8,2.8-8,7.2-8.7,12c-0.7,4.4,1.2,10.5-1.3,14.4c-0.7,1-3.5,3.3-4.4,3.9
		c-4.9,3.4-5.3,11-5.5,16.7c-0.6,16.4,1.8,31.4,1,40.5c-0.5,5.6-1.6,11.2-0.3,16.7c1,4.1,3.6,11.8,7.5,14c1.6,0.9,2.9,0.8,4.5,2
		c1.2,1,2,2.2,3.6,2.9c1.2,0.5,2.3,0.5,3.5,0.5c37.3,0,102.9,0,163.1,0c57.1,0,109.2,0,127.6,0h5.3c0.2-13.2,1.5-28.1,4.6-43
		c2.8-13.5,10.7-31.7,16.9-40.9c19.6-28.9,46.1-22.5,55-15.6c15.5,12.1,21.6,35.1,21.6,53.7c0,22.4-3.5,32.2-6,41.6h8.2
		c7.4,0,16.1,0,25.2,0c17.9,0,37.4,0,51.9,0c26.2,0,52.5,0,78.7,0c15.8,0,26.1,0,45.7,0c1.2,0,2.2-0.2,3-1.1
		c1.5-1.8-3.1-16.3,0.6-38.2c2.1-12.2,5.2-24.1,11.1-35c5.4-10,16.3-27.6,30.9-26.5c18.3,1.4,28.7,24.1,31.5,37.6
		c4.8,23.1,2,37.1-0.3,49.9c-0.9,5.1,3.5,2,6.1,0.5c4.2-2.4,6.4-3.7,9.1-7c3.3-4.1,2.9-8.6,3.4-13.5c1.2-12.3,3.6-23.8,0-37.1
		C1027,1251.4,1032.3,1240.2,1031.9,1229z"/>
	<path class="st11" d="M487.4,1137c-6.8-0.2-14.2,0.6-20.4,3.8c-4.8,2.4-13.2,10.5-8.6,16.3c2.7,3.5,7.3,0,9.7-1.7
		c3-2.2,17.2-11.2,20.3-13.5C492.9,1138.6,493.1,1137.2,487.4,1137z"/>
	<linearGradient id="SVGID_4_" gradientUnits="userSpaceOnUse" x1="989.3019" y1="1172.9043" x2="727.3058" y2="1140.2496">
		<stop  offset="0" style="stop-color:#2E668F"/>
		<stop  offset="0.3617" style="stop-color:#254D73"/>
		<stop  offset="0.7568" style="stop-color:#1D385B"/>
		<stop  offset="1" style="stop-color:#1A3052"/>
	</linearGradient>
	<path class="st16" d="M772.1,1091.9c-46.1-5-91.7-5.6-142.9-4.3c-11.2,0.3-26.8,1.4-37.3,2.7c-11.6,1.4-15.8,3-29.1,9
		c-10.2,4.6-21,10.4-30.5,16.3c-9.2,5.7-39.9,25.9-54,38c-2.9,2.5-11.7,9.4-3.7,8.8c24.4-1.7,70.5-2.8,92.8-2.7
		c73.2,0.2,105.6,6.1,116.9,5.9c4.4-0.1,9.7,1.1,13.8-1.1c4.1-2.2,8.1-7.9,11.2-11.3c8.6-9.3,43.6-44.1,52.6-52.1
		C763.1,1100,767.5,1095.8,772.1,1091.9z"/>
	<linearGradient id="SVGID_5_" gradientUnits="userSpaceOnUse" x1="506.8897" y1="1229.8073" x2="682.1999" y2="1229.8073">
		<stop  offset="0" style="stop-color:#EDEDED"/>
		<stop  offset="0.2558" style="stop-color:#E9E9E9"/>
		<stop  offset="0.5207" style="stop-color:#DCDCDC"/>
		<stop  offset="0.7889" style="stop-color:#C8C8C8"/>
		<stop  offset="1" style="stop-color:#B2B2B2"/>
	</linearGradient>
	<path class="st17" d="M640,1212.7c-5.7-1.2-11.4-2.3-17.2-2.8c-11.2-0.9-23.6,2.1-34.5,4.6c-22.6,5.1-73.3,17.1-78.1,18.3
		c-7.2,1.8-1.1,4.5,4,7.5c9.1,5.4,16.8,9.8,27.6,9.6c21.6-0.3,44.4-1.9,65.3-5.4c11.5-1.9,21.1-4.4,31.1-10.3
		c4.3-2.6,10.5-7.6,14.1-11.1c1.2-1.2,3.5-3.7,3.9-5.4C656.5,1216.1,641.8,1213,640,1212.7z"/>
	<path class="st18" d="M349.7,1233.9c0-1.5-1.7-3.3-2.7-4.7c-1.7-2.4-2.6-5.9-3-8.8c-0.4-3.3,0.6-11.7-2.4-10.6
		c-2.7,1-7.6,5-9.9,7.1c-5,4.6-4.4,10-4.1,16.3c0.2,4.4,2.7,21.7,9.2,15.3c2.6-2.6,4.5-4.9,7.2-7.7
		C346.2,1238.5,349.7,1235.7,349.7,1233.9z"/>
	<path class="st8" d="M492.9,1330c-4.6-2.6-6.8-3.5-12.9-3.5c-12.3,0-105.4,0-126.2,0c-8.8,0-12.2-0.8-19.2,5.6c-6.5,5.9,2,5,6,5
		c26.2,0,136.8,0,156.6,0c1.7,0,2.4-1.1,1.8-2.3C498.5,1333.6,494.7,1331.1,492.9,1330z"/>
	<path class="st8" d="M503.3,1250.7c-4.9-4.6-11-10-16.9-13.5c-4.5-2.6-11.6-4.1-20.9-3.8c-16.1,0.5-39.1,1.4-56.7,1.4
		c-16,0-26.7,0.1-41.7-0.8c-7.6-0.5-11.7-1.4-16.9,2.8c-5.1,4.2-12.6,14.3-15.6,20.3c-2.1,4.2-0.5,11.9,2.7,20.5
		c2.5,6.8,10.3,23.3,13.9,29.6c2.1,3.6,8.5,6.8,15,6.8c7.7,0,78.2,0,94.3,0c7.9,0,12.5-3.6,16.1-7.5c6.6-7.2,25.3-31.7,29.4-38.3
		C510.4,1261.4,508.8,1255.9,503.3,1250.7z"/>
	<path class="st10" d="M448.8,1298.5h-83.9c-1.3,0-2.4-1.1-2.4-2.4v-20.2c0-1.3,1.1-2.4,2.4-2.4h83.9c1.3,0,2.4,1.1,2.4,2.4v20.2
		C451.2,1297.4,450.1,1298.5,448.8,1298.5z"/>
	<path class="st8" d="M599,1292.2c-3-4-10.4-13.6-15.4-17.7c-4.5-3.7-12.5-3.3-19.7-3.3c-1.5,0-1.7,1-1,2.1
		c3.6,5.6,6.9,10.9,10.7,16.3c4,5.9,7.7,10.1,5.5,17.2c-0.7,2.2-4.3,4.5-8.6,5.6c-6.2,1.6-44.1,8.1-57,10.5
		c-1.2,0.2-0.9,1.4-0.1,2.1c2.6,2.5,10.1,1.5,14.6,1.1c6.5-0.6,52.9-5.9,58.9-7c5.5-1,9-3.3,11.9-5.6c2.6-2.1,5.1-5.3,5.6-7.9
		C605.5,1299.9,602.4,1296.8,599,1292.2z"/>
	<path class="st8" d="M330.2,1322.6c-0.5-1.9-3.2-7.8-3.8-12.5c-0.5-4.2-0.4-8.8-0.4-13.2c0-7.9,0.2-13.7,0.4-21.8
		c0-1.7-1.7-3-2.3-3.3c-1.9-0.8-3.9-1.2-5.9-1.2c-0.9,0-1.4,1-1.4,1.6c0,0,0.9,29.3,1.3,32.9c0.2,2.6,0.6,5.8,1.1,8.3
		c1,4.6,2.7,10.3,7.4,13.1C329.9,1328.7,330.9,1325.1,330.2,1322.6z"/>
	<path class="st19" d="M601.1,1299.2c0,3.3-2.5,5.9-5.6,5.9c-3.1,0-5.6-2.6-5.6-5.9s2.5-5.9,5.6-5.9
		C598.6,1293.3,601.1,1295.9,601.1,1299.2z"/>
	<path class="st20" d="M326.1,1295.4c0,0.5,0,1,0,1.5c0,2,0,4,0,6c-1,1.3-2.6,2.1-4.3,2.1c-1.5,0-2.8-0.6-3.8-1.6
		c-1.1-1.1-1.8-2.6-1.8-4.3c0-1.5,0.5-2.9,1.4-3.9c1-1.2,2.5-2,4.2-2C323.5,1293.3,325,1294.1,326.1,1295.4z"/>
	<path class="st20" d="M598.6,1299.2c0,3.3-2.5,5.9-5.6,5.9c-3.1,0-5.6-2.6-5.6-5.9s2.5-5.9,5.6-5.9
		C596.1,1293.3,598.6,1295.9,598.6,1299.2z"/>
	<path class="st21" d="M995.9,1179.8c-37,1.7-188,16.8-226.4,21.8c-9.7,1.3-19.5,2.1-29.2,3.5c-4.3,0.6-24,2.5-24,7
		c0,5.1,11,5.9,18.6,6.2c9.5,0.3,18.7,0.1,27.7-1.6c18.5-3.5,35.8-8.9,54.2-12.9c18.9-4.1,38.3-7.2,57.4-9.3
		c22.2-2.5,111.1-11.4,116.4-11.9c1.5-0.2,10.1-0.7,11-2C1002.2,1179.5,997.4,1179.7,995.9,1179.8z"/>
	<path class="st22" d="M913.7,1277.8c-6.9-0.8-13.8-0.4-20.7,0.1c-13.5,1-95.6,8.7-123.2,12.1c-2.8,0.3-29,3.3-25.6,8.1
		c1.1,1.5,6.4,1,8,1c6,0.1,132.8-9.9,148.7-11.2c7-0.5,30.1-1.8,30.5-4C932,1281.4,918.9,1278.4,913.7,1277.8z"/>
	<path class="st23" d="M1027.5,1186.2c0-4.7-2.4-8-5.8-11.3c-0.9-0.9-2.9-3.1-4.4-3.7c-2.3-1-4.3,0.3-6.3,1.4
		c-2.8,1.4-10.7,5.7-11.7,8.2c-1.2,3,4.3,6.9,6.8,8.8c3.3,2.6,5.6,5.6,8.9,8c2.7,2,5.6,1.9,11,1.9
		C1028.1,1199.5,1027.5,1190.4,1027.5,1186.2z"/>
	<path class="st7" d="M593.5,1217.7c-5.1,0-9.3,5.1-9.3,11.4c0,6.3,4.2,11.4,9.3,11.4c5.1,0,9.3-5.1,9.3-11.4
		C602.9,1222.8,598.7,1217.7,593.5,1217.7z M593.5,1235.7c-3,0-5.4-3-5.4-6.7c0-3.7,2.4-6.7,5.4-6.7c3,0,5.4,3,5.4,6.7
		C599,1232.7,596.6,1235.7,593.5,1235.7z"/>
	<path class="st7" d="M628.6,1219.3c1.8-7-5.5-7-12.4-6.9c-1.7,0-13.9,0.8-13.5,2.1c0.4,1.5,13,1.4,15.4,1.7c8.4,0.9-3,16-6.8,18.4
		c-7.7,5-18.5,5.5-27.3,6.7c-12.1,1.6-24.3,2.9-36.5,3.8c-4.1,0.3-7.9,0.4-9.4,1.5c-1.4,1.1,3.2,1.1,4.6,1.1
		c11.1-0.3,22.2-1.1,33.2-2.1c11.7-1.1,23.6-1.8,34.7-4.7c5.4-1.4,9-5.2,12-9.8C624.8,1227.6,627.5,1223.4,628.6,1219.3z"/>
	<path class="st21" d="M929.5,1161c-1.8-3.1-94.7-0.3-146.7,2c-8.1,0.4-70,4.5-78.1,4.9c-16.6,0.9-33.9,3.7-50.3,6.6
		c-30.3,5.2-60.4,12.2-105.1,27c-8.4,2.8-48.4,19.1-53.1,24.3c-2.6,2.9,12.3-5.8,31.5-12c39.1-12.6,78-21.7,128.4-29.1
		c13.2-1.9,30.8-1.9,38.5-1.7c9,0.2,26.1,0.1,35.1,0c15.3-0.1,30.3-2.7,57-5.1C825.3,1174.6,932,1165.4,929.5,1161z"/>
	<linearGradient id="SVGID_6_" gradientUnits="userSpaceOnUse" x1="987.7868" y1="1157.0933" x2="729.8082" y2="1124.9392">
		<stop  offset="0" style="stop-color:#2E668F"/>
		<stop  offset="0.3617" style="stop-color:#254D73"/>
		<stop  offset="0.7568" style="stop-color:#1D385B"/>
		<stop  offset="1" style="stop-color:#1A3052"/>
	</linearGradient>
	<path class="st24" d="M956.4,1137.2c-2.1-2-29.6-19.4-45.6-26.8c-16.1-7.4-31.7-12.9-49.2-15.5c-17.8-2.7-35.8-4.1-53.8-1.7
		c-15.6,2.1-28.1,10.8-39.5,21c-12.7,11.3-24.1,24.2-35.5,36.2c-2.5,2.7-13.7,13.8-11.7,16.9c1.7,2.5,8.5,3.7,11.3,4.2
		c4.5,0.9,9,1.5,13.6,2.1c3.5,0.4,7.3,0.7,10.8,0.7c16.2,0.1,79.2-5,97.9-6.3c20.7-1.4,41.4-3.1,62-4.8c4.3-0.4,9.4-0.8,13.6-2
		c4.5-1.3,8.5-3.1,12.5-5.5C945.3,1154.1,961.4,1142.2,956.4,1137.2z"/>
	<g>
		<linearGradient id="SVGID_7_" gradientUnits="userSpaceOnUse" x1="1069.4139" y1="1130.2433" x2="733.4124" y2="1130.2433">
			<stop  offset="0" style="stop-color:#30B5BF"/>
			<stop  offset="1" style="stop-color:#244E78"/>
		</linearGradient>
		<path class="st25" d="M621.2,1104.1c-26.8,0.9-45.9,6.9-65.9,15.5c-17.1,7.4-46.9,26.3-54.8,33.9c-0.9,0.9-1.9,2.8-0.5,2.8
			c5.9,0,10.8,0,17.3,0c5.6,0,10.8-2.7,16.1-4.3c11.8-3.4,24.1-4.2,36.3-4.2c0.9,0,0.8-0.7,1.1-1.3c5.3-8.5,21.1-7.7,30-3.5
			c0.5,0.2,2.3,0.5,2.9-0.8c4.6-9.8,13.7-27.1,18.9-35.9C623.1,1105.6,623.5,1104,621.2,1104.1z"/>
		<linearGradient id="SVGID_8_" gradientUnits="userSpaceOnUse" x1="1069.4136" y1="1150.5555" x2="733.4111" y2="1150.5555">
			<stop  offset="0" style="stop-color:#30B5BF"/>
			<stop  offset="1" style="stop-color:#244E78"/>
		</linearGradient>
		<path class="st26" d="M601.6,1148.1c-4.6-2.9-13-4.4-18-1.2c-0.8,0.5-2.3,1.4,0,2c1.2,0.3,2.4,0.7,3,1.6c0.9,1.3,0.8,4.3,2.8,5.1
			c1.2,0.5,8.1,0.3,9.8,0.2c0.5,0,1,0,1.3-0.6c0.4-1,1.5-4.8,1.9-5.8C602.6,1148.8,602,1148.4,601.6,1148.1z"/>
		<linearGradient id="SVGID_9_" gradientUnits="userSpaceOnUse" x1="1069.4133" y1="1133.2023" x2="733.4117" y2="1133.2023">
			<stop  offset="0" style="stop-color:#30B5BF"/>
			<stop  offset="1" style="stop-color:#244E78"/>
		</linearGradient>
		<path class="st27" d="M723.6,1127.6c-22.8-15.1-42.3-19.9-66.9-21.8c-2.7-0.2-3.6-0.5-5.2,2.1c-1.8,2.9-15.5,36.6-18.4,45.9
			c-0.6,2-1,3.1,1.9,3.2c21,1,34.3,2.1,56.2,3.8c3.4,0.3,5.5,0,7.9-2.4c3.9-3.8,17.1-17.5,24.9-25.5
			C726.8,1129.9,725.2,1128.6,723.6,1127.6z M700.7,1146.1h-36.8c-2.6,0-4.6-2.2-4.3-4.8l1.5-15.6c0.2-2.1,2.2-3.7,4.4-3.7h31.3
			c2.2,0,4.4,1.6,4.8,3.7l2.9,15.6C705.1,1143.9,703.3,1146.1,700.7,1146.1z"/>
		<linearGradient id="SVGID_10_" gradientUnits="userSpaceOnUse" x1="1069.4131" y1="1121.4193" x2="733.4116" y2="1121.4193">
			<stop  offset="0" style="stop-color:#30B5BF"/>
			<stop  offset="1" style="stop-color:#244E78"/>
		</linearGradient>
		<path class="st28" d="M829.6,1133.1c-0.6-4.3-1.1-8.3-2-12.6c-0.8-3.7-1.3-8.1-2.7-11.6c-0.9-2.3-2.6-3.6-5.1-3.5
			c-8,0.4-19.8-0.2-28.9,2.8c-7.9,2.6-14.9,7.3-20.6,12.7c-0.6,0.6-1.8,1.6-1.1,2.6c0.3,0.4,0.8,0.9,1.2,1.3
			c1.1,0.9,6.4,5.5,7.6,6.3c1.1,0.8,3.5,2.7,5.8,1.1c1.7-1.3,2.4-4.5,3.6-6.3c2.3-3.5,5-4.6,9.2-4.8c3.4-0.2,14.7-0.2,20.3-0.2
			c4.2,0,5.7,7,6.6,9.6c0.7,2.1,1.3,4.3,2.7,6.5C827.1,1138.4,830.1,1136.9,829.6,1133.1z"/>
		<linearGradient id="SVGID_11_" gradientUnits="userSpaceOnUse" x1="1069.4138" y1="1131.8899" x2="733.412" y2="1131.8899">
			<stop  offset="0" style="stop-color:#30B5BF"/>
			<stop  offset="1" style="stop-color:#244E78"/>
		</linearGradient>
		<path class="st29" d="M937.7,1145.9c-7.4-6.3-23.8-17.6-39.4-24.3c-15.2-6.5-24-10-45.3-14c-1-0.2-1.6,0.8-1.2,2
			c4.6,16.2,8.6,32.5,10.1,39.4c0.8,3.6,1.4,6.7,2.1,7c1.2,0.5,2.4-1.3,2.5-2.8c0.3-4.7,0.8-11.3,2.1-14.6c1.5-3.8,5.9-3.2,8.7-3.2
			c5.4,0,19.1-0.4,22.1-0.4c4.3,0,5.4,4.2,6,6.5c0.6,2.2,0.8,3.6,1.4,5.8c0.3,1.2,1.4,1.9,2.3,1.9c4.7,0,22-0.1,27.4-0.1
			C938.2,1149.1,939.6,1147.5,937.7,1145.9z"/>
	</g>
	<path class="st7" d="M956.4,1137.2c-0.4-0.4-1.6-1.2-3.4-2.4c3.4,5.3-11.4,16.5-13.8,18c-3.9,2.4-7.7,4.1-12.2,5.5
		c-4.1,1.2-9.2,1.7-13.5,2.1c-20.3,1.7-40.7,3.4-61,4.8c-18.4,1.3-80.4,6.3-96.3,6.3c-3.5,0-7.1-0.3-10.6-0.7
		c-4.5-0.5-8.9-1.2-13.3-2.1c-2.7-0.5-9-1.6-10.9-4c-0.5,1.1-0.6,2.1-0.2,2.7c1.7,2.5,8.5,3.7,11.3,4.2c4.5,0.9,9,1.5,13.6,2.1
		c3.5,0.4,7.3,0.7,10.8,0.7c16.2,0.1,79.2-5,97.9-6.3c20.7-1.4,41.4-3.1,62-4.8c4.3-0.4,9.4-0.8,13.6-2c4.5-1.3,8.5-3.1,12.5-5.5
		C945.3,1154.1,961.4,1142.2,956.4,1137.2z"/>
	<path class="st11" d="M812.6,1155.1c-2-10.4-23.8-14.3-32.7-14.8c-6.2-0.4-13.2-0.9-17.9,3.4c-4,3.7-6.5,9-7,14.5
		c-0.4,4.8,1.6,10.5,5.6,13.5c4.7,3.5,15.3,2.6,20.7,1.9C791.6,1172.4,815.4,1170.1,812.6,1155.1z"/>
	<path class="st30" d="M698.9,1279.2c-0.5-0.9-1.9-0.5-1.8,0.5c0,1,0.1,2,0.1,3c0,22-10.3,39.9-22.9,39.9c-4.5,0-8.6-2.2-12.2-6.1
		c-0.6-0.7-1.8-0.1-1.7,0.8c2.6,17,11.5,29.6,22.2,29.6c12.7,0,22.9-17.8,22.9-39.9C705.4,1296.2,702.9,1286.4,698.9,1279.2z"/>
	<path class="st30" d="M988,1279.2c-0.5-0.9-1.9-0.5-1.8,0.5c0,1,0.1,2,0.1,3c0,22-10.3,39.9-22.9,39.9c-4.5,0-8.6-2.2-12.2-6.1
		c-0.6-0.7-1.8-0.1-1.7,0.8c2.6,17,11.5,29.6,22.2,29.6c12.7,0,22.9-17.8,22.9-39.9C994.5,1296.2,992,1286.4,988,1279.2z"/>
	<defs>
		<filter id="Adobe_OpacityMaskFilter_2_" filterUnits="userSpaceOnUse" x="317" y="1075.4" width="715" height="261.7">
			<feFlood  style="flood-color:white;flood-opacity:1" result="back"/>
			<feBlend  in="SourceGraphic" in2="back" mode="normal"/>
		</filter>
	</defs>
	<mask maskUnits="userSpaceOnUse" x="317" y="1075.4" width="715" height="261.7" id="SVGID_12_">
		<g class="st31">
			<defs>
				<filter id="Adobe_OpacityMaskFilter_3_" filterUnits="userSpaceOnUse" x="317" y="1075.4" width="715" height="261.7">
					<feFlood  style="flood-color:white;flood-opacity:1" result="back"/>
					<feBlend  in="SourceGraphic" in2="back" mode="normal"/>
				</filter>
			</defs>
			<mask maskUnits="userSpaceOnUse" x="317" y="1075.4" width="715" height="261.7" id="SVGID_12_">
				<g class="st32">
				</g>
			</mask>
			<linearGradient id="SVGID_13_" gradientUnits="userSpaceOnUse" x1="631.9276" y1="1101.2526" x2="708.4919" y2="1386.9946">
				<stop  offset="0" style="stop-color:#FFFFFF"/>
				<stop  offset="1" style="stop-color:#808080"/>
			</linearGradient>
			<path class="st33" d="M1030,1262.5c-3-11.1,2.2-22.2,1.9-33.4c-0.2-5.1-1.6-9.4-3.9-13.9c-3.1-5.9-1.7-11-1.3-17.2
				c0.3-4.7,0.4-9.7-0.6-14.4c-1.3-5.8-5.2-7.6-8.9-11.8c-3.1-3.4-4.7-7.1-9.5-8.5c-2.6-0.8-4.2-1-6.7-2.4c-2.9-1.8-5.8-3.7-8.6-5.6
				c-20.2-14.1-38.2-30.4-59.9-42.5c-21.2-11.9-44.2-20.8-68-25.9c-24.2-5.3-49.2-7.4-73.9-9.2c-25.7-1.9-51.3-2.2-77.1-2.1
				c-26.7,0-61.2,1.9-87.9,4.8c-12.1,1.3-23.5,3.7-35,6.5c-12.6,3.1-22.7,7.1-34,12c-31,13.8-84.4,51.6-97.9,61.1
				c-3.4,2.4-8.6,5-13.6,6.1c-20.2,4.2-39.6,11.7-52.2,19.1c-4.5,2.6-8.4,5.2-12.9,7.8c-4.8,2.9-9.5,4.3-14.6,6.6
				c-5.2,2.3-11,4.1-15.9,6.5c-4.9,2.3-8.2,4.3-12.6,7.5c-3.8,2.8-8,7.2-8.7,12c-0.7,4.4,1.2,10.5-1.3,14.4c-0.7,1-3.5,3.3-4.4,3.9
				c-4.9,3.4-5.3,11-5.5,16.7c-0.6,16.4,1.8,31.4,1,40.5c-0.5,5.6-1.6,11.2-0.3,16.7c1,4.1,3.6,11.8,7.5,14c1.6,0.9,2.9,0.8,4.5,2
				c1.2,1,2,2.2,3.6,2.9c1.2,0.5,2.3,0.5,3.5,0.5c37.3,0,102.9,0,163.1,0c57.1,0,109.2,0,127.6,0h5.3c0.2-13.2,1.5-28.1,4.6-43
				c2.8-13.5,10.7-31.7,16.9-40.9c19.6-28.9,46.1-22.5,55-15.6c15.5,12.1,21.6,35.1,21.6,53.7c0,22.4-3.5,32.2-6,41.6h8.2
				c7.4,0,16.1,0,25.2,0c17.9,0,37.4,0,51.9,0c26.2,0,52.5,0,78.7,0c15.8,0,26.1,0,45.7,0c1.2,0,2.2-0.2,3-1.1
				c1.5-1.8-3.1-16.3,0.6-38.2c2.1-12.2,5.2-24.1,11.1-35c5.4-10,16.3-27.6,30.9-26.5c18.3,1.4,28.7,24.1,31.5,37.6
				c4.8,23.1,2,37.1-0.3,49.9c-0.9,5.1,3.5,2,6.1,0.5c4.2-2.4,6.4-3.7,9.1-7c3.3-4.1,2.9-8.6,3.4-13.5
				C1031.3,1287.3,1033.7,1275.7,1030,1262.5z M709.3,1153.3c-3.2,3.4-7.1,9.1-11.2,11.3c-4,2.1-9.4,1-13.8,1.1
				c-11.3,0.2-43.7-5.7-116.9-5.9c-22.3-0.1-68.4,1.1-92.8,2.7c-8,0.6,0.7-6.3,3.7-8.8c14.1-12.1,44.9-32.3,54-38
				c9.5-5.9,20.2-11.7,30.5-16.3c13.3-6,17.5-7.5,29.1-9c10.5-1.3,26.2-2.4,37.3-2.7c51.2-1.3,96.8-0.7,142.9,4.3
				c-4.6,3.8-9,8.1-10.3,9.3C752.8,1109.2,717.8,1144,709.3,1153.3z M942.8,1155.7c-4,2.4-8,4.2-12.5,5.5c-4.1,1.2-9.3,1.6-13.6,2
				c-20.7,1.7-41.3,3.4-62,4.8c-11.9,0.8-41.8,3.2-66.2,4.7c11.3-1.7,26.4-5.5,24.1-17.6c-2-10.4-23.8-14.3-32.7-14.8
				c-6.2-0.4-13.2-0.9-17.9,3.4c-4,3.7-6.5,9.1-7,14.5c-0.4,4.8,1.6,10.5,5.6,13.5c1.6,1.2,3.9,1.8,6.4,2.2
				c-4.3,0.2-7.8,0.3-10.3,0.3c-3.5,0-7.3-0.3-10.8-0.7c-4.5-0.5-9.1-1.2-13.6-2.1c-2.9-0.5-9.6-1.7-11.3-4.2
				c-2.1-3,9.1-14.2,11.7-16.9c11.4-12,22.8-25,35.5-36.2c11.5-10.2,23.9-19,39.5-21c18-2.4,36-0.9,53.8,1.8
				c17.5,2.6,33.1,8.1,49.2,15.5c16,7.3,43.5,24.7,45.6,26.8C961.4,1142.2,945.3,1154.1,942.8,1155.7z"/>
		</g>
	</mask>
	<linearGradient id="SVGID_14_" gradientUnits="userSpaceOnUse" x1="631.9276" y1="1101.2526" x2="708.4919" y2="1386.9946">
		<stop  offset="0" style="stop-color:#191538"/>
		<stop  offset="1" style="stop-color:#5C3123"/>
	</linearGradient>
	<path class="st34" d="M1030,1262.5c-3-11.1,2.2-22.2,1.9-33.4c-0.2-5.1-1.6-9.4-3.9-13.9c-3.1-5.9-1.7-11-1.3-17.2
		c0.3-4.7,0.4-9.7-0.6-14.4c-1.3-5.8-5.2-7.6-8.9-11.8c-3.1-3.4-4.7-7.1-9.5-8.5c-2.6-0.8-4.2-1-6.7-2.4c-2.9-1.8-5.8-3.7-8.6-5.6
		c-20.2-14.1-38.2-30.4-59.9-42.5c-21.2-11.9-44.2-20.8-68-25.9c-24.2-5.3-49.2-7.4-73.9-9.2c-25.7-1.9-51.3-2.2-77.1-2.1
		c-26.7,0-61.2,1.9-87.9,4.8c-12.1,1.3-23.5,3.7-35,6.5c-12.6,3.1-22.7,7.1-34,12c-31,13.8-84.4,51.6-97.9,61.1
		c-3.4,2.4-8.6,5-13.6,6.1c-20.2,4.2-39.6,11.7-52.2,19.1c-4.5,2.6-8.4,5.2-12.9,7.8c-4.8,2.9-9.5,4.3-14.6,6.6
		c-5.2,2.3-11,4.1-15.9,6.5c-4.9,2.3-8.2,4.3-12.6,7.5c-3.8,2.8-8,7.2-8.7,12c-0.7,4.4,1.2,10.5-1.3,14.4c-0.7,1-3.5,3.3-4.4,3.9
		c-4.9,3.4-5.3,11-5.5,16.7c-0.6,16.4,1.8,31.4,1,40.5c-0.5,5.6-1.6,11.2-0.3,16.7c1,4.1,3.6,11.8,7.5,14c1.6,0.9,2.9,0.8,4.5,2
		c1.2,1,2,2.2,3.6,2.9c1.2,0.5,2.3,0.5,3.5,0.5c37.3,0,102.9,0,163.1,0c57.1,0,109.2,0,127.6,0h5.3c0.2-13.2,1.5-28.1,4.6-43
		c2.8-13.5,10.7-31.7,16.9-40.9c19.6-28.9,46.1-22.5,55-15.6c15.5,12.1,21.6,35.1,21.6,53.7c0,22.4-3.5,32.2-6,41.6h8.2
		c7.4,0,16.1,0,25.2,0c17.9,0,37.4,0,51.9,0c26.2,0,52.5,0,78.7,0c15.8,0,26.1,0,45.7,0c1.2,0,2.2-0.2,3-1.1
		c1.5-1.8-3.1-16.3,0.6-38.2c2.1-12.2,5.2-24.1,11.1-35c5.4-10,16.3-27.6,30.9-26.5c18.3,1.4,28.7,24.1,31.5,37.6
		c4.8,23.1,2,37.1-0.3,49.9c-0.9,5.1,3.5,2,6.1,0.5c4.2-2.4,6.4-3.7,9.1-7c3.3-4.1,2.9-8.6,3.4-13.5
		C1031.3,1287.3,1033.7,1275.7,1030,1262.5z M709.3,1153.3c-3.2,3.4-7.1,9.1-11.2,11.3c-4,2.1-9.4,1-13.8,1.1
		c-11.3,0.2-43.7-5.7-116.9-5.9c-22.3-0.1-68.4,1.1-92.8,2.7c-8,0.6,0.7-6.3,3.7-8.8c14.1-12.1,44.9-32.3,54-38
		c9.5-5.9,20.2-11.7,30.5-16.3c13.3-6,17.5-7.5,29.1-9c10.5-1.3,26.2-2.4,37.3-2.7c51.2-1.3,96.8-0.7,142.9,4.3
		c-4.6,3.8-9,8.1-10.3,9.3C752.8,1109.2,717.8,1144,709.3,1153.3z M942.8,1155.7c-4,2.4-8,4.2-12.5,5.5c-4.1,1.2-9.3,1.6-13.6,2
		c-20.7,1.7-41.3,3.4-62,4.8c-11.9,0.8-41.8,3.2-66.2,4.7c11.3-1.7,26.4-5.5,24.1-17.6c-2-10.4-23.8-14.3-32.7-14.8
		c-6.2-0.4-13.2-0.9-17.9,3.4c-4,3.7-6.5,9.1-7,14.5c-0.4,4.8,1.6,10.5,5.6,13.5c1.6,1.2,3.9,1.8,6.4,2.2c-4.3,0.2-7.8,0.3-10.3,0.3
		c-3.5,0-7.3-0.3-10.8-0.7c-4.5-0.5-9.1-1.2-13.6-2.1c-2.9-0.5-9.6-1.7-11.3-4.2c-2.1-3,9.1-14.2,11.7-16.9
		c11.4-12,22.8-25,35.5-36.2c11.5-10.2,23.9-19,39.5-21c18-2.4,36-0.9,53.8,1.8c17.5,2.6,33.1,8.1,49.2,15.5
		c16,7.3,43.5,24.7,45.6,26.8C961.4,1142.2,945.3,1154.1,942.8,1155.7z"/>
	<path class="st35" d="M1027.5,1186.2c0-4.7-2.4-8-5.8-11.3c-0.9-0.9-2.9-3.1-4.4-3.7c-2.3-1-4.3,0.3-6.3,1.4
		c-2.8,1.4-10.7,5.7-11.7,8.2c-1.2,3,4.3,6.9,6.8,8.8c3.3,2.6,5.6,5.6,8.9,8c2.7,2,5.6,1.9,11,1.9
		C1028.1,1199.5,1027.5,1190.4,1027.5,1186.2z"/>
	<g>
		<path class="st36" d="M359.2,1232.7c-0.4,0-0.7-0.3-0.7-0.6c-1.5-7.9,0.6-15.9,6.1-23.9c14.3-20.6,51-38.8,93.5-46.3
			c0.4-0.1,0.8,0.2,0.9,0.6c0.1,0.4-0.2,0.8-0.6,0.9c-42.2,7.5-78.5,25.4-92.5,45.7c-5.3,7.7-7.3,15.3-5.9,22.8
			c0.1,0.4-0.2,0.8-0.6,0.9C359.3,1232.7,359.2,1232.7,359.2,1232.7z"/>
		<g>
			<path class="st36" d="M989,1207.8c-4.2,0-8.9-5.8-11.1-14.1c-1.7-6.2-1.5-12.1,0.5-15.4c0.8-1.4,1.9-2.3,3.1-2.6
				c4.4-1.2,9.8,5,12.2,13.9c1.7,6.2,1.5,12.1-0.5,15.4c-0.8,1.4-1.9,2.3-3.1,2.6C989.7,1207.8,989.3,1207.8,989,1207.8z
				 M982.6,1177.1c-0.3,0-0.5,0-0.7,0.1c-0.9,0.2-1.6,0.9-2.2,1.9c-1.7,3-1.9,8.6-0.3,14.3c2.1,7.9,6.9,13.8,10.4,12.9
				c0.9-0.2,1.6-0.9,2.2-1.9c1.7-3,1.9-8.6,0.3-14.3C990.3,1182.7,986,1177.1,982.6,1177.1z"/>
		</g>
		<g>
			<path class="st36" d="M841,1209.2c-2.4,0-4.3-1.2-5.1-3.3c-0.1-0.4,0.1-0.8,0.4-1c0.4-0.1,0.8,0.1,1,0.4c0.3,0.7,1.2,2.4,3.8,2.3
				c8.3-0.2,10.4-0.4,16.6-1.2c5-0.7,6.9-1.8,6.9-3.9c0-0.4,0.3-0.7,0.7-0.7c0.4,0,0.7,0.3,0.7,0.7c0,3.8-3.9,4.8-8.2,5.4
				c-6.3,0.9-8.5,1-16.8,1.2C841.1,1209.2,841,1209.2,841,1209.2z"/>
		</g>
		<g>
			<path class="st36" d="M943.3,1199.1c-0.1,0-0.3,0-0.4,0c-1.2,0-2.3-0.2-3.2-0.6c-1.1-0.5-1.9-1.5-2.2-2.7
				c-0.1-0.4,0.2-0.8,0.6-0.9c0.4-0.1,0.8,0.2,0.9,0.6c0.2,0.7,0.6,1.4,1.3,1.7c0.7,0.3,1.6,0.5,2.6,0.5c4.8,0,9.1-0.4,13.9-0.9
				l0.1,0c2.2-0.2,4.7-0.5,5.7-2c0.2-0.3,0.7-0.4,1-0.2c0.3,0.2,0.4,0.7,0.2,1c-1.4,2.1-4.4,2.4-6.8,2.7l-0.1,0
				C952.3,1198.7,948,1199.1,943.3,1199.1z"/>
		</g>
		<g>
			<path class="st36" d="M607.8,1211.4c-0.4,0-0.7-0.3-0.7-0.7c-0.1-5.5,2.1-6.3,4.8-7.4l0.3-0.1c21.3-8.2,50.6-15.5,66.4-19.4
				c3.4-0.8,6.1-1.5,7.8-2c1.4-0.4,2.3-1.8,2.5-2.2c1.6-4.4,2.4-7.9,2.7-11.9c0.1-0.8-0.3-1.3-1.1-1.5c-0.4-0.1-0.6-0.5-0.5-0.9
				c0.1-0.4,0.5-0.6,0.9-0.5c1.5,0.4,2.3,1.5,2.2,3.1c-0.3,4.2-1.1,7.8-2.7,12.3c-0.3,0.8-1.6,2.6-3.5,3.1c-1.7,0.5-4.4,1.1-7.8,2
				c-15.7,3.9-45,11.2-66.2,19.4l-0.3,0.1c-2.6,1-3.9,1.5-3.8,6C608.6,1211,608.2,1211.4,607.8,1211.4
				C607.8,1211.4,607.8,1211.4,607.8,1211.4z"/>
		</g>
		<g>
			<path class="st36" d="M541.2,1250.7c-10.9,0-18.5-4.5-27.4-9.8c-0.6-0.4-1.3-0.7-1.9-1.1c-3.3-1.9-6-3.4-5.7-5.2
				c0.2-1.1,1.3-1.9,3.8-2.6c0.4-0.1,0.8,0.1,0.9,0.5c0.1,0.4-0.1,0.8-0.5,0.9c-2.6,0.7-2.7,1.3-2.7,1.3c-0.1,0.8,3,2.5,5,3.7
				c0.6,0.4,1.3,0.7,1.9,1.1c8.7,5.1,16.2,9.5,26.6,9.5c0.2,0,0.4,0,0.6,0c24.4-0.4,46.3-2.2,65.2-5.3c11.3-1.9,20.9-4.4,30.8-10.3
				c4.3-2.6,10.5-7.6,14-11c1.2-1.2,3.2-3.4,3.6-4.8c-0.5-0.4-2.9-1.7-15.1-4.3l-0.4-0.1c-5-1.1-11-2.3-17.1-2.8
				c-0.4,0-0.7-0.4-0.7-0.8c0-0.4,0.4-0.7,0.8-0.7c6.2,0.5,12.2,1.7,17.3,2.8l0.4,0.1c15,3.2,15.8,4.5,16.1,5
				c0.2,0.3,0.2,0.6,0.2,0.8c-0.5,2.2-3.7,5.4-4.1,5.8c-3.5,3.4-9.8,8.5-14.2,11.2c-10.1,6-19.8,8.5-31.3,10.4
				c-18.9,3.2-40.9,5-65.4,5.4C541.6,1250.7,541.4,1250.7,541.2,1250.7z"/>
		</g>
		<g>
			<path class="st36" d="M910.4,1316H729.2c-0.4,0-0.7-0.3-0.7-0.7s0.3-0.7,0.7-0.7h181.3c13.8,0,15.6-4.7,17.6-10.1l0.2-0.5
				c1.4-3.7,3-9.9,4.4-15.9c1.2-4.7,2.4-9.5,3.5-13.1c3.3-10.4,8.5-21,14-28.4c1.2-1.6,2.5-3.3,3.8-5c4.4-5.7,9-11.5,11-17.5
				c3.6-10.9,4.8-23.1,4-39.7c-0.2-3.6-1.2-7.1-2.1-10.6c-0.8-3-1.7-6.2-2-9.3l0-0.3c-1.1-11.4-1.8-19.6-8.5-25.7
				c-0.3-0.3-0.3-0.8,0-1.1c0.3-0.3,0.8-0.3,1.1,0c7.1,6.5,7.9,14.9,9,26.6l0,0.3c0.3,3,1.1,5.9,2,9.1c1,3.5,2,7.2,2.2,10.9
				c0.8,16.8-0.5,29.2-4.1,40.3c-2,6.2-6.7,12.2-11.2,18c-1.3,1.7-2.6,3.3-3.8,5c-5.4,7.3-10.5,17.8-13.7,28
				c-1.1,3.5-2.3,8.4-3.5,13c-1.5,6-3.1,12.3-4.5,16l-0.2,0.5C927.3,1310.6,925.3,1316,910.4,1316z"/>
		</g>
		<g>
			<path class="st36" d="M862.1,1316C862.1,1316,862.1,1316,862.1,1316c-0.5-0.1-0.8-0.4-0.7-0.8c0.2-1.4,0.4-3.1,0.6-4.9
				c0.8-6.3,1.8-14.1,1.7-18.9c0-1-0.4-2.7-0.7-4.4c-0.5-2.3-1-5-1.1-7.2c-0.1-5.7,4.8-36.1,5.8-42.1c1.5-9.3,1.1-28.6,0.1-37.9
				c-0.3-2.8-0.3-5.6-0.3-8.2c0-3.1,0-6.3-0.5-9.7c-0.8-5.7-4.6-11.1-7.8-15.1c-0.3-0.3-0.2-0.8,0.1-1.1c0.3-0.3,0.8-0.2,1.1,0.1
				c3.3,4.2,7.2,9.8,8.1,15.8c0.5,3.5,0.5,6.8,0.5,9.9c0,2.6,0,5.3,0.3,8c1,9.4,1.5,28.9-0.1,38.3c-2.7,16.6-5.9,37.5-5.8,41.9
				c0,2.1,0.6,4.7,1,6.9c0.4,1.9,0.7,3.5,0.8,4.7c0.1,4.9-0.9,12.8-1.7,19.1c-0.2,1.8-0.4,3.5-0.6,4.8
				C862.8,1315.7,862.5,1316,862.1,1316z"/>
		</g>
		<g>
			<path class="st36" d="M740.8,1316C740.8,1316,740.8,1316,740.8,1316c-0.5,0-0.8-0.4-0.7-0.8c3.3-31.1,2.4-51.7,0.6-85.4
				c0-0.8-0.2-2.3-0.4-4c-0.4-4.1-1-9.7-0.8-13c0-0.5,0.1-1.3,0.2-2.1c0.3-2.8,0.7-6.9,0-10.3c-1.2-5.7-3.1-11.3-4.9-16.8
				c-1.4-4.2-2.9-8.5-4-12.8c-0.1-0.4,0.1-0.8,0.5-0.9c0.4-0.1,0.8,0.1,0.9,0.5c1.1,4.3,2.6,8.6,4,12.7c1.9,5.5,3.8,11.2,5,17
				c0.7,3.6,0.3,7.9,0,10.7c-0.1,0.8-0.2,1.5-0.2,2c-0.2,3.2,0.4,8.8,0.8,12.8c0.2,1.8,0.3,3.2,0.4,4.1c1.8,33.8,2.7,54.4-0.6,85.6
				C741.5,1315.7,741.2,1316,740.8,1316z"/>
		</g>
		<g>
			<path class="st36" d="M585.4,1276.8c-0.2,0-0.4-0.1-0.5-0.2c-2.4-2.4-4.5-3.5-8.3-4.3c-2-0.4-10.7-0.6-19-0.8
				c-2.2-0.1-4.4-0.1-6.5-0.2c-2.1-0.1-4.3-0.1-6.5-0.1c-9.8-0.2-20-0.3-25.4-2.5c-5.5-2.2-7.7-5.5-9.9-9c-0.8-1.2-1.6-2.4-2.5-3.7
				c-0.2-0.3-0.2-0.8,0.1-1c0.3-0.3,0.8-0.2,1,0.1c1,1.3,1.8,2.6,2.6,3.8c2.2,3.5,4.1,6.4,9.2,8.5c5.2,2.1,15.2,2.2,24.9,2.4
				c2.2,0,4.4,0.1,6.5,0.1c2.1,0.1,4.3,0.1,6.5,0.2c8.8,0.2,17.1,0.4,19.3,0.8c4,0.8,6.5,2.1,9.1,4.7c0.3,0.3,0.3,0.8,0,1.1
				C585.8,1276.7,585.6,1276.8,585.4,1276.8z"/>
		</g>
		<g>
			<path class="st36" d="M334.2,1250.7c-0.4,0-0.8-0.1-1.1-0.2c-4.5-1.8-6-14.2-6.1-17.2c0-0.4,0.3-0.8,0.7-0.8
				c0.4,0,0.8,0.3,0.8,0.7c0.2,4,2,14.6,5.2,15.9c0.3,0.1,1.2,0.5,2.8-1.1c1.6-1.6,2.8-3,4.2-4.5c0.9-1,1.9-2.1,2.9-3.2
				c0.6-0.6,1.2-1.2,1.9-1.9c1.6-1.5,3.6-3.5,3.6-4.5c0-0.9-1-2.2-1.8-3.3c-0.3-0.4-0.5-0.7-0.8-1c-1.6-2.2-2.7-5.6-3.1-9.2
				c-0.1-0.9-0.1-2.1-0.1-3.4c0-2.3,0-6.1-0.9-6.7c0,0-0.1-0.1-0.4,0c-0.4,0.1-0.8,0-1-0.4c-0.1-0.4,0-0.8,0.4-1
				c0.8-0.3,1.4-0.1,1.7,0.1c1.4,0.9,1.5,3.7,1.5,7.9c0,1.2,0,2.4,0.1,3.2c0.4,3.3,1.4,6.5,2.8,8.5c0.2,0.3,0.5,0.6,0.7,1
				c1,1.3,2.1,2.7,2.1,4.2c0,1.7-2,3.5-4.1,5.6c-0.7,0.6-1.3,1.2-1.8,1.8c-1.1,1.1-2,2.2-2.9,3.2c-1.4,1.5-2.7,2.9-4.3,4.5
				C336.3,1250.1,335.2,1250.7,334.2,1250.7z"/>
		</g>
	</g>
	<linearGradient id="SVGID_15_" gradientUnits="userSpaceOnUse" x1="527.9648" y1="1117.0889" x2="759.8731" y2="1117.0889">
		<stop  offset="0" style="stop-color:#CCEAFF"/>
		<stop  offset="1" style="stop-color:#357B97"/>
	</linearGradient>
	<path class="st37" d="M729.9,1092.7c-28.7-4.8-115.1-2.3-133.3-0.3c-10.5,1.2-18,2.7-27.1,6.9c-13.6,6.4-26.1,13.1-38.9,20.9
		c-5.2,3.2-21.7,14-18.8,21.4c3.1,7.9,47.4-4.2,55.7-6.9c7.8-2.5,60.1-18.1,77.4-20.8c19.4-3,30.6-3.4,50-4.2
		c9-0.4,21.1,0.3,28.2-5.5C728.7,1099.6,735.5,1093.6,729.9,1092.7z"/>
</g>
<g>
	<g>
		<defs>
			<path id="SVGID_16_" d="M736.6,33.4L736.6,33.4c-75.8,0-145.9,24.6-202.8,66.2c-42.2,30.9-97.4,37.9-146.3,19.1
				c-31.7-12.2-66.2-18.8-102.2-18.8h0C127.7,99.8,0,227.5,0,385v11.1c0,157.5,127.7,285.2,285.3,285.2h0c42.6,0,83-9.3,119.2-26
				c47.6-21.9,103-17.5,147.1,10.8c53.4,34.2,116.8,54,184.9,54h0c189.7,0,343.4-153.7,343.4-343.3v0
				C1080,187.1,926.2,33.4,736.6,33.4z"/>
		</defs>
		<clipPath id="SVGID_17_">
			<use xlink:href="#SVGID_16_"  style="overflow:visible;"/>
		</clipPath>
		<rect x="-60" y="-26.3" class="st38" width="1192.8" height="569.5"/>
	</g>
	<g class="st39">
		<path class="st40" d="M262.4,446.8l-48-32.8v-4.7l29,10.3l8.9-16.5l-37.9-44.8v-6.6l18.6,7.2l-2.5-17.1
			c-5.4-7.5-10.7-15-16.1-22.5v-30.8l-7-9.8l-4.8,27.3l4.8,6.4v5.2l-20.4,29.2l4.8,10.9l15.6-5.9v3.4
			c-11.7,13.5-23.4,27.1-35.1,40.6l-4.6,26.1l39.7-13.7v5.7l-42,27.9l2,24.2l40.1-13.3v85.1h7v-84.3l38.8,12.9L262.4,446.8
			L262.4,446.8z"/>
		<polygon class="st41" points="214.4,319.1 230.5,341.6 231.6,349.1 215.3,334.4 214.4,319.1 		"/>
		<path class="st42" d="M210.6,411.4l3.7,2.5v-4.7l22.5,8l-23-22.8l-6.5,2.5l2.1-44.5l4.9,5.7v-6.6l6.6,2.6L207.4,341v-23.6
			l-20.4,29.2l4.8,10.9l15.6-5.9v3.4c-11.7,13.5-23.4,27.1-35.1,40.6l-4.6,26.1l39.7-13.7v5.7l-42,27.9l2,24.2l40.1-13.3v42.9l7-4.3
			l0-37.8l38.8,12.9L213,432.3L210.6,411.4L210.6,411.4z"/>
		<polygon class="st41" points="230,376.7 252.3,403 248,405.3 224.8,388.3 230,376.7 		"/>
		<polygon class="st43" points="207.4,452.3 207.4,537.4 214.4,537.4 214.4,453.1 209.6,451.6 207.4,452.3 		"/>
		<path class="st44" d="M115.2,521.6H745c2.8,0,5.1,2.3,5.1,5.1v5.7c0,2.8-2.3,5.1-5.1,5.1H115.2c-2.8,0-5.1-2.3-5.1-5.1v-5.7
			C110.1,523.9,112.4,521.6,115.2,521.6L115.2,521.6z"/>
		<g>
			<polygon class="st45" points="197,520.6 125,520.6 147.2,472.6 135,478.4 154.8,423 148.8,426.8 162.4,382.6 176.6,429.2 
				171.1,423 187.8,478.1 176.6,472.6 197,520.6 			"/>
			<polygon class="st46" points="148,520.6 125,520.6 147.2,472.6 135,478.4 154.8,423 148.8,426.8 162.4,382.6 156.3,422 
				159.1,420.2 149.3,471.5 155.8,468.4 148,520.6 			"/>
		</g>
	</g>
	<g class="st47">
		<path class="st48" d="M949.1,527.4L882,304.1c-4.2-14-15-14.2-19.2,0c-4.3,14.2-15.1,13.9-19.2,0L759.3,23.7
			c-5.7-19.1-25.4-18.6-31,0L681,180.8c-3.5,11.8-13.7,11.9-17.3,0c-5.6-18.6-20.7-18.9-26.4,0L533.2,527.4
			C671.8,527.4,810.5,527.4,949.1,527.4L949.1,527.4z"/>
		<path class="st49" d="M745.8,9.7c-10.4,2.8-17.2,12.9-16,29.2L743,214.7c1,13.7-2.2,30.3-9.7,42.3l-57.9,92.6
			c-9.5,14.9-10.8,41.3-4.3,59.9l40.9,117.8H533.2l104.2-346.6c5.7-18.9,20.8-18.6,26.4,0c3.6,11.9,13.8,11.8,17.3,0l47.2-157.1
			C731.3,13.4,738.8,8.6,745.8,9.7L745.8,9.7z"/>
		<polygon class="st50" points="673.7,527.4 752.6,527.4 728.3,474.8 741.7,481.2 720,420.5 726.6,424.6 711.7,376.2 696.1,427.3 
			702.1,420.5 683.8,480.9 696.1,474.8 673.7,527.4 		"/>
		<polygon class="st50" points="568.4,527.4 682.4,527.4 660.2,479.4 672.4,485.2 652.6,429.8 658.6,433.6 645,389.4 630.8,436 
			636.3,429.8 628.9,454.4 615,410.6 620.6,412.3 605.9,358.1 590.5,415.3 595.7,410.4 578.3,475.3 589.6,471.1 568.4,527.4 		"/>
		<path class="st51" d="M633,423.3c30.5,0,55.3,24.7,55.3,55.2c0,21.1-11.9,39.5-29.3,48.8H607c-17.5-9.3-29.3-27.7-29.3-48.8
			C577.7,448,602.4,423.3,633,423.3L633,423.3z"/>
		<path class="st52" d="M634.7,423.3c8.1,0.3,15.7,2.2,22.5,5.6l1.4,4.7l-6-3.8l19.8,55.5l-12.2-5.9l15.7,33.9
			c-4.7,5.8-10.5,10.6-17.1,14.1H607c-12.6-6.7-22.2-18.1-26.7-31.8l9.2-24.5l-11.2,4.2l6.3-23.7c7.4-13.1,19.9-23,34.9-26.7
			l9.3,29.4l7.5-24.6l-5.5,6.3L634.7,423.3L634.7,423.3z M687.4,469.1c0.5,3.1,0.8,6.3,0.8,9.5l0,0.2l-4.4,2.2L687.4,469.1
			L687.4,469.1z"/>
		<path class="st53" d="M633,441.1c20.7,0,37.5,16.8,37.5,37.5c0,20.7-16.8,37.5-37.5,37.5c-20.7,0-37.5-16.8-37.5-37.5
			C595.5,457.9,612.3,441.1,633,441.1L633,441.1z"/>
		<path class="st54" d="M633,441.1c11.3,0,21.5,5,28.3,12.9l9.1,25.6c0,1.5-0.2,3-0.4,4.5l-9.8-4.7l6.8,14.7
			c-5.9,12.9-19,21.9-34.1,21.9c-20.7,0-37.5-16.8-37.5-37.5c0-17.9,12.6-32.9,29.5-36.6l3.9,12.4L633,441.1L633,441.1L633,441.1z"
			/>
		<polygon class="st50" points="783,527.4 879.5,527.4 849.7,463.1 866.1,470.9 839.5,396.7 847.6,401.8 829.4,342.6 810.4,405.1 
			817.7,396.7 795.3,470.6 810.4,463.1 783,527.4 		"/>
		<polygon class="st45" points="533.2,527.4 461.1,527.4 483.3,479.4 471.1,485.2 491,429.8 484.9,433.6 498.5,389.4 512.7,436 
			507.2,429.8 524,484.9 512.7,479.4 533.2,527.4 		"/>
		<polygon class="st50" points="839.1,527.4 911.2,527.4 889,479.4 901.2,485.2 881.4,429.8 887.4,433.6 873.8,389.4 859.6,436 
			865.1,429.8 848.3,484.9 859.6,479.4 839.1,527.4 		"/>
		<polygon class="st45" points="993.8,527.4 921.7,527.4 943.9,479.4 931.8,485.2 951.6,429.8 945.5,433.6 959.2,389.4 973.3,436 
			967.9,429.8 984.6,484.9 973.3,479.4 993.8,527.4 		"/>
		<polygon class="st46" points="944.7,527.4 921.7,527.4 943.9,479.4 931.8,485.2 951.6,429.8 945.5,433.6 959.2,389.4 953.1,428.8 
			955.9,427 946.1,478.3 952.5,475.2 944.7,527.4 		"/>
		<polygon class="st46" points="484.1,527.4 461.1,527.4 483.3,479.4 471.1,485.2 491,429.8 484.9,433.6 498.5,389.4 492.5,428.8 
			495.3,427 485.4,478.3 491.9,475.2 484.1,527.4 		"/>
		<polygon class="st45" points="1032.8,527.4 954.8,527.4 977.7,471.1 965.6,475.7 986.1,410.6 980.5,412.3 995.3,358.1 
			1010.7,415.3 1005.5,410.4 1022.8,475.3 1011.6,471.1 1032.8,527.4 		"/>
		<polygon class="st46" points="979.3,527.4 954.8,527.4 977.7,471.1 965.6,475.7 986.1,410.6 980.5,412.3 995.3,358.1 987.5,410.1 
			991.2,409 981.2,469.8 987.4,467.5 979.3,527.4 		"/>
		<path class="st40" d="M806.9,219.7l-9.6-14.7v-24.1l-6.4,10.1v5.9l-8,22l-1.4,13.7l9.3-4.7v7.8l-26.9,34.2l5.9,11.8l21-7.1v2.3
			l-44.8,46.1l-5.6,28.2l50.4-15.4v5.5l-53.2,31.4l9.8,24l43.4-12.9v143.8h6.4V385l47.2,14l11.2-20.9l-58.4-35.5v-5.1l35.3,11.2
			l10.8-17.9l-46.2-48.5v-7.1l22.7,7.8l-3-18.5c-6.6-8.1-13.1-16.3-19.7-24.4v-12.5l7,0.9L806.9,219.7L806.9,219.7z"/>
		<polygon class="st42" points="790.9,223.7 790.9,196.9 782.9,218.9 781.5,232.5 790.9,227.8 790.9,235.6 763.9,269.8 769.8,281.5 
			790.9,274.4 790.9,276.7 746.1,322.7 740.5,350.9 790.9,335.5 790.9,341 737.7,372.4 747.4,396.4 790.9,383.5 790.9,449.5 
			797.2,451.9 797.2,385 824.2,393 821.4,385.2 796.7,367.7 792.8,339.9 797.2,342.6 797.2,337.5 814.9,343.1 796.7,318.3 
			787.3,322.5 793.3,278.1 797.2,282.3 797.2,275.2 805.9,278.2 788.1,261.2 792.2,233.8 797.2,240 797.2,227.5 804.2,228.4 
			790.9,223.7 		"/>
		<polygon class="st41" points="808.8,294.4 843.4,330.8 834.9,335.5 808.8,299.9 808.8,294.4 		"/>
		<polygon class="st41" points="832.2,363.9 855.7,378.1 850.1,388.6 827.3,368.8 832.2,363.9 		"/>
		<polygon class="st41" points="801,244.7 816.9,264.5 811.3,268.5 799.8,250.1 801,244.7 		"/>
		<path class="st55" d="M633,456.6c12.1,0,22,9.8,22,22c0,12.1-9.8,22-22,22c-12.1,0-22-9.8-22-22C611,466.4,620.8,456.6,633,456.6
			L633,456.6z"/>
		<path class="st56" d="M633,438.7c1.3,0,2.4,1.1,2.4,2.4c0,1.3-1.1,2.4-2.4,2.4c-1.3,0-2.4-1.1-2.4-2.4
			C630.6,439.8,631.6,438.7,633,438.7L633,438.7z"/>
		<path class="st56" d="M624,447c1,0,1.8,0.8,1.8,1.8c0,1-0.8,1.8-1.8,1.8c-1,0-1.8-0.8-1.8-1.8C622.1,447.9,623,447,624,447
			L624,447z"/>
		<path class="st57" d="M619.2,435c0.9,0,1.6,0.7,1.6,1.6c0,0.9-0.7,1.6-1.6,1.6c-0.9,0-1.6-0.7-1.6-1.6
			C617.6,435.7,618.3,435,619.2,435L619.2,435z"/>
		<path class="st56" d="M647.1,459.5c1.2,0,2.3,1,2.3,2.2c0,1.2-1,2.2-2.3,2.2c-1.2,0-2.3-1-2.3-2.2
			C644.9,460.5,645.9,459.5,647.1,459.5L647.1,459.5z"/>
		<path class="st57" d="M633,439.9c0.7,0,1.2,0.6,1.2,1.2c0,0.7-0.6,1.2-1.2,1.2c-0.7,0-1.2-0.6-1.2-1.2
			C631.7,440.4,632.3,439.9,633,439.9L633,439.9z"/>
		<path class="st56" d="M616.9,460.5c1.7,0,3,1.3,3,3c0,1.7-1.3,3-3,3c-1.7,0-3-1.3-3-3C613.9,461.8,615.3,460.5,616.9,460.5
			L616.9,460.5z"/>
		<path class="st57" d="M616.9,461.9c0.9,0,1.6,0.7,1.6,1.6c0,0.9-0.7,1.6-1.6,1.6c-0.9,0-1.6-0.7-1.6-1.6
			C615.3,462.6,616,461.9,616.9,461.9L616.9,461.9z"/>
		<path class="st57" d="M642.7,451.3c0.7,0,1.3,0.6,1.3,1.3s-0.6,1.3-1.3,1.3c-0.7,0-1.3-0.6-1.3-1.3S642,451.3,642.7,451.3
			L642.7,451.3z"/>
		<path class="st57" d="M638.3,430c0.7,0,1.3,0.6,1.3,1.3c0,0.7-0.6,1.3-1.3,1.3s-1.3-0.6-1.3-1.3C637,430.6,637.6,430,638.3,430
			L638.3,430z"/>
		<path class="st57" d="M627.1,413.2c0.7,0,1.3,0.6,1.3,1.3c0,0.7-0.6,1.3-1.3,1.3c-0.7,0-1.3-0.6-1.3-1.3
			C625.8,413.7,626.4,413.2,627.1,413.2L627.1,413.2z"/>
		<path class="st40" d="M604.4,436.7l-48-32.8v-4.7l29,10.3l8.9-16.5l-37.9-44.8v-6.6l18.6,7.2l-2.5-17.1
			c-5.4-7.5-10.7-15-16.1-22.5v-30.8l-7-9.8l-4.8,27.3l4.8,6.4v5.2l-20.4,29.2l4.8,10.9l15.6-5.9v3.4
			c-11.7,13.5-23.4,27.1-35.1,40.6l-4.6,26.1l39.7-13.7v5.7l-42,27.9l2,24.2l40.1-13.3v85.1h7v-84.3l38.8,12.9L604.4,436.7
			L604.4,436.7z"/>
		<polygon class="st41" points="556.3,309 572.5,331.6 573.5,339 557.3,324.4 556.3,309 		"/>
		<path class="st42" d="M552.6,401.3l3.7,2.5v-4.7l22.5,8l-23-22.8l-6.5,2.5l2.1-44.5l4.9,5.7v-6.6l6.6,2.6l-13.7-13.2v-23.6
			l-20.4,29.2l4.8,10.9l15.6-5.9v3.4c-11.7,13.5-23.4,27.1-35.1,40.6l-4.6,26.1l39.7-13.7v5.7l-42,27.9l2,24.2l40.1-13.3v42.9l7-4.3
			l0-37.8l38.8,12.9L555,422.2L552.6,401.3L552.6,401.3z"/>
		<polygon class="st41" points="572,366.6 594.3,392.9 590,395.2 566.7,378.2 572,366.6 		"/>
		<path class="st58" d="M626.9,294.7c-2.6,1.7-9.4,31.4,2.6,55c12,23.6,0,56.7,3.1,54.7c3.1-2,17.2-36.4,5.2-60
			C625.7,320.8,629.5,293,626.9,294.7L626.9,294.7z"/>
		<path class="st59" d="M631,246.7c-1.6,1-5.8,19.5,1.7,34.1c7.5,14.6,0,35.2,1.9,34c1.9-1.2,10.6-22.6,3.1-37.2
			C630.2,262.9,632.6,245.6,631,246.7L631,246.7z"/>
		<path class="st56" d="M632.1,458.3c9.3,4.7,19.3,24,14.4,38.4c-0.2,0.5,0,1.6,1,0.6c1.3-1.3,2.7-5.7,2.9-7.4
			c0.1-1,0.3-3.5,1.4-0.2c4.4,13-3.9,22.9-13.7,22.9c0,0-0.1,0-0.1,0c1.5-1.4,2.4-3.3,2.4-5.5c0-4.1-3.3-7.4-7.4-7.4h-3.8h-14.6
			c-0.5-1.3-0.9-2.7-1.1-4.1c-1.9-12.3,4.8-16.6,9.2-25.6c0.6-1.2,1.3-0.9,1.7,0.3c0.4,1.4,0.8,3.8,0.8,5.7c0,0.9,0.6,1,1.1,0.3
			c2.1-3.3,4.1-11.1,3.8-16.9C630,458,630.7,457.6,632.1,458.3L632.1,458.3z"/>
		<path class="st57" d="M634.5,486.8c2.1,4.7,10.3,11.7,8.4,19.9c-0.5,2.2-2.5,4.5-4,4.7c0.9-1.2,1.4-2.7,1.4-4.3
			c0-4.1-3.3-7.4-7.4-7.4h-3.8h-1.6c-0.5-3.7,1.9-9.6,5.4-13.2C634,485.3,634.1,485.9,634.5,486.8L634.5,486.8z"/>
		<path class="st60" d="M638.9,511.4c4.7-1.6,7-5.2,7-9.7c0-10-8.8-15.8-11-26.3c-0.2-0.9-1.3-1.1-1.7-0.1c-2,5-6.9,9.2-7.7,14.5
			c-0.1,0.8-0.6,1.1-1,0.2c-0.9-1.8-1.2-5-1.4-6.7c-0.1-1.1-1-0.2-1.2,0c-3.4,4.4-4.9,9.9-3.9,16.4h-3.5c-0.5-1.3-0.9-2.7-1.1-4.1
			c-1.9-12.3,4.8-16.6,9.2-25.6c0.6-1.2,1.3-0.9,1.7,0.3c0.4,1.4,0.8,3.8,0.8,5.7c0,0.9,0.6,1,1.1,0.3c2.1-3.3,4.1-11.1,3.8-16.9
			c-0.1-1.5,0.7-1.8,2-1.1c9.3,4.7,19.3,24,14.4,38.4c-0.2,0.5,0,1.6,1,0.6c1.3-1.3,2.7-5.7,2.9-7.4c0.1-1,0.3-3.5,1.4-0.2
			c4.4,13-3.9,22.9-13.7,22.9c0,0-0.1,0-0.1,0C638.3,512.2,638.6,511.8,638.9,511.4L638.9,511.4z"/>
		<path class="st61" d="M627.3,474.2c1.7-3.8,3-10,2.7-14.8c-0.1-1.5,0.7-1.8,2-1.1c8.7,4.4,17.9,21.4,15.2,35.3
			c2.3-13.3-8.6-26.9-12.7-29.4c-0.8-0.5-1.2-0.2-1.6,0.6C632,467.2,629.9,470.9,627.3,474.2L627.3,474.2z"/>
		<path class="st61" d="M613.5,495.6c-1.9-12.3,4.8-16.6,9.2-25.6c0.6-1.2,1.3-0.9,1.7,0.3c0.4,1.4,0.8,3.8,0.8,5.7
			c-0.1-0.4-0.7-0.9-1.2-1C622.8,474.9,613.1,486,613.5,495.6L613.5,495.6z"/>
		<path class="st61" d="M647.5,497.3c1.3-1.3,2.7-5.7,2.9-7.4c0.1-1,0.3-3.5,1.4-0.2c2.4,7.3,0.9,13.6-2.6,17.8
			c3.8-5,2.3-14.4,1.7-14.4C650.3,493.1,649.4,495.6,647.5,497.3L647.5,497.3z"/>
		<path class="st57" d="M624,378.8c0.7,0,1.3,0.6,1.3,1.3c0,0.7-0.6,1.3-1.3,1.3c-0.7,0-1.3-0.6-1.3-1.3
			C622.7,379.4,623.3,378.8,624,378.8L624,378.8z"/>
		<polygon class="st62" points="790.9,383.5 790.9,449.5 797.2,451.9 797.2,385 791.6,383.3 790.9,383.5 		"/>
		<path class="st40" d="M841.8,389.4l48-32.8v-4.7l-29,10.3l-8.9-16.5l37.9-44.8v-6.6l-18.6,7.2l2.5-17.1c5.4-7.5,10.7-15,16.1-22.5
			V231l7-9.8l4.8,27.3l-4.8,6.4v5.2l20.4,29.2l-4.8,10.9l-15.6-5.9v3.4c11.7,13.5,23.4,27.1,35.1,40.6l4.6,26.1l-39.7-13.7v5.7
			l42,27.9l-2,24.2l-40.1-13.3v132.4h-7V395.8l-38.8,12.9L841.8,389.4L841.8,389.4z"/>
		<path class="st42" d="M841.8,389.4l48-32.8v-4.7l-29,10.3l-8.9-16.5l37.9-44.8v-6.6l-18.6,7.2l2.5-17.1c5.4-7.5,10.7-15,16.1-22.5
			v15.6l11.3,18.5l-4.3-1.6v3.4l-2.1-2.5l-4.9,43.3l19.9,10.8l3.7,7.1l-16.5-5.7v5.7l-3.3-2.2l3.3,25.2l27.1,24.7l-27.1-9v38.5l-7,3
			v-40.6l-38.8,12.9L841.8,389.4L841.8,389.4z"/>
		<polygon class="st43" points="896.9,394.9 896.9,527.4 889.9,527.4 889.9,395.8 894.6,394.2 896.9,394.9 		"/>
		<polygon class="st62" points="894.6,394.2 896.9,394.9 896.9,433.4 889.9,436.4 889.9,395.8 894.6,394.2 		"/>
		<polygon class="st43" points="549.3,442.2 549.3,527.4 556.3,527.4 556.3,443.1 551.6,441.5 549.3,442.2 		"/>
		<polygon class="st62" points="549.3,442.2 549.3,485.2 556.3,480.9 556.3,443.1 551.6,441.5 549.3,442.2 		"/>
		<path class="st44" d="M426.2,527.4H1056c2.8,0,5.1,2.3,5.1,5.1v5.7c0,2.8-2.3,5.1-5.1,5.1H426.2c-2.8,0-5.1-2.3-5.1-5.1v-5.7
			C421.2,529.6,423.5,527.4,426.2,527.4L426.2,527.4z"/>
		<path class="st63" d="M644,512.6c4.1,0,7.4,3.3,7.4,7.4c0,4.1-3.3,7.4-7.4,7.4h0h-36.8v-14.8H644L644,512.6L644,512.6z"/>
		<path class="st64" d="M651.1,521.9c-0.8,3.2-3.7,5.5-7.2,5.5h0h-36.8v-5.5H651.1L651.1,521.9z"/>
		<path class="st65" d="M607.2,512.6c4.1,0,7.4,3.3,7.4,7.4c0,4.1-3.3,7.4-7.4,7.4c-4.1,0-7.4-3.3-7.4-7.4
			C599.8,515.9,603.1,512.6,607.2,512.6L607.2,512.6z"/>
		<path class="st66" d="M607.2,514.4c1.5,0,2.9,0.6,3.9,1.6c1,1,1.6,2.4,1.6,3.9c0,1.5-0.6,2.9-1.6,3.9c-1,1-2.4,1.6-3.9,1.6
			c-1.5,0-2.9-0.6-3.9-1.6c-1-1-1.6-2.4-1.6-3.9c0-1.5,0.6-2.9,1.6-3.9C604.2,515,605.6,514.4,607.2,514.4L607.2,514.4z M610.1,517
			c-0.8-0.8-1.8-1.2-3-1.2c-1.2,0-2.2,0.5-3,1.2c-0.8,0.8-1.2,1.8-1.2,3c0,1.2,0.5,2.2,1.2,3c0.8,0.8,1.8,1.2,3,1.2
			c1.2,0,2.2-0.5,3-1.2c0.8-0.8,1.2-1.8,1.2-3C611.3,518.8,610.9,517.8,610.1,517L610.1,517z"/>
		<path class="st66" d="M607.2,518.1c0.5,0,1,0.2,1.3,0.6c0.4,0.4,0.6,0.8,0.6,1.3c0,0.5-0.2,1-0.6,1.3c-0.3,0.3-0.8,0.6-1.3,0.6
			c-0.5,0-1-0.2-1.3-0.6c-0.4-0.4-0.6-0.8-0.6-1.3c0-0.5,0.2-1,0.6-1.3C606.1,518.3,606.6,518.1,607.2,518.1L607.2,518.1z"/>
		<path class="st63" d="M651.4,499.7c4.1,0,7.4,3.3,7.4,7.4c0,4.1-3.3,7.4-7.4,7.4l0,0h-36.8v-14.8H651.4L651.4,499.7L651.4,499.7z"
			/>
		<path class="st64" d="M658.5,509c-0.8,3.2-3.7,5.5-7.2,5.5h0h-36.8V509H658.5L658.5,509z"/>
		<path class="st65" d="M614.6,499.7c4.1,0,7.4,3.3,7.4,7.4c0,4.1-3.3,7.4-7.4,7.4c-4.1,0-7.4-3.3-7.4-7.4
			C607.2,503,610.5,499.7,614.6,499.7L614.6,499.7z"/>
		<path class="st66" d="M614.6,501.5c1.5,0,2.9,0.6,3.9,1.6c1,1,1.6,2.4,1.6,3.9c0,1.5-0.6,2.9-1.6,3.9c-1,1-2.4,1.6-3.9,1.6
			c-1.5,0-2.9-0.6-3.9-1.6c-1-1-1.6-2.4-1.6-3.9c0-1.5,0.6-2.9,1.6-3.9C611.6,502.1,613,501.5,614.6,501.5L614.6,501.5z
			 M617.5,504.1c-0.8-0.8-1.8-1.2-3-1.2c-1.2,0-2.2,0.5-3,1.2c-0.8,0.8-1.2,1.8-1.2,3c0,1.2,0.5,2.2,1.2,3c0.8,0.8,1.8,1.2,3,1.2
			c1.2,0,2.2-0.5,3-1.2c0.8-0.8,1.2-1.8,1.2-3C618.7,505.9,618.3,504.9,617.5,504.1L617.5,504.1z"/>
		<path class="st66" d="M614.6,505.2c0.5,0,1,0.2,1.3,0.6c0.4,0.4,0.6,0.8,0.6,1.3c0,0.5-0.2,1-0.6,1.3c-0.3,0.3-0.8,0.6-1.3,0.6
			c-0.5,0-1-0.2-1.3-0.6c-0.4-0.4-0.6-0.8-0.6-1.3c0-0.5,0.2-1,0.6-1.3C613.6,505.4,614,505.2,614.6,505.2L614.6,505.2z"/>
		<path class="st63" d="M658.8,512.6c4.1,0,7.4,3.3,7.4,7.4c0,4.1-3.3,7.4-7.4,7.4h0H622v-14.8H658.8L658.8,512.6L658.8,512.6z"/>
		<path class="st64" d="M665.9,521.9c-0.8,3.2-3.7,5.5-7.2,5.5h0H622v-5.5H665.9L665.9,521.9z"/>
		<path class="st67" d="M622,512.6c4.1,0,7.4,3.3,7.4,7.4c0,4.1-3.3,7.4-7.4,7.4c-4.1,0-7.4-3.3-7.4-7.4
			C614.6,515.9,617.9,512.6,622,512.6L622,512.6z"/>
		<path class="st68" d="M622,514.4c1.5,0,2.9,0.6,3.9,1.6c1,1,1.6,2.4,1.6,3.9c0,1.5-0.6,2.9-1.6,3.9c-1,1-2.4,1.6-3.9,1.6
			c-1.5,0-2.9-0.6-3.9-1.6c-1-1-1.6-2.4-1.6-3.9c0-1.5,0.6-2.9,1.6-3.9C619,515,620.4,514.4,622,514.4L622,514.4z M624.9,517
			c-0.8-0.8-1.8-1.2-3-1.2c-1.2,0-2.2,0.5-3,1.2c-0.8,0.8-1.2,1.8-1.2,3c0,1.2,0.5,2.2,1.2,3c0.8,0.8,1.8,1.2,3,1.2
			c1.2,0,2.2-0.5,3-1.2c0.8-0.8,1.2-1.8,1.2-3C626.1,518.8,625.7,517.8,624.9,517L624.9,517z"/>
		<path class="st68" d="M622,518.1c0.5,0,1,0.2,1.3,0.6c0.4,0.4,0.6,0.8,0.6,1.3c0,0.5-0.2,1-0.6,1.3c-0.3,0.3-0.8,0.6-1.3,0.6
			c-0.5,0-1-0.2-1.3-0.6c-0.4-0.4-0.6-0.8-0.6-1.3c0-0.5,0.2-1,0.6-1.3C621,518.3,621.4,518.1,622,518.1L622,518.1z"/>
	</g>
	<g>
		<path class="st69" d="M93,541c-1.9-6.9-1.6-12,0.8-15.8c3.6-5.7,11.4-7.3,18.9-8.7c7.3-1.4,14.1-2.7,17.1-7.5
			c1.9-3,2.1-7,0.7-12.5c-3.2-12.3-2.5-19.8,1.9-23.7c8.3-7.2,28.7-0.7,63.6,13.8c6.6,2.7,10.9,3.4,13.1,2.1
			c2.1-1.2,2.4-4.3,2.8-7.8c0.4-3.7,0.8-7.8,3.6-10.6c6.2-6.2,13.7-2.3,21.7,1.8c6,3.1,12.9,6.7,20.2,6.7v1.7
			c-7.8,0-14.8-3.7-21-6.9c-8-4.2-14.4-7.5-19.7-2.1c-2.4,2.4-2.8,6.1-3.2,9.6c-0.4,3.8-0.8,7.4-3.6,9.1c-2.8,1.6-7.4,1-14.6-2
			c-33.5-13.9-54.3-20.6-61.9-14c-3.9,3.4-4.4,10.6-1.4,22c1.5,5.9,1.2,10.4-0.9,13.8c-3.4,5.4-10.9,6.8-18.2,8.3
			c-7.2,1.4-14.6,2.8-17.8,8c-2.1,3.4-2.3,8.1-0.6,14.5L93,541z"/>
	</g>
	<ellipse class="st70" cx="333.7" cy="613.3" rx="143.7" ry="5.2"/>
	<g>
		<ellipse class="st70" cx="545.4" cy="613.3" rx="154.1" ry="6"/>
		<ellipse class="st70" cx="801.5" cy="615.2" rx="210.6" ry="4.2"/>
	</g>
	<g>
		<path class="st69" d="M422.2,443.6l-1.4-1.1c11.2-12.8,38.5-33.8,64.5-35.5c19.8-1.2,25.9,5.4,31.4,11.2c3.2,3.5,6.3,6.7,11.9,8
			c8.7,2,16.4-0.5,24.7-3.1c14.6-4.7,29.7-9.5,51.7,9.4l-1.2,1.2c-21.2-18.2-35.8-13.6-50-9.1c-8.5,2.7-16.5,5.3-25.6,3.2
			c-6.2-1.4-9.5-4.9-12.9-8.6c-5.4-5.8-11-11.8-29.9-10.6C460.1,410.3,433.2,431,422.2,443.6z"/>
	</g>
	<g>
		<path class="st69" d="M1018.7,541.1l-1.5-0.5c2.2-7,2.2-12.3-0.1-16.4c-3.9-6.8-13.9-9-23.6-11.2c-13.4-3-27.2-6.1-26.5-21
			c0.1-1.2,0.1-2.5,0.2-3.7c0.8-14.5,1.5-27-12.4-28.1c-14.8-1.2-30.2,5.5-51.3,22.4l-1-1.3c21.5-17.3,37.1-24.1,52.4-22.8
			c15.4,1.3,14.7,15.2,13.8,29.8c-0.1,1.2-0.1,2.5-0.2,3.7c-0.7,13.5,11.9,16.3,25.2,19.3c10,2.3,20.4,4.6,24.7,12
			C1021,527.8,1021.1,533.6,1018.7,541.1z"/>
	</g>
	<g>
		<path class="st69" d="M908.5,464c-11.2-1.6-11.8-10.2-12.4-19.4c-0.3-5.1-0.7-10.3-2.9-14.7c-5.1-10.2-18.5-9.2-31.4-8.4
			c-6.6,0.4-12.9,0.9-17.8-0.2c-12.8-2.9-17.9-8.8-22.9-14.6c-3.8-4.4-7.3-8.5-14-11.3c-14.9-6.1-29.1-0.8-44.1,4.8
			c-11.8,4.4-23.9,8.9-36.8,7.8c-4.2-0.3-8.2-1.8-12.5-3.3c-8.9-3.2-18.1-6.4-30.1-0.4c-9.2,4.6-22.3,16.1-29.6,24.6l-1.2-1
			c7.3-8.5,20.3-20.1,30.1-25c12.7-6.3,22.6-2.8,31.4,0.3c4.2,1.5,8.1,2.9,12.1,3.2c12.5,1,24.5-3.4,36.1-7.7
			c15.3-5.7,29.8-11.1,45.3-4.7c7.1,2.9,10.9,7.4,14.6,11.7c4.8,5.6,9.7,11.4,22,14.1c4.7,1,10.8,0.6,17.3,0.2
			c12.8-0.9,27.4-1.9,33,9.3c2.3,4.6,2.7,10,3.1,15.3c0.6,8.8,1.1,16.5,11.1,17.9L908.5,464z"/>
	</g>
	<g>
		<path class="st7" d="M709.5,156.1c0.9-1.6,1.4-3.4,1.4-5.2c0-8.1-9.2-14.6-20.6-14.6c-11.4,0-20.6,6.6-20.6,14.6
			c0,1.8,0.5,3.6,1.4,5.2H709.5z"/>
		<path class="st7" d="M633.3,123.8c-8.2-0.4-15.4,4.2-18.8,11.1c-1.9,3.9-5.9,6.3-10.1,5.8c-1.8-0.2-3.7-0.4-5.6-0.4
			c-12.9,0-23.3,5.6-23.3,12.4c0,1.2,0.3,2.3,0.9,3.4H617h4.2h26.3c3.1-3.7,4.8-8.5,4.5-13.8C651.4,132.4,643.2,124.3,633.3,123.8z"
			/>
	</g>
	<g>
		<path class="st7" d="M394.5,156.1c10.8-32.3-39.4-14.3-38.8-34c0.6-21.4-17-33.9-58.9-16.4c-41.8,17.4-39.8,46.4-31.9,50.4H394.5z
			"/>
		<path class="st7" d="M475.1,156.1c0.8-1.4,1.2-3,1.2-4.6c0-7.2-8.2-13-18.2-13c-10.1,0-18.2,5.8-18.2,13c0,1.6,0.4,3.2,1.2,4.6
			H475.1z"/>
		<path class="st7" d="M233.1,127.4c-7.3-0.4-13.7,3.7-16.6,9.8c-1.7,3.4-5.2,5.6-9,5.1c-1.6-0.2-3.2-0.3-5-0.3
			c-11.4,0-20.7,4.9-20.7,11c0,1,0.3,2,0.8,3h36.1h3.8h23.3c2.7-3.3,4.2-7.6,4-12.2C249.1,135.1,241.9,127.9,233.1,127.4z"/>
	</g>
	<g>
		<path class="st69" d="M431.5,613.3H261.2c-9.7,0-17.5-7.8-17.5-17.5V220.2c0-9.7,7.8-17.5,17.5-17.5h170.3
			c9.7,0,17.5,7.8,17.5,17.5v375.6C449,605.4,441.2,613.3,431.5,613.3z"/>
		<path class="st7" d="M431.5,607.3H261.2c-6.4,0-11.5-5.2-11.5-11.5V220.2c0-6.4,5.2-11.5,11.5-11.5h170.3
			c6.4,0,11.5,5.2,11.5,11.5v375.6C443,602.1,437.9,607.3,431.5,607.3z"/>
		<path class="st69" d="M346.4,208.7h-41.9l6.6,10.9c1.9,3.1,5.3,5.1,9,5.1h26.4h26.4c3.7,0,7.1-1.9,9-5.1l6.6-10.9H346.4z"/>
		<rect x="249.7" y="252.9" class="st71" width="193.4" height="305.2"/>
		<path class="st18" d="M443,257.7l-117.8,68.2l-42.1-72.9h-11.7l45,77.9l-66.8,38.6v11.7l71.8-41.5l24.2,41.9l-96,55.5v11.7
			l41.5-24l26.7,46.2l-68.1,39.4v11.7l73.1-42.3c15.9,29.7,18.1,55.9,18.3,78.5h10.1c-0.2-23.9-2.5-51.8-19.7-83.6l50.9-29.4
			L443,550v-20.2l-51.8-89.8l51.8-30v-11.7l-56.9,32.9l-23.6-40.8l38.4-22.2l-11.2-19.4l-38.4,22.2l-21.1-36.5L443,269.3V257.7z
			 M377.4,436.4l-50.8,29.4l-26.7-46.2l50.8-29.4L377.4,436.4z"/>
	</g>
	<g>
		<path class="st69" d="M354.1,332.7c0,1.9-13.8,3.4-30.8,3.4c-17,0-30.8-1.5-30.8-3.4c0-1.9,13.8-3.4,30.8-3.4
			C340.3,329.4,354.1,330.9,354.1,332.7z"/>
		<path class="st11" d="M341.5,309c3.6-4.2,5.8-9.6,5.8-15.6c0-13.2-10.7-23.9-23.9-23.9s-23.9,10.7-23.9,23.9
			c0,6,2.2,11.4,5.8,15.6l18.1,23.7L341.5,309z"/>
		
			<ellipse transform="matrix(1 -1.746856e-03 1.746856e-03 1 -0.5121 0.5653)" class="st7" cx="323.3" cy="293.4" rx="13.8" ry="13.8"/>
	</g>
	<g id="Class_A_1_">
		<polygon class="st72" points="736.6,433.4 738.5,418.9 731,418.9 729.6,430.2 729.2,433.4 		"/>
		<pattern  id="SVGID_18_" xlink:href="#New_Pattern_Swatch_7" patternTransform="matrix(0.345 0 0 0.3449 -4641.1387 -4335.7388)">
		</pattern>
		<polygon class="st73" points="736.6,433.4 738.5,418.9 731,418.9 729.5,430.2 729.1,433.4 		"/>
		<polygon class="st72" points="787.9,433.6 774.9,418.9 738.5,418.9 737,430.2 736.6,433.4 		"/>
		
			<pattern  id="SVGID_19_" xlink:href="#New_Pattern_Swatch_3" patternTransform="matrix(0.4049 0 0 0.3449 -4272.6694 -4352.1274)">
		</pattern>
		<line class="st74" x1="734.6" y1="423.2" x2="756.9" y2="423.2"/>
		
			<pattern  id="SVGID_20_" xlink:href="#New_Pattern_Swatch_3" patternTransform="matrix(0.4049 0 0 0.3449 -4272.6694 -4352.1274)">
		</pattern>
		<line class="st75" x1="734.6" y1="423.2" x2="756.9" y2="423.2"/>
		<g>
			<polygon class="st72" points="509.9,432.5 496.1,418 456.9,417.3 456.3,432.3 			"/>
			<polygon class="st72" points="456.3,432.3 456.9,417.3 449.5,417.3 448.9,432.3 			"/>
			
				<pattern  id="SVGID_21_" xlink:href="#New_Pattern_Swatch_3" patternTransform="matrix(0.4049 0 0 0.3449 -4311.0054 -4352.1274)">
			</pattern>
			<line class="st76" x1="453.3" y1="423.2" x2="475.6" y2="423.2"/>
			
				<pattern  id="SVGID_22_" xlink:href="#New_Pattern_Swatch_3" patternTransform="matrix(0.3966 0 0 0.3449 -4319.0791 -4352.1274)">
			</pattern>
			<line class="st77" x1="452.6" y1="426.6" x2="480" y2="426.6"/>
			
				<pattern  id="SVGID_23_" xlink:href="#New_Pattern_Swatch_3" patternTransform="matrix(0.3944 0 0 0.3449 -4447.519 -4352.1274)">
			</pattern>
			<line class="st78" x1="482.9" y1="430" x2="451.8" y2="430"/>
			
				<pattern  id="SVGID_24_" xlink:href="#New_Pattern_Swatch_7" patternTransform="matrix(0.345 0 0 0.3449 -4641.1387 -4335.7388)">
			</pattern>
			<polygon class="st79" points="456.3,432.3 456.9,417.3 449.5,417.3 448.9,432.3 			"/>
		</g>
		<pattern  id="SVGID_25_" xlink:href="#New_Pattern_Swatch_3" patternTransform="matrix(0.345 0 0 0.3449 -4612.501 -4314.478)">
		</pattern>
		<path class="st80" d="M933.2,529.8l-18.6-95.5l-530.7-2.1l-1.3,152.2l36.9,11h116.9l0.7-6.4c1.2-13,12.7-23.6,25.9-23.6
			c13.2,0,22.8,10.6,21.6,23.6l-0.6,6.3l268.7,0.1l0.6-6.2c1.2-13,12.7-23.6,25.9-23.6c13,0,22.8,10.6,21.6,23.6l-0.6,6.2h39.3
			v-61.2L933.2,529.8z"/>
		
			<pattern  id="SVGID_26_" xlink:href="#New_Pattern_Swatch_3" patternTransform="matrix(0.2063 0 0 0.2062 -5634.5278 -5338.9731)">
		</pattern>
		<polyline class="st81" points="391.6,553.9 382.8,554.5 382.6,584.3 419.5,595.3 448,595.4 411,584 411,552.4 398.4,553.3 		"/>
		
			<pattern  id="SVGID_27_" xlink:href="#New_Pattern_Swatch_3" patternTransform="matrix(0.2063 0 0 0.2062 -5634.5278 -5338.9731)">
		</pattern>
		<path class="st82" d="M392.5,553.8"/>
		
			<pattern  id="SVGID_28_" xlink:href="#New_Pattern_Swatch_3" patternTransform="matrix(0.2063 0 0 0.2062 -5634.5278 -5338.9731)">
		</pattern>
		<path class="st83" d="M394.9,553.6"/>
		<path class="st1" d="M563.1,597.7l1-8.6c1.2-13.4,13-24.3,26.5-24.3s23.3,10.9,22,24.3l-0.6,6.5L563.1,597.7z"/>
		<g>
			<polygon class="st72" points="410.8,562.3 404.7,563.2 403.8,581.3 410.6,582.2 			"/>
		</g>
		<polygon class="st72" points="382.6,579.5 388,580.2 387.8,563.6 382.7,564.4 		"/>
		<pattern  id="SVGID_29_" xlink:href="#New_Pattern_Swatch_3" patternTransform="matrix(0.345 0 0 0.3449 -4627.1816 -4352.1274)">
		</pattern>
		<polygon class="st84" points="413.2,436.8 420.4,436.3 420.4,446.6 413.6,446.6 		"/>
		<pattern  id="SVGID_30_" xlink:href="#New_Pattern_Swatch_7" patternTransform="matrix(0.345 0 0 0.3449 -4658.2344 -4332.9795)">
		</pattern>
		<polygon class="st85" points="414.5,530.5 414.5,533.3 420.4,533.3 420.4,530.5 		"/>
		<pattern  id="SVGID_31_" xlink:href="#New_Pattern_Swatch_3" patternTransform="matrix(0.345 0 0 0.3449 -4627.1816 -4352.1274)">
		</pattern>
		<polygon class="st86" points="414.5,530.5 420.4,530.5 419.3,446.6 415.3,446.6 		"/>
		<pattern  id="SVGID_32_" xlink:href="#New_Pattern_Swatch_7" patternTransform="matrix(0.345 0 0 0.3449 -4641.1387 -4332.9795)">
		</pattern>
		<line class="st87" x1="413.2" y1="439.5" x2="413.6" y2="449.3"/>
		<g>
			<path class="st9" d="M547.7,576.1c-10.8,0-20.4,8.7-21.3,19.5c-1,10.8,6.9,19.5,17.7,19.5h10l3.6-39.1h-10V576.1z"/>
			
				<ellipse transform="matrix(0.7244 -0.6893 0.6893 0.7244 -257.2896 547.2784)" class="st9" cx="555.9" cy="595.5" rx="20.4" ry="18.6"/>
			
				<ellipse transform="matrix(0.7246 -0.6892 0.6892 0.7246 -257.2788 547.1174)" class="st19" cx="555.9" cy="595.5" rx="13" ry="12"/>
		</g>
		<g>
			<path class="st88" d="M863.8,576.1c-10.8,0-20.4,8.7-21.3,19.5c-1,10.8,6.9,19.5,17.7,19.5h10l3.6-39.1h-10V576.1z"/>
			
				<ellipse transform="matrix(0.7244 -0.6893 0.6893 0.7244 -170.2471 765.1322)" class="st88" cx="871.9" cy="595.5" rx="20.4" ry="18.6"/>
			
				<ellipse transform="matrix(0.7246 -0.6892 0.6892 0.7246 -170.2808 764.9247)" class="st19" cx="871.9" cy="595.5" rx="13" ry="12"/>
		</g>
		<path class="st1" d="M880.7,595.4l0.6-6.3c1.2-13,12.7-23.6,25.9-23.6c13,0,22.8,10.6,21.6,23.6l-0.6,6.3H880.7z"/>
		<path class="st88" d="M895.7,576.1c-10.8,0-20.4,8.7-21.3,19.5c-1,10.8,6.9,19.5,17.7,19.5h10l3.6-39.1h-10V576.1z"/>
		<path class="st9" d="M579.7,576.1c-10.8,0-20.4,8.7-21.3,19.5c-1,10.8,6.9,19.5,17.7,19.5h10l3.6-39.1L579.7,576.1z"/>
		
			<ellipse transform="matrix(0.7244 -0.6893 0.6893 0.7244 -248.5439 569.2952)" class="st19" cx="587.8" cy="595.5" rx="20.4" ry="18.6"/>
		
			<ellipse transform="matrix(0.7246 -0.6892 0.6892 0.7246 -248.5377 569.1285)" class="st89" cx="587.8" cy="595.5" rx="13" ry="12"/>
		<path class="st90" d="M583.3,588.6c-0.3,1-0.4,2.1-0.6,3.1c-0.1,4.9,3.4,9,8.4,9.3c1,0.1,1.9,0,3-0.1c0.7-0.1,1.3,0.7,0.7,1.3
			c-2.1,2.1-4.8,3.3-7.8,3.3c-5.5,0-9.7-4.6-9.1-10.2c0.3-3,1.9-5.7,4.2-7.6C582.5,587.3,583.4,587.9,583.3,588.6z"/>
		<pattern  id="SVGID_33_" xlink:href="#New_Pattern_Swatch_3" patternTransform="matrix(0.345 0 0 0.3449 -4612.501 -4314.478)">
		</pattern>
		<path class="st91" d="M961.5,529.8l-18.6-95.5l-530.7-2.1l-1.3,152.2l36.9,11h116.9l0.7-6.4c1.2-13,12.7-23.6,25.9-23.6
			c13.2,0,22.8,10.6,21.6,23.6l-0.6,6.3l268.7,0.1l0.6-6.2c1.2-13,12.7-23.6,25.9-23.6c13,0,22.8,10.6,21.6,23.6l-0.6,6.2h39.3
			v-61.2L961.5,529.8z"/>
		
			<ellipse transform="matrix(0.7244 -0.6893 0.6893 0.7244 -161.4011 787.1928)" class="st19" cx="903.9" cy="595.5" rx="20.4" ry="18.6"/>
		
			<pattern  id="SVGID_34_" xlink:href="#New_Pattern_Swatch_3" patternTransform="matrix(0.2063 0 0 0.2062 -5634.5278 -5338.9731)">
		</pattern>
		<path class="st92" d="M928.4,595.3h39.9l-0.4-40.8L411,552.4l-0.1,31.8l36.9,11l117,0.1l0.7-6.4c1.1-12.3,12.4-23.6,25.2-23.6
			c13.5-0.1,23.2,10.8,22.1,23.7l-0.8,6.6l268.9-0.3l0.6-6.3c1.2-13,12.7-23.6,25.9-23.6c13,0,22.8,10.6,21.6,23.6L928.4,595.3z"/>
		<pattern  id="SVGID_35_" xlink:href="#New_Pattern_Swatch_7" patternTransform="matrix(0.345 0 0 0.3449 -4641.1387 -4333.1519)">
		</pattern>
		<polygon class="st93" points="415.8,441.9 415.8,451.7 635.1,450.5 635.1,440.3 		"/>
		<pattern  id="SVGID_36_" xlink:href="#New_Pattern_Swatch_7" patternTransform="matrix(0.345 0 0 0.3449 -4641.1387 -4333.1519)">
		</pattern>
		<polygon class="st94" points="637.3,439.4 644.5,438.9 644.5,449.2 637.7,449.2 		"/>
		<pattern  id="SVGID_37_" xlink:href="#New_Pattern_Swatch_7" patternTransform="matrix(0.345 0 0 0.3449 -4641.1387 -4333.1519)">
		</pattern>
		<polygon class="st95" points="638.6,533.1 644.5,533.1 643.4,449.2 639.4,449.2 		"/>
		<pattern  id="SVGID_38_" xlink:href="#New_Pattern_Swatch_7" patternTransform="matrix(0.345 0 0 0.3449 -4641.1387 -4333.1519)">
		</pattern>
		<polygon class="st96" points="850.9,439.4 858.1,438.9 858.1,449.2 851.3,449.2 		"/>
		<pattern  id="SVGID_39_" xlink:href="#New_Pattern_Swatch_7" patternTransform="matrix(0.345 0 0 0.3449 -4641.1387 -4333.1519)">
		</pattern>
		<polygon class="st97" points="852.2,533.1 858.1,533.1 857,449.2 853,449.2 		"/>
		<pattern  id="SVGID_40_" xlink:href="#New_Pattern_Swatch_7" patternTransform="matrix(0.345 0 0 0.3449 -4641.1387 -4333.1519)">
		</pattern>
		<polygon class="st98" points="647,439.4 647,446 847.5,444.7 847.5,439.4 		"/>
		<g>
			
				<pattern  id="SVGID_41_" xlink:href="#New_Pattern_Swatch_7" patternTransform="matrix(0.3462 0 0 0.3449 -4626.1304 -4335.2109)">
			</pattern>
			<polygon class="st99" points="412,432.8 383.9,432.7 382.6,584.8 419.6,595.9 447.7,595.9 410.7,584.8 			"/>
		</g>
		
			<ellipse transform="matrix(0.7246 -0.6892 0.6892 0.7246 -161.4388 786.983)" class="st100" cx="903.9" cy="595.5" rx="13" ry="12"/>
		<path class="st101" d="M899.3,588.6c-0.3,1-0.4,2.1-0.6,3.1c-0.1,4.9,3.4,9,8.4,9.3c1,0.1,1.9,0,3-0.1c0.7-0.1,1.3,0.7,0.7,1.3
			c-2.1,2.1-4.8,3.3-7.8,3.3c-5.5,0-9.7-4.6-9.1-10.2c0.3-3,1.9-5.7,4.2-7.6C898.7,587.3,899.6,587.9,899.3,588.6z"/>
		<polygon class="st57" points="967.1,554.7 955.2,554.7 955.2,570.9 967.1,570.9 		"/>
		<polygon class="st102" points="955.2,554.7 949.2,554.7 951.7,570.9 955.2,570.9 		"/>
		<polygon class="st57" points="967.5,554.7 955.6,554.7 955.6,570.9 967.5,570.9 		"/>
		<polygon class="st102" points="955.6,554.7 949.6,554.7 952.1,570.9 955.6,570.9 		"/>
		<polygon class="st103" points="773.3,472.3 773.3,502 708,504 706.8,470.7 		"/>
		<polygon class="st103" points="811,477.9 840.6,477.9 840.6,528 811,526 		"/>
		<rect x="533.9" y="453.4" class="st103" width="80.7" height="21.4"/>
		<rect x="533.9" y="495.3" class="st103" width="80.7" height="21.4"/>
		<pattern  id="SVGID_42_" xlink:href="#New_Pattern_Swatch_3" patternTransform="matrix(0.345 0 0 0.3449 -4610.0854 -4352.1274)">
		</pattern>
		<path class="st104" d="M938.5,554.7"/>
		<pattern  id="SVGID_43_" xlink:href="#New_Pattern_Swatch_3" patternTransform="matrix(0.345 0 0 0.3449 -4610.0854 -4352.1274)">
		</pattern>
		<polyline class="st105" points="938,595.3 939,517 924.4,439.3 418.1,439.3 418.1,552.6 		"/>
		<pattern  id="SVGID_44_" xlink:href="#New_Pattern_Swatch_3" patternTransform="matrix(0.345 0 0 0.3449 -4610.0854 -4352.1274)">
		</pattern>
		<polygon class="st106" points="702.4,547.9 702.4,515.8 776.7,515.8 776.7,549 		"/>
		<pattern  id="SVGID_45_" xlink:href="#New_Pattern_Swatch_3" patternTransform="matrix(0.345 0 0 0.3449 -4610.0854 -4352.1274)">
		</pattern>
		<polygon class="st107" points="453.5,557 503.4,557 503.4,587.6 451.6,588.2 		"/>
		<pattern  id="SVGID_46_" xlink:href="#New_Pattern_Swatch_3" patternTransform="matrix(0.345 0 0 0.3449 -4610.0854 -4352.1274)">
		</pattern>
		<polygon class="st108" points="552.8,557.5 552.8,590.3 511.7,588.2 510.6,557 		"/>
		<pattern  id="SVGID_47_" xlink:href="#New_Pattern_Swatch_3" patternTransform="matrix(0.345 0 0 0.3449 -4610.0854 -4352.1274)">
		</pattern>
		<polygon class="st109" points="620.7,557 620.1,588.2 673.8,588.2 673.8,557.8 		"/>
		<pattern  id="SVGID_48_" xlink:href="#New_Pattern_Swatch_3" patternTransform="matrix(0.345 0 0 0.3449 -4610.0854 -4352.1274)">
		</pattern>
		<polygon class="st110" points="682.4,557 681.6,588.2 732.3,588.2 733.1,558 		"/>
		<pattern  id="SVGID_49_" xlink:href="#New_Pattern_Swatch_3" patternTransform="matrix(0.345 0 0 0.3449 -4610.0854 -4352.1274)">
		</pattern>
		<polygon class="st111" points="741.1,558 741.1,589.3 791.4,589.3 791.4,558.6 		"/>
		<pattern  id="SVGID_50_" xlink:href="#New_Pattern_Swatch_3" patternTransform="matrix(0.345 0 0 0.3449 -4610.0854 -4352.1274)">
		</pattern>
		<path class="st112" d="M814.4,595.3"/>
		<pattern  id="SVGID_51_" xlink:href="#New_Pattern_Swatch_3" patternTransform="matrix(0.345 0 0 0.3449 -4610.0854 -4352.1274)">
		</pattern>
		<polyline class="st113" points="804.3,554.3 804.3,471.1 846.3,472.7 846.3,595.3 		"/>
		<pattern  id="SVGID_52_" xlink:href="#New_Pattern_Swatch_3" patternTransform="matrix(0.345 0 0 0.3449 -4610.0854 -4352.1274)">
		</pattern>
		<line class="st114" x1="804.3" y1="595.3" x2="804.3" y2="554.3"/>
		<polygon class="st115" points="412.8,555.4 418.8,555.4 418.8,558.2 412.5,558.2 		"/>
		<polygon class="st102" points="584.7,557 584.7,560.1 590.6,559.8 590.6,557 		"/>
		<ellipse class="st102" cx="794.6" cy="470.3" rx="7.1" ry="3"/>
		<pattern  id="SVGID_53_" xlink:href="#New_Pattern_Swatch_3" patternTransform="matrix(0.345 0 0 0.3449 -4610.0854 -4352.1274)">
		</pattern>
		<polygon class="st116" points="811,534.3 821.8,533.2 821.8,537.7 811,537.7 		"/>
		<pattern  id="SVGID_54_" xlink:href="#New_Pattern_Swatch_7" patternTransform="matrix(0.345 0 0 0.3449 -4641.1387 -4332.9795)">
		</pattern>
		<polygon class="st117" points="415.8,451.9 635.1,450.6 635.1,447.9 415.8,449.1 		"/>
		<pattern  id="SVGID_55_" xlink:href="#New_Pattern_Swatch_3" patternTransform="matrix(0.345 0 0 0.3449 -4610.0854 -4352.1274)">
		</pattern>
		<polygon class="st118" points="637.3,436.8 644.5,436.3 644.5,446.6 637.7,446.6 		"/>
		<polygon class="st72" points="415.8,439.3 415.8,449.1 635.1,447.9 635.1,437.7 		"/>
		<pattern  id="SVGID_56_" xlink:href="#New_Pattern_Swatch_3" patternTransform="matrix(0.345 0 0 0.3449 -4610.0854 -4352.1274)">
		</pattern>
		<polygon class="st119" points="415.8,439.3 415.8,449.1 635.1,447.9 635.1,437.7 		"/>
		<pattern  id="SVGID_57_" xlink:href="#New_Pattern_Swatch_7" patternTransform="matrix(0.345 0 0 0.3449 -4641.1387 -4332.9795)">
		</pattern>
		<polygon class="st120" points="638.6,530.5 638.6,533.3 644.5,533.3 644.5,530.5 		"/>
		<polygon class="st121" points="638.6,530.5 644.5,530.5 643.4,446.6 639.4,446.6 		"/>
		<pattern  id="SVGID_58_" xlink:href="#New_Pattern_Swatch_7" patternTransform="matrix(0.345 0 0 0.3449 -4641.1387 -4332.9795)">
		</pattern>
		<polygon class="st122" points="852.2,530.5 852.2,533.3 858.1,533.3 858.1,530.5 		"/>
		<polygon class="st121" points="852.2,530.5 858.1,530.5 857,446.6 853,446.6 		"/>
		<pattern  id="SVGID_59_" xlink:href="#New_Pattern_Swatch_4" patternTransform="matrix(0.345 0 0 0.3449 -4610.0854 -4352.1274)">
		</pattern>
		<polygon class="st123" points="850.9,436.8 858.1,436.3 858.1,446.6 851.3,446.6 		"/>
		<polygon class="st1" points="456.3,569.5 462.5,569.5 461.9,574.3 456.3,574.3 		"/>
		<polygon class="st1" points="514.6,569.5 518.9,570.9 518.9,575.9 513.3,574.9 		"/>
		<polygon class="st1" points="622.8,570.3 628.7,570.3 628.1,574.9 623.9,574.9 		"/>
		<polygon class="st1" points="685.8,570.9 690.1,570.3 690.1,574.9 684.5,574.9 		"/>
		<polygon class="st1" points="743.8,570.9 748.9,571.4 748.9,575.9 744.3,575.9 		"/>
		<pattern  id="SVGID_60_" xlink:href="#New_Pattern_Swatch_7" patternTransform="matrix(0.345 0 0 0.3449 -4641.1387 -4332.9795)">
		</pattern>
		<polygon class="st124" points="647,446.1 847.5,444.9 847.5,442.1 647,443.4 		"/>
		<polygon class="st72" points="647,436.8 647,443.4 847.5,442.1 847.5,436.8 		"/>
		<pattern  id="SVGID_61_" xlink:href="#New_Pattern_Swatch_3" patternTransform="matrix(0.345 0 0 0.3449 -4610.0854 -4352.1274)">
		</pattern>
		<polygon class="st125" points="647,436.8 647,443.4 847.5,442.1 847.5,436.8 		"/>
		<pattern  id="SVGID_62_" xlink:href="#New_Pattern_Swatch_3" patternTransform="matrix(0.345 0 0 0.3449 -4610.0854 -4352.1274)">
		</pattern>
		<polygon class="st126" points="657.8,509.7 690.9,509.7 690.1,531.1 657.8,530.5 		"/>
		<g>
			
				<pattern  id="SVGID_63_" xlink:href="#New_Pattern_Swatch_3" patternTransform="matrix(0.345 0 0 0.3449 -4641.1387 -4335.7388)">
			</pattern>
			<rect x="661" y="514.4" class="st127" width="25.6" height="0.7"/>
		</g>
		<g>
			
				<pattern  id="SVGID_64_" xlink:href="#New_Pattern_Swatch_3" patternTransform="matrix(0.345 0 0 0.3449 -4641.1387 -4335.7388)">
			</pattern>
			<polygon class="st128" points="686.6,520.7 661,520 661,519.3 686.7,520 			"/>
		</g>
		<g>
			
				<pattern  id="SVGID_65_" xlink:href="#New_Pattern_Swatch_3" patternTransform="matrix(0.345 0 0 0.3449 -4641.1387 -4335.7388)">
			</pattern>
			<polygon class="st129" points="686.6,525.3 660.2,524.7 660.2,524 686.7,524.6 			"/>
		</g>
		<g class="st130">
			<g class="st130">
				
					<pattern  id="SVGID_66_" xlink:href="#New_Pattern_Swatch_7" patternTransform="matrix(0.345 0 0 0.3449 -4641.1387 -4332.9795)"  class="st130">
				</pattern>
				<rect x="661" y="515.1" class="st131" width="25.6" height="0.7"/>
			</g>
			<g class="st130">
				
					<pattern  id="SVGID_67_" xlink:href="#New_Pattern_Swatch_7" patternTransform="matrix(0.345 0 0 0.3449 -4641.1387 -4332.9795)"  class="st130">
				</pattern>
				<polygon class="st132" points="686.6,521.4 661,520.6 661,520 686.7,520.7 				"/>
			</g>
			<g class="st130">
				
					<pattern  id="SVGID_68_" xlink:href="#New_Pattern_Swatch_7" patternTransform="matrix(0.345 0 0 0.3449 -4641.1387 -4332.9795)"  class="st130">
				</pattern>
				<polygon class="st133" points="686.6,526 660.2,525.4 660.2,524.7 686.7,525.3 				"/>
			</g>
		</g>
		<pattern  id="SVGID_69_" xlink:href="#New_Pattern_Swatch_3" patternTransform="matrix(0.3966 0 0 0.3449 -4275.731 -4352.1274)">
		</pattern>
		<line class="st134" x1="733.9" y1="426.6" x2="761.3" y2="426.6"/>
		
			<pattern  id="SVGID_70_" xlink:href="#New_Pattern_Swatch_3" patternTransform="matrix(0.3944 0 0 0.3449 -4402.8657 -4352.1274)">
		</pattern>
		<line class="st135" x1="764.2" y1="430" x2="733" y2="430"/>
		<pattern  id="SVGID_71_" xlink:href="#New_Pattern_Swatch_3" patternTransform="matrix(0.3966 0 0 0.3449 -4275.731 -4352.1274)">
		</pattern>
		<line class="st136" x1="733.9" y1="426.6" x2="761.3" y2="426.6"/>
		
			<pattern  id="SVGID_72_" xlink:href="#New_Pattern_Swatch_3" patternTransform="matrix(0.3944 0 0 0.3449 -4402.8657 -4352.1274)">
		</pattern>
		<line class="st137" x1="764.2" y1="430" x2="733" y2="430"/>
		<polygon class="st72" points="410.8,562.2 417.1,563.2 418,581.3 410.6,582.3 		"/>
		<pattern  id="SVGID_73_" xlink:href="#New_Pattern_Swatch_3" patternTransform="matrix(0.345 0 0 0.3387 -4610.0854 -4528.7676)">
		</pattern>
		<polyline class="st138" points="398.1,553.1 399.1,575 391.5,575.2 391.6,553.9 		"/>
		<pattern  id="SVGID_74_" xlink:href="#New_Pattern_Swatch_3" patternTransform="matrix(0.345 0 0 0.3387 -4610.0854 -4528.7676)">
		</pattern>
		<path class="st139" d="M397.8,553.3l7.9-0.5l1.7-113.5H388c0.9-0.9-1.3,115-1.3,115l5.3-0.5"/>
		<pattern  id="SVGID_75_" xlink:href="#New_Pattern_Swatch_7" patternTransform="matrix(0.345 0 0 0.3449 -4641.1387 -4332.9795)">
		</pattern>
		<polygon class="st140" points="851,439.5 850.9,439.5 851.3,449.3 858.1,449.3 858.1,446.6 851.3,446.6 		"/>
		<pattern  id="SVGID_76_" xlink:href="#New_Pattern_Swatch_7" patternTransform="matrix(0.345 0 0 0.3449 -4641.1387 -4332.9795)">
		</pattern>
		<polygon class="st141" points="637.4,439.5 637.3,439.5 637.7,449.3 644.5,449.3 644.5,446.6 637.7,446.6 		"/>
		<polygon class="st142" points="946.6,453.1 934.9,453.1 948.3,520.2 959.7,520.4 		"/>
		<polyline class="st143" points="862.4,461.1 924.6,461.1 935.8,517.6 862.1,517.3 862.4,462.3 		"/>
		<g>
			<path class="st0" d="M874.6,524c1.8-1.5,4.2-3.7,7.1-6.6l-1,0C878,520,876,522.3,874.6,524z"/>
			<polygon class="st144" points="925.3,464.8 907.9,471 917.4,517.5 935.8,517.6 			"/>
			<polygon class="st144" points="895,474.6 862.2,474.6 862.1,486.3 897.4,486.3 			"/>
			<path class="st144" d="M898.1,489.4l-23.8,0v28l4,0c0.6-0.7,1.3-1.3,1.9-2c2.7-2.7,5.3-5.1,7.4-6.9c3.3-2.7,4.1-2.9,4.7-2.3
				c0.6,0.6,0.5,1.4-2.3,4.7c-1.5,1.8-3.6,4.1-5.9,6.4l20,0.1L898.1,489.4z"/>
			<path class="st144" d="M880.7,517.4l1,0c0.1-0.1,0.2-0.2,0.3-0.2c3-3,5.3-5.6,6.8-7.4c-1.8,1.5-4.4,3.8-7.4,6.8
				C881.2,516.9,880.9,517.1,880.7,517.4z"/>
			<polygon class="st144" points="871.9,489.3 862.1,489.3 862,517.3 871.9,517.3 			"/>
		</g>
		<path class="st72" d="M931.7,523.6h5.6c0.8,0,1.6-0.6,1.6-1.4l1.8-19.9c0-0.8-0.5-1.4-1.3-1.4h-5.6c-0.8,0-1.6,0.6-1.6,1.4
			l-1.8,19.9C930.5,522.9,930.9,523.6,931.7,523.6z"/>
		<pattern  id="SVGID_77_" xlink:href="#New_Pattern_Swatch_7" patternTransform="matrix(0.345 0 0 0.3449 -4641.1387 -4335.7388)">
		</pattern>
		<path class="st145" d="M931.7,523.6h5.6c0.8,0,1.6-0.6,1.6-1.4l1.8-19.9c0-0.8-0.5-1.4-1.3-1.4h-5.6c-0.8,0-1.6,0.6-1.6,1.4
			l-1.8,19.9C930.5,522.9,930.9,523.6,931.7,523.6z"/>
		<polygon class="st146" points="967.5,554.7 955.6,554.7 955.6,570.9 967.5,570.9 		"/>
		<polygon class="st115" points="955.6,554.7 949.6,554.7 952.1,570.9 955.6,570.9 		"/>
		<g>
			<g>
				
					<pattern  id="SVGID_78_" xlink:href="#New_Pattern_Swatch_3" patternTransform="matrix(0.345 3.882364e-03 -3.883788e-03 0.3449 -4697.8276 -4430.7563)">
				</pattern>
				<polyline class="st147" points="407.3,466 401.4,465.9 401,484.1 399.7,547 404.1,559.7 				"/>
				
					<pattern  id="SVGID_79_" xlink:href="#New_Pattern_Swatch_3" patternTransform="matrix(0.345 3.882364e-03 -3.883788e-03 0.3449 -4697.8276 -4430.7563)">
				</pattern>
				<line class="st148" x1="406.7" y1="484.2" x2="401" y2="484.1"/>
				
					<pattern  id="SVGID_80_" xlink:href="#New_Pattern_Swatch_3" patternTransform="matrix(0.345 3.882364e-03 -3.883788e-03 0.3449 -4697.8276 -4430.7563)">
				</pattern>
				<line class="st149" x1="406" y1="503" x2="400.6" y2="503"/>
				
					<pattern  id="SVGID_81_" xlink:href="#New_Pattern_Swatch_3" patternTransform="matrix(0.345 3.882364e-03 -3.883788e-03 0.3449 -4697.8276 -4430.7563)">
				</pattern>
				<line class="st150" x1="405.4" y1="521.6" x2="399.9" y2="521.6"/>
				
					<pattern  id="SVGID_82_" xlink:href="#New_Pattern_Swatch_3" patternTransform="matrix(0.345 3.882364e-03 -3.883788e-03 0.3449 -4697.8276 -4430.7563)">
				</pattern>
				<line class="st151" x1="399.8" y1="541" x2="404.7" y2="540.7"/>
			</g>
			<g>
				
					<pattern  id="SVGID_83_" xlink:href="#New_Pattern_Swatch_3" patternTransform="matrix(0.345 3.882364e-03 -3.883788e-03 0.3449 -4706.6343 -4430.8555)">
				</pattern>
				<polyline class="st152" points="398.5,465.9 392.6,465.8 392.2,484 390.8,546.9 395.3,559.6 				"/>
				
					<pattern  id="SVGID_84_" xlink:href="#New_Pattern_Swatch_3" patternTransform="matrix(0.345 3.882364e-03 -3.883788e-03 0.3449 -4706.6343 -4430.8555)">
				</pattern>
				<line class="st153" x1="397.9" y1="484.1" x2="392.2" y2="484"/>
				
					<pattern  id="SVGID_85_" xlink:href="#New_Pattern_Swatch_3" patternTransform="matrix(0.345 3.882364e-03 -3.883788e-03 0.3449 -4706.6343 -4430.8555)">
				</pattern>
				<line class="st154" x1="397.2" y1="502.9" x2="391.8" y2="502.9"/>
				
					<pattern  id="SVGID_86_" xlink:href="#New_Pattern_Swatch_3" patternTransform="matrix(0.345 3.882364e-03 -3.883788e-03 0.3449 -4706.6343 -4430.8555)">
				</pattern>
				<line class="st155" x1="396.6" y1="521.5" x2="391.1" y2="521.5"/>
				
					<pattern  id="SVGID_87_" xlink:href="#New_Pattern_Swatch_3" patternTransform="matrix(0.345 3.882364e-03 -3.883788e-03 0.3449 -4706.6343 -4430.8555)">
				</pattern>
				<line class="st156" x1="395.9" y1="540.6" x2="391" y2="540.9"/>
			</g>
			
				<rect x="390.5" y="464.7" transform="matrix(0.9999 1.125221e-02 -1.125221e-02 0.9999 5.2659 -4.4336)" class="st72" width="12.2" height="2.1"/>
			
				<rect x="390.3" y="482.7" transform="matrix(0.9999 1.125221e-02 -1.125221e-02 0.9999 5.4679 -4.4302)" class="st72" width="12.2" height="2.1"/>
			
				<rect x="390.1" y="501.6" transform="matrix(0.9999 1.125221e-02 -1.125221e-02 0.9999 5.6812 -4.4265)" class="st72" width="12.2" height="2.1"/>
			
				<rect x="389.9" y="520.1" transform="matrix(0.9999 1.125221e-02 -1.125221e-02 0.9999 5.8893 -4.423)" class="st72" width="12.2" height="2.1"/>
			
				<rect x="389.7" y="539.9" transform="matrix(0.9999 1.125221e-02 -1.125221e-02 0.9999 6.1119 -4.4193)" class="st72" width="12.2" height="2.1"/>
		</g>
		<polygon class="st143" points="936.4,460.7 947.2,456.1 946.6,453.1 934.9,453.1 		"/>
		<polygon class="st115" points="928.4,480.1 862.1,479.4 862,483.2 895.2,483.2 895.7,517.6 899.1,517.6 898.8,483.2 929.1,483.2 
					"/>
	</g>
	<g>
		<ellipse class="st69" cx="884.3" cy="367.7" rx="59.8" ry="6.5"/>
		<linearGradient id="SVGID_88_" gradientUnits="userSpaceOnUse" x1="852.9041" y1="337.2668" x2="906.5364" y2="244.3728">
			<stop  offset="0" style="stop-color:#EC7B35"/>
			<stop  offset="1" style="stop-color:#FA9555"/>
		</linearGradient>
		<path class="st157" d="M923.4,316.6c7.8-9,12.5-20.8,12.5-33.7c0-28.5-23.1-51.6-51.7-51.6s-51.7,23.1-51.7,51.6
			c0,12.9,4.7,24.6,12.5,33.7l39.1,51.1L923.4,316.6z"/>
		<ellipse class="st7" cx="884.3" cy="283" rx="29.8" ry="29.7"/>
	</g>
	<g>
		<path class="st11" d="M387.8,437.6c-1.1,0-2.1-0.1-3.2-0.4c-3.2-0.9-5.9-2.9-7.5-5.8l-56.2-97.3l4.9-2.8l56.2,97.3
			c0.9,1.6,2.4,2.7,4.1,3.1c1.7,0.5,3.6,0.2,5.1-0.7l200.5-116c2.9-1.7,6.2-2.1,9.4-1.2c3.2,0.9,5.9,2.9,7.5,5.8l17.3,29.9
			c0.9,1.6,2.4,2.7,4.1,3.1c1.7,0.5,3.6,0.2,5.1-0.7l119.5-69.1c2.9-1.7,6.2-2.1,9.4-1.2c3.2,0.9,5.9,2.9,7.5,5.8l58.3,100.9
			c0.9,1.6,2.4,2.7,4.1,3.1c1.7,0.5,3.6,0.2,5.1-0.7l43.9-25.4l2.8,4.9l-43.9,25.4c-2.9,1.7-6.2,2.1-9.4,1.2
			c-3.2-0.9-5.9-2.9-7.5-5.8l-58.3-100.9c-0.9-1.6-2.4-2.7-4.1-3.1c-1.7-0.5-3.6-0.2-5.1,0.7l-119.5,69.1c-2.9,1.7-6.2,2.1-9.4,1.2
			c-3.2-0.9-5.9-2.9-7.5-5.8l-17.3-29.9c-0.9-1.6-2.4-2.7-4.1-3.1c-1.7-0.5-3.6-0.2-5.1,0.7L394,435.9
			C392.1,437,390,437.6,387.8,437.6z"/>
	</g>
	<path class="st0" d="M736.6,33.4L736.6,33.4c-75.8,0-145.9,24.6-202.8,66.2c-42.2,30.9-97.4,37.9-146.3,19.1
		c-31.7-12.2-66.2-18.8-102.2-18.8h0C127.7,99.8,0,227.5,0,385v11.1c0,157.5,127.7,285.2,285.3,285.2h0c42.6,0,83-9.3,119.2-26
		c47.6-21.9,103-17.5,147.1,10.8c53.4,34.2,116.8,54,184.9,54h0c189.7,0,343.4-153.7,343.4-343.3v0
		C1080,187.1,926.2,33.4,736.6,33.4z"/>
</g>
</svg>
