<?xml version="1.0" encoding="utf-8"?>
<!-- Generator: Adobe Illustrator 25.0.0, SVG Export Plug-In . SVG Version: 6.00 Build 0)  -->
<svg version="1.1" id="Layer" xmlns="http://www.w3.org/2000/svg" xmlns:xlink="http://www.w3.org/1999/xlink" x="0px" y="0px"
	 viewBox="0 0 512 512" style="enable-background:new 0 0 512 512;" xml:space="preserve">
<style type="text/css">
	.st0{fill:#E3530D;}
</style>
<g>
	<path class="st0" d="M96.1,354.5c-4.6,0-9.2-1.8-12.7-5.3c-7-7-7-18.4,0-25.5l161-161c3.4-3.4,8-5.3,12.7-5.3
		c4.8,0,9.4,1.9,12.7,5.3l158.9,158.9c7,7,7,18.4,0,25.5c-7,7-18.4,7-25.5,0L257.1,201L108.8,349.2
		C105.3,352.7,100.7,354.5,96.1,354.5z"/>
</g>
<g>
	<path class="st0" d="M96.1,354.5c-4.6,0-9.2-1.8-12.7-5.3c-7-7-7-18.4,0-25.5l161-161c3.4-3.4,8-5.3,12.7-5.3
		c4.8,0,9.4,1.9,12.7,5.3l158.9,158.9c7,7,7,18.4,0,25.5c-7,7-18.4,7-25.5,0L257.1,201L108.8,349.2
		C105.3,352.7,100.7,354.5,96.1,354.5z"/>
</g>
</svg>
