<?xml version="1.0" encoding="utf-8"?>
<!-- Generator: Adobe Illustrator 27.8.1, SVG Export Plug-In . SVG Version: 6.00 Build 0)  -->
<svg version="1.1" id="Layer_1" xmlns="http://www.w3.org/2000/svg" xmlns:xlink="http://www.w3.org/1999/xlink" x="0px" y="0px"
	 viewBox="0 0 24 24" style="enable-background:new 0 0 24 24;" xml:space="preserve">
<path d="M13.95,1.57c-0.43-0.31-1.03-0.22-1.34,0.2c-0.31,0.43-0.22,1.03,0.2,1.34c3.67,2.7,7.54,6.11,8.83,7.93H0.96
	C0.43,11.04,0,11.47,0,12c0,0.53,0.43,0.96,0.96,0.96h20.68c-1.29,1.83-5.16,5.23-8.83,7.93c-0.43,0.31-0.52,0.91-0.2,1.34
	c0.19,0.26,0.48,0.39,0.77,0.39c0.2,0,0.4-0.06,0.57-0.19C16.31,20.7,24,14.81,24,12S16.31,3.3,13.95,1.57z"/>
</svg>
