<svg width="159" height="121" viewBox="0 0 159 121" fill="none" xmlns="http://www.w3.org/2000/svg">
<rect width="159" height="121" fill="white"/>
<path d="M20.4084 50.7464C20.3686 50.3454 20.1979 50.0339 19.8963 49.8118C19.5947 49.5897 19.1854 49.4787 18.6683 49.4787C18.317 49.4787 18.0204 49.5284 17.7784 49.6278C17.5365 49.724 17.3509 49.8582 17.2216 50.0305C17.0956 50.2029 17.0327 50.3984 17.0327 50.6172C17.026 50.7995 17.0642 50.9586 17.147 51.0945C17.2332 51.2304 17.3509 51.348 17.5 51.4474C17.6491 51.5436 17.8215 51.6281 18.017 51.701C18.2126 51.7706 18.4214 51.8303 18.6435 51.88L19.5582 52.0987C20.0024 52.1982 20.41 52.3307 20.7812 52.4964C21.1525 52.6622 21.474 52.866 21.7457 53.108C22.0175 53.3499 22.228 53.6349 22.3771 53.9631C22.5296 54.2912 22.6075 54.6674 22.6108 55.0916C22.6075 55.7147 22.4484 56.255 22.1335 56.7124C21.822 57.1664 21.3712 57.5194 20.7812 57.7713C20.1946 58.0199 19.487 58.1442 18.6584 58.1442C17.8364 58.1442 17.1205 58.0182 16.5107 57.7663C15.9041 57.5144 15.4302 57.1416 15.0888 56.6477C14.7507 56.1506 14.5734 55.5357 14.5568 54.8033H16.6399C16.6631 55.1446 16.7609 55.4297 16.9332 55.6584C17.1089 55.8838 17.3426 56.0545 17.6342 56.1705C17.9292 56.2831 18.2623 56.3395 18.6335 56.3395C18.9981 56.3395 19.3146 56.2865 19.5831 56.1804C19.8549 56.0743 20.0653 55.9268 20.2145 55.7379C20.3636 55.549 20.4382 55.3319 20.4382 55.0866C20.4382 54.858 20.3703 54.6657 20.2344 54.5099C20.1018 54.3542 19.9063 54.2216 19.6477 54.1122C19.3925 54.0028 19.0793 53.9034 18.7081 53.8139L17.5994 53.5355C16.741 53.3267 16.0632 53.0002 15.5661 52.5561C15.0689 52.112 14.822 51.5137 14.8253 50.7614C14.822 50.1449 14.986 49.6063 15.3175 49.1456C15.6522 48.6849 16.1113 48.3253 16.6946 48.0668C17.2779 47.8082 17.9408 47.679 18.6832 47.679C19.4389 47.679 20.0985 47.8082 20.6619 48.0668C21.2287 48.3253 21.6695 48.6849 21.9844 49.1456C22.2992 49.6063 22.4616 50.1399 22.4716 50.7464H20.4084ZM25.4369 53.5852V58H23.319V47.8182H25.3772V51.7109H25.4667C25.6391 51.2602 25.9175 50.9072 26.302 50.652C26.6864 50.3935 27.1687 50.2642 27.7487 50.2642C28.279 50.2642 28.7413 50.3802 29.1358 50.6122C29.5335 50.8409 29.8417 51.1707 30.0605 51.6016C30.2825 52.0291 30.3919 52.5412 30.3886 53.1378V58H28.2707V53.5156C28.274 53.045 28.1547 52.6787 27.9127 52.4169C27.6741 52.1551 27.3394 52.0241 26.9085 52.0241C26.6201 52.0241 26.3649 52.0855 26.1429 52.2081C25.9241 52.3307 25.7518 52.5097 25.6258 52.745C25.5032 52.977 25.4402 53.2571 25.4369 53.5852ZM34.8056 58.1491C34.0334 58.1491 33.3655 57.9851 32.8021 57.657C32.2419 57.3255 31.8094 56.8648 31.5045 56.2749C31.1996 55.6816 31.0471 54.9938 31.0471 54.2116C31.0471 53.4228 31.1996 52.7334 31.5045 52.1435C31.8094 51.5502 32.2419 51.0895 32.8021 50.7614C33.3655 50.4299 34.0334 50.2642 34.8056 50.2642C35.5779 50.2642 36.2441 50.4299 36.8042 50.7614C37.3676 51.0895 37.8018 51.5502 38.1067 52.1435C38.4117 52.7334 38.5641 53.4228 38.5641 54.2116C38.5641 54.9938 38.4117 55.6816 38.1067 56.2749C37.8018 56.8648 37.3676 57.3255 36.8042 57.657C36.2441 57.9851 35.5779 58.1491 34.8056 58.1491ZM34.8156 56.5085C35.1669 56.5085 35.4602 56.4091 35.6955 56.2102C35.9308 56.008 36.1082 55.733 36.2275 55.3849C36.3501 55.0369 36.4114 54.6409 36.4114 54.1967C36.4114 53.7526 36.3501 53.3565 36.2275 53.0085C36.1082 52.6605 35.9308 52.3854 35.6955 52.1832C35.4602 51.9811 35.1669 51.88 34.8156 51.88C34.4609 51.88 34.1626 51.9811 33.9207 52.1832C33.682 52.3854 33.5014 52.6605 33.3788 53.0085C33.2594 53.3565 33.1998 53.7526 33.1998 54.1967C33.1998 54.6409 33.2594 55.0369 33.3788 55.3849C33.5014 55.733 33.682 56.008 33.9207 56.2102C34.1626 56.4091 34.4609 56.5085 34.8156 56.5085ZM39.2413 60.8636V50.3636H41.3293V51.6463H41.4238C41.5166 51.4408 41.6508 51.232 41.8265 51.0199C42.0055 50.8045 42.2375 50.6255 42.5225 50.483C42.8109 50.3371 43.1688 50.2642 43.5964 50.2642C44.1532 50.2642 44.6669 50.41 45.1376 50.7017C45.6082 50.9901 45.9844 51.4259 46.2661 52.0092C46.5478 52.5893 46.6887 53.3168 46.6887 54.1918C46.6887 55.0436 46.5512 55.7628 46.2761 56.3494C46.0043 56.9328 45.6331 57.3752 45.1624 57.6768C44.6951 57.9751 44.1714 58.1243 43.5914 58.1243C43.1804 58.1243 42.8308 58.0563 42.5424 57.9205C42.2574 57.7846 42.0237 57.6139 41.8414 57.4084C41.6591 57.1996 41.5199 56.9891 41.4238 56.777H41.3592V60.8636H39.2413ZM41.3144 54.1818C41.3144 54.6359 41.3774 55.032 41.5033 55.37C41.6293 55.7081 41.8116 55.9716 42.0502 56.1605C42.2888 56.3461 42.5789 56.4389 42.9202 56.4389C43.2649 56.4389 43.5566 56.3445 43.7952 56.1555C44.0339 55.9633 44.2145 55.6982 44.3371 55.3601C44.4631 55.0187 44.5261 54.6259 44.5261 54.1818C44.5261 53.741 44.4647 53.3532 44.3421 53.0185C44.2195 52.6837 44.0388 52.4219 43.8002 52.233C43.5616 52.044 43.2683 51.9496 42.9202 51.9496C42.5755 51.9496 42.2839 52.0407 42.0452 52.223C41.8099 52.4053 41.6293 52.6638 41.5033 52.9986C41.3774 53.3333 41.3144 53.7277 41.3144 54.1818ZM49.9409 58V50.3636H52.0588V58H49.9409ZM51.0048 49.3793C50.6899 49.3793 50.4198 49.2749 50.1944 49.0661C49.9724 48.8539 49.8613 48.6004 49.8613 48.3054C49.8613 48.0137 49.9724 47.7635 50.1944 47.5547C50.4198 47.3426 50.6899 47.2365 51.0048 47.2365C51.3197 47.2365 51.5881 47.3426 51.8102 47.5547C52.0356 47.7635 52.1483 48.0137 52.1483 48.3054C52.1483 48.6004 52.0356 48.8539 51.8102 49.0661C51.5881 49.2749 51.3197 49.3793 51.0048 49.3793ZM55.1732 53.5852V58H53.0553V50.3636H55.0738V51.7109H55.1633C55.3323 51.2668 55.6157 50.9155 56.0134 50.657C56.4111 50.3951 56.8934 50.2642 57.4602 50.2642C57.9905 50.2642 58.4528 50.3802 58.8472 50.6122C59.2416 50.8442 59.5482 51.1757 59.767 51.6065C59.9857 52.0341 60.0951 52.5445 60.0951 53.1378V58H57.9772V53.5156C57.9805 53.0483 57.8612 52.6837 57.6192 52.4219C57.3773 52.1567 57.0442 52.0241 56.62 52.0241C56.3349 52.0241 56.083 52.0855 55.8643 52.2081C55.6488 52.3307 55.4798 52.5097 55.3572 52.745C55.2379 52.977 55.1765 53.2571 55.1732 53.5852ZM69.1678 50.7464C69.128 50.3454 68.9573 50.0339 68.6557 49.8118C68.3541 49.5897 67.9447 49.4787 67.4277 49.4787C67.0764 49.4787 66.7797 49.5284 66.5378 49.6278C66.2958 49.724 66.1102 49.8582 65.981 50.0305C65.855 50.2029 65.792 50.3984 65.792 50.6172C65.7854 50.7995 65.8235 50.9586 65.9064 51.0945C65.9926 51.2304 66.1102 51.348 66.2594 51.4474C66.4085 51.5436 66.5809 51.6281 66.7764 51.701C66.972 51.7706 67.1808 51.8303 67.4028 51.88L68.3176 52.0987C68.7617 52.1982 69.1694 52.3307 69.5406 52.4964C69.9118 52.6622 70.2333 52.866 70.5051 53.108C70.7769 53.3499 70.9874 53.6349 71.1365 53.9631C71.289 54.2912 71.3669 54.6674 71.3702 55.0916C71.3669 55.7147 71.2078 56.255 70.8929 56.7124C70.5813 57.1664 70.1306 57.5194 69.5406 57.7713C68.954 58.0199 68.2464 58.1442 67.4178 58.1442C66.5958 58.1442 65.8799 58.0182 65.27 57.7663C64.6635 57.5144 64.1895 57.1416 63.8482 56.6477C63.5101 56.1506 63.3328 55.5357 63.3162 54.8033H65.3993C65.4225 55.1446 65.5203 55.4297 65.6926 55.6584C65.8683 55.8838 66.1019 56.0545 66.3936 56.1705C66.6886 56.2831 67.0217 56.3395 67.3929 56.3395C67.7575 56.3395 68.074 56.2865 68.3425 56.1804C68.6143 56.0743 68.8247 55.9268 68.9739 55.7379C69.123 55.549 69.1976 55.3319 69.1976 55.0866C69.1976 54.858 69.1296 54.6657 68.9938 54.5099C68.8612 54.3542 68.6656 54.2216 68.4071 54.1122C68.1519 54.0028 67.8387 53.9034 67.4675 53.8139L66.3588 53.5355C65.5004 53.3267 64.8226 53.0002 64.3254 52.5561C63.8283 52.112 63.5813 51.5137 63.5847 50.7614C63.5813 50.1449 63.7454 49.6063 64.0768 49.1456C64.4116 48.6849 64.8706 48.3253 65.454 48.0668C66.0373 47.8082 66.7002 47.679 67.4426 47.679C68.1983 47.679 68.8579 47.8082 69.4213 48.0668C69.9881 48.3253 70.4289 48.6849 70.7438 49.1456C71.0586 49.6063 71.221 50.1399 71.231 50.7464H69.1678ZM76.1402 50.3636V51.9545H71.5414V50.3636H76.1402ZM72.5855 48.5341H74.7034V55.6534C74.7034 55.849 74.7332 56.0014 74.7929 56.1108C74.8525 56.2169 74.9354 56.2914 75.0414 56.3345C75.1508 56.3776 75.2768 56.3991 75.4193 56.3991C75.5187 56.3991 75.6181 56.3909 75.7176 56.3743C75.817 56.3544 75.8932 56.3395 75.9463 56.3295L76.2794 57.9055C76.1733 57.9387 76.0242 57.9768 75.8319 58.0199C75.6397 58.0663 75.406 58.0945 75.1309 58.1044C74.6205 58.1243 74.1731 58.0563 73.7886 57.9006C73.4074 57.7448 73.1108 57.5028 72.8987 57.1747C72.6866 56.8466 72.5822 56.4323 72.5855 55.9318V48.5341ZM78.1273 60.8636C77.8588 60.8636 77.6069 60.8421 77.3716 60.799C77.1396 60.7592 76.9474 60.7079 76.7949 60.6449L77.2722 59.0639C77.5208 59.1402 77.7445 59.1816 77.9434 59.1882C78.1455 59.1948 78.3195 59.1484 78.4654 59.049C78.6145 58.9496 78.7355 58.7805 78.8283 58.5419L78.9526 58.2188L76.2132 50.3636H78.4405L80.0215 55.9716H80.101L81.6969 50.3636H83.9391L80.9711 58.8253C80.8285 59.2363 80.6346 59.5942 80.3894 59.8991C80.1474 60.2074 79.8409 60.4444 79.4696 60.6101C79.0984 60.7791 78.651 60.8636 78.1273 60.8636ZM86.4408 47.8182V58H84.3229V47.8182H86.4408ZM90.9175 58.1491C90.132 58.1491 89.4558 57.9901 88.8891 57.6719C88.3256 57.3504 87.8914 56.8963 87.5865 56.3097C87.2816 55.7197 87.1291 55.022 87.1291 54.2166C87.1291 53.4311 87.2816 52.7417 87.5865 52.1484C87.8914 51.5552 88.3206 51.0928 88.8741 50.7614C89.431 50.4299 90.0839 50.2642 90.833 50.2642C91.3367 50.2642 91.8057 50.3454 92.2399 50.5078C92.6774 50.6669 93.0586 50.9072 93.3834 51.2287C93.7115 51.5502 93.9667 51.9545 94.149 52.4418C94.3313 52.9257 94.4224 53.4924 94.4224 54.142V54.7237H87.9743V53.4112H92.4288C92.4288 53.1063 92.3625 52.8362 92.23 52.6009C92.0974 52.3655 91.9134 52.1816 91.6781 52.049C91.4461 51.9131 91.176 51.8452 90.8678 51.8452C90.5463 51.8452 90.2612 51.9197 90.0126 52.0689C89.7674 52.2147 89.5751 52.4119 89.4359 52.6605C89.2967 52.9058 89.2255 53.1792 89.2222 53.4808V54.7287C89.2222 55.1065 89.2918 55.433 89.431 55.7081C89.5735 55.9832 89.774 56.1953 90.0325 56.3445C90.291 56.4936 90.5976 56.5682 90.9523 56.5682C91.1876 56.5682 91.403 56.535 91.5986 56.4688C91.7941 56.4025 91.9615 56.303 92.1007 56.1705C92.2399 56.0379 92.346 55.8755 92.4189 55.6832L94.3777 55.8125C94.2783 56.2831 94.0744 56.6941 93.7662 57.0455C93.4613 57.3935 93.0669 57.6652 92.583 57.8608C92.1024 58.053 91.5472 58.1491 90.9175 58.1491ZM97.6351 47.8182L97.4412 54.9474H95.6216L95.4227 47.8182H97.6351ZM96.5314 58.1293C96.2033 58.1293 95.9215 58.0133 95.6862 57.7812C95.4509 57.5459 95.3349 57.2642 95.3382 56.9361C95.3349 56.6113 95.4509 56.3329 95.6862 56.1009C95.9215 55.8688 96.2033 55.7528 96.5314 55.7528C96.8463 55.7528 97.123 55.8688 97.3616 56.1009C97.6003 56.3329 97.7213 56.6113 97.7246 56.9361C97.7213 57.1548 97.6633 57.3554 97.5506 57.5376C97.4412 57.7166 97.297 57.8608 97.118 57.9702C96.9391 58.0762 96.7435 58.1293 96.5314 58.1293Z" fill="#2D2D2D"/>
<path d="M19.8523 69C19.7741 68.7609 19.6712 68.5466 19.5433 68.3572C19.4179 68.1655 19.2675 68.0021 19.0923 67.8672C18.9195 67.7322 18.723 67.6293 18.5028 67.5582C18.2827 67.4872 18.0412 67.4517 17.7784 67.4517C17.3475 67.4517 16.9557 67.563 16.603 67.7855C16.2502 68.008 15.9697 68.3359 15.7614 68.7692C15.553 69.2024 15.4489 69.7339 15.4489 70.3636C15.4489 70.9934 15.5542 71.5249 15.7649 71.9581C15.9756 72.3913 16.2609 72.7192 16.6207 72.9418C16.9806 73.1643 17.3854 73.2756 17.8352 73.2756C18.2519 73.2756 18.6188 73.1868 18.9361 73.0092C19.2557 72.8293 19.5043 72.576 19.6818 72.2493C19.8617 71.9202 19.9517 71.5331 19.9517 71.0881L20.2216 71.1449H18.0341V70.3636H20.804V71.1449C20.804 71.7438 20.6761 72.2647 20.4205 72.7074C20.1671 73.1501 19.8168 73.4934 19.3693 73.7372C18.9242 73.9787 18.4129 74.0994 17.8352 74.0994C17.1913 74.0994 16.6255 73.9479 16.1378 73.6449C15.6525 73.3419 15.2737 72.911 15.0014 72.3523C14.7315 71.7936 14.5966 71.1307 14.5966 70.3636C14.5966 69.7884 14.6735 69.2711 14.8274 68.8118C14.9837 68.3501 15.2038 67.9571 15.4879 67.6328C15.772 67.3085 16.1082 67.0599 16.4964 66.8871C16.8847 66.7143 17.312 66.6278 17.7784 66.6278C18.1619 66.6278 18.5194 66.6858 18.8509 66.8018C19.1847 66.9155 19.4818 67.0777 19.7422 67.2884C20.005 67.4967 20.224 67.7464 20.3991 68.0376C20.5743 68.3265 20.6951 68.6473 20.7614 69H19.8523ZM24.4856 74.1136C23.96 74.1136 23.5067 73.9976 23.1255 73.7656C22.7467 73.5312 22.4544 73.2045 22.2484 72.7855C22.0448 72.3641 21.943 71.8741 21.943 71.3153C21.943 70.7566 22.0448 70.2642 22.2484 69.8381C22.4544 69.4096 22.7408 69.0758 23.1078 68.8366C23.4771 68.5952 23.908 68.4744 24.4004 68.4744C24.6845 68.4744 24.965 68.5218 25.242 68.6165C25.519 68.7112 25.7711 68.8651 25.9984 69.0781C26.2257 69.2888 26.4068 69.5682 26.5417 69.9162C26.6767 70.2642 26.7441 70.6927 26.7441 71.2017V71.5568H22.5396V70.8324H25.8919C25.8919 70.5246 25.8303 70.25 25.7072 70.0085C25.5865 69.767 25.4136 69.5765 25.1887 69.4368C24.9662 69.2971 24.7034 69.2273 24.4004 69.2273C24.0666 69.2273 23.7778 69.3101 23.5339 69.4759C23.2924 69.6392 23.1066 69.8523 22.9764 70.1151C22.8462 70.3778 22.7811 70.6596 22.7811 70.9602V71.4432C22.7811 71.8551 22.8521 72.2043 22.9941 72.4908C23.1386 72.7749 23.3386 72.9915 23.5943 73.1406C23.85 73.2874 24.1471 73.3608 24.4856 73.3608C24.7058 73.3608 24.9047 73.33 25.0822 73.2685C25.2621 73.2045 25.4172 73.1098 25.5474 72.9844C25.6776 72.8565 25.7782 72.6979 25.8493 72.5085L26.6589 72.7358C26.5737 73.0104 26.4305 73.2519 26.2292 73.4602C26.028 73.6662 25.7794 73.8272 25.4835 73.9432C25.1876 74.0568 24.8549 74.1136 24.4856 74.1136ZM30.3912 68.5455V69.2557H27.5645V68.5455H30.3912ZM28.3883 67.2386H29.2264V72.4375C29.2264 72.6742 29.2607 72.8518 29.3294 72.9702C29.4004 73.0862 29.4904 73.1643 29.5993 73.2045C29.7105 73.2424 29.8277 73.2614 29.9508 73.2614C30.0431 73.2614 30.1189 73.2566 30.1781 73.2472C30.2373 73.2353 30.2846 73.2259 30.3201 73.2188L30.4906 73.9716C30.4338 73.9929 30.3545 74.0142 30.2527 74.0355C30.1509 74.0592 30.0218 74.071 29.8656 74.071C29.6288 74.071 29.3968 74.0201 29.1696 73.9183C28.9447 73.8165 28.7576 73.6615 28.6085 73.4531C28.4617 73.2448 28.3883 72.982 28.3883 72.6648V67.2386ZM35.3024 70.7188V74H34.4643V66.7273H35.3024V69.3977H35.3734C35.5012 69.116 35.693 68.8923 35.9487 68.7266C36.2067 68.5585 36.55 68.4744 36.9785 68.4744C37.3502 68.4744 37.6757 68.549 37.9551 68.6982C38.2344 68.8449 38.4511 69.071 38.6049 69.3764C38.7612 69.6795 38.8393 70.0653 38.8393 70.5341V74H38.0012V70.5909C38.0012 70.1577 37.8888 69.8227 37.6639 69.5859C37.4413 69.3468 37.1324 69.2273 36.737 69.2273C36.4624 69.2273 36.2162 69.2853 35.9984 69.4013C35.783 69.5173 35.6125 69.6866 35.487 69.9091C35.3639 70.1316 35.3024 70.4015 35.3024 70.7188ZM42.6594 74.1136C42.1339 74.1136 41.6805 73.9976 41.2994 73.7656C40.9206 73.5312 40.6282 73.2045 40.4222 72.7855C40.2186 72.3641 40.1168 71.8741 40.1168 71.3153C40.1168 70.7566 40.2186 70.2642 40.4222 69.8381C40.6282 69.4096 40.9147 69.0758 41.2816 68.8366C41.6509 68.5952 42.0818 68.4744 42.5742 68.4744C42.8583 68.4744 43.1388 68.5218 43.4158 68.6165C43.6928 68.7112 43.945 68.8651 44.1722 69.0781C44.3995 69.2888 44.5806 69.5682 44.7156 69.9162C44.8505 70.2642 44.918 70.6927 44.918 71.2017V71.5568H40.7134V70.8324H44.0657C44.0657 70.5246 44.0041 70.25 43.881 70.0085C43.7603 69.767 43.5875 69.5765 43.3626 69.4368C43.14 69.2971 42.8772 69.2273 42.5742 69.2273C42.2404 69.2273 41.9516 69.3101 41.7077 69.4759C41.4663 69.6392 41.2804 69.8523 41.1502 70.1151C41.02 70.3778 40.9549 70.6596 40.9549 70.9602V71.4432C40.9549 71.8551 41.0259 72.2043 41.168 72.4908C41.3124 72.7749 41.5124 72.9915 41.7681 73.1406C42.0238 73.2874 42.3209 73.3608 42.6594 73.3608C42.8796 73.3608 43.0785 73.33 43.256 73.2685C43.436 73.2045 43.591 73.1098 43.7212 72.9844C43.8514 72.8565 43.9521 72.6979 44.0231 72.5085L44.8327 72.7358C44.7475 73.0104 44.6043 73.2519 44.4031 73.4602C44.2018 73.6662 43.9532 73.8272 43.6573 73.9432C43.3614 74.0568 43.0288 74.1136 42.6594 74.1136ZM47.7979 74.1278C47.4523 74.1278 47.1386 74.0627 46.8569 73.9325C46.5752 73.8 46.3514 73.6094 46.1857 73.3608C46.02 73.1098 45.9371 72.8068 45.9371 72.4517C45.9371 72.1392 45.9987 71.8859 46.1218 71.6918C46.2449 71.4953 46.4094 71.3414 46.6154 71.2301C46.8214 71.1188 47.0487 71.036 47.2972 70.9815C47.5482 70.9247 47.8003 70.8797 48.0536 70.8466C48.3851 70.804 48.6538 70.772 48.8597 70.7507C49.0681 70.727 49.2196 70.688 49.3143 70.6335C49.4113 70.5791 49.4599 70.4844 49.4599 70.3494V70.321C49.4599 69.9706 49.364 69.6984 49.1722 69.5043C48.9828 69.3101 48.6952 69.2131 48.3093 69.2131C47.9092 69.2131 47.5955 69.3007 47.3683 69.4759C47.141 69.651 46.9812 69.8381 46.8888 70.0369L46.0934 69.7528C46.2354 69.4214 46.4248 69.1634 46.6616 68.9787C46.9007 68.7917 47.1611 68.6615 47.4428 68.5881C47.7269 68.5123 48.0063 68.4744 48.2809 68.4744C48.4561 68.4744 48.6573 68.4957 48.8846 68.5384C49.1142 68.5786 49.3356 68.6626 49.5487 68.7905C49.7641 68.9183 49.9428 69.1113 50.0849 69.3693C50.2269 69.6274 50.2979 69.973 50.2979 70.4062V74H49.4599V73.2614H49.4173C49.3604 73.3797 49.2657 73.5064 49.1332 73.6413C49.0006 73.7763 48.8242 73.8911 48.604 73.9858C48.3839 74.0805 48.1152 74.1278 47.7979 74.1278ZM47.9258 73.375C48.2572 73.375 48.5366 73.3099 48.7638 73.1797C48.9935 73.0495 49.1663 72.8814 49.2823 72.6754C49.4007 72.4695 49.4599 72.2528 49.4599 72.0256V71.2585C49.4244 71.3011 49.3462 71.3402 49.2255 71.3757C49.1071 71.4089 48.9698 71.4384 48.8136 71.4645C48.6597 71.4882 48.5094 71.5095 48.3626 71.5284C48.2182 71.545 48.101 71.5592 48.011 71.571C47.7932 71.5994 47.5896 71.6456 47.4002 71.7095C47.2132 71.7711 47.0617 71.8646 46.9457 71.9901C46.832 72.1132 46.7752 72.2812 46.7752 72.4943C46.7752 72.7855 46.8829 73.0057 47.0984 73.1548C47.3162 73.3016 47.592 73.375 47.9258 73.375ZM56.0925 68.5455L54.0755 74H53.2232L51.2061 68.5455H52.1152L53.6209 72.892H53.6777L55.1834 68.5455H56.0925ZM57.7385 76.0455C57.5964 76.0455 57.4698 76.0336 57.3585 76.0099C57.2472 75.9886 57.1703 75.9673 57.1277 75.946L57.3407 75.2074C57.5443 75.2595 57.7243 75.2784 57.8805 75.2642C58.0368 75.25 58.1752 75.1802 58.296 75.0547C58.4191 74.9316 58.5315 74.7315 58.6333 74.4545L58.7896 74.0284L56.7725 68.5455H57.6816L59.1873 72.892H59.2441L60.7498 68.5455H61.6589L59.3436 74.7955C59.2394 75.0772 59.1104 75.3104 58.9565 75.495C58.8026 75.6821 58.6239 75.8205 58.4203 75.9105C58.219 76.0005 57.9918 76.0455 57.7385 76.0455ZM67.6373 74.1136C67.1827 74.1136 66.7814 73.9988 66.4334 73.7692C66.0854 73.5372 65.8132 73.2105 65.6167 72.7891C65.4202 72.3653 65.3219 71.8646 65.3219 71.2869C65.3219 70.714 65.4202 70.2169 65.6167 69.7955C65.8132 69.3741 66.0866 69.0485 66.437 68.8189C66.7873 68.5893 67.1922 68.4744 67.6515 68.4744C68.0066 68.4744 68.2871 68.5336 68.4931 68.652C68.7014 68.768 68.86 68.9006 68.9689 69.0497C69.0802 69.1965 69.1666 69.3172 69.2282 69.4119H69.2992V66.7273H70.1373V74H69.3276V73.1619H69.2282C69.1666 73.2614 69.079 73.3868 68.9654 73.5384C68.8517 73.6875 68.6896 73.8213 68.4789 73.9396C68.2682 74.0556 67.9876 74.1136 67.6373 74.1136ZM67.7509 73.3608C68.0871 73.3608 68.3712 73.2732 68.6032 73.098C68.8352 72.9205 69.0115 72.6754 69.1323 72.3629C69.253 72.0481 69.3134 71.6847 69.3134 71.2727C69.3134 70.8655 69.2542 70.5092 69.1358 70.2038C69.0175 69.8961 68.8423 69.657 68.6103 69.4865C68.3783 69.3137 68.0918 69.2273 67.7509 69.2273C67.3958 69.2273 67.0998 69.3184 66.8631 69.5007C66.6287 69.6806 66.4524 69.9257 66.334 70.2358C66.218 70.5436 66.16 70.8892 66.16 71.2727C66.16 71.661 66.2192 72.0137 66.3375 72.331C66.4583 72.6458 66.6358 72.8968 66.8702 73.0838C67.1069 73.2685 67.4005 73.3608 67.7509 73.3608ZM71.7885 74V68.5455H72.6266V74H71.7885ZM72.2147 67.6364C72.0513 67.6364 71.9105 67.5807 71.7921 67.4695C71.6761 67.3582 71.6181 67.2244 71.6181 67.0682C71.6181 66.9119 71.6761 66.7782 71.7921 66.6669C71.9105 66.5556 72.0513 66.5 72.2147 66.5C72.378 66.5 72.5177 66.5556 72.6337 66.6669C72.7521 66.7782 72.8113 66.9119 72.8113 67.0682C72.8113 67.2244 72.7521 67.3582 72.6337 67.4695C72.5177 67.5807 72.378 67.6364 72.2147 67.6364ZM78.0252 69.767L77.2724 69.9801C77.225 69.8546 77.1552 69.7327 77.0629 69.6143C76.9729 69.4936 76.8498 69.3942 76.6935 69.3161C76.5373 69.2379 76.3372 69.1989 76.0934 69.1989C75.7596 69.1989 75.4814 69.2758 75.2589 69.4297C75.0387 69.5812 74.9286 69.7741 74.9286 70.0085C74.9286 70.2169 75.0044 70.3814 75.1559 70.5021C75.3074 70.6229 75.5442 70.7235 75.8661 70.804L76.6758 71.0028C77.1635 71.1212 77.5269 71.3023 77.766 71.5462C78.0051 71.7876 78.1246 72.099 78.1246 72.4801C78.1246 72.7926 78.0347 73.072 77.8548 73.3182C77.6772 73.5644 77.4286 73.7585 77.109 73.9006C76.7894 74.0426 76.4177 74.1136 75.994 74.1136C75.4376 74.1136 74.9772 73.9929 74.6126 73.7514C74.248 73.5099 74.0172 73.1572 73.9201 72.6932L74.7156 72.4943C74.7913 72.7879 74.9345 73.008 75.1452 73.1548C75.3583 73.3016 75.6365 73.375 75.9798 73.375C76.3704 73.375 76.6805 73.2921 76.9102 73.1264C77.1422 72.9583 77.2582 72.7571 77.2582 72.5227C77.2582 72.3333 77.1919 72.1747 77.0593 72.0469C76.9267 71.9167 76.7231 71.8196 76.4485 71.7557L75.5394 71.5426C75.0399 71.4242 74.6729 71.2408 74.4386 70.9922C74.2066 70.7412 74.0906 70.4276 74.0906 70.0511C74.0906 69.7434 74.177 69.4711 74.3498 69.2344C74.525 68.9976 74.7629 68.8118 75.0636 68.6768C75.3666 68.5419 75.7099 68.4744 76.0934 68.4744C76.6332 68.4744 77.0569 68.5928 77.3647 68.8295C77.6748 69.0663 77.895 69.3788 78.0252 69.767ZM81.6021 74.1136C81.0907 74.1136 80.6504 73.9929 80.2811 73.7514C79.9118 73.5099 79.6277 73.1773 79.4288 72.7536C79.2299 72.3298 79.1305 71.8456 79.1305 71.3011C79.1305 70.7472 79.2323 70.2583 79.4359 69.8345C79.6419 69.4084 79.9283 69.0758 80.2953 68.8366C80.6646 68.5952 81.0955 68.4744 81.5879 68.4744C81.9714 68.4744 82.3171 68.5455 82.6248 68.6875C82.9326 68.8295 83.1847 69.0284 83.3812 69.2841C83.5777 69.5398 83.6996 69.8381 83.747 70.179H82.9089C82.845 69.9304 82.7029 69.7102 82.4828 69.5185C82.265 69.3243 81.9714 69.2273 81.6021 69.2273C81.2754 69.2273 80.9889 69.3125 80.7427 69.483C80.4989 69.651 80.3083 69.889 80.171 70.1967C80.036 70.5021 79.9686 70.8608 79.9686 71.2727C79.9686 71.6941 80.0349 72.0611 80.1674 72.3736C80.3024 72.6861 80.4918 72.9287 80.7356 73.1016C80.9818 73.2744 81.2707 73.3608 81.6021 73.3608C81.8199 73.3608 82.0176 73.3229 82.1951 73.2472C82.3727 73.1714 82.523 73.0625 82.6461 72.9205C82.7692 72.7784 82.8568 72.608 82.9089 72.4091H83.747C83.6996 72.7311 83.5824 73.0211 83.3954 73.2791C83.2108 73.5348 82.9657 73.7384 82.6603 73.8899C82.3573 74.0391 82.0046 74.1136 81.6021 74.1136ZM87.188 74.1136C86.6956 74.1136 86.2636 73.9964 85.8919 73.7621C85.5225 73.5277 85.2337 73.1998 85.0254 72.7784C84.8194 72.357 84.7164 71.8646 84.7164 71.3011C84.7164 70.733 84.8194 70.237 85.0254 69.8132C85.2337 69.3894 85.5225 69.0604 85.8919 68.826C86.2636 68.5916 86.6956 68.4744 87.188 68.4744C87.6805 68.4744 88.1113 68.5916 88.4806 68.826C88.8523 69.0604 89.1412 69.3894 89.3471 69.8132C89.5555 70.237 89.6596 70.733 89.6596 71.3011C89.6596 71.8646 89.5555 72.357 89.3471 72.7784C89.1412 73.1998 88.8523 73.5277 88.4806 73.7621C88.1113 73.9964 87.6805 74.1136 87.188 74.1136ZM87.188 73.3608C87.5621 73.3608 87.8699 73.2649 88.1113 73.0732C88.3528 72.8814 88.5315 72.6293 88.6475 72.3168C88.7636 72.0043 88.8216 71.6657 88.8216 71.3011C88.8216 70.9366 88.7636 70.5968 88.6475 70.282C88.5315 69.9671 88.3528 69.7126 88.1113 69.5185C87.8699 69.3243 87.5621 69.2273 87.188 69.2273C86.814 69.2273 86.5062 69.3243 86.2647 69.5185C86.0233 69.7126 85.8445 69.9671 85.7285 70.282C85.6125 70.5968 85.5545 70.9366 85.5545 71.3011C85.5545 71.6657 85.6125 72.0043 85.7285 72.3168C85.8445 72.6293 86.0233 72.8814 86.2647 73.0732C86.5062 73.2649 86.814 73.3608 87.188 73.3608ZM94.3764 71.7699V68.5455H95.2145V74H94.3764V73.0767H94.3196C94.1918 73.3537 93.9929 73.5893 93.723 73.7834C93.4531 73.9751 93.1122 74.071 92.7003 74.071C92.3594 74.071 92.0563 73.9964 91.7912 73.8473C91.526 73.6958 91.3177 73.4685 91.1662 73.1655C91.0147 72.8601 90.9389 72.4754 90.9389 72.0114V68.5455H91.777V71.9545C91.777 72.3523 91.8883 72.6695 92.1108 72.9062C92.3357 73.143 92.6222 73.2614 92.9702 73.2614C93.1785 73.2614 93.3904 73.2081 93.6058 73.1016C93.8236 72.995 94.0059 72.8317 94.1527 72.6115C94.3018 72.3913 94.3764 72.1108 94.3764 71.7699ZM97.5875 70.7188V74H96.7495V68.5455H97.5591V69.3977H97.6301C97.758 69.1207 97.9521 68.8982 98.2125 68.7301C98.473 68.5597 98.8091 68.4744 99.2211 68.4744C99.5904 68.4744 99.9135 68.5502 100.191 68.7017C100.468 68.8509 100.683 69.0781 100.837 69.3835C100.991 69.6866 101.068 70.0701 101.068 70.5341V74H100.23V70.5909C100.23 70.1624 100.118 69.8286 99.8958 69.5895C99.6732 69.348 99.3678 69.2273 98.9796 69.2273C98.7121 69.2273 98.473 69.2853 98.2623 69.4013C98.0539 69.5173 97.8894 69.6866 97.7686 69.9091C97.6479 70.1316 97.5875 70.4015 97.5875 70.7188ZM104.971 68.5455V69.2557H102.145V68.5455H104.971ZM102.968 67.2386H103.806V72.4375C103.806 72.6742 103.841 72.8518 103.909 72.9702C103.98 73.0862 104.07 73.1643 104.179 73.2045C104.291 73.2424 104.408 73.2614 104.531 73.2614C104.623 73.2614 104.699 73.2566 104.758 73.2472C104.817 73.2353 104.865 73.2259 104.9 73.2188L105.071 73.9716C105.014 73.9929 104.935 74.0142 104.833 74.0355C104.731 74.0592 104.602 74.071 104.446 74.071C104.209 74.071 103.977 74.0201 103.75 73.9183C103.525 73.8165 103.338 73.6615 103.189 73.4531C103.042 73.2448 102.968 72.982 102.968 72.6648V67.2386ZM111.26 74.1136C110.768 74.1136 110.336 73.9964 109.964 73.7621C109.595 73.5277 109.306 73.1998 109.098 72.7784C108.892 72.357 108.789 71.8646 108.789 71.3011C108.789 70.733 108.892 70.237 109.098 69.8132C109.306 69.3894 109.595 69.0604 109.964 68.826C110.336 68.5916 110.768 68.4744 111.26 68.4744C111.753 68.4744 112.184 68.5916 112.553 68.826C112.925 69.0604 113.213 69.3894 113.419 69.8132C113.628 70.237 113.732 70.733 113.732 71.3011C113.732 71.8646 113.628 72.357 113.419 72.7784C113.213 73.1998 112.925 73.5277 112.553 73.7621C112.184 73.9964 111.753 74.1136 111.26 74.1136ZM111.26 73.3608C111.634 73.3608 111.942 73.2649 112.184 73.0732C112.425 72.8814 112.604 72.6293 112.72 72.3168C112.836 72.0043 112.894 71.6657 112.894 71.3011C112.894 70.9366 112.836 70.5968 112.72 70.282C112.604 69.9671 112.425 69.7126 112.184 69.5185C111.942 69.3243 111.634 69.2273 111.26 69.2273C110.886 69.2273 110.578 69.3243 110.337 69.5185C110.096 69.7126 109.917 69.9671 109.801 70.282C109.685 70.5968 109.627 70.9366 109.627 71.3011C109.627 71.6657 109.685 72.0043 109.801 72.3168C109.917 72.6293 110.096 72.8814 110.337 73.0732C110.578 73.2649 110.886 73.3608 111.26 73.3608ZM115.849 70.7188V74H115.011V68.5455H115.821V69.3977H115.892C116.02 69.1207 116.214 68.8982 116.474 68.7301C116.735 68.5597 117.071 68.4744 117.483 68.4744C117.852 68.4744 118.175 68.5502 118.452 68.7017C118.729 68.8509 118.945 69.0781 119.099 69.3835C119.252 69.6866 119.329 70.0701 119.329 70.5341V74H118.491V70.5909C118.491 70.1624 118.38 69.8286 118.157 69.5895C117.935 69.348 117.63 69.2273 117.241 69.2273C116.974 69.2273 116.735 69.2853 116.524 69.4013C116.316 69.5173 116.151 69.6866 116.03 69.9091C115.91 70.1316 115.849 70.4015 115.849 70.7188ZM17.1392 82.5455V83.2557H14.3125V82.5455H17.1392ZM15.1364 81.2386H15.9744V86.4375C15.9744 86.6742 16.0088 86.8518 16.0774 86.9702C16.1484 87.0862 16.2384 87.1643 16.3473 87.2045C16.4586 87.2424 16.5758 87.2614 16.6989 87.2614C16.7912 87.2614 16.867 87.2566 16.9261 87.2472C16.9853 87.2353 17.0327 87.2259 17.0682 87.2188L17.2386 87.9716C17.1818 87.9929 17.1025 88.0142 17.0007 88.0355C16.8989 88.0592 16.7699 88.071 16.6136 88.071C16.3769 88.071 16.1449 88.0201 15.9176 87.9183C15.6927 87.8165 15.5057 87.6615 15.3565 87.4531C15.2098 87.2448 15.1364 86.982 15.1364 86.6648V81.2386ZM19.3551 84.7188V88H18.517V80.7273H19.3551V83.3977H19.4261C19.554 83.116 19.7457 82.8923 20.0014 82.7266C20.2595 82.5585 20.6027 82.4744 21.0312 82.4744C21.4029 82.4744 21.7285 82.549 22.0078 82.6982C22.2872 82.8449 22.5038 83.071 22.6577 83.3764C22.8139 83.6795 22.892 84.0653 22.892 84.5341V88H22.054V84.5909C22.054 84.1577 21.9415 83.8227 21.7166 83.5859C21.4941 83.3468 21.1851 83.2273 20.7898 83.2273C20.5152 83.2273 20.2689 83.2853 20.0511 83.4013C19.8357 83.5173 19.6652 83.6866 19.5398 83.9091C19.4167 84.1316 19.3551 84.4015 19.3551 84.7188ZM26.7122 88.1136C26.1866 88.1136 25.7333 87.9976 25.3521 87.7656C24.9733 87.5312 24.6809 87.2045 24.475 86.7855C24.2714 86.3641 24.1696 85.8741 24.1696 85.3153C24.1696 84.7566 24.2714 84.2642 24.475 83.8381C24.6809 83.4096 24.9674 83.0758 25.3343 82.8366C25.7037 82.5952 26.1345 82.4744 26.627 82.4744C26.911 82.4744 27.1916 82.5218 27.4686 82.6165C27.7456 82.7112 27.9977 82.8651 28.225 83.0781C28.4522 83.2888 28.6333 83.5682 28.7683 83.9162C28.9032 84.2642 28.9707 84.6927 28.9707 85.2017V85.5568H24.7662V84.8324H28.1184C28.1184 84.5246 28.0569 84.25 27.9338 84.0085C27.813 83.767 27.6402 83.5765 27.4153 83.4368C27.1928 83.2971 26.93 83.2273 26.627 83.2273C26.2931 83.2273 26.0043 83.3101 25.7605 83.4759C25.519 83.6392 25.3332 83.8523 25.2029 84.1151C25.0727 84.3778 25.0076 84.6596 25.0076 84.9602V85.4432C25.0076 85.8551 25.0787 86.2043 25.2207 86.4908C25.3651 86.7749 25.5652 86.9915 25.8208 87.1406C26.0765 87.2874 26.3736 87.3608 26.7122 87.3608C26.9324 87.3608 27.1312 87.33 27.3088 87.2685C27.4887 87.2045 27.6438 87.1098 27.774 86.9844C27.9042 86.8565 28.0048 86.6979 28.0758 86.5085L28.8855 86.7358C28.8002 87.0104 28.657 87.2519 28.4558 87.4602C28.2546 87.6662 28.006 87.8272 27.71 87.9432C27.4141 88.0568 27.0815 88.1136 26.7122 88.1136ZM34.4927 88L32.5041 80.7273H33.399L34.9189 86.6506H34.9899L36.5382 80.7273H37.5325L39.0808 86.6506H39.1518L40.6717 80.7273H41.5666L39.5779 88H38.6689L37.0637 82.2045H37.0069L35.4018 88H34.4927ZM44.3294 88.1136C43.8038 88.1136 43.3504 87.9976 42.9693 87.7656C42.5905 87.5312 42.2981 87.2045 42.0922 86.7855C41.8886 86.3641 41.7868 85.8741 41.7868 85.3153C41.7868 84.7566 41.8886 84.2642 42.0922 83.8381C42.2981 83.4096 42.5846 83.0758 42.9515 82.8366C43.3208 82.5952 43.7517 82.4744 44.2441 82.4744C44.5282 82.4744 44.8088 82.5218 45.0858 82.6165C45.3627 82.7112 45.6149 82.8651 45.8422 83.0781C46.0694 83.2888 46.2505 83.5682 46.3855 83.9162C46.5204 84.2642 46.5879 84.6927 46.5879 85.2017V85.5568H42.3833V84.8324H45.7356C45.7356 84.5246 45.6741 84.25 45.551 84.0085C45.4302 83.767 45.2574 83.5765 45.0325 83.4368C44.81 83.2971 44.5472 83.2273 44.2441 83.2273C43.9103 83.2273 43.6215 83.3101 43.3777 83.4759C43.1362 83.6392 42.9503 83.8523 42.8201 84.1151C42.6899 84.3778 42.6248 84.6596 42.6248 84.9602V85.4432C42.6248 85.8551 42.6958 86.2043 42.8379 86.4908C42.9823 86.7749 43.1824 86.9915 43.438 87.1406C43.6937 87.2874 43.9908 87.3608 44.3294 87.3608C44.5495 87.3608 44.7484 87.33 44.926 87.2685C45.1059 87.2045 45.2609 87.1098 45.3912 86.9844C45.5214 86.8565 45.622 86.6979 45.693 86.5085L46.5027 86.7358C46.4174 87.0104 46.2742 87.2519 46.073 87.4602C45.8717 87.6662 45.6232 87.8272 45.3272 87.9432C45.0313 88.0568 44.6987 88.1136 44.3294 88.1136ZM47.9764 88V80.7273H48.8145V83.4119H48.8855C48.947 83.3172 49.0323 83.1965 49.1412 83.0497C49.2524 82.9006 49.411 82.768 49.617 82.652C49.8253 82.5336 50.1071 82.4744 50.4622 82.4744C50.9215 82.4744 51.3263 82.5893 51.6767 82.8189C52.027 83.0485 52.3005 83.3741 52.497 83.7955C52.6935 84.2169 52.7917 84.714 52.7917 85.2869C52.7917 85.8646 52.6935 86.3653 52.497 86.7891C52.3005 87.2105 52.0282 87.5372 51.6802 87.7692C51.3322 87.9988 50.9309 88.1136 50.4764 88.1136C50.126 88.1136 49.8455 88.0556 49.6348 87.9396C49.4241 87.8213 49.2619 87.6875 49.1483 87.5384C49.0346 87.3868 48.947 87.2614 48.8855 87.1619H48.786V88H47.9764ZM48.8002 85.2727C48.8002 85.6847 48.8606 86.0481 48.9814 86.3629C49.1021 86.6754 49.2785 86.9205 49.5105 87.098C49.7425 87.2732 50.0266 87.3608 50.3627 87.3608C50.7131 87.3608 51.0055 87.2685 51.2399 87.0838C51.4766 86.8968 51.6542 86.6458 51.7725 86.331C51.8933 86.0137 51.9537 85.661 51.9537 85.2727C51.9537 84.8892 51.8945 84.5436 51.7761 84.2358C51.6601 83.9257 51.4837 83.6806 51.247 83.5007C51.0126 83.3184 50.7179 83.2273 50.3627 83.2273C50.0218 83.2273 49.7354 83.3137 49.5034 83.4865C49.2714 83.657 49.0962 83.8961 48.9778 84.2038C48.8594 84.5092 48.8002 84.8655 48.8002 85.2727ZM56.5027 82.5455V83.2557H53.5623V82.5455H56.5027ZM54.443 88V81.7926C54.443 81.4801 54.5164 81.2197 54.6632 81.0114C54.81 80.803 55.0005 80.6468 55.2349 80.5426C55.4693 80.4384 55.7167 80.3864 55.9771 80.3864C56.1831 80.3864 56.3511 80.4029 56.4814 80.4361C56.6116 80.4692 56.7086 80.5 56.7725 80.5284L56.5311 81.2528C56.4885 81.2386 56.4293 81.2209 56.3535 81.1996C56.2801 81.1783 56.1831 81.1676 56.0623 81.1676C55.7853 81.1676 55.5853 81.2375 55.4622 81.3771C55.3414 81.5168 55.2811 81.7216 55.2811 81.9915V88H54.443ZM58.5153 80.7273V88H57.6772V80.7273H58.5153ZM62.2662 88.1136C61.7737 88.1136 61.3417 87.9964 60.97 87.7621C60.6007 87.5277 60.3118 87.1998 60.1035 86.7784C59.8975 86.357 59.7946 85.8646 59.7946 85.3011C59.7946 84.733 59.8975 84.237 60.1035 83.8132C60.3118 83.3894 60.6007 83.0604 60.97 82.826C61.3417 82.5916 61.7737 82.4744 62.2662 82.4744C62.7586 82.4744 63.1895 82.5916 63.5588 82.826C63.9305 83.0604 64.2193 83.3894 64.4252 83.8132C64.6336 84.237 64.7377 84.733 64.7377 85.3011C64.7377 85.8646 64.6336 86.357 64.4252 86.7784C64.2193 87.1998 63.9305 87.5277 63.5588 87.7621C63.1895 87.9964 62.7586 88.1136 62.2662 88.1136ZM62.2662 87.3608C62.6402 87.3608 62.948 87.2649 63.1895 87.0732C63.4309 86.8814 63.6097 86.6293 63.7257 86.3168C63.8417 86.0043 63.8997 85.6657 63.8997 85.3011C63.8997 84.9366 63.8417 84.5968 63.7257 84.282C63.6097 83.9671 63.4309 83.7126 63.1895 83.5185C62.948 83.3243 62.6402 83.2273 62.2662 83.2273C61.8921 83.2273 61.5843 83.3243 61.3429 83.5185C61.1014 83.7126 60.9226 83.9671 60.8066 84.282C60.6906 84.5968 60.6326 84.9366 60.6326 85.3011C60.6326 85.6657 60.6906 86.0043 60.8066 86.3168C60.9226 86.6293 61.1014 86.8814 61.3429 87.0732C61.5843 87.2649 61.8921 87.3608 62.2662 87.3608ZM67.0673 88L65.4054 82.5455H66.286L67.465 86.7216H67.5218L68.6866 82.5455H69.5815L70.7321 86.7074H70.7889L71.9679 82.5455H72.8485L71.1866 88H70.3627L69.1696 83.8097H69.0843L67.8912 88H67.0673ZM78.3741 88.1278C78.0285 88.1278 77.7148 88.0627 77.4331 87.9325C77.1513 87.8 76.9276 87.6094 76.7619 87.3608C76.5962 87.1098 76.5133 86.8068 76.5133 86.4517C76.5133 86.1392 76.5749 85.8859 76.698 85.6918C76.8211 85.4953 76.9856 85.3414 77.1916 85.2301C77.3975 85.1188 77.6248 85.036 77.8734 84.9815C78.1243 84.9247 78.3765 84.8797 78.6298 84.8466C78.9612 84.804 79.2299 84.772 79.4359 84.7507C79.6442 84.727 79.7958 84.688 79.8904 84.6335C79.9875 84.5791 80.036 84.4844 80.036 84.3494V84.321C80.036 83.9706 79.9402 83.6984 79.7484 83.5043C79.559 83.3101 79.2714 83.2131 78.8855 83.2131C78.4854 83.2131 78.1717 83.3007 77.9444 83.4759C77.7172 83.651 77.5574 83.8381 77.465 84.0369L76.6696 83.7528C76.8116 83.4214 77.001 83.1634 77.2377 82.9787C77.4769 82.7917 77.7373 82.6615 78.019 82.5881C78.3031 82.5123 78.5824 82.4744 78.8571 82.4744C79.0323 82.4744 79.2335 82.4957 79.4608 82.5384C79.6904 82.5786 79.9118 82.6626 80.1248 82.7905C80.3403 82.9183 80.519 83.1113 80.661 83.3693C80.8031 83.6274 80.8741 83.973 80.8741 84.4062V88H80.036V87.2614H79.9934C79.9366 87.3797 79.8419 87.5064 79.7093 87.6413C79.5768 87.7763 79.4004 87.8911 79.1802 87.9858C78.96 88.0805 78.6913 88.1278 78.3741 88.1278ZM78.502 87.375C78.8334 87.375 79.1127 87.3099 79.34 87.1797C79.5697 87.0495 79.7425 86.8814 79.8585 86.6754C79.9769 86.4695 80.036 86.2528 80.036 86.0256V85.2585C80.0005 85.3011 79.9224 85.3402 79.8017 85.3757C79.6833 85.4089 79.546 85.4384 79.3897 85.4645C79.2359 85.4882 79.0855 85.5095 78.9387 85.5284C78.7943 85.545 78.6771 85.5592 78.5872 85.571C78.3694 85.5994 78.1658 85.6456 77.9764 85.7095C77.7894 85.7711 77.6378 85.8646 77.5218 85.9901C77.4082 86.1132 77.3514 86.2812 77.3514 86.4943C77.3514 86.7855 77.4591 87.0057 77.6745 87.1548C77.8923 87.3016 78.1681 87.375 78.502 87.375ZM82.4038 90.0455V82.5455H83.2134V83.4119H83.3129C83.3744 83.3172 83.4596 83.1965 83.5685 83.0497C83.6798 82.9006 83.8384 82.768 84.0444 82.652C84.2527 82.5336 84.5344 82.4744 84.8896 82.4744C85.3488 82.4744 85.7537 82.5893 86.104 82.8189C86.4544 83.0485 86.7279 83.3741 86.9244 83.7955C87.1209 84.2169 87.2191 84.714 87.2191 85.2869C87.2191 85.8646 87.1209 86.3653 86.9244 86.7891C86.7279 87.2105 86.4556 87.5372 86.1076 87.7692C85.7596 87.9988 85.3583 88.1136 84.9038 88.1136C84.5534 88.1136 84.2728 88.0556 84.0621 87.9396C83.8514 87.8213 83.6893 87.6875 83.5756 87.5384C83.462 87.3868 83.3744 87.2614 83.3129 87.1619H83.2418V90.0455H82.4038ZM83.2276 85.2727C83.2276 85.6847 83.288 86.0481 83.4087 86.3629C83.5295 86.6754 83.7058 86.9205 83.9379 87.098C84.1699 87.2732 84.454 87.3608 84.7901 87.3608C85.1405 87.3608 85.4329 87.2685 85.6673 87.0838C85.904 86.8968 86.0816 86.6458 86.1999 86.331C86.3207 86.0137 86.381 85.661 86.381 85.2727C86.381 84.8892 86.3219 84.5436 86.2035 84.2358C86.0875 83.9257 85.9111 83.6806 85.6744 83.5007C85.44 83.3184 85.1452 83.2273 84.7901 83.2273C84.4492 83.2273 84.1628 83.3137 83.9308 83.4865C83.6987 83.657 83.5236 83.8961 83.4052 84.2038C83.2868 84.5092 83.2276 84.8655 83.2276 85.2727ZM88.4975 90.0455V82.5455H89.3072V83.4119H89.4066C89.4682 83.3172 89.5534 83.1965 89.6623 83.0497C89.7736 82.9006 89.9322 82.768 90.1381 82.652C90.3465 82.5336 90.6282 82.4744 90.9833 82.4744C91.4426 82.4744 91.8474 82.5893 92.1978 82.8189C92.5482 83.0485 92.8216 83.3741 93.0181 83.7955C93.2146 84.2169 93.3129 84.714 93.3129 85.2869C93.3129 85.8646 93.2146 86.3653 93.0181 86.7891C92.8216 87.2105 92.5494 87.5372 92.2013 87.7692C91.8533 87.9988 91.4521 88.1136 90.9975 88.1136C90.6471 88.1136 90.3666 88.0556 90.1559 87.9396C89.9452 87.8213 89.783 87.6875 89.6694 87.5384C89.5558 87.3868 89.4682 87.2614 89.4066 87.1619H89.3356V90.0455H88.4975ZM89.3214 85.2727C89.3214 85.6847 89.3817 86.0481 89.5025 86.3629C89.6232 86.6754 89.7996 86.9205 90.0316 87.098C90.2636 87.2732 90.5477 87.3608 90.8839 87.3608C91.2343 87.3608 91.5266 87.2685 91.761 87.0838C91.9978 86.8968 92.1753 86.6458 92.2937 86.331C92.4144 86.0137 92.4748 85.661 92.4748 85.2727C92.4748 84.8892 92.4156 84.5436 92.2972 84.2358C92.1812 83.9257 92.0049 83.6806 91.7681 83.5007C91.5337 83.3184 91.239 83.2273 90.8839 83.2273C90.543 83.2273 90.2565 83.3137 90.0245 83.4865C89.7925 83.657 89.6173 83.8961 89.4989 84.2038C89.3806 84.5092 89.3214 84.8655 89.3214 85.2727Z" fill="#777777"/>
<path d="M15.5114 104.773L15.5511 103.679L14.6264 104.266L14.3878 103.848L15.3622 103.341L14.3878 102.834L14.6264 102.416L15.5511 103.003L15.5114 101.909H15.9886L15.9489 103.003L16.8736 102.416L17.1122 102.834L16.1378 103.341L17.1122 103.848L16.8736 104.266L15.9489 103.679L15.9886 104.773H15.5114ZM17.8381 102.456V101.909H21.6562V102.456H20.0554V107H19.4389V102.456H17.8381ZM23.7306 107.07C23.3959 107.07 23.1075 107.008 22.8656 106.886C22.6236 106.763 22.4372 106.595 22.3063 106.381C22.1754 106.167 22.1099 105.923 22.1099 105.648C22.1099 105.436 22.1547 105.248 22.2441 105.083C22.3353 104.918 22.4604 104.764 22.6195 104.624C22.7802 104.481 22.965 104.339 23.1738 104.196L23.9096 103.649C24.0538 103.555 24.169 103.454 24.2551 103.346C24.343 103.238 24.3869 103.097 24.3869 102.923C24.3869 102.794 24.3297 102.669 24.2154 102.548C24.1027 102.427 23.9544 102.366 23.7704 102.366C23.6412 102.366 23.5268 102.4 23.4274 102.466C23.3296 102.531 23.2525 102.613 23.1962 102.714C23.1415 102.814 23.1142 102.917 23.1142 103.023C23.1142 103.142 23.1465 103.263 23.2111 103.386C23.2774 103.507 23.3611 103.631 23.4622 103.759C23.5649 103.884 23.671 104.014 23.7804 104.146L26.117 107H25.411L23.4821 104.673C23.3031 104.458 23.1407 104.262 22.9949 104.087C22.849 103.911 22.733 103.738 22.6468 103.567C22.5607 103.396 22.5176 103.212 22.5176 103.013C22.5176 102.784 22.5681 102.584 22.6692 102.411C22.772 102.237 22.9153 102.102 23.0993 102.006C23.2849 101.908 23.502 101.859 23.7505 101.859C24.0057 101.859 24.2253 101.909 24.4093 102.009C24.5932 102.106 24.7349 102.236 24.8343 102.399C24.9338 102.56 24.9835 102.734 24.9835 102.923C24.9835 103.167 24.923 103.378 24.802 103.557C24.681 103.736 24.5162 103.903 24.3074 104.057L23.2931 104.812C23.0645 104.982 22.9095 105.146 22.8283 105.305C22.7471 105.464 22.7065 105.578 22.7065 105.648C22.7065 105.807 22.7479 105.955 22.8308 106.093C22.9136 106.23 23.0305 106.341 23.1813 106.426C23.3321 106.51 23.5086 106.553 23.7108 106.553C23.903 106.553 24.0903 106.512 24.2725 106.431C24.4548 106.348 24.6197 106.229 24.7672 106.073C24.9164 105.917 25.034 105.73 25.1202 105.511C25.208 105.292 25.252 105.046 25.252 104.773H25.8187C25.8187 105.111 25.7798 105.387 25.7019 105.6C25.624 105.814 25.5362 105.982 25.4384 106.103C25.3406 106.224 25.2619 106.314 25.2022 106.374C25.1824 106.398 25.1641 106.423 25.1475 106.448C25.131 106.473 25.1127 106.498 25.0929 106.523C24.9288 106.707 24.7217 106.844 24.4714 106.935C24.2212 107.025 23.9743 107.07 23.7306 107.07ZM30.9426 103.5H30.3261C30.2896 103.323 30.2258 103.167 30.1347 103.033C30.0452 102.898 29.9358 102.786 29.8066 102.695C29.6789 102.602 29.5373 102.532 29.3815 102.486C29.2257 102.439 29.0633 102.416 28.8943 102.416C28.586 102.416 28.3068 102.494 28.0566 102.65C27.808 102.806 27.6099 103.035 27.4624 103.338C27.3166 103.642 27.2437 104.014 27.2437 104.455C27.2437 104.895 27.3166 105.267 27.4624 105.571C27.6099 105.874 27.808 106.103 28.0566 106.259C28.3068 106.415 28.586 106.493 28.8943 106.493C29.0633 106.493 29.2257 106.47 29.3815 106.423C29.5373 106.377 29.6789 106.308 29.8066 106.217C29.9358 106.124 30.0452 106.011 30.1347 105.876C30.2258 105.741 30.2896 105.585 30.3261 105.409H30.9426C30.8962 105.669 30.8116 105.902 30.689 106.108C30.5664 106.313 30.4139 106.488 30.2316 106.632C30.0493 106.775 29.8447 106.883 29.6176 106.958C29.3923 107.032 29.1511 107.07 28.8943 107.07C28.4601 107.07 28.074 106.964 27.7359 106.751C27.3978 106.539 27.1318 106.238 26.9379 105.847C26.7441 105.455 26.6471 104.991 26.6471 104.455C26.6471 103.918 26.7441 103.454 26.9379 103.062C27.1318 102.671 27.3978 102.37 27.7359 102.158C28.074 101.946 28.4601 101.839 28.8943 101.839C29.1511 101.839 29.3923 101.877 29.6176 101.951C29.8447 102.026 30.0493 102.135 30.2316 102.279C30.4139 102.422 30.5664 102.596 30.689 102.801C30.8116 103.005 30.8962 103.238 30.9426 103.5ZM34.9515 107.089C34.7096 107.089 34.49 107.044 34.2928 106.953C34.0956 106.86 33.939 106.727 33.823 106.553C33.707 106.377 33.649 106.165 33.649 105.916C33.649 105.697 33.6921 105.52 33.7782 105.384C33.8644 105.247 33.9796 105.139 34.1238 105.061C34.2679 104.983 34.427 104.925 34.601 104.887C34.7767 104.847 34.9532 104.816 35.1305 104.793C35.3625 104.763 35.5506 104.74 35.6948 104.725C35.8406 104.709 35.9467 104.682 36.013 104.643C36.0809 104.605 36.1149 104.539 36.1149 104.445V104.425C36.1149 104.179 36.0478 103.989 35.9135 103.853C35.781 103.717 35.5796 103.649 35.3095 103.649C35.0294 103.649 34.8098 103.71 34.6507 103.833C34.4917 103.956 34.3798 104.087 34.3152 104.226L33.7583 104.027C33.8578 103.795 33.9904 103.614 34.1561 103.485C34.3234 103.354 34.5057 103.263 34.7029 103.212C34.9018 103.159 35.0974 103.132 35.2896 103.132C35.4122 103.132 35.5531 103.147 35.7122 103.177C35.8729 103.205 36.0279 103.264 36.177 103.353C36.3278 103.443 36.4529 103.578 36.5524 103.759C36.6518 103.939 36.7015 104.181 36.7015 104.484V107H36.1149V106.483H36.085C36.0453 106.566 35.979 106.654 35.8862 106.749C35.7934 106.843 35.6699 106.924 35.5158 106.99C35.3617 107.056 35.1736 107.089 34.9515 107.089ZM35.041 106.562C35.273 106.562 35.4686 106.517 35.6277 106.426C35.7884 106.335 35.9094 106.217 35.9906 106.073C36.0734 105.929 36.1149 105.777 36.1149 105.618V105.081C36.09 105.111 36.0353 105.138 35.9508 105.163C35.868 105.186 35.7718 105.207 35.6625 105.225C35.5547 105.242 35.4495 105.257 35.3468 105.27C35.2457 105.281 35.1636 105.291 35.1007 105.3C34.9482 105.32 34.8057 105.352 34.6731 105.397C34.5422 105.44 34.4361 105.505 34.3549 105.593C34.2754 105.679 34.2356 105.797 34.2356 105.946C34.2356 106.15 34.311 106.304 34.4618 106.408C34.6143 106.511 34.8074 106.562 35.041 106.562ZM37.7723 108.432V103.182H38.339V103.788H38.4086C38.4517 103.722 38.5114 103.638 38.5876 103.535C38.6655 103.43 38.7765 103.338 38.9207 103.256C39.0666 103.174 39.2638 103.132 39.5123 103.132C39.8338 103.132 40.1172 103.212 40.3625 103.373C40.6077 103.534 40.7992 103.762 40.9367 104.057C41.0742 104.352 41.143 104.7 41.143 105.101C41.143 105.505 41.0742 105.856 40.9367 106.152C40.7992 106.447 40.6086 106.676 40.365 106.838C40.1214 106.999 39.8405 107.08 39.5223 107.08C39.277 107.08 39.0806 107.039 38.9331 106.958C38.7857 106.875 38.6721 106.781 38.5926 106.677C38.5131 106.571 38.4517 106.483 38.4086 106.413H38.3589V108.432H37.7723ZM38.349 105.091C38.349 105.379 38.3912 105.634 38.4758 105.854C38.5603 106.073 38.6837 106.244 38.8461 106.369C39.0086 106.491 39.2074 106.553 39.4427 106.553C39.688 106.553 39.8927 106.488 40.0567 106.359C40.2224 106.228 40.3467 106.052 40.4296 105.832C40.5141 105.61 40.5564 105.363 40.5564 105.091C40.5564 104.822 40.5149 104.58 40.4321 104.365C40.3509 104.148 40.2274 103.976 40.0617 103.85C39.8976 103.723 39.6913 103.659 39.4427 103.659C39.2041 103.659 39.0036 103.72 38.8412 103.841C38.6788 103.96 38.5561 104.127 38.4733 104.343C38.3904 104.556 38.349 104.806 38.349 105.091ZM42.0379 108.432V103.182H42.6047V103.788H42.6743C42.7174 103.722 42.777 103.638 42.8532 103.535C42.9311 103.43 43.0422 103.338 43.1863 103.256C43.3322 103.174 43.5294 103.132 43.778 103.132C44.0995 103.132 44.3828 103.212 44.6281 103.373C44.8734 103.534 45.0648 103.762 45.2023 104.057C45.3399 104.352 45.4086 104.7 45.4086 105.101C45.4086 105.505 45.3399 105.856 45.2023 106.152C45.0648 106.447 44.8742 106.676 44.6306 106.838C44.387 106.999 44.1061 107.08 43.7879 107.08C43.5426 107.08 43.3463 107.039 43.1988 106.958C43.0513 106.875 42.9378 106.781 42.8582 106.677C42.7787 106.571 42.7174 106.483 42.6743 106.413H42.6246V108.432H42.0379ZM42.6146 105.091C42.6146 105.379 42.6569 105.634 42.7414 105.854C42.8259 106.073 42.9494 106.244 43.1118 106.369C43.2742 106.491 43.473 106.553 43.7084 106.553C43.9536 106.553 44.1583 106.488 44.3224 106.359C44.4881 106.228 44.6124 106.052 44.6952 105.832C44.7797 105.61 44.822 105.363 44.822 105.091C44.822 104.822 44.7806 104.58 44.6977 104.365C44.6165 104.148 44.493 103.976 44.3273 103.85C44.1633 103.723 43.9569 103.659 43.7084 103.659C43.4697 103.659 43.2692 103.72 43.1068 103.841C42.9444 103.96 42.8218 104.127 42.7389 104.343C42.656 104.556 42.6146 104.806 42.6146 105.091ZM46.8902 101.909V107H46.3035V101.909H46.8902ZM48.3425 108.432C48.2431 108.432 48.1544 108.424 48.0765 108.407C47.9986 108.392 47.9448 108.377 47.915 108.362L48.0641 107.845C48.2066 107.882 48.3326 107.895 48.4419 107.885C48.5513 107.875 48.6483 107.826 48.7328 107.738C48.819 107.652 48.8977 107.512 48.9689 107.318L49.0783 107.02L47.6664 103.182H48.3027L49.3567 106.224H49.3965L50.4505 103.182H51.0868L49.4661 107.557C49.3932 107.754 49.3029 107.917 49.1951 108.047C49.0874 108.177 48.9623 108.274 48.8198 108.337C48.6789 108.4 48.5198 108.432 48.3425 108.432Z" fill="#C8C8C8"/>
<g clip-path="url(#clip0_217_991)">
<path fill-rule="evenodd" clip-rule="evenodd" d="M38 18L30.3419 32.9119H23.1488L26.3537 26.7318H26.2099C23.5659 30.1506 19.6209 32.4012 14 32.9119V26.8173C14 26.8173 17.5959 26.6058 19.7097 24.392H14V18.0001H20.4171V23.2574L20.5612 23.2568L23.1834 18.0001H28.0365V23.224L28.1806 23.2238L30.9012 18H38Z" fill="#146EF5"/>
</g>
<defs>
<clipPath id="clip0_217_991">
<rect width="24" height="14.9189" fill="white" transform="translate(14 18)"/>
</clipPath>
</defs>
</svg>
