<svg width="372" height="311" viewBox="0 0 372 311" fill="none" xmlns="http://www.w3.org/2000/svg">
<rect width="372" height="311" fill="white"/>
<path d="M29.8457 28.5254V31.4062H28.3223V28.5254H29.8457ZM29.6602 44.4727V47.0996H28.1367V44.4727H29.6602ZM30.7344 41.2695C30.7344 40.8984 30.666 40.5827 30.5293 40.3223C30.3991 40.0618 30.1842 39.8307 29.8848 39.6289C29.5918 39.4271 29.1947 39.2318 28.6934 39.043C27.847 38.7174 27.1016 38.3724 26.457 38.0078C25.819 37.6367 25.321 37.1777 24.9629 36.6309C24.6048 36.0775 24.4258 35.3776 24.4258 34.5312C24.4258 33.724 24.6178 33.0241 25.002 32.4316C25.3861 31.8392 25.9167 31.3835 26.5938 31.0645C27.2773 30.7389 28.0716 30.5762 28.9766 30.5762C29.6667 30.5762 30.2917 30.6803 30.8516 30.8887C31.4115 31.0905 31.8932 31.39 32.2969 31.7871C32.7005 32.1777 33.0098 32.6562 33.2246 33.2227C33.4395 33.7891 33.5469 34.4368 33.5469 35.166H30.7441C30.7441 34.7754 30.7018 34.4303 30.6172 34.1309C30.5326 33.8314 30.4089 33.5807 30.2461 33.3789C30.0898 33.1771 29.901 33.0273 29.6797 32.9297C29.4583 32.8255 29.2142 32.7734 28.9473 32.7734C28.5501 32.7734 28.2246 32.8516 27.9707 33.0078C27.7168 33.1641 27.5312 33.3757 27.4141 33.6426C27.3034 33.903 27.248 34.2025 27.248 34.541C27.248 34.873 27.3066 35.1628 27.4238 35.4102C27.5475 35.6576 27.7591 35.8854 28.0586 36.0938C28.3581 36.2956 28.7682 36.5039 29.2891 36.7188C30.1354 37.0443 30.8776 37.3958 31.5156 37.7734C32.1536 38.151 32.6517 38.6133 33.0098 39.1602C33.3678 39.707 33.5469 40.4036 33.5469 41.25C33.5469 42.0898 33.3516 42.806 32.9609 43.3984C32.5703 43.9844 32.0234 44.4336 31.3203 44.7461C30.6172 45.0521 29.8034 45.2051 28.8789 45.2051C28.2799 45.2051 27.6842 45.127 27.0918 44.9707C26.4993 44.8079 25.9622 44.5475 25.4805 44.1895C24.9987 43.8314 24.6146 43.3561 24.3281 42.7637C24.0417 42.1647 23.8984 41.429 23.8984 40.5566H26.7109C26.7109 41.0319 26.7728 41.429 26.8965 41.748C27.0202 42.0605 27.1829 42.3112 27.3848 42.5C27.5931 42.6823 27.8275 42.8125 28.0879 42.8906C28.3483 42.9688 28.612 43.0078 28.8789 43.0078C29.2956 43.0078 29.6374 42.9329 29.9043 42.7832C30.1777 42.6335 30.3828 42.4284 30.5195 42.168C30.6628 41.901 30.7344 41.6016 30.7344 41.2695ZM45.1875 42.8027V45H35.4609V43.125L40.0605 38.1934C40.5228 37.679 40.8874 37.2266 41.1543 36.8359C41.4212 36.4388 41.6133 36.084 41.7305 35.7715C41.8542 35.4525 41.916 35.1497 41.916 34.8633C41.916 34.4336 41.8444 34.0658 41.7012 33.7598C41.5579 33.4473 41.3464 33.2064 41.0664 33.0371C40.793 32.8678 40.4544 32.7832 40.0508 32.7832C39.6211 32.7832 39.25 32.8874 38.9375 33.0957C38.6315 33.304 38.3971 33.5938 38.2344 33.9648C38.0781 34.3359 38 34.7559 38 35.2246H35.1777C35.1777 34.3783 35.3796 33.6035 35.7832 32.9004C36.1868 32.1908 36.7565 31.6276 37.4922 31.2109C38.2279 30.7878 39.1003 30.5762 40.1094 30.5762C41.1055 30.5762 41.9453 30.7389 42.6289 31.0645C43.319 31.3835 43.8398 31.8457 44.1914 32.4512C44.5495 33.0501 44.7285 33.7663 44.7285 34.5996C44.7285 35.0684 44.6536 35.5273 44.5039 35.9766C44.3542 36.4193 44.1393 36.862 43.8594 37.3047C43.5859 37.7409 43.2539 38.1836 42.8633 38.6328C42.4727 39.082 42.0397 39.5475 41.5645 40.0293L39.0938 42.8027H45.1875ZM54.2012 30.6348H54.6113V32.8809H54.4453C53.7031 32.8809 53.0423 32.9915 52.4629 33.2129C51.8835 33.4342 51.3919 33.75 50.9883 34.1602C50.5911 34.5638 50.2852 35.0521 50.0703 35.625C49.862 36.1979 49.7578 36.8392 49.7578 37.5488V39.9121C49.7578 40.4199 49.8066 40.8691 49.9043 41.2598C50.0085 41.6439 50.1549 41.9661 50.3438 42.2266C50.5391 42.4805 50.7669 42.6725 51.0273 42.8027C51.2878 42.9264 51.5807 42.9883 51.9062 42.9883C52.2122 42.9883 52.4889 42.9232 52.7363 42.793C52.9902 42.6628 53.2051 42.4805 53.3809 42.2461C53.5632 42.0052 53.6999 41.7253 53.791 41.4062C53.8887 41.0807 53.9375 40.7259 53.9375 40.3418C53.9375 39.9577 53.8887 39.6029 53.791 39.2773C53.6999 38.9518 53.5632 38.6719 53.3809 38.4375C53.1986 38.1966 52.9772 38.0111 52.7168 37.8809C52.4564 37.7507 52.1634 37.6855 51.8379 37.6855C51.3952 37.6855 51.0046 37.7897 50.666 37.998C50.334 38.1999 50.0736 38.4603 49.8848 38.7793C49.696 39.0983 49.5951 39.4336 49.582 39.7852L48.7324 39.2383C48.752 38.737 48.8561 38.2617 49.0449 37.8125C49.2402 37.3633 49.5072 36.9661 49.8457 36.6211C50.1908 36.2695 50.6042 35.9961 51.0859 35.8008C51.5677 35.599 52.1113 35.498 52.7168 35.498C53.3809 35.498 53.9635 35.625 54.4648 35.8789C54.9727 36.1328 55.3958 36.4811 55.7344 36.9238C56.0729 37.3665 56.3268 37.8776 56.4961 38.457C56.6654 39.0365 56.75 39.6549 56.75 40.3125C56.75 41.0026 56.6361 41.6439 56.4082 42.2363C56.1868 42.8288 55.8646 43.3464 55.4414 43.7891C55.0247 44.2318 54.5234 44.5768 53.9375 44.8242C53.3516 45.0716 52.694 45.1953 51.9648 45.1953C51.2096 45.1953 50.5228 45.0586 49.9043 44.7852C49.2923 44.5052 48.765 44.1146 48.3223 43.6133C47.8796 43.112 47.5378 42.5163 47.2969 41.8262C47.0625 41.1361 46.9453 40.3809 46.9453 39.5605V38.4668C46.9453 37.321 47.1113 36.2728 47.4434 35.3223C47.7819 34.3652 48.2669 33.5384 48.8984 32.8418C49.5299 32.1387 50.2917 31.5951 51.1836 31.2109C52.0755 30.8268 53.0814 30.6348 54.2012 30.6348ZM61.2129 42.627L61.2031 44.5117C61.2031 45.2344 61.0208 45.9635 60.6562 46.6992C60.2982 47.4349 59.8424 48.0371 59.2891 48.5059L57.8242 47.7539C57.987 47.4544 58.1465 47.1549 58.3027 46.8555C58.459 46.556 58.5892 46.2272 58.6934 45.8691C58.7975 45.5111 58.8496 45.1042 58.8496 44.6484V42.627H61.2129ZM73.3125 39.6875V41.8945H63.0684L62.9316 40.1855L68.8594 30.7812H71.0957L68.6738 34.834L65.7246 39.6875H73.3125ZM71.7012 30.7812V45H68.8887V30.7812H71.7012ZM76.8281 42.8613H77.0137C77.7949 42.8613 78.4655 42.7669 79.0254 42.5781C79.5918 42.3828 80.0573 42.1029 80.4219 41.7383C80.7865 41.3737 81.0566 40.9277 81.2324 40.4004C81.4082 39.8665 81.4961 39.2611 81.4961 38.584V35.8887C81.4961 35.3743 81.444 34.9219 81.3398 34.5312C81.2422 34.1406 81.099 33.8184 80.9102 33.5645C80.7279 33.304 80.513 33.1087 80.2656 32.9785C80.0247 32.8483 79.7578 32.7832 79.4648 32.7832C79.1523 32.7832 78.8757 32.8613 78.6348 33.0176C78.3939 33.1673 78.1888 33.3724 78.0195 33.6328C77.8568 33.8932 77.7298 34.1927 77.6387 34.5312C77.554 34.8633 77.5117 35.2116 77.5117 35.5762C77.5117 35.9408 77.554 36.2891 77.6387 36.6211C77.7233 36.9466 77.8503 37.2363 78.0195 37.4902C78.1888 37.7376 78.4004 37.9362 78.6543 38.0859C78.9082 38.2292 79.2077 38.3008 79.5527 38.3008C79.8848 38.3008 80.181 38.2389 80.4414 38.1152C80.7083 37.985 80.9329 37.8158 81.1152 37.6074C81.304 37.3991 81.4473 37.168 81.5449 36.9141C81.6491 36.6602 81.7012 36.403 81.7012 36.1426L82.6289 36.6504C82.6289 37.1061 82.5312 37.5553 82.3359 37.998C82.1406 38.4408 81.8672 38.8444 81.5156 39.209C81.1706 39.5671 80.7702 39.8535 80.3145 40.0684C79.8587 40.2832 79.3704 40.3906 78.8496 40.3906C78.1855 40.3906 77.5964 40.2702 77.082 40.0293C76.5677 39.7819 76.1315 39.4434 75.7734 39.0137C75.4219 38.5775 75.1549 38.0697 74.9727 37.4902C74.7904 36.9108 74.6992 36.2826 74.6992 35.6055C74.6992 34.9154 74.8099 34.2676 75.0312 33.6621C75.2591 33.0566 75.5814 32.5228 75.998 32.0605C76.4212 31.5983 76.9258 31.237 77.5117 30.9766C78.1042 30.7096 78.7617 30.5762 79.4844 30.5762C80.207 30.5762 80.8646 30.7161 81.457 30.9961C82.0495 31.276 82.5573 31.6732 82.9805 32.1875C83.4036 32.6953 83.7292 33.304 83.957 34.0137C84.1914 34.7233 84.3086 35.5111 84.3086 36.377V37.3535C84.3086 38.278 84.2077 39.1374 84.0059 39.9316C83.8105 40.7259 83.5143 41.4453 83.1172 42.0898C82.7266 42.7279 82.2383 43.2747 81.6523 43.7305C81.0729 44.1862 80.3991 44.5345 79.6309 44.7754C78.8626 45.0163 78.0033 45.1367 77.0527 45.1367H76.8281V42.8613ZM93.1758 30.752V45H90.3633V33.9941L86.9844 35.0684V32.8516L92.873 30.752H93.1758ZM98.0586 43.6426C98.0586 43.2259 98.2018 42.8776 98.4883 42.5977C98.7812 42.3177 99.1686 42.1777 99.6504 42.1777C100.132 42.1777 100.516 42.3177 100.803 42.5977C101.096 42.8776 101.242 43.2259 101.242 43.6426C101.242 44.0592 101.096 44.4076 100.803 44.6875C100.516 44.9674 100.132 45.1074 99.6504 45.1074C99.1686 45.1074 98.7812 44.9674 98.4883 44.6875C98.2018 44.4076 98.0586 44.0592 98.0586 43.6426ZM113.176 36.6406V39.1016C113.176 40.1693 113.062 41.0905 112.834 41.8652C112.606 42.6335 112.277 43.265 111.848 43.7598C111.424 44.248 110.92 44.6094 110.334 44.8438C109.748 45.0781 109.097 45.1953 108.381 45.1953C107.808 45.1953 107.274 45.1237 106.779 44.9805C106.285 44.8307 105.839 44.5996 105.441 44.2871C105.051 43.9746 104.712 43.5807 104.426 43.1055C104.146 42.6237 103.931 42.0508 103.781 41.3867C103.632 40.7227 103.557 39.9609 103.557 39.1016V36.6406C103.557 35.5729 103.671 34.6582 103.898 33.8965C104.133 33.1283 104.462 32.5 104.885 32.0117C105.314 31.5234 105.822 31.1654 106.408 30.9375C106.994 30.7031 107.645 30.5859 108.361 30.5859C108.934 30.5859 109.465 30.6608 109.953 30.8105C110.448 30.9538 110.894 31.1784 111.291 31.4844C111.688 31.7904 112.027 32.1842 112.307 32.666C112.587 33.1413 112.801 33.7109 112.951 34.375C113.101 35.0326 113.176 35.7878 113.176 36.6406ZM110.354 39.4727V36.2598C110.354 35.7454 110.324 35.2962 110.266 34.9121C110.214 34.528 110.132 34.2025 110.021 33.9355C109.911 33.6621 109.774 33.4408 109.611 33.2715C109.449 33.1022 109.263 32.9785 109.055 32.9004C108.846 32.8223 108.615 32.7832 108.361 32.7832C108.042 32.7832 107.759 32.8451 107.512 32.9688C107.271 33.0924 107.066 33.291 106.896 33.5645C106.727 33.8314 106.597 34.1895 106.506 34.6387C106.421 35.0814 106.379 35.6217 106.379 36.2598V39.4727C106.379 39.987 106.405 40.4395 106.457 40.8301C106.516 41.2207 106.6 41.556 106.711 41.8359C106.828 42.1094 106.965 42.334 107.121 42.5098C107.284 42.679 107.469 42.8027 107.678 42.8809C107.893 42.959 108.127 42.998 108.381 42.998C108.693 42.998 108.97 42.9362 109.211 42.8125C109.458 42.6823 109.667 42.4805 109.836 42.207C110.012 41.9271 110.142 41.5625 110.227 41.1133C110.311 40.6641 110.354 40.1172 110.354 39.4727ZM117.082 42.8613H117.268C118.049 42.8613 118.719 42.7669 119.279 42.5781C119.846 42.3828 120.311 42.1029 120.676 41.7383C121.04 41.3737 121.311 40.9277 121.486 40.4004C121.662 39.8665 121.75 39.2611 121.75 38.584V35.8887C121.75 35.3743 121.698 34.9219 121.594 34.5312C121.496 34.1406 121.353 33.8184 121.164 33.5645C120.982 33.304 120.767 33.1087 120.52 32.9785C120.279 32.8483 120.012 32.7832 119.719 32.7832C119.406 32.7832 119.13 32.8613 118.889 33.0176C118.648 33.1673 118.443 33.3724 118.273 33.6328C118.111 33.8932 117.984 34.1927 117.893 34.5312C117.808 34.8633 117.766 35.2116 117.766 35.5762C117.766 35.9408 117.808 36.2891 117.893 36.6211C117.977 36.9466 118.104 37.2363 118.273 37.4902C118.443 37.7376 118.654 37.9362 118.908 38.0859C119.162 38.2292 119.462 38.3008 119.807 38.3008C120.139 38.3008 120.435 38.2389 120.695 38.1152C120.962 37.985 121.187 37.8158 121.369 37.6074C121.558 37.3991 121.701 37.168 121.799 36.9141C121.903 36.6602 121.955 36.403 121.955 36.1426L122.883 36.6504C122.883 37.1061 122.785 37.5553 122.59 37.998C122.395 38.4408 122.121 38.8444 121.77 39.209C121.424 39.5671 121.024 39.8535 120.568 40.0684C120.113 40.2832 119.624 40.3906 119.104 40.3906C118.439 40.3906 117.85 40.2702 117.336 40.0293C116.822 39.7819 116.385 39.4434 116.027 39.0137C115.676 38.5775 115.409 38.0697 115.227 37.4902C115.044 36.9108 114.953 36.2826 114.953 35.6055C114.953 34.9154 115.064 34.2676 115.285 33.6621C115.513 33.0566 115.835 32.5228 116.252 32.0605C116.675 31.5983 117.18 31.237 117.766 30.9766C118.358 30.7096 119.016 30.5762 119.738 30.5762C120.461 30.5762 121.118 30.7161 121.711 30.9961C122.303 31.276 122.811 31.6732 123.234 32.1875C123.658 32.6953 123.983 33.304 124.211 34.0137C124.445 34.7233 124.562 35.5111 124.562 36.377V37.3535C124.562 38.278 124.462 39.1374 124.26 39.9316C124.064 40.7259 123.768 41.4453 123.371 42.0898C122.98 42.7279 122.492 43.2747 121.906 43.7305C121.327 44.1862 120.653 44.5345 119.885 44.7754C119.117 45.0163 118.257 45.1367 117.307 45.1367H117.082V42.8613Z" fill="#5AE677"/>
<path d="M55.7298 279.273H56.7866V285.511C56.7866 286.068 56.6843 286.541 56.4798 286.93C56.2752 287.32 55.9869 287.615 55.6147 287.817C55.2425 288.018 54.8036 288.119 54.2979 288.119C53.8207 288.119 53.396 288.033 53.0238 287.859C52.6516 287.683 52.359 287.433 52.146 287.109C51.9329 286.786 51.8263 286.401 51.8263 285.955H52.8661C52.8661 286.202 52.9272 286.418 53.0494 286.602C53.1744 286.784 53.3448 286.926 53.5607 287.028C53.7766 287.131 54.0224 287.182 54.2979 287.182C54.6019 287.182 54.8604 287.118 55.0735 286.99C55.2866 286.862 55.4485 286.675 55.5593 286.428C55.6729 286.178 55.7298 285.872 55.7298 285.511V279.273ZM62.8931 285.324V281.455H63.8988V288H62.8931V286.892H62.8249C62.6715 287.224 62.4329 287.507 62.109 287.74C61.7852 287.97 61.3761 288.085 60.8817 288.085C60.4727 288.085 60.109 287.996 59.7908 287.817C59.4727 287.635 59.2227 287.362 59.0408 286.999C58.859 286.632 58.7681 286.17 58.7681 285.614V281.455H59.7738V285.545C59.7738 286.023 59.9073 286.403 60.1744 286.688C60.4442 286.972 60.788 287.114 61.2056 287.114C61.4556 287.114 61.7099 287.05 61.9684 286.922C62.2298 286.794 62.4485 286.598 62.6246 286.334C62.8036 286.07 62.8931 285.733 62.8931 285.324ZM66.7464 279.273V288H65.7408V279.273H66.7464Z" fill="#BCBCBC"/>
<path d="M87.7175 288H86.6096L89.8141 279.273H90.905L94.1096 288H93.0016L90.3936 280.653H90.3255L87.7175 288ZM88.1266 284.591H92.5925V285.528H88.1266V284.591ZM99.4576 285.324V281.455H100.463V288H99.4576V286.892H99.3894C99.236 287.224 98.9973 287.507 98.6735 287.74C98.3496 287.97 97.9405 288.085 97.4462 288.085C97.0371 288.085 96.6735 287.996 96.3553 287.817C96.0371 287.635 95.7871 287.362 95.6053 286.999C95.4235 286.632 95.3326 286.17 95.3326 285.614V281.455H96.3382V285.545C96.3382 286.023 96.4718 286.403 96.7388 286.688C97.0087 286.972 97.3525 287.114 97.7701 287.114C98.0201 287.114 98.2743 287.05 98.5328 286.922C98.7942 286.794 99.013 286.598 99.1891 286.334C99.3681 286.07 99.4576 285.733 99.4576 285.324ZM104.947 290.591C104.461 290.591 104.044 290.528 103.694 290.403C103.345 290.281 103.054 290.119 102.821 289.918C102.591 289.719 102.407 289.506 102.271 289.278L103.072 288.716C103.163 288.835 103.278 288.972 103.417 289.125C103.557 289.281 103.747 289.416 103.988 289.53C104.233 289.646 104.552 289.705 104.947 289.705C105.476 289.705 105.912 289.577 106.256 289.321C106.599 289.065 106.771 288.665 106.771 288.119V286.79H106.686C106.612 286.909 106.507 287.057 106.371 287.233C106.237 287.406 106.044 287.561 105.791 287.697C105.541 287.831 105.203 287.898 104.777 287.898C104.248 287.898 103.774 287.773 103.354 287.523C102.936 287.273 102.605 286.909 102.361 286.432C102.119 285.955 101.998 285.375 101.998 284.693C101.998 284.023 102.116 283.439 102.352 282.942C102.588 282.442 102.916 282.055 103.336 281.783C103.757 281.507 104.243 281.369 104.794 281.369C105.22 281.369 105.558 281.44 105.808 281.582C106.061 281.722 106.254 281.881 106.388 282.06C106.524 282.236 106.629 282.381 106.703 282.494H106.805V281.455H107.777V288.188C107.777 288.75 107.649 289.207 107.393 289.56C107.14 289.915 106.8 290.175 106.371 290.339C105.944 290.507 105.47 290.591 104.947 290.591ZM104.913 286.994C105.317 286.994 105.657 286.902 105.936 286.717C106.214 286.533 106.426 286.267 106.571 285.92C106.716 285.574 106.788 285.159 106.788 284.676C106.788 284.205 106.717 283.788 106.575 283.428C106.433 283.067 106.223 282.784 105.944 282.58C105.666 282.375 105.322 282.273 104.913 282.273C104.487 282.273 104.132 282.381 103.848 282.597C103.567 282.812 103.355 283.102 103.213 283.466C103.074 283.83 103.004 284.233 103.004 284.676C103.004 285.131 103.075 285.533 103.217 285.882C103.362 286.229 103.575 286.501 103.856 286.7C104.14 286.896 104.493 286.994 104.913 286.994Z" fill="#BCBCBC"/>
<path d="M131.855 281.455C131.804 281.023 131.596 280.688 131.233 280.449C130.869 280.21 130.423 280.091 129.895 280.091C129.508 280.091 129.17 280.153 128.881 280.278C128.594 280.403 128.369 280.575 128.207 280.794C128.048 281.013 127.969 281.261 127.969 281.54C127.969 281.773 128.024 281.973 128.135 282.141C128.248 282.305 128.393 282.443 128.569 282.554C128.746 282.662 128.93 282.751 129.123 282.822C129.317 282.891 129.494 282.946 129.656 282.989L130.542 283.227C130.77 283.287 131.023 283.369 131.301 283.474C131.582 283.58 131.851 283.723 132.106 283.905C132.365 284.084 132.578 284.314 132.746 284.595C132.913 284.876 132.997 285.222 132.997 285.631C132.997 286.102 132.873 286.528 132.626 286.909C132.382 287.29 132.024 287.592 131.552 287.817C131.084 288.041 130.514 288.153 129.844 288.153C129.219 288.153 128.677 288.053 128.22 287.851C127.765 287.649 127.407 287.368 127.146 287.007C126.888 286.646 126.741 286.227 126.707 285.75H127.798C127.827 286.08 127.937 286.352 128.131 286.568C128.327 286.781 128.574 286.94 128.872 287.045C129.173 287.148 129.497 287.199 129.844 287.199C130.247 287.199 130.609 287.134 130.93 287.003C131.251 286.869 131.506 286.685 131.693 286.449C131.881 286.21 131.974 285.932 131.974 285.614C131.974 285.324 131.893 285.088 131.731 284.906C131.569 284.724 131.356 284.577 131.092 284.463C130.828 284.349 130.542 284.25 130.236 284.165L129.162 283.858C128.48 283.662 127.94 283.382 127.542 283.018C127.145 282.655 126.946 282.179 126.946 281.591C126.946 281.102 127.078 280.676 127.342 280.312C127.609 279.946 127.967 279.662 128.416 279.46C128.868 279.256 129.372 279.153 129.929 279.153C130.491 279.153 130.991 279.254 131.429 279.456C131.866 279.655 132.213 279.928 132.469 280.274C132.727 280.621 132.863 281.014 132.878 281.455H131.855ZM137.343 288.136C136.712 288.136 136.168 287.997 135.71 287.719C135.256 287.438 134.905 287.045 134.658 286.543C134.414 286.037 134.291 285.449 134.291 284.778C134.291 284.108 134.414 283.517 134.658 283.006C134.905 282.491 135.249 282.091 135.689 281.804C136.132 281.514 136.649 281.369 137.24 281.369C137.581 281.369 137.918 281.426 138.25 281.54C138.583 281.653 138.885 281.838 139.158 282.094C139.431 282.347 139.648 282.682 139.81 283.099C139.972 283.517 140.053 284.031 140.053 284.642V285.068H135.007V284.199H139.03C139.03 283.83 138.956 283.5 138.808 283.21C138.664 282.92 138.456 282.692 138.186 282.524C137.919 282.357 137.604 282.273 137.24 282.273C136.84 282.273 136.493 282.372 136.2 282.571C135.911 282.767 135.688 283.023 135.531 283.338C135.375 283.653 135.297 283.991 135.297 284.352V284.932C135.297 285.426 135.382 285.845 135.553 286.189C135.726 286.53 135.966 286.79 136.273 286.969C136.58 287.145 136.936 287.233 137.343 287.233C137.607 287.233 137.845 287.196 138.058 287.122C138.274 287.045 138.46 286.932 138.617 286.781C138.773 286.628 138.894 286.437 138.979 286.21L139.95 286.483C139.848 286.812 139.676 287.102 139.435 287.352C139.193 287.599 138.895 287.793 138.54 287.932C138.185 288.068 137.786 288.136 137.343 288.136ZM141.583 290.455V281.455H142.554V282.494H142.673C142.747 282.381 142.85 282.236 142.98 282.06C143.114 281.881 143.304 281.722 143.551 281.582C143.801 281.44 144.139 281.369 144.566 281.369C145.117 281.369 145.602 281.507 146.023 281.783C146.443 282.058 146.771 282.449 147.007 282.955C147.243 283.46 147.361 284.057 147.361 284.744C147.361 285.438 147.243 286.038 147.007 286.547C146.771 287.053 146.445 287.445 146.027 287.723C145.61 287.999 145.128 288.136 144.583 288.136C144.162 288.136 143.825 288.067 143.573 287.928C143.32 287.786 143.125 287.625 142.989 287.446C142.852 287.264 142.747 287.114 142.673 286.994H142.588V290.455H141.583ZM142.571 284.727C142.571 285.222 142.644 285.658 142.789 286.036C142.933 286.411 143.145 286.705 143.423 286.918C143.702 287.128 144.043 287.233 144.446 287.233C144.867 287.233 145.218 287.122 145.499 286.901C145.783 286.676 145.996 286.375 146.138 285.997C146.283 285.616 146.355 285.193 146.355 284.727C146.355 284.267 146.284 283.852 146.142 283.483C146.003 283.111 145.791 282.817 145.507 282.601C145.226 282.382 144.872 282.273 144.446 282.273C144.037 282.273 143.693 282.376 143.415 282.584C143.137 282.788 142.926 283.075 142.784 283.445C142.642 283.811 142.571 284.239 142.571 284.727Z" fill="#BCBCBC"/>
<path d="M175.819 283.636C175.819 284.557 175.653 285.352 175.32 286.023C174.988 286.693 174.532 287.21 173.952 287.574C173.373 287.938 172.711 288.119 171.967 288.119C171.222 288.119 170.56 287.938 169.981 287.574C169.401 287.21 168.945 286.693 168.613 286.023C168.281 285.352 168.114 284.557 168.114 283.636C168.114 282.716 168.281 281.92 168.613 281.25C168.945 280.58 169.401 280.062 169.981 279.699C170.56 279.335 171.222 279.153 171.967 279.153C172.711 279.153 173.373 279.335 173.952 279.699C174.532 280.062 174.988 280.58 175.32 281.25C175.653 281.92 175.819 282.716 175.819 283.636ZM174.796 283.636C174.796 282.881 174.67 282.243 174.417 281.723C174.167 281.203 173.827 280.81 173.398 280.543C172.972 280.276 172.495 280.142 171.967 280.142C171.438 280.142 170.96 280.276 170.531 280.543C170.104 280.81 169.765 281.203 169.512 281.723C169.262 282.243 169.137 282.881 169.137 283.636C169.137 284.392 169.262 285.03 169.512 285.55C169.765 286.07 170.104 286.463 170.531 286.73C170.96 286.997 171.438 287.131 171.967 287.131C172.495 287.131 172.972 286.997 173.398 286.73C173.827 286.463 174.167 286.07 174.417 285.55C174.67 285.03 174.796 284.392 174.796 283.636ZM180.119 288.136C179.505 288.136 178.977 287.991 178.533 287.702C178.09 287.412 177.749 287.013 177.511 286.504C177.272 285.996 177.153 285.415 177.153 284.761C177.153 284.097 177.275 283.51 177.519 283.001C177.766 282.49 178.11 282.091 178.55 281.804C178.994 281.514 179.511 281.369 180.102 281.369C180.562 281.369 180.977 281.455 181.346 281.625C181.715 281.795 182.018 282.034 182.254 282.341C182.489 282.648 182.636 283.006 182.692 283.415H181.687C181.61 283.116 181.44 282.852 181.175 282.622C180.914 282.389 180.562 282.273 180.119 282.273C179.727 282.273 179.383 282.375 179.087 282.58C178.795 282.781 178.566 283.067 178.401 283.436C178.239 283.803 178.158 284.233 178.158 284.727C178.158 285.233 178.238 285.673 178.397 286.048C178.559 286.423 178.786 286.714 179.079 286.922C179.374 287.129 179.721 287.233 180.119 287.233C180.38 287.233 180.617 287.188 180.83 287.097C181.043 287.006 181.224 286.875 181.371 286.705C181.519 286.534 181.624 286.33 181.687 286.091H182.692C182.636 286.477 182.495 286.825 182.271 287.135C182.049 287.442 181.755 287.686 181.388 287.868C181.025 288.047 180.602 288.136 180.119 288.136ZM187.009 281.455V282.307H183.617V281.455H187.009ZM184.606 279.886H185.612V286.125C185.612 286.409 185.653 286.622 185.735 286.764C185.82 286.903 185.928 286.997 186.059 287.045C186.192 287.091 186.333 287.114 186.481 287.114C186.592 287.114 186.683 287.108 186.754 287.097C186.825 287.082 186.881 287.071 186.924 287.062L187.129 287.966C187.06 287.991 186.965 288.017 186.843 288.043C186.721 288.071 186.566 288.085 186.379 288.085C186.094 288.085 185.816 288.024 185.543 287.902C185.273 287.78 185.049 287.594 184.87 287.344C184.694 287.094 184.606 286.778 184.606 286.398V279.886Z" fill="#BCBCBC"/>
<path d="M214.157 279.273V288H213.134L208.379 281.148H208.293V288H207.237V279.273H208.259L213.032 286.142H213.117V279.273H214.157ZM218.794 288.136C218.203 288.136 217.685 287.996 217.239 287.714C216.796 287.433 216.449 287.04 216.199 286.534C215.952 286.028 215.828 285.437 215.828 284.761C215.828 284.08 215.952 283.484 216.199 282.976C216.449 282.467 216.796 282.072 217.239 281.791C217.685 281.51 218.203 281.369 218.794 281.369C219.385 281.369 219.902 281.51 220.346 281.791C220.792 282.072 221.138 282.467 221.385 282.976C221.635 283.484 221.76 284.08 221.76 284.761C221.76 285.437 221.635 286.028 221.385 286.534C221.138 287.04 220.792 287.433 220.346 287.714C219.902 287.996 219.385 288.136 218.794 288.136ZM218.794 287.233C219.243 287.233 219.613 287.118 219.902 286.888C220.192 286.658 220.407 286.355 220.546 285.98C220.685 285.605 220.755 285.199 220.755 284.761C220.755 284.324 220.685 283.916 220.546 283.538C220.407 283.161 220.192 282.855 219.902 282.622C219.613 282.389 219.243 282.273 218.794 282.273C218.346 282.273 217.976 282.389 217.686 282.622C217.397 282.855 217.182 283.161 217.043 283.538C216.904 283.916 216.834 284.324 216.834 284.761C216.834 285.199 216.904 285.605 217.043 285.98C217.182 286.355 217.397 286.658 217.686 286.888C217.976 287.118 218.346 287.233 218.794 287.233ZM228.413 281.455L225.993 288H224.97L222.55 281.455H223.641L225.447 286.67H225.516L227.322 281.455H228.413Z" fill="#BCBCBC"/>
<path d="M250.094 288H247.401V279.273H250.213C251.06 279.273 251.784 279.447 252.386 279.797C252.989 280.143 253.45 280.642 253.771 281.293C254.092 281.94 254.253 282.716 254.253 283.619C254.253 284.528 254.091 285.311 253.767 285.967C253.443 286.621 252.972 287.124 252.352 287.476C251.733 287.825 250.98 288 250.094 288ZM248.457 287.062H250.026C250.747 287.062 251.345 286.923 251.82 286.645C252.294 286.366 252.648 285.97 252.881 285.456C253.114 284.942 253.23 284.33 253.23 283.619C253.23 282.915 253.115 282.308 252.885 281.8C252.655 281.288 252.311 280.896 251.854 280.624C251.396 280.348 250.827 280.21 250.145 280.21H248.457V287.062ZM258.634 288.136C258.003 288.136 257.459 287.997 257.001 287.719C256.547 287.438 256.196 287.045 255.949 286.543C255.705 286.037 255.582 285.449 255.582 284.778C255.582 284.108 255.705 283.517 255.949 283.006C256.196 282.491 256.54 282.091 256.98 281.804C257.423 281.514 257.94 281.369 258.531 281.369C258.872 281.369 259.209 281.426 259.541 281.54C259.874 281.653 260.176 281.838 260.449 282.094C260.722 282.347 260.939 282.682 261.101 283.099C261.263 283.517 261.344 284.031 261.344 284.642V285.068H256.298V284.199H260.321C260.321 283.83 260.247 283.5 260.099 283.21C259.955 282.92 259.747 282.692 259.477 282.524C259.21 282.357 258.895 282.273 258.531 282.273C258.131 282.273 257.784 282.372 257.491 282.571C257.202 282.767 256.979 283.023 256.822 283.338C256.666 283.653 256.588 283.991 256.588 284.352V284.932C256.588 285.426 256.673 285.845 256.844 286.189C257.017 286.53 257.257 286.79 257.564 286.969C257.871 287.145 258.227 287.233 258.634 287.233C258.898 287.233 259.136 287.196 259.349 287.122C259.565 287.045 259.751 286.932 259.908 286.781C260.064 286.628 260.185 286.437 260.27 286.21L261.241 286.483C261.139 286.812 260.967 287.102 260.726 287.352C260.484 287.599 260.186 287.793 259.831 287.932C259.476 288.068 259.077 288.136 258.634 288.136ZM265.533 288.136C264.919 288.136 264.391 287.991 263.947 287.702C263.504 287.412 263.163 287.013 262.925 286.504C262.686 285.996 262.567 285.415 262.567 284.761C262.567 284.097 262.689 283.51 262.933 283.001C263.18 282.49 263.524 282.091 263.964 281.804C264.408 281.514 264.925 281.369 265.516 281.369C265.976 281.369 266.391 281.455 266.76 281.625C267.129 281.795 267.432 282.034 267.668 282.341C267.903 282.648 268.05 283.006 268.107 283.415H267.101C267.024 283.116 266.854 282.852 266.589 282.622C266.328 282.389 265.976 282.273 265.533 282.273C265.141 282.273 264.797 282.375 264.501 282.58C264.209 282.781 263.98 283.067 263.815 283.436C263.653 283.803 263.572 284.233 263.572 284.727C263.572 285.233 263.652 285.673 263.811 286.048C263.973 286.423 264.2 286.714 264.493 286.922C264.788 287.129 265.135 287.233 265.533 287.233C265.794 287.233 266.031 287.188 266.244 287.097C266.457 287.006 266.638 286.875 266.786 286.705C266.933 286.534 267.038 286.33 267.101 286.091H268.107C268.05 286.477 267.909 286.825 267.685 287.135C267.463 287.442 267.169 287.686 266.803 287.868C266.439 288.047 266.016 288.136 265.533 288.136Z" fill="#BCBCBC"/>
<path d="M289.618 279.273H291.442V285.358C291.442 285.92 291.316 286.409 291.063 286.824C290.813 287.239 290.465 287.558 290.019 287.783C289.573 288.007 289.054 288.119 288.463 288.119C287.938 288.119 287.46 288.027 287.031 287.842C286.605 287.655 286.267 287.371 286.017 286.99C285.767 286.607 285.644 286.125 285.646 285.545H287.483C287.489 285.776 287.536 285.973 287.624 286.138C287.715 286.3 287.838 286.425 287.994 286.513C288.154 286.598 288.341 286.641 288.557 286.641C288.784 286.641 288.976 286.592 289.132 286.496C289.291 286.396 289.412 286.251 289.494 286.061C289.577 285.871 289.618 285.636 289.618 285.358V279.273ZM294.8 288.124C294.382 288.124 294.01 288.051 293.683 287.906C293.357 287.759 293.098 287.541 292.908 287.254C292.72 286.964 292.627 286.604 292.627 286.172C292.627 285.808 292.693 285.503 292.827 285.256C292.96 285.009 293.142 284.81 293.372 284.659C293.602 284.509 293.864 284.395 294.156 284.318C294.452 284.241 294.762 284.188 295.085 284.156C295.466 284.116 295.773 284.08 296.006 284.045C296.239 284.009 296.408 283.955 296.513 283.884C296.618 283.812 296.671 283.707 296.671 283.568V283.543C296.671 283.273 296.585 283.064 296.415 282.916C296.247 282.768 296.009 282.695 295.699 282.695C295.372 282.695 295.112 282.767 294.919 282.912C294.726 283.054 294.598 283.233 294.536 283.449L292.857 283.312C292.942 282.915 293.11 282.571 293.36 282.281C293.61 281.989 293.932 281.764 294.327 281.608C294.725 281.449 295.185 281.369 295.708 281.369C296.071 281.369 296.419 281.412 296.752 281.497C297.087 281.582 297.384 281.714 297.642 281.893C297.904 282.072 298.11 282.303 298.26 282.584C298.411 282.862 298.486 283.196 298.486 283.585V288H296.764V287.092H296.713C296.608 287.297 296.468 287.477 296.291 287.634C296.115 287.787 295.904 287.908 295.656 287.996C295.409 288.081 295.124 288.124 294.8 288.124ZM295.32 286.871C295.587 286.871 295.823 286.818 296.027 286.713C296.232 286.605 296.392 286.46 296.509 286.278C296.625 286.097 296.683 285.891 296.683 285.661V284.966C296.627 285.003 296.548 285.037 296.449 285.068C296.352 285.097 296.243 285.124 296.121 285.149C295.999 285.172 295.877 285.193 295.754 285.213C295.632 285.23 295.521 285.246 295.422 285.26C295.209 285.291 295.023 285.341 294.864 285.409C294.705 285.477 294.581 285.57 294.493 285.686C294.405 285.8 294.361 285.942 294.361 286.112C294.361 286.359 294.45 286.548 294.629 286.679C294.811 286.807 295.041 286.871 295.32 286.871ZM301.71 284.216V288H299.894V281.455H301.624V282.609H301.701C301.846 282.229 302.089 281.928 302.43 281.706C302.771 281.482 303.184 281.369 303.67 281.369C304.124 281.369 304.521 281.469 304.859 281.668C305.197 281.866 305.46 282.151 305.647 282.52C305.835 282.886 305.928 283.324 305.928 283.832V288H304.113V284.156C304.116 283.756 304.014 283.443 303.806 283.219C303.599 282.991 303.313 282.878 302.95 282.878C302.705 282.878 302.49 282.93 302.302 283.036C302.117 283.141 301.972 283.294 301.867 283.496C301.765 283.695 301.713 283.935 301.71 284.216Z" fill="#2D2D2D"/>
<path d="M336.723 253.119C336.081 253.119 335.534 252.945 335.082 252.595C334.63 252.243 334.285 251.733 334.047 251.065C333.808 250.395 333.689 249.585 333.689 248.636C333.689 247.693 333.808 246.888 334.047 246.22C334.288 245.55 334.635 245.038 335.086 244.686C335.541 244.331 336.086 244.153 336.723 244.153C337.359 244.153 337.903 244.331 338.355 244.686C338.809 245.038 339.156 245.55 339.395 246.22C339.636 246.888 339.757 247.693 339.757 248.636C339.757 249.585 339.637 250.395 339.399 251.065C339.16 251.733 338.815 252.243 338.363 252.595C337.912 252.945 337.365 253.119 336.723 253.119ZM336.723 252.182C337.359 252.182 337.853 251.875 338.206 251.261C338.558 250.648 338.734 249.773 338.734 248.636C338.734 247.881 338.653 247.237 338.491 246.706C338.332 246.175 338.102 245.77 337.801 245.491C337.502 245.213 337.143 245.074 336.723 245.074C336.092 245.074 335.599 245.385 335.244 246.007C334.889 246.626 334.711 247.503 334.711 248.636C334.711 249.392 334.791 250.034 334.95 250.562C335.109 251.091 335.338 251.493 335.636 251.768C335.937 252.044 336.299 252.182 336.723 252.182ZM342.331 250.614L342.314 249.369H342.518L345.382 246.455H346.626L343.575 249.54H343.49L342.331 250.614ZM341.393 253V244.273H342.399V253H341.393ZM345.552 253L342.995 249.761L343.711 249.062L346.831 253H345.552Z" fill="#BCBCBC"/>
<path d="M331.565 211.273V220H330.509V212.381H330.457L328.327 213.795V212.722L330.509 211.273H331.565ZM336.803 220.119C336.303 220.119 335.852 220.02 335.452 219.821C335.051 219.622 334.73 219.349 334.489 219.003C334.247 218.656 334.115 218.261 334.092 217.818H335.115C335.155 218.213 335.334 218.54 335.652 218.798C335.973 219.054 336.357 219.182 336.803 219.182C337.161 219.182 337.479 219.098 337.757 218.93C338.038 218.763 338.259 218.533 338.418 218.24C338.58 217.945 338.661 217.611 338.661 217.239C338.661 216.858 338.577 216.518 338.409 216.22C338.244 215.919 338.017 215.682 337.727 215.509C337.438 215.335 337.107 215.247 336.734 215.244C336.467 215.241 336.193 215.283 335.912 215.368C335.631 215.45 335.399 215.557 335.217 215.688L334.229 215.568L334.757 211.273H339.291V212.21H335.643L335.337 214.784H335.388C335.567 214.642 335.791 214.524 336.061 214.43C336.331 214.337 336.612 214.29 336.905 214.29C337.439 214.29 337.915 214.418 338.332 214.673C338.753 214.926 339.082 215.273 339.321 215.713C339.562 216.153 339.683 216.656 339.683 217.222C339.683 217.778 339.558 218.276 339.308 218.713C339.061 219.148 338.72 219.491 338.286 219.744C337.851 219.994 337.357 220.119 336.803 220.119ZM342.331 217.614L342.314 216.369H342.518L345.382 213.455H346.626L343.575 216.54H343.49L342.331 217.614ZM341.393 220V211.273H342.399V220H341.393ZM345.552 220L342.995 216.761L343.711 216.062L346.831 220H345.552Z" fill="#BCBCBC"/>
<path d="M329.184 186.119C328.622 186.119 328.12 186.023 327.68 185.83C327.243 185.636 326.895 185.368 326.636 185.024C326.38 184.678 326.241 184.276 326.218 183.818H327.292C327.315 184.099 327.412 184.342 327.582 184.547C327.752 184.749 327.975 184.905 328.251 185.016C328.527 185.126 328.832 185.182 329.167 185.182C329.542 185.182 329.875 185.116 330.164 184.986C330.454 184.855 330.681 184.673 330.846 184.44C331.011 184.207 331.093 183.938 331.093 183.631C331.093 183.31 331.014 183.027 330.855 182.783C330.696 182.536 330.463 182.342 330.156 182.203C329.849 182.064 329.474 181.994 329.031 181.994H328.332V181.057H329.031C329.377 181.057 329.681 180.994 329.943 180.869C330.207 180.744 330.413 180.568 330.561 180.341C330.711 180.114 330.787 179.847 330.787 179.54C330.787 179.244 330.721 178.987 330.591 178.768C330.46 178.55 330.275 178.379 330.037 178.257C329.801 178.135 329.522 178.074 329.201 178.074C328.9 178.074 328.616 178.129 328.349 178.24C328.085 178.348 327.869 178.506 327.701 178.713C327.534 178.918 327.443 179.165 327.429 179.455H326.406C326.423 178.997 326.561 178.597 326.819 178.253C327.078 177.906 327.416 177.636 327.833 177.443C328.254 177.25 328.716 177.153 329.218 177.153C329.758 177.153 330.221 177.263 330.608 177.482C330.994 177.697 331.291 177.983 331.498 178.338C331.706 178.693 331.809 179.077 331.809 179.489C331.809 179.98 331.68 180.399 331.422 180.746C331.166 181.092 330.818 181.332 330.377 181.466V181.534C330.929 181.625 331.359 181.859 331.669 182.237C331.978 182.612 332.133 183.077 332.133 183.631C332.133 184.105 332.004 184.531 331.745 184.909C331.49 185.284 331.14 185.58 330.697 185.795C330.254 186.011 329.75 186.119 329.184 186.119ZM336.723 186.119C336.081 186.119 335.534 185.945 335.082 185.595C334.63 185.243 334.285 184.733 334.047 184.065C333.808 183.395 333.689 182.585 333.689 181.636C333.689 180.693 333.808 179.888 334.047 179.22C334.288 178.55 334.635 178.038 335.086 177.686C335.541 177.331 336.086 177.153 336.723 177.153C337.359 177.153 337.903 177.331 338.355 177.686C338.809 178.038 339.156 178.55 339.395 179.22C339.636 179.888 339.757 180.693 339.757 181.636C339.757 182.585 339.637 183.395 339.399 184.065C339.16 184.733 338.815 185.243 338.363 185.595C337.912 185.945 337.365 186.119 336.723 186.119ZM336.723 185.182C337.359 185.182 337.853 184.875 338.206 184.261C338.558 183.648 338.734 182.773 338.734 181.636C338.734 180.881 338.653 180.237 338.491 179.706C338.332 179.175 338.102 178.77 337.801 178.491C337.502 178.213 337.143 178.074 336.723 178.074C336.092 178.074 335.599 178.385 335.244 179.007C334.889 179.626 334.711 180.503 334.711 181.636C334.711 182.392 334.791 183.034 334.95 183.562C335.109 184.091 335.338 184.493 335.636 184.768C335.937 185.044 336.299 185.182 336.723 185.182ZM342.331 183.614L342.314 182.369H342.518L345.382 179.455H346.626L343.575 182.54H343.49L342.331 183.614ZM341.393 186V177.273H342.399V186H341.393ZM345.552 186L342.995 182.761L343.711 182.062L346.831 186H345.552Z" fill="#BCBCBC"/>
<path d="M326.172 149.21V148.341L330.007 142.273H330.637V143.619H330.211L327.314 148.205V148.273H332.478V149.21H326.172ZM330.279 151V148.946V148.541V142.273H331.285V151H330.279ZM336.803 151.119C336.303 151.119 335.852 151.02 335.452 150.821C335.051 150.622 334.73 150.349 334.489 150.003C334.247 149.656 334.115 149.261 334.092 148.818H335.115C335.155 149.213 335.334 149.54 335.652 149.798C335.973 150.054 336.357 150.182 336.803 150.182C337.161 150.182 337.479 150.098 337.757 149.93C338.038 149.763 338.259 149.533 338.418 149.24C338.58 148.945 338.661 148.611 338.661 148.239C338.661 147.858 338.577 147.518 338.409 147.22C338.244 146.919 338.017 146.682 337.727 146.509C337.438 146.335 337.107 146.247 336.734 146.244C336.467 146.241 336.193 146.283 335.912 146.368C335.631 146.45 335.399 146.557 335.217 146.688L334.229 146.568L334.757 142.273H339.291V143.21H335.643L335.337 145.784H335.388C335.567 145.642 335.791 145.524 336.061 145.43C336.331 145.337 336.612 145.29 336.905 145.29C337.439 145.29 337.915 145.418 338.332 145.673C338.753 145.926 339.082 146.273 339.321 146.713C339.562 147.153 339.683 147.656 339.683 148.222C339.683 148.778 339.558 149.276 339.308 149.713C339.061 150.148 338.72 150.491 338.286 150.744C337.851 150.994 337.357 151.119 336.803 151.119ZM342.331 148.614L342.314 147.369H342.518L345.382 144.455H346.626L343.575 147.54H343.49L342.331 148.614ZM341.393 151V142.273H342.399V151H341.393ZM345.552 151L342.995 147.761L343.711 147.062L346.831 151H345.552Z" fill="#BCBCBC"/>
<path d="M329.286 115.119C328.928 115.114 328.57 115.045 328.212 114.915C327.854 114.784 327.527 114.564 327.232 114.254C326.936 113.942 326.699 113.52 326.52 112.989C326.341 112.455 326.251 111.784 326.251 110.977C326.251 110.205 326.324 109.52 326.469 108.923C326.614 108.324 326.824 107.82 327.099 107.411C327.375 106.999 327.707 106.686 328.097 106.473C328.489 106.26 328.93 106.153 329.422 106.153C329.911 106.153 330.345 106.251 330.726 106.447C331.109 106.641 331.422 106.911 331.663 107.257C331.905 107.604 332.061 108.003 332.132 108.455H331.092C330.996 108.062 330.808 107.737 330.53 107.479C330.251 107.22 329.882 107.091 329.422 107.091C328.746 107.091 328.213 107.385 327.824 107.973C327.438 108.561 327.243 109.386 327.24 110.449H327.308C327.467 110.207 327.656 110.001 327.875 109.831C328.097 109.658 328.341 109.524 328.608 109.43C328.875 109.337 329.158 109.29 329.456 109.29C329.956 109.29 330.413 109.415 330.828 109.665C331.243 109.912 331.575 110.254 331.825 110.692C332.075 111.126 332.2 111.625 332.2 112.188C332.2 112.727 332.08 113.222 331.838 113.67C331.597 114.116 331.257 114.472 330.82 114.736C330.385 114.997 329.874 115.125 329.286 115.119ZM329.286 114.182C329.643 114.182 329.964 114.092 330.249 113.913C330.536 113.734 330.761 113.494 330.926 113.193C331.094 112.892 331.178 112.557 331.178 112.188C331.178 111.827 331.097 111.499 330.935 111.203C330.776 110.905 330.555 110.668 330.274 110.491C329.996 110.315 329.678 110.227 329.32 110.227C329.05 110.227 328.798 110.281 328.565 110.389C328.332 110.494 328.128 110.639 327.952 110.824C327.778 111.009 327.642 111.22 327.543 111.459C327.443 111.695 327.393 111.943 327.393 112.205C327.393 112.551 327.474 112.875 327.636 113.176C327.801 113.477 328.026 113.72 328.31 113.905C328.597 114.089 328.922 114.182 329.286 114.182ZM336.723 115.119C336.081 115.119 335.534 114.945 335.082 114.595C334.63 114.243 334.285 113.733 334.047 113.065C333.808 112.395 333.689 111.585 333.689 110.636C333.689 109.693 333.808 108.888 334.047 108.22C334.288 107.55 334.635 107.038 335.086 106.686C335.541 106.331 336.086 106.153 336.723 106.153C337.359 106.153 337.903 106.331 338.355 106.686C338.809 107.038 339.156 107.55 339.395 108.22C339.636 108.888 339.757 109.693 339.757 110.636C339.757 111.585 339.637 112.395 339.399 113.065C339.16 113.733 338.815 114.243 338.363 114.595C337.912 114.945 337.365 115.119 336.723 115.119ZM336.723 114.182C337.359 114.182 337.853 113.875 338.206 113.261C338.558 112.648 338.734 111.773 338.734 110.636C338.734 109.881 338.653 109.237 338.491 108.706C338.332 108.175 338.102 107.77 337.801 107.491C337.502 107.213 337.143 107.074 336.723 107.074C336.092 107.074 335.599 107.385 335.244 108.007C334.889 108.626 334.711 109.503 334.711 110.636C334.711 111.392 334.791 112.034 334.95 112.562C335.109 113.091 335.338 113.493 335.636 113.768C335.937 114.044 336.299 114.182 336.723 114.182ZM342.331 112.614L342.314 111.369H342.518L345.382 108.455H346.626L343.575 111.54H343.49L342.331 112.614ZM341.393 115V106.273H342.399V115H341.393ZM345.552 115L342.995 111.761L343.711 111.062L346.831 115H345.552Z" fill="#BCBCBC"/>
<path d="M30.46 65.4844C30.46 65.252 30.4235 65.0469 30.3506 64.8691C30.2822 64.6868 30.1592 64.5228 29.9814 64.377C29.8083 64.2311 29.5667 64.0921 29.2568 63.96C28.9515 63.8278 28.5641 63.6934 28.0947 63.5566C27.6025 63.4108 27.1582 63.249 26.7617 63.0713C26.3652 62.889 26.0257 62.6816 25.7432 62.4492C25.4606 62.2168 25.2441 61.9502 25.0938 61.6494C24.9434 61.3486 24.8682 61.0046 24.8682 60.6172C24.8682 60.2298 24.9479 59.8721 25.1074 59.5439C25.2669 59.2158 25.4948 58.931 25.791 58.6895C26.0918 58.4434 26.4495 58.252 26.8643 58.1152C27.279 57.9785 27.7415 57.9102 28.252 57.9102C28.9993 57.9102 29.6328 58.0537 30.1523 58.3408C30.6764 58.6234 31.0752 58.9948 31.3486 59.4551C31.6221 59.9108 31.7588 60.3984 31.7588 60.918H30.4463C30.4463 60.5443 30.3665 60.2139 30.207 59.9268C30.0475 59.6351 29.806 59.4072 29.4824 59.2432C29.1589 59.0745 28.7487 58.9902 28.252 58.9902C27.7826 58.9902 27.3952 59.0609 27.0898 59.2021C26.7845 59.3434 26.5566 59.5348 26.4062 59.7764C26.2604 60.0179 26.1875 60.2936 26.1875 60.6035C26.1875 60.8132 26.2308 61.0046 26.3174 61.1777C26.4085 61.3464 26.5475 61.5036 26.7344 61.6494C26.9258 61.7952 27.1673 61.9297 27.459 62.0527C27.7552 62.1758 28.1084 62.2943 28.5186 62.4082C29.0837 62.5677 29.5713 62.7454 29.9814 62.9414C30.3916 63.1374 30.7288 63.3584 30.9932 63.6045C31.262 63.846 31.4603 64.1217 31.5879 64.4316C31.7201 64.737 31.7861 65.0833 31.7861 65.4707C31.7861 65.8763 31.7041 66.2432 31.54 66.5713C31.376 66.8994 31.1413 67.1797 30.8359 67.4121C30.5306 67.6445 30.1637 67.8245 29.7354 67.9521C29.3115 68.0752 28.8376 68.1367 28.3135 68.1367C27.8532 68.1367 27.3997 68.0729 26.9531 67.9453C26.5111 67.8177 26.1077 67.6263 25.7432 67.3711C25.3831 67.1159 25.0938 66.8014 24.875 66.4277C24.6608 66.0495 24.5537 65.612 24.5537 65.1152H25.8662C25.8662 65.457 25.9323 65.751 26.0645 65.9971C26.1966 66.2386 26.3766 66.4391 26.6045 66.5986C26.8369 66.7581 27.099 66.8766 27.3906 66.9541C27.6868 67.027 27.9945 67.0635 28.3135 67.0635C28.7738 67.0635 29.1634 66.9997 29.4824 66.8721C29.8014 66.7445 30.043 66.5622 30.207 66.3252C30.3757 66.0882 30.46 65.8079 30.46 65.4844ZM34.541 62.0254V70.8438H33.2695V60.6035H34.4316L34.541 62.0254ZM39.5244 64.2402V64.3838C39.5244 64.9215 39.4606 65.4206 39.333 65.8809C39.2054 66.3366 39.0186 66.7331 38.7725 67.0703C38.5309 67.4076 38.2324 67.6696 37.877 67.8564C37.5215 68.0433 37.1136 68.1367 36.6533 68.1367C36.1839 68.1367 35.7692 68.0592 35.4092 67.9043C35.0492 67.7493 34.7438 67.5238 34.4932 67.2275C34.2425 66.9313 34.042 66.5758 33.8916 66.1611C33.7458 65.7464 33.6455 65.2793 33.5908 64.7598V63.9941C33.6455 63.4473 33.748 62.9574 33.8984 62.5244C34.0488 62.0915 34.2471 61.7223 34.4932 61.417C34.7438 61.1071 35.0469 60.8724 35.4023 60.7129C35.7578 60.5488 36.168 60.4668 36.6328 60.4668C37.0977 60.4668 37.5101 60.5579 37.8701 60.7402C38.2301 60.918 38.5332 61.1732 38.7793 61.5059C39.0254 61.8385 39.21 62.2373 39.333 62.7021C39.4606 63.1624 39.5244 63.6751 39.5244 64.2402ZM38.2529 64.3838V64.2402C38.2529 63.8711 38.2142 63.5247 38.1367 63.2012C38.0592 62.873 37.9385 62.5859 37.7744 62.3398C37.6149 62.0892 37.4098 61.8932 37.1592 61.752C36.9085 61.6061 36.61 61.5332 36.2637 61.5332C35.9447 61.5332 35.6667 61.5879 35.4297 61.6973C35.1973 61.8066 34.999 61.9548 34.835 62.1416C34.6709 62.3239 34.5365 62.5335 34.4316 62.7705C34.3314 63.0029 34.2562 63.2445 34.2061 63.4951V65.2656C34.2972 65.5846 34.4248 65.8854 34.5889 66.168C34.7529 66.446 34.9717 66.6715 35.2451 66.8447C35.5186 67.0133 35.8626 67.0977 36.2773 67.0977C36.6191 67.0977 36.9131 67.027 37.1592 66.8857C37.4098 66.7399 37.6149 66.5417 37.7744 66.291C37.9385 66.0404 38.0592 65.7533 38.1367 65.4297C38.2142 65.1016 38.2529 64.7529 38.2529 64.3838ZM44.207 68.1367C43.6921 68.1367 43.2249 68.0501 42.8057 67.877C42.391 67.6992 42.0332 67.4508 41.7324 67.1318C41.4362 66.8128 41.2083 66.4346 41.0488 65.9971C40.8893 65.5596 40.8096 65.0811 40.8096 64.5615V64.2744C40.8096 63.6729 40.8984 63.1374 41.0762 62.668C41.2539 62.194 41.4954 61.793 41.8008 61.4648C42.1061 61.1367 42.4525 60.8883 42.8398 60.7197C43.2272 60.5511 43.6283 60.4668 44.043 60.4668C44.5716 60.4668 45.0273 60.5579 45.4102 60.7402C45.7975 60.9225 46.1143 61.1777 46.3604 61.5059C46.6064 61.8294 46.7887 62.2122 46.9072 62.6543C47.0257 63.0918 47.085 63.5703 47.085 64.0898V64.6572H41.5615V63.625H45.8203V63.5293C45.8021 63.2012 45.7337 62.8822 45.6152 62.5723C45.5013 62.2624 45.319 62.0072 45.0684 61.8066C44.8177 61.6061 44.4759 61.5059 44.043 61.5059C43.7559 61.5059 43.4915 61.5674 43.25 61.6904C43.0085 61.8089 42.8011 61.9867 42.6279 62.2236C42.4548 62.4606 42.3203 62.75 42.2246 63.0918C42.1289 63.4336 42.0811 63.8278 42.0811 64.2744V64.5615C42.0811 64.9124 42.1289 65.2428 42.2246 65.5527C42.3249 65.8581 42.4684 66.127 42.6553 66.3594C42.8467 66.5918 43.0768 66.7741 43.3457 66.9062C43.6191 67.0384 43.929 67.1045 44.2754 67.1045C44.722 67.1045 45.1003 67.0133 45.4102 66.8311C45.7201 66.6488 45.9912 66.4049 46.2236 66.0996L46.9893 66.708C46.8298 66.9495 46.627 67.1797 46.3809 67.3984C46.1348 67.6172 45.8317 67.7949 45.4717 67.9316C45.1162 68.0684 44.6947 68.1367 44.207 68.1367ZM49.8262 62.1826V68H48.5615V60.6035H49.7578L49.8262 62.1826ZM49.5254 64.0215L48.999 64.001C49.0036 63.4951 49.0788 63.028 49.2246 62.5996C49.3704 62.1667 49.5755 61.7907 49.8398 61.4717C50.1042 61.1527 50.4186 60.9066 50.7832 60.7334C51.1523 60.5557 51.5602 60.4668 52.0068 60.4668C52.3714 60.4668 52.6995 60.5169 52.9912 60.6172C53.2829 60.7129 53.5312 60.8678 53.7363 61.082C53.946 61.2962 54.1055 61.5742 54.2148 61.916C54.3242 62.2533 54.3789 62.6657 54.3789 63.1533V68H53.1074V63.1396C53.1074 62.7523 53.0505 62.4424 52.9365 62.21C52.8226 61.973 52.6562 61.8021 52.4375 61.6973C52.2188 61.5879 51.9499 61.5332 51.6309 61.5332C51.3164 61.5332 51.0293 61.5993 50.7695 61.7314C50.5143 61.8636 50.2933 62.0459 50.1064 62.2783C49.9242 62.5107 49.7806 62.7773 49.6758 63.0781C49.5755 63.3743 49.5254 63.6888 49.5254 64.0215ZM59.3965 60.6035V61.5742H55.3975V60.6035H59.3965ZM56.751 58.8057H58.0156V66.168C58.0156 66.4186 58.0544 66.6077 58.1318 66.7354C58.2093 66.863 58.3096 66.9473 58.4326 66.9883C58.5557 67.0293 58.6878 67.0498 58.8291 67.0498C58.9339 67.0498 59.0433 67.0407 59.1572 67.0225C59.2757 66.9997 59.3646 66.9814 59.4238 66.9678L59.4307 68C59.3304 68.0319 59.1982 68.0615 59.0342 68.0889C58.8747 68.1208 58.681 68.1367 58.4531 68.1367C58.1432 68.1367 57.8584 68.0752 57.5986 67.9521C57.3389 67.8291 57.1315 67.624 56.9766 67.3369C56.8262 67.0452 56.751 66.6533 56.751 66.1611V58.8057ZM67.4492 60.6035V61.5742H63.4502V60.6035H67.4492ZM64.8037 58.8057H66.0684V66.168C66.0684 66.4186 66.1071 66.6077 66.1846 66.7354C66.262 66.863 66.3623 66.9473 66.4854 66.9883C66.6084 67.0293 66.7406 67.0498 66.8818 67.0498C66.9867 67.0498 67.096 67.0407 67.21 67.0225C67.3285 66.9997 67.4173 66.9814 67.4766 66.9678L67.4834 68C67.3831 68.0319 67.251 68.0615 67.0869 68.0889C66.9274 68.1208 66.7337 68.1367 66.5059 68.1367C66.196 68.1367 65.9111 68.0752 65.6514 67.9521C65.3916 67.8291 65.1842 67.624 65.0293 67.3369C64.8789 67.0452 64.8037 66.6533 64.8037 66.1611V58.8057ZM70.1973 57.5V68H68.9326V57.5H70.1973ZM69.8965 64.0215L69.3701 64.001C69.3747 63.4951 69.4499 63.028 69.5957 62.5996C69.7415 62.1667 69.9466 61.7907 70.2109 61.4717C70.4753 61.1527 70.7897 60.9066 71.1543 60.7334C71.5234 60.5557 71.9313 60.4668 72.3779 60.4668C72.7425 60.4668 73.0706 60.5169 73.3623 60.6172C73.654 60.7129 73.9023 60.8678 74.1074 61.082C74.3171 61.2962 74.4766 61.5742 74.5859 61.916C74.6953 62.2533 74.75 62.6657 74.75 63.1533V68H73.4785V63.1396C73.4785 62.7523 73.4215 62.4424 73.3076 62.21C73.1937 61.973 73.0273 61.8021 72.8086 61.6973C72.5898 61.5879 72.321 61.5332 72.002 61.5332C71.6875 61.5332 71.4004 61.5993 71.1406 61.7314C70.8854 61.8636 70.6644 62.0459 70.4775 62.2783C70.2952 62.5107 70.1517 62.7773 70.0469 63.0781C69.9466 63.3743 69.8965 63.6888 69.8965 64.0215ZM78.0176 60.6035V68H76.7461V60.6035H78.0176ZM76.6504 58.6416C76.6504 58.4365 76.7119 58.2633 76.835 58.1221C76.9626 57.9808 77.1494 57.9102 77.3955 57.9102C77.637 57.9102 77.8216 57.9808 77.9492 58.1221C78.0814 58.2633 78.1475 58.4365 78.1475 58.6416C78.1475 58.8376 78.0814 59.0062 77.9492 59.1475C77.8216 59.2842 77.637 59.3525 77.3955 59.3525C77.1494 59.3525 76.9626 59.2842 76.835 59.1475C76.7119 59.0062 76.6504 58.8376 76.6504 58.6416ZM84.3545 66.0381C84.3545 65.8558 84.3135 65.6872 84.2314 65.5322C84.154 65.3727 83.9922 65.2292 83.7461 65.1016C83.5046 64.9694 83.14 64.8555 82.6523 64.7598C82.2422 64.6732 81.8708 64.5706 81.5381 64.4521C81.21 64.3337 80.9297 64.1901 80.6973 64.0215C80.4694 63.8529 80.2939 63.6546 80.1709 63.4268C80.0479 63.1989 79.9863 62.9323 79.9863 62.627C79.9863 62.3353 80.0501 62.0596 80.1777 61.7998C80.3099 61.54 80.4945 61.3099 80.7314 61.1094C80.973 60.9089 81.2624 60.7516 81.5996 60.6377C81.9368 60.5238 82.3128 60.4668 82.7275 60.4668C83.32 60.4668 83.8258 60.5716 84.2451 60.7812C84.6644 60.9909 84.9857 61.2712 85.209 61.6221C85.4323 61.9684 85.5439 62.3535 85.5439 62.7773H84.2793C84.2793 62.5723 84.2178 62.374 84.0947 62.1826C83.9762 61.9867 83.8008 61.8249 83.5684 61.6973C83.3405 61.5697 83.0602 61.5059 82.7275 61.5059C82.3766 61.5059 82.0918 61.5605 81.873 61.6699C81.6589 61.7747 81.5016 61.9092 81.4014 62.0732C81.3057 62.2373 81.2578 62.4105 81.2578 62.5928C81.2578 62.7295 81.2806 62.8525 81.3262 62.9619C81.3763 63.0667 81.4629 63.1647 81.5859 63.2559C81.709 63.3424 81.8822 63.4245 82.1055 63.502C82.3288 63.5794 82.6136 63.6569 82.96 63.7344C83.5661 63.8711 84.0651 64.0352 84.457 64.2266C84.849 64.418 85.1406 64.6527 85.332 64.9307C85.5234 65.2087 85.6191 65.5459 85.6191 65.9424C85.6191 66.266 85.5508 66.5622 85.4141 66.8311C85.2819 67.0999 85.0882 67.3324 84.833 67.5283C84.5824 67.7197 84.2816 67.8701 83.9307 67.9795C83.5843 68.0843 83.1947 68.1367 82.7617 68.1367C82.11 68.1367 81.5586 68.0205 81.1074 67.7881C80.6562 67.5557 80.3145 67.2549 80.082 66.8857C79.8496 66.5166 79.7334 66.127 79.7334 65.7168H81.0049C81.0231 66.0632 81.1234 66.3389 81.3057 66.5439C81.488 66.7445 81.7113 66.888 81.9756 66.9746C82.2399 67.0566 82.502 67.0977 82.7617 67.0977C83.1081 67.0977 83.3975 67.0521 83.6299 66.9609C83.8669 66.8698 84.0469 66.7445 84.1699 66.585C84.293 66.4255 84.3545 66.2432 84.3545 66.0381ZM92.0107 62.0732V68H90.7393V60.6035H91.9424L92.0107 62.0732ZM91.751 64.0215L91.1631 64.001C91.1676 63.4951 91.2337 63.028 91.3613 62.5996C91.4889 62.1667 91.6781 61.7907 91.9287 61.4717C92.1794 61.1527 92.4915 60.9066 92.8652 60.7334C93.2389 60.5557 93.6719 60.4668 94.1641 60.4668C94.5104 60.4668 94.8294 60.5169 95.1211 60.6172C95.4128 60.7129 95.6657 60.8656 95.8799 61.0752C96.0941 61.2848 96.2604 61.5537 96.3789 61.8818C96.4974 62.21 96.5566 62.6064 96.5566 63.0713V68H95.292V63.1328C95.292 62.7454 95.2259 62.4355 95.0938 62.2031C94.9661 61.9707 94.7839 61.8021 94.5469 61.6973C94.3099 61.5879 94.0319 61.5332 93.7129 61.5332C93.3392 61.5332 93.027 61.5993 92.7764 61.7314C92.5257 61.8636 92.3252 62.0459 92.1748 62.2783C92.0244 62.5107 91.915 62.7773 91.8467 63.0781C91.7829 63.3743 91.751 63.6888 91.751 64.0215ZM96.543 63.3242L95.6953 63.584C95.6999 63.1784 95.766 62.7887 95.8936 62.415C96.0257 62.0413 96.2148 61.7087 96.4609 61.417C96.7116 61.1253 97.0192 60.8952 97.3838 60.7266C97.7484 60.5534 98.1654 60.4668 98.6348 60.4668C99.0312 60.4668 99.3822 60.5192 99.6875 60.624C99.9974 60.7288 100.257 60.8906 100.467 61.1094C100.681 61.3236 100.843 61.5993 100.952 61.9365C101.062 62.2738 101.116 62.6748 101.116 63.1396V68H99.8447V63.126C99.8447 62.7113 99.7786 62.39 99.6465 62.1621C99.5189 61.9297 99.3366 61.7679 99.0996 61.6768C98.8672 61.5811 98.5892 61.5332 98.2656 61.5332C97.9876 61.5332 97.7415 61.5811 97.5273 61.6768C97.3132 61.7725 97.1331 61.9046 96.9873 62.0732C96.8415 62.2373 96.7298 62.4264 96.6523 62.6406C96.5794 62.8548 96.543 63.0827 96.543 63.3242ZM102.695 64.3838V64.2266C102.695 63.6934 102.773 63.1989 102.928 62.7432C103.083 62.2829 103.306 61.8841 103.598 61.5469C103.889 61.2051 104.243 60.9408 104.657 60.7539C105.072 60.5625 105.537 60.4668 106.052 60.4668C106.571 60.4668 107.038 60.5625 107.453 60.7539C107.872 60.9408 108.228 61.2051 108.52 61.5469C108.816 61.8841 109.041 62.2829 109.196 62.7432C109.351 63.1989 109.429 63.6934 109.429 64.2266V64.3838C109.429 64.917 109.351 65.4115 109.196 65.8672C109.041 66.3229 108.816 66.7217 108.52 67.0635C108.228 67.4007 107.875 67.665 107.46 67.8564C107.05 68.0433 106.585 68.1367 106.065 68.1367C105.546 68.1367 105.079 68.0433 104.664 67.8564C104.249 67.665 103.894 67.4007 103.598 67.0635C103.306 66.7217 103.083 66.3229 102.928 65.8672C102.773 65.4115 102.695 64.917 102.695 64.3838ZM103.96 64.2266V64.3838C103.96 64.7529 104.003 65.1016 104.09 65.4297C104.176 65.7533 104.306 66.0404 104.479 66.291C104.657 66.5417 104.878 66.7399 105.143 66.8857C105.407 67.027 105.715 67.0977 106.065 67.0977C106.412 67.0977 106.715 67.027 106.975 66.8857C107.239 66.7399 107.458 66.5417 107.631 66.291C107.804 66.0404 107.934 65.7533 108.021 65.4297C108.112 65.1016 108.157 64.7529 108.157 64.3838V64.2266C108.157 63.862 108.112 63.5179 108.021 63.1943C107.934 62.8662 107.802 62.5768 107.624 62.3262C107.451 62.071 107.232 61.8704 106.968 61.7246C106.708 61.5788 106.403 61.5059 106.052 61.5059C105.705 61.5059 105.4 61.5788 105.136 61.7246C104.876 61.8704 104.657 62.071 104.479 62.3262C104.306 62.5768 104.176 62.8662 104.09 63.1943C104.003 63.5179 103.96 63.862 103.96 64.2266ZM112.279 62.1826V68H111.015V60.6035H112.211L112.279 62.1826ZM111.979 64.0215L111.452 64.001C111.457 63.4951 111.532 63.028 111.678 62.5996C111.824 62.1667 112.029 61.7907 112.293 61.4717C112.557 61.1527 112.872 60.9066 113.236 60.7334C113.605 60.5557 114.013 60.4668 114.46 60.4668C114.825 60.4668 115.153 60.5169 115.444 60.6172C115.736 60.7129 115.984 60.8678 116.189 61.082C116.399 61.2962 116.559 61.5742 116.668 61.916C116.777 62.2533 116.832 62.6657 116.832 63.1533V68H115.561V63.1396C115.561 62.7523 115.504 62.4424 115.39 62.21C115.276 61.973 115.109 61.8021 114.891 61.6973C114.672 61.5879 114.403 61.5332 114.084 61.5332C113.77 61.5332 113.482 61.5993 113.223 61.7314C112.967 61.8636 112.746 62.0459 112.56 62.2783C112.377 62.5107 112.234 62.7773 112.129 63.0781C112.029 63.3743 111.979 63.6888 111.979 64.0215ZM121.85 60.6035V61.5742H117.851V60.6035H121.85ZM119.204 58.8057H120.469V66.168C120.469 66.4186 120.507 66.6077 120.585 66.7354C120.662 66.863 120.763 66.9473 120.886 66.9883C121.009 67.0293 121.141 67.0498 121.282 67.0498C121.387 67.0498 121.496 67.0407 121.61 67.0225C121.729 66.9997 121.818 66.9814 121.877 66.9678L121.884 68C121.784 68.0319 121.651 68.0615 121.487 68.0889C121.328 68.1208 121.134 68.1367 120.906 68.1367C120.596 68.1367 120.312 68.0752 120.052 67.9521C119.792 67.8291 119.585 67.624 119.43 67.3369C119.279 67.0452 119.204 66.6533 119.204 66.1611V58.8057ZM124.598 57.5V68H123.333V57.5H124.598ZM124.297 64.0215L123.771 64.001C123.775 63.4951 123.85 63.028 123.996 62.5996C124.142 62.1667 124.347 61.7907 124.611 61.4717C124.876 61.1527 125.19 60.9066 125.555 60.7334C125.924 60.5557 126.332 60.4668 126.778 60.4668C127.143 60.4668 127.471 60.5169 127.763 60.6172C128.054 60.7129 128.303 60.8678 128.508 61.082C128.717 61.2962 128.877 61.5742 128.986 61.916C129.096 62.2533 129.15 62.6657 129.15 63.1533V68H127.879V63.1396C127.879 62.7523 127.822 62.4424 127.708 62.21C127.594 61.973 127.428 61.8021 127.209 61.6973C126.99 61.5879 126.721 61.5332 126.402 61.5332C126.088 61.5332 125.801 61.5993 125.541 61.7314C125.286 61.8636 125.065 62.0459 124.878 62.2783C124.696 62.5107 124.552 62.7773 124.447 63.0781C124.347 63.3743 124.297 63.6888 124.297 64.0215Z" fill="#2D2D2D"/>
<rect x="246" y="30" width="103" height="39" rx="10" fill="#146EF5"/>
<path d="M261.885 43.8182H264.54L267.344 50.6591H267.463L270.267 43.8182H272.922V54H270.834V47.3729H270.749L268.114 53.9503H266.692L264.058 47.348H263.973V54H261.885V43.8182ZM278.106 54.1491C277.334 54.1491 276.666 53.9851 276.102 53.657C275.542 53.3255 275.11 52.8648 274.805 52.2749C274.5 51.6816 274.347 50.9938 274.347 50.2116C274.347 49.4228 274.5 48.7334 274.805 48.1435C275.11 47.5502 275.542 47.0895 276.102 46.7614C276.666 46.4299 277.334 46.2642 278.106 46.2642C278.878 46.2642 279.544 46.4299 280.105 46.7614C280.668 47.0895 281.102 47.5502 281.407 48.1435C281.712 48.7334 281.865 49.4228 281.865 50.2116C281.865 50.9938 281.712 51.6816 281.407 52.2749C281.102 52.8648 280.668 53.3255 280.105 53.657C279.544 53.9851 278.878 54.1491 278.106 54.1491ZM278.116 52.5085C278.467 52.5085 278.761 52.4091 278.996 52.2102C279.231 52.008 279.409 51.733 279.528 51.3849C279.651 51.0369 279.712 50.6409 279.712 50.1967C279.712 49.7526 279.651 49.3565 279.528 49.0085C279.409 48.6605 279.231 48.3854 278.996 48.1832C278.761 47.9811 278.467 47.88 278.116 47.88C277.761 47.88 277.463 47.9811 277.221 48.1832C276.982 48.3854 276.802 48.6605 276.679 49.0085C276.56 49.3565 276.5 49.7526 276.5 50.1967C276.5 50.6409 276.56 51.0369 276.679 51.3849C276.802 51.733 276.982 52.008 277.221 52.2102C277.463 52.4091 277.761 52.5085 278.116 52.5085ZM285.36 49.5852V54H283.242V46.3636H285.26V47.7109H285.35C285.519 47.2668 285.802 46.9155 286.2 46.657C286.597 46.3951 287.08 46.2642 287.646 46.2642C288.177 46.2642 288.639 46.3802 289.034 46.6122C289.428 46.8442 289.735 47.1757 289.953 47.6065C290.172 48.0341 290.281 48.5445 290.281 49.1378V54H288.164V49.5156C288.167 49.0483 288.048 48.6837 287.806 48.4219C287.564 48.1567 287.231 48.0241 286.806 48.0241C286.521 48.0241 286.269 48.0855 286.051 48.2081C285.835 48.3307 285.666 48.5097 285.544 48.745C285.424 48.977 285.363 49.2571 285.36 49.5852ZM296.012 46.3636V47.9545H291.414V46.3636H296.012ZM292.458 44.5341H294.576V51.6534C294.576 51.849 294.605 52.0014 294.665 52.1108C294.725 52.2169 294.808 52.2914 294.914 52.3345C295.023 52.3776 295.149 52.3991 295.292 52.3991C295.391 52.3991 295.49 52.3909 295.59 52.3743C295.689 52.3544 295.766 52.3395 295.819 52.3295L296.152 53.9055C296.046 53.9387 295.896 53.9768 295.704 54.0199C295.512 54.0663 295.278 54.0945 295.003 54.1044C294.493 54.1243 294.045 54.0563 293.661 53.9006C293.28 53.7448 292.983 53.5028 292.771 53.1747C292.559 52.8466 292.454 52.4323 292.458 51.9318V44.5341ZM299.674 49.5852V54H297.556V43.8182H299.614V47.7109H299.704C299.876 47.2602 300.155 46.9072 300.539 46.652C300.924 46.3935 301.406 46.2642 301.986 46.2642C302.516 46.2642 302.978 46.3802 303.373 46.6122C303.771 46.8409 304.079 47.1707 304.298 47.6016C304.52 48.0291 304.629 48.5412 304.626 49.1378V54H302.508V49.5156C302.511 49.045 302.392 48.6787 302.15 48.4169C301.911 48.1551 301.576 48.0241 301.146 48.0241C300.857 48.0241 300.602 48.0855 300.38 48.2081C300.161 48.3307 299.989 48.5097 299.863 48.745C299.74 48.977 299.677 49.2571 299.674 49.5852ZM308.41 43.8182V54H306.292V43.8182H308.41ZM311.414 56.8636C311.146 56.8636 310.894 56.8421 310.659 56.799C310.427 56.7592 310.234 56.7079 310.082 56.6449L310.559 55.0639C310.808 55.1402 311.032 55.1816 311.23 55.1882C311.433 55.1948 311.607 55.1484 311.752 55.049C311.902 54.9496 312.023 54.7805 312.115 54.5419L312.24 54.2188L309.5 46.3636H311.728L313.309 51.9716H313.388L314.984 46.3636H317.226L314.258 54.8253C314.116 55.2363 313.922 55.5942 313.676 55.8991C313.435 56.2074 313.128 56.4444 312.757 56.6101C312.386 56.7791 311.938 56.8636 311.414 56.8636Z" fill="white"/>
<path d="M331.47 52.5303C331.763 52.8232 332.237 52.8232 332.53 52.5303L337.303 47.7574C337.596 47.4645 337.596 46.9896 337.303 46.6967C337.01 46.4038 336.536 46.4038 336.243 46.6967L332 50.9393L327.757 46.6967C327.464 46.4038 326.99 46.4038 326.697 46.6967C326.404 46.9896 326.404 47.4645 326.697 47.7574L331.47 52.5303ZM331.25 51L331.25 52L332.75 52L332.75 51L331.25 51Z" fill="white"/>
<path d="M24 94V253.5C24 259.023 28.4772 263.5 34 263.5H349" stroke="#DADADA" stroke-linecap="round"/>
<path d="M52 163C52 161.343 53.3431 160 55 160H65C66.6569 160 68 161.343 68 163V263H52V163Z" fill="url(#paint0_linear_217_989)"/>
<path d="M89 186C89 184.343 90.3431 183 92 183H102C103.657 183 105 184.343 105 186V263H89V186Z" fill="url(#paint1_linear_217_989)"/>
<path d="M128 154C128 152.343 129.343 151 131 151H141C142.657 151 144 152.343 144 154V263H128V154Z" fill="url(#paint2_linear_217_989)"/>
<path d="M168 137C168 135.343 169.343 134 171 134H181C182.657 134 184 135.343 184 137V263H168V137Z" fill="url(#paint3_linear_217_989)"/>
<path d="M208 207C208 205.343 209.343 204 211 204H221C222.657 204 224 205.343 224 207V263H208V207Z" fill="url(#paint4_linear_217_989)"/>
<path d="M249 219C249 217.343 250.343 216 252 216H262C263.657 216 265 217.343 265 219V263H249V219Z" fill="url(#paint5_linear_217_989)"/>
<path d="M288 199C288 197.343 289.343 196 291 196H301C302.657 196 304 197.343 304 199V263H288V199Z" fill="url(#paint6_linear_217_989)"/>
<line x1="309.75" y1="196.25" x2="24.25" y2="196.25" stroke="#2D2D2D" stroke-width="0.5" stroke-linecap="round" stroke-dasharray="2 2"/>
<circle cx="310" cy="196" r="2" fill="#2D2D2D"/>
<path d="M271 178.066V166.633C271 165.179 272.179 164 273.633 164H305C308.866 164 312 167.134 312 171V186.381C312 187.124 311.217 187.608 310.552 187.275L307.623 185.807C306.65 185.32 305.576 185.066 304.488 185.066H278C274.134 185.066 271 181.932 271 178.066Z" fill="#FFD220"/>
<path d="M275.603 179V178.233L278.483 175.08C278.821 174.71 279.1 174.389 279.319 174.116C279.537 173.841 279.699 173.582 279.804 173.341C279.912 173.097 279.966 172.841 279.966 172.574C279.966 172.267 279.892 172.001 279.745 171.777C279.6 171.553 279.401 171.379 279.148 171.257C278.895 171.135 278.611 171.074 278.296 171.074C277.961 171.074 277.668 171.143 277.418 171.283C277.171 171.419 276.979 171.611 276.843 171.858C276.709 172.105 276.642 172.395 276.642 172.727H275.637C275.637 172.216 275.755 171.767 275.99 171.381C276.226 170.994 276.547 170.693 276.953 170.477C277.363 170.261 277.821 170.153 278.33 170.153C278.841 170.153 279.294 170.261 279.689 170.477C280.084 170.693 280.394 170.984 280.618 171.351C280.843 171.717 280.955 172.125 280.955 172.574C280.955 172.895 280.897 173.209 280.78 173.516C280.667 173.82 280.468 174.159 280.184 174.534C279.902 174.906 279.512 175.361 279.012 175.898L277.051 177.994V178.062H281.108V179H275.603ZM285.766 179.119C285.408 179.114 285.05 179.045 284.692 178.915C284.334 178.784 284.007 178.564 283.712 178.254C283.417 177.942 283.179 177.52 283 176.989C282.821 176.455 282.732 175.784 282.732 174.977C282.732 174.205 282.804 173.52 282.949 172.923C283.094 172.324 283.304 171.82 283.58 171.411C283.855 170.999 284.188 170.686 284.577 170.473C284.969 170.26 285.411 170.153 285.902 170.153C286.391 170.153 286.826 170.251 287.206 170.447C287.59 170.641 287.902 170.911 288.144 171.257C288.385 171.604 288.542 172.003 288.613 172.455H287.573C287.476 172.062 287.289 171.737 287.01 171.479C286.732 171.22 286.363 171.091 285.902 171.091C285.226 171.091 284.694 171.385 284.304 171.973C283.918 172.561 283.723 173.386 283.721 174.449H283.789C283.948 174.207 284.137 174.001 284.355 173.831C284.577 173.658 284.821 173.524 285.088 173.43C285.355 173.337 285.638 173.29 285.936 173.29C286.436 173.29 286.894 173.415 287.309 173.665C287.723 173.912 288.056 174.254 288.306 174.692C288.556 175.126 288.681 175.625 288.681 176.188C288.681 176.727 288.56 177.222 288.319 177.67C288.077 178.116 287.738 178.472 287.3 178.736C286.865 178.997 286.354 179.125 285.766 179.119ZM285.766 178.182C286.124 178.182 286.445 178.092 286.729 177.913C287.016 177.734 287.242 177.494 287.407 177.193C287.574 176.892 287.658 176.557 287.658 176.188C287.658 175.827 287.577 175.499 287.415 175.203C287.256 174.905 287.036 174.668 286.755 174.491C286.476 174.315 286.158 174.227 285.8 174.227C285.53 174.227 285.279 174.281 285.046 174.389C284.813 174.494 284.608 174.639 284.432 174.824C284.259 175.009 284.123 175.22 284.023 175.459C283.924 175.695 283.874 175.943 283.874 176.205C283.874 176.551 283.955 176.875 284.117 177.176C284.282 177.477 284.506 177.72 284.79 177.905C285.077 178.089 285.402 178.182 285.766 178.182ZM290.696 179.068C290.486 179.068 290.306 178.993 290.155 178.842C290.005 178.692 289.929 178.511 289.929 178.301C289.929 178.091 290.005 177.911 290.155 177.76C290.306 177.609 290.486 177.534 290.696 177.534C290.907 177.534 291.087 177.609 291.238 177.76C291.388 177.911 291.463 178.091 291.463 178.301C291.463 178.44 291.428 178.568 291.357 178.685C291.289 178.801 291.196 178.895 291.08 178.966C290.966 179.034 290.838 179.068 290.696 179.068ZM295.803 179.119C295.303 179.119 294.852 179.02 294.452 178.821C294.051 178.622 293.73 178.349 293.489 178.003C293.247 177.656 293.115 177.261 293.092 176.818H294.115C294.155 177.213 294.334 177.54 294.652 177.798C294.973 178.054 295.357 178.182 295.803 178.182C296.161 178.182 296.479 178.098 296.757 177.93C297.038 177.763 297.259 177.533 297.418 177.24C297.58 176.945 297.661 176.611 297.661 176.239C297.661 175.858 297.577 175.518 297.409 175.22C297.244 174.919 297.017 174.682 296.727 174.509C296.438 174.335 296.107 174.247 295.734 174.244C295.467 174.241 295.193 174.283 294.912 174.368C294.631 174.45 294.399 174.557 294.217 174.688L293.229 174.568L293.757 170.273H298.291V171.21H294.643L294.337 173.784H294.388C294.567 173.642 294.791 173.524 295.061 173.43C295.331 173.337 295.612 173.29 295.905 173.29C296.439 173.29 296.915 173.418 297.332 173.673C297.753 173.926 298.082 174.273 298.321 174.713C298.562 175.153 298.683 175.656 298.683 176.222C298.683 176.778 298.558 177.276 298.308 177.713C298.061 178.148 297.72 178.491 297.286 178.744C296.851 178.994 296.357 179.119 295.803 179.119ZM301.331 176.614L301.314 175.369H301.518L304.382 172.455H305.626L302.575 175.54H302.49L301.331 176.614ZM300.393 179V170.273H301.399V179H300.393ZM304.552 179L301.995 175.761L302.711 175.062L305.831 179H304.552Z" fill="#2D2D2D"/>
<defs>
<linearGradient id="paint0_linear_217_989" x1="60" y1="160" x2="60" y2="263" gradientUnits="userSpaceOnUse">
<stop stop-color="#146EF5" stop-opacity="0.21"/>
<stop offset="1" stop-color="#146EF5"/>
</linearGradient>
<linearGradient id="paint1_linear_217_989" x1="97" y1="183" x2="97" y2="263" gradientUnits="userSpaceOnUse">
<stop stop-color="#146EF5" stop-opacity="0.21"/>
<stop offset="1" stop-color="#146EF5"/>
</linearGradient>
<linearGradient id="paint2_linear_217_989" x1="136" y1="143" x2="136" y2="263" gradientUnits="userSpaceOnUse">
<stop stop-color="#146EF5" stop-opacity="0"/>
<stop offset="0.979167" stop-color="#146EF5"/>
</linearGradient>
<linearGradient id="paint3_linear_217_989" x1="176" y1="134" x2="176" y2="263" gradientUnits="userSpaceOnUse">
<stop stop-color="#146EF5" stop-opacity="0.21"/>
<stop offset="1" stop-color="#146EF5"/>
</linearGradient>
<linearGradient id="paint4_linear_217_989" x1="216" y1="204" x2="216" y2="263" gradientUnits="userSpaceOnUse">
<stop stop-color="#146EF5" stop-opacity="0.21"/>
<stop offset="1" stop-color="#146EF5"/>
</linearGradient>
<linearGradient id="paint5_linear_217_989" x1="257" y1="216" x2="257" y2="263" gradientUnits="userSpaceOnUse">
<stop stop-color="#146EF5" stop-opacity="0.21"/>
<stop offset="1" stop-color="#146EF5"/>
</linearGradient>
<linearGradient id="paint6_linear_217_989" x1="296" y1="190.5" x2="296" y2="263" gradientUnits="userSpaceOnUse">
<stop stop-color="#5AE677" stop-opacity="0"/>
<stop offset="1" stop-color="#5AE677"/>
</linearGradient>
</defs>
</svg>
