<svg width="374" height="217" viewBox="0 0 374 217" fill="none" xmlns="http://www.w3.org/2000/svg">
<rect width="374" height="217" fill="white"/>
<path d="M278.671 91.0689V92.7493H274.028V91.0689H278.671ZM283.877 98.2727V85.5455H284.692V98.2727H283.877ZM286.039 89.7464C285.999 89.3454 285.829 89.0339 285.527 88.8118C285.226 88.5897 284.816 88.4787 284.299 88.4787C283.948 88.4787 283.651 88.5284 283.409 88.6278C283.167 88.724 282.982 88.8582 282.852 89.0305C282.727 89.2029 282.664 89.3984 282.664 89.6172C282.657 89.7995 282.695 89.9586 282.778 90.0945C282.864 90.2304 282.982 90.348 283.131 90.4474C283.28 90.5436 283.452 90.6281 283.648 90.701C283.843 90.7706 284.052 90.8303 284.274 90.88L285.189 91.0987C285.633 91.1982 286.041 91.3307 286.412 91.4964C286.783 91.6622 287.105 91.866 287.377 92.108C287.648 92.3499 287.859 92.6349 288.008 92.9631C288.16 93.2912 288.238 93.6674 288.242 94.0916C288.238 94.7147 288.079 95.255 287.764 95.7124C287.453 96.1664 287.002 96.5194 286.412 96.7713C285.825 97.0199 285.118 97.1442 284.289 97.1442C283.467 97.1442 282.751 97.0182 282.142 96.7663C281.535 96.5144 281.061 96.1416 280.72 95.6477C280.382 95.1506 280.204 94.5357 280.188 93.8033H282.271C282.294 94.1446 282.392 94.4297 282.564 94.6584C282.74 94.8838 282.973 95.0545 283.265 95.1705C283.56 95.2831 283.893 95.3395 284.264 95.3395C284.629 95.3395 284.945 95.2865 285.214 95.1804C285.486 95.0743 285.696 94.9268 285.845 94.7379C285.994 94.549 286.069 94.3319 286.069 94.0866C286.069 93.858 286.001 93.6657 285.865 93.5099C285.733 93.3542 285.537 93.2216 285.279 93.1122C285.023 93.0028 284.71 92.9034 284.339 92.8139L283.23 92.5355C282.372 92.3267 281.694 92.0002 281.197 91.5561C280.7 91.112 280.453 90.5137 280.456 89.7614C280.453 89.1449 280.617 88.6063 280.948 88.1456C281.283 87.6849 281.742 87.3253 282.325 87.0668C282.909 86.8082 283.572 86.679 284.314 86.679C285.07 86.679 285.729 86.8082 286.293 87.0668C286.86 87.3253 287.3 87.6849 287.615 88.1456C287.93 88.6063 288.093 89.1399 288.102 89.7464H286.039ZM294.06 86.8182V97H291.907V88.8615H291.847L289.516 90.3232V88.4141L292.036 86.8182H294.06ZM298.254 95.608L298.2 96.1548C298.157 96.5923 298.074 97.0282 297.951 97.4624C297.832 97.8999 297.706 98.2959 297.573 98.6506C297.444 99.0052 297.34 99.2836 297.26 99.4858H295.888C295.938 99.2902 296.006 99.0168 296.092 98.6655C296.178 98.3175 296.259 97.9264 296.335 97.4922C296.412 97.058 296.46 96.6155 296.48 96.1648L296.504 95.608H298.254ZM300.017 95.2102V93.5149L304.268 86.8182H305.729V89.1648H304.864L302.184 93.4055V93.4851H308.225V95.2102H300.017ZM304.904 97V94.6932L304.944 93.9425V86.8182H306.962V97H304.904ZM313.378 97.1392C312.675 97.1392 312.049 97.0099 311.499 96.7514C310.952 96.4929 310.518 96.1366 310.196 95.6825C309.875 95.2285 309.707 94.7081 309.694 94.1214H311.782C311.805 94.5159 311.971 94.8357 312.279 95.081C312.588 95.3262 312.954 95.4489 313.378 95.4489C313.716 95.4489 314.014 95.3743 314.273 95.2251C314.535 95.0727 314.739 94.8622 314.884 94.5938C315.034 94.322 315.108 94.0104 315.108 93.6591C315.108 93.3011 315.032 92.9863 314.879 92.7145C314.73 92.4427 314.523 92.2306 314.258 92.0781C313.993 91.9257 313.69 91.8478 313.348 91.8445C313.05 91.8445 312.76 91.9058 312.478 92.0284C312.2 92.151 311.983 92.3184 311.827 92.5305L309.913 92.1875L310.395 86.8182H316.619V88.5781H312.17L311.906 91.1286H311.966C312.145 90.8767 312.415 90.6679 312.776 90.5021C313.138 90.3364 313.542 90.2536 313.99 90.2536C314.603 90.2536 315.15 90.3977 315.63 90.6861C316.111 90.9744 316.49 91.3705 316.769 91.8743C317.047 92.3748 317.185 92.9515 317.181 93.6044C317.185 94.2905 317.026 94.9003 316.704 95.4339C316.386 95.9643 315.94 96.3819 315.367 96.6868C314.797 96.9884 314.134 97.1392 313.378 97.1392ZM322.675 97.2237C321.82 97.2204 321.084 97.0099 320.468 96.5923C319.854 96.1747 319.382 95.5698 319.051 94.7777C318.722 93.9856 318.56 93.0327 318.563 91.919C318.563 90.8087 318.727 89.8625 319.056 89.0803C319.387 88.2981 319.859 87.7031 320.472 87.2955C321.089 86.8845 321.823 86.679 322.675 86.679C323.527 86.679 324.259 86.8845 324.872 87.2955C325.489 87.7064 325.963 88.303 326.294 89.0852C326.626 89.8641 326.79 90.8087 326.786 91.919C326.786 93.036 326.621 93.9905 326.289 94.7827C325.961 95.5748 325.49 96.1797 324.877 96.5973C324.264 97.0149 323.53 97.2237 322.675 97.2237ZM322.675 95.4389C323.258 95.4389 323.724 95.1456 324.072 94.5589C324.42 93.9723 324.592 93.0923 324.589 91.919C324.589 91.1468 324.509 90.5038 324.35 89.9901C324.195 89.4763 323.972 89.0902 323.684 88.8317C323.399 88.5732 323.063 88.4439 322.675 88.4439C322.095 88.4439 321.631 88.7339 321.283 89.3139C320.935 89.8939 320.759 90.7623 320.756 91.919C320.756 92.7012 320.834 93.3542 320.99 93.8778C321.149 94.3982 321.372 94.7893 321.661 95.0511C321.949 95.3097 322.287 95.4389 322.675 95.4389ZM329.169 97.1293C328.841 97.1293 328.559 97.0133 328.324 96.7812C328.092 96.5459 327.976 96.2642 327.976 95.9361C327.976 95.6113 328.092 95.3329 328.324 95.1009C328.559 94.8688 328.841 94.7528 329.169 94.7528C329.487 94.7528 329.766 94.8688 330.004 95.1009C330.243 95.3329 330.362 95.6113 330.362 95.9361C330.362 96.1548 330.306 96.3554 330.193 96.5376C330.084 96.7166 329.94 96.8608 329.761 96.9702C329.582 97.0762 329.384 97.1293 329.169 97.1293ZM331.927 95.2102V93.5149L336.178 86.8182H337.639V89.1648H336.774L334.095 93.4055V93.4851H340.135V95.2102H331.927ZM336.814 97V94.6932L336.854 93.9425V86.8182H338.872V97H336.814ZM345.368 97.1392C344.602 97.1392 343.921 97.0149 343.324 96.7663C342.731 96.5144 342.265 96.1714 341.927 95.7372C341.589 95.303 341.42 94.8108 341.42 94.2607C341.42 93.8364 341.516 93.447 341.709 93.0923C341.904 92.7344 342.169 92.4377 342.504 92.2024C342.839 91.9638 343.213 91.8113 343.628 91.745V91.6754C343.084 91.5661 342.643 91.3026 342.305 90.8849C341.967 90.464 341.798 89.9751 341.798 89.4183C341.798 88.8913 341.952 88.4223 342.26 88.0114C342.569 87.5971 342.991 87.2723 343.528 87.0369C344.068 86.7983 344.682 86.679 345.368 86.679C346.054 86.679 346.665 86.7983 347.202 87.0369C347.742 87.2756 348.167 87.602 348.475 88.0163C348.783 88.4273 348.939 88.8946 348.942 89.4183C348.939 89.9785 348.767 90.4673 348.425 90.8849C348.084 91.3026 347.646 91.5661 347.113 91.6754V91.745C347.52 91.8113 347.89 91.9638 348.221 92.2024C348.556 92.4377 348.821 92.7344 349.017 93.0923C349.216 93.447 349.317 93.8364 349.32 94.2607C349.317 94.8108 349.146 95.303 348.808 95.7372C348.47 96.1714 348.003 96.5144 347.406 96.7663C346.813 97.0149 346.133 97.1392 345.368 97.1392ZM345.368 95.5582C345.709 95.5582 346.007 95.4969 346.263 95.3743C346.518 95.2483 346.717 95.076 346.859 94.8572C347.005 94.6352 347.078 94.38 347.078 94.0916C347.078 93.7966 347.003 93.5365 346.854 93.3111C346.705 93.0824 346.503 92.9034 346.248 92.7741C345.992 92.6416 345.699 92.5753 345.368 92.5753C345.04 92.5753 344.746 92.6416 344.488 92.7741C344.229 92.9034 344.025 93.0824 343.876 93.3111C343.73 93.5365 343.657 93.7966 343.657 94.0916C343.657 94.38 343.729 94.6352 343.871 94.8572C344.014 95.076 344.214 95.2483 344.473 95.3743C344.731 95.4969 345.03 95.5582 345.368 95.5582ZM345.368 91.0092C345.653 91.0092 345.906 90.9512 346.128 90.8352C346.35 90.7192 346.524 90.5585 346.65 90.353C346.776 90.1475 346.839 89.9105 346.839 89.642C346.839 89.3769 346.776 89.1449 346.65 88.946C346.524 88.7438 346.352 88.5864 346.133 88.4737C345.915 88.3577 345.659 88.2997 345.368 88.2997C345.079 88.2997 344.824 88.3577 344.602 88.4737C344.38 88.5864 344.206 88.7438 344.08 88.946C343.957 89.1449 343.896 89.3769 343.896 89.642C343.896 89.9105 343.959 90.1475 344.085 90.353C344.211 90.5585 344.385 90.7192 344.607 90.8352C344.829 90.9512 345.083 91.0092 345.368 91.0092Z" fill="#F24E30"/>
<path d="M284.868 166.449V159.409H286.648V166.449H284.868ZM282.238 163.819V162.039H289.278V163.819H282.238ZM294.761 169.273V156.545H295.577V169.273H294.761ZM296.924 160.746C296.884 160.345 296.714 160.034 296.412 159.812C296.11 159.59 295.701 159.479 295.184 159.479C294.833 159.479 294.536 159.528 294.294 159.628C294.052 159.724 293.866 159.858 293.737 160.031C293.611 160.203 293.548 160.398 293.548 160.617C293.542 160.799 293.58 160.959 293.663 161.094C293.749 161.23 293.866 161.348 294.016 161.447C294.165 161.544 294.337 161.628 294.533 161.701C294.728 161.771 294.937 161.83 295.159 161.88L296.074 162.099C296.518 162.198 296.926 162.331 297.297 162.496C297.668 162.662 297.99 162.866 298.261 163.108C298.533 163.35 298.744 163.635 298.893 163.963C299.045 164.291 299.123 164.667 299.126 165.092C299.123 165.715 298.964 166.255 298.649 166.712C298.338 167.166 297.887 167.519 297.297 167.771C296.71 168.02 296.003 168.144 295.174 168.144C294.352 168.144 293.636 168.018 293.026 167.766C292.42 167.514 291.946 167.142 291.604 166.648C291.266 166.151 291.089 165.536 291.072 164.803H293.156C293.179 165.145 293.277 165.43 293.449 165.658C293.625 165.884 293.858 166.054 294.15 166.17C294.445 166.283 294.778 166.339 295.149 166.339C295.514 166.339 295.83 166.286 296.099 166.18C296.371 166.074 296.581 165.927 296.73 165.738C296.879 165.549 296.954 165.332 296.954 165.087C296.954 164.858 296.886 164.666 296.75 164.51C296.617 164.354 296.422 164.222 296.163 164.112C295.908 164.003 295.595 163.903 295.224 163.814L294.115 163.536C293.257 163.327 292.579 163 292.082 162.556C291.585 162.112 291.338 161.514 291.341 160.761C291.338 160.145 291.502 159.606 291.833 159.146C292.168 158.685 292.627 158.325 293.21 158.067C293.794 157.808 294.456 157.679 295.199 157.679C295.955 157.679 296.614 157.808 297.178 158.067C297.744 158.325 298.185 158.685 298.5 159.146C298.815 159.606 298.977 160.14 298.987 160.746H296.924ZM300.361 166.21V164.515L304.611 157.818H306.073V160.165H305.208L302.528 164.406V164.485H308.569V166.21H300.361ZM305.248 168V165.693L305.287 164.942V157.818H307.306V168H305.248ZM313.722 168.139C313.019 168.139 312.393 168.01 311.843 167.751C311.296 167.493 310.861 167.137 310.54 166.683C310.218 166.228 310.051 165.708 310.038 165.121H312.126C312.149 165.516 312.315 165.836 312.623 166.081C312.931 166.326 313.298 166.449 313.722 166.449C314.06 166.449 314.358 166.374 314.617 166.225C314.878 166.073 315.082 165.862 315.228 165.594C315.377 165.322 315.452 165.01 315.452 164.659C315.452 164.301 315.376 163.986 315.223 163.714C315.074 163.443 314.867 163.231 314.602 163.078C314.337 162.926 314.033 162.848 313.692 162.844C313.394 162.844 313.104 162.906 312.822 163.028C312.544 163.151 312.326 163.318 312.171 163.531L310.257 163.188L310.739 157.818H316.963V159.578H312.514L312.25 162.129H312.31C312.489 161.877 312.759 161.668 313.12 161.502C313.481 161.336 313.886 161.254 314.333 161.254C314.946 161.254 315.493 161.398 315.974 161.686C316.454 161.974 316.834 162.371 317.112 162.874C317.391 163.375 317.528 163.951 317.525 164.604C317.528 165.29 317.369 165.9 317.048 166.434C316.73 166.964 316.284 167.382 315.71 167.687C315.14 167.988 314.477 168.139 313.722 168.139ZM323.019 168.224C322.164 168.22 321.428 168.01 320.811 167.592C320.198 167.175 319.726 166.57 319.394 165.778C319.066 164.986 318.904 164.033 318.907 162.919C318.907 161.809 319.071 160.862 319.399 160.08C319.731 159.298 320.203 158.703 320.816 158.295C321.433 157.884 322.167 157.679 323.019 157.679C323.87 157.679 324.603 157.884 325.216 158.295C325.833 158.706 326.307 159.303 326.638 160.085C326.969 160.864 327.133 161.809 327.13 162.919C327.13 164.036 326.964 164.991 326.633 165.783C326.305 166.575 325.834 167.18 325.221 167.597C324.608 168.015 323.874 168.224 323.019 168.224ZM323.019 166.439C323.602 166.439 324.068 166.146 324.416 165.559C324.764 164.972 324.936 164.092 324.933 162.919C324.933 162.147 324.853 161.504 324.694 160.99C324.538 160.476 324.316 160.09 324.028 159.832C323.743 159.573 323.406 159.444 323.019 159.444C322.439 159.444 321.975 159.734 321.627 160.314C321.279 160.894 321.103 161.762 321.1 162.919C321.1 163.701 321.177 164.354 321.333 164.878C321.492 165.398 321.716 165.789 322.004 166.051C322.293 166.31 322.631 166.439 323.019 166.439ZM329.513 168.129C329.185 168.129 328.903 168.013 328.668 167.781C328.436 167.546 328.32 167.264 328.32 166.936C328.32 166.611 328.436 166.333 328.668 166.101C328.903 165.869 329.185 165.753 329.513 165.753C329.831 165.753 330.109 165.869 330.348 166.101C330.587 166.333 330.706 166.611 330.706 166.936C330.706 167.155 330.65 167.355 330.537 167.538C330.428 167.717 330.283 167.861 330.104 167.97C329.925 168.076 329.728 168.129 329.513 168.129ZM336.007 168.224C335.152 168.22 334.416 168.01 333.8 167.592C333.186 167.175 332.714 166.57 332.383 165.778C332.055 164.986 331.892 164.033 331.895 162.919C331.895 161.809 332.059 160.862 332.388 160.08C332.719 159.298 333.191 158.703 333.805 158.295C334.421 157.884 335.155 157.679 336.007 157.679C336.859 157.679 337.591 157.884 338.204 158.295C338.821 158.706 339.295 159.303 339.626 160.085C339.958 160.864 340.122 161.809 340.118 162.919C340.118 164.036 339.953 164.991 339.621 165.783C339.293 166.575 338.823 167.18 338.209 167.597C337.596 168.015 336.862 168.224 336.007 168.224ZM336.007 166.439C336.59 166.439 337.056 166.146 337.404 165.559C337.752 164.972 337.924 164.092 337.921 162.919C337.921 162.147 337.841 161.504 337.682 160.99C337.527 160.476 337.305 160.09 337.016 159.832C336.731 159.573 336.395 159.444 336.007 159.444C335.427 159.444 334.963 159.734 334.615 160.314C334.267 160.894 334.091 161.762 334.088 162.919C334.088 163.701 334.166 164.354 334.322 164.878C334.481 165.398 334.704 165.789 334.993 166.051C335.281 166.31 335.619 166.439 336.007 166.439ZM345.646 168.224C344.79 168.22 344.055 168.01 343.438 167.592C342.825 167.175 342.353 166.57 342.021 165.778C341.693 164.986 341.531 164.033 341.534 162.919C341.534 161.809 341.698 160.862 342.026 160.08C342.358 159.298 342.83 158.703 343.443 158.295C344.06 157.884 344.794 157.679 345.646 157.679C346.497 157.679 347.23 157.884 347.843 158.295C348.46 158.706 348.933 159.303 349.265 160.085C349.596 160.864 349.76 161.809 349.757 162.919C349.757 164.036 349.591 164.991 349.26 165.783C348.932 166.575 348.461 167.18 347.848 167.597C347.235 168.015 346.501 168.224 345.646 168.224ZM345.646 166.439C346.229 166.439 346.695 166.146 347.043 165.559C347.391 164.972 347.563 164.092 347.56 162.919C347.56 162.147 347.48 161.504 347.321 160.99C347.165 160.476 346.943 160.09 346.655 159.832C346.37 159.573 346.033 159.444 345.646 159.444C345.066 159.444 344.602 159.734 344.254 160.314C343.906 160.894 343.73 161.762 343.727 162.919C343.727 163.701 343.804 164.354 343.96 164.878C344.119 165.398 344.343 165.789 344.631 166.051C344.92 166.31 345.258 166.439 345.646 166.439Z" fill="#5AE677"/>
<rect x="25.5" y="77.5" width="44" height="44" rx="9.5" fill="#146EF5" fill-opacity="0.1" stroke="#F0F0F0"/>
<rect x="25.5" y="148.5" width="44" height="44" rx="9.5" fill="#146EF5" fill-opacity="0.1" stroke="#F0F0F0"/>
<path d="M58.4482 174.845L38.0018 180.41L42.7105 160C46.4164 160.852 49.8281 162.677 52.5942 165.287C55.3604 167.896 57.9328 170.85 59 174.5L58.4482 174.845Z" stroke="#146EF5" stroke-width="2" stroke-linecap="round" stroke-linejoin="round"/>
<path d="M41.9818 163.151C44.7525 164.005 47.3201 165.414 49.528 167.293C51.7359 169.172 53.5376 171.482 54.8234 174.08" stroke="#146EF5" stroke-width="2" stroke-linecap="round" stroke-linejoin="round"/>
<path d="M41.3534 165.856H41.6448C42.2487 165.856 42.8279 166.096 43.2549 166.523C43.6819 166.95 43.9217 167.529 43.9217 168.133C43.9217 168.737 43.6819 169.316 43.2549 169.743C42.8279 170.17 42.2487 170.41 41.6448 170.41C41.2028 170.409 40.7701 170.283 40.3971 170.046" stroke="#146EF5" stroke-width="2" stroke-linecap="round" stroke-linejoin="round"/>
<path d="M49.1586 174.718C50.4161 174.718 51.4355 173.698 51.4355 172.441C51.4355 171.183 50.4161 170.164 49.1586 170.164C47.9011 170.164 46.8817 171.183 46.8817 172.441C46.8817 173.698 47.9011 174.718 49.1586 174.718Z" stroke="#146EF5" stroke-width="2" stroke-linecap="round" stroke-linejoin="round"/>
<path d="M45.1421 178.461C45.2385 178.211 45.2879 177.946 45.2879 177.678C45.2879 177.074 45.048 176.495 44.621 176.068C44.194 175.641 43.6148 175.401 43.011 175.401C42.4071 175.401 41.8279 175.641 41.4009 176.068C40.9739 176.495 40.7341 177.074 40.7341 177.678C40.7312 178.015 40.805 178.349 40.9502 178.653C41.0954 178.958 41.3081 179.225 41.572 179.436" stroke="#146EF5" stroke-width="2" stroke-linecap="round" stroke-linejoin="round"/>
<path d="M25.2642 45V30.4545H31.0028C32.1013 30.4545 33.0388 30.651 33.8153 31.044C34.5966 31.4323 35.1908 31.9839 35.598 32.6989C36.0099 33.4091 36.2159 34.2448 36.2159 35.206C36.2159 36.1719 36.0076 37.0028 35.5909 37.6989C35.1742 38.3902 34.5705 38.9205 33.7798 39.2898C32.9938 39.6591 32.0421 39.8438 30.9247 39.8438H27.0824V37.3722H30.4276C31.0147 37.3722 31.5024 37.2917 31.8906 37.1307C32.2789 36.9697 32.5677 36.7282 32.7571 36.4062C32.9512 36.0843 33.0483 35.6842 33.0483 35.206C33.0483 34.723 32.9512 34.3158 32.7571 33.9844C32.5677 33.6529 32.2765 33.402 31.8835 33.2315C31.4953 33.0563 31.0052 32.9688 30.4134 32.9688H28.3395V45H25.2642ZM33.1193 38.3807L36.7344 45H33.3395L29.8026 38.3807H33.1193ZM42.1282 45.2131C41.006 45.2131 40.0401 44.9858 39.2305 44.5312C38.4255 44.072 37.8053 43.4233 37.3697 42.5852C36.9341 41.7424 36.7163 40.7457 36.7163 39.5952C36.7163 38.473 36.9341 37.4882 37.3697 36.6406C37.8053 35.7931 38.4184 35.1326 39.2092 34.6591C40.0046 34.1856 40.9374 33.9489 42.0075 33.9489C42.7272 33.9489 43.3971 34.0649 44.0174 34.2969C44.6424 34.5241 45.1869 34.8674 45.6509 35.3267C46.1197 35.786 46.4843 36.3636 46.7447 37.0597C47.0051 37.7509 47.1353 38.5606 47.1353 39.4886V40.3196H37.9237V38.4446H44.2873C44.2873 38.009 44.1926 37.6231 44.0032 37.2869C43.8138 36.9508 43.551 36.688 43.2148 36.4986C42.8834 36.3045 42.4975 36.2074 42.0572 36.2074C41.5979 36.2074 41.1907 36.3139 40.8356 36.527C40.4852 36.7353 40.2106 37.017 40.0117 37.3722C39.8129 37.7225 39.7111 38.1132 39.7063 38.544V40.3267C39.7063 40.8665 39.8058 41.3329 40.0046 41.7259C40.2082 42.1188 40.4947 42.4219 40.864 42.6349C41.2333 42.848 41.6713 42.9545 42.1779 42.9545C42.5141 42.9545 42.8219 42.9072 43.1012 42.8125C43.3806 42.7178 43.6197 42.5758 43.8185 42.3864C44.0174 42.197 44.1689 41.965 44.2731 41.6903L47.0714 41.875C46.9293 42.5473 46.6381 43.1345 46.1978 43.6364C45.7622 44.1335 45.1987 44.5218 44.5075 44.8011C43.8209 45.0758 43.0278 45.2131 42.1282 45.2131ZM53.0387 45.2131C51.9213 45.2131 50.9601 44.9763 50.1552 44.5028C49.355 44.0246 48.7395 43.3617 48.3086 42.5142C47.8825 41.6667 47.6694 40.6913 47.6694 39.5881C47.6694 38.4706 47.8848 37.4905 48.3157 36.6477C48.7513 35.8002 49.3692 35.1397 50.1694 34.6662C50.9696 34.188 51.9213 33.9489 53.0245 33.9489C53.9762 33.9489 54.8095 34.1217 55.5245 34.4673C56.2395 34.813 56.8053 35.2983 57.2219 35.9233C57.6386 36.5483 57.8683 37.2822 57.9109 38.125H55.0558C54.9753 37.5805 54.7622 37.1425 54.4165 36.8111C54.0756 36.4749 53.6282 36.3068 53.0742 36.3068C52.6055 36.3068 52.1959 36.4347 51.8455 36.6903C51.4999 36.9413 51.23 37.3082 51.0359 37.7912C50.8417 38.2741 50.7447 38.8589 50.7447 39.5455C50.7447 40.2415 50.8394 40.8333 51.0288 41.321C51.2229 41.8087 51.4951 42.1804 51.8455 42.4361C52.1959 42.6918 52.6055 42.8196 53.0742 42.8196C53.4199 42.8196 53.73 42.7486 54.0046 42.6065C54.284 42.4645 54.5136 42.2585 54.6935 41.9886C54.8782 41.714 54.9989 41.3849 55.0558 41.0014H57.9109C57.8635 41.8348 57.6362 42.5687 57.229 43.2031C56.8266 43.8329 56.2702 44.3253 55.56 44.6804C54.8498 45.0355 54.0094 45.2131 53.0387 45.2131ZM63.8196 45.2131C62.6974 45.2131 61.7315 44.9858 60.9219 44.5312C60.117 44.072 59.4967 43.4233 59.0611 42.5852C58.6255 41.7424 58.4077 40.7457 58.4077 39.5952C58.4077 38.473 58.6255 37.4882 59.0611 36.6406C59.4967 35.7931 60.1098 35.1326 60.9006 34.6591C61.696 34.1856 62.6288 33.9489 63.6989 33.9489C64.4186 33.9489 65.0885 34.0649 65.7088 34.2969C66.3338 34.5241 66.8783 34.8674 67.3423 35.3267C67.8111 35.786 68.1757 36.3636 68.4361 37.0597C68.6965 37.7509 68.8267 38.5606 68.8267 39.4886V40.3196H59.6151V38.4446H65.9787C65.9787 38.009 65.884 37.6231 65.6946 37.2869C65.5052 36.9508 65.2424 36.688 64.9062 36.4986C64.5748 36.3045 64.1889 36.2074 63.7486 36.2074C63.2893 36.2074 62.8821 36.3139 62.527 36.527C62.1766 36.7353 61.902 37.017 61.7031 37.3722C61.5043 37.7225 61.4025 38.1132 61.3977 38.544V40.3267C61.3977 40.8665 61.4972 41.3329 61.696 41.7259C61.8996 42.1188 62.1861 42.4219 62.5554 42.6349C62.9247 42.848 63.3627 42.9545 63.8693 42.9545C64.2055 42.9545 64.5133 42.9072 64.7926 42.8125C65.072 42.7178 65.3111 42.5758 65.5099 42.3864C65.7088 42.197 65.8603 41.965 65.9645 41.6903L68.7628 41.875C68.6207 42.5473 68.3295 43.1345 67.8892 43.6364C67.4536 44.1335 66.8902 44.5218 66.1989 44.8011C65.5123 45.0758 64.7192 45.2131 63.8196 45.2131ZM72.8267 38.6932V45H69.8011V34.0909H72.6847V36.0156H72.8125C73.054 35.3812 73.4588 34.8793 74.027 34.5099C74.5952 34.1359 75.2841 33.9489 76.0938 33.9489C76.8513 33.9489 77.5118 34.1146 78.0753 34.446C78.6387 34.7775 79.0767 35.2509 79.3892 35.8665C79.7017 36.4773 79.858 37.2064 79.858 38.054V45H76.8324V38.5938C76.8371 37.9261 76.6667 37.4053 76.321 37.0312C75.9754 36.6525 75.4995 36.4631 74.8935 36.4631C74.4863 36.4631 74.1264 36.5507 73.8139 36.7259C73.5062 36.901 73.2647 37.1567 73.0895 37.4929C72.919 37.8243 72.8314 38.2244 72.8267 38.6932ZM87.0451 34.0909V36.3636H80.4755V34.0909H87.0451ZM81.967 31.4773H84.9925V41.6477C84.9925 41.9271 85.0352 42.1449 85.1204 42.3011C85.2056 42.4527 85.324 42.5592 85.4755 42.6207C85.6317 42.6823 85.8117 42.7131 86.0153 42.7131C86.1573 42.7131 86.2994 42.7012 86.4414 42.6776C86.5835 42.6491 86.6924 42.6278 86.7681 42.6136L87.244 44.8651C87.0924 44.9124 86.8794 44.9669 86.6048 45.0284C86.3301 45.0947 85.9963 45.1349 85.6033 45.1491C84.8742 45.1776 84.235 45.0805 83.6857 44.858C83.1412 44.6354 82.7174 44.2898 82.4144 43.821C82.1114 43.3523 81.9622 42.7604 81.967 42.0455V31.4773ZM91.1477 32.9901V30.4545H103.094V32.9901H98.6406V45H95.6009V32.9901H91.1477ZM102.871 45V34.0909H105.805V35.9943H105.918C106.117 35.3172 106.451 34.8059 106.92 34.4602C107.388 34.1098 107.928 33.9347 108.539 33.9347C108.691 33.9347 108.854 33.9441 109.029 33.9631C109.204 33.982 109.358 34.008 109.491 34.0412V36.7259C109.349 36.6832 109.152 36.6454 108.901 36.6122C108.65 36.5791 108.421 36.5625 108.212 36.5625C107.767 36.5625 107.37 36.6596 107.019 36.8537C106.674 37.0431 106.399 37.3082 106.195 37.6491C105.996 37.9901 105.897 38.383 105.897 38.8281V45H102.871ZM112.853 45.206C112.157 45.206 111.537 45.0852 110.993 44.8438C110.448 44.5975 110.017 44.2353 109.7 43.7571C109.387 43.2741 109.231 42.6728 109.231 41.9531C109.231 41.3471 109.342 40.8381 109.565 40.4261C109.788 40.0142 110.091 39.6828 110.474 39.4318C110.858 39.1809 111.293 38.9915 111.781 38.8636C112.273 38.7358 112.789 38.6458 113.329 38.5938C113.964 38.5275 114.475 38.4659 114.863 38.4091C115.252 38.3475 115.533 38.2576 115.708 38.1392C115.884 38.0208 115.971 37.8456 115.971 37.6136V37.571C115.971 37.1212 115.829 36.7732 115.545 36.527C115.266 36.2808 114.868 36.1577 114.352 36.1577C113.807 36.1577 113.374 36.2784 113.052 36.5199C112.73 36.7566 112.517 37.0549 112.413 37.4148L109.615 37.1875C109.757 36.5246 110.036 35.9517 110.453 35.4688C110.869 34.9811 111.407 34.607 112.065 34.3466C112.728 34.0814 113.495 33.9489 114.366 33.9489C114.972 33.9489 115.552 34.0199 116.106 34.1619C116.665 34.304 117.16 34.5241 117.591 34.8224C118.026 35.1207 118.369 35.5043 118.62 35.973C118.871 36.437 118.997 36.9934 118.997 37.642V45H116.127V43.4872H116.042C115.867 43.8281 115.633 44.1288 115.339 44.3892C115.046 44.6449 114.693 44.8461 114.281 44.9929C113.869 45.1349 113.393 45.206 112.853 45.206ZM113.72 43.1179C114.165 43.1179 114.558 43.0303 114.899 42.8551C115.24 42.6752 115.507 42.4337 115.701 42.1307C115.895 41.8277 115.993 41.4844 115.993 41.1009V39.9432C115.898 40.0047 115.768 40.0616 115.602 40.1136C115.441 40.161 115.259 40.206 115.055 40.2486C114.851 40.2865 114.648 40.322 114.444 40.3551C114.241 40.3835 114.056 40.4096 113.89 40.4332C113.535 40.4853 113.225 40.5682 112.96 40.6818C112.695 40.7955 112.489 40.9493 112.342 41.1435C112.195 41.3329 112.122 41.5696 112.122 41.8537C112.122 42.2656 112.271 42.5805 112.569 42.7983C112.872 43.0114 113.256 43.1179 113.72 43.1179ZM123.37 38.6932V45H120.344V34.0909H123.228V36.0156H123.355C123.597 35.3812 124.002 34.8793 124.57 34.5099C125.138 34.1359 125.827 33.9489 126.637 33.9489C127.394 33.9489 128.055 34.1146 128.618 34.446C129.182 34.7775 129.62 35.2509 129.932 35.8665C130.245 36.4773 130.401 37.2064 130.401 38.054V45H127.375V38.5938C127.38 37.9261 127.21 37.4053 126.864 37.0312C126.518 36.6525 126.042 36.4631 125.436 36.4631C125.029 36.4631 124.669 36.5507 124.357 36.7259C124.049 36.901 123.808 37.1567 123.632 37.4929C123.462 37.8243 123.374 38.2244 123.37 38.6932ZM140.862 37.2017L138.092 37.3722C138.045 37.1354 137.943 36.9223 137.787 36.733C137.631 36.5388 137.425 36.3849 137.169 36.2713C136.918 36.1529 136.617 36.0938 136.267 36.0938C135.798 36.0938 135.403 36.1932 135.081 36.392C134.759 36.5862 134.598 36.8466 134.598 37.1733C134.598 37.4337 134.702 37.6539 134.911 37.8338C135.119 38.0137 135.476 38.1581 135.983 38.267L137.957 38.6648C139.018 38.8826 139.809 39.233 140.33 39.7159C140.85 40.1989 141.111 40.8333 141.111 41.6193C141.111 42.3343 140.9 42.9616 140.479 43.5014C140.062 44.0412 139.489 44.4626 138.76 44.7656C138.036 45.0639 137.2 45.2131 136.253 45.2131C134.809 45.2131 133.658 44.9124 132.801 44.3111C131.949 43.705 131.449 42.8812 131.303 41.8395L134.278 41.6832C134.368 42.1236 134.586 42.4598 134.932 42.6918C135.277 42.919 135.72 43.0327 136.26 43.0327C136.79 43.0327 137.216 42.9309 137.538 42.7273C137.865 42.5189 138.031 42.2514 138.036 41.9247C138.031 41.6501 137.915 41.4252 137.688 41.25C137.46 41.0701 137.11 40.9328 136.636 40.8381L134.747 40.4616C133.682 40.2486 132.889 39.8793 132.368 39.3537C131.852 38.8281 131.594 38.1581 131.594 37.3438C131.594 36.643 131.783 36.0393 132.162 35.5327C132.545 35.026 133.083 34.6354 133.774 34.3608C134.47 34.0862 135.285 33.9489 136.217 33.9489C137.595 33.9489 138.679 34.2401 139.47 34.8224C140.266 35.4048 140.73 36.1979 140.862 37.2017ZM145.127 45.206C144.431 45.206 143.81 45.0852 143.266 44.8438C142.721 44.5975 142.291 44.2353 141.973 43.7571C141.661 43.2741 141.505 42.6728 141.505 41.9531C141.505 41.3471 141.616 40.8381 141.838 40.4261C142.061 40.0142 142.364 39.6828 142.748 39.4318C143.131 39.1809 143.567 38.9915 144.054 38.8636C144.547 38.7358 145.063 38.6458 145.603 38.5938C146.237 38.5275 146.748 38.4659 147.137 38.4091C147.525 38.3475 147.807 38.2576 147.982 38.1392C148.157 38.0208 148.245 37.8456 148.245 37.6136V37.571C148.245 37.1212 148.103 36.7732 147.819 36.527C147.539 36.2808 147.141 36.1577 146.625 36.1577C146.081 36.1577 145.648 36.2784 145.326 36.5199C145.004 36.7566 144.791 37.0549 144.686 37.4148L141.888 37.1875C142.03 36.5246 142.31 35.9517 142.726 35.4688C143.143 34.9811 143.68 34.607 144.338 34.3466C145.001 34.0814 145.768 33.9489 146.64 33.9489C147.246 33.9489 147.826 34.0199 148.38 34.1619C148.938 34.304 149.433 34.5241 149.864 34.8224C150.3 35.1207 150.643 35.5043 150.894 35.973C151.145 36.437 151.27 36.9934 151.27 37.642V45H148.401V43.4872H148.316C148.141 43.8281 147.906 44.1288 147.613 44.3892C147.319 44.6449 146.966 44.8461 146.554 44.9929C146.142 45.1349 145.667 45.206 145.127 45.206ZM145.993 43.1179C146.438 43.1179 146.831 43.0303 147.172 42.8551C147.513 42.6752 147.781 42.4337 147.975 42.1307C148.169 41.8277 148.266 41.4844 148.266 41.1009V39.9432C148.171 40.0047 148.041 40.0616 147.875 40.1136C147.714 40.161 147.532 40.206 147.328 40.2486C147.125 40.2865 146.921 40.322 146.718 40.3551C146.514 40.3835 146.329 40.4096 146.164 40.4332C145.809 40.4853 145.498 40.5682 145.233 40.6818C144.968 40.7955 144.762 40.9493 144.615 41.1435C144.469 41.3329 144.395 41.5696 144.395 41.8537C144.395 42.2656 144.544 42.5805 144.843 42.7983C145.146 43.0114 145.529 43.1179 145.993 43.1179ZM157.547 45.2131C156.429 45.2131 155.468 44.9763 154.663 44.5028C153.863 44.0246 153.247 43.3617 152.816 42.5142C152.39 41.6667 152.177 40.6913 152.177 39.5881C152.177 38.4706 152.393 37.4905 152.824 36.6477C153.259 35.8002 153.877 35.1397 154.677 34.6662C155.477 34.188 156.429 33.9489 157.532 33.9489C158.484 33.9489 159.317 34.1217 160.032 34.4673C160.747 34.813 161.313 35.2983 161.73 35.9233C162.146 36.5483 162.376 37.2822 162.419 38.125H159.564C159.483 37.5805 159.27 37.1425 158.924 36.8111C158.583 36.4749 158.136 36.3068 157.582 36.3068C157.113 36.3068 156.704 36.4347 156.353 36.6903C156.008 36.9413 155.738 37.3082 155.544 37.7912C155.35 38.2741 155.252 38.8589 155.252 39.5455C155.252 40.2415 155.347 40.8333 155.537 41.321C155.731 41.8087 156.003 42.1804 156.353 42.4361C156.704 42.6918 157.113 42.8196 157.582 42.8196C157.928 42.8196 158.238 42.7486 158.512 42.6065C158.792 42.4645 159.021 42.2585 159.201 41.9886C159.386 41.714 159.507 41.3849 159.564 41.0014H162.419C162.371 41.8348 162.144 42.5687 161.737 43.2031C161.334 43.8329 160.778 44.3253 160.068 44.6804C159.358 45.0355 158.517 45.2131 157.547 45.2131ZM169.158 34.0909V36.3636H162.589V34.0909H169.158ZM164.08 31.4773H167.106V41.6477C167.106 41.9271 167.148 42.1449 167.234 42.3011C167.319 42.4527 167.437 42.5592 167.589 42.6207C167.745 42.6823 167.925 42.7131 168.129 42.7131C168.271 42.7131 168.413 42.7012 168.555 42.6776C168.697 42.6491 168.806 42.6278 168.881 42.6136L169.357 44.8651C169.206 44.9124 168.993 44.9669 168.718 45.0284C168.443 45.0947 168.11 45.1349 167.717 45.1491C166.987 45.1776 166.348 45.0805 165.799 44.858C165.254 44.6354 164.831 44.2898 164.528 43.821C164.225 43.3523 164.076 42.7604 164.08 42.0455V31.4773ZM170.129 45V34.0909H173.155V45H170.129ZM171.649 32.6847C171.199 32.6847 170.813 32.5355 170.491 32.2372C170.174 31.9342 170.016 31.572 170.016 31.1506C170.016 30.7339 170.174 30.3764 170.491 30.0781C170.813 29.7751 171.199 29.6236 171.649 29.6236C172.099 29.6236 172.482 29.7751 172.8 30.0781C173.122 30.3764 173.283 30.7339 173.283 31.1506C173.283 31.572 173.122 31.9342 172.8 32.2372C172.482 32.5355 172.099 32.6847 171.649 32.6847ZM179.507 45.2131C178.404 45.2131 177.45 44.9787 176.645 44.5099C175.845 44.0365 175.227 43.3783 174.792 42.5355C174.356 41.688 174.138 40.7055 174.138 39.5881C174.138 38.4612 174.356 37.4763 174.792 36.6335C175.227 35.786 175.845 35.1278 176.645 34.6591C177.45 34.1856 178.404 33.9489 179.507 33.9489C180.611 33.9489 181.562 34.1856 182.363 34.6591C183.167 35.1278 183.788 35.786 184.223 36.6335C184.659 37.4763 184.877 38.4612 184.877 39.5881C184.877 40.7055 184.659 41.688 184.223 42.5355C183.788 43.3783 183.167 44.0365 182.363 44.5099C181.562 44.9787 180.611 45.2131 179.507 45.2131ZM179.522 42.8693C180.024 42.8693 180.443 42.7273 180.779 42.4432C181.115 42.1544 181.368 41.7614 181.539 41.2642C181.714 40.767 181.801 40.2012 181.801 39.5668C181.801 38.9323 181.714 38.3665 181.539 37.8693C181.368 37.3722 181.115 36.9792 180.779 36.6903C180.443 36.4015 180.024 36.2571 179.522 36.2571C179.015 36.2571 178.589 36.4015 178.243 36.6903C177.902 36.9792 177.644 37.3722 177.469 37.8693C177.299 38.3665 177.213 38.9323 177.213 39.5668C177.213 40.2012 177.299 40.767 177.469 41.2642C177.644 41.7614 177.902 42.1544 178.243 42.4432C178.589 42.7273 179.015 42.8693 179.522 42.8693ZM188.87 38.6932V45H185.844V34.0909H188.728V36.0156H188.855C189.097 35.3812 189.502 34.8793 190.07 34.5099C190.638 34.1359 191.327 33.9489 192.137 33.9489C192.894 33.9489 193.555 34.1146 194.118 34.446C194.682 34.7775 195.12 35.2509 195.432 35.8665C195.745 36.4773 195.901 37.2064 195.901 38.054V45H192.875V38.5938C192.88 37.9261 192.71 37.4053 192.364 37.0312C192.018 36.6525 191.542 36.4631 190.936 36.4631C190.529 36.4631 190.169 36.5507 189.857 36.7259C189.549 36.901 189.308 37.1567 189.132 37.4929C188.962 37.8243 188.874 38.2244 188.87 38.6932Z" fill="#2D2D2D"/>
<path d="M53 102H43" stroke="#146EF5" stroke-width="2" stroke-linecap="round" stroke-linejoin="round"/>
<path d="M39 102H37L36 100V98L38 95C38.17 94.66 38.62 94 39 94H49.59C49.8524 94.0011 50.1037 94.1053 50.29 94.29L52.77 96.77C52.9192 96.919 53.1117 97.017 53.32 97.05L58 98.05C58.2523 98.0863 58.4861 98.2033 58.6664 98.3835C58.8466 98.5638 58.9637 98.7977 59 99.05V102.05H57" stroke="#146EF5" stroke-width="2" stroke-linecap="round" stroke-linejoin="round"/>
<path d="M41 104C42.1046 104 43 103.105 43 102C43 100.895 42.1046 100 41 100C39.8954 100 39 100.895 39 102C39 103.105 39.8954 104 41 104Z" stroke="#146EF5" stroke-width="2" stroke-linecap="round" stroke-linejoin="round"/>
<path d="M55 104C56.1046 104 57 103.105 57 102C57 100.895 56.1046 100 55 100C53.8954 100 53 100.895 53 102C53 103.105 53.8954 104 55 104Z" stroke="#146EF5" stroke-width="2" stroke-linecap="round" stroke-linejoin="round"/>
<path d="M98.4261 88H97.1932C97.1203 87.6454 96.9927 87.3338 96.8104 87.0653C96.6314 86.7969 96.4126 86.5715 96.1541 86.3892C95.8989 86.2036 95.6155 86.0644 95.304 85.9716C94.9924 85.8788 94.6676 85.8324 94.3295 85.8324C93.7131 85.8324 93.1546 85.9882 92.6541 86.2997C92.157 86.6113 91.7609 87.0703 91.4659 87.6768C91.1742 88.2834 91.0284 89.0275 91.0284 89.9091C91.0284 90.7907 91.1742 91.5348 91.4659 92.1413C91.7609 92.7479 92.157 93.2069 92.6541 93.5185C93.1546 93.83 93.7131 93.9858 94.3295 93.9858C94.6676 93.9858 94.9924 93.9394 95.304 93.8466C95.6155 93.7538 95.8989 93.6162 96.1541 93.4339C96.4126 93.2483 96.6314 93.0213 96.8104 92.7528C96.9927 92.4811 97.1203 92.1695 97.1932 91.8182H98.4261C98.3333 92.3385 98.1643 92.8042 97.919 93.2152C97.6738 93.6262 97.3688 93.9759 97.0043 94.2642C96.6397 94.5492 96.2304 94.7663 95.7763 94.9155C95.3255 95.0646 94.8433 95.1392 94.3295 95.1392C93.4612 95.1392 92.6889 94.9271 92.0128 94.5028C91.3366 94.0786 90.8047 93.4754 90.4169 92.6932C90.0291 91.911 89.8352 90.983 89.8352 89.9091C89.8352 88.8352 90.0291 87.9072 90.4169 87.125C90.8047 86.3428 91.3366 85.7396 92.0128 85.3153C92.6889 84.8911 93.4612 84.679 94.3295 84.679C94.8433 84.679 95.3255 84.7536 95.7763 84.9027C96.2304 85.0518 96.6397 85.2706 97.0043 85.5589C97.3688 85.844 97.6738 86.192 97.919 86.603C98.1643 87.0107 98.3333 87.4763 98.4261 88ZM102.507 95.179C102.023 95.179 101.584 95.0878 101.189 94.9055C100.795 94.7199 100.481 94.4531 100.249 94.1051C100.017 93.7538 99.9015 93.3295 99.9015 92.8324C99.9015 92.3949 99.9876 92.0402 100.16 91.7685C100.332 91.4934 100.563 91.2779 100.851 91.1222C101.139 90.9664 101.458 90.8504 101.806 90.7741C102.157 90.6946 102.51 90.6316 102.865 90.5852C103.329 90.5256 103.705 90.4808 103.993 90.451C104.285 90.4179 104.497 90.3632 104.629 90.2869C104.765 90.2107 104.833 90.0781 104.833 89.8892V89.8494C104.833 89.3589 104.699 88.9777 104.431 88.706C104.165 88.4342 103.763 88.2983 103.222 88.2983C102.662 88.2983 102.223 88.4209 101.905 88.6662C101.587 88.9115 101.363 89.1733 101.234 89.4517L100.12 89.054C100.319 88.59 100.584 88.2287 100.916 87.9702C101.25 87.7083 101.615 87.526 102.009 87.4233C102.407 87.3172 102.798 87.2642 103.183 87.2642C103.428 87.2642 103.71 87.294 104.028 87.3537C104.349 87.41 104.659 87.5277 104.958 87.7067C105.259 87.8857 105.509 88.1558 105.708 88.517C105.907 88.8783 106.007 89.3622 106.007 89.9688V95H104.833V93.9659H104.774C104.694 94.1316 104.561 94.3089 104.376 94.4979C104.19 94.6868 103.943 94.8475 103.635 94.9801C103.327 95.1127 102.951 95.179 102.507 95.179ZM102.686 94.125C103.15 94.125 103.541 94.0339 103.859 93.8516C104.18 93.6693 104.422 93.4339 104.585 93.1456C104.75 92.8572 104.833 92.554 104.833 92.2358V91.1619C104.784 91.2216 104.674 91.2763 104.505 91.326C104.339 91.3724 104.147 91.4138 103.928 91.4503C103.713 91.4834 103.503 91.5133 103.297 91.5398C103.095 91.563 102.931 91.5829 102.805 91.5994C102.5 91.6392 102.215 91.7038 101.95 91.7933C101.688 91.8795 101.476 92.0104 101.313 92.1861C101.154 92.3584 101.075 92.5937 101.075 92.892C101.075 93.2997 101.226 93.608 101.527 93.8168C101.832 94.0223 102.218 94.125 102.686 94.125ZM108.307 95V84.8182H109.48V88.5767H109.58C109.666 88.4441 109.785 88.2751 109.938 88.0696C110.094 87.8608 110.316 87.6752 110.604 87.5128C110.896 87.3471 111.29 87.2642 111.787 87.2642C112.43 87.2642 112.997 87.425 113.488 87.7464C113.978 88.0679 114.361 88.5237 114.636 89.1136C114.911 89.7036 115.049 90.3996 115.049 91.2017C115.049 92.0104 114.911 92.7114 114.636 93.3047C114.361 93.8946 113.98 94.352 113.493 94.6768C113.005 94.9983 112.444 95.1591 111.807 95.1591C111.317 95.1591 110.924 95.0779 110.629 94.9155C110.334 94.7498 110.107 94.5625 109.948 94.3537C109.789 94.1416 109.666 93.9659 109.58 93.8267H109.441V95H108.307ZM109.461 91.1818C109.461 91.7585 109.545 92.2673 109.714 92.7081C109.883 93.1456 110.13 93.4886 110.455 93.7372C110.78 93.9825 111.177 94.1051 111.648 94.1051C112.139 94.1051 112.548 93.9759 112.876 93.7173C113.208 93.4555 113.456 93.1042 113.622 92.6634C113.791 92.2192 113.875 91.7254 113.875 91.1818C113.875 90.6449 113.792 90.161 113.627 89.7301C113.464 89.2959 113.217 88.9529 112.886 88.701C112.558 88.4458 112.145 88.3182 111.648 88.3182C111.171 88.3182 110.77 88.4392 110.445 88.6811C110.12 88.9197 109.875 89.2545 109.709 89.6854C109.543 90.1129 109.461 90.6117 109.461 91.1818ZM124.102 87.3636V88.358H120.145V87.3636H124.102ZM121.298 85.5341H122.471V92.8125C122.471 93.1439 122.519 93.3925 122.615 93.5582C122.715 93.7206 122.841 93.83 122.993 93.8864C123.149 93.9394 123.313 93.9659 123.485 93.9659C123.615 93.9659 123.721 93.9593 123.804 93.946C123.886 93.9295 123.953 93.9162 124.002 93.9062L124.241 94.9602C124.162 94.9901 124.051 95.0199 123.908 95.0497C123.766 95.0829 123.585 95.0994 123.366 95.0994C123.035 95.0994 122.71 95.0282 122.392 94.8857C122.077 94.7431 121.815 94.526 121.606 94.2344C121.401 93.9427 121.298 93.5748 121.298 93.1307V85.5341ZM128.887 95.1591C128.198 95.1591 127.593 94.995 127.072 94.6669C126.555 94.3388 126.151 93.8797 125.859 93.2898C125.571 92.6998 125.427 92.0104 125.427 91.2216C125.427 90.4261 125.571 89.7318 125.859 89.1385C126.151 88.5452 126.555 88.0845 127.072 87.7564C127.593 87.4283 128.198 87.2642 128.887 87.2642C129.576 87.2642 130.18 87.4283 130.697 87.7564C131.217 88.0845 131.621 88.5452 131.91 89.1385C132.201 89.7318 132.347 90.4261 132.347 91.2216C132.347 92.0104 132.201 92.6998 131.91 93.2898C131.621 93.8797 131.217 94.3388 130.697 94.6669C130.18 94.995 129.576 95.1591 128.887 95.1591ZM128.887 94.1051C129.411 94.1051 129.842 93.9709 130.18 93.7024C130.518 93.4339 130.768 93.081 130.93 92.6435C131.093 92.206 131.174 91.732 131.174 91.2216C131.174 90.7112 131.093 90.2356 130.93 89.7947C130.768 89.3539 130.518 88.9976 130.18 88.7259C129.842 88.4541 129.411 88.3182 128.887 88.3182C128.363 88.3182 127.933 88.4541 127.594 88.7259C127.256 88.9976 127.006 89.3539 126.844 89.7947C126.681 90.2356 126.6 90.7112 126.6 91.2216C126.6 91.732 126.681 92.206 126.844 92.6435C127.006 93.081 127.256 93.4339 127.594 93.7024C127.933 93.9709 128.363 94.1051 128.887 94.1051ZM139.249 90.4062V95H138.076V84.8182H139.249V88.5568H139.349C139.528 88.1624 139.796 87.8492 140.154 87.6172C140.515 87.3819 140.996 87.2642 141.596 87.2642C142.116 87.2642 142.572 87.3686 142.963 87.5774C143.354 87.7829 143.657 88.0994 143.873 88.527C144.091 88.9512 144.201 89.4915 144.201 90.1477V95H143.028V90.2273C143.028 89.6207 142.87 89.1518 142.555 88.8203C142.244 88.4856 141.811 88.3182 141.258 88.3182C140.873 88.3182 140.528 88.3994 140.224 88.5618C139.922 88.7242 139.683 88.9612 139.508 89.2727C139.335 89.5843 139.249 89.9621 139.249 90.4062ZM149.45 95.1591C148.76 95.1591 148.155 94.995 147.635 94.6669C147.118 94.3388 146.714 93.8797 146.422 93.2898C146.134 92.6998 145.989 92.0104 145.989 91.2216C145.989 90.4261 146.134 89.7318 146.422 89.1385C146.714 88.5452 147.118 88.0845 147.635 87.7564C148.155 87.4283 148.76 87.2642 149.45 87.2642C150.139 87.2642 150.742 87.4283 151.259 87.7564C151.78 88.0845 152.184 88.5452 152.472 89.1385C152.764 89.7318 152.91 90.4261 152.91 91.2216C152.91 92.0104 152.764 92.6998 152.472 93.2898C152.184 93.8797 151.78 94.3388 151.259 94.6669C150.742 94.995 150.139 95.1591 149.45 95.1591ZM149.45 94.1051C149.973 94.1051 150.404 93.9709 150.742 93.7024C151.08 93.4339 151.33 93.081 151.493 92.6435C151.655 92.206 151.737 91.732 151.737 91.2216C151.737 90.7112 151.655 90.2356 151.493 89.7947C151.33 89.3539 151.08 88.9976 150.742 88.7259C150.404 88.4541 149.973 88.3182 149.45 88.3182C148.926 88.3182 148.495 88.4541 148.157 88.7259C147.819 88.9976 147.569 89.3539 147.406 89.7947C147.244 90.2356 147.163 90.7112 147.163 91.2216C147.163 91.732 147.244 92.206 147.406 92.6435C147.569 93.081 147.819 93.4339 148.157 93.7024C148.495 93.9709 148.926 94.1051 149.45 94.1051ZM154.701 95V87.3636H155.834V88.5568H155.934C156.093 88.1491 156.35 87.8326 156.704 87.6072C157.059 87.3786 157.485 87.2642 157.982 87.2642C158.486 87.2642 158.905 87.3786 159.24 87.6072C159.578 87.8326 159.841 88.1491 160.03 88.5568H160.11C160.305 88.1624 160.599 87.8492 160.99 87.6172C161.381 87.3819 161.85 87.2642 162.397 87.2642C163.08 87.2642 163.638 87.478 164.072 87.9055C164.506 88.3298 164.724 88.991 164.724 89.8892V95H163.55V89.8892C163.55 89.3258 163.396 88.9231 163.088 88.6811C162.78 88.4392 162.417 88.3182 161.999 88.3182C161.462 88.3182 161.046 88.4806 160.751 88.8054C160.456 89.1269 160.309 89.5346 160.309 90.0284V95H159.116V89.7699C159.116 89.3357 158.975 88.986 158.693 88.7209C158.411 88.4524 158.048 88.3182 157.604 88.3182C157.299 88.3182 157.014 88.3994 156.749 88.5618C156.487 88.7242 156.275 88.9496 156.113 89.2379C155.954 89.523 155.874 89.8527 155.874 90.2273V95H154.701ZM170.07 95.1591C169.335 95.1591 168.7 94.9967 168.166 94.6719C167.636 94.3438 167.227 93.8864 166.938 93.2997C166.653 92.7098 166.511 92.0237 166.511 91.2415C166.511 90.4593 166.653 89.7699 166.938 89.1733C167.227 88.5734 167.628 88.1061 168.142 87.7713C168.659 87.4332 169.262 87.2642 169.951 87.2642C170.349 87.2642 170.742 87.3305 171.129 87.4631C171.517 87.5956 171.87 87.8111 172.188 88.1094C172.507 88.4044 172.76 88.7955 172.949 89.2827C173.138 89.7699 173.232 90.3698 173.232 91.0824V91.5795H167.346V90.5653H172.039C172.039 90.1345 171.953 89.75 171.781 89.4119C171.612 89.0739 171.37 88.8071 171.055 88.6115C170.743 88.416 170.375 88.3182 169.951 88.3182C169.484 88.3182 169.079 88.4342 168.738 88.6662C168.4 88.8949 168.14 89.1932 167.958 89.5611C167.775 89.929 167.684 90.3234 167.684 90.7443V91.4205C167.684 91.9972 167.784 92.486 167.982 92.8871C168.185 93.2848 168.465 93.5881 168.823 93.7969C169.181 94.0024 169.597 94.1051 170.07 94.1051C170.379 94.1051 170.657 94.062 170.906 93.9759C171.158 93.8864 171.375 93.7538 171.557 93.5781C171.739 93.3991 171.88 93.1771 171.98 92.9119L173.113 93.2301C172.994 93.6146 172.793 93.9527 172.512 94.2443C172.23 94.5327 171.882 94.758 171.468 94.9205C171.053 95.0795 170.588 95.1591 170.07 95.1591Z" fill="#2D2D2D"/>
<path d="M90.233 166V155.818H93.6733C94.4721 155.818 95.125 155.962 95.6321 156.251C96.1425 156.536 96.5204 156.922 96.7656 157.409C97.0109 157.896 97.1335 158.44 97.1335 159.04C97.1335 159.64 97.0109 160.185 96.7656 160.675C96.5237 161.166 96.1491 161.557 95.642 161.849C95.1349 162.137 94.4853 162.281 93.6932 162.281H91.2273V161.188H93.6534C94.2003 161.188 94.6394 161.093 94.9709 160.904C95.3023 160.715 95.5426 160.46 95.6918 160.138C95.8442 159.814 95.9205 159.447 95.9205 159.04C95.9205 158.632 95.8442 158.268 95.6918 157.946C95.5426 157.625 95.3007 157.373 94.9659 157.19C94.6312 157.005 94.187 156.912 93.6335 156.912H91.4659V166H90.233ZM101.208 166.179C100.724 166.179 100.285 166.088 99.8903 165.906C99.4959 165.72 99.1826 165.453 98.9506 165.105C98.7186 164.754 98.6026 164.33 98.6026 163.832C98.6026 163.395 98.6888 163.04 98.8612 162.768C99.0335 162.493 99.2638 162.278 99.5522 162.122C99.8406 161.966 100.159 161.85 100.507 161.774C100.858 161.695 101.211 161.632 101.566 161.585C102.03 161.526 102.406 161.481 102.694 161.451C102.986 161.418 103.198 161.363 103.331 161.287C103.467 161.211 103.534 161.078 103.534 160.889V160.849C103.534 160.359 103.4 159.978 103.132 159.706C102.867 159.434 102.464 159.298 101.924 159.298C101.364 159.298 100.924 159.421 100.606 159.666C100.288 159.911 100.064 160.173 99.935 160.452L98.8214 160.054C99.0202 159.59 99.2854 159.229 99.6168 158.97C99.9516 158.708 100.316 158.526 100.711 158.423C101.108 158.317 101.499 158.264 101.884 158.264C102.129 158.264 102.411 158.294 102.729 158.354C103.051 158.41 103.36 158.528 103.659 158.707C103.96 158.886 104.211 159.156 104.409 159.517C104.608 159.878 104.708 160.362 104.708 160.969V166H103.534V164.966H103.475C103.395 165.132 103.263 165.309 103.077 165.498C102.891 165.687 102.645 165.848 102.336 165.98C102.028 166.113 101.652 166.179 101.208 166.179ZM101.387 165.125C101.851 165.125 102.242 165.034 102.56 164.852C102.882 164.669 103.123 164.434 103.286 164.146C103.452 163.857 103.534 163.554 103.534 163.236V162.162C103.485 162.222 103.375 162.276 103.206 162.326C103.041 162.372 102.848 162.414 102.63 162.45C102.414 162.483 102.204 162.513 101.998 162.54C101.796 162.563 101.632 162.583 101.506 162.599C101.201 162.639 100.916 162.704 100.651 162.793C100.389 162.879 100.177 163.01 100.015 163.186C99.8555 163.358 99.7759 163.594 99.7759 163.892C99.7759 164.3 99.9267 164.608 100.228 164.817C100.533 165.022 100.919 165.125 101.387 165.125ZM106.849 166V158.364H107.983V159.517H108.062C108.202 159.139 108.453 158.833 108.818 158.597C109.183 158.362 109.594 158.244 110.051 158.244C110.137 158.244 110.245 158.246 110.374 158.249C110.503 158.253 110.601 158.258 110.667 158.264V159.457C110.628 159.447 110.537 159.433 110.394 159.413C110.255 159.389 110.107 159.378 109.952 159.378C109.58 159.378 109.249 159.456 108.957 159.612C108.669 159.764 108.44 159.976 108.271 160.248C108.105 160.516 108.023 160.823 108.023 161.168V166H106.849ZM115.858 158.364V159.358H111.9V158.364H115.858ZM113.054 156.534H114.227V163.812C114.227 164.144 114.275 164.393 114.371 164.558C114.471 164.721 114.597 164.83 114.749 164.886C114.905 164.939 115.069 164.966 115.241 164.966C115.371 164.966 115.477 164.959 115.559 164.946C115.642 164.929 115.709 164.916 115.758 164.906L115.997 165.96C115.917 165.99 115.806 166.02 115.664 166.05C115.521 166.083 115.341 166.099 115.122 166.099C114.791 166.099 114.466 166.028 114.148 165.886C113.833 165.743 113.571 165.526 113.362 165.234C113.157 164.943 113.054 164.575 113.054 164.131V156.534ZM118.378 168.864C118.18 168.864 118.002 168.847 117.846 168.814C117.691 168.784 117.583 168.754 117.523 168.724L117.822 167.69C118.107 167.763 118.358 167.79 118.577 167.77C118.796 167.75 118.99 167.652 119.159 167.477C119.331 167.304 119.489 167.024 119.631 166.636L119.85 166.04L117.026 158.364H118.299L120.407 164.449H120.486L122.594 158.364H123.867L120.626 167.114C120.48 167.508 120.299 167.835 120.084 168.093C119.868 168.355 119.618 168.549 119.333 168.675C119.051 168.801 118.733 168.864 118.378 168.864ZM132.237 166.159C131.6 166.159 131.039 165.998 130.551 165.677C130.064 165.352 129.683 164.895 129.408 164.305C129.133 163.711 128.995 163.01 128.995 162.202C128.995 161.4 129.133 160.704 129.408 160.114C129.683 159.524 130.066 159.068 130.556 158.746C131.047 158.425 131.614 158.264 132.257 158.264C132.754 158.264 133.146 158.347 133.435 158.513C133.727 158.675 133.949 158.861 134.101 159.07C134.257 159.275 134.378 159.444 134.464 159.577H134.563V155.818H135.737V166H134.603V164.827H134.464C134.378 164.966 134.255 165.142 134.096 165.354C133.937 165.562 133.71 165.75 133.415 165.915C133.12 166.078 132.727 166.159 132.237 166.159ZM132.396 165.105C132.866 165.105 133.264 164.982 133.589 164.737C133.914 164.489 134.161 164.146 134.33 163.708C134.499 163.267 134.583 162.759 134.583 162.182C134.583 161.612 134.5 161.113 134.335 160.685C134.169 160.254 133.924 159.92 133.599 159.681C133.274 159.439 132.873 159.318 132.396 159.318C131.899 159.318 131.484 159.446 131.153 159.701C130.825 159.953 130.578 160.296 130.412 160.73C130.25 161.161 130.169 161.645 130.169 162.182C130.169 162.725 130.251 163.219 130.417 163.663C130.586 164.104 130.835 164.455 131.163 164.717C131.494 164.976 131.905 165.105 132.396 165.105ZM142.861 162.878V158.364H144.034V166H142.861V164.707H142.781C142.602 165.095 142.324 165.425 141.946 165.697C141.568 165.965 141.091 166.099 140.514 166.099C140.037 166.099 139.613 165.995 139.242 165.786C138.87 165.574 138.579 165.256 138.367 164.832C138.155 164.404 138.048 163.866 138.048 163.216V158.364H139.222V163.136C139.222 163.693 139.378 164.137 139.689 164.469C140.004 164.8 140.405 164.966 140.892 164.966C141.184 164.966 141.481 164.891 141.782 164.742C142.087 164.593 142.342 164.364 142.548 164.056C142.757 163.748 142.861 163.355 142.861 162.878ZM149.385 166.159C148.649 166.159 148.014 165.997 147.481 165.672C146.951 165.344 146.541 164.886 146.253 164.3C145.968 163.71 145.825 163.024 145.825 162.241C145.825 161.459 145.968 160.77 146.253 160.173C146.541 159.573 146.942 159.106 147.456 158.771C147.973 158.433 148.576 158.264 149.266 158.264C149.663 158.264 150.056 158.33 150.444 158.463C150.832 158.596 151.185 158.811 151.503 159.109C151.821 159.404 152.075 159.795 152.263 160.283C152.452 160.77 152.547 161.37 152.547 162.082V162.58H146.661V161.565H151.354C151.354 161.134 151.268 160.75 151.095 160.412C150.926 160.074 150.684 159.807 150.369 159.612C150.058 159.416 149.69 159.318 149.266 159.318C148.798 159.318 148.394 159.434 148.053 159.666C147.714 159.895 147.454 160.193 147.272 160.561C147.09 160.929 146.999 161.323 146.999 161.744V162.42C146.999 162.997 147.098 163.486 147.297 163.887C147.499 164.285 147.779 164.588 148.137 164.797C148.495 165.002 148.911 165.105 149.385 165.105C149.693 165.105 149.972 165.062 150.22 164.976C150.472 164.886 150.689 164.754 150.871 164.578C151.054 164.399 151.195 164.177 151.294 163.912L152.428 164.23C152.308 164.615 152.108 164.953 151.826 165.244C151.544 165.533 151.196 165.758 150.782 165.92C150.368 166.08 149.902 166.159 149.385 166.159Z" fill="#2D2D2D"/>
<path d="M315.969 106.628C316.267 106.63 316.565 106.687 316.863 106.798C317.162 106.91 317.434 107.094 317.68 107.352C317.926 107.608 318.124 107.957 318.273 108.4C318.422 108.843 318.497 109.398 318.497 110.065C318.497 110.712 318.435 111.286 318.312 111.788C318.192 112.287 318.016 112.709 317.787 113.052C317.559 113.395 317.282 113.656 316.956 113.833C316.631 114.011 316.265 114.099 315.855 114.099C315.448 114.099 315.084 114.019 314.765 113.858C314.448 113.695 314.187 113.469 313.983 113.18C313.782 112.888 313.653 112.551 313.596 112.168H314.463C314.541 112.501 314.696 112.777 314.928 112.995C315.162 113.21 315.471 113.318 315.855 113.318C316.416 113.318 316.859 113.073 317.183 112.583C317.51 112.093 317.673 111.401 317.673 110.506H317.616C317.484 110.705 317.326 110.876 317.144 111.021C316.962 111.165 316.759 111.276 316.537 111.354C316.314 111.433 316.077 111.472 315.827 111.472C315.41 111.472 315.028 111.369 314.68 111.163C314.334 110.954 314.057 110.669 313.849 110.307C313.643 109.942 313.54 109.526 313.54 109.057C313.54 108.612 313.639 108.205 313.838 107.835C314.039 107.464 314.321 107.168 314.683 106.947C315.048 106.727 315.476 106.621 315.969 106.628ZM315.969 107.409C315.67 107.409 315.402 107.484 315.162 107.633C314.926 107.78 314.738 107.978 314.598 108.229C314.461 108.478 314.392 108.754 314.392 109.057C314.392 109.36 314.458 109.636 314.591 109.884C314.726 110.13 314.909 110.327 315.141 110.474C315.376 110.618 315.642 110.69 315.94 110.69C316.165 110.69 316.375 110.647 316.569 110.559C316.763 110.469 316.932 110.347 317.077 110.193C317.223 110.037 317.338 109.861 317.421 109.664C317.504 109.465 317.545 109.258 317.545 109.043C317.545 108.759 317.477 108.492 317.339 108.244C317.204 107.995 317.017 107.794 316.778 107.64C316.541 107.486 316.272 107.409 315.969 107.409ZM320.518 113.07C320.343 113.07 320.193 113.007 320.067 112.881C319.942 112.756 319.879 112.606 319.879 112.43C319.879 112.255 319.942 112.105 320.067 111.979C320.193 111.854 320.343 111.791 320.518 111.791C320.694 111.791 320.844 111.854 320.969 111.979C321.095 112.105 321.158 112.255 321.158 112.43C321.158 112.546 321.128 112.653 321.069 112.75C321.012 112.847 320.935 112.925 320.838 112.984C320.743 113.041 320.637 113.07 320.518 113.07ZM320.518 109.391C320.343 109.391 320.193 109.328 320.067 109.202C319.942 109.077 319.879 108.927 319.879 108.751C319.879 108.576 319.942 108.426 320.067 108.3C320.193 108.175 320.343 108.112 320.518 108.112C320.694 108.112 320.844 108.175 320.969 108.3C321.095 108.426 321.158 108.576 321.158 108.751C321.158 108.867 321.128 108.974 321.069 109.071C321.012 109.168 320.935 109.246 320.838 109.305C320.743 109.362 320.637 109.391 320.518 109.391ZM322.477 112.509V111.784L325.673 106.727H326.199V107.849H325.843L323.429 111.67V111.727H327.733V112.509H322.477ZM325.9 114V112.288V111.951V106.727H326.738V114H325.9ZM331.523 106.727V114H330.642V107.651H330.599L328.824 108.83V107.935L330.642 106.727H331.523ZM338.046 114.128C337.7 114.128 337.387 114.063 337.105 113.933C336.823 113.8 336.599 113.609 336.434 113.361C336.268 113.11 336.185 112.807 336.185 112.452C336.185 112.139 336.247 111.886 336.37 111.692C336.493 111.495 336.657 111.341 336.863 111.23C337.069 111.119 337.297 111.036 337.545 110.982C337.796 110.925 338.048 110.88 338.302 110.847C338.633 110.804 338.902 110.772 339.108 110.751C339.316 110.727 339.468 110.688 339.562 110.634C339.659 110.579 339.708 110.484 339.708 110.349V110.321C339.708 109.971 339.612 109.698 339.42 109.504C339.231 109.31 338.943 109.213 338.557 109.213C338.157 109.213 337.844 109.301 337.616 109.476C337.389 109.651 337.229 109.838 337.137 110.037L336.341 109.753C336.483 109.421 336.673 109.163 336.91 108.979C337.149 108.792 337.409 108.661 337.691 108.588C337.975 108.512 338.254 108.474 338.529 108.474C338.704 108.474 338.905 108.496 339.133 108.538C339.362 108.579 339.584 108.663 339.797 108.79C340.012 108.918 340.191 109.111 340.333 109.369C340.475 109.627 340.546 109.973 340.546 110.406V114H339.708V113.261H339.665C339.608 113.38 339.514 113.506 339.381 113.641C339.249 113.776 339.072 113.891 338.852 113.986C338.632 114.08 338.363 114.128 338.046 114.128ZM338.174 113.375C338.505 113.375 338.785 113.31 339.012 113.18C339.242 113.049 339.414 112.881 339.53 112.675C339.649 112.469 339.708 112.253 339.708 112.026V111.259C339.672 111.301 339.594 111.34 339.474 111.376C339.355 111.409 339.218 111.438 339.062 111.464C338.908 111.488 338.757 111.509 338.611 111.528C338.466 111.545 338.349 111.559 338.259 111.571C338.041 111.599 337.838 111.646 337.648 111.71C337.461 111.771 337.31 111.865 337.194 111.99C337.08 112.113 337.023 112.281 337.023 112.494C337.023 112.786 337.131 113.006 337.346 113.155C337.564 113.302 337.84 113.375 338.174 113.375ZM342.076 114V108.545H342.885V109.398H342.956C343.07 109.107 343.253 108.88 343.507 108.719C343.76 108.556 344.064 108.474 344.419 108.474C344.779 108.474 345.079 108.556 345.318 108.719C345.559 108.88 345.748 109.107 345.882 109.398H345.939C346.079 109.116 346.288 108.892 346.568 108.727C346.847 108.558 347.182 108.474 347.573 108.474C348.06 108.474 348.459 108.627 348.77 108.933C349.08 109.236 349.235 109.708 349.235 110.349V114H348.397V110.349C348.397 109.947 348.287 109.659 348.066 109.487C347.846 109.314 347.587 109.227 347.289 109.227C346.905 109.227 346.608 109.343 346.397 109.575C346.187 109.805 346.081 110.096 346.081 110.449V114H345.229V110.264C345.229 109.954 345.128 109.704 344.927 109.515C344.726 109.323 344.467 109.227 344.15 109.227C343.932 109.227 343.728 109.285 343.539 109.401C343.352 109.517 343.2 109.678 343.084 109.884C342.971 110.088 342.914 110.323 342.914 110.591V114H342.076Z" fill="#949494"/>
<path d="M262.795 177.727H263.803L265.82 181.122H265.906L267.923 177.727H268.931L266.303 182.003V185H265.423V182.003L262.795 177.727ZM271.472 185.114C270.946 185.114 270.493 184.998 270.112 184.766C269.733 184.531 269.441 184.205 269.235 183.786C269.031 183.364 268.929 182.874 268.929 182.315C268.929 181.757 269.031 181.264 269.235 180.838C269.441 180.41 269.727 180.076 270.094 179.837C270.463 179.595 270.894 179.474 271.387 179.474C271.671 179.474 271.951 179.522 272.228 179.616C272.505 179.711 272.757 179.865 272.985 180.078C273.212 180.289 273.393 180.568 273.528 180.916C273.663 181.264 273.73 181.693 273.73 182.202V182.557H269.526V181.832H272.878C272.878 181.525 272.817 181.25 272.694 181.009C272.573 180.767 272.4 180.576 272.175 180.437C271.953 180.297 271.69 180.227 271.387 180.227C271.053 180.227 270.764 180.31 270.52 180.476C270.279 180.639 270.093 180.852 269.963 181.115C269.833 181.378 269.767 181.66 269.767 181.96V182.443C269.767 182.855 269.838 183.204 269.98 183.491C270.125 183.775 270.325 183.991 270.581 184.141C270.836 184.287 271.133 184.361 271.472 184.361C271.692 184.361 271.891 184.33 272.069 184.268C272.248 184.205 272.404 184.11 272.534 183.984C272.664 183.857 272.765 183.698 272.836 183.509L273.645 183.736C273.56 184.01 273.417 184.252 273.216 184.46C273.014 184.666 272.766 184.827 272.47 184.943C272.174 185.057 271.841 185.114 271.472 185.114ZM278.869 180.767L278.116 180.98C278.069 180.855 277.999 180.733 277.907 180.614C277.817 180.494 277.694 180.394 277.537 180.316C277.381 180.238 277.181 180.199 276.937 180.199C276.603 180.199 276.325 180.276 276.103 180.43C275.882 180.581 275.772 180.774 275.772 181.009C275.772 181.217 275.848 181.381 276 181.502C276.151 181.623 276.388 181.723 276.71 181.804L277.52 182.003C278.007 182.121 278.371 182.302 278.61 182.546C278.849 182.788 278.968 183.099 278.968 183.48C278.968 183.793 278.878 184.072 278.699 184.318C278.521 184.564 278.272 184.759 277.953 184.901C277.633 185.043 277.261 185.114 276.838 185.114C276.281 185.114 275.821 184.993 275.456 184.751C275.092 184.51 274.861 184.157 274.764 183.693L275.559 183.494C275.635 183.788 275.778 184.008 275.989 184.155C276.202 184.302 276.48 184.375 276.824 184.375C277.214 184.375 277.524 184.292 277.754 184.126C277.986 183.958 278.102 183.757 278.102 183.523C278.102 183.333 278.036 183.175 277.903 183.047C277.77 182.917 277.567 182.82 277.292 182.756L276.383 182.543C275.884 182.424 275.517 182.241 275.282 181.992C275.05 181.741 274.934 181.428 274.934 181.051C274.934 180.743 275.021 180.471 275.194 180.234C275.369 179.998 275.607 179.812 275.907 179.677C276.21 179.542 276.554 179.474 276.937 179.474C277.477 179.474 277.901 179.593 278.208 179.83C278.519 180.066 278.739 180.379 278.869 180.767ZM282.602 179.545V180.256H279.775V179.545H282.602ZM280.599 178.239H281.437V183.438C281.437 183.674 281.472 183.852 281.54 183.97C281.611 184.086 281.701 184.164 281.81 184.205C281.921 184.242 282.039 184.261 282.162 184.261C282.254 184.261 282.33 184.257 282.389 184.247C282.448 184.235 282.496 184.226 282.531 184.219L282.702 184.972C282.645 184.993 282.565 185.014 282.464 185.036C282.362 185.059 282.233 185.071 282.077 185.071C281.84 185.071 281.608 185.02 281.381 184.918C281.156 184.817 280.969 184.661 280.819 184.453C280.673 184.245 280.599 183.982 280.599 183.665V178.239ZM286.091 185.114C285.566 185.114 285.112 184.998 284.731 184.766C284.352 184.531 284.06 184.205 283.854 183.786C283.65 183.364 283.548 182.874 283.548 182.315C283.548 181.757 283.65 181.264 283.854 180.838C284.06 180.41 284.346 180.076 284.713 179.837C285.083 179.595 285.513 179.474 286.006 179.474C286.29 179.474 286.57 179.522 286.847 179.616C287.124 179.711 287.377 179.865 287.604 180.078C287.831 180.289 288.012 180.568 288.147 180.916C288.282 181.264 288.35 181.693 288.35 182.202V182.557H284.145V181.832H287.497C287.497 181.525 287.436 181.25 287.313 181.009C287.192 180.767 287.019 180.576 286.794 180.437C286.572 180.297 286.309 180.227 286.006 180.227C285.672 180.227 285.383 180.31 285.139 180.476C284.898 180.639 284.712 180.852 284.582 181.115C284.452 181.378 284.387 181.66 284.387 181.96V182.443C284.387 182.855 284.458 183.204 284.6 183.491C284.744 183.775 284.944 183.991 285.2 184.141C285.455 184.287 285.753 184.361 286.091 184.361C286.311 184.361 286.51 184.33 286.688 184.268C286.868 184.205 287.023 184.11 287.153 183.984C287.283 183.857 287.384 183.698 287.455 183.509L288.264 183.736C288.179 184.01 288.036 184.252 287.835 184.46C287.633 184.666 287.385 184.827 287.089 184.943C286.793 185.057 286.46 185.114 286.091 185.114ZM289.624 185V179.545H290.434V180.369H290.491C290.59 180.099 290.77 179.88 291.031 179.712C291.291 179.544 291.585 179.46 291.911 179.46C291.973 179.46 292.05 179.461 292.142 179.464C292.235 179.466 292.304 179.47 292.352 179.474V180.327C292.323 180.32 292.258 180.309 292.156 180.295C292.057 180.278 291.952 180.27 291.84 180.27C291.575 180.27 291.338 180.326 291.13 180.437C290.924 180.546 290.761 180.697 290.64 180.891C290.522 181.083 290.463 181.302 290.463 181.548V185H289.624ZM295.239 185.114C294.784 185.114 294.383 184.999 294.035 184.769C293.687 184.537 293.415 184.21 293.218 183.789C293.022 183.365 292.923 182.865 292.923 182.287C292.923 181.714 293.022 181.217 293.218 180.795C293.415 180.374 293.688 180.049 294.039 179.819C294.389 179.589 294.794 179.474 295.253 179.474C295.608 179.474 295.889 179.534 296.095 179.652C296.303 179.768 296.462 179.901 296.57 180.05C296.682 180.196 296.768 180.317 296.83 180.412H296.901V177.727H297.739V185H296.929V184.162H296.83C296.768 184.261 296.681 184.387 296.567 184.538C296.453 184.687 296.291 184.821 296.08 184.94C295.87 185.056 295.589 185.114 295.239 185.114ZM295.352 184.361C295.689 184.361 295.973 184.273 296.205 184.098C296.437 183.92 296.613 183.675 296.734 183.363C296.855 183.048 296.915 182.685 296.915 182.273C296.915 181.866 296.856 181.509 296.737 181.204C296.619 180.896 296.444 180.657 296.212 180.487C295.98 180.314 295.693 180.227 295.352 180.227C294.997 180.227 294.701 180.318 294.465 180.501C294.23 180.681 294.054 180.926 293.936 181.236C293.82 181.544 293.762 181.889 293.762 182.273C293.762 182.661 293.821 183.014 293.939 183.331C294.06 183.646 294.237 183.897 294.472 184.084C294.709 184.268 295.002 184.361 295.352 184.361ZM300.995 185.128C300.65 185.128 300.336 185.063 300.054 184.933C299.772 184.8 299.549 184.609 299.383 184.361C299.217 184.11 299.134 183.807 299.134 183.452C299.134 183.139 299.196 182.886 299.319 182.692C299.442 182.495 299.607 182.341 299.813 182.23C300.019 182.119 300.246 182.036 300.494 181.982C300.745 181.925 300.998 181.88 301.251 181.847C301.582 181.804 301.851 181.772 302.057 181.751C302.265 181.727 302.417 181.688 302.512 181.634C302.609 181.579 302.657 181.484 302.657 181.349V181.321C302.657 180.971 302.561 180.698 302.369 180.504C302.18 180.31 301.892 180.213 301.507 180.213C301.106 180.213 300.793 180.301 300.566 180.476C300.338 180.651 300.178 180.838 300.086 181.037L299.291 180.753C299.433 180.421 299.622 180.163 299.859 179.979C300.098 179.792 300.358 179.661 300.64 179.588C300.924 179.512 301.204 179.474 301.478 179.474C301.653 179.474 301.855 179.496 302.082 179.538C302.311 179.579 302.533 179.663 302.746 179.79C302.961 179.918 303.14 180.111 303.282 180.369C303.424 180.627 303.495 180.973 303.495 181.406V185H302.657V184.261H302.615C302.558 184.38 302.463 184.506 302.33 184.641C302.198 184.776 302.021 184.891 301.801 184.986C301.581 185.08 301.312 185.128 300.995 185.128ZM301.123 184.375C301.454 184.375 301.734 184.31 301.961 184.18C302.191 184.049 302.364 183.881 302.48 183.675C302.598 183.469 302.657 183.253 302.657 183.026V182.259C302.622 182.301 302.544 182.34 302.423 182.376C302.304 182.409 302.167 182.438 302.011 182.464C301.857 182.488 301.707 182.509 301.56 182.528C301.415 182.545 301.298 182.559 301.208 182.571C300.99 182.599 300.787 182.646 300.597 182.71C300.41 182.771 300.259 182.865 300.143 182.99C300.029 183.113 299.972 183.281 299.972 183.494C299.972 183.786 300.08 184.006 300.296 184.155C300.513 184.302 300.789 184.375 301.123 184.375ZM305.369 187.045C305.227 187.045 305.101 187.034 304.989 187.01C304.878 186.989 304.801 186.967 304.759 186.946L304.972 186.207C305.175 186.259 305.355 186.278 305.511 186.264C305.668 186.25 305.806 186.18 305.927 186.055C306.05 185.932 306.162 185.732 306.264 185.455L306.42 185.028L304.403 179.545H305.312L306.818 183.892H306.875L308.381 179.545H309.29L306.974 185.795C306.87 186.077 306.741 186.31 306.587 186.495C306.433 186.682 306.255 186.821 306.051 186.911C305.85 187 305.623 187.045 305.369 187.045ZM315.51 177.628C315.808 177.63 316.106 177.687 316.404 177.798C316.703 177.91 316.975 178.094 317.221 178.352C317.467 178.608 317.665 178.957 317.814 179.4C317.963 179.843 318.038 180.398 318.038 181.065C318.038 181.712 317.976 182.286 317.853 182.788C317.733 183.287 317.557 183.709 317.328 184.052C317.1 184.395 316.824 184.656 316.497 184.833C316.172 185.011 315.806 185.099 315.396 185.099C314.989 185.099 314.625 185.019 314.306 184.858C313.989 184.695 313.728 184.469 313.525 184.18C313.323 183.888 313.194 183.551 313.137 183.168H314.004C314.082 183.501 314.237 183.777 314.469 183.995C314.703 184.21 315.012 184.318 315.396 184.318C315.957 184.318 316.4 184.073 316.724 183.583C317.051 183.093 317.214 182.401 317.214 181.506H317.157C317.025 181.705 316.867 181.876 316.685 182.021C316.503 182.165 316.3 182.276 316.078 182.354C315.855 182.433 315.618 182.472 315.368 182.472C314.951 182.472 314.569 182.369 314.221 182.163C313.875 181.954 313.598 181.669 313.39 181.307C313.184 180.942 313.081 180.526 313.081 180.057C313.081 179.612 313.18 179.205 313.379 178.835C313.58 178.464 313.862 178.168 314.224 177.947C314.589 177.727 315.017 177.621 315.51 177.628ZM315.51 178.409C315.211 178.409 314.943 178.484 314.703 178.633C314.467 178.78 314.279 178.978 314.139 179.229C314.002 179.478 313.933 179.754 313.933 180.057C313.933 180.36 313.999 180.636 314.132 180.884C314.267 181.13 314.45 181.327 314.682 181.474C314.917 181.618 315.183 181.69 315.481 181.69C315.706 181.69 315.916 181.647 316.11 181.559C316.304 181.469 316.473 181.347 316.618 181.193C316.764 181.037 316.879 180.861 316.962 180.664C317.045 180.465 317.086 180.258 317.086 180.043C317.086 179.759 317.018 179.492 316.88 179.244C316.745 178.995 316.558 178.794 316.319 178.64C316.083 178.486 315.813 178.409 315.51 178.409ZM320.059 184.07C319.884 184.07 319.734 184.007 319.608 183.881C319.483 183.756 319.42 183.606 319.42 183.43C319.42 183.255 319.483 183.105 319.608 182.979C319.734 182.854 319.884 182.791 320.059 182.791C320.235 182.791 320.385 182.854 320.51 182.979C320.636 183.105 320.699 183.255 320.699 183.43C320.699 183.546 320.669 183.653 320.61 183.75C320.553 183.847 320.476 183.925 320.379 183.984C320.284 184.041 320.178 184.07 320.059 184.07ZM320.059 180.391C319.884 180.391 319.734 180.328 319.608 180.202C319.483 180.077 319.42 179.927 319.42 179.751C319.42 179.576 319.483 179.426 319.608 179.3C319.734 179.175 319.884 179.112 320.059 179.112C320.235 179.112 320.385 179.175 320.51 179.3C320.636 179.426 320.699 179.576 320.699 179.751C320.699 179.867 320.669 179.974 320.61 180.071C320.553 180.168 320.476 180.246 320.379 180.305C320.284 180.362 320.178 180.391 320.059 180.391ZM322.018 183.509V182.784L325.214 177.727H325.74V178.849H325.384L322.97 182.67V182.727H327.274V183.509H322.018ZM325.441 185V183.288V182.951V177.727H326.279V185H325.441ZM331.064 177.727V185H330.183V178.651H330.14L328.365 179.83V178.935L330.183 177.727H331.064ZM335.982 187.045V179.545H336.792V180.412H336.891C336.953 180.317 337.038 180.196 337.147 180.05C337.258 179.901 337.417 179.768 337.623 179.652C337.831 179.534 338.113 179.474 338.468 179.474C338.927 179.474 339.332 179.589 339.682 179.819C340.033 180.049 340.306 180.374 340.502 180.795C340.699 181.217 340.797 181.714 340.797 182.287C340.797 182.865 340.699 183.365 340.502 183.789C340.306 184.21 340.034 184.537 339.686 184.769C339.338 184.999 338.936 185.114 338.482 185.114C338.132 185.114 337.851 185.056 337.64 184.94C337.43 184.821 337.267 184.687 337.154 184.538C337.04 184.387 336.953 184.261 336.891 184.162H336.82V187.045H335.982ZM336.806 182.273C336.806 182.685 336.866 183.048 336.987 183.363C337.108 183.675 337.284 183.92 337.516 184.098C337.748 184.273 338.032 184.361 338.368 184.361C338.719 184.361 339.011 184.268 339.245 184.084C339.482 183.897 339.66 183.646 339.778 183.331C339.899 183.014 339.959 182.661 339.959 182.273C339.959 181.889 339.9 181.544 339.782 181.236C339.666 180.926 339.489 180.681 339.252 180.501C339.018 180.318 338.723 180.227 338.368 180.227C338.027 180.227 337.741 180.314 337.509 180.487C337.277 180.657 337.102 180.896 336.983 181.204C336.865 181.509 336.806 181.866 336.806 182.273ZM342.076 185V179.545H342.885V180.398H342.956C343.07 180.107 343.253 179.88 343.507 179.719C343.76 179.556 344.064 179.474 344.419 179.474C344.779 179.474 345.079 179.556 345.318 179.719C345.559 179.88 345.748 180.107 345.882 180.398H345.939C346.079 180.116 346.288 179.892 346.568 179.727C346.847 179.558 347.182 179.474 347.573 179.474C348.06 179.474 348.459 179.627 348.77 179.933C349.08 180.236 349.235 180.708 349.235 181.349V185H348.397V181.349C348.397 180.947 348.287 180.659 348.066 180.487C347.846 180.314 347.587 180.227 347.289 180.227C346.905 180.227 346.608 180.343 346.397 180.575C346.187 180.805 346.081 181.096 346.081 181.449V185H345.229V181.264C345.229 180.954 345.128 180.704 344.927 180.515C344.726 180.323 344.467 180.227 344.15 180.227C343.932 180.227 343.728 180.285 343.539 180.401C343.352 180.517 343.2 180.678 343.084 180.884C342.971 181.088 342.914 181.323 342.914 181.591V185H342.076Z" fill="#949494"/>
<path d="M95.1491 103.273H96.9943V108.94C96.9943 109.577 96.8423 110.134 96.5384 110.611C96.2372 111.088 95.8153 111.46 95.2727 111.727C94.7301 111.991 94.098 112.124 93.3764 112.124C92.652 112.124 92.0185 111.991 91.4759 111.727C90.9332 111.46 90.5114 111.088 90.2102 110.611C89.9091 110.134 89.7585 109.577 89.7585 108.94V103.273H91.6037V108.783C91.6037 109.115 91.6761 109.411 91.821 109.669C91.9688 109.928 92.1761 110.131 92.4432 110.278C92.7102 110.426 93.0213 110.5 93.3764 110.5C93.7344 110.5 94.0455 110.426 94.3097 110.278C94.5767 110.131 94.7827 109.928 94.9276 109.669C95.0753 109.411 95.1491 109.115 95.1491 108.783V103.273ZM98.5124 112V103.273H102.007C102.649 103.273 103.184 103.368 103.613 103.558C104.042 103.749 104.365 104.013 104.581 104.351C104.797 104.686 104.904 105.072 104.904 105.51C104.904 105.851 104.836 106.151 104.7 106.409C104.564 106.665 104.376 106.875 104.137 107.04C103.902 107.202 103.632 107.317 103.328 107.385V107.47C103.66 107.484 103.971 107.578 104.261 107.751C104.554 107.925 104.791 108.168 104.973 108.48C105.154 108.79 105.245 109.159 105.245 109.588C105.245 110.051 105.13 110.464 104.9 110.828C104.673 111.189 104.336 111.474 103.89 111.685C103.444 111.895 102.895 112 102.241 112H98.5124ZM100.358 110.491H101.862C102.376 110.491 102.751 110.393 102.987 110.197C103.223 109.999 103.341 109.734 103.341 109.405C103.341 109.163 103.282 108.95 103.166 108.766C103.049 108.581 102.883 108.436 102.667 108.331C102.454 108.226 102.2 108.173 101.904 108.173H100.358V110.491ZM100.358 106.925H101.725C101.978 106.925 102.203 106.881 102.399 106.793C102.598 106.702 102.754 106.574 102.868 106.409C102.984 106.244 103.042 106.047 103.042 105.817C103.042 105.501 102.93 105.247 102.706 105.054C102.484 104.861 102.169 104.764 101.76 104.764H100.358V106.925ZM106.446 112V103.273H112.327V104.794H108.291V106.874H112.024V108.395H108.291V110.479H112.344V112H106.446ZM113.794 112V103.273H117.237C117.896 103.273 118.458 103.391 118.924 103.626C119.393 103.859 119.75 104.19 119.994 104.619C120.241 105.045 120.365 105.547 120.365 106.124C120.365 106.703 120.24 107.202 119.99 107.619C119.74 108.034 119.377 108.352 118.903 108.574C118.431 108.795 117.86 108.906 117.19 108.906H114.885V107.423H116.892C117.244 107.423 117.537 107.375 117.77 107.278C118.002 107.182 118.176 107.037 118.289 106.844C118.406 106.651 118.464 106.411 118.464 106.124C118.464 105.834 118.406 105.589 118.289 105.391C118.176 105.192 118.001 105.041 117.765 104.939C117.532 104.834 117.238 104.781 116.883 104.781H115.639V112H113.794ZM118.507 108.028L120.676 112H118.639L116.517 108.028H118.507Z" fill="#A8A8A8"/>
<path d="M91.3352 174.273L93.4446 180.903H93.5256L95.6392 174.273H97.6847L94.6761 183H92.2983L89.2855 174.273H91.3352ZM98.701 183V176.455H100.516V183H98.701ZM99.6129 175.611C99.343 175.611 99.1115 175.521 98.9183 175.342C98.728 175.161 98.6328 174.943 98.6328 174.69C98.6328 174.44 98.728 174.226 98.9183 174.047C99.1115 173.865 99.343 173.774 99.6129 173.774C99.8828 173.774 100.113 173.865 100.303 174.047C100.496 174.226 100.593 174.44 100.593 174.69C100.593 174.943 100.496 175.161 100.303 175.342C100.113 175.521 99.8828 175.611 99.6129 175.611ZM103.786 179.216V183H101.971V176.455H103.701V177.609H103.777C103.922 177.229 104.165 176.928 104.506 176.706C104.847 176.482 105.26 176.369 105.746 176.369C106.201 176.369 106.597 176.469 106.935 176.668C107.273 176.866 107.536 177.151 107.723 177.52C107.911 177.886 108.005 178.324 108.005 178.832V183H106.189V179.156C106.192 178.756 106.09 178.443 105.882 178.219C105.675 177.991 105.39 177.878 105.026 177.878C104.782 177.878 104.566 177.93 104.378 178.036C104.194 178.141 104.049 178.294 103.944 178.496C103.841 178.695 103.789 178.935 103.786 179.216ZM112.418 183.128C111.745 183.128 111.165 182.991 110.68 182.719C110.197 182.443 109.825 182.054 109.563 181.551C109.302 181.045 109.171 180.447 109.171 179.757C109.171 179.084 109.302 178.493 109.563 177.984C109.825 177.476 110.192 177.08 110.667 176.795C111.144 176.511 111.704 176.369 112.346 176.369C112.778 176.369 113.18 176.439 113.552 176.578C113.927 176.714 114.254 176.92 114.532 177.196C114.813 177.472 115.032 177.818 115.188 178.236C115.344 178.651 115.423 179.136 115.423 179.693V180.192H109.896V179.067H113.714C113.714 178.805 113.657 178.574 113.543 178.372C113.43 178.17 113.272 178.013 113.07 177.899C112.871 177.783 112.64 177.724 112.376 177.724C112.1 177.724 111.856 177.788 111.643 177.916C111.433 178.041 111.268 178.21 111.148 178.423C111.029 178.634 110.968 178.868 110.965 179.126V180.196C110.965 180.52 111.025 180.8 111.144 181.036C111.266 181.271 111.438 181.453 111.66 181.581C111.881 181.709 112.144 181.773 112.448 181.773C112.65 181.773 112.835 181.744 113.002 181.688C113.17 181.631 113.313 181.545 113.433 181.432C113.552 181.318 113.643 181.179 113.705 181.014L115.384 181.125C115.299 181.528 115.124 181.881 114.86 182.182C114.599 182.48 114.261 182.713 113.846 182.881C113.434 183.045 112.958 183.128 112.418 183.128ZM119.59 183.128C118.917 183.128 118.337 182.991 117.852 182.719C117.369 182.443 116.996 182.054 116.735 181.551C116.474 181.045 116.343 180.447 116.343 179.757C116.343 179.084 116.474 178.493 116.735 177.984C116.996 177.476 117.364 177.08 117.839 176.795C118.316 176.511 118.876 176.369 119.518 176.369C119.95 176.369 120.352 176.439 120.724 176.578C121.099 176.714 121.425 176.92 121.704 177.196C121.985 177.472 122.204 177.818 122.36 178.236C122.516 178.651 122.594 179.136 122.594 179.693V180.192H117.067V179.067H120.886C120.886 178.805 120.829 178.574 120.715 178.372C120.602 178.17 120.444 178.013 120.242 177.899C120.043 177.783 119.812 177.724 119.548 177.724C119.272 177.724 119.028 177.788 118.815 177.916C118.604 178.041 118.44 178.21 118.32 178.423C118.201 178.634 118.14 178.868 118.137 179.126V180.196C118.137 180.52 118.197 180.8 118.316 181.036C118.438 181.271 118.61 181.453 118.832 181.581C119.053 181.709 119.316 181.773 119.62 181.773C119.822 181.773 120.006 181.744 120.174 181.688C120.342 181.631 120.485 181.545 120.604 181.432C120.724 181.318 120.815 181.179 120.877 181.014L122.556 181.125C122.471 181.528 122.296 181.881 122.032 182.182C121.771 182.48 121.433 182.713 121.018 182.881C120.606 183.045 120.13 183.128 119.59 183.128ZM127.261 176.455V177.818H123.319V176.455H127.261ZM124.214 174.886H126.029V180.989C126.029 181.156 126.055 181.287 126.106 181.381C126.157 181.472 126.228 181.536 126.319 181.572C126.413 181.609 126.521 181.628 126.643 181.628C126.728 181.628 126.813 181.621 126.898 181.607C126.984 181.589 127.049 181.577 127.094 181.568L127.38 182.919C127.289 182.947 127.161 182.98 126.996 183.017C126.832 183.057 126.631 183.081 126.396 183.089C125.958 183.107 125.575 183.048 125.245 182.915C124.918 182.781 124.664 182.574 124.482 182.293C124.3 182.011 124.211 181.656 124.214 181.227V174.886ZM135.989 176.783C135.955 176.439 135.809 176.172 135.55 175.982C135.292 175.791 134.941 175.696 134.498 175.696C134.196 175.696 133.942 175.739 133.735 175.824C133.527 175.906 133.368 176.021 133.257 176.169C133.15 176.317 133.096 176.484 133.096 176.672C133.09 176.828 133.123 176.964 133.194 177.081C133.267 177.197 133.368 177.298 133.496 177.384C133.624 177.466 133.772 177.538 133.939 177.601C134.107 177.661 134.286 177.712 134.476 177.754L135.26 177.942C135.641 178.027 135.99 178.141 136.309 178.283C136.627 178.425 136.902 178.599 137.135 178.807C137.368 179.014 137.549 179.259 137.676 179.54C137.807 179.821 137.874 180.143 137.877 180.507C137.874 181.041 137.738 181.504 137.468 181.896C137.201 182.286 136.814 182.588 136.309 182.804C135.806 183.017 135.199 183.124 134.489 183.124C133.784 183.124 133.171 183.016 132.648 182.8C132.128 182.584 131.722 182.264 131.429 181.841C131.14 181.415 130.988 180.888 130.973 180.26H132.759C132.779 180.553 132.863 180.797 133.01 180.993C133.161 181.186 133.361 181.332 133.611 181.432C133.864 181.528 134.15 181.577 134.468 181.577C134.78 181.577 135.051 181.531 135.282 181.44C135.515 181.349 135.695 181.223 135.823 181.061C135.951 180.899 136.015 180.713 136.015 180.503C136.015 180.307 135.956 180.142 135.84 180.009C135.726 179.875 135.559 179.761 135.337 179.668C135.118 179.574 134.85 179.489 134.532 179.412L133.581 179.173C132.846 178.994 132.265 178.714 131.838 178.334C131.412 177.953 131.201 177.44 131.203 176.795C131.201 176.267 131.341 175.805 131.625 175.411C131.912 175.016 132.306 174.707 132.806 174.486C133.306 174.264 133.874 174.153 134.51 174.153C135.158 174.153 135.723 174.264 136.206 174.486C136.692 174.707 137.07 175.016 137.34 175.411C137.61 175.805 137.749 176.263 137.757 176.783H135.989ZM140.899 179.216V183H139.084V174.273H140.848V177.609H140.925C141.072 177.223 141.311 176.92 141.641 176.702C141.97 176.48 142.384 176.369 142.881 176.369C143.335 176.369 143.732 176.469 144.07 176.668C144.411 176.864 144.675 177.146 144.862 177.516C145.053 177.882 145.146 178.321 145.143 178.832V183H143.328V179.156C143.331 178.753 143.229 178.439 143.021 178.214C142.817 177.99 142.53 177.878 142.161 177.878C141.913 177.878 141.695 177.93 141.504 178.036C141.317 178.141 141.169 178.294 141.061 178.496C140.956 178.695 140.902 178.935 140.899 179.216ZM148.439 183.124C148.021 183.124 147.649 183.051 147.322 182.906C146.995 182.759 146.737 182.541 146.547 182.254C146.359 181.964 146.265 181.604 146.265 181.172C146.265 180.808 146.332 180.503 146.466 180.256C146.599 180.009 146.781 179.81 147.011 179.659C147.241 179.509 147.502 179.395 147.795 179.318C148.091 179.241 148.4 179.188 148.724 179.156C149.105 179.116 149.412 179.08 149.645 179.045C149.877 179.009 150.047 178.955 150.152 178.884C150.257 178.812 150.309 178.707 150.309 178.568V178.543C150.309 178.273 150.224 178.064 150.054 177.916C149.886 177.768 149.647 177.695 149.338 177.695C149.011 177.695 148.751 177.767 148.558 177.912C148.365 178.054 148.237 178.233 148.174 178.449L146.495 178.312C146.581 177.915 146.748 177.571 146.998 177.281C147.248 176.989 147.571 176.764 147.966 176.608C148.363 176.449 148.824 176.369 149.346 176.369C149.71 176.369 150.058 176.412 150.39 176.497C150.725 176.582 151.022 176.714 151.281 176.893C151.542 177.072 151.748 177.303 151.899 177.584C152.049 177.862 152.125 178.196 152.125 178.585V183H150.403V182.092H150.352C150.247 182.297 150.106 182.477 149.93 182.634C149.754 182.787 149.542 182.908 149.295 182.996C149.048 183.081 148.762 183.124 148.439 183.124ZM148.958 181.871C149.225 181.871 149.461 181.818 149.666 181.713C149.87 181.605 150.031 181.46 150.147 181.278C150.264 181.097 150.322 180.891 150.322 180.661V179.966C150.265 180.003 150.187 180.037 150.088 180.068C149.991 180.097 149.882 180.124 149.76 180.149C149.637 180.172 149.515 180.193 149.393 180.213C149.271 180.23 149.16 180.246 149.061 180.26C148.848 180.291 148.662 180.341 148.502 180.409C148.343 180.477 148.22 180.57 148.132 180.686C148.044 180.8 148 180.942 148 181.112C148 181.359 148.089 181.548 148.268 181.679C148.45 181.807 148.68 181.871 148.958 181.871ZM153.533 183V176.455H155.293V177.597H155.361C155.48 177.19 155.681 176.884 155.962 176.676C156.243 176.466 156.567 176.361 156.934 176.361C157.025 176.361 157.123 176.366 157.228 176.378C157.333 176.389 157.425 176.405 157.505 176.425V178.036C157.419 178.01 157.301 177.987 157.151 177.967C157 177.947 156.863 177.938 156.738 177.938C156.471 177.938 156.232 177.996 156.022 178.112C155.814 178.226 155.65 178.385 155.527 178.589C155.408 178.794 155.348 179.03 155.348 179.297V183H153.533ZM158.443 183V176.455H160.173V177.609H160.25C160.386 177.226 160.614 176.923 160.932 176.702C161.25 176.48 161.631 176.369 162.074 176.369C162.523 176.369 162.905 176.482 163.22 176.706C163.536 176.928 163.746 177.229 163.851 177.609H163.919C164.053 177.234 164.294 176.935 164.643 176.71C164.996 176.483 165.412 176.369 165.892 176.369C166.503 176.369 166.999 176.564 167.379 176.953C167.763 177.339 167.955 177.888 167.955 178.598V183H166.143V178.956C166.143 178.592 166.047 178.32 165.854 178.138C165.661 177.956 165.419 177.865 165.129 177.865C164.8 177.865 164.543 177.97 164.358 178.18C164.173 178.388 164.081 178.662 164.081 179.003V183H162.321V178.918C162.321 178.597 162.229 178.341 162.044 178.151C161.862 177.96 161.622 177.865 161.324 177.865C161.122 177.865 160.94 177.916 160.778 178.018C160.619 178.118 160.493 178.259 160.399 178.44C160.305 178.619 160.259 178.83 160.259 179.071V183H158.443ZM171.255 183.124C170.837 183.124 170.465 183.051 170.138 182.906C169.812 182.759 169.553 182.541 169.363 182.254C169.175 181.964 169.082 181.604 169.082 181.172C169.082 180.808 169.148 180.503 169.282 180.256C169.415 180.009 169.597 179.81 169.827 179.659C170.058 179.509 170.319 179.395 170.612 179.318C170.907 179.241 171.217 179.188 171.54 179.156C171.921 179.116 172.228 179.08 172.461 179.045C172.694 179.009 172.863 178.955 172.968 178.884C173.073 178.812 173.126 178.707 173.126 178.568V178.543C173.126 178.273 173.04 178.064 172.87 177.916C172.702 177.768 172.464 177.695 172.154 177.695C171.827 177.695 171.567 177.767 171.374 177.912C171.181 178.054 171.053 178.233 170.991 178.449L169.312 178.312C169.397 177.915 169.565 177.571 169.815 177.281C170.065 176.989 170.387 176.764 170.782 176.608C171.18 176.449 171.64 176.369 172.163 176.369C172.526 176.369 172.874 176.412 173.207 176.497C173.542 176.582 173.839 176.714 174.097 176.893C174.359 177.072 174.565 177.303 174.715 177.584C174.866 177.862 174.941 178.196 174.941 178.585V183H173.219V182.092H173.168C173.063 182.297 172.923 182.477 172.746 182.634C172.57 182.787 172.359 182.908 172.112 182.996C171.864 183.081 171.579 183.124 171.255 183.124ZM171.775 181.871C172.042 181.871 172.278 181.818 172.482 181.713C172.687 181.605 172.847 181.46 172.964 181.278C173.08 181.097 173.138 180.891 173.138 180.661V179.966C173.082 180.003 173.004 180.037 172.904 180.068C172.808 180.097 172.698 180.124 172.576 180.149C172.454 180.172 172.332 180.193 172.21 180.213C172.087 180.23 171.977 180.246 171.877 180.26C171.664 180.291 171.478 180.341 171.319 180.409C171.16 180.477 171.036 180.57 170.948 180.686C170.86 180.8 170.816 180.942 170.816 181.112C170.816 181.359 170.906 181.548 171.085 181.679C171.266 181.807 171.496 181.871 171.775 181.871Z" fill="#A8A8A8"/>
</svg>
