<?xml version="1.0" encoding="UTF-8"?>
<svg id="Layer_1" data-name="Layer 1" xmlns="http://www.w3.org/2000/svg" version="1.1" viewBox="0 0 30 42">
  <defs>
    <style>
      .cls-1 {
        fill: #000;
        stroke-width: 0px;
      }
    </style>
  </defs>
  <path class="cls-1" d="M11.4,15.8c0,0-.2,0-.2,0s-.1.1-.1.2v2.9c0,0,0,.2.1.2l3.3,1.9s0,0,.1,0,0,0,.1,0c0,0,.1-.1.1-.2v-2.9c0,0,0-.2-.1-.2l-3.3-1.9h0ZM14.3,20.4l-2.8-1.6v-2.4s2.8,1.6,2.8,1.6v2.4Z"/>
  <path class="cls-1" d="M16.3,18.6c0,0-.2,0-.2,0,0,0-.1.1-.1.2v2.9c0,0,0,.2.1.2l3.3,1.9s0,0,.1,0,0,0,.1,0c0,0,.1-.1.1-.2v-2.9c0,0,0-.2-.1-.2l-3.3-1.9ZM19.1,23.2l-2.8-1.6v-2.4s2.8,1.6,2.8,1.6v2.4Z"/>
  <path class="cls-1" d="M24.1,26.7s0,0,.1,0,0,0,.1,0c0,0,.1-.1.1-.2v-2.9c0,0,0-.2-.1-.2l-3.3-1.9c0,0-.2,0-.2,0,0,0-.1.1-.1.2v2.9c0,0,0,.2.1.2l3.3,1.9ZM21.2,22.1l2.8,1.6v2.4s-2.8-1.6-2.8-1.6v-2.4Z"/>
  <path class="cls-1" d="M11.4,21c0,0-.2,0-.2,0,0,0-.1.1-.1.2v2.9c0,0,0,.2.1.2l3.3,1.9s0,0,.1,0,0,0,.1,0c0,0,.1-.1.1-.2v-2.9c0,0,0-.2-.1-.2l-3.3-1.9ZM14.3,25.6l-2.8-1.6v-2.4s2.8,1.6,2.8,1.6v2.4Z"/>
  <path class="cls-1" d="M16.2,23.8c0,0-.2,0-.2,0,0,0-.1.1-.1.2v2.9c0,0,0,.2.1.2l3.3,1.9s0,0,.1,0,0,0,.1,0c0,0,.1-.1.1-.2v-2.9c0,0,0-.2-.1-.2l-3.3-1.9ZM19.1,28.4l-2.8-1.6v-2.4s2.8,1.6,2.8,1.6v2.4Z"/>
  <path class="cls-1" d="M24.5,31.6v-2.9c0,0,0-.2-.1-.2l-3.3-1.9c0,0-.2,0-.2,0,0,0-.1.1-.1.2v2.9c0,0,0,.2.1.2l3.3,1.9s0,0,.1,0,0,0,.1,0c0,0,.1-.1.1-.2h0ZM24,31.2l-2.8-1.6v-2.4s2.8,1.6,2.8,1.6v2.4s0,0,0,0Z"/>
  <path class="cls-1" d="M6.5,23.4c0,0-.2,0-.2,0,0,0-.1.1-.1.2v2.9c0,0,0,.2.1.2l3.3,1.9s0,0,.1,0,0,0,.1,0c0,0,.1-.1.1-.2v-2.9c0,0,0-.2-.1-.2l-3.3-1.9h0ZM9.4,27.9l-2.8-1.6v-2.4s2.8,1.6,2.8,1.6v2.4s0,0,0,0Z"/>
  <path class="cls-1" d="M11.4,26.2c0,0-.2,0-.2,0,0,0-.1.1-.1.2v2.9c0,0,0,.2.1.2l3.3,1.9s0,0,.1,0,0,0,.1,0c0,0,.1-.1.1-.2v-2.9c0,0,0-.2-.1-.2l-3.3-1.9h0ZM14.2,30.7l-2.8-1.6v-2.4s2.8,1.6,2.8,1.6v2.4s0,0,0,0Z"/>
  <path class="cls-1" d="M6.2,17.6c0,0-.2,0-.2,0,0,0-.1.1-.1.2v3.7c0,0,0,.2.1.2l4,2.3s0,0,.1,0,0,0,.1,0c0,0,.1-.1.1-.2v-3.7c0,0,0-.2-.1-.2l-4-2.3ZM8,22.2l-1-2,.3-.2.5.6,1.3-.8h0s0,0,0,0l.3.4-1.4,1.9h0Z"/>
  <path class="cls-1" d="M29.8,13.8h0s0,0,0,0l-3.2-1.8c.2-.6.3-1.2.3-1.7,0-1-.4-1.8-1.1-2.2-.7-.4-1.6-.3-2.5.2-.5.3-.9.7-1.4,1.1l-8-4.6c.2-.5.2-1.1.2-1.6,0-1.1-.4-1.9-1.1-2.3-.7-.4-1.6-.3-2.5.2-.4.3-.8.6-1.2,1L5.9,0c-.2,0-.3,0-.5,0l-2.4,1.4c-.2,0-.2.2-.2.4v6.5s0,0,0,0h0s0,14.3,0,14.3c-.3,1.4-1.3,2.9-2.4,3.6-.2,0-.2.2-.2.4s0,.3.2.4l23.9,13.7c0,0,.2,0,.2,0s.2,0,.2,0c0,0,0,0,.1,0l2,1.2h0s0,0,0,0c0,0,.2,0,.2,0s.2,0,.2,0l2.4-1.4c.2,0,.2-.2.2-.4V14.2c0-.2,0-.3-.2-.4h0ZM9.1,7.8c-.4-.2-.6-.7-.6-1.4h0c.1,0,.3,0,.4.1.5.3.9.8,1.1,1.3-.3,0-.7,0-.9,0h0ZM10.1,8.8c0,.8-.6,1.1-1.3.7-.7-.4-1.3-1.4-1.3-2.2.2.6.5,1.1,1,1.4.3.2.6.3,1,.3s.4,0,.6,0h0ZM20.2,14c.1.8.5,1.4,1,1.7.3.2.6.3,1,.3s.3,0,.4,0c0,0,0,0,0,0,0,.8-.6,1.1-1.3.7s-1.3-1.4-1.3-2.2,0-.4,0-.5h0ZM21.2,13.7c0,0,.2,0,.2.1.4.3.8.7,1,1.2-.3,0-.5,0-.7-.1-.3-.2-.5-.6-.6-1.2h0ZM27.1,15.4l-5.6-3.2c.2-.5.4-1,.8-1.5l6.6,3.8-1.7,1h0ZM23.8,9c.6-.3,1.2-.4,1.5-.2.4.2.6.7.6,1.4,0,.4,0,.8-.2,1.2l-2.9-1.7c.3-.3.6-.6,1-.8h0ZM20.6,11.6l-11.8-6.8c.2-.5.5-1,.8-1.5l11.8,6.8c-.3.5-.6,1-.8,1.5h0ZM11.1,1.9c.6-.3,1.1-.4,1.5-.2.4.2.6.7.6,1.4,0,.3,0,.7-.1,1l-2.8-1.6c.3-.3.5-.5.8-.6h0ZM5.7,1.1l3.1,1.8c-.3.5-.6,1-.8,1.5l-3.9-2.3,1.7-1h0ZM3.7,21.9v-12.7s22.8,13.2,22.8,13.2v13.3c0,1.5-1,3.3-2.2,4.2L1.4,26.7c1.4-1.1,2.3-3.1,2.3-4.7h0ZM25.6,40.1c.5-.4.9-1,1.2-1.6v2.2s-1.2-.7-1.2-.7h0Z"/>
</svg>