<?xml version="1.0" encoding="utf-8"?>
<!-- Generator: Adobe Illustrator 25.2.0, SVG Export Plug-In . SVG Version: 6.00 Build 0)  -->
<svg version="1.1" xmlns="http://www.w3.org/2000/svg" xmlns:xlink="http://www.w3.org/1999/xlink" x="0px" y="0px"
	 viewBox="0 0 480 480" style="enable-background:new 0 0 480 480;" xml:space="preserve">
<style type="text/css">
	.st0{fill:#E3530D;}
	.st1{fill:#FFFFFF;}
	.st2{fill:none;stroke:#000000;stroke-width:6.0719;stroke-miterlimit:10;}
	.st3{fill:none;stroke:#000000;stroke-width:3;stroke-linecap:round;stroke-miterlimit:10;}
	.st4{fill:none;stroke:#FFFFFF;stroke-width:3;stroke-linecap:round;stroke-miterlimit:10;}
	.st5{fill:none;stroke:#FFFFFF;stroke-width:4;stroke-linecap:round;stroke-miterlimit:10;}
	.st6{fill:none;stroke:#000000;stroke-width:3;stroke-miterlimit:10;}
	.st7{fill:none;}
</style>
<g id="Layer_1">
	<rect x="673.8" class="st0" width="480.5" height="480"/>
	<path class="st1" d="M1064.1,128.4l-281.3,26.4c-13.6,1.3-23.5,13.4-22,27l10,91.8c1.4,12.6,12.1,22,24.8,21.8l26.6-0.5
		c6.6-0.1,12.2,5,12.5,11.7l0.9,19.1c0.3,5.8,7.7,8.5,11.9,4.3l32.8-32.8c2.2-2.2,5.3-3.5,8.4-3.6l173.2-3.4
		c12.9-0.3,23.4-10.5,23.9-23.4l4.9-113C1091.5,139,1078.9,127.1,1064.1,128.4z"/>
	<rect x="800.8" y="176.3" class="st7" width="256.9" height="194.3"/>
	<text transform="matrix(1 0 0 1 821.0225 232.5659)" style="font-family:'RiftSoft-Bold'; font-size:48.575px; letter-spacing:3;">Congrats!</text>
	<path class="st2" d="M1051,118.7l-281.3,26.4c-13.6,1.3-23.5,13.4-22,27l10,91.8c1.4,12.6,12.1,22,24.8,21.8l26.6-0.5
		c6.6-0.1,12.2,5,12.5,11.7l0.9,19.1c0.3,5.8,7.7,8.5,11.9,4.3l32.8-32.8c2.2-2.2,5.3-3.5,8.4-3.6l173.2-3.4
		c12.9-0.3,23.4-10.5,23.9-23.4l4.9-113C1078.4,129.3,1065.8,117.3,1051,118.7z"/>
	<line class="st3" x1="1107.5" y1="138.2" x2="1113" y2="132"/>
	<line class="st3" x1="747.5" y1="138.2" x2="753" y2="132"/>
	<line class="st3" x1="763.5" y1="309.2" x2="769" y2="303"/>
	<line class="st3" x1="1025.5" y1="307.2" x2="1031" y2="301"/>
	<line class="st3" x1="1089.5" y1="303.2" x2="1095" y2="297"/>
	<line class="st3" x1="961.5" y1="306.2" x2="967" y2="300"/>
	<line class="st4" x1="974.4" y1="105.9" x2="968.2" y2="100.4"/>
	<line class="st3" x1="843.4" y1="123.9" x2="837.2" y2="118.4"/>
	<line class="st3" x1="1115.5" y1="243.2" x2="1121" y2="237"/>
	<circle class="st3" cx="930.2" cy="89.2" r="4.2"/>
	<circle class="st3" cx="795.2" cy="313.2" r="4.2"/>
	<circle class="st3" cx="1068.2" cy="312.2" r="4.2"/>
	<line class="st3" x1="930.5" y1="114.2" x2="936" y2="108"/>
	<line class="st3" x1="911.5" y1="333.2" x2="917" y2="327"/>
	<circle class="st3" cx="799.2" cy="118.2" r="4.2"/>
	<line class="st3" x1="723.4" y1="191.9" x2="717.2" y2="186.4"/>
	<circle class="st3" cx="738.2" cy="253.2" r="4.2"/>
	<line class="st3" x1="1043.5" y1="102.2" x2="1049" y2="96"/>
	<line class="st3" x1="875.4" y1="327.9" x2="869.2" y2="322.4"/>
	<circle class="st3" cx="1005.2" cy="106.2" r="4.2"/>
	<line class="st4" x1="741.4" y1="285.9" x2="735.2" y2="280.4"/>
	<line class="st4" x1="732.5" y1="220.2" x2="738" y2="214"/>
	<line class="st4" x1="819.4" y1="338.9" x2="813.2" y2="333.4"/>
	<line class="st4" x1="732.4" y1="131.9" x2="726.2" y2="126.4"/>
	<line class="st4" x1="719.4" y1="234.9" x2="713.2" y2="229.4"/>
	<line class="st4" x1="1033.5" y1="328.2" x2="1039" y2="322"/>
	<circle class="st4" cx="933.2" cy="308.2" r="4.2"/>
	<line class="st4" x1="775.4" y1="128.9" x2="769.2" y2="123.4"/>
	<line class="st4" x1="897.5" y1="309.2" x2="903" y2="303"/>
	<circle class="st4" cx="731.2" cy="161.2" r="4.2"/>
	<line class="st4" x1="997.4" y1="314.9" x2="991.2" y2="309.4"/>
	<line class="st4" x1="897.5" y1="110.2" x2="903" y2="104"/>
	<circle class="st4" cx="869.2" cy="114.2" r="4.2"/>
	<line class="st5" x1="1090.4" y1="104.9" x2="1084.2" y2="99.4"/>
	<line class="st4" x1="1102.5" y1="212.2" x2="1108" y2="206"/>
	<line class="st4" x1="1097.5" y1="279.2" x2="1103" y2="273"/>
	<circle class="st4" cx="1122.2" cy="176.2" r="4.2"/>
	<g>
		<g>
			<path class="st1" d="M749.2,387.6c-1.8,1-2.5,3.4-1.5,5.2l0.2,0.3l-22,22.6c-1.2-0.5-2.6-0.4-3.9,0.2l-7.4,4.1
				c-1.7,1-2.6,2.9-2.3,4.7l-4.4,2.5c-2.2,1.2-3,4-1.8,6.1l5.3,9.6c1.2,2.2,4,3,6.1,1.8l4.5-2.5c1.4,1,3.3,1.2,4.9,0.4l1.4,0.5
				l7.1,12.8c0.4,0.7,1.1,1.2,2,1.2c0.4,0,0.8-0.1,1.2-0.3c0.4-0.2,0.7-0.5,0.9-0.9l1.4-2.4c0.4-0.7,0.4-1.6,0-2.3l-6.9-12.5
				l0.4-0.2c1.4-0.8,2.2-2.2,2.3-3.7l30.6-6.5c1.1,1.7,3.3,2.3,5.1,1.3c1.8-1,2.5-3.4,1.5-5.2l-19.6-35.3
				C753.4,387.3,751.1,386.6,749.2,387.6z"/>
			<path class="st1" d="M769.9,388c-0.4,0.2-0.9,0.2-1.4-0.1c-0.5-0.4-0.7-1.2-0.2-1.7l16.1-21.2c0.4-0.5,1.2-0.7,1.7-0.2
				c0.5,0.4,0.7,1.2,0.2,1.7l-16.1,21.2C770.2,387.8,770,387.9,769.9,388z"/>
			<path class="st1" d="M802.4,387l-25.3,14c-0.6,0.3-1.4,0.1-1.7-0.5s-0.1-1.4,0.5-1.7l25.3-14c0.6-0.3,1.4-0.1,1.7,0.5
				S803,386.7,802.4,387z"/>
			<path class="st1" d="M808.6,411.5c-0.1,0.1-0.3,0.1-0.5,0.1l-24.1,2.9c-0.7,0.1-1.3-0.4-1.4-1.1c-0.1-0.7,0.4-1.3,1.1-1.4
				l24.1-2.9c0.7-0.1,1.3,0.4,1.4,1.1C809.3,410.8,809,411.3,808.6,411.5z"/>
		</g>
		<g>
			<path class="st6" d="M725.1,431.7l-7.4,4.1c-1.6,0.9-3.6,0.3-4.5-1.3l-8.1-14.6c-0.9-1.6-0.3-3.6,1.3-4.5l7.4-4.1
				c1.6-0.9,3.6-0.3,4.5,1.3l8.1,14.6C727.3,428.8,726.7,430.8,725.1,431.7z"/>
			<path class="st6" d="M763.1,422.8L763.1,422.8c-1.3,0.7-2.8,0.2-3.5-1l-19.6-35.3c-0.7-1.3-0.2-2.8,1-3.5h0
				c1.3-0.7,2.8-0.2,3.5,1l19.6,35.3C764.8,420.6,764.4,422.1,763.1,422.8z"/>
			<path class="st6" d="M713.5,435l-5.3,2.9c-1.6,0.9-3.6,0.3-4.4-1.3l-5.3-9.6c-0.9-1.6-0.3-3.6,1.3-4.4l5.3-2.9L713.5,435z"/>
			<polygon class="st6" points="717.6,411.3 726.9,428 759.4,421.2 740.8,387.5 			"/>
			<path class="st6" d="M723.6,432.5l7.5,13.6c0.2,0.3,0.2,0.7,0,1l-1.4,2.4c-0.4,0.7-1.5,0.7-1.9,0l-7.3-13.2c0,0-0.1-0.1-0.1-0.1
				l-1.9-0.7c-0.1-0.1-0.2-0.2,0-0.3L723.6,432.5z"/>
			<line class="st3" x1="760.5" y1="381.2" x2="776.7" y2="360"/>
			<line class="st3" x1="767.7" y1="394.2" x2="793.1" y2="380.2"/>
			<line class="st3" x1="775.1" y1="407.6" x2="799.2" y2="404.7"/>
		</g>
	</g>
	<g>
		<rect x="-0.2" class="st0" width="480.5" height="480"/>
		<path class="st1" d="M390.1,128.4l-281.3,26.4c-13.6,1.3-23.5,13.4-22,27l10,91.8c1.4,12.6,12.1,22,24.8,21.8l26.6-0.5
			c6.6-0.1,12.2,5,12.5,11.7l0.9,19.1c0.3,5.8,7.7,8.5,11.9,4.3l32.8-32.8c2.2-2.2,5.3-3.5,8.4-3.6l173.2-3.4
			c12.9-0.3,23.4-10.5,23.9-23.4l4.9-113C417.5,139,404.9,127.1,390.1,128.4z"/>
		<path class="st7" d="M126.8,370.5"/>
		<g>
			<path d="M166.5,220.7v5.1c0,5.2-3.4,7.2-8.5,7.2h-0.1c-5.1,0-8.5-1.9-8.5-7.2v-20.4c0-5.1,3.4-7.2,8.5-7.2h0.1
				c5.1,0,8.5,2.1,8.5,7.2v4.3c0,1.3-0.7,1.9-1.9,1.9h-1.7c-1.3,0-1.9-0.7-1.9-1.9v-3.4c0-2.4-1.2-3.1-3-3.1c-1.8,0-3,0.7-3,3.1
				v18.7c0,2.4,1.2,3.1,3,3.1c1.8,0,3-0.7,3-3.1v-4.2c0-1.3,0.7-1.9,1.9-1.9h1.7C165.8,218.7,166.5,219.4,166.5,220.7z"/>
			<path d="M182.9,198.2h0.4c5.1,0,8.5,2,8.5,7.2v20.4c0,5.1-3.4,7.2-8.5,7.2h-0.4c-5.1,0-8.5-2-8.5-7.2v-20.4
				C174.4,200.2,177.8,198.2,182.9,198.2z M183.1,228c1.8,0,3.1-0.7,3.1-3.1v-18.7c0-2.4-1.3-3.1-3.1-3.1s-3.1,0.7-3.1,3.1v18.7
				C180,227.3,181.3,228,183.1,228z"/>
			<path d="M203.4,232.6h-1.3c-1.3,0-1.9-0.7-1.9-1.9v-30.1c0-1.3,0.7-1.9,1.9-1.9h2c1.1,0,1.8,0.5,2.2,1.6l6.6,19.4v-19.1
				c0-1.3,0.7-1.9,1.9-1.9h1.3c1.3,0,1.9,0.7,1.9,1.9v30.1c0,1.3-0.7,1.9-1.9,1.9h-1.7c-1.1,0-1.8-0.5-2.2-1.6l-6.9-20.5v20.2
				C205.3,231.9,204.6,232.6,203.4,232.6z"/>
			<path d="M243.9,217v8.7c0,5.2-3.4,7.2-8.5,7.2h-0.4c-5.1,0-8.5-1.9-8.5-7.2v-20.4c0-5.1,3.4-7.2,8.5-7.2h0.4
				c5.1,0,8.5,2.1,8.5,7.2v2.9c0,1.3-0.7,1.9-1.9,1.9h-1.7c-1.3,0-1.9-0.7-1.9-1.9v-2c0-2.4-1.3-3.1-3.1-3.1s-3.1,0.7-3.1,3.1v18.7
				c0,2.4,1.3,3.1,3.1,3.1s3.1-0.7,3.1-3.1v-5.1h-1.4c-1.3,0-1.9-0.7-1.9-1.9V217c0-1.3,0.7-1.9,1.9-1.9h5.1
				C243.2,215.1,243.9,215.8,243.9,217z"/>
			<path d="M268.3,232.6h-1.7c-1.1,0-1.8-0.5-2.2-1.6l-3.8-11.9h-2.9v11.6c0,1.3-0.7,1.9-1.9,1.9H254c-1.3,0-1.9-0.7-1.9-1.9v-30.1
				c0-1.3,0.7-1.9,1.9-1.9h6.8c5.1,0,8.5,2,8.5,7.2v6.1c0,3.3-1.4,5.3-3.7,6.3l4.1,12.2C270.3,231.6,269.7,232.6,268.3,232.6z
				 M257.7,214.2h3c1.8,0,3.1-0.7,3.1-3.1v-4.4c0-2.4-1.3-3.1-3.1-3.1h-3V214.2z"/>
			<path d="M293.3,232.6h-1.8c-1.2,0-1.9-0.6-2.1-1.8l-0.9-5.8h-6.2l-0.9,5.8c-0.2,1.2-0.9,1.8-2.1,1.8h-1.5c-1.3,0-2-0.7-1.7-2.1
				l5.6-30.2c0.2-1.2,1-1.7,2.1-1.7h3.5c1.2,0,1.9,0.6,2.1,1.7l5.7,30.2C295.3,231.8,294.6,232.6,293.3,232.6z M287.7,220.3
				l-2.4-15.1l-2.4,15.1H287.7z"/>
			<path d="M314.6,200.5v1.1c0,1.3-0.7,1.9-1.9,1.9h-3.7v27.1c0,1.3-0.7,1.9-1.9,1.9h-1.7c-1.3,0-1.9-0.7-1.9-1.9v-27.1h-3.7
				c-1.3,0-1.9-0.7-1.9-1.9v-1.1c0-1.3,0.7-1.9,1.9-1.9h13.1C313.9,198.6,314.6,199.2,314.6,200.5z"/>
			<path d="M335,210.7h-1.7c-1.3,0-1.9-0.7-1.9-1.9V206c0-2.1-1.2-2.9-2.9-2.9c-1.7,0-2.9,0.8-2.9,2.9v2.3c0,1.7,0.6,2.5,2.2,3.4
				l4,2.2c3.3,1.8,5.2,3.4,5.2,7v4.9c0,5.2-3.3,7.1-8.4,7.1h-0.1c-5.1,0-8.4-1.8-8.4-7.1v-4c0-1.3,0.7-1.9,1.9-1.9h1.7
				c1.3,0,1.9,0.7,1.9,1.9v3.2c0,2.1,1.2,3,2.9,3c1.7,0,2.9-0.9,2.9-3v-2.7c0-1.7-0.5-2.6-2.2-3.5l-3.9-2.2c-3.3-1.9-5.2-3.4-5.2-7
				v-4.5c0-5.1,3.7-7,8.4-7h0.1c4.7,0,8.4,1.9,8.4,7v3.6C336.9,210,336.2,210.7,335,210.7z"/>
			<path d="M349.8,200.5v3.3l-0.7,18c0,1.2-0.7,1.9-1.9,1.9h-0.4c-1.2,0-1.9-0.7-1.9-1.9l-0.7-18v-3.3c0-1.3,0.7-1.9,1.9-1.9h1.7
				C349.1,198.6,349.8,199.2,349.8,200.5z M349.8,228.2v2.4c0,1.3-0.7,1.9-1.9,1.9h-1.7c-1.3,0-1.9-0.7-1.9-1.9v-2.4
				c0-1.3,0.7-1.9,1.9-1.9h1.7C349.1,226.3,349.8,226.9,349.8,228.2z"/>
		</g>
		<path d="M155.5,325.3c-1.3,0-2.5-0.2-3.8-0.7c-3.7-1.4-6.1-4.7-6.2-8.5l-0.9-19.1c-0.2-5-4.3-8.8-9.2-8.8c-0.1,0-0.1,0-0.2,0
			l-26.6,0.5c-14.3,0.3-26.3-10.2-27.8-24.5l-10-91.8c-0.8-7.4,1.3-14.6,6-20.4c4.7-5.7,11.3-9.3,18.7-10l281.3-26.4
			c7.9-0.7,15.7,2,21.5,7.4c5.8,5.5,8.9,13.2,8.5,21.1l-4.9,113c-0.6,14.5-12.4,26-26.9,26.3l-173.2,3.4c-2.4,0-4.6,1-6.3,2.7
			l-32.8,32.8C160.6,324.3,158.1,325.3,155.5,325.3z M135.4,282.1c8.2,0,14.9,6.3,15.3,14.6l0.9,19.1c0.1,2.1,1.8,2.9,2.4,3.1
			c1.2,0.5,3,0.5,4.4-0.9l32.8-32.8c2.8-2.8,6.5-4.4,10.5-4.5l173.2-3.4c11.3-0.2,20.5-9.2,21-20.5l4.9-113
			c0.3-6.2-2.2-12.2-6.6-16.4c-4.5-4.3-10.6-6.4-16.7-5.8L96,148.1c-5.8,0.5-10.9,3.3-14.6,7.8c-3.7,4.5-5.3,10.1-4.7,15.9l10,91.8
			c1.2,11.1,10.5,19.3,21.7,19.1l26.6-0.5C135.1,282.1,135.3,282.1,135.4,282.1z"/>
		<path d="M433.5,139.7c-0.4,0-0.7-0.1-1-0.4c-0.6-0.5-0.7-1.5-0.1-2.1l5.5-6.2c0.5-0.6,1.5-0.7,2.1-0.1c0.6,0.5,0.7,1.5,0.1,2.1
			l-5.5,6.2C434.4,139.5,434,139.7,433.5,139.7z"/>
		<path d="M73.5,139.7c-0.4,0-0.7-0.1-1-0.4c-0.6-0.5-0.7-1.5-0.1-2.1l5.5-6.2c0.6-0.6,1.5-0.7,2.1-0.1c0.6,0.5,0.7,1.5,0.1,2.1
			l-5.5,6.2C74.4,139.5,74,139.7,73.5,139.7z"/>
		<path d="M89.5,310.7c-0.4,0-0.7-0.1-1-0.4c-0.6-0.5-0.7-1.5-0.1-2.1l5.5-6.2c0.5-0.6,1.5-0.7,2.1-0.1c0.6,0.5,0.7,1.5,0.1,2.1
			l-5.5,6.2C90.4,310.5,90,310.7,89.5,310.7z"/>
		<path d="M351.5,308.7c-0.4,0-0.7-0.1-1-0.4c-0.6-0.5-0.7-1.5-0.1-2.1l5.5-6.2c0.5-0.6,1.5-0.7,2.1-0.1c0.6,0.5,0.7,1.5,0.1,2.1
			l-5.5,6.2C352.4,308.5,352,308.7,351.5,308.7z"/>
		<path d="M415.5,304.7c-0.4,0-0.7-0.1-1-0.4c-0.6-0.5-0.7-1.5-0.1-2.1l5.5-6.2c0.5-0.6,1.5-0.7,2.1-0.1c0.6,0.5,0.7,1.5,0.1,2.1
			l-5.5,6.2C416.4,304.5,416,304.7,415.5,304.7z"/>
		<path d="M287.5,307.7c-0.4,0-0.7-0.1-1-0.4c-0.6-0.5-0.7-1.5-0.1-2.1l5.5-6.2c0.5-0.6,1.5-0.7,2.1-0.1c0.6,0.5,0.7,1.5,0.1,2.1
			l-5.5,6.2C288.4,307.5,288,307.7,287.5,307.7z"/>
		<path class="st1" d="M300.4,107.4c-0.4,0-0.7-0.1-1-0.4l-6.2-5.5c-0.6-0.5-0.7-1.5-0.1-2.1c0.5-0.6,1.5-0.7,2.1-0.1l6.2,5.5
			c0.6,0.5,0.7,1.5,0.1,2.1C301.2,107.2,300.8,107.4,300.4,107.4z"/>
		<path d="M169.4,125.4c-0.4,0-0.7-0.1-1-0.4l-6.2-5.5c-0.6-0.5-0.7-1.5-0.1-2.1c0.6-0.6,1.5-0.7,2.1-0.1l6.2,5.5
			c0.6,0.5,0.7,1.5,0.1,2.1C170.2,125.2,169.8,125.4,169.4,125.4z"/>
		<path d="M441.5,244.7c-0.4,0-0.7-0.1-1-0.4c-0.6-0.5-0.7-1.5-0.1-2.1l5.5-6.2c0.5-0.6,1.5-0.7,2.1-0.1c0.6,0.5,0.7,1.5,0.1,2.1
			l-5.5,6.2C442.4,244.5,442,244.7,441.5,244.7z"/>
		<path d="M256.2,95c-3.2,0-5.8-2.6-5.8-5.8s2.6-5.8,5.8-5.8s5.8,2.6,5.8,5.8S259.4,95,256.2,95z M256.2,86.5
			c-1.5,0-2.8,1.2-2.8,2.8s1.2,2.8,2.8,2.8s2.8-1.2,2.8-2.8S257.8,86.5,256.2,86.5z"/>
		<path d="M121.2,319c-3.2,0-5.8-2.6-5.8-5.8s2.6-5.8,5.8-5.8s5.8,2.6,5.8,5.8S124.4,319,121.2,319z M121.2,310.5
			c-1.5,0-2.8,1.2-2.8,2.8s1.2,2.8,2.8,2.8s2.8-1.2,2.8-2.8S122.8,310.5,121.2,310.5z"/>
		<path d="M394.2,318c-3.2,0-5.8-2.6-5.8-5.8s2.6-5.8,5.8-5.8s5.8,2.6,5.8,5.8S397.4,318,394.2,318z M394.2,309.5
			c-1.5,0-2.8,1.2-2.8,2.8s1.2,2.8,2.8,2.8s2.8-1.2,2.8-2.8S395.8,309.5,394.2,309.5z"/>
		<path d="M256.5,115.7c-0.4,0-0.7-0.1-1-0.4c-0.6-0.5-0.7-1.5-0.1-2.1l5.5-6.2c0.5-0.6,1.5-0.7,2.1-0.1c0.6,0.5,0.7,1.5,0.1,2.1
			l-5.5,6.2C257.4,115.5,257,115.7,256.5,115.7z"/>
		<path d="M237.5,334.7c-0.4,0-0.7-0.1-1-0.4c-0.6-0.5-0.7-1.5-0.1-2.1l5.5-6.2c0.5-0.6,1.5-0.7,2.1-0.1c0.6,0.5,0.7,1.5,0.1,2.1
			l-5.5,6.2C238.4,334.5,238,334.7,237.5,334.7z"/>
		<path d="M125.2,124c-3.2,0-5.8-2.6-5.8-5.8s2.6-5.8,5.8-5.8s5.8,2.6,5.8,5.8S128.4,124,125.2,124z M125.2,115.5
			c-1.5,0-2.8,1.2-2.8,2.8s1.2,2.8,2.8,2.8s2.8-1.2,2.8-2.8S126.8,115.5,125.2,115.5z"/>
		<path d="M49.4,193.4c-0.4,0-0.7-0.1-1-0.4l-6.2-5.5c-0.6-0.5-0.7-1.5-0.1-2.1c0.5-0.6,1.5-0.7,2.1-0.1l6.2,5.5
			c0.6,0.5,0.7,1.5,0.1,2.1C50.2,193.2,49.8,193.4,49.4,193.4z"/>
		<path d="M64.2,259c-3.2,0-5.8-2.6-5.8-5.8s2.6-5.8,5.8-5.8s5.8,2.6,5.8,5.8S67.4,259,64.2,259z M64.2,250.5
			c-1.5,0-2.8,1.2-2.8,2.8s1.2,2.8,2.8,2.8s2.8-1.2,2.8-2.8S65.8,250.5,64.2,250.5z"/>
		<path d="M369.5,103.7c-0.4,0-0.7-0.1-1-0.4c-0.6-0.5-0.7-1.5-0.1-2.1l5.5-6.2c0.5-0.6,1.5-0.7,2.1-0.1c0.6,0.5,0.7,1.5,0.1,2.1
			l-5.5,6.2C370.4,103.5,370,103.7,369.5,103.7z"/>
		<path d="M201.4,329.4c-0.4,0-0.7-0.1-1-0.4l-6.2-5.5c-0.6-0.5-0.7-1.5-0.1-2.1c0.6-0.6,1.5-0.7,2.1-0.1l6.2,5.5
			c0.6,0.5,0.7,1.5,0.1,2.1C202.2,329.2,201.8,329.4,201.4,329.4z"/>
		<path d="M331.2,112c-3.2,0-5.8-2.6-5.8-5.8s2.6-5.8,5.8-5.8s5.8,2.6,5.8,5.8S334.4,112,331.2,112z M331.2,103.5
			c-1.5,0-2.8,1.2-2.8,2.8s1.2,2.8,2.8,2.8s2.8-1.2,2.8-2.8S332.8,103.5,331.2,103.5z"/>
		<path class="st1" d="M67.4,287.4c-0.4,0-0.7-0.1-1-0.4l-6.2-5.5c-0.6-0.5-0.7-1.5-0.1-2.1c0.6-0.6,1.5-0.7,2.1-0.1l6.2,5.5
			c0.6,0.5,0.7,1.5,0.1,2.1C68.2,287.2,67.8,287.4,67.4,287.4z"/>
		<path class="st1" d="M58.5,221.7c-0.4,0-0.7-0.1-1-0.4c-0.6-0.5-0.7-1.5-0.1-2.1l5.5-6.2c0.5-0.6,1.5-0.7,2.1-0.1
			c0.6,0.5,0.7,1.5,0.1,2.1l-5.5,6.2C59.4,221.5,59,221.7,58.5,221.7z"/>
		<path class="st1" d="M145.4,340.4c-0.4,0-0.7-0.1-1-0.4l-6.2-5.5c-0.6-0.5-0.7-1.5-0.1-2.1c0.6-0.6,1.5-0.7,2.1-0.1l6.2,5.5
			c0.6,0.5,0.7,1.5,0.1,2.1C146.2,340.2,145.8,340.4,145.4,340.4z"/>
		<path class="st1" d="M58.4,133.4c-0.4,0-0.7-0.1-1-0.4l-6.2-5.5c-0.6-0.5-0.7-1.5-0.1-2.1c0.6-0.6,1.5-0.7,2.1-0.1l6.2,5.5
			c0.6,0.5,0.7,1.5,0.1,2.1C59.2,133.2,58.8,133.4,58.4,133.4z"/>
		<path class="st1" d="M45.4,236.4c-0.4,0-0.7-0.1-1-0.4l-6.2-5.5c-0.6-0.5-0.7-1.5-0.1-2.1c0.6-0.6,1.5-0.7,2.1-0.1l6.2,5.5
			c0.6,0.5,0.7,1.5,0.1,2.1C46.2,236.2,45.8,236.4,45.4,236.4z"/>
		<path class="st1" d="M359.5,329.7c-0.4,0-0.7-0.1-1-0.4c-0.6-0.5-0.7-1.5-0.1-2.1l5.5-6.2c0.5-0.6,1.5-0.7,2.1-0.1
			c0.6,0.5,0.7,1.5,0.1,2.1l-5.5,6.2C360.4,329.5,360,329.7,359.5,329.7z"/>
		<path class="st1" d="M259.2,314c-3.2,0-5.8-2.6-5.8-5.8s2.6-5.8,5.8-5.8s5.8,2.6,5.8,5.8S262.4,314,259.2,314z M259.2,305.5
			c-1.5,0-2.8,1.2-2.8,2.8s1.2,2.8,2.8,2.8s2.8-1.2,2.8-2.8S260.8,305.5,259.2,305.5z"/>
		<path class="st1" d="M101.4,130.4c-0.4,0-0.7-0.1-1-0.4l-6.2-5.5c-0.6-0.5-0.7-1.5-0.1-2.1c0.6-0.6,1.5-0.7,2.1-0.1l6.2,5.5
			c0.6,0.5,0.7,1.5,0.1,2.1C102.2,130.2,101.8,130.4,101.4,130.4z"/>
		<path class="st1" d="M223.5,310.7c-0.4,0-0.7-0.1-1-0.4c-0.6-0.5-0.7-1.5-0.1-2.1l5.5-6.2c0.6-0.6,1.5-0.7,2.1-0.1
			c0.6,0.5,0.7,1.5,0.1,2.1l-5.5,6.2C224.4,310.5,224,310.7,223.5,310.7z"/>
		<path class="st1" d="M57.2,167c-3.2,0-5.8-2.6-5.8-5.8s2.6-5.8,5.8-5.8s5.8,2.6,5.8,5.8S60.4,167,57.2,167z M57.2,158.5
			c-1.5,0-2.8,1.2-2.8,2.8s1.2,2.8,2.8,2.8s2.8-1.2,2.8-2.8S58.8,158.5,57.2,158.5z"/>
		<path class="st1" d="M323.4,316.4c-0.4,0-0.7-0.1-1-0.4l-6.2-5.5c-0.6-0.5-0.7-1.5-0.1-2.1c0.5-0.6,1.5-0.7,2.1-0.1l6.2,5.5
			c0.6,0.5,0.7,1.5,0.1,2.1C324.2,316.2,323.8,316.4,323.4,316.4z"/>
		<path class="st1" d="M223.5,111.7c-0.4,0-0.7-0.1-1-0.4c-0.6-0.5-0.7-1.5-0.1-2.1l5.5-6.2c0.6-0.6,1.5-0.7,2.1-0.1
			c0.6,0.5,0.7,1.5,0.1,2.1l-5.5,6.2C224.4,111.5,224,111.7,223.5,111.7z"/>
		<path class="st1" d="M195.2,120c-3.2,0-5.8-2.6-5.8-5.8s2.6-5.8,5.8-5.8s5.8,2.6,5.8,5.8S198.4,120,195.2,120z M195.2,111.5
			c-1.5,0-2.8,1.2-2.8,2.8s1.2,2.8,2.8,2.8s2.8-1.2,2.8-2.8S196.8,111.5,195.2,111.5z"/>
		<path class="st1" d="M416.4,106.9c-0.5,0-0.9-0.2-1.3-0.5l-6.2-5.5c-0.8-0.7-0.9-2-0.2-2.8c0.7-0.8,2-0.9,2.8-0.2l6.2,5.5
			c0.8,0.7,0.9,2,0.2,2.8C417.5,106.6,416.9,106.9,416.4,106.9z"/>
		<path class="st1" d="M428.5,213.7c-0.4,0-0.7-0.1-1-0.4c-0.6-0.5-0.7-1.5-0.1-2.1l5.5-6.2c0.5-0.6,1.5-0.7,2.1-0.1
			c0.6,0.5,0.7,1.5,0.1,2.1l-5.5,6.2C429.4,213.5,429,213.7,428.5,213.7z"/>
		<path class="st1" d="M423.5,280.7c-0.4,0-0.7-0.1-1-0.4c-0.6-0.5-0.7-1.5-0.1-2.1l5.5-6.2c0.5-0.6,1.5-0.7,2.1-0.1
			c0.6,0.5,0.7,1.5,0.1,2.1l-5.5,6.2C424.4,280.5,424,280.7,423.5,280.7z"/>
		<path class="st1" d="M448.2,182c-3.2,0-5.8-2.6-5.8-5.8s2.6-5.8,5.8-5.8s5.8,2.6,5.8,5.8S451.4,182,448.2,182z M448.2,173.5
			c-1.5,0-2.8,1.2-2.8,2.8s1.2,2.8,2.8,2.8s2.8-1.2,2.8-2.8S449.8,173.5,448.2,173.5z"/>
		<g>
			<g>
				<path class="st1" d="M75.2,387.6c-1.8,1-2.5,3.4-1.5,5.2l0.2,0.3l-22,22.6c-1.2-0.5-2.6-0.4-3.9,0.2l-7.4,4.1
					c-1.7,1-2.6,2.9-2.3,4.7l-4.4,2.5c-2.2,1.2-3,4-1.8,6.1l5.3,9.6c1.2,2.2,4,3,6.1,1.8l4.5-2.5c1.4,1,3.3,1.2,4.9,0.4l1.4,0.5
					l7.1,12.8c0.4,0.7,1.1,1.2,2,1.2c0.4,0,0.8-0.1,1.2-0.3c0.4-0.2,0.7-0.5,0.9-0.9l1.4-2.4c0.4-0.7,0.4-1.6,0-2.3l-6.9-12.5
					l0.4-0.2c1.4-0.8,2.2-2.2,2.3-3.7l30.6-6.5c1.1,1.7,3.3,2.3,5.1,1.3c1.8-1,2.5-3.4,1.5-5.2l-19.6-35.3
					C79.4,387.3,77.1,386.6,75.2,387.6z"/>
				<path class="st1" d="M95.9,388c-0.4,0.2-0.9,0.2-1.4-0.1c-0.5-0.4-0.7-1.2-0.2-1.7l16.1-21.2c0.4-0.5,1.2-0.7,1.7-0.2
					c0.5,0.4,0.7,1.2,0.2,1.7l-16.1,21.2C96.2,387.8,96,387.9,95.9,388z"/>
				<path class="st1" d="M128.4,387l-25.3,14c-0.6,0.3-1.4,0.1-1.7-0.5s-0.1-1.4,0.5-1.7l25.3-14c0.6-0.3,1.4-0.1,1.7,0.5
					S129,386.7,128.4,387z"/>
				<path class="st1" d="M134.6,411.5c-0.1,0.1-0.3,0.1-0.5,0.1l-24.1,2.9c-0.7,0.1-1.3-0.4-1.4-1.1c-0.1-0.7,0.4-1.3,1.1-1.4
					l24.1-2.9c0.7-0.1,1.3,0.4,1.4,1.1C135.3,410.8,135,411.3,134.6,411.5z"/>
			</g>
			<g>
				<path d="M42.1,437.7c-1.7,0-3.3-0.9-4.2-2.5l-8.1-14.6c-0.6-1.1-0.8-2.4-0.4-3.6c0.4-1.2,1.2-2.2,2.3-2.9l7.4-4.1
					c2.3-1.3,5.2-0.4,6.5,1.9l8.1,14.6c0.6,1.1,0.8,2.4,0.4,3.6c-0.4,1.2-1.2,2.2-2.3,2.9l-7.4,4.1
					C43.7,437.5,42.9,437.7,42.1,437.7z M41.5,412.4c-0.3,0-0.6,0.1-0.9,0.2l-7.4,4.1c-0.4,0.2-0.7,0.6-0.9,1.1
					c-0.1,0.5-0.1,0.9,0.2,1.4l8.1,14.6c0.5,0.9,1.6,1.2,2.4,0.7l7.4-4.1c0.4-0.2,0.7-0.6,0.9-1.1c0.1-0.5,0.1-0.9-0.2-1.4L43,413.3
					C42.7,412.7,42.1,412.4,41.5,412.4z"/>
				<path d="M87.9,424.7c-1.4,0-2.8-0.8-3.6-2.1l-19.6-35.3c-0.5-1-0.7-2.1-0.4-3.1s1-1.9,1.9-2.4c2-1.1,4.5-0.4,5.6,1.6l19.6,35.3
					c0.5,1,0.7,2.1,0.4,3.1s-1,1.9-2,2.4C89.2,424.5,88.6,424.7,87.9,424.7z M68.3,384.2c-0.2,0-0.4,0-0.5,0.1
					c-0.3,0.1-0.4,0.4-0.5,0.7c-0.1,0.3,0,0.6,0.1,0.8l19.6,35.3c0.1,0.3,0.4,0.4,0.7,0.5c0.3,0.1,0.6,0,0.8-0.1h0
					c0.3-0.1,0.4-0.4,0.5-0.7c0.1-0.3,0-0.6-0.1-0.8l-19.6-35.3C69.1,384.4,68.7,384.2,68.3,384.2z"/>
				<path d="M32.7,439.8c-0.4,0-0.9-0.1-1.3-0.2c-1.2-0.4-2.2-1.2-2.9-2.3l-5.3-9.6c-0.6-1.1-0.8-2.4-0.4-3.6
					c0.4-1.2,1.2-2.2,2.3-2.9l6.6-3.6l10,18l-6.6,3.6C34.3,439.6,33.5,439.8,32.7,439.8z M30.5,421.7l-4,2.2
					c-0.4,0.2-0.7,0.6-0.8,1.1c-0.1,0.5-0.1,0.9,0.2,1.3l5.3,9.6c0.2,0.4,0.6,0.7,1.1,0.8c0.5,0.1,0.9,0.1,1.3-0.2l4-2.2L30.5,421.7
					z"/>
				<path d="M52.1,429.7L41.8,411l25.4-26l20.6,37.2L52.1,429.7z M45.5,411.5l8.2,14.8l29.5-6.2L66.5,390L45.5,411.5z"/>
				<path d="M54.8,451.6C54.8,451.6,54.8,451.6,54.8,451.6c-0.9,0-1.8-0.5-2.2-1.3l-7-12.7l-1.5-0.5c-0.6-0.2-1-0.8-1.1-1.4
					c-0.1-0.7,0.3-1.3,0.9-1.6l6.4-3.5l8.3,14.9c0.4,0.8,0.4,1.7,0,2.5l-1.4,2.4C56.6,451.1,55.7,451.6,54.8,451.6z M47.6,435.3
					c0.1,0.1,0.2,0.2,0.3,0.4l6.9,12.5l0.9-1.6L49,434.5L47.6,435.3z M46,437.8C46,437.8,46,437.8,46,437.8L46,437.8z M45.3,437.2
					C45.3,437.2,45.3,437.2,45.3,437.2L45.3,437.2z M45.1,434.2L45.1,434.2C45.1,434.2,45.1,434.2,45.1,434.2z"/>
				<path d="M86.5,382.7c-0.3,0-0.6-0.1-0.9-0.3c-0.7-0.5-0.8-1.4-0.3-2.1l16.1-21.2c0.5-0.7,1.4-0.8,2.1-0.3
					c0.7,0.5,0.8,1.4,0.3,2.1l-16.1,21.2C87.4,382.5,87,382.7,86.5,382.7z"/>
				<path d="M93.8,395.7c-0.5,0-1-0.3-1.3-0.8c-0.4-0.7-0.1-1.6,0.6-2l25.3-14c0.7-0.4,1.6-0.1,2,0.6c0.4,0.7,0.1,1.6-0.6,2
					l-25.3,14C94.2,395.7,94,395.7,93.8,395.7z"/>
				<path d="M101.1,409.1c-0.7,0-1.4-0.6-1.5-1.3c-0.1-0.8,0.5-1.6,1.3-1.7l24.1-2.9c0.8-0.1,1.6,0.5,1.7,1.3
					c0.1,0.8-0.5,1.6-1.3,1.7l-24.1,2.9C101.3,409.1,101.2,409.1,101.1,409.1z"/>
			</g>
		</g>
	</g>
</g>
<g id="Layer_2">
</g>
</svg>
