<?xml version="1.0" encoding="UTF-8"?>
<svg id="Layer_1" data-name="Layer 1" xmlns="http://www.w3.org/2000/svg" version="1.1" viewBox="0 0 30 36">
  <defs>
    <style>
      .cls-1 {
        fill: #000;
        stroke-width: 0px;
      }
    </style>
  </defs>
  <path class="cls-1" d="M30,13.6c0-4.6-3.3-10.2-7.5-12.5-2.1-1.2-4.1-1.4-5.7-.5l-2.3,1.3s0,0,0,0c0,0,0,0,0,0-1.4.8-2.2,2.5-2.2,4.7,0,3.6,4.3,13.2,6.4,17.6-.1,0-.2,0-.3.2-1.1.6-1.1,1.7,0,2.3,1.1.6,2.9.6,4,0,1-.6,1.1-1.4.4-2,1.7-1.5,7.2-7,7.2-11.1h0ZM16.7,1.9c1,0,2.1.3,3.2,1,4,2.3,7.2,7.6,7.2,12,0,3.6-4.8,8.5-6.6,10.3l-.3.2c-1.3-2.7-7-14.8-7-18.7,0-2,.7-3.4,1.9-4.1,0,0,0,0,0,0l.9-.5c.2,0,.5,0,.7,0h0ZM17.3,1.2c1.3-.7,3-.5,4.8.5,1.8,1,3.5,2.7,4.7,4.7l-1.8,1c-1.3-2-3-3.8-4.9-4.9-1.2-.7-2.3-1-3.3-1l.5-.3h0Z"/>
  <path class="cls-1" d="M19.9,14.2c.5.3,1.1.5,1.6.5s.7,0,1-.2c.7-.4,1.1-1.2,1.1-2.2,0-2.1-1.5-4.6-3.3-5.7-.9-.5-1.8-.6-2.5-.2-.7.4-1.1,1.2-1.1,2.2,0,2.1,1.5,4.6,3.3,5.7h0ZM23,12.1c0,.3,0,.6,0,.8-.2,0-.4-.2-.7-.3-1.8-1-3.2-3.5-3.2-5.5,0-.2,0-.5,0-.7.3,0,.5.2.8.3,1.7,1,3.1,3.4,3.1,5.3h0Z"/>
  <path class="cls-1" d="M8.3,25.1l1.7,1,.6-.3-1.7-1-.6.3Z"/>
  <path class="cls-1" d="M8,21.8c.5-.3,1.1-.5,1.8-.5v-.5c-.9,0-1.7.3-2.4.6,0,0,0,0-.1,0l.6.3s0,0,0,0h0Z"/>
  <path class="cls-1" d="M7.6,23.9c-.4-.4-.5-.8-.4-1.2h-.8c-.1.4,0,1,.5,1.4l.7-.2Z"/>
  <path class="cls-1" d="M13.8,27.5l-1.7-1-.6.3,1.7,1,.6-.3Z"/>
  <path class="cls-1" d="M20.2,31.2c-.2-.1-.4-.3-.6-.4l-1.1-.6-.6.3,1.1.6c.2.1.4.2.5.3l.7-.3Z"/>
  <path class="cls-1" d="M13.3,22.3l.6-.3-.9-.5c-.3-.2-.7-.3-1-.4l-.4.4c.3,0,.6.2.8.3l.9.5Z"/>
  <path class="cls-1" d="M19,34.8c-.5.3-1,.5-1.6.6l.3.4c.7-.1,1.4-.4,1.9-.7,0,0,.2,0,.2-.2l-.6-.3c0,0-.1,0-.2.1h0Z"/>
  <path class="cls-1" d="M6.5,31.9l1.7,1,.6-.3-1.7-1-.6.3Z"/>
  <path class="cls-1" d="M20.2,32.5c.1.4.1.9-.1,1.3h.8c.3-.3.3-.9.1-1.4h-.8c0,0,0,0,0,0Z"/>
  <path class="cls-1" d="M14.7,23.1l1.7,1,.6-.3-1.7-1-.6.3Z"/>
  <path class="cls-1" d="M9.7,33.8l1.7,1,.6-.3-1.7-1-.6.3Z"/>
  <path class="cls-1" d="M14.7,28.7l1.7,1,.6-.3-1.7-1-.6.3Z"/>
  <path class="cls-1" d="M13,35.5c.8.3,1.6.4,2.5.5v-.5c-.7,0-1.4-.2-2.1-.4l-.4.4h0Z"/>
  <path class="cls-1" d="M5.5,28.1c-1.3-.7-3.2-.7-4.5,0-.7.4-1,.9-1,1.5,0,.6.4,1.1,1,1.5.6.4,1.4.5,2.2.5s1.6-.2,2.2-.5c.7-.4,1-.9,1-1.5,0-.6-.4-1.1-1-1.5h0ZM5.1,30.4c-1,.6-2.6.6-3.6,0-.4-.2-.6-.5-.6-.8s.2-.6.6-.8c.5-.3,1.2-.4,1.8-.4s1.3.1,1.8.4c.4.2.6.5.6.8s-.2.6-.6.8h0Z"/>
</svg>