<?xml version="1.0" encoding="utf-8"?>
<!-- Generator: Adobe Illustrator 27.1.1, SVG Export Plug-In . SVG Version: 6.00 Build 0)  -->
<svg version="1.1" xmlns="http://www.w3.org/2000/svg" xmlns:xlink="http://www.w3.org/1999/xlink" x="0px" y="0px"
	 viewBox="0 0 800 800" style="enable-background:new 0 0 800 800;" xml:space="preserve">
<style type="text/css">
	.st0{fill:#DB5328;}
	.st1{fill:#010101;}
</style>
<g id="Layer_2">
</g>
<g id="Layer_3">
	<path class="st0" d="M543.57,169.01c0,0,25.43-25.34,7.39-40.26c0,0-20.78-26.7-53.56-4.96c0,0-46.23,27.33-35.11,73.93
		c11.12,46.6,0,0,0,0s2.79,15.21,24.49,14.29c0,0,24.08-33.82,47.84-37.86c0,0-12.39,22.62-9.11,27.7c0,0-1.2,6.37,9.11,3.69
		c0,0,9.7-13.1,14.95,0.46c0,0,0.58,23.76,11.73,23.55c0,0,14.85,4.62,13.56-24.47c0,0,2.24-7.8,12.48-7.36
		c0,0,21.17-19.91-9.23-30.98C578.12,166.75,561.71,160.94,543.57,169.01z"/>
	<path class="st0" d="M435.94,320.99c0,0-36.44,27.62-44.74,91.36c0,0-24.45,62.3-39.23,77.57l-7.62,20.22
		c0,0,31.08,38.54,54.67,41.03c0,0,37.76,18.27,72.2,5.26l-0.9,55.37c0,0,57.5,44.79,113.05,40.78
		c55.55-4.01,93.36-42.23,93.36-42.23l-6.57-44.83c0,0,85.71,12.63,108.64-64.86l-36.78-50.48c0,0-3.93-94.78-40.29-133
		c0,0-42.28,76.24-78.17,86.57c0,0-10.2,5.37-61.99-11.16c0,0-10.67-1.65-46,4.55C515.56,397.13,474.08,401.06,435.94,320.99z"/>
</g>
<g id="Layer_1">
	<g>
		<path class="st1" d="M685.05,262.29c-4.39,9.87-6.25,20.55-9.17,30.89c-1.24,4.72-2.7,9.37-4.24,13.99
			c-0.58,1.6-1.18,3.19-1.66,4.81c-0.28,0.5-0.56,0.99-0.86,1.47c-0.14,0.29-0.29,0.58-0.44,0.88c-0.48,0.62-0.99,1.21-1.46,1.85
			c-3.54,5.52-8.46,10-14.25,13.07c-5.68,3.2-12.44,6.04-18.91,3.47c-9.16-3.66-12.98-13.98-16.52-22.44
			c-1.81-4.51-3.82-8.94-5.99-13.27c-1.55-2.58-2.71-5.76-4.97-7.77c-2.9-5.17-6.99-9.67-11.72-14.06
			c-8.55-8.62-17.43-16.89-25.83-25.77c-2.48-2.09-2.86-5.34-3.61-8.33c-0.04-2.71-0.08-5.43-0.28-8.13
			c4.84-0.65,9.12-4.07,10.5-8.88c1.29-4.36,0.87-8.97,1.26-13.45c0.26-3.82,2.31-6.25,6.02-7.16c3.09-1.21,6.59-1.63,8.97-4.18
			c5.02-4.94,6.19-12.67,5.15-19.39c-0.19-1.17-0.6-2.22-1.09-3.21c4.41,2.39,8.48,5.44,12.35,8.61
			c5.34,4.24,10.14,8.31,14.51,13.73c4.48,5.65,8.15,11.88,11.87,18.03c2.48,3.48,4.37,7.48,7.55,10.39c2,1.56,5.1-0.56,3.96-2.97
			c-0.89-2.59-2.01-5.13-3.51-7.42c-2.61-4.12-4.82-8.47-7.52-12.54c0.59,0.21,1.19,0.41,1.81,0.53c2.47,0.61,5.07,0.72,7.61,0.57
			c2.59-0.15,5.28-0.08,7.78-0.86c5.73-1.88,11.07-5.41,14.25-10.62c3.45-6.51,5.31-14.39,3.68-21.68
			c-1.46-6.16-4.87-13.24-10.21-16.88c-3.71-2.34-8.01-3.56-12.34-4.04c-7.01-1.37-14.51,0.24-20.69,3.73
			c-4.91,2.56-8.3,7.27-10.56,12.22c-2.26,4.94-1.85,10.59-0.44,15.7c-1.21-1-2.43-1.99-3.66-2.95c-3.58-2.84-7.31-5.52-11.24-7.87
			c-0.33-0.28-0.71-0.5-1.14-0.67c-0.42-0.24-0.82-0.5-1.25-0.73c-2.55-1.39-5.35-2.18-8.21-2.62c-2.38-0.8-4.78-1.53-7.23-2.06
			c-5.79-2.92-12.15-4.6-18.67-4.33c-4.1-0.18-7.98,1.2-11.83,2.45c0,0,0,0,0,0c1.03-1.7,2-3.45,2.89-5.23c0,0,0,0,0,0c0,0,0,0,0,0
			c0.01-0.01,0.01-0.02,0.02-0.04c0.27-0.55,0.54-1.11,0.79-1.67c0,0,0,0,0,0c0.52-1.15,1-2.31,1.42-3.49
			c0.39-0.96,0.6-1.96,0.68-2.97c0-0.01,0-0.02,0-0.02c1.04-3.84,1.27-7.89,0.46-11.89c-1.76-7.59-7.5-13.31-13.35-18.07
			c-5.15-5.06-12.33-7.58-19.36-8.62c-13.81-0.89-27.75,3.78-39,11.66c-15.53,11.41-32.18,39.81-30.93,59.38
			c1.18,12.65,8.18,27.56,21.61,30.56c1.41,0.22,3.88,0.39,6.16,0.14c-0.53,0.94-1.09,1.87-1.6,2.82
			c-2.27,4.64-11.48,23.49-9.2,27.38c3.15,3.74,4.74-2.29,5.6-4.64c2.69-6.39,5.1-12.91,8.29-19.07
			c9.46-17.76,23.19-34.31,42.32-41.82c-3.3,4.16-5.7,8.99-6.56,14.31c-0.83,4.47-1.59,9.66,0.71,13.8c2.43,4.2,8.58,5.44,12.5,2.62
			c3.12-1.88,4.82-5.82,8.65-6.65c1.42-0.06,1.51,1.81,2.05,2.77c0.41,1.26,0.59,2.6,0.91,3.88c0.01,0.1,0.04,0.2,0.05,0.31
			c-0.19,0.67,0.03,1.41,0.15,2.09c0.19,1.78,0.1,3.88,1.1,5.43c0.46,2.54,1.49,5.05,2.49,7.35c1.68,3.77,4.55,6.82,8.41,7.91
			c-0.16,0.87-0.27,1.76-0.4,2.55c-0.4,3.7-0.37,7.43-0.11,11.14c-0.01,1.04,0.11,2.17,0.4,3.24c-0.64,0.68-1.3,1.34-1.93,2.01
			c-1.81,1.95-3.69,3.82-5.57,5.7c-3.99,2.85-7.61,6.23-11.4,9.35c-8.47,7.06-15.84,15.29-22.97,23.67
			c-5.13,6.57-8.88,14.09-13.89,20.75c-4.79,5.95-10.91,10.75-17.51,14.54c-6.83,2.83-15.18,1.08-20.58-3.89
			c-5.36-4.94-9.16-11.28-11.25-18.24c-2.34-8.57-3.7-17.38-5.63-26.05c-2.01-12.64-3.15-25.57-7.85-37.62
			c-1.38-3.76-3.42-8-7.61-9.12c-1.05-0.3-2.36-0.53-3.22,0.32c-2.16,2.9,1.86,4.36,3.38,6.26c1.94,2.75,2.66,6.15,3.7,9.31
			c1.15,3.8,2.21,7.66,2.92,11.59c1.21,6.86,2.07,14.24,3.26,21.2c1.09,5.63,2.47,11.45,3.5,17.12c1.55,8.29,4.09,16.59,8.97,23.55
			c4.74,6.59,11.21,12.61,19.56,13.69c8.99,1.37,14.33-1.64,21.2-6.95c5.22-3.7,8.95-7.86,12.21-12.29c0.09,0.19,0.14,0.4,0.23,0.59
			c2.09,4.43,6.41,7.03,10.13,9.96c14.45,11.53,32.65,15.94,50.86,17.77c15.02,1.37,29.82-2.54,41.16-12.74
			c1.91-1.95,4.06-4.11,5.6-6.53c3.8,6.79,8.8,12.72,16.39,15.38c4.97,1.68,10.57,1.58,15.48-0.25c4.89-2.03,9.67-4.48,13.87-7.74
			c3.95-2.95,6.34-5.7,7.93-9.05c0.34-0.51,0.63-0.99,0.81-1.24c0.77-1.28,1.39-2.62,1.93-3.99c5.7-9.72,11.64-39.92,13.3-43.94
			c1.82-5.32,3.96-10.52,6.29-15.63c4.69-9.24,9.96-18.27,15.48-27C696.67,237.71,690.18,249.31,685.05,262.29z M636.63,167.12
			c0.32-0.18,0.65-0.35,1-0.47c0.7-0.24,1.41-0.4,2.14-0.52c0.1-0.02,0.21-0.03,0.31-0.05c0.35-0.07,0.69-0.14,1.04-0.18
			c-0.01,0-0.03,0-0.04,0c0.04,0,0.07-0.01,0.11-0.01c0.07-0.01,0.14-0.02,0.21-0.03c0.31-0.06,0.61-0.11,0.92-0.12
			c0.25-0.01,0.49,0.02,0.74,0.04c0.13,0,0.26,0,0.39-0.01c0.17-0.01,0.34-0.01,0.52,0c0.37,0.03,0.8,0.13,1.04,0.43
			c0.04,0.01,0.08,0.02,0.12,0.02c-0.04-0.01-0.08-0.01-0.12-0.02c0,0,0,0,0,0c0.56,0.12,1.09,0.32,1.61,0.54
			c0.38,0.16,0.75,0.33,1.08,0.58c0.21,0.16,0.42,0.33,0.63,0.5c0.03,0.03,0.06,0.05,0.09,0.08c0.04,0.03,0.09,0.06,0.13,0.1
			c-0.02-0.01-0.04-0.03-0.06-0.04c0.33,0.23,0.63,0.5,0.93,0.78c0.08,0.08,0.18,0.14,0.26,0.22c0.52,0.5,1.05,0.99,1.48,1.57
			c0.43,0.57,0.81,1.2,1.14,1.83c0.28,0.53,0.48,1.11,0.65,1.69c0.17,0.58,0.27,1.18,0.34,1.78c0.01,0.09,0.04,0.18,0.05,0.27
			c0,0,0,0,0,0c0.05,0.49,0.1,0.98,0.09,1.47c-0.01,0.44-0.04,0.88-0.07,1.31c-0.05,0.53-0.15,1.04-0.27,1.56
			c-0.19,0.8-0.47,1.55-0.86,2.28c-0.35,0.65-0.78,1.24-1.24,1.82c-0.7,0.87-1.48,1.63-2.43,2.23c-0.43,0.27-0.88,0.49-1.34,0.69
			c-0.45,0.2-0.9,0.39-1.37,0.56c-0.64,0.23-1.29,0.4-1.96,0.51c-0.19,0.03-0.37,0.08-0.56,0.1c0.01,0,0.01,0,0.01,0
			c-0.22,0.02-0.43,0.03-0.66,0.03c-0.29,0-0.58-0.02-0.87-0.06c-0.53-0.08-1.06-0.16-1.57-0.3c-0.54-0.16-1.07-0.32-1.59-0.53
			c-0.68-0.27-1.31-0.63-1.92-1.04c-1.19-0.8-2.22-1.82-3.08-2.96c-0.46-0.6-0.86-1.24-1.22-1.9c-0.12-0.22-0.23-0.44-0.34-0.66
			c-0.22-0.36-0.42-0.74-0.59-1.12c-0.4-0.91-0.62-1.92-0.69-2.92c-0.07-1,0.03-1.99,0.28-2.96c0.15-0.59,0.41-1.17,0.72-1.7
			c0.21-0.38,0.45-0.74,0.73-1.08c0.03-0.05,0.05-0.1,0.09-0.16c0.31-0.55,0.69-1.05,1.12-1.51c0.11-0.19,0.23-0.37,0.36-0.55
			c0.32-0.43,0.7-0.82,1.11-1.16c0.3-0.25,0.63-0.47,0.97-0.68C636.34,167.28,636.49,167.2,636.63,167.12z M646.62,166.75
			c-0.04-0.02-0.08-0.03-0.11-0.05C646.54,166.72,646.58,166.73,646.62,166.75C646.62,166.75,646.62,166.75,646.62,166.75z
			 M646.61,166.75c-0.02-0.01-0.04-0.02-0.06-0.03C646.57,166.73,646.59,166.74,646.61,166.75
			C646.61,166.75,646.61,166.75,646.61,166.75z M487.02,208.48c-3.1-0.42-6.29-0.42-9.35-1.21c-8.81-2.73-13.45-12.03-15.06-20.54
			c-2.33-16.07,8.13-33.61,17.45-46.03c7.13-9.6,17.71-15.99,29.05-19.4c10.04-2.88,20.42-3.32,29.77,1.96
			c4.73,3.67,9.62,7.46,12.85,12.59c2.24,3.36,2.27,7.5,1.48,11.33c-0.43,1.89-0.91,3.77-1.42,5.65c-0.95,2.42-1.92,4.83-3.13,7.14
			c-0.31,0.66-0.61,1.36-0.91,2.1c-0.68,0.87-1.41,1.84-1.92,2.78c-0.65,0.56-1.35,1.08-2.14,1.57c-1.51,1-3.62,1.29-4.86,2.63
			c-0.02,0.02-0.03,0.04-0.04,0.06c-1.52,0.33-3,0.75-4.46,1.26c-3.94,0.52-7.63,2.18-11.21,3.99c0.28-1.8,0.35-3.65-0.16-5.38
			c-1.32-12.73-13.73-22.64-26.37-22.64c-10.05,0.85-18.84,9.1-21.18,18.79c-2.8,13.06,2.89,29.9,16.43,34.36
			c0.61,0.17,1.25,0.15,1.84,0c-2.23,2.96-4.28,6.06-6.24,9.2C487.31,208.62,487.18,208.52,487.02,208.48z M501.68,178.28
			c-12.79-0.41-11.13-16.47-2.06-18.53c2.11,0.1,4.21,0.45,6.15,1.43c0.22,0.1,0.39,0.27,0.59,0.39c0.9,1.03,1.91,2.04,2.38,3.32
			C511.21,170.32,508.32,178.27,501.68,178.28z M556.04,222.18c-0.92-1.84-1.72-3.72-2.5-5.62c-0.04-0.59-0.2-1.3-0.37-1.98
			c-0.09-0.67-0.2-1.34-0.33-2c0.02-0.47,0.04-0.94,0.05-1.42c0,0,0,0-0.01,0c-0.14-0.37-0.23-0.76-0.32-1.15
			c0.33-2.12,0.14-4.3-0.69-6.32c-1.25-4.59-5.03-8.81-10.12-6.7c-2.84,1.11-4.81,3.62-7.06,5.57c-0.94,0.84-2.19,1.79-3.54,1.77
			c-4.35,0.37-3.06-3.18-3.06-6.09c0.66-4.88,2.2-9.69,5.23-13.63c7.92-10.03,16.15-11.86,27.82-15.3
			c7.14-1.22,14.53,0.15,20.9,3.54c1.57,0.78,3.05,1.71,4.52,2.67c1.64,1.27,3.69,2.36,4.63,4.28c1.22,4.81,0.46,10.77-3.15,14.4
			c-2.43,2.13-6,2.35-8.85,3.82c-3.67,1.11-6.24,4.37-7.1,8.05c-1.87,7.49,1.47,19.64-9.54,20.49
			C559.55,226.8,557.26,224.77,556.04,222.18z M557.07,334.16c-9.44-1.69-18.61-4.86-26.75-9.95c-0.32-0.45-0.68-0.87-1.13-1.22
			c-2.74-2.16-5.48-4.3-8.01-6.71c-2.75-2.66-5.4-5.73-6.84-9.32c2.3-3.62,4.63-7.35,7.37-11.11c5.04-2.74,10.13-5.45,15.65-7.1
			c8.98-2.72,18.51-3.56,27.87-3.15c9.12,0.71,17.6,2.64,26.31,6.01c6.1,2.87,11.7,6.88,16.5,11.55c0.9,1.94,1.81,3.87,2.67,5.82
			c1.21,3.02,2.48,6.18,3.91,9.28C599.93,337.89,579.67,339.2,557.07,334.16z"/>
		<path class="st1" d="M509.81,451.79c-5.01-0.7-10.11-0.59-15.16-0.49c-1.25,0.05-2.49,0.08-3.74,0.02
			c-0.34-0.01-0.66,0.07-0.97,0.19c-2.44,0.08-6.31,2.2-7.33,3.08c-12.29,7.68-8.65,22.18,1.95,27.68c-1.04,0.87-1.92,1.91-2.48,3.2
			c-0.57,1.26-0.1,3.2,1.56,3.08c2.18-0.69,4.11-2.19,6.34-2.88c3.68-1.4,8.21-0.99,10.92,2.09c3.46,4.88,2.31,12.89-2.57,16.44
			c-5.27,3.41-11.87-0.11-16.47-3.19c-0.8-0.65-1.5-1.41-2.09-2.26c-0.22,0.66-0.45,1.39-0.64,2.08
			c-1.44,6.82,4.99,10.35,10.79,11.2c17.04,3.01,24.07-22.7,12.76-30.8c3.1-2.15,5.41-5.28,5.9-9.2c0.66-4.7-1.02-9.65-3.75-13.45
			c-0.55-0.63-1.18-1.21-1.84-1.77c2.1,0.04,4.19,0.07,6.28-0.01C514.11,456.92,515.41,452.32,509.81,451.79z M494,478.44
			c-7.07,0.43-14.18-5.58-14.25-12.79c0.29-4.17,4.19-6.56,7.41-8.53c2.12,1.68,4.8,1.85,7.33,2.38c1.58,0.48,2.98,1.29,4.29,2.3
			c2.1,1.59,3.37,4.48,4.05,7.02C504.74,474.6,499.19,478.32,494,478.44z"/>
		<path class="st1" d="M555.37,449.49c-0.42-0.66-0.81-1.33-1.21-2c-0.01-0.01-0.01-0.02-0.02-0.03c0,0,0,0,0,0
			c-0.16-0.28-0.32-0.55-0.48-0.83c-0.21-0.19-0.42-0.38-0.63-0.56c-1.54-0.65-3.27-0.85-4.94-0.62c-7.17,0.49-14.11,3.83-19.1,9.01
			c0.34-3.34-0.84-7.17-1.93-10.09c-1.98-4.84-5.15-10.19-10.38-11.87c-0.89,0.06-1.31,0.94-1.18,1.76
			c0.12,0.35,0.32,0.66,0.51,0.97c-2.77,3.98-3.21,9.1-2.05,13.74c1.14,4.82,3.38,10.26,8.25,12.31c0.44,0.17,1.02,0.32,1.61,0.4
			c-0.02,0.2-0.04,0.41-0.05,0.61c-0.15,0.6-0.2,1.2-0.11,1.8c-0.03,0.26-0.06,0.49-0.12,0.7c-0.39,2.53-0.54,5.15-0.21,7.68
			c-0.06,1.31-0.12,2.63-0.26,3.93c-0.06,0.39-0.12,0.78-0.2,1.16c-0.12,0.25-0.19,0.51-0.19,0.78c0,0.03,0,0.05,0,0.07v0
			c0,0.11,0,0.22,0.01,0.33c0,0.02,0.01,0.04,0.01,0.05c-1.38,0.5-2.71,1.18-3.95,1.97c-1.61,0.95-2.98,2.36-3.44,4.21
			c-0.16,0.63-0.18,1.65,0.58,1.92c0.64,0.22,1.29-0.21,1.53-0.81c1.23-1.61,3.26-2.32,5.06-3.1c2.44-1.15,5.44-0.83,7.87,0.22
			c1.05,0.57,1.87,1.45,2.75,2.25c0.24,0.22,0.51,0.38,0.78,0.54c0.33,0.46,0.72,0.88,1.24,1.17c0.88,0.62,2.81,0.7,2.74-0.79
			c-0.05-0.5-0.24-0.92-0.49-1.29c-0.09-0.65-0.41-1.2-0.89-1.64c-0.23-0.57-0.53-1.12-0.99-1.58c-2.08-1.88-4.56-3.5-7.42-3.76
			c-0.07-0.01-0.14,0.01-0.21,0c-0.02-0.28-0.04-0.55-0.05-0.83c-0.02-1.67,0.07-3.34,0.12-5c0.05-1.62,0.01-3.25,0.07-4.87
			c0.05-1.28,0.06-2.55,0.04-3.82c0.39-0.5,0.74-0.97,1.03-1.27c2.18-2.6,4.26-4.92,7.09-6.94c3.36-2.28,7.17-4.01,11.26-4.3
			c0.94-0.04,1.89-0.1,2.82-0.21c0.07,0.28,0.16,0.55,0.26,0.84c-0.01,0.21,0,0.41-0.04,0.63c-0.54,2.02-1.25,4-1.98,5.97
			c-0.52,0.72-1.07,1.43-1.65,2.11c-2.82,3.36-6.21,6.2-10.18,8.09c-1.07,0.65-2.24,1.05-3.41,1.45c-0.54,0.25-1.13,0.56-1.32,1.18
			c-0.57,1.94,1.56,3.07,3.2,3.07c3.78-0.48,6.87-3.2,9.95-5.27c4.15-3.13,7.44-7.05,9.77-11.85
			C556.05,454.66,556.14,451.99,555.37,449.49z M519.22,450.36c-0.74-2.12-1.03-4.37-0.99-6.61c0.09-2-0.04-3.99-0.19-5.98
			c0.63,0.63,1.26,1.26,1.82,1.91c3.98,5.03,5.17,11.42,5.65,17.68c0,0-0.01,0-0.01,0c-0.11,0.07-0.16,0.2-0.24,0.32
			C522.14,456.37,520.28,453.45,519.22,450.36z"/>
		<path class="st1" d="M574.1,482.45c10.68,0.8,22.8-0.03,30.81-7.99c3.1-3.77,4.1-9.45,2.04-13.94c-1.72-3.85-5.67-6.1-9.38-7.72
			c-6.43-2.71-13.64-2.86-20.51-2.47c-7.33,0.53-15.54,2.51-19.89,8.95c-2.22,3.54-5.35,8.71-2.85,12.77v0
			c-0.18,2.93,2.67,4.45,4.9,5.63C563.9,480.43,568.62,481.79,574.1,482.45z M574.16,456.56c6.88-0.61,14.12-0.54,20.69,2.12
			c5.21,2.11,10.73,6.67,6.49,12.48c-3.5,2.86-8.06,4.52-12.5,5.19c-7.71,0.97-15.58,0.48-22.82-2.47c-2.6-1.13-4.9-2.88-7.46-4.05
			C559.77,461.04,565.88,457.49,574.16,456.56z"/>
		<path class="st1" d="M622.99,480.22c0.61-0.99,1.19-2,1.73-3.03c1.21-2.31,2.24-4.71,3.25-7.12c1.14-2.7,2.22-5.42,3.33-8.14
			c0.81,2.43,1.69,4.84,2.57,7.25c0.87,2.43,1.74,4.85,2.63,7.27c0.69,1.86,1.42,3.72,2.02,5.62c0.11,0.64,0.39,1.25,0.85,1.72
			c0.47,0.47,1.08,0.7,1.69,0.7c0.49,0,0.99-0.15,1.44-0.43c1.13-0.72,1.77-2.08,1.8-3.4c0-0.03-0.01-0.07-0.01-0.1
			c0.23-0.39,0.49-0.78,0.7-1.18c0.89-1.7,1.68-3.44,2.46-5.2c2.67-5.94,4.73-12.15,7.31-18.13c0.03-0.06,0.06-0.12,0.09-0.18
			l-0.01-0.01c0.04-0.07,0.08-0.15,0.12-0.22c0-0.01,0.01-0.01,0.01-0.02c0.03-0.07,0.07-0.15,0.11-0.24
			c-0.01,0.03-0.03,0.06-0.04,0.08c-0.01,0.03-0.03,0.06-0.04,0.09c0,0,0,0.01-0.01,0.02c0.01-0.02,0.02-0.04,0.03-0.06
			c0.07-0.13,0.13-0.27,0.18-0.41c0.06-0.17,0.12-0.34,0.16-0.52c0.36-1.45-0.03-3.36-1.52-4.04c-1.67-0.76-3.32,0.64-3.9,2.14
			c-0.03,0.09-0.07,0.18-0.09,0.28c-0.06,0.18-0.11,0.37-0.16,0.55c-0.01,0.02-0.01,0.03-0.02,0.05l-0.01,0.02
			c-0.77,2.26-1.67,4.48-2.54,6.7c-0.95,2.45-1.92,4.9-2.85,7.36c-0.81,2.13-1.53,4.29-2.22,6.46c-0.19-0.52-0.4-1.03-0.59-1.54
			c-0.9-2.37-1.79-4.74-2.71-7.1c-0.94-2.43-1.81-4.89-2.85-7.28c-0.53-1.22-1.1-2.4-1.8-3.54c-0.12-0.19-0.24-0.38-0.36-0.57
			c-0.2-0.87-0.69-1.69-1.53-2.06c-0.96-0.44-2.03-0.13-2.8,0.53c-0.66,0.58-1.11,1.41-1.29,2.27c-0.01,0.04-0.02,0.08-0.03,0.11
			c-0.33,0.94-0.72,1.86-1.08,2.78c-0.42,1.08-0.84,2.16-1.28,3.23c-0.92,2.26-1.86,4.5-2.74,6.77c-0.9,2.33-1.79,4.66-2.5,7.05
			c-0.01,0.03-0.02,0.07-0.03,0.1c-0.3-0.68-0.61-1.37-0.91-2.05c-0.96-2.17-1.92-4.33-2.86-6.5l-0.04-0.09
			c-0.02-0.05-0.04-0.1-0.06-0.15c-0.01-0.02-0.05-0.11-0.08-0.19l-0.05-0.12c-0.01-0.02-0.01-0.03-0.02-0.05
			c0,0-0.01-0.04-0.03-0.07c-0.97-2.26-2.03-4.59-3.13-6.89c-1.01-2.14-2.12-4.2-3.38-6.2c-0.36-0.6-0.7-1.2-1.41-1.43
			c-1.07-0.35-2.14,0.75-2.36,1.71c-0.13,0.56-0.13,1.07,0.02,1.62c0.1,0.37,0.21,0.74,0.32,1.11c1.09,3.86,2.83,7.86,4.58,11.82
			c1.7,3.83,3.46,7.64,5.12,11.48c0.41,0.98,0.89,1.99,1.22,3.02c0.03,0.1,0.05,0.19,0.08,0.29c0.01,0.04,0.02,0.08,0.02,0.12
			c0.02,0.02,0.03,0.04,0.03,0.06c0.17,0.83,0.61,1.6,1.42,1.99c0.31,0.15,0.63,0.22,0.95,0.22c0.77,0,1.52-0.39,2.06-0.98
			C622.81,482.72,623.18,481.42,622.99,480.22z"/>
		<path class="st1" d="M653.02,477.73c-1.66,0.69-2.48,2.72-1.79,4.37c2.19,4.58,6.97,1.16,5.52-2.95
			C656.39,477.45,654.43,476.98,653.02,477.73z"/>
		<path class="st1" d="M559.63,501.24c0.53-0.16,1-0.63,0.94-1.22c-0.54-0.34-1.12,0.39-1.31,0.9c-0.06-0.1-0.14-0.17-0.26-0.18
			c-0.66,0.07-0.42,1.02-0.5,1.49c0.03,0.56-0.23,1.21,0.04,1.73c0.21,0.28,0.61,0.14,0.69-0.17c0.07-0.34,0.01-0.7,0.05-1.05
			c0.02-0.5,0-0.99,0.05-1.49c0-0.01,0-0.01,0-0.02C559.41,501.3,559.53,501.33,559.63,501.24z"/>
		<polygon class="st1" points="560.57,500.01 560.57,500.01 560.57,500.01 		"/>
		<path class="st1" d="M564.15,507.9c0.17-0.63,0.1-1.27-0.05-1.89c0.03-0.08,0.05-0.16,0.05-0.25c-0.06-1.42-0.02-2.84-0.02-4.25
			c0.26-0.41-0.04-0.98-0.54-0.95c-0.31,0-1.17-0.1-1.67,0.04c-0.95-0.53-0.76,1.35-0.81,1.88c0.02,0.93-0.08,1.85-0.04,2.77
			c-1.5-0.13-3.22-0.19-2.83,0.69c0.02,0.02,0.05,0.02,0.07,0.04c-0.17,0.37-0.22,0.94-0.31,1.2c-0.04,0.37-0.27,0.88,0.06,1.15
			c0.01,0.02-0.01,0.03,0,0.05c0.44,0.43,1.18,0.28,1.75,0.33c1.07,0.04,2.15,0.02,3.25,0.06c0.42,0.04,1.07-0.01,1.18-0.5
			c0-0.09-0.07-0.14-0.12-0.2C564.14,508.01,564.15,507.96,564.15,507.9z"/>
		<path class="st1" d="M571.41,505.7c-0.01-0.13-0.06-0.25-0.2-0.32c-0.72-0.07-1.48,0.11-2.22,0.08c-0.58-0.04-1.24-0.17-1.86-0.15
			c0-0.54-0.02-1.08,0.03-1.6c-0.04-0.54,0.04-1.13-0.02-1.68c0.06-0.2,0.04-0.39,0.02-0.59c0.13-0.57-0.15-0.78-0.38-0.6
			c-0.15-0.17-0.46-0.24-0.72-0.1c-0.04,0.01-0.06,0.03-0.1,0.05c-0.06,0-0.13,0.02-0.16,0.07c0,0,0,0.01,0,0.01
			c-0.11,0.11-0.12,0.26-0.06,0.39c-0.03,0.21-0.05,0.41,0,0.62c-0.03,0.27-0.04,0.61,0,1.06c-0.01,0.66,0.01,1.33-0.03,1.99
			c0.03,0.8-0.11,1.62,0,2.4c-0.07,0.22-0.04,0.46-0.09,0.68c0-0.01,0-0.01,0-0.02c0,0,0,0,0,0c-0.11,0.51,0.54,0.44,0.87,0.48
			c0.65,0.05,1.31-0.03,1.96-0.1c0.5,0.02,1,0.04,1.51,0.05c0.18,0.02,0.64,0.01,1.05-0.06c0.04,0.03,0.05,0.07,0.1,0.1
			c0.26,0.04,0.37-0.1,0.44-0.28c0.08-0.06,0.1-0.13,0.07-0.21c0.04-0.34,0-0.76,0.07-1c0.02-0.4,0.16-0.91-0.15-1.24
			C571.47,505.7,571.45,505.72,571.41,505.7z"/>
		<path class="st1" d="M574.67,504.72c0.51-0.54-0.1-0.86-0.61-0.87c-0.32-0.27-1.81-0.33-2.41-0.03c0.23-0.09,0.35-0.25,0.14-0.52
			c0.02-0.07,0.01-0.15-0.02-0.22c0,0,0,0,0-0.01c0.03-0.14-0.02-0.28-0.12-0.38c0.21-0.9,0.23-2.16-0.4-1.85
			c-0.03,0.08-0.02,0.19-0.05,0.27c-0.54-0.42-1.26-0.41-1.95-0.34c-0.12,0-0.24,0.03-0.34,0.07c-0.04-0.03-0.05-0.09-0.11-0.08
			c-0.18,0.08-0.21,0.32-0.24,0.49c-0.02,0.11-0.01,0.23-0.02,0.35c-0.02,0.04-0.01,0.08-0.01,0.12c-0.06,0.57-0.02,1.12,0.17,1.65
			c-0.07,0.05-0.12,0.13-0.12,0.21c-0.01,0.31,0.37,0.39,0.61,0.46c0.51,0.11,1.02,0.04,1.49-0.14c0.08,0,0.16,0.02,0.24,0.02
			c0.18,0,0.5-0.02,0.73-0.11c-0.29,0.14-0.38,0.35-0.01,0.68c-0.01,0.05-0.01,0.1,0,0.14c-0.03,0.02-0.06,0.05-0.09,0.08
			c-0.1,0.12-0.09,0.29,0.01,0.4c-0.07,0.78,1.32,0.39,1.8,0.48h-0.08c0.5,0.06,1.94,0.07,1.37-0.78c0,0,0-0.01,0-0.01
			C574.67,504.78,574.67,504.75,574.67,504.72z M568.98,503.24c0.02,0.03,0.04,0.05,0.06,0.07c-0.03,0-0.06,0-0.09,0
			C568.97,503.29,568.97,503.26,568.98,503.24z"/>
		<path class="st1" d="M578,503.27c0.1-0.11,0.15-0.27,0.09-0.42c-0.03-0.1-0.1-0.17-0.19-0.22c0.07-0.08,0.11-0.18,0.11-0.29
			c0-0.09-0.03-0.18-0.08-0.25c0.23-0.24,0.12-0.63-0.18-0.74c0.04-0.43-0.47-0.59-0.82-0.5c-0.6,0.01-1.37,0.05-1.87,0.22
			c-0.18,0.06-0.34,0.17-0.41,0.35c-0.05,0.12-0.03,0.24,0.03,0.33c-0.09,0.1-0.15,0.24-0.1,0.37c0.05,0.12,0.14,0.19,0.24,0.23
			c-0.27,0.21-0.11,0.59,0.21,0.62c-0.04,0.02-0.07,0.05-0.11,0.08c-0.06,0.06-0.1,0.14-0.09,0.22c-0.33,0.07-0.47,0.52-0.1,0.64
			c0.81,0.22,1.67-0.1,2.49,0C577.6,504.01,578.18,503.72,578,503.27z"/>
		<path class="st1" d="M582.15,503.63c0.39-0.61,0.16-1.37,0.01-2.03c-0.03-0.53-0.4-1.07-0.96-0.69c-0.01-0.01-0.02-0.01-0.03-0.02
			c-0.16-0.1-0.38-0.1-0.56-0.03c-0.05-0.02-0.11-0.04-0.16-0.05c-0.11-0.02-0.23-0.01-0.34,0.03c-1.64-0.56-0.79,1.91-0.86,2.74
			c-0.46,0.17-1.4,0.07-1.64,0.47c-0.63,0.02-0.66,0.44-0.2,0.6c-0.04,0.77,0.03,1.57,0.1,2.33c-0.09,0.36,0.07,0.75,0.49,0.75
			c-0.01,0.32-0.06,0.75,0.37,0.8c0.76,0.1,0.58-0.77,0.63-1.26c0.11-0.66,0.02-1.34,0.07-2c0.93,0.04,1.96,0.13,2.57-0.44
			c0.38,0.03,0.79-0.41,0.47-0.73c0,0,0-0.01,0-0.01c0.03-0.09,0.03-0.19,0.04-0.28C582.15,503.76,582.15,503.69,582.15,503.63z"/>
		<path class="st1" d="M591.08,506.78c0.09-0.17,0.11-0.36,0.01-0.52c-0.02-0.03-0.04-0.05-0.06-0.07c0.28-0.34,0.11-0.93-0.37-0.92
			c-0.16-0.29-0.54-0.18-0.82-0.17c-0.58,0.12-1.21-0.17-1.75,0.02c-0.09-0.01-0.15,0.03-0.23,0.04c0.08-0.04,0.19-0.03,0.25-0.1
			c0.13-0.24,0.05-0.53-0.25-0.57c0.01-0.13-0.03-0.22-0.07-0.3c0.35,0.22,0.55,0.08,0.65-0.17c0.4,0.04,0.85,0.04,1.01,0.1
			c0.38,0.02,0.76,0.01,1.13-0.07c0.24,0.07,0.51-0.08,0.5-0.35c0.1-0.52,0.17-1.09,0.03-1.6c0-0.01,0-0.01,0-0.02
			c0,0-0.01-0.01-0.01-0.01c-0.02-0.08-0.07-0.16-0.11-0.24c0.59-0.53,0.12-1.13-0.62-1.02c-0.41,0.04-0.88-0.02-1.28,0.08
			c-0.17-0.08-0.35-0.14-0.53-0.18c0.08-0.26,0.1-0.54-0.01-0.73c-0.09-0.22-0.25-0.36-0.4-0.42c0.01-0.17-0.2-0.37-0.61-0.34
			c-0.04,0-0.07,0.02-0.1,0.02c-0.44-0.31-1.29-0.09-1.66,0.13c-0.44-0.14-1.08,0.16-0.89,0.68c-0.45,0.46,0.02,0.74,0.48,0.83
			c0.1,0.15,0.29,0.15,0.45,0.17c0.6,0.01,1.19,0.15,1.78,0.21c0.04,0,0.09-0.02,0.13-0.02c-0.17,0.1-0.25,0.3-0.25,0.49
			c-0.22,0.27-0.15,0.86-0.11,1.18c0.01,0.07,0.02,0.16,0.02,0.24c-0.03,0.11-0.03,0.21,0.03,0.29c0.03,0.24,0.11,0.46,0.29,0.66
			c-0.44-0.47-1.92-0.07-2.71,0.06c0.01-0.13,0-0.27,0.02-0.39c-0.04-1.04,0.35-2.25-0.37-3.12c-0.94-0.98-1.64,1.15-1.14,1.81
			c0.07-0.01,0.14-0.1,0.21-0.13c-0.17,1.68-0.17,3.9-0.06,5.53c-0.09,0.34,0.1,0.66,0.44,0.75c0.03,0.05,0.07,0.09,0.13,0.13
			c0,0,0,0,0,0c0.57,0.38,0.74-0.27,0.63-0.72c0.21-0.89,0.13-1.9,0.11-2.89c0.64,0.09,1.29,0.13,1.91,0.19
			c0.18-0.01,0.41,0,0.63-0.02c-0.17,0.16-0.22,0.4-0.08,0.58c0.08,0.73,0,1.64,0.53,2.2c0.01,0.01,0.02,0,0.02,0.01
			c0.02,0.42,1.61,0.54,1.94,0.6c0.46,0.04,1.54,0.23,1.36-0.53c-0.01-0.4-0.1-0.78-0.23-1.15
			C591.09,506.92,591.1,506.85,591.08,506.78z"/>
		<path class="st1" d="M593.08,500.09c-0.01,0-0.01,0-0.02,0c0.02,0,0.03,0.01,0.04,0.01c0.01,0,0.01-0.01,0.02-0.01
			C593.11,500.09,593.09,500.09,593.08,500.09z"/>
		<path class="st1" d="M593.82,500.66c-0.05-0.34-0.39-0.57-0.72-0.56c-0.32-0.01-0.46,0.29-0.37,0.57
			c-0.41,1.1-0.35,3.49-0.21,4.98c0.16,0.82-0.13,1.82,0.36,2.52c0.45,0.28,0.67,0.17,0.79-0.11c0.02,0,0.03,0.01,0.05,0.01
			c1.06-0.43,0.17-3.62,0.2-4.64C593.81,502.52,593.83,501.57,593.82,500.66z"/>
		<path class="st1" d="M602.94,507.2c-0.08-0.17-0.27-0.22-0.45-0.23c0.02-0.09,0.03-0.19,0-0.28c0.12-0.12,0.21-0.28,0.22-0.45
			c0.27-0.2,0.41-0.69,0.1-0.92c0-0.25-0.22-0.43-0.45-0.41c-0.91-0.01-1.8,0.14-2.7,0.25c-0.03,0-0.06,0-0.09,0
			c0.15-0.08,0.26-0.19,0.26-0.37c-0.31-0.4-0.85-0.52-1.34-0.5c-0.38,0.05-1.02-0.02-1.58,0.02c0.03-0.62,0.07-1.23,0.1-1.84
			c0-0.47-0.32-0.82-0.61-1.16c-0.65,0.32-0.71,1.09-0.71,1.74c-0.08,1.6-0.05,3.15,0.12,4.77c0.05,0.26,0.18,0.55,0.44,0.65
			c0.13,0.04,0.33,0,0.37-0.14c0.3-0.33,0.25-0.85,0.25-1.27c-0.03-0.58-0.01-1.18,0.01-1.78c0.57,0.02,1.13,0.02,1.75,0.05h-0.08
			c0.07,0.01,0.16,0,0.24,0.01c0.28,0.08,0.59,0.16,0.85,0.25c-0.03,0.08-0.04,0.17-0.02,0.25c-0.15,0.21-0.19,0.51-0.01,0.7
			c0.01,0.01,0.02,0.02,0.03,0.02c-0.06,0.15-0.06,0.34,0.03,0.48c0.01,0.02,0.02,0.03,0.04,0.04c-0.07,0.12-0.11,0.26-0.08,0.39
			c-0.03,0.07-0.05,0.14-0.05,0.21c-0.16,0.2-0.15,0.58,0.14,0.66c0.82,0.07,1.65,0.12,2.48,0.14c0.53,0.11,1.15-0.32,0.65-0.75
			C602.97,507.59,603.03,507.37,602.94,507.2z"/>
		<path class="st1" d="M609.86,507.63c0.04-0.07,0.07-0.15,0.08-0.23c0.01-0.06,0-0.12-0.02-0.17c0.4,0.02,0.75-0.56,0.39-0.83
			c0.32-0.31,0.1-0.86-0.36-0.73c0-0.03,0-0.06,0-0.09c0.09-0.04,0.24-0.04,0.29-0.11c-0.11-0.02-0.22-0.03-0.34-0.05
			c-0.18-0.27-0.57-0.12-0.85-0.12c-0.97-0.02-5.08-0.88-4.86,0.69c-0.04,0.16-0.02,0.33,0.1,0.45c-0.01,0.08-0.01,0.16,0.02,0.23
			c0.01,0.03,0.03,0.07,0.05,0.1c-0.15,0.18-0.19,0.5,0.02,0.65c-0.01,0.11,0.02,0.22,0.12,0.31c0.04,0.04,0.09,0.06,0.14,0.07
			c0.01,0.04,0.02,0.08,0.03,0.11c-0.02,0.11,0,0.21,0.1,0.29c0.72,0.23,1.58,0.16,2.36,0.2c1.05-0.03,2.13,0.06,3.16-0.11
			C610.87,507.98,610.29,507.61,609.86,507.63z"/>
		<path class="st1" d="M604.71,503.95c0.08,0.13,0.21,0.23,0.37,0.25c0.78-0.1,0.55-1.35,0.73-1.92c0.12-0.54,0.21-1.74-0.66-1.48
			c-0.12-0.06-0.26-0.08-0.38-0.01c-0.93-0.23-0.63,1.15-0.75,1.7c0.02,0.42-0.19,1.04,0.02,1.45
			C604.18,504.18,604.57,504.25,604.71,503.95z"/>
		<path class="st1" d="M603.55,501.59c-0.01,0.02-0.02,0.03-0.02,0.05c0.08-0.36-0.04-0.53-0.23-0.62c-0.02-0.04,0-0.07-0.05-0.13
			c-0.8-0.35-1.81-0.29-2.69-0.26c-0.29-0.03-0.49,0.04-0.67,0.13c0.05-0.14,0.04-0.29-0.15-0.44c0.02-0.11-0.03-0.22-0.11-0.3
			c0.17-0.66-0.51-0.68-0.94-0.48c-0.57,0.14-1.48-0.06-1.77,0.61c-1.2,1.21,1.55,0.9,2.17,0.97c0.17,0.04,0.34,0.01,0.49-0.06
			c-0.31,0.51-0.2,1.33,0.11,1.95c0,0.03,0.03,0.06,0.04,0.09c0.05,0.09,0.11,0.16,0.17,0.23c-0.58,0.32,0.22,0.66,0.59,0.62
			c0.36,0.01,1.8,0.05,2.5-0.18c0.13,0.02,0.23-0.03,0.27-0.15c0.09-0.08,0.14-0.18,0.07-0.31c0.02-0.17,0.02-0.34,0.03-0.45
			c0.04-0.4,0.13-0.91,0.19-1.32C603.56,501.56,603.56,501.57,603.55,501.59C603.55,501.58,603.55,501.58,603.55,501.59z
			 M600.36,502.63C600.36,502.63,600.36,502.62,600.36,502.63c0.01-0.01,0.02,0,0.02,0C600.37,502.63,600.37,502.63,600.36,502.63z"
			/>
		<path class="st1" d="M634.23,502.6c0.17,1.04-0.85,4.63,0.64,4.65c1.15,0.14,2.13-0.54,3.01-1.18c-0.88-0.22-1.93-0.19-2.86-0.07
			c0.12-3.6,0.16-7.15-0.32-10.74c0.97-0.49,2.17-0.61,3.26-0.51c0.3,0.03,1.07,0.13,0.93-0.42c-0.46-1.22-6.23-0.33-5,1.17
			C634.17,497.86,634.28,500.17,634.23,502.6z"/>
		<path class="st1" d="M640.11,505.93c-0.31-3.49-0.33-7.07-1.12-10.49c-0.14-0.5-0.62-0.61-0.6-0.02c0.3,3.6,0.72,7.29,0.74,10.94
			c-0.04,0.29,0.08,0.64,0.38,0.7c1.26,0.39,2.53,0.52,3.84,0.35c0.03,0.05,0.06,0.09,0.11,0.14c0.13,0.13,0.34,0.13,0.49,0.05
			c0.72-0.49,0.03-1.61,0.09-2.34c-0.53-3.61,0.08-7.34-0.96-10.86c-0.08-0.18-0.15-0.43-0.27-0.54c-0.46,4.1-0.09,8.23,0.32,12.33
			h0C642.11,506.32,641.1,506.23,640.11,505.93z"/>
		<path class="st1" d="M649.95,506.75c0.47-0.84,0.11-1.86-0.37-2.63c-0.59-1.14-1.27-2.39-2.56-2.87c1.08-1.03,2.28-2.15,2.73-3.62
			c0.3-2.48-1.28-4.65-3.91-3.47c-0.25,0.1-0.52,0.26-0.72,0.47c-0.01-0.02-0.01-0.03-0.01-0.05c-0.31-0.27-0.54,0.26-0.52,0.53
			c0.05,1.74,0.45,3.44,0.63,5.23c0.35,2.21-0.11,4.55,0.65,6.7c0,0,0,0.01,0.01,0.01c0.48-1.6,0.49-3.27,0.34-4.95
			c0.42,0.29,0.96,0.43,1.33,0.8C648.56,504.01,649.05,505.51,649.95,506.75z M646.05,500.73c-0.17-1.31-0.38-2.62-0.53-3.89
			c-0.1-0.45-0.15-0.93-0.22-1.39c0.04-0.03,0.11-0.02,0.13-0.08c2.03-1.24,3.57-0.73,3.6,1.81c-0.38,1.29-1.42,2.32-2.5,3.15
			C646.39,500.46,646.21,500.59,646.05,500.73z"/>
		<path class="st1" d="M656.57,494.86c-0.11-1.46-3.23-1.99-4.39-1.67c-0.41-0.18-0.61,0.49-0.32,0.74c0,0.07,0,0.14,0,0.2
			c-0.01,1.94,0.07,3.88,0.22,5.81c0.07,0.98,0.08,1.95,0.07,2.93c-0.01,0.01-0.02,0.01-0.03,0.02c-0.11,0.19-0.09,0.43,0.01,0.64
			c-0.02,0.69-0.04,1.38-0.07,2.07c-0.05,0.67-0.07,1.42,0.35,1.98c0.02,0.03,0.07,0.1,0.12,0.08c0.19-0.33,0.34-0.71,0.39-1.1
			c0.07-0.9,0.09-1.81,0.11-2.72c0.29,0,0.58-0.01,0.87,0.02c1.53,0.56,2.26,2.62,1.9,4.15c0,0,0,0,0,0
			c-1.04-0.45-2.41-0.86-3.37-0.09c1.15,0.25,2.04,1.24,3.24,1.37c0.41,0.06,0.79-0.2,0.93-0.58c0.72-1.96-0.06-4.32-1.65-5.62
			C656.52,500.72,656.71,497.66,656.57,494.86z M653.83,502.61c-0.25,0.04-0.54-0.01-0.83-0.02c-0.03-2.82-0.25-5.66-0.48-8.46
			c0.27,0,0.55-0.02,0.81,0.02c0.49,0.03,0.89,0.25,1.37,0.42c0.35,0.15,0.98,0.18,1,0.66C655.82,497.12,655.7,501.66,653.83,502.61
			z"/>
		<path class="st1" d="M649.57,512.97c0.22-0.27,0.2-0.67,0.21-1c0.01-0.78,0-1.65-0.14-2.48c-0.1-0.54-0.19-1.17-0.4-1.66
			c-0.4,1.22-0.62,2.49-0.55,3.78c0,0,0,0,0,0c-1.82-0.08-2.51-1.97-3.96-2.81c-0.51-0.24-0.97-0.91-1.57-0.76
			c-0.28,0.12-0.39,0.43-0.39,0.71c0.11,1.29,0.06,2.6,0.19,3.88c0.03,0.27,0.33,0.44,0.57,0.27c0.21-0.14,0.22-0.43,0.23-0.66
			c0.01-0.89,0-1.68,0.02-2.6c1.79,0.93,2.78,3.14,4.99,3.29C648.93,513.25,649.37,513.26,649.57,512.97z"/>
		<path class="st1" d="M636.78,511.91c0-0.17,0.01-0.74-0.02-1.29c0.82-0.12,1.63-0.31,2.42-0.6c0.03-0.01,0.13-0.01,0.12-0.05
			c-0.77-0.59-6.15-0.95-5.57,0.64c0.14,0.18,0.37,0.22,0.59,0.22c0.54-0.02,1.08-0.08,1.61-0.14c-0.23,1.9,0.12,3.89,0.1,5.81
			c-0.01,2.24,0.26,4.45-0.01,6.7c-0.01,0.46-0.17,1.23,0.39,1.41c0.9-0.05,0.44-1.48,0.62-2.1
			C637.19,518.98,636.92,515.44,636.78,511.91z"/>
		<path class="st1" d="M643.06,523.3c0.46-1.3,0.09-3.83-0.03-4.66c-0.27-1.29,0.15-2.85-0.8-3.92c-1.17,1.97-0.15,4.39-0.12,6.51
			c0.06,0.7-0.1,1.38-0.1,2.09c-0.74,0.02-1.5,0.04-2.23-0.12c-0.31-2.82-0.03-5.67-0.2-8.51c-0.07-0.84,0.2-1.89-0.24-2.72
			c-0.61-0.4-0.83,0.62-0.73,1.06c0.02,3.26-0.08,6.54,0.02,9.8c-0.05,1.62,0.4,1.56,1.85,1.74c0.55,0.06,1.12,0.05,1.67,0
			c0.44,0.03,1.01,0.09,1.25-0.39C643.63,523.69,643.45,523.35,643.06,523.3z"/>
		<path class="st1" d="M645.86,513.74c-0.03-0.3-0.1-0.58-0.32-0.78c-0.61-0.12-0.68,0.52-0.69,1.05c-0.18,0.12-0.34,0.27-0.34,0.53
			c0.01,0.17,0.17,0.26,0.33,0.21c-0.11,1.53-0.09,3.05-0.03,4.58c-0.12,0.11-0.22,0.26-0.24,0.43c-0.05,0.25,0.09,0.42,0.27,0.55
			c0.01,0.44,0.03,0.87,0.04,1.31c0.13,0.78-0.34,1.93,0.38,2.51c0.94-0.42,0.65-1.85,0.73-2.72c0-0.16-0.01-0.32-0.01-0.48
			c0.25,0.13,0.51,0.23,0.76,0.39c1.4,0.53,2.01,2.08,3.42,2.29c-0.24-1.96-1.93-3.06-3.57-3.9c1.6-0.8,5.36-1.93,3.95-4.31
			C649.4,514.2,647.54,513.52,645.86,513.74z M649.27,517.29c-1.01,0.73-2.19,1.19-3.36,1.62c-0.04-1.42-0.07-2.83-0.04-4.25
			c0.78-0.04,1.55,0.01,2.27,0.38C649.06,515.47,650.91,516.35,649.27,517.29z"/>
		<path class="st1" d="M652.38,510.84c0.01,0.02,0.03,0.01,0.04,0.03c-0.02,0.06-0.05,0.08-0.05,0.15
			c-0.39,3.03-0.35,6.11-0.27,9.18c0.03,1.1,0.11,2.39,0.36,3.51c0.04,0.18,0.19,0.35,0.38,0.38c1.05-0.03,0.6-1.31,0.49-1.96
			c-0.13-1.26-0.2-2.53-0.23-3.81c0.65-0.15,1.35-0.96,0.31-1.17c-0.11-0.03-0.21,0.02-0.31,0.06c-0.01-0.72-0.02-1.45-0.01-2.17
			c-0.04-1.33,0.15-2.62,0.15-3.96c0.87-0.02,1.71-0.16,2.46-0.69C655.09,509.53,652.12,509.31,652.38,510.84z"/>
		<path class="st1" d="M628.03,501.67c-0.05-0.33-0.05-0.8-0.41-0.94c-0.13-0.02-0.29,0.07-0.35,0.23
			c-0.29,1.04-0.12,2.17-0.22,3.24c-0.68-0.13-1.26,0.14-1.96,0.12c-0.45-0.22-0.88,0.22-0.88,0.67c0.07,1.01-0.22,2.02-0.15,3.01
			c0.04,0.13,0.13,0.26,0.25,0.32c0.29,0.17,0.62-0.04,0.73-0.32c0.08,0.02,0.16,0.02,0.23,0c1.4,1.29,1.23-1.68,1.16-2.44
			c0.36-0.04,0.69,0.1,1.02,0.23c0.82,0.06,0.66-1.1,0.65-1.65C628.09,503.4,628.12,502.46,628.03,501.67z"/>
		<path class="st1" d="M622.93,504.01C622.93,504.01,622.93,504.01,622.93,504.01c0.01,0,0.01,0,0.01,0
			c0.64-0.94,0.82-2.34,0.33-3.37C622.08,499.88,622.43,503.58,622.93,504.01z"/>
		<path class="st1" d="M619.95,503.52C619.96,503.53,619.96,503.53,619.95,503.52C622.21,499.13,618.25,499.89,619.95,503.52z"/>
		<path class="st1" d="M621.07,504.5c0.59,0.51,1.08-0.78,0.47-1.02C621.02,503.35,620.74,504.17,621.07,504.5z"/>
		<polygon class="st1" points="613.23,507.8 613.23,507.79 613.23,507.79 		"/>
		<path class="st1" d="M613.23,507.81C613.23,507.8,613.23,507.8,613.23,507.81c0,0,0,0.01,0,0.02
			C613.23,507.82,613.23,507.81,613.23,507.81z"/>
		<path class="st1" d="M618.11,505.13c-0.01-0.53-0.02-1.05-0.03-1.61c-0.17-2.55,0.01-5.08-0.09-7.67
			c-0.02-0.11-0.03-0.25-0.06-0.41c0.32-0.29,0.42-0.79-0.19-0.87c-0.13,0-0.27,0-0.4-0.01c-0.01,0-0.02-0.01-0.04-0.01
			c0,0,0,0.01-0.01,0.01c-1.07-0.01-2.15-0.07-3.22,0.02c-0.36,0.02-0.79,0.02-1.02,0.39c-0.12,0.19-0.01,0.39,0.17,0.5
			c-0.02,0.1-0.02,0.2,0.01,0.29c-0.21,1.25,0.12,3.01,0.04,4.4c0.01,2.51-0.44,5.13-0.05,7.62c0.16,0.82,1.52,0.54,2.16,0.78
			c0.89,0.1,1.73-0.05,2.61-0.14c0.22,0.13,0.48,0.22,0.76,0.2c0.34,0.02,0.69,0,0.95-0.23c1.03,0.31,0.93-1.55,0.92-2.19
			C620.95,504.83,619.07,505.1,618.11,505.13z"/>
		<path class="st1" d="M795.27,60.66c-4.63-6.97-12.58-11.32-20.59-13.2c-12.43-2.52-27.42,2.61-38.89,7.44
			c-16.64,6.96-28.52,16.5-39.3,30.97c-3.49,4.51-6.91,9.09-9.91,13.95c-1.68,2.79-3.43,5.64-4.57,8.71
			c-4.99-4.93-10.29-9.54-15.84-13.82c-8.09-6.26-16.54-12.09-25.52-16.99c-8.99-4.83-18.49-8.66-28.13-11.98
			c-14.48-4.78-29.76-8.72-45.12-7.27c-2.69,0.3-10.43,0.89-16.92,2.4c-1.88,0.22-3.74,0.6-5.56,1.18
			c-6.9,2.32-13.58,5.34-20.16,8.43c-16.87,8.54-31.39,21.05-44.77,34.29c-0.02-0.01-0.04-0.01-0.06-0.02
			c-0.59-0.2-1.19-0.39-1.79-0.55c-1.07-0.44-2.17-0.82-3.22-1.27c-1.77-0.77-3.66-1.57-5.64-2.28c-2.64-1.48-5.25-3.03-7.96-4.39
			c-5.66-2.79-11.36-5.54-16.55-9.18c-10.36-7.33-19-16.9-29.88-23.51c-7.75-4.29-16.25-7.61-25-9.11
			c-5.75-0.48-11.62-0.36-17.34,0.37c-15.21,2.83-25.64,16.67-30.87,30.4c-13.89,31.8,21.31,66.71,46.59,84.8
			c0.47,0.83,0.81,1.72,1.05,2.62c-0.28,0.72-0.51,1.48-0.76,2.15c-0.24,0.75-0.48,1.63-0.72,2.52c-0.03,0.05-0.06,0.11-0.09,0.16
			c-5.09,11.85-2.17,25.44,3.18,36.68c4.26,9.91,14.15,16.58,24.83,17.51c1.75,0.24,3.77,0.51,5.51-0.01
			c-0.39,4.44-0.65,8.89-0.83,13.33c-0.26,6.89-0.04,13.72,0.65,20.69c0.32,4.83,1.2,9.58,2.56,14.22c0.58,1.91,1.07,3.92,1.72,5.84
			c0.65,3.37,1.53,6.7,2.37,10.04c1.99,7.78,4.15,15.53,6.68,23.16c-0.66,0.39-1.32,0.81-1.94,1.29c-2.38,1.86-4.37,4.16-6.53,6.26
			c-1.3,1.29-2.58,2.64-3.8,4.04c-3.69,3.53-7.04,7.39-9.88,11.69c-7.16,10.3-12.12,21.88-15.36,33.99
			c-3.75,13.19-5.71,26.82-8.95,40.12c-3.19,11.52-7.67,22.75-13.84,33c-10.09,16.04-22.89,30.89-28.07,49.46
			c-0.91,2.51-1.83,5.03-2.18,7.69c-0.65,0.46-0.49,1.41-0.12,2.37c0.04,0.28,0.12,0.55,0.25,0.81c0-0.01,0.01-0.02,0.01-0.03
			c0.09,0.18,0.2,0.35,0.33,0.49c0.17,0.33,0.34,0.63,0.46,0.87c7.72,10.87,16.64,21.11,27.33,29.17c3.16,2.4,6.45,4.58,9.85,6.56
			c1.07,2.94,2.25,5.87,3.35,8.79c0.21,0.53,0.41,1.06,0.61,1.6c2.28,8.73,5.54,17.29,7.4,26.18c5.9,24.61,9.13,49.72,12.38,74.79
			c0.75,5.21,1.27,10.59,1.75,15.98c0.45,4.02,1.52,8.17,2.04,12.29c-0.87,0.35-1.74,0.7-2.6,1.08c-7.85,3.69-14.48,9.42-20.5,15.58
			c-5.19,5.56-9.64,11.87-12.24,19.09c-0.55,1.44-1.22,2.98-1.75,4.57c0.07,0.67,0.17,1.33,0.28,1.99c0-0.02-0.01-0.04-0.01-0.06
			c0,0.01,0,0.02,0.01,0.03c0.01,0.06,0.03,0.13,0.04,0.19c0.08,0.41,0.21,0.81,0.32,1.22c0,0.03-0.02,0.05-0.02,0.08
			c0.07,0.28,0.16,0.55,0.25,0.82c0.01,0.01,0.01,0.03,0.01,0.04c0.03,0.09,0.07,0.18,0.1,0.27c-0.01-0.02-0.02-0.05-0.02-0.07
			c0,0,0.01,0.01,0.01,0.01c0.01,0.02,0.01,0.04,0.02,0.05c-0.01-0.02-0.01-0.03-0.02-0.05c0.36,0.88,0.78,1.74,1.25,2.57
			c-0.02-0.03-0.04-0.06-0.05-0.09c0.01,0.02,0.03,0.04,0.04,0.07c0.01,0.01,0.01,0.02,0.02,0.03v0c0,0,0,0,0,0
			c0,0.01,0.01,0.02,0.01,0.02c0,0,0,0,0,0.01c0,0,0,0.01,0.01,0.01c0,0,0,0,0,0c0,0,0,0,0,0c0,0,0,0,0,0l0,0c0,0,0,0,0,0
			c0,0,0,0,0,0.01c0,0,0,0,0,0c0,0,0,0,0,0c0,0,0,0,0,0c0,0,0,0,0,0c0,0,0,0,0,0c0,0,0,0,0,0c0,0,0,0,0,0c0,0,0,0,0,0.01
			c0,0,0,0,0,0l0,0c0,0,0,0,0,0c0,0,0,0,0,0c0,0,0,0,0,0c0,0,0,0,0-0.01c0.01,0.01,0.01,0.02,0.02,0.03
			c0.02,0.03,0.04,0.07,0.06,0.1c0.03,0.06,0.06,0.11,0.1,0.17c-0.01-0.02-0.02-0.03-0.03-0.05c0.06,0.1,0.12,0.21,0.19,0.31
			c0,0,0-0.01,0.01-0.01c0.34,0.57,0.69,1.13,1.06,1.67c0.31,0.45,0.63,0.89,0.96,1.32c6.67,3.82,13.77,6.87,21.1,9.22
			c9.49,3.12,19.38,4.82,29.27,6.05c3.52,0.37,7.04,0.54,10.56,0.54c4.6,0,9.2-0.28,13.81-0.75c4.24-0.51,8.36-1.71,12.53-2.6
			c6.56-1.21,12.84-3.48,18.44-7.15c0.47-0.27,1.07-0.68,1.23-1.36c2.1,0.94,4.34,1.65,6.51,2.24c5.92,1.56,11.91,3.02,18,3.66
			c10.09,0.9,19.69,0.65,29.86-1.02c10.84-2.2,21.3-6.41,31.16-11.33c0.85-0.55,1.66-1.17,2.4-1.86
			c3.58,10.02,17.31,13.15,27.34,13.77c11.13,0.57,22.31-0.93,33.22-3.03c7.79-1.51,15.44-3.7,22.6-7.16
			c3.92-1.74,8.2-3.19,11.11-6.51c0.43-0.48,0.81-0.99,1.16-1.51c2.46,2.49,5.97,3.99,8.9,5.83c8.6,5.16,18.53,8.08,28.42,9.55
			c11.86,1.67,23.95,0.09,35.41-3.18c5.03-1.63,13.07-4.2,17.59-7.92c0.92-0.19,1.78-0.74,2.45-1.41c2.54-2.45,2.42-6.26,2.37-9.54
			c0.01-3.61-1.14-7.04-2.44-10.37c-1.99-4.74-4.16-9.45-7.04-13.72c-1.73-2.12-3.5-4.24-5.42-6.2c-2.49-2.21-5.58-3.59-8.52-5.1
			c-2.18-1.05-4.39-1.9-6.65-2.57c0.04-0.17,0.08-0.34,0.12-0.51c0.17-0.59,0.32-1.19,0.47-1.79c1.05-3.8,1.7-7.71,2.38-11.59
			c1.93-10.92,3.79-21.85,5.69-32.77c1.85-10.68,3.69-21.37,5.61-32.05c0.97-5.43,1.92-10.86,2.89-16.29
			c0.47-2.62,0.95-5.24,1.41-7.86c0.23-1.29,0.47-2.58,0.72-3.86c0.17-0.86,0.31-1.75,0.51-2.6c0-0.21,0.01-0.42,0.02-0.64
			c0-0.1,0.01-0.21,0.01-0.31c0.01-0.31,0.02-0.63,0.04-0.95c0-0.13,0.01-0.26,0.02-0.39c0.02-0.3,0.04-0.59,0.06-0.88
			c0.03-0.45,0.06-0.9,0.08-1.34c0-0.06,0-0.12,0.01-0.18c-0.01-0.2-0.02-0.39-0.02-0.59c-0.04-1.18-0.06-2.36-0.08-3.54
			c-0.01-0.65-0.02-1.31-0.03-1.96c-0.01-0.6-0.04-1.2-0.05-1.79v0c0,0,0-0.01,0-0.01c0,0,0-0.01,0-0.01
			c-0.01-0.21-0.02-0.41-0.02-0.62v0c0-0.02,0-0.04,0-0.05c0,0,0,0,0-0.01c0-0.01,0-0.01,0-0.02c0-0.04,0-0.07,0-0.11
			c0-0.01,0-0.02,0-0.04c0,0,0,0,0-0.01v0c0-0.01,0-0.02,0-0.02c-0.01-0.22-0.02-0.43-0.03-0.65c-0.03-0.76-0.04-1.52-0.05-2.28
			c-0.01-0.76-0.01-1.52-0.01-2.28c0-0.22,0-0.45,0-0.67c0-0.22,0-0.45,0-0.67c0,0,0,0,0-0.01c-0.01-0.51-0.01-1.02,0-1.52
			c0.01-0.87,0.02-1.74,0.01-2.6c0-0.45,0-0.9,0-1.34c0-0.42,0-0.84,0.04-1.26c0-0.01,0-0.02,0-0.03c0-0.01,0-0.01,0-0.02
			c0,0,0-0.01,0-0.01c0.02-0.15,0.03-0.33,0.09-0.48c-0.01-0.07-0.02-0.14-0.02-0.21c-0.01-0.15,0-0.3,0.01-0.44
			c0.01-0.04,0.02-0.07,0.03-0.11c-0.01-0.03-0.02-0.06-0.03-0.09c9.05-7.81,16.58-17.39,22.66-27.65c2.29-4.81,4.85-9.6,6.12-14.8
			c0.1-0.41,0.17-0.83,0.19-1.25c1.11-3.34-2.58-7.41-3.98-10.31c-4.86-8.42-10.46-16.61-16.66-24.13
			c-4.23-5.34-9.28-9.8-13.07-15.54c-1.03-1.55-2.27-3.02-3.02-4.74c-0.02-0.58-0.08-1.17-0.18-1.75
			c0.81-5.83,0.38-11.88-0.24-17.71c-0.9-9.87-2.5-19.68-4.51-29.39c-4.79-22.83-12.22-45.27-23.78-65.6
			c-2.36-3.89-7.71-14.09-12.03-17.73c0.32-0.4,0.62-0.81,0.92-1.22c3.98-5.98,7.02-12.59,9.56-19.3c3.53-9.53,6.3-18.71,8.08-28.91
			c1.65-9.93,2.38-19.99,2.83-30.04c0.37-6.8,0.52-13.65,0.38-20.49c6.83-1.19,11.85-7.36,16.11-12.45
			c6.8-7.88,9.8-19.22,5.92-29.15c-0.31-0.71-0.66-1.41-1.04-2.09c1.37-1.35,2.7-2.73,4-4.13c4.47-4.02,8.55-8.52,12.29-13.18
			c9.18-11.21,17-23.47,23.85-36.22c2.8-5.16,5.34-10.45,7.53-15.9c2.26-5.43,4.5-10.93,5.35-16.78
			C800.59,77.5,800.04,68.03,795.27,60.66z M423.13,217.12c-0.52,3.02-0.95,6.06-1.31,9.11c-0.59-0.1-1.19,0.05-1.79,0.2
			c-0.67,0.17-1.35,0.33-2.05,0.16c-14.74-2.09-19.91-8.71-24.24-22.51c-1.9-5.82-2.25-12.03-1.34-18.07
			c0.74-3.19,1.55-6.38,2.07-9.61c0.16-0.27,0.29-0.54,0.38-0.79c0.19-0.52,0.25-1.02,0.31-1.53c1.45-2.61-0.36-11.41-10.22-13.64
			c-3.75-3.12-7.46-6.3-11.12-9.54c-13.95-13.44-30.97-33.39-28.22-54.06c2.18-10.09,6.71-20.09,14.13-27.4
			c5.96-6.39,13.88-9.76,22.64-9.24c7.45-0.73,14.6,1.5,21.43,4.28c4.19,1.65,8.21,3.72,11.88,6.34
			c12.92,9.73,24.15,21.93,39.24,28.47c2.92,1.41,5.9,2.77,8.95,3.89c3.47,2.85,7.3,4.83,12.07,5.62
			c-4.87,4.95-9.56,10.09-13.72,15.66c-2.92,3.91-5.56,8-8.05,12.19c-1.32-2.15-3.02-4.11-4.57-6.04
			c-8.07-8.23-18.87-13.25-29.77-16.59c-3.36-1.01-6.74-1.93-10.1-2.94c-1.77-0.87-3.56-1.71-5.39-2.43
			c-0.77-0.37-1.49-0.8-2.23-1.21c-0.24-0.17-0.47-0.36-0.72-0.51c-1.96-1.31-4.2-2.51-6.63-2.12c-0.76,0.04-2.01,0.68-2.32,1.47
			c-0.27,0.35-0.46,0.78-0.46,1.32c-0.01,0.17,0.06,0.33,0.08,0.5c-0.02,0.15-0.08,0.27-0.08,0.42c-0.09,4.42,1.97,8.62,3.25,12.79
			c4.09,10.6,8.07,21.59,12.22,32.43c3.02,7.95,6.12,16.9,11.61,23.5c0.09,0.16,0.19,0.33,0.29,0.49c0.04,0.13,0.1,0.26,0.17,0.39
			c1.38,2.69,3.27,5.22,5.48,7.35c1.51,1.93,3.04,4.06,5.13,5.35C427.47,199.49,424.81,208.19,423.13,217.12z M401.01,113.9
			c5.44,3.05,11.76,3.98,17.63,5.91c2.77,0.82,5.52,1.77,8.21,2.85c-0.55,0.54-1.07,1.12-1.55,1.74c-0.25,0.28-0.54,0.63-0.87,1.04
			c0,0,0,0,0,0c-4.93,4.21-8.81,9.67-11.62,15.49c-0.34,0.8-1.13,2.42-1.75,4.13c-3.32-8.85-6.56-17.75-9.97-26.61
			c-0.63-2.02-1.4-4.01-2.08-6.01C399.63,112.98,400.3,113.47,401.01,113.9z M413.25,147.66c0.98-2.23,2.04-4.43,3.17-6.58
			c2.84-4.74,6.15-9.42,9.88-13.66c1.09-1.18,2.21-2.37,3.21-3.63c2.67,1.2,5.26,2.55,7.72,4.1c-0.02,0.02-0.04,0.04-0.05,0.06
			c-0.7,0.83-2.39,2.42-2.63,3.81c-7.01,7.73-13.44,23.61-15.47,33.61c-0.34-0.71-0.67-1.43-0.99-2.16
			c-1.89-4.68-3.72-9.37-5.5-14.09C412.82,148.65,413.04,148.15,413.25,147.66z M424.06,157.5c2.24-6.05,4.73-12.06,7.91-17.68
			c1.45-2.5,3.22-4.8,4.71-7.28c0.74-0.63,1.2-1.45,1.89-2.23c0.29-0.3,0.56-0.64,0.77-1.02c1.49,1.03,2.92,2.15,4.29,3.34
			c2.91,2.47,4.77,5.85,7.24,8.71c0.11,0.14,0.22,0.29,0.34,0.44c-1.37,2.45-2.71,4.92-4.04,7.39c-3.39,6.52-6.77,13.06-9.71,19.8
			c-2.14,5-3.79,10.19-5.37,15.39c-0.24-0.37-0.56-0.75-0.98-1.12c-0.59-0.49-1.21-1.17-1.86-1.92c0-0.01-0.01-0.01-0.01-0.02
			c-1.09-1.62-2.33-3.1-3.63-4.53c-1.73-2.74-3.43-5.49-4.96-8.33C421.49,164.72,422.9,161.14,424.06,157.5z M414.01,675.57
			c-0.77-8.98-1.65-18.01-2.9-26.93c-2.3-20.49-5.67-41.39-10.1-61.61c-1.73-7.42-3.64-14.8-5.97-22.06
			c-0.67-2.58-1.52-5.14-2.57-7.62c-0.57-2.08-1.23-4.14-1.97-6.17c16.98,7.91,36.03,11.54,54.62,12.54
			c5.6,0.08,11.32-0.41,16.64-2.09c0.64-0.01,1.27-0.17,1.78-0.49c1.34-0.24,2.64-0.55,3.93-0.93c-0.42,9.92-0.36,19.87-0.5,29.8
			c-0.3,7.93-0.55,15.87-0.72,23.8c-0.42,21.43-1.59,42.84-1.68,64.28c0.01,3.06-0.01,6.12-0.13,9.18c-0.44-0.23-0.91-0.4-1.35-0.61
			c-0.03-0.02-0.06-0.03-0.09-0.05c-10.58-5.07-22.97-8.6-34.64-5.67c-0.36,0.11-1.28,0.39-2.42,0.79c-3.69,0.59-7.34,1.45-10.9,2.6
			C414.83,680.87,414.11,677.23,414.01,675.57z M374.67,733.82C374.67,733.82,374.68,733.82,374.67,733.82
			C374.68,733.82,374.68,733.82,374.67,733.82C374.68,733.82,374.68,733.82,374.67,733.82
			C374.67,733.82,374.67,733.82,374.67,733.82z M479.69,739.96c-3.23,1.3-6.51,2.46-9.86,3.42c-5.21,1.28-10.46,2.43-15.71,3.49
			c-7.39,0.93-14.87,0.86-22.3,0.59c-15-1.56-29.93-4.65-43.65-11.07c-1.44-0.76-2.89-1.52-4.31-2.31c-0.25-0.3-0.55-0.58-0.94-0.8
			c-0.88-0.72-1.98-1.28-2.59-2.26c-0.6-1.15-0.85-2.41-1.01-3.69c2.76-4.67,5.62-9.29,9.13-13.44c2.95-3.49,5.76-6.26,9.06-9.63
			c3.51-3.75,7.35-7.26,11.84-9.8c8.5-4.03,18.29-6.09,28.01-6.09c7.37,0,14.69,1.18,21.4,3.59c3.09,1.55,6.39,3.04,9.27,5.02
			c1.45,1.23,2.87,2.5,4.26,3.81c0.43,0.53,0.85,1.08,1.22,1.68c0.72,1.1,1.38,2.26,2.08,3.39c-0.68,0.97-1.29,2-1.83,3.09
			c-2.73,5.72-6.94,18.45-1.6,23.52c0.43,0.59,1.07,1.17,1.69,1.65c1.14,1.47,2.63,2.74,4.31,3.48c0.77,0.73,1.63,1.39,2.54,1.98
			C480.32,739.68,479.98,739.82,479.69,739.96z M571,726.91c-1.68,1.13-3.35,2.7-4.4,3.26c-8.99,4.02-18.12,8.14-27.83,10.08
			c-8.02,1.49-17.15,1.7-25.46,1.3c-8.3-0.73-16.53-2.51-24.41-5.21c-1.38-0.62-2.72-1.31-4.07-2c-0.81-0.65-1.68-1.24-2.6-1.75
			c-0.35-0.26-0.71-0.5-1.07-0.72c-0.76-0.52-1.53-1.03-2.29-1.55c-0.17-0.12-0.33-0.24-0.5-0.37c-0.47-0.83-1.14-1.51-1.76-2.23
			c-2.78-4.67,0.31-12.14,2.37-16.71c0.11-0.2,0.22-0.4,0.34-0.6c0.05,0.04,0.09,0.07,0.14,0.11c-0.03-0.07-0.05-0.14-0.07-0.22
			c3.51-5.72,10.12-8.44,16.3-10.38c9-2.92,18.32-4.77,27.75-5.56c7.99-0.82,16.09-0.91,24.02,0.44c1.88,0.34,3.72,0.86,5.57,1.31
			c2.89,1.87,6.03,3.35,9.03,5.09c1.96,1.19,3.89,2.45,5.71,3.84c1.81,1.46,3.3,3.32,5.21,4.64
			C570.36,712.9,570.75,723.41,571,726.91z M660.99,726.93c-0.29,0.37-0.61,0.74-0.94,1.1c0,0,0,0,0,0
			c-1.28,0.45-2.55,0.92-3.77,1.49c-2.8,1.19-5.51,2.46-8.34,3.61c-10.47,3.84-21.75,5.59-32.83,6.69
			c-9.82,0.88-20.05,0.9-29.32-2.87c-3.12-1.73-6.93-3.41-8.08-7.09c-1.16-4.52-0.75-9.24-0.81-13.86
			c-0.05-0.75-0.01-1.54,0.02-2.33c1.29-0.71,2.6-1.68,3.6-2c4.65-2.3,9.29-4.74,14.08-6.77c9.8-4.32,20.57-6.44,31.35-6.44
			c10.3,0,20.6,1.94,30.07,5.78c0.43,0.24,0.87,0.48,1.31,0.7c1.42,1.24,2.89,2.44,4.36,3.57c0.54,0.82,1.08,1.63,1.68,2.42
			c0.44,3.2,0.44,6.47,0.38,9.7C662.82,722.72,662.24,724.98,660.99,726.93z M666.96,703.91c-0.38-0.64-0.83-1.23-1.34-1.77
			c-6.69-6-19.32-8.21-28.1-9.45c-17.57-2.12-35.54,1.31-51.17,9.56c-1.32,0.83-4.29,2.07-7.13,3.59c1.32-5.14,4-10.01,6.58-14.61
			c4.88-8.28,12.22-15.08,20.7-19.62c2.29-0.76,4.65-1.34,7.02-1.83c2.34-0.66,5.1-0.73,7.12-2.15c0.77-0.86,1.11-2.05,0.4-3.06
			c-1.92-1.97-9.65-0.45-12.24,0.24c-4.81,1.3-9.39,3.48-13.29,6.6c-0.05,0.04-0.09,0.09-0.13,0.12
			c-5.84,3.64-10.55,9.21-14.49,16.14c-2.02,3.74-4.38,8.33-5.53,12.94c-0.41-1.5-0.8-2.73-0.97-3.26
			c-3.67-10.21-8.66-20.9-18.15-26.88c-1.23-0.9-2.56-1.74-3.97-2.34c-0.72-0.41-1.41-0.86-2.18-1.19
			c-3.47-1.58-7.47-3.69-11.36-2.62c-2.16,0.92-2.14,2.73,0.12,3.47c3.28,1.74,6.59,3.43,9.94,5.02c0.01,0,0.02,0.01,0.02,0.01
			c0.28,0.28,0.56,0.57,0.86,0.82c2.89,2.16,6.22,3.72,8.85,6.25c5.44,5.3,8.5,12.42,11.36,19.36c-2.15-1.93-4.65-3.45-7.16-4.87
			c-1.61-0.89-3.2-2.04-4.89-3c-0.41-0.33-0.85-0.63-1.32-0.91c-2.87-1.61-6.22-2.04-9.43-2.56c-3.88-0.54-7.8-0.78-11.71-0.78
			c-1.85,0-3.71,0.05-5.56,0.16c-12.62,0.7-25.19,2.82-37.18,7c-4.34,1.36-8.56,3.48-12.1,6.35c-0.37-0.52-0.76-0.98-1.06-1.29
			c-0.1-0.11-0.22-0.2-0.33-0.3c-2.09-2.42-4.23-5.12-6.87-6.99c-0.35-0.29-0.65-0.6-1.03-0.87c0-0.01,0-0.01,0-0.02
			c-0.08-0.85-0.06-1.7-0.04-2.56c0.08-6.45-0.02-12.89,0.09-19.34c0.5-18.13,1.2-36.26,1.66-54.39c0.93,0.82,1.94,1.56,2.88,2.2
			c13.02,10.61,26.97,20.32,42.71,26.45c17.37,6.21,36.25,9.76,54.73,10.57c2.42,0.14,4.85,0.21,7.28,0.21
			c5.76,0,11.53-0.38,17.24-1.14c8.11-1.22,16.33-2.25,24.13-4.9c8.29-2.54,16.09-6.47,23.68-10.62
			c6.95-4.25,14.37-7.87,20.37-13.49c2.14-1.87,4.08-3.93,5.88-6.13c0.66-0.79,1.32-1.59,1.98-2.39c0.25,2.49,0.5,4.98,0.75,7.47
			c1.14,11.35,2.28,22.69,3.43,34.04c0.55,5.48,1.1,10.97,1.81,16.43c0.38,2.88,0.8,5.76,1.25,8.63c0.21,1.34,0.4,2.69,0.68,4.02
			c0.12,0.58,0.25,1.22,0.47,1.8c-4.13,2.27-7.89,5.27-11.15,9.09C669.41,699.18,668.02,701.47,666.96,703.91z M743.45,697.06
			c3.8,3.55,6.67,7.78,8.91,12.46c2.15,4.9,4.84,9.87,4.41,15.39c-0.05,0.76-0.13,1.52-0.21,2.29c-1.88,0.49-3.62,1.46-5.2,2.63
			c-3.94,2.29-8.22,3.97-12.55,5.38c-17.68,5.4-34.46,5.2-51.66-1.87c-4.74-2.08-9.92-5.29-14.47-8.05
			c-0.68-0.35-1.46-0.9-2.29-1.35c0.04-0.27,0.06-0.53,0.07-0.77c0.08-2.78-0.38-5.57-0.28-8.35c0.02-0.28,0.03-0.56,0.05-0.83
			c0.05-0.64,0.13-1.28,0.27-1.91c0.89-7.81,6.83-13.61,13.29-17.44c5.35-3.27,11.6-4.26,17.71-5.1c4.06-0.57,8.23-0.91,12.4-0.91
			C724.35,688.62,734.8,690.8,743.45,697.06z M746.84,569.1c0,0.01,0,0.03,0,0.04c0,0.41,0,0.82-0.02,1.22
			c-0.01,0.21-0.02,0.42-0.04,0.63c0,0.02,0,0.04,0,0.05c-0.02,0.17-0.03,0.34-0.05,0.51c-0.01,0.12-0.02,0.24-0.04,0.35
			c0,0.01,0,0.02,0,0.04c-0.01,0.08-0.02,0.16-0.03,0.23c0,0.05-0.01,0.1-0.02,0.15c-0.01,0.1-0.02,0.21-0.03,0.3
			c0,0.01,0,0.02,0,0.02c-0.02,0.15-0.04,0.3-0.05,0.45v0c-0.04,0.31-0.07,0.62-0.11,0.93c-0.08,0.63-0.17,1.25-0.28,1.87
			c-0.01,0.07-0.02,0.15-0.03,0.22c0,0.01,0,0.01,0,0.02c0.01,0.23-0.05,0.45-0.11,0.68c0,0.01-0.01,0.02-0.01,0.03
			c-0.13,0.43-0.22,0.87-0.34,1.3c-0.17,0.6-0.35,1.2-0.56,1.79c-0.05,0.13-0.09,0.26-0.14,0.39c-0.01,0.03-0.02,0.05-0.03,0.08
			c-0.01,0.02-0.01,0.04-0.02,0.05c0,0.01-0.01,0.02-0.01,0.03c-0.02,0.06-0.04,0.12-0.07,0.18c-0.08,0.21-0.16,0.43-0.24,0.64
			c-0.4,2.34-0.81,4.68-1.21,7.01c-1.87,10.74-3.75,21.49-5.65,32.23c-1.91,10.8-3.81,21.61-5.75,32.4
			c-0.99,5.48-1.96,10.97-2.92,16.46c-0.43,2.49-0.82,4.99-1.16,7.49c-0.18,1.36-0.28,2.74-0.43,4.1c-0.06,0.56-0.12,1.13-0.14,1.68
			c-8.8-1.68-18-1.15-27.04,0.02c-4.95,0.48-9.66,1.59-14.03,3.41c-0.01-0.84-0.04-1.68-0.07-2.51c-0.1-2.3-0.21-4.6-0.36-6.89
			c-0.31-4.69-0.76-9.37-1.22-14.05c-1.1-11.2-2.3-22.4-3.43-33.6c-0.71-6.99-1.43-13.98-2.14-20.96c0.01-0.01,0.01-0.02,0.02-0.04
			c-0.02-0.11-0.04-0.21-0.05-0.32c-0.06-0.33-0.12-0.66-0.17-1c-0.05-0.3-0.1-0.6-0.14-0.91c-0.06-0.41-0.13-0.82-0.19-1.24
			c-0.03-0.22-0.06-0.45-0.1-0.67c-0.12-0.83-0.17-1.68-0.22-2.52c-0.03-0.47-0.03-0.93-0.01-1.4c0-0.1,0.01-0.21,0.02-0.31
			c-0.15-1.51-0.3-3.01-0.45-4.52c-0.54-5.39-1.12-10.78-1.57-16.17c-0.15-1.78-0.3-3.56-0.48-5.34c-0.14-1.34-0.29-2.67-0.44-4.01
			c-0.05-0.41-0.1-0.83-0.14-1.24c3.31,0.44,6.66,0.65,10,0.67l-0.04,0c19.35,0.12,38.48-4.57,55.42-14.03
			c1.76-1.06,3.46-2.17,5.12-3.35c0-0.01,0.01-0.01,0.01-0.02c0.1-0.21,0.29-0.36,0.52-0.36c0.09-0.06,0.17-0.13,0.26-0.19
			c0,0.08-0.01,0.16-0.01,0.25c0.42,0.23,0.3,0.97,0.26,1.37c0-0.01,0-0.03,0-0.04c0,0.02,0,0.04,0,0.05c0,0,0,0,0,0
			c0,0,0,0.01,0,0.01c0,0,0,0,0,0.01c0,0,0,0,0,0.01c0,0,0,0,0,0.01c-0.01,0.14-0.01,0.27,0,0.41c0,0.04,0.01,0.09,0.01,0.14
			c0,0.01,0,0.01,0,0.02c0,0.01,0,0.01,0,0.02c0,0.01,0,0.02,0,0.03c0.01,0.27,0,0.53-0.02,0.79c0,0,0,0.01,0,0.01v0
			c0,0.01,0,0.02,0,0.03c0,0,0,0.01,0,0.01c0,0,0,0.01,0,0.01c-0.01,0.16-0.04,0.33-0.06,0.49c-0.05,0.73-0.01,1.46,0.01,2.19
			c0.02,0.35,0.04,0.69,0.06,1.04c0.02,0.39,0.03,0.79,0.07,1.18c0.06,0.8,0.15,1.6,0.18,2.4c0.05,1.64,0.02,3.28-0.05,4.92
			c0,0.01,0,0.01,0,0.02c0,0.01,0,0.01,0,0.02c0,0,0,0.01,0,0.01c0,0.01,0,0.01,0,0.02c0,0.02,0,0.04,0,0.06c0,0.03,0,0.05,0,0.07
			c-0.01,0.33-0.02,0.66-0.02,1c0,0.07,0,0.14,0,0.21C746.82,568.3,746.84,568.7,746.84,569.1z M705.33,327.17
			c15.55,25.21,25.11,53.75,29.97,82.9c1.82,9.54,2.29,19.28,3.57,28.9c0.05,0.32,0.11,0.65,0.17,0.98
			c-0.13,2.06,0.06,4.45,0.11,5.14c0.34,3,0.17,6.69,2.71,8.69c1.06,2.08,2.49,4.01,3.85,5.88c3.01,4.13,6.68,7.5,9.81,11.55
			c3.9,4.68,7.49,9.88,10.86,14.98c2.62,4.07,5.08,8.24,7.42,12.47c0.36,0.86,0.79,1.74,1.31,2.55c-0.19,0.3-0.36,0.63-0.5,0.96
			c-1.27,5.13-3.56,9.92-5.86,14.68c-7.54,12.8-17.35,24.14-29.79,32.45c-8.41,5.08-18,8.72-27.59,11.29
			c-14.14,3.31-28.97,4.31-43.24,1.19c-2.33-0.86-4.8-1.3-7.21-1.9c0.16-0.5,0.17-1.07,0-1.66c0-0.03-0.01-0.06-0.01-0.1
			c-0.04-2.38,0.22-4.77,0.35-7.15c1.03-12.88,2.94-25.7,6.92-38.03c2.92-8.69,5.86-17.39,8.78-26.08c0.92-2.72,1.77-5.48,2.26-8.31
			c0.17-2.17,0.51-5.45-1.96-6.4c-0.65-0.23-1.51-0.16-2.02,0.35c-1.27,1.52-1.36,3.69-2.17,5.47c-2.51,6.66-4.88,13.37-7.05,20.15
			c-4.9,13.82-9.02,28-10.23,42.67c-0.51,4.53-0.94,8.55-1.26,13.12c-0.51,1.22-0.86,2.51-0.99,3.83c-0.03,0.59-0.19,1.33,0.04,1.89
			c0.02,0.11,0.05,0.22,0.11,0.33c-0.05,0.2-0.06,0.42-0.03,0.64c0.25,1.29,1.64,1.88,2.66,2.51c1.17,0.73,2.5,1.1,3.81,1.51
			c2.84,1.13,5.75,2.02,8.71,2.7c0.19,1.55,0.29,3.11,0.43,4.67c0.14,1.51,0.29,3.02,0.48,4.52c0.55,4.27,0.95,8.56,1.4,12.84
			c0.67,6.42,1.33,12.83,1.98,19.25c-6.73,8.2-14.61,15.78-23.92,20.94c-4.54,2.85-9.29,5.3-14.19,7.45
			c-4.13,2.1-8.37,3.98-12.81,5.3c-8.28,2.83-17.02,3.91-25.65,5.14c-25.87,2.6-52.35-1.37-76.73-10.27
			c-13.69-5.62-26.16-13.63-37.6-22.96c-2.23-1.7-4.34-3.66-6.81-5c-0.73-0.39-1.52-0.63-2.3-0.85c0.03-1.13,0.05-2.25,0.07-3.38
			c0.4-10.27,0.78-20.53,0.75-30.82c-0.05-3.72,0.13-7.45,0.11-11.16c-0.14-1.72-0.52-3.4-0.79-5.09c1.71-0.85,3.38-1.84,5-2.97
			c1.09-0.78,2.38-1.68,3.31-3.13c0.85-1.02,0.59-2.19-0.29-2.6c0.12-11.29-12.33-40.87-14.02-44.72
			c-2.11-5.17-4.85-10.17-8.36-14.52c-0.64-1.05-1.31-2.07-2.04-3.06c-0.39-1.26-0.93-2.46-1.83-3.48
			c-1.26-1.46-3.47-3.09-5.54-3.09c-0.38,0-0.75,0.05-1.11,0.18c-0.73,0.43-0.53,1.37-0.05,1.92c1.48,2.05,3.06,4.32,4.96,6.04
			c0.95,1.79,1.63,3.63,2.84,5.39c0.18,0.26,0.37,0.52,0.56,0.77c0.61,1.41,1.21,2.82,1.83,4.23c5.94,12.96,11.06,26.68,14.83,40.48
			c0.73,2.85,1.25,5.5,2.06,8.36c0.25,1.01,0.39,2.23,0.73,3.31c-1.91,0.93-3.84,1.8-5.83,2.58c-2.83,1.2-5.9,1.65-8.75,2.75
			c-4.63,0.81-9.26,1.64-13.95,2.02c-13.44,0.05-26.89-2.29-39.77-6.07c-14.16-4.13-28.25-11.06-39.18-21.29
			c-5.87-5.19-10.61-11.44-15.8-17.27c-1.54-2.19-3.39-4.11-5.41-5.86c0.14-0.61,0.27-1.2,0.44-1.64c2.01-4.71,3.7-9.56,5.94-14.18
			c5.99-13.34,15.39-24.72,23.35-36.89c8-12.23,13.45-26.1,16.86-40.28c3.71-17.43,6.36-35.14,13.16-51.73
			c4.23-9.33,9.63-18.12,15.17-26.74c1.96-1.93,3.84-3.95,5.85-5.83c2.39-2.57,5.58-4.51,7.58-7.42c0.97,2.77,2,5.51,3.09,8.23
			c7.03,15.42,15.77,30.32,27.28,42.87c3.65,4.29,8.76,8.73,13.69,11.95c5.97,4.09,12.16,7.96,19.14,10.05
			c9.22,2.88,19.09,4.3,28.77,3.92c4.51-0.22,8.66-1.96,12.97-3.2c6.49-2.12,13.41-3.12,20.17-1.73c8.6,2.12,16.85,5.52,25.16,8.56
			c6.81,3.12,14.28,4.39,21.7,4.96c6.92,0.23,11.67-0.45,15.95-2.87c8.51-1.68,15.46-7.39,22.76-12.73
			c14.27-10.15,24.96-24.28,34.62-38.69c5.93-9.18,12.54-17.92,17.92-27.45c1.15-1.9,1.94-3.96,2.66-6.05
			C703,323.01,704.14,325.11,705.33,327.17z M718.44,235.37c-0.6,14.03-1.7,28.16-5.47,41.75c-2.36,8.31-5.02,16.59-8.75,24.4
			c-1.76,3.69-3.86,7.2-5.61,10.89c-0.48,0.95-0.93,1.91-1.36,2.89c-1.04,1.91-1.55,4.17-2.63,6.05
			c-4.72,8.69-10.61,16.65-16.08,24.87c-5.52,8.57-11,16.44-17.71,24.33c-10.05,12.17-23.33,20.89-36.42,29.54
			c-3.29,0.83-6.62,1.51-10.03,1.7c-7.55,0.94-15.25-0.27-22.52-2.35c-7.82-3.12-15.7-6.11-23.73-8.68
			c-4.9-1.84-10.14-2.88-15.38-2.88c-2.44,0-4.88,0.22-7.29,0.7c-6.07,1.07-11.73,3.75-17.8,4.76c-8,0.77-16.01-0.64-23.83-2.26
			c-10.62-2.47-19.86-8.72-28.26-15.45c-14.04-13.31-23.88-29.75-31.86-47.41c-4.66-11.79-8.37-23.92-11.8-36.11
			c-0.24-0.66-0.69-2.17-1.26-3.92c-0.69-4.26-1.39-8.54-2.36-12.75c-2.08-11.63-2.28-23.55-1.57-35.38
			c0.51-6.67,1.05-13.34,2.18-19.94c2.26-12.07,6.25-23.71,9.73-35.46c-0.05,0.13-0.09,0.27-0.13,0.4
			c3.52-12.09,9.75-23.83,15.66-35.02c3.4-6.14,6.83-12.28,10.84-18.05c6.05-8.46,13.23-15.88,20.64-23.17
			c11.45-11.29,23.96-21.9,37.98-29.9c8.68-4.82,18.1-8.05,27.11-12.17c0.33-0.15,0.66-0.3,1-0.45c1.21-0.16,2.43-0.32,3.63-0.52
			c6.57-1.03,13.21-1.78,19.86-1.66c14.9,0.84,29.37,5.2,43.21,10.58c19.93,7.45,37.76,19.58,53.58,33.68
			c9.71,8.53,17.81,19.05,25.56,29.45c1.53,2,3.04,4.01,4.52,6.05c3.23,6.08,5.43,12.65,7.98,19.04
			C718.25,186.12,719.69,210.98,718.44,235.37z M728.31,126.87c2.73,2.86,5.77,5.44,9.05,7.64c-1.37,3.04-2.66,6.1-3.97,9.17
			c-1.92-2.24-4.42-3.96-6.48-6.3c-4.1-4.82-8.38-9.54-11.82-14.88c2.06-2.24,4.21-4.4,6.41-6.5
			C722.74,120.14,725.05,123.77,728.31,126.87z M722.93,114.64c6.08-6.02,13.43-10.58,19.81-16.28c0.32-0.08,0.67-0.13,1-0.13
			c0.29,0,0.56,0.04,0.8,0.12c1.11,0.24,1.57,1.03,1.77,2.03c-0.05,0.43-0.1,0.85-0.14,1.27c-0.4,4.87-1.51,9.63-2.62,14.38
			c-1.17,5.19-2.45,10.38-4.69,15.23c-2.46-1.99-4.91-4-7.04-6.36C728.97,121.6,725.84,118.11,722.93,114.64z M718.82,134.19
			c2.05,2.59,4.51,5.66,7.02,8.02c1.79,1.87,3.85,3.58,6.34,4.33c-0.68,1.6-1.37,3.19-2.08,4.78c-1.05,2.73-2.34,5.32-3.91,7.75
			c-0.38-0.66-0.78-1.31-1.24-1.91c-1.3-1.77-2.83-3.33-4.19-5.05c-4.74-6.23-9.07-12.81-12.45-19.88
			c-0.13-0.24-0.29-0.54-0.46-0.85c1.45-2.06,3.02-4.05,4.66-5.97C714.28,128.67,717.7,132.59,718.82,134.19z M717.32,154.66
			c1.93,2.82,4.32,5.17,7.2,6.81c-0.35,0.47-0.72,0.93-1.1,1.39c-1.59,2.13-2.97,4.09-4.65,6c-1.39-4.69-3.02-9.32-4.92-13.86
			c-1.89-4.72-3.7-9.51-6.32-13.88c-0.54-0.82-1.66-2.6-3.04-4.49c0.08-0.14,0.15-0.27,0.23-0.38c0.22-0.37,0.43-0.73,0.66-1.1
			c0.22,0.51,0.45,1.01,0.65,1.49C709.04,143.1,712.91,149.08,717.32,154.66z M791.83,92.87c-5.9,16.17-14.42,31.25-24.11,45.43
			c-6.36,9.35-13.87,17.77-21.68,25.92c-0.62,0.66-1.23,1.33-1.84,1.99c-4.05,3.19-7.53,7.02-11.47,10.32
			c-0.63,0.56-1.43,0.91-1.96,1.56c-1.03,1.35-0.76,3.67,0.81,4.49c2.65,0.91,6.32-2.81,8.35-4.35c0.73-0.6,1.44-1.21,2.14-1.83
			c0.44,2.42,1.07,4.75,1.68,7.1c-0.33,2.6-0.71,5.19-1.76,7.62c-2.96,6.13-7.68,11.26-12.7,15.78c-1.28,1.08-2.59,2.13-3.94,3.13
			c-0.56-11.83-2.07-23.6-4.93-35.05c3.41-1.12,6.42-5.46,8.46-7.84c6.1-7.25,8.9-16.47,12.66-25.03c2.04-4.42,4.17-8.8,5.78-13.4
			c1.42-4.33,2.37-8.8,3.4-13.24c0.88-4.17,2.38-10.65,2.12-16.08c0.43-2.01,0.39-4.14,0.04-6.16c-0.16-0.89-0.25-1.8-0.83-2.55
			c-0.67-0.96-1.74-1.17-2.83-1.17c-0.57,0-1.14,0.06-1.67,0.1c-6.46,0.99-11.6,5.51-16.73,9.22c-2.11,1.78-4.18,3.64-6.13,5.61
			c-2.88,2.5-5.66,5.1-8.37,7.77c-4.82,4.76-9.45,9.81-12.98,15.62c-0.58,0.98-1.39,2.32-2.07,3.77
			c-4.62-6.85-9.84-13.29-15.53-19.29c0.89-1.48,1.78-2.96,2.73-4.41c6.98-10.66,14.4-21.22,23.59-30.1
			c6.72-6.4,14.55-11.4,23.07-15.03c11.78-5.47,30.45-12.23,43.03-7.09c5.35,2.26,10.74,5.38,13.56,10.67
			C795.58,74.62,794.89,84.48,791.83,92.87z"/>
		<path class="st1" d="M374.68,733.84c0,0.01,0.01,0.01,0.01,0.02C374.69,733.85,374.69,733.84,374.68,733.84
			C374.68,733.84,374.68,733.84,374.68,733.84z"/>
		<polygon class="st1" points="374.68,733.83 374.68,733.84 374.68,733.84 		"/>
		<path class="st1" d="M374.69,733.84c0,0,0,0.01,0.01,0.01c0,0,0,0,0,0C374.69,733.85,374.69,733.85,374.69,733.84
			C374.69,733.84,374.69,733.84,374.69,733.84z"/>
		<polygon class="st1" points="374.68,733.83 374.68,733.83 374.68,733.83 374.68,733.83 374.68,733.83 374.69,733.84 
			374.68,733.83 		"/>
	</g>
	<g>
		<path class="st1" d="M158.48,294.65c-1.15,3.84-2.26,7.7-3.74,11.43c-0.57,1.44-1.42,3.14-1.45,4.75
			c-0.39,0.64-0.33,1.57,0.1,2.21c1.37,1.64,3.79,1.89,5.8,2.02c0.96,0.32,1.91-0.4,2.19-1.31c0.96-2.12,1.68-4.44,2.45-6.73
			c0.84-2.54,1.71-5.08,2.5-7.64c0.91-3.09,1.78-6.22,2.67-9.37c0.15,0.11,0.29,0.23,0.43,0.35c0.31,0.24,0.63,0.47,0.94,0.71
			c0.03,0.03,0.07,0.06,0.1,0.09c5.2,4.01,10.37,8.07,15.08,12.68c6.06,5.69,12.66,11.67,18.71,17.52c0.28,0.65,0.82,1.03,1.43,1.2
			c-0.04,0.37,0,0.73,0.29,1.05c1.1,0.73,2.41-0.31,3.13-1.14c0.3-0.31,0.75-0.8,1.14-1.31c0.58-0.42,1.12-0.92,1.57-1.46
			c0.32-0.3,0.66-0.89,0.45-1.49c-0.1-0.27-0.3-0.44-0.54-0.56c-0.08-0.52-0.52-0.92-0.91-1.28c-1.54-1.97-3.76-3.47-5.57-5.23
			c-9.1-8.03-17.65-16.89-27.58-23.94c-0.22-0.13-0.48-0.3-0.74-0.48c7.7-0.51,15.09-3.06,22.25-5.81
			c9.45-3.48,25.09-9.71,15.47-21.82c-4.18-4.28-17.02-6.52-22.96-6.29c-1.46-0.02-2.92,0.02-4.39,0.03
			c-2.43-0.13-4.86-0.27-7.27-0.66c-1.29-0.19-2.59,0.11-3.88,0.02c-1.7-0.05-3.44,0.3-4.08,2.03c-0.24,0.55-0.4,1.15-0.5,1.77
			c-0.28,0.44-0.46,0.96-0.61,1.45c-0.15,0.44-0.31,0.94-0.4,1.43c-0.44,1.08-0.8,2.18-1.14,2.9
			C165.09,272.5,161.94,283.63,158.48,294.65z M178.1,262.73c7.31-1.7,14.9-2,22.35-1.13c13.31,2.19,9.98,7.25-0.17,11.26
			c-9.09,3.64-18.79,6.49-28.57,7.69c1.78-6,3.7-11.96,6.02-17.72C177.85,262.8,177.97,262.76,178.1,262.73z"/>
		<path class="st1" d="M228.27,303.42c0.56,0.02,1.13,0.04,1.69,0.06c1.08,0.28,2.21,0.41,3.23,0.42
			c5.26,0.21,10.47-0.46,15.67-1.12c1.95-0.14,3.69,0.02,5.66-0.16c1.47-0.32,2.78-1.83,2.34-3.38c0.66-1.06,0.38-2.63-0.87-3.09
			c-1-0.34-2.09-0.35-3.13-0.52c-4.84-0.43-9.67-1.04-14.52-1.27c-3.26-0.11-6.55-0.29-9.79,0.23c0.93-6.3,1.7-12.64,3.65-18.72
			c0.11,0.01,0.23,0.03,0.34,0.03l-0.01,0.01c6.53,0.34,13.09,0.34,19.62,0.79c1.13,0,5.57,0.41,8.84,0.1
			c0.31,0.08,0.62,0.14,0.93,0.23c1.56,0.94,4.02,0.32,4.65-1.47c0.47-1.74-0.11-3.74-1.09-4.82c-0.01-0.85-0.56-1.57-1.33-1.91
			c-0.49-0.22-1.02-0.29-1.54-0.24c-0.06,0-0.11-0.01-0.17-0.01c-3.26-0.33-6.51-0.7-9.77-1.07c-0.07-0.01-0.13-0.04-0.2-0.05
			c-5.86-1.15-11.82-1.69-17.78-2.04c-2.43,0.11-5.52-0.55-7.41,1.33c-0.21,0.25-0.29,0.55-0.3,0.85c-0.02,0.02-0.05,0.03-0.08,0.05
			c-3.5,6.85-4.93,14.67-6.81,22.14c-0.78,4.16-8.94,38.98-3.76,38.46c0.09,0.01,0.16-0.03,0.24-0.05c0.32,0.86,1.01,1.48,2.35,1.52
			c0.65,0.04,1.31,0.09,1.96,0.13c0.81,0.35,1.65,0.62,2.48,0.8c4.75,0.76,9.57,1.17,14.38,1.52c3.32,0.18,6.66-0.02,9.94,0.6
			c2.65,0.86,5.55-1.05,5.7-3.86c0.56-1.16,1.64-2.35,0.95-3.7c-0.51-1.04-1.74-1.21-2.76-1.18c-5.43-0.63-10.79-1.72-16.26-2.05
			c-1.51,0.04-7.63-1.24-11.87-1.16c1.2-5.84,2.5-11.67,3.62-17.53C227.53,303.35,227.93,303.38,228.27,303.42z"/>
		<path class="st1" d="M257.67,337.21c2.92,0.11,5.86,0.47,8.8,0.56c7.16,0.18,14.29,0.76,21.41,1.49c0.43,0.05,0.86,0.1,1.29,0.16
			c0.37,0.02,0.95,0.07,1.64,0.12c0.44,0.05,0.88,0.08,1.32,0.13c0.1,0,0.2-0.01,0.3-0.01c2.59,0.15,5.79,0.17,7.18-0.75
			c0.26-0.13,0.5-0.29,0.7-0.46c1.85-1.32,1.38-3.74-0.22-5.05c-3.33-2.58-13.45-3.05-21.37-3.15c-4.58-0.49-9.31-0.84-13.9-0.86
			c0.45-1.36,0.81-2.76,1.22-4.13c1.21-3.97,2.42-7.93,3.64-11.9c0.7-2.13,1.37-4.29,2.05-6.43c4.73,1.14,9.63,1.69,14.49,2.03
			c3.27,0.24,6.56,0.22,9.84,0.06c0.74-0.08,1.66-0.06,2.57-0.16c1.17-0.01,2.31-0.18,3.32-0.76c0.07-0.05,0.11-0.13,0.17-0.18
			c0.53-0.29,1.01-0.66,1.41-1.17c0.49-0.68,0.91-1.71,0.25-2.43c-0.05-0.05-0.1-0.06-0.15-0.1c0.04-0.48-0.2-1-0.94-1.49
			c-2.39-1.39-5.33-1.31-8-1.75c-3.99-0.38-7.99-0.58-11.98-0.88c-2.85-0.24-5.8-1.02-8.61-0.56c1.51-4.81,3-9.65,4.49-14.51
			c7.57,1.6,15.18,3.01,22.74,4.62c3.47,0.54,13.97,4.04,14.71-1.17c0.42-0.41,0.68-0.95,0.82-1.54c1.08-1.58,1.24-3.72-0.87-4.39
			c-10.04-2.13-20.01-4.62-30.09-6.52c-2.68-0.25-10.03-2.15-12.14-0.31c-0.67,0.06-1.3,0.36-1.7,0.99
			c-0.22,0.34-0.35,0.73-0.41,1.14c-0.09,0.32-0.2,0.64-0.29,0.96c-1.32,4.54-2.77,9.05-4.19,13.56c-1.45,4.6-2.9,9.2-4.27,13.82
			c-1.3,4.37-2.7,8.71-4.07,13.07c-0.72,2.29-1.43,4.59-2.11,6.89c-0.32,1.09-0.56,2.2-0.82,3.3c-0.22,0.91-0.35,1.86-0.39,2.8
			c-0.01,0.11-0.01,0.24-0.01,0.37c0,0.03-0.01,0.05-0.01,0.08c0,0,0,0,0,0.01c0,0.04,0,0.07,0,0.11
			C254.68,334.6,255.36,337.23,257.67,337.21z"/>
		<path class="st1" d="M104.88,308.24c1.55,1.4,3.87,1.12,5.78,1.62c0.48,0.02,0.96,0.02,1.44-0.03c0.27,0.09,0.56,0.09,0.78-0.11
			c0.05-0.02,0.07-0.06,0.11-0.09c0.03-0.01,0.06-0.01,0.1-0.02c0.08-0.04,0.1-0.12,0.16-0.18c0.84-0.65,1.13-1.82,1.37-2.84
			c0.75-3.45,1.3-6.96,1.8-10.45c1.69-2.61,2.71-12.32,3.29-13.94c0.18-0.92,0.41-1.83,0.64-2.75c3.3,0.63,6.66,0.73,10.01,0.75
			c5.66-0.04,11.33-0.16,16.99-0.14c1.37,0.1,2.55,0.01,3.46-0.46c0.01,0,0.01,0.01,0.03,0.01c2.15-0.23,2.51-3,2.69-4.93
			c0.49-0.98,0.65-2.2,0.73-3.23c-0.02-0.27-0.15-0.43-0.25-0.62c-0.07-0.69-0.53-1.29-1.29-1.38c-0.21-0.03-0.42-0.01-0.62,0.03
			c-0.16,0-0.32,0-0.49-0.01c-0.65-0.02-1.4-0.03-2.15-0.05c-1.01-0.06-2.01-0.13-3.02-0.17c-1.07-0.05-2.13-0.14-3.2-0.19
			c-0.32-0.01-0.75-0.03-1.18-0.05c-0.06,0-0.35-0.02-0.63-0.03c-1.04-0.06-2.09-0.12-3.13-0.16c-0.93-0.04-1.87-0.03-2.8-0.06
			c-0.12-0.01-0.32-0.01-0.51-0.02c-2.01-0.11-4.02-0.31-6.04-0.38c-0.12-0.01-0.42-0.02-0.73-0.03c-0.05,0-0.29-0.01-0.53-0.02
			c-0.18-0.01-0.37-0.02-0.55-0.03c-0.97-0.05-2.12-0.14-3.28-0.18c-0.55-0.02-1.11,0.01-1.65,0.05c-0.29,0.03-0.56,0.05-0.85,0.1
			c-0.01,0-0.01,0-0.02,0c0.49-3.02,0.97-6.04,1.47-9.05c0.43-2.66,1.13-5.33,1.29-8.11c2.38-0.04,4.76-0.09,7.15-0.15
			c8.29-0.25,16.59-0.1,24.86-0.71c-0.38,0.05-0.75,0.06-1.12-0.01c2.85,0.34,6.65-2.41,5.58-5.53c-0.21-0.76-0.1-1.69-0.84-2.23
			c-0.73-1.28-2.31-1.15-3.58-1.11c-10.36-0.11-20.88-1.2-31.26-1.4c-1.74,0-3.56,0.14-5.2,0.76c-0.98,0.01-1.97,0.68-2.5,1.9
			c-3.36,14.07-7.2,28.12-9.57,42.43c-0.71,3.81-1.26,7.48-1.85,11.55c-0.05,0.88-0.34,2.23-0.48,3.56
			c-0.29,1.18-0.58,2.34-0.88,3.57c-0.31,1.14-0.52,2.52,0.01,3.63C104.47,307.69,104.62,308.02,104.88,308.24z"/>
		<path class="st1" d="M30.43,382.1c2.04,1.42,4.23,2.63,6.51,3.65c2.97,1.85,6.18,3.16,9.6,3.47c5.46,0.33,11.42,0.85,16.27-2.15
			c3.72-2.15,6.64-5.44,8.64-9.22c1.32-1.32,2.25-3.01,2.68-4.84c-0.01,0-0.01,0-0.02,0c0.31-1.04,0.03-2.18-0.55-3.04
			c0.01-0.22,0.03-0.43,0.04-0.65c-0.02-2.15-2.62-2.57-4.33-2.62c-1.36-0.97-4.18-0.41-3.89,1.64c-2.81,3.07-6.18,5.96-10.19,7.48
			c-3.28,1.27-6.71,2.57-10.29,2.28c-2.58-0.94-4.7-2.83-6.85-4.49c-3.35-2.63-6.32-5.77-8.33-9.55c-1.78-4.21-1.5-8.89-0.7-13.29
			c0.78-6.01,2.82-11.79,6.36-16.73c4.59-6.28,13.5-6.89,20.59-5.63c1.73,0.36,3.05,1.59,4.4,2.65c2.09,1.71,3.85,3.75,5.71,5.68
			c1.51,1.12,3.77,1.14,5.21-0.1c1.18-1.42,2.25-2.99,2.93-4.71c0.93-2.34-0.25-4.91-1.98-6.55c-2.06-1.83-4.62-2.82-7.3-3.18
			c-5.42-3.15-13.27-4.77-17.52-4.81c-6.31-0.05-12.68,2.58-17.23,6.93c-4.19,4.54-7.79,9.75-9.95,15.57
			c-1.83,5.19-3.41,10.7-2.96,16.26c0.35,3.23,1.19,6.41,2.41,9.44C21.53,372.04,25.08,377.96,30.43,382.1z"/>
		<path class="st1" d="M79.36,383.86c0.85,3.78,2.17,7.59,4.06,10.26c0.45,1.49,1.44,2.75,3,3.18c0.3,0.27,0.6,0.51,0.93,0.66
			c0.78,0.37,1.67,0.51,2.51,0.7c12.86,2.16,21.73-8.48,26.27-19.21c2.77-6.73,4.27-13.93,5.68-21.05c0.19-1.22,0.62-2.76,0.41-4.06
			c0.68-3.42,0.9-6.79,0.41-10.33c-0.13-0.99-0.17-2.05-0.77-2.89c-0.73-1.14-2.11-1.69-3.41-1.28c-0.99,0.14-2.26-0.07-3.08,0.59
			c-0.26,0.28-0.33,0.62-0.33,0.97c-0.33,0.54-0.56,1.21-0.56,2.09c-0.52,6.82-2.25,13.49-4.16,20.22
			c-2.49,8.23-4.47,17.49-11.07,23.55c-1.42,1.26-3.27,2.42-5.17,2.7c-0.53,0.02-1.06,0.01-1.59-0.02
			c-0.62-0.09-1.23-0.26-1.83-0.62c-0.68-0.45-1.29-0.98-1.88-1.54c-0.99-1.45-1.56-3.28-2.14-4.91c-0.82-9.01-1.08-18.08-0.43-27.1
			c0.33-3.44,0.77-6.9,1.23-10.33c0.45-3.23,1.12-6.53,0.11-9.7c0.19-0.37,0.16-0.85-0.3-1.48c-0.76-0.84-1.96-0.98-2.92-1.51
			c-2.34-1-4.67-0.9-4.57,2.27c-0.01,2.03-0.03,4-0.05,6c-0.1,0.35-0.17,0.66-0.23,0.89c-2.18,8.64-3.02,17.55-2.56,26.44
			C76.85,373.58,77.48,378.97,79.36,383.86z"/>
		<path class="st1" d="M121.63,405.87c1.33,2.53,4.83,2.57,7.33,3.1c12.71,1.16,29.18-7.42,36.61-17.64
			c3.8-4.76,5.79-11.11,5.16-17.2c-1.59-9.1-7.62-17.36-14.87-22.99c-3.69-2.73-7.7-5-12.03-6.5c-1.26-0.81-2.94-1.02-4.31-1.55
			c-1.68-0.39-4.67-1.72-6.39-0.42c-0.26,0.3-0.27,0.62-0.2,0.93c-0.88,1.33-0.99,3.43-1.6,4.83c-3.36,9.84-4.36,20.17-5.86,30.4
			c-0.7,5.21-1.57,10.4-2.55,15.56c-0.24,1.12-0.48,2.42-0.46,3.67c0,0,0,0.01,0,0.01c-0.16,1.87-1.25,3.66-0.75,5.55
			c-0.06,0.39-0.03,0.8,0.03,1.21C121.56,405.11,121.51,405.47,121.63,405.87z M136.64,367.2c0.93-5.11,2.28-10.16,3.11-15.29
			c1.21,0.66,2.3,1.23,2.94,1.64c2.84,1.44,5.29,3.47,7.92,5.25c0.07,0.04,0.13,0.08,0.2,0.12c3.74,3.4,6.79,7.57,8.63,12.27
			c1.44,5.19,0.41,10.85-1.87,15.65c-3.98,6.51-11.58,9.74-18.7,11.56c-2.79,0.65-5.64,1.07-8.45,1.64c0.02-0.1,0.04-0.22,0.06-0.31
			c0.87-5.03,1.83-10.04,2.77-15.06C134.41,378.86,135.55,373.03,136.64,367.2z"/>
		<path class="st1" d="M167.01,412.86c0-0.09,0.02-0.17,0.01-0.26c0-0.08-0.01-0.17-0.01-0.25
			C167.01,412.52,167.01,412.69,167.01,412.86z"/>
		<path class="st1" d="M206.97,368.87c-2.61-4.74-7.82-6.94-12.17-9.75c-2.52-1.61-5.37-2.6-8.03-3.96
			c-0.92-0.39-1.87-0.82-2.89-0.9c-0.75-0.04-1.57,0.14-2.28,0.51c-0.1-0.01-0.2,0-0.3,0.01c-0.87,0.02-1.53,0.43-1.75,1.13
			c-0.29,0.37-0.53,0.78-0.65,1.17c-1.23,3.69-2.14,7.47-2.93,11.28c-1.65,6.51-2.86,13.31-4.17,19.82
			c-0.96,4.8-1.98,9.6-3.02,14.39c-0.55,3.34-1.81,6.64-1.76,10.04c0.03,1.04,0.27,2.05,1.11,2.79c0.05,0.04,0.1,0.04,0.15,0.08
			c0.89,0.84,2.17,1.07,3.32,1.4c1.66,0.42,3.43,0.68,5.11,0.37c0.09,0.01,0.18,0.03,0.26,0.03c7.58-0.09,14.44-3.34,21.01-6.99
			c3.36-1.65,6.5-3.87,8.25-7.28C212.96,392.9,213.48,379.2,206.97,368.87z M203.28,389.82c-1.01,5.38-4.64,9.4-9.04,12.4
			c-1.8,1.14-3.64,2.21-5.54,3.15c-1.69,0.42-3.35,0.95-5,1.49c-2.79,0.89-5.7,1.25-8.6,1.63c0.06-0.38,0.12-0.77,0.17-1.15
			c1.57-3.99,2.57-11.38,2.92-12.69c0.83-4.42,1.73-8.83,2.6-13.24c0.79-3.15,1.58-6.3,2.37-9.46c0.69-1.98,0.94-4,0.99-6.04
			c1.65,0.51,3.34,0.91,5.04,1.17c0.32,0.06,0.64,0.09,0.96,0.13c1.93,1.08,3.83,2.21,5.68,3.42c5.91,3.37,8.01,9.39,8.08,15.71
			C203.66,387.5,203.53,388.67,203.28,389.82z"/>
		<path class="st1" d="M253.78,418.92c0.22-1.79-1.86-2.88-3.58-2.6c-0.02,0-0.04,0-0.06,0c-0.63-0.19-1.27-0.21-1.92-0.12
			c-3.1-0.22-6.2-0.59-9.31-0.47c-4.39,0.06-8.52,0.59-12.72,1.5c1.31-9.52,0.33-19.1,0.44-28.67c0.47-4.09,0.91-8.17,1.17-12.28
			c-0.01-1.14,0.26-3.1,0.42-5.09c-0.02-0.33-0.03-0.66-0.04-0.99c-0.03-0.7-0.03-1.39-0.03-2.08c0-0.13,0-0.26,0.01-0.39
			c0.01-0.46,0.01-0.93,0.02-1.39c0.48-1.41,0.6-2.84-0.2-4.25c-1.4-2.01-4.12-1.93-6.27-1.51c-1.8,0.43-2.78,2.5-2.59,4.22
			c-0.02,1.09-0.05,2.22-0.07,3.36c-1.13,7.4-1.55,14.97-1.78,22.54c-0.65,3.88-1.32,7.82-0.58,11.59
			c-0.18,0.79,0.03,1.86-0.14,2.55c-0.3,6.23-0.21,12.55,0.12,18.77c-0.01,0,0,0.03,0,0.05c0,0.01,0,0.02,0,0.03l0-0.01
			c0,0,0,0.01,0,0.01c0.04,0.74,0.41,1.42,0.9,1.9c0.19,0.91,1.77,1.3,2.75,1.29c5.62,0.33,11.3-0.18,16.92-0.5
			c4.7-0.52,9.48-0.31,14.13-1.22C254.33,424.7,253.6,421.11,253.78,418.92z"/>
		<path class="st1" d="M251.34,425.15c0,0,0,0,0.04-0.01c-0.01,0-0.01,0-0.02,0c-0.02,0-0.03,0.01-0.05,0.02
			C251.32,425.15,251.34,425.15,251.34,425.15z"/>
		<path class="st1" d="M275.49,378.78c1.12-0.03,2.23-0.18,3.31-0.46c0.48,0.01,0.95,0.02,1.38,0.07
			c5.24,0.21,10.14,0.15,15.43-0.27c2.73-0.37,5.85-0.21,8.21-1.82c1.88-1.35,2.08-4.75-0.42-5.51c-4.03-0.9-8.24-0.86-12.35-1.31
			c-5.67-0.26-11.33-1.15-17.01-0.92c-2.66,0.04-5.4,1.04-6.64,3.01c-0.55,0.15-1,0.55-1.14,1.33c-0.14,2.84,0.12,5.54,0,8.58
			c0,1.47-0.07,3.11,0.02,4.73c-0.15,1.29-0.19,2.6-0.08,3.88c0.05,5.1,0.05,10.21,0.05,15.31c-0.07,3.09-0.05,6.17,0.02,9.26
			c-0.15,4.8-1.58,15.12,1.34,17.83c0.03,0.11,0.01,0.2,0.07,0.33c1.11,1.14,2.75,1.6,4.26,1.94c3.21,0.91,6.49,1.49,9.82,1.8
			c3.73,0.4,7.5,0.64,11.26,0.39c2.38-0.18,4.91-0.05,7.12-1.1c2.77-1.15,3.57-4.45,0.91-6.22c-2-1.2-4.27-1.73-6.57-2.12
			c-0.37-0.22-0.81-0.38-1.2-0.46c-3.55-0.95-7.26-1.11-10.89-1.6c-2.55-0.43-5.15-0.6-7.68-0.22c-0.28-1.3-0.59-2.6-0.84-3.91
			c-0.26-2.43,0.18-4.89,0.24-7.32c0.09-3.28,0.1-6.57,0.11-9.86c3.05-0.01,6.11-0.02,9.15-0.2c1.31,0.04,2.62,0.08,3.97,0.16
			l-0.22-0.01c1.98,0.09,3.95,0.11,5.92,0.02c3.12,0.07,3.9-3.74,2.65-6.1c-0.23-0.72-0.76-1.3-1.65-1.5
			c-3.75-0.46-7.56-0.59-11.33-1.02c-2.75-0.27-5.61-0.68-8.36-0.26c0.05-1.76,0.12-3.52,0.24-5.28c0.2-3.63-0.1-7.25-0.07-10.87
			C274.85,379,275.17,378.89,275.49,378.78z"/>
		<path class="st1" d="M322.16,382.97c0.54-0.18,1.07-0.48,1.42-0.68c5.27-4.17,12.77-1.55,16.65,3.28c0.74,0.94,1.28,2,1.75,3.1
			c0.1,3.97,1.17,8.64,4.34,8.94c3.37,0.52,4.79-3.44,5.45-6.07c0.34-1.45,0.24-2.88-0.16-4.22c0.04-1.36-0.44-2.92-0.84-3.97
			c-1.47-3.48-4.19-6.24-6.97-8.72c-2.37-1.98-4.81-4.03-7.77-5.05c-3.05-0.95-6.59-0.78-9.4,0.76c-1.47,0.48-2.93,1.17-4.35,2.18
			c-3.44,2.44-5.93,6-7.3,9.97c-0.27,0.56-0.57,1.12-0.8,1.69c-2.32,5.35-1.02,13.58,2.89,17.92c0.23,0.27,0.47,0.54,0.7,0.81
			c2.64,5.05,6.13,9.75,9.29,14.42c1.4,2.43,3.46,4.69,4.19,7.42c0.09,1.46-0.34,2.84-0.96,4.15c-0.83,0.2-1.69,0.29-2.54,0.38
			c-3.49,0.52-7.04,0.21-10.31-1.15c-0.03-0.01-0.05-0.04-0.08-0.05c-0.8-0.91-1.56-1.86-2.34-2.78c-1.16-1.21-1.86-2.76-2.44-4.32
			c-1.49-3.96-0.99-10.23-7.27-7.62c-3.01,2.61-2.23,8.23-1.57,11.77c0.82,3.86,3.54,9.3,7.35,11.47c2.59,2.81,5.98,4.72,10.08,4.9
			c4.75,0.47,9.96-1.29,12.81-5.24c0.82-1.2,1.56-2.49,2.16-3.84c2.29-2.42,3.13-6.12,1.54-11.56c-0.58-3.68-2.22-7.09-4.6-9.94
			c-2.59-4.04-5.54-7.81-8.93-11.21c-1.46-1.56-2.55-2.89-3.36-4.3c-0.45-1.46-0.77-2.95-0.79-4.48
			C319.99,388.15,320.77,385.38,322.16,382.97z"/>
		<path class="st1" d="M345.06,451.95c0.19,0.33,0.43,0.64,0.78,0.87c1.34,0.6,2.65,0.34,3.8-0.43c6.37-2.32,7.75-16-1.1-15.53
			c-3.03,0.27-4.9,3.3-5.19,6.1C341.92,445.82,342.33,450.11,345.06,451.95z"/>
		<path class="st1" d="M362.67,375.78c-0.04,0.15-0.09,0.3-0.13,0.45c0,0.04-0.01,0.07-0.01,0.11c0.01-0.04,0.03-0.07,0.03-0.1
			C362.59,376.08,362.64,375.93,362.67,375.78z"/>
		<path class="st1" d="M352.78,413.15c-0.64,2.61-1.36,5.2-1.84,7.84c-0.28,2.06-0.99,4.3-0.7,6.39c0.01,0.1,0.04,0.21,0.05,0.31
			c0.03,0.15,0.05,0.31,0.1,0.46c0.01,0.03,0.01,0.04,0.01,0.07c0.01,0.01,0.02,0.02,0.02,0.03c0.08,0.26,0.16,0.52,0.27,0.77
			c0.33,0.48,0.65,0.73,0.95,0.88c1.08,1.12,2.48,1.95,4,2.32c1.56,0.18,2.57-1.39,2.57-2.81c0.3-1.58,0.79-3.12,1.23-4.66
			c-0.04,0.14-0.08,0.28-0.12,0.41c2.7-9.01,5.02-18.21,7.59-27.27c1.03-3.6,2.36-7.11,3.26-10.74c0.46-1.82,0.72-3.67,0.92-5.53
			c0.52-0.87,1.05-1.73,1.51-2.61c1.03-2.03,0.02-4.95-2.23-5.62c-0.53-0.14-1.02-0.08-1.54,0.01c-2.24,0.41-5.75-0.07-6.28,2.83
			c-1.55,7.38-3.97,14.54-5.96,21.84C355.26,403.08,354.05,408.12,352.78,413.15z"/>
		<path class="st1" d="M4.85,600.02c0.19,0.45,0.34,0.92,0.51,1.37c0.36,0.97,0.7,1.94,1.05,2.91c0.71,2,1.46,3.97,2.19,5.96
			c1.26,3.43,2.48,6.88,3.7,10.32c1.56,5.04,3.38,10,5.37,14.9c0.1,0.29,0.21,0.57,0.31,0.86c0.78,2.17,1.57,4.35,2.36,6.52
			c0.43,1.18,0.84,2.38,1.31,3.55c0.21,0.54,0.41,1.1,0.65,1.62c0.25,0.53,0.51,1.05,0.78,1.58c0.2,0.39,0.41,0.78,0.61,1.17
			c0.43,1.17,0.86,2.34,1.26,3.52c0.59,1.71,1.21,3.4,1.96,5.05c0.11,0.28,0.24,0.56,0.37,0.84c0.28,0.77,0.55,1.55,0.84,2.32
			c0.73,1.76,1.18,3.8,2.42,5.27c0.44,0.4,0.94,0.7,1.54,0.77c1.52,0.06,3.08-0.28,4.45-0.94c0.87-0.58,0.8-1.62,0.66-2.54
			c0.34-0.74,0.38-1.88,0.22-2.7c-0.96-5.44-3.07-10.6-4.67-15.86c-1.37-4.63-3.07-9.14-4.9-13.6c0.31-0.14,0.61-0.25,0.93-0.42
			c1.81-0.95,3.48-2.16,5.1-3.4c1.65-1.27,3.3-2.55,4.97-3.8c3.28-2.44,6.48-4.99,9.75-7.44c0.47-0.15,0.88-0.45,1.22-0.81
			c0.85-0.94,1.15-2.34,0.87-3.59c0.14-1.38-0.36-2.86-1.42-3.68c-0.3-0.48-0.59-1-1.19-1.35c-1.41-0.98-2.88-0.04-4.11,0.77
			c-1.03,0.62-2.07,1.21-3.09,1.83c-4.21,2.69-8.26,5.6-12.42,8.36c-1.39,1.01-2.76,2.05-4.17,3.03c-1.77-6-3.29-12.09-5.32-18
			c-0.29-0.64-0.65-1.24-1.03-1.82c1.4-0.66,2.78-1.64,3.93-2.25c7.76-4.79,15.79-9.18,23.63-13.8c1.25-1.13,1.54-3.34,0.78-4.82
			c-0.34-1.62-1.28-3.35-2.28-3.7c-0.4-1.16-1.44-2.09-2.74-1.87c-0.5,0.08-0.97,0.33-1.37,0.68c-0.68,0.38-1.39,0.73-2.08,1.1
			c-1.21,0.66-2.43,1.29-3.65,1.92c-3.19,1.64-6.4,3.24-9.6,4.84c-1.18,0.53-2.35,1.08-3.5,1.7c-0.52,0.25-1.01,0.55-1.52,0.83
			c-0.11,0.05-0.22,0.11-0.33,0.17c-2.51,1.25-5.02,2.5-7.48,3.83c-1.24,0.66-2.47,1.35-3.68,2.07c-1.02,0.6-2.05,1.18-2.86,2.05
			c-0.03,0.03-0.07,0.07-0.11,0.11c-0.16,0.14-0.34,0.31-0.51,0.51c-0.69,0.83-0.76,2.43-0.01,3.23
			C4.62,599.45,4.69,599.76,4.85,600.02z"/>
		<path class="st1" d="M135.81,621.9c2.56,0.13,4.04-0.92,4.93-2.53c0.59-0.27,1.15-0.57,1.67-0.9c3.68-2.06,7.42-4.03,11.09-6.1
			c3.63-2.33,10.63-4.05,8.93-9.68c-0.43-0.9-0.16-1.8-0.26-2.75c-0.36-2.07-2.13-2.91-3.92-1.77c-1.64,0-2.99,1-4.47,1.65
			c-4.86,2.44-9.7,4.95-14.31,7.85c-0.71,0.49-1.46,0.97-2.19,1.48c-2.14-5.44-4.35-10.86-6.77-16.19
			c-0.05-0.12-0.09-0.24-0.14-0.36c0.17-0.07,0.35-0.14,0.52-0.2c0.92-0.38,1.79-0.85,2.69-1.27c2.95-0.32,5.75-1.69,8.35-3.14
			c3.08-1.8,6.56-2.66,9.65-4.22c1.7-1.23,2.17-3.52,1.44-5.42c-0.38-0.85-0.4-1.73-0.84-2.58c-0.54-1.03-1.88-1.59-2.97-1.16
			c-2.95,1.68-15.54,6.39-21.36,11.12c-1.91-5.75-3.46-11.63-5.25-17.41c6.78-3.59,14.03-6.19,20.85-9.72
			c1.67-0.92,3.69-1.71,4.64-3.47c0.84-1.8-0.47-3.27-2.18-3.35c0.13-0.22,0.3-0.39,0.42-0.62c-3.31-1.66-6.99-0.77-10.18,0.71
			c-2.38,0.93-4.75,1.88-7.1,2.88c-4.16,2.06-9.16,3.33-12.25,6.97c-1.52,0.27-2.63,1.57-1.9,3.48c0.91,4.27,1.83,8.54,2.99,12.75
			c2.58,9.85,5.77,19.53,9.24,29.1c0.93,2.07,2,5.45,3.38,8.31C130.16,618.44,132.52,621.91,135.81,621.9z"/>
		<path class="st1" d="M172.79,603.64c0.91,1.07,2.35,1.71,3.72,1.32c0.83,0.03,1.67-0.37,2.38-0.69c1.23-0.57,2.44-1.21,3.66-1.79
			c3.1-1.42,6.2-2.83,9.31-4.23c2.89-1.09,5.76-2.23,8.65-3.32c2.11-0.83,4.46-1.23,6.37-2.48c2.12-1.8,1.16-5.02-0.35-6.9
			c-2.08-2.12-5.67,0.21-7.98,1.27c-5.96,2.55-12.07,4.79-17.77,7.94c-0.36,0.19-0.84,0.42-1.34,0.68
			c-0.56-1.67-1.17-3.32-1.73-4.99c-1.29-3.82-2.45-7.68-3.56-11.56c0.44-0.09,0.89-0.17,1.33-0.29c2.18-0.61,4.26-1.43,6.33-2.34
			c2.07-0.9,4.11-1.85,6.16-2.79c0.93-0.42,1.87-0.84,2.82-1.24c0.61-0.25,1.22-0.52,1.84-0.75c0.19-0.02,0.39-0.08,0.58-0.16
			c0.01,0,0.01-0.01,0.02-0.01c0.8-0.22,1.46-0.87,1.85-1.57c0.48-0.87,0.64-1.94,0.44-2.91c-0.18-0.85-0.66-1.68-1.43-2.11
			c0,0-0.01,0-0.01,0c-0.27-0.8-0.86-1.48-1.77-1.44c-4.8,1.18-9.51,2.73-14.09,4.6c-2.19,0.72-4.21,1.8-6.35,2.6
			c-0.11-0.43-0.24-0.86-0.35-1.29c-1.06-4.59-1.88-9.23-2.89-13.83c-0.05-0.26-0.09-0.52-0.14-0.78c0.8-0.36,1.61-0.69,2.42-1.03
			c3.14-0.42,6.26-0.93,9.29-1.9c4.77-1.62,9.52-3.44,14.1-5.56c0.01-0.02,0.02-0.04,0.03-0.06c0.21-0.42,0.38-0.86,0.57-1.29
			c0.01,0,0.02-0.01,0.03-0.01c0.11-0.26,0.22-0.52,0.33-0.79c0-0.01,0.01-0.02,0.01-0.03c0.02-0.06,0.04-0.13,0.06-0.19
			c-0.03-0.14-0.05-0.29-0.07-0.43c-0.05-0.32-0.1-0.63-0.15-0.95c-0.06-0.37-0.12-0.74-0.18-1.11c-0.03-0.17-0.05-0.34-0.08-0.5
			c-0.09-0.15-0.18-0.3-0.27-0.45c-0.3-0.44-0.62-0.86-0.96-1.27c0,0-0.01-0.01-0.01-0.01c-0.15-0.17-0.3-0.33-0.45-0.49
			c-0.01,0-0.02,0.01-0.03,0.01c-0.45-0.47-0.9-0.93-1.37-1.37c0,0,0,0,0,0c0,0,0,0,0,0c0,0,0,0,0,0c0,0-0.01-0.01-0.01-0.01
			c0,0,0,0,0.01,0.01c0,0,0,0-0.01-0.01c0,0,0,0,0,0c0,0,0,0,0,0c0,0,0,0,0,0c0,0,0,0,0,0c0,0,0,0,0,0c0,0,0,0,0,0c0,0,0,0,0,0
			c0,0,0,0,0,0c-0.01-0.01-0.01-0.01-0.02-0.02c-0.02-0.01-0.03-0.03-0.05-0.04c-0.31-0.27-0.61-0.54-0.93-0.81c0,0,0,0,0,0
			c-0.02-0.01-0.03-0.03-0.05-0.04c-0.03-0.02-0.05-0.03-0.08-0.05c-0.05-0.03-0.1-0.06-0.15-0.09c-0.49,0.18-0.99,0.36-1.48,0.53
			c-0.52,0.18-1.04,0.36-1.55,0.54c-4.89,1.38-10.8,3.31-15.86,5.53c-0.88,0.31-1.76,0.6-2.64,0.92c-1.09,0.4-2.21,0.78-3.26,1.26
			c-0.43,0.19-0.87,0.38-1.31,0.57c-1.92-0.2-3.68,1.27-5.5,1.62c-2.46,0.31-2.28,3.94-0.72,5.44c0.02,0.08,0.02,0.16,0.05,0.24
			c0.74,4.62,1.7,9.2,2.67,13.77c1.16,5.26,2.37,10.5,3.82,15.69C166.92,589.45,168.71,597.16,172.79,603.64z"/>
		<path class="st1" d="M424.18,459.25c0-0.01,0-0.02,0-0.03c0-0.03-0.01-0.06-0.01-0.1c0,0,0,0,0,0c0-0.01,0-0.03,0-0.04
			c0,0,0,0,0,0c-0.02-0.27-0.06-0.54-0.09-0.81c-0.02-0.13-0.03-0.27-0.05-0.4c0.01,0.06,0.01,0.12,0.02,0.17c0-0.01,0-0.02,0-0.03
			c-0.01-0.05-0.01-0.1-0.02-0.15c0.01,0.05,0.01,0.09,0.02,0.14c0-0.01,0-0.03-0.01-0.04c0-0.03-0.01-0.06-0.01-0.1
			c0,0.02,0.01,0.05,0.01,0.07c-0.01-0.06-0.01-0.11-0.02-0.17c-0.01-0.09-0.02-0.18-0.03-0.28c-0.07-0.4-0.15-0.8-0.22-1.2
			c-0.02-0.1-0.04-0.2-0.05-0.3c-0.1-0.41-0.19-0.82-0.29-1.22c0,0,0,0,0,0c-0.01-0.03-0.01-0.06-0.02-0.09
			c-0.11-0.45-0.27-0.89-0.4-1.34c0.02,0.06,0.04,0.12,0.05,0.17c-0.14-0.37-0.27-0.75-0.4-1.12c-0.17-0.34-0.35-0.67-0.52-1.01
			c-0.56-0.27-1.12-0.55-1.67-0.83c-11.73-5.78-23.55-12.96-36.01-17.49c-2.27-0.72-4.52-1.57-6.81-2.26
			c-0.86-0.89-1.87-1.03-2.85-0.74c-1.16-0.1-2.5,0.74-2.69,1.89c-0.27,0.33-0.53,0.66-0.72,1c-1.17,1.46-2.06,3.82-0.41,5.28
			c2.73,2.09,6.01,3.34,9.1,4.82c7.22,3.5,14.53,6.85,21.81,10.22c-0.68,0.17-1.47,0.37-2.34,0.59c-1.52,0.26-3.04,0.55-4.55,0.91
			c-1.31,0.27-8.64,2.25-16.04,4.71c-3.85,1.17-7.68,2.38-11.44,3.79c-16.98,6.51-33.55,14.57-48.48,25.01
			c-14.66,10.68-26.77,24.67-36.6,39.84c-7.61,12.32-13.26,25.82-15.64,40.16c-1.12,6.11-2.71,12.26-2.18,18.52
			c0.11,1.91-0.12,4.2,1.35,5.65c1.22,1.2,2.89,0.26,3.94-0.69c0.57-0.47,1.22-1.05,1.56-1.74c0.02-0.03,0.04-0.06,0.06-0.09
			c0.02-0.04,0.04-0.07,0.05-0.11c0.45-0.9,0.49-2.17,0.53-3.11c0.55-8.31,3.17-16.46,6.14-24.35c9.53-26.06,25.51-50.29,47.82-67.1
			c15.58-10.93,33.39-18.75,51.67-24.11c7.34-1.92,14.77-3.39,22.24-4.7c-4.24,3.09-8.36,6.32-12.27,9.84
			c-3.12,2.72-6.16,5.54-9.31,8.24c-2.59,2.34-5.67,4.28-7.76,7.1c-1.55,2.34,0.53,4.46,1.93,6.34c0.6,1,1.06,2.14,2.05,2.82
			c0.5,0.32,1.01,0.46,1.51,0.46c1.66,0,3.28-1.48,4.52-2.5c0.17-0.13,0.33-0.27,0.5-0.4c0.31-0.28,0.62-0.57,0.94-0.85
			c1.58-1.43,3.19-2.84,4.8-4.24c2.46-2.14,4.97-4.23,7.51-6.28c0.62-0.56,1.24-1.12,1.87-1.68c0.03-0.03,0.07-0.06,0.1-0.09
			c1.6-1.43,3.23-2.84,4.84-4.27c1.54-1.36,3.12-2.7,4.69-4.03c1.59-1.34,3.17-2.7,4.77-4.02c0.12-0.1,0.24-0.2,0.36-0.3
			c0,0-0.01,0.01-0.01,0.01c0,0,0,0,0.01,0c0.05-0.04,0.1-0.08,0.15-0.12c0.01-0.01,0.02-0.01,0.03-0.02
			c0.01-0.01,0.02-0.01,0.02-0.02c0.01-0.01,0.03-0.02,0.04-0.03c1.64-1.37,3.3-2.73,4.98-4.05c0.06-0.05,0.13-0.1,0.19-0.15
			c1.75-1.37,3.52-2.72,5.29-4.07c0.13-0.1,0.25-0.19,0.38-0.29c0.13-0.1,0.26-0.2,0.39-0.3c0.12-0.17,0.23-0.34,0.35-0.5
			c0,0,0.01,0,0.01,0c0.32-0.46,0.64-0.91,0.94-1.38c0.01-0.01,0.02-0.02,0.02-0.03l0,0c0,0,0,0,0,0c0.01-0.04,0.03-0.07,0.05-0.11
			c0.09-0.25,0.18-0.51,0.27-0.77c0.05-0.15,0.11-0.29,0.16-0.44C424.23,459.97,424.21,459.61,424.18,459.25z"/>
		<path class="st1" d="M391.19,489.85C391.19,489.85,391.19,489.85,391.19,489.85C391.19,489.85,391.19,489.85,391.19,489.85
			C391.19,489.86,391.19,489.86,391.19,489.85z"/>
		<path class="st1" d="M391.11,489.93c0.02-0.02,0.04-0.04,0.06-0.06c0,0,0.01-0.01,0.01-0.01
			C391.16,489.88,391.13,489.9,391.11,489.93L391.11,489.93z"/>
		<path class="st1" d="M182.51,230.12c0.04-0.01,0.06-0.03,0.09-0.03c0.81,1.01,1.77,1.27,2.64,0.98c3.12,1.67,4.58-7.17,5.7-9.26
			c6.95-16.49,28.21-34.19,44.13-41.98c17.78-8.43,37.02-11.31,56.58-12.76c10.09-0.94,20.25-0.9,30.38-0.63
			c3.57,0.11,7.11,0.6,10.67,0.69c2,0.3,4,0.61,6,0.98c0.29,0.03,0.6,0.09,0.91,0.16c-5.75,3.82-11.44,7.73-16.91,11.95
			c-2.02,1.76-6.53,4.86-9.22,8.07c-0.24,0.6-0.51,1.19-0.77,1.79c0,0-0.01,0-0.01,0.01c-0.07,0.17-0.14,0.33-0.21,0.5c0,0,0,0,0,0
			c-0.01,0.02-0.02,0.05-0.03,0.07c-0.01,0.03-0.02,0.05-0.03,0.08c-0.02,0.06-0.04,0.13-0.07,0.19c0.01-0.03,0.03-0.07,0.04-0.1
			c-0.01,0.03-0.02,0.07-0.04,0.1c0.01-0.02,0.01-0.04,0.02-0.06c-0.01,0.02-0.01,0.04-0.02,0.06c0.01-0.03,0.03-0.07,0.04-0.1
			c-0.1,0.29-0.19,0.58-0.27,0.87c-0.01,0.07,0,0.14,0,0.21c-0.11,0.42-0.26,0.83-0.33,1.25c-0.04,0.36-0.06,0.72-0.06,1.09
			c0,0,0,0,0,0c0,0.01,0,0.02,0,0.04c0.01,0.31,0.04,0.62,0.09,0.92c0.03,0.18,0.08,0.35,0.13,0.52c0,0,0,0.01,0,0.01
			c0.01,0.03,0.02,0.06,0.03,0.09c0.09,0.25,0.2,0.49,0.32,0.73c-0.01-0.02-0.02-0.03-0.02-0.05c0.01,0.02,0.02,0.03,0.02,0.05
			c-0.01-0.02-0.02-0.03-0.03-0.05c0.01,0.03,0.03,0.06,0.04,0.08c0.16,0.3,0.36,0.58,0.55,0.87c0,0-0.01,0.01-0.01,0.01
			c0.06,0.1,0.13,0.19,0.2,0.29c0.01,0.01,0.02,0.03,0.03,0.04c0.01,0.02,0.03,0.03,0.04,0.05c0.14,0.19,0.29,0.37,0.43,0.55
			c0.01,0,0.02,0,0.04,0c0.22,0.26,0.42,0.53,0.65,0.77c0.01,0.01,0.02,0.02,0.03,0.03c0.01,0.01,0.02,0.02,0.02,0.03
			c0.11,0.11,0.23,0.21,0.34,0.32c0.24,0.13,0.48,0.27,0.71,0.41c0.11,0.07,0.22,0.13,0.33,0.2c0,0,0,0,0,0
			c0.37,0.23,0.74,0.47,1.12,0.68c0.13,0.03,0.26,0.05,0.39,0.07c0.38,0.07,0.77,0.12,1.17,0.15c0.12,0.01,0.23,0.01,0.34,0.01
			c0.22,0,0.44-0.01,0.65-0.03c0.71-0.04,1.41-0.14,2.1-0.32c0.33-0.09,0.64-0.21,0.96-0.31c0.04-0.01,0.08-0.03,0.11-0.04
			c0.28-0.25,0.55-0.49,0.81-0.71c3.39-3.14,6.79-6.25,10.1-9.47c4.51-4.46,9.29-8.68,14.45-12.38c0.56-0.48,1.13-0.95,1.71-1.42
			c0.71-0.58,1.45-1.13,2.19-1.67c0.78-0.56,1.55-1.14,2.35-1.68c0.05-0.03,0.1-0.06,0.14-0.1c-0.01,0.01-0.02,0.02-0.03,0.03
			c0.5-0.34,1-0.67,1.5-1c0.21-0.14,0.42-0.27,0.63-0.41c0.68-0.44,1.37-0.86,2.06-1.28c0.03-0.02,0.06-0.04,0.09-0.05
			c0.01,0,0.01-0.01,0.02-0.01c0.56-0.35,1.14-0.67,1.71-1c0.29-0.16,0.58-0.33,0.87-0.49c0.07-0.59,0.13-1.18,0.21-1.78
			c0.01-0.04,0.01-0.09,0.02-0.13c-0.01,0.05-0.01,0.11-0.02,0.16c0.02-0.14,0.04-0.29,0.05-0.43c0-0.01,0-0.02,0-0.02
			c0.21-1.66,0.46-3.31,0.73-4.96c0.01-0.03,0.01-0.06,0.01-0.09c0,0.02-0.01,0.03-0.01,0.05c0-0.01,0-0.01,0-0.02
			c0,0.01,0,0.01,0,0.02c0-0.03,0.01-0.06,0.01-0.09c0-0.01,0-0.01,0-0.02c0.01-0.11,0.04-0.21,0.06-0.32
			c0.03-0.2,0.07-0.4,0.11-0.59c0,0,0,0.01,0,0.02c0-0.01,0-0.01,0-0.02v0c0,0,0,0,0,0c0-0.01,0-0.01,0-0.02c0,0,0,0,0,0
			c0,0,0,0,0-0.01c0-0.01,0-0.02,0-0.02c0,0.01,0,0.01,0,0.02c0-0.02,0.01-0.05,0.01-0.07c0,0,0-0.01,0-0.01
			c0.04-0.21,0.07-0.41,0.11-0.61c0,0,0,0,0,0c0,0,0,0,0,0c-0.73-0.65-1.45-1.32-2.17-1.98c-1.33-1.22-2.66-2.45-3.97-3.7
			c-0.16-0.11-0.32-0.23-0.48-0.34c-3.03-2.24-6.13-4.4-9.22-6.55c-9.28-6.23-18.28-13.07-28.68-17.37
			c-6.33-3.91-9.29,2.07-10.3,7.56c-0.12,0.86,0.23,1.87,1.22,1.97c0.15,0.01,0.29-0.04,0.43-0.06c0.13,0.16,0.23,0.34,0.41,0.48
			c1.94,1.55,4.3,2.49,6.44,3.76c4.93,2.85,9.69,6.03,14.17,9.55c2.67,2.09,5.34,4.19,8.02,6.27c-6.63-1.22-13.52-1.94-20.44-2.31
			c-31.97-1.77-66.27-0.77-94.47,16.29c-15.22,8.69-45.8,35.38-43.01,54.42C180.57,228.89,181.18,230.24,182.51,230.12z"/>
		<path class="st1" d="M180.4,227.79c0-0.01,0-0.03,0-0.04c0-0.01,0-0.01,0-0.02L180.4,227.79z"/>
		<path class="st1" d="M362.36,160.34c0,0.01,0,0.02-0.01,0.03c0,0.03-0.01,0.05-0.01,0.08
			C362.34,160.41,362.35,160.38,362.36,160.34z"/>
		<path class="st1" d="M316.02,282.53c-0.01,0-0.02-0.01-0.03-0.01c0.01,0,0.01,0.01,0.01,0.01c0.02,0,0.03,0.01,0.05,0.01
			C316.04,282.54,316.03,282.54,316.02,282.53z"/>
		<path class="st1" d="M42.7,713.47c-1.51-4.32-2.9-8.68-3.98-13.12c-0.22-0.94-0.41-1.89-0.63-2.83c10-4.13,20.25-8.12,29.36-13.96
			c2.26-1.98,1.49-6.37-1.59-7.03c-1.3-0.21-2.6,0.13-3.88,0.31c-12.73,3.39-24.81,8.81-37.1,13.5c-3.82,1.45-7.58,3.1-11.15,5.09
			c-2.33,0.35-5.6,3.23-7.33,3.86c-1.76,1.05-2.88,2.73-4.38,4.07c-2.92,2.43-2.66,6.37,0.72,8.22c3.38,1.5,6.84-0.98,9.82-2.41
			c0.01,0,0.01-0.01,0.02-0.01c1.28-0.57,2.53-1.29,3.73-1.7c4.48-1.94,9.54-3.89,13.55-6.96c0.51,2.19,1.08,4.37,1.64,6.56
			c1.74,8.2,4.14,16.23,6.8,24.18c1.5,3.31,2.99,12.38,6.48,13.41c1.25,0.32,2.4-0.47,3.53-0.9c3.61-2.1,0.89-6.98,0.36-10.12
			C46.58,726.94,44.67,720.2,42.7,713.47z"/>
		<path class="st1" d="M96.52,700.53c-1.48-0.02-2.86,0.71-4.26,1.12c-3.57,1.21-7.19,2.35-10.67,3.81
			c-1.49,0.64-2.91,1.44-4.27,2.31c-0.63-0.03-1.32,0.16-1.95,0.56c-1.78,1.1-3.59,2.19-5.29,3.44c-0.83,0.7-1.7,1.42-2.26,2.36
			c-0.89,1.84-0.4,4.71,1.48,5.76c3.09,1.39,5.76-1.8,8.46-2.87c4.56-2.28,8.86-4.98,13.63-6.85c1.44-0.6,2.74-1.46,3.89-2.48
			c0.63-0.34,1.27-0.65,1.88-1.01C99.61,705.51,99.46,700.88,96.52,700.53z"/>
		<path class="st1" d="M146.48,698.31c0.46-4.07-0.17-8.17-2.83-11.35c-5.21-5.68-13.4-5.88-20.57-5.49
			c-3.19,0.31-7.45,0.19-11.15-0.85c-0.89-0.52-1.88-0.91-2.58-1.69c-0.8-0.63-1.22-1.69-1.82-2.51c-0.33-0.9-0.64-1.82-0.69-2.79
			c-0.26-1.72-0.06-3.44,0.16-5.14c0.24-0.49,0.44-1,0.61-1.35c0.59-1.33,1.43-2.52,2.26-3.71c0.22-0.34,0.38-0.71,0.55-1.07
			c0.55-0.53,1.1-1.02,1.66-1.44c3.34-2.21,6.51-2.4,9.53-1.3c0.73,0.47,1.46,0.93,2.18,1.43c1.91,2.95,3.95,6.03,7.44,7.08
			c5.55,1.14,5.16-6.55,2.77-9.52c-0.15-0.24-0.36-0.42-0.53-0.64c-0.28-0.63-0.61-1.23-1.02-1.75c-2.76-3.82-7.52-5.95-12.17-6.06
			c-2.38-0.14-4.69,0.32-6.88,1.13c-2.59,0.63-5.34,2.79-7.27,3.87c-2.1,1.29-6.59,6.61-7.45,10.5c-0.06,0.15-0.09,0.3-0.14,0.45
			c-0.14,0.33-0.26,0.68-0.36,1.03c-0.35,0.9-0.52,1.84-0.54,2.79c-0.22,1.53-0.32,3.08-0.16,4.63c0.29,2.91,1.68,6.31,3.87,8.67
			c3.83,5.64,11.4,8.45,19.86,6.99c8.14-0.82,17.41-1.39,18.06,9.24c0.03,0.97-0.07,1.9-0.22,2.8c-1.58,3.21-4.07,5.97-6.85,8.26
			c-4.28,1.65-9.94,1.47-12.86-2.42c-1.56-1.95-2.57-4.79-4.87-5.98c-0.32-0.35-0.69-0.65-1.13-0.8c-1.89-0.69-3.67,0.83-4.02,2.66
			c-0.67,2.91,0.73,5.88,2.34,8.23c3.21,4.71,8.7,7.36,14.35,7.46c3.31,0.35,6.51-0.68,9.1-2.69c2.67-1.2,5.04-2.95,6.72-5.33
			c0.8-0.89,1.5-1.85,2.06-2.88C146.33,705.12,147.18,701.66,146.48,698.31z"/>
		<path class="st1" d="M203.43,691.41c-0.9-4.01-1.99-7.96-3.11-11.91c-0.79-3.17-1.58-6.35-2.31-9.55
			c-0.91-3.93-1.57-7.93-2.64-11.82c-0.56-1.93-1.25-3.8-1.96-5.66c-0.62-2.8-1.24-5.6-1.86-8.4c-0.25-2.37-0.57-4.73-1.11-7.06
			c-0.32-2.35-2.21-3.36-4.3-2.2c-1.1,0.42-2.13,0.99-2.96,1.84c-0.73,0.49-1.31,1.3-1.28,2.21c1.05,5.31,2.09,10.64,3.05,15.98
			c0.71,3.37,0.75,6.93,1.48,10.32c-0.64,0.19-1.27,0.39-1.86,0.58c-4.32,1.71-8.7,3.27-13.11,4.71c-3.45,1.24-6.87,2.3-10.33,3.46
			c-0.08-0.31-0.15-0.58-0.2-0.79c-0.99-4.01-2.22-7.95-3.13-11.97c-1.01-3.85-1.31-7.91-2.88-11.59c-0.09-0.21-0.21-0.4-0.31-0.61
			c-0.17-2.12-0.29-5.54-2.9-6.2c-1.24-0.22-2.77-0.11-3.72,0.79c-0.59,0.66-0.65,1.65-0.73,2.49c-0.25,5.44,0.12,21.1,3.48,25.78
			c1.3,7.75,3.1,15.41,5.41,22.93c1.01,3.11,2.04,7.05,3.44,10.22c0.22,0.4,0.39,0.81,0.55,1.23c0.17,0.3,0.41,0.52,0.69,0.67
			c0.27,0.21,0.59,0.37,0.91,0.48c1.02,0.21,2.05,0.26,2.88,0.07c1.18,0.47,2.59,0.39,3.43-0.64c0.72-0.84,0.25-1.9,0.23-2.87
			c-0.04-2.14-1.24-3.87-1.87-6.22c-0.87-2.94-1.62-5.91-2.37-8.88c-0.38-1.32-0.75-2.64-1.12-3.96c3.11-0.65,6.08-2.17,8.98-3.36
			c4.73-2.1,9.5-4.07,14.32-5.94c1.08-0.39,2.15-0.95,3.17-1.61c0.04-0.02,0.08-0.05,0.12-0.07c0.3,1.34,0.63,2.84,0.99,4.43
			c0.22,1.85,0.81,3.66,1.33,5.45c0.08,0.3,0.15,0.59,0.23,0.89c0.67,2.62,1.14,5.24,2,7.84c0.45,1.4,0.97,2.78,1.3,4.22
			c0.51,1.67,0.5,4.22,2.49,4.98c4.09,1.17,5.44-1.13,5.65-4.35c0.21-0.3,0.28-0.61,0.26-0.91
			C204.43,695.28,203.71,692.61,203.43,691.41z"/>
		<path class="st1" d="M224.95,688.65c-0.34-1.78-0.5-3.61-1.1-5.33c-0.12-0.36-0.28-0.69-0.43-1.03c-0.09-0.5-0.18-1.01-0.26-1.51
			c-1.86-9.25-3.62-18.51-4.59-27.9c-0.47-3.06-0.61-6.17-1.05-9.29c-0.1-2.91-0.41-5.81-0.84-8.69c-0.29-1.63,0-3.65-1.34-4.87
			c-1.3-1.11-3.16-0.27-4.55,0.26c-3.21,0.98-4.88,3.53-3.64,6.81c0.04,0.1,0.06,0.23,0.1,0.34c-0.03,0.8,0.17,1.62,0.26,2.41
			c0.76,7.49,1.84,14.95,3.08,22.37c0.28,2.15,0.59,4.3,0.95,6.43c-0.01,1.53,0.12,3.07,0.45,4.58c0.53,3.35,1.16,6.68,1.7,10.04
			c0.61,2.65,0.62,8.24,3.32,9.51c0.45,0.12,0.78,0.06,1.02-0.13c0.41,0.1,0.82,0.06,1.17-0.09c0.11,0.01,0.23,0.01,0.33,0.02
			c0.27,0.08,0.54,0.1,0.81,0.1c0.11,0.05,0.21,0.1,0.32,0.12c0.59,0.11,1.18-0.04,1.77-0.04c0.58-0.04,1.32,0.08,1.83-0.23
			c0.27-0.08,0.51-0.22,0.65-0.51c0.27-0.59,0.23-1.16,0.02-1.7C225.14,689.87,225.07,689.18,224.95,688.65z"/>
		<path class="st1" d="M370.73,645.95c-0.14-0.1-0.26-0.14-0.4-0.23c-0.93-1.21-2.21-1.81-3.87-1.32
			c-6.13-0.05-8.62,10.54-3.15,15.18c3.52,3.03,7.67,0.45,9.85-2.83C375.46,653.25,374.03,648.32,370.73,645.95z"/>
		<path class="st1" d="M364.07,632.55c0.3,0.19,0.66,0.28,1.03,0.3c0.87,0.32,1.66,0.18,2.3-0.28c1.47,0.17,3.08-0.61,3.05-2.29
			c-0.25-2.71-0.37-5.46-0.66-8.18c-0.53-4.76-0.36-9.57-0.82-14.34c-0.6-7.87-1.38-15.73-2.11-23.59
			c-0.17-0.87-0.23-1.81-0.28-2.77c0.36-1.38-0.12-3.71-0.11-4.65c-0.21-1.45,0-3.3-0.65-4.63c-0.04-1.48-1.22-3.02-2.78-2.21
			c0.08-0.04,0.16-0.08,0.24-0.11c0.06-0.02,0.12-0.03,0.17-0.05c-1.91,0.42-3.84,0.91-5.71,1.48c-0.67,0.18-1.31,0.34-1.79,1.05
			c-0.77,0.93-0.59,3.27,0.35,4.34c0.59,4.41,0.71,8.88,1.05,13.31c0.67,9.37,1.38,19.35,2.77,28.73c0.62,3.63,1.05,7.33,2.2,10.83
			C362.7,630.6,363.06,631.9,364.07,632.55z"/>
		<path class="st1" d="M346.23,592.09c-0.04-0.31-0.03-0.61-0.13-0.91c-0.19-0.64-0.59-1.08-1.06-1.42
			c-0.32-0.59-0.63-1.19-0.91-1.79c-0.47-0.61-1.28-0.38-1.88-0.11c-0.58,0.12-1.19,0.09-1.77,0.17c-0.73,0.16-1.82,0.2-2.58,0.56
			c-1.94,0.25-3.77,0.63-4.3,0.71c-1.86,0.37-3.94,1.15-5.81,1.69c-0.79,0.21-1.56,0.48-2.32,0.77c-2.04,0.58-3.85,1.12-5.1,1.43
			c-6.7,1.84-13.28,3.99-19.72,6.59c-3.82,1.61-8.29,2.99-12.31,4.91c-1.72,0.24-3.33,1.1-4.81,2.02c-0.22,0.17-0.47,0.34-0.71,0.52
			c-0.06-0.01-0.1-0.05-0.16-0.05c-2.91,0.66-0.79,7.17-0.07,9.05c0.54,0.99,1.85,1.24,2.62,0.42c1.75-0.02,3.36-0.92,5.01-1.48
			c1.21-0.39,2.53-0.99,3.74-1.74c1.45-0.47,2.89-0.95,4.32-1.38c1.5-0.5,2.99-1.06,4.48-1.59c2.12-0.76,4.25-1.5,6.42-2.14
			c0.66,2.67,1.3,5.34,2,7.99c2.52,9.65,5.29,19.24,8.64,28.64c1.73,4.72,3.2,9.64,5.8,13.97c0.87,1.1,2.56,1.92,3.93,1.25
			c7.44,0.86,2.37-13.44,1.5-17.25c-2.78-10.24-6.47-20.15-9.81-30.21c-0.72-2.26-1.39-4.7-2.03-7.13
			c5.8-1.53,11.61-3.01,17.42-4.49c1.87-0.46,3.86-0.89,5.51-1.87c3.24-0.85,5.79-2.55,4.69-5.54
			C346.68,593.13,346.47,592.6,346.23,592.09z"/>
		<path class="st1" d="M296.42,665.88c-3.46-1.6-7.18-2.78-10.78-4.04c-3.92-1.29-7.87-2.46-11.8-3.71
			c-5.76-1.71-11.48-3.99-17.53-4.42c6.91-6.56,26.75-27.4,18.49-36.06c-2.07-2-5.06-2.1-7.78-2c-3.21,0.1-6.33,0.75-9.35,1.72
			c-0.45,0.11-0.88,0.27-1.32,0.42c-0.27,0.1-0.54,0.2-0.81,0.31c-0.24,0.1-0.49,0.16-0.72,0.27c-0.38,0.15-0.75,0.34-1.12,0.5
			c-0.54,0.23-1.08,0.46-1.61,0.71c-1.31,0.62-2.61,1.25-3.91,1.9c-1.3,0.38-2.57,0.87-3.76,1.66c-1.78,1.24-10.51,5.04-13.05,8.23
			c-0.16-0.01-0.29-0.07-0.46-0.05c-2.55,0.53-1,2.79-0.77,4.41c3.02,10.48,5.25,21.33,8.14,31.89c1.4,5.63,2.9,11.24,5.04,16.64
			c0.66,1.71,1.17,3.55,2.35,4.99c0.26,0.33,0.7,0.45,1.13,0.44c0.33,0.29,0.7,0.51,1.13,0.63c1.17,0.43,2.42,0.4,3.64,0.24
			c0.99-0.15,2.2-0.03,2.99-0.75c1.74-1.89-1.08-8.68-1.54-11.23c-1.31-5.55-2.74-11.12-5.01-16.35c2.78-0.19,5.55-0.05,8.3,0.36
			c3.76,1.11,7.54,2.12,11.37,2.99c0.95,0.24,1.88,0.51,2.83,0.77c1.28,0.44,2.55,0.89,3.81,1.33c6.33,2.17,12.81,3.9,19.21,5.8
			c0.06,0.02,0.13,0.02,0.19,0.04c0.01,0.08-0.02,0.16,0,0.23c2.45,3.85,6.44-3.31,6.36-5.74
			C300.05,666.18,297.98,665.41,296.42,665.88z M263.9,622.88c1.39,0.34,2.72,0.85,3.97,1.51c0.46,1.3,0.56,2.77,0.36,4.06
			c-0.08,0.49-0.38,0.98-0.62,1.46c-3.28,5.82-8.79,11.11-13.21,15.49c-2.64,2.43-5.57,4.53-8.42,6.69c-0.41,0.28-0.8,0.67-1.2,1.03
			c-0.36-2.37-0.89-4.65-0.97-5.26c-1.05-4.13-1.44-8.46-3.01-12.43c-0.12-0.31-0.31-0.59-0.46-0.9
			C246.61,629.91,255.46,624.04,263.9,622.88z"/>
		<path class="st1" d="M248.08,690.4c-0.06-0.01-0.11-0.05-0.17-0.07c-0.02-0.01-0.04,0-0.05-0.01
			C247.86,690.32,248.08,690.4,248.08,690.4z"/>
		<path class="st1" d="M110.09,623.79c-0.05-0.01-0.1-0.02-0.15-0.03c-0.01,0-0.01,0-0.02,0
			C109.98,623.78,110.04,623.78,110.09,623.79z"/>
		<path class="st1" d="M59.67,578.41c-0.08,0.04-0.16,0.06-0.24,0.1c-1.43,0.72-4.13,2.29-4.68,4.04c-0.44,0.45-0.69,1.06-0.57,1.87
			c3.26,12.62,5.6,25.48,8.59,38.17c1.73,8,4.07,15.85,6.05,23.78c0.04,0.45,0.18,0.78,0.68,1.03c0.3,0.08,0.52,0.04,0.76,0.04
			c0.25,0.16,0.51,0.31,0.84,0.41c1.38,0.47,2.52-0.52,3.76-0.91c1.86-0.42,2.04-2.5,1.83-4.09c-0.13-1.51-0.37-3-0.56-4.51
			c0.01-0.43-0.03-0.87-0.15-1.28c-0.01-0.04-0.01-0.08-0.02-0.13c-0.26-1.87-0.58-3.73-0.93-5.58c-0.95-5.7-1.97-11.39-3.22-17.03
			c0.08,0,0.17,0.01,0.25,0c2.2,0.4,4.35,1.1,6.51,1.69c5.37,1.53,10.77,2.98,16.17,4.42c0.05,0,0.11,0,0.16,0.01c0,0,0,0,0,0
			c0.02,0,0.04,0.01,0.05,0.01c0.04,0.01,0.08,0.02,0.12,0.03c0.29,0.06,0.57,0.15,0.85,0.24c0.53,0.14,1.06,0.26,1.58,0.39
			c-0.02-0.01-0.03-0.01-0.05-0.02c0.12,0.03,0.24,0.06,0.36,0.09c1.07,0.25,2.15,0.51,3.23,0.77c1.23,0.3,2.48,0.55,3.72,0.83
			c-0.06-0.01-0.11-0.03-0.17-0.04c0.2,0.04,0.39,0.08,0.59,0.13c0.27,0.04,0.53,0.1,0.79,0.17c0.01,0,0.02,0,0.03,0.01
			c0.03,0.01,0.05,0.01,0.08,0.02c0.01,0,0.02,0,0.03,0.01c-0.01,0-0.02,0-0.03,0c0.05,0.01,0.1,0.02,0.16,0.03
			c0.01,0,0.03,0.01,0.04,0.01c-0.03-0.01-0.06-0.01-0.08-0.02c0.03,0.01,0.07,0.01,0.1,0.02c0.02,0,0.05,0.01,0.07,0.01
			c-0.06-0.01-0.11-0.02-0.17-0.03c0.84,0.17,1.69,0.33,2.54,0.49c-0.04-0.01-0.09-0.02-0.13-0.02c0.02,0,0.04,0.01,0.05,0.01
			c-0.02,0-0.04-0.01-0.05-0.01c0.44,0.07,0.88,0.16,1.32,0.23c0.04,0.01,0.08,0.01,0.11,0.02c0.01,0,0.02,0,0.03,0.01
			c-0.01,0-0.02,0-0.03-0.01c0.39,0.07,0.78,0.13,1.17,0.2c0.02,0,0.04,0.01,0.07,0.01c0.01,0,0.01,0,0.02,0c0,0-0.01,0-0.01,0
			c0.01,0,0.01,0,0.02,0c0,0,0.01,0,0.01,0c0,0,0,0-0.01,0c0,0,0,0,0,0c0,0,0.01,0,0.01,0c0,0,0.01,0,0.01,0c0,0,0.01,0,0.01,0
			c0,0,0,0,0,0c0.01,0,0.01,0,0.02,0c0,0,0,0,0,0c0.01,0,0.02,0,0.04,0.01c0,0,0.01,0,0.01,0c0,0,0,0,0,0c0.01,0,0.01,0,0.02,0
			c0.02,0,0.03,0.01,0.04,0.01c0.03,0,0.05,0.01,0.08,0.01c0,0,0.01,0,0.01,0c0,0,0,0,0,0c0,0,0,0,0,0c0,0,0,0,0,0c0,0,0,0,0,0
			c0.01,0,0.03,0,0.05,0.01c0.01,0,0.01,0,0.02,0c0.01,0,0.02,0,0.03,0c0.01,0,0.02,0,0.02,0c0.1,0.01,0.21,0.03,0.31,0.05
			c0.08,0.01,0.16,0.02,0.24,0.04c0.02,0,0.05,0.01,0.07,0.01c0,0,0.01,0,0.01,0c0,0,0,0,0,0c0.04,0.01,0.09,0.01,0.13,0.02
			c-0.01,0-0.02,0-0.03,0c0.03,0,0.06,0.01,0.08,0.01c0,0,0.01,0,0.01,0c-0.01,0-0.01,0-0.02,0c0.01,0,0.01,0,0.02,0c0,0,0,0,0,0
			c0.03,0.01,0.07,0.01,0.1,0.02c-0.04-0.01-0.07-0.01-0.11-0.02c0,0-0.01,0-0.01,0c-0.01,0-0.03,0-0.04-0.01
			c-0.03,0-0.06-0.01-0.09-0.01c0.03,0.01,0.07,0.01,0.1,0.02c0,0,0,0,0,0c0.01,0,0.02,0,0.02,0c0.05,0.01,0.09,0.01,0.13,0.02
			c-0.02,0-0.03-0.01-0.05-0.01c0.04,0.01,0.08,0.01,0.13,0.02c0,0,0,0,0,0c0.22,0.03,0.44,0.06,0.66,0.1
			c0.13,0.02,0.26,0.04,0.38,0.06c0.59,0.08,1.19,0.15,1.79,0.23c0,0,0,0,0,0c0.1,0.01,0.2,0.03,0.29,0.04c0,0,0,0,0,0
			c0.09,0.01,0.18,0.02,0.28,0.03c0.02,0.01,0.02,0.04,0.04,0.05c2.33,1.23,5.55,0.07,7.21-1.82c2.17-1.94,2.86-3.96,2.23-5.52
			c0.04-0.04,0.08-0.07,0.11-0.11c-0.07-0.04-0.15-0.06-0.22-0.09c-0.62-1.24-2.12-2.17-4.57-2.4c-2.03-0.41-4.09-0.64-6.15-0.86
			c-2.13-0.52-4.26-1.04-6.4-1.49c-2.22-0.59-4.45-1.17-6.69-1.71c-7.18-1.96-14.39-3.84-21.73-5.07c2.48-1.88,4.85-3.88,7.12-6.03
			c5.03-4.61,9.7-10.08,12.74-16.26c1.81-4.55,3.71-9.8,2.17-14.67c-1.27-3.94-5.2-6.7-9.29-6.85c-5.83-0.14-11.28,2.52-16.4,5.03
			c-4.27,2.12-8.16,4.89-11.53,8.26C62.9,576.02,61.17,577.08,59.67,578.41z M92.82,571.88c0.11,0.38,0.22,0.75,0.35,1.12
			c-0.03,0.79-0.08,1.54-0.16,2.41c0.06,8.97-6.35,14.6-12.93,19.65c-2.24,1.77-4.58,3.42-6.91,5.08c-1.31,0.94-2.75,1.78-4,2.8
			c-0.81-3.38-1.61-6.76-2.32-10.15c-0.52-1.88-0.88-4.2-1.39-6.49c2.13-2.78,4.81-5.09,7.54-7.26
			C77.71,575.3,88.96,567.96,92.82,571.88z M112.48,624.18C112.48,624.18,112.48,624.18,112.48,624.18c0.01,0,0.02,0,0.03,0
			c0,0,0,0,0,0C112.5,624.18,112.49,624.18,112.48,624.18z"/>
		<path class="st1" d="M30.61,667.87C30.61,667.88,30.62,667.88,30.61,667.87C30.62,667.88,30.61,667.87,30.61,667.87
			C30.61,667.87,30.61,667.87,30.61,667.87C30.61,667.87,30.61,667.87,30.61,667.87z"/>
		<path class="st1" d="M30.61,667.87c-0.02-0.03-0.04-0.06-0.06-0.09c-0.05-0.04-0.1-0.07-0.15-0.11
			C30.47,667.73,30.54,667.8,30.61,667.87z"/>
		<path class="st1" d="M30.61,667.88C30.61,667.88,30.61,667.87,30.61,667.88c-0.01-0.01-0.02-0.02-0.02-0.02
			C30.6,667.86,30.6,667.87,30.61,667.88z"/>
		<path class="st1" d="M474.55,700.33C474.55,700.33,474.55,700.33,474.55,700.33c0.06,0,0.11-0.01,0.17-0.01
			c0.04-0.03,0.08-0.06,0.12-0.1C474.74,700.25,474.64,700.29,474.55,700.33z"/>
		<polygon class="st1" points="400.77,695.7 400.77,695.7 400.77,695.7 		"/>
	</g>
</g>
</svg>
