<?xml version="1.0" encoding="utf-8"?>
<!-- Generator: Adobe Illustrator 24.1.2, SVG Export Plug-In . SVG Version: 6.00 Build 0)  -->
<svg version="1.1" id="Слой_1" xmlns="http://www.w3.org/2000/svg" xmlns:xlink="http://www.w3.org/1999/xlink" x="0px" y="0px"
	 viewBox="0 0 1080 480" style="enable-background:new 0 0 1080 480;" xml:space="preserve">
<style type="text/css">
	.st0{fill:none;}
	.st1{fill:#FFFFFF;}
	.st2{fill:#F9C41C;}
	.st3{fill:url(#SVGID_1_);}
	.st4{fill:#A0000C;}
	.st5{fill:url(#SVGID_2_);}
	.st6{fill:url(#SVGID_3_);}
	.st7{fill:#FFD984;}
	.st8{fill:#9D9D9C;}
	.st9{fill:#0A1833;}
	.st10{fill:#0092D9;}
	.st11{fill:url(#SVGID_4_);}
	.st12{fill:url(#SVGID_5_);}
	.st13{fill:url(#SVGID_6_);}
	.st14{fill:url(#SVGID_7_);}
	.st15{fill:url(#SVGID_8_);}
	.st16{fill:url(#SVGID_9_);}
	.st17{fill:#400000;}
	.st18{fill:url(#SVGID_10_);}
	.st19{fill:url(#SVGID_11_);}
	.st20{fill:url(#SVGID_12_);}
	.st21{fill:url(#SVGID_13_);}
	.st22{fill:url(#SVGID_14_);}
	.st23{fill:url(#SVGID_15_);}
	.st24{fill:url(#SVGID_16_);}
	.st25{fill:url(#SVGID_17_);}
	.st26{fill:url(#SVGID_18_);}
	.st27{fill:url(#SVGID_19_);}
	.st28{fill:url(#SVGID_20_);}
	.st29{fill:url(#SVGID_21_);}
	.st30{fill:url(#SVGID_22_);}
	.st31{fill-rule:evenodd;clip-rule:evenodd;fill:#1D90CF;}
	.st32{fill-rule:evenodd;clip-rule:evenodd;fill:#0B1832;}
	.st33{fill-rule:evenodd;clip-rule:evenodd;fill:url(#SVGID_23_);}
	.st34{fill-rule:evenodd;clip-rule:evenodd;fill:#ECECEC;}
	.st35{fill-rule:evenodd;clip-rule:evenodd;fill:url(#SVGID_24_);}
	.st36{fill-rule:evenodd;clip-rule:evenodd;fill:#FFD883;}
	.st37{fill-rule:evenodd;clip-rule:evenodd;fill:#FFFFFF;}
	.st38{fill-rule:evenodd;clip-rule:evenodd;fill:#FDD925;}
</style>
<path class="st0" d="M1602.7,1173.5c-155.2,0.2-297.1,57.1-406.1,151.1c-29.8,25.7-70.8,33.7-108.3,21.6
	c-42.9-13.9-88.7-21.3-136.3-20.9c-236.2,2-426,193.4-426,429.7c0,237.3,192.4,429.7,429.7,429.7c49.7,0,97.5-8.5,141.9-24
	c113.2,157,297.6,259.2,505.9,259.2c344.2,0,623.2-279,623.2-623.2C2226.8,1452.5,1947,1173.1,1602.7,1173.5z"/>
<path class="st1" d="M3644.5,399.7"/>
<path class="st2" d="M3798.7,285.3c0.1-344.2-279.7-623.6-624-623.2c-155.2,0.2-297.1,57.1-406.1,151.1
	c-29.8,25.7-70.8,33.7-108.3,21.6c-42.9-13.9-88.7-21.3-136.3-20.9c-236.2,2-426,193.4-426,429.7c0,14.1,0.7,28,2,41.7H3798.7z"/>
<path class="st2" d="M1080.3-137.3c0.1-218.6-177.6-396-396.3-395.8c-98.6,0.1-188.7,36.3-257.9,96c-18.9,16.3-45,21.4-68.8,13.7
	c-27.2-8.8-56.3-13.5-86.6-13.3C120.8-435.4,0.3-313.8,0.3-163.8c0,9,0.4,17.8,1.3,26.5H1080.3z"/>
<g>
	<g>
		<g>
			<path class="st1" d="M3347-84.5c6.6-8.2,20.6-21,38.5-20.3c14.7,0.6,18.6,6.9,26.4,6.2c11-1,16.3-31.3,42.6-8.7
				c15,12.9,17-14.1,30.5-24.8c20.6-16.3,37.5,20.1,46,47.6L3347-84.5L3347-84.5z"/>
			
				<linearGradient id="SVGID_1_" gradientUnits="userSpaceOnUse" x1="2107.8718" y1="17.3073" x2="3737.8718" y2="17.3073" gradientTransform="matrix(1 0 0 -1 0 179.0192)">
				<stop  offset="0" style="stop-color:#EF800A"/>
				<stop  offset="1" style="stop-color:#DD400B"/>
			</linearGradient>
			<path class="st3" d="M3297.6,158.8c-49.8,22.9-98.6,10.3-160.6-31.1c-182.8-121.9-312.2-105.3-482.6,4.7
				c-36.3,23.4-61.4,51.9-193.1,34.7c-148.1-19.3-299.4,22.2-353.4,113.4h1630C3691.5,192.3,3518,57.2,3297.6,158.8z"/>
			<path class="st1" d="M2609.4-84.5c25.8-38.1,56.3-3.5,73.2-21.7c36.1-39.1,47.5-31.8,63.4-19.6c31.2,23.9,23.6-39.1,46.5-45
				c17.9-4.7,27.5,37.4,42.6,47.3c19.4,12.8,23.3-25.9,40.8-19.1c13.4,5.3,25.2,46.5,30.9,58h-297.4V-84.5z"/>
			<path class="st1" d="M2936.3-84.5c1-9,14.9-39.6,45-19.4c16.1,10.8,14.6-12.5,26.6-21.2c10.7-7.7,29.5,17.2,41,40.5h-112.6V-84.5
				z"/>
			<path class="st1" d="M3059.4-84.5c1.2-8.9,7.6-18.1,18.1-18.1s22.2,9.1,28.4,18.1H3059.4z"/>
			<path class="st4" d="M2293.7,280.5c7-12.5,42.2-37,86.9-30.3c48.8,7.2,59.5-8.6,79.6-15.1c36.8-12,65.2,27.7,77.9,2.5
				c16.2-32.2,42.6-48.1,123-16.4c19.1,7.5,17.8-9.1,26.5-18.9c16.9-18.9,37.3,16,46.7,14.1c10.6-2.2,7.4-17,13.6-29.7
				c13-26.5,35.4-1.6,50.9-3.8c15.4-2.2,23.6-31.3,41.1-25.4c37.2,12.6,25.5,86.5,23.2,103c10.6-14.1,29.2-24.4,29.2,20.1
				L2293.7,280.5L2293.7,280.5z"/>
			<g>
				
					<linearGradient id="SVGID_2_" gradientUnits="userSpaceOnUse" x1="2470.4932" y1="-57.3016" x2="2741.9988" y2="-94.1376" gradientTransform="matrix(1 0 0 -1 0 179.0192)">
					<stop  offset="0" style="stop-color:#F9C41C"/>
					<stop  offset="1" style="stop-color:#D80F1F"/>
				</linearGradient>
				<path class="st5" d="M2471.6,280.5h182.3c9.5-37.6-27.7-18.8-27.7-18.8s14-39.5-0.3-35.4c-13.9,4-20,34.7-20,34.7
					s-7.5-50.3-23.9-53.6c-10.6-2.1-2.3,47.8-2.3,47.8s-6.3-5.3-15.3-5.5c-7.6-0.1-5.8,9.6-5.8,9.6s-15.8-32.4-24.1-32
					c-10.3,0.5,0.7,34.6,0.7,34.6s-20.4-22.1-28.4-21.6c-11.2,0.8,8.3,32.4,8.3,32.4s-14.8-8.9-32.4-7.4
					C2470.2,266.6,2465.3,271.7,2471.6,280.5z"/>
			</g>
			
				<linearGradient id="SVGID_3_" gradientUnits="userSpaceOnUse" x1="3317.3359" y1="-37.3904" x2="3317.3359" y2="295.4435" gradientTransform="matrix(1 0 0 -1 0 179.0192)">
				<stop  offset="0" style="stop-color:#A0000C"/>
				<stop  offset="1" style="stop-color:#D80F1F"/>
			</linearGradient>
			<path class="st6" d="M3368.4,74.3c-2.4,78.2-35.4,142.1-57,142.1c-21.6,0-47.6-85.4-45.2-163.6c2.4-78.2,38.8-128.6,63.7-119.6
				C3357.9-56.6,3370.8-3.9,3368.4,74.3z"/>
			<g>
				<polygon class="st7" points="3037.4,280.5 3215.7,280.5 3215.7,114 3126.5,-15.6 3037.4,114 				"/>
				<rect x="3068.8" y="144.4" class="st1" width="173" height="136.1"/>
				<rect x="3241.8" y="144.5" class="st7" width="178.3" height="136.1"/>
				<rect x="3095" y="175.1" class="st8" width="120.7" height="105.4"/>
				<rect x="3094.9" y="175.1" class="st7" width="8.1" height="105.4"/>
				<rect x="3110.7" y="55.2" class="st9" width="31.7" height="58.8"/>
				<rect x="3134.1" y="55.2" class="st1" width="8.2" height="58.8"/>
				<g>
					<rect x="3103.1" y="175.1" class="st9" width="112.6" height="2.3"/>
					<rect x="3103.1" y="183.7" class="st9" width="112.6" height="2.3"/>
					<rect x="3103.1" y="192.3" class="st9" width="112.6" height="2.3"/>
					<rect x="3103.1" y="200.9" class="st9" width="112.6" height="2.3"/>
					<rect x="3103.1" y="209.5" class="st9" width="112.6" height="2.3"/>
					<rect x="3103.1" y="218.1" class="st9" width="112.6" height="2.3"/>
					<rect x="3103.1" y="226.7" class="st9" width="112.6" height="2.3"/>
					<rect x="3103.1" y="235.2" class="st9" width="112.6" height="2.3"/>
					<rect x="3103.1" y="243.8" class="st9" width="112.6" height="2.3"/>
					<rect x="3103.1" y="252.4" class="st9" width="112.6" height="2.3"/>
					<rect x="3103.1" y="261" class="st9" width="112.6" height="2.3"/>
					<rect x="3103.1" y="269.6" class="st9" width="112.6" height="2.3"/>
					<rect x="3103.1" y="278.2" class="st9" width="112.6" height="2.3"/>
				</g>
				<polygon class="st4" points="2932.5,-15.6 3126.5,-15.6 3037.4,114 2843.4,114 				"/>
				<polygon class="st1" points="2970,114 2970,35.2 2910.8,35.2 2910.8,114 2843.4,114 2843.4,280.5 3037.4,280.5 3037.4,114 				
					"/>
				<rect x="2922.9" y="57.2" class="st9" width="35" height="56.8"/>
				<rect x="2922.9" y="57.2" class="st7" width="8.2" height="56.8"/>
				<rect x="2892.3" y="144.4" class="st9" width="35" height="105.4"/>
				<rect x="2892.3" y="144.5" class="st7" width="8.1" height="105.4"/>
				<rect x="2953.4" y="144.5" class="st9" width="35" height="136.1"/>
				<rect x="2953.4" y="144.5" class="st7" width="8.1" height="136.1"/>
				<polygon class="st7" points="2970,35.2 3024.2,35.2 2970,114 				"/>
				<rect x="2908.3" y="161.7" class="st10" width="19.1" height="88.1"/>
				<rect x="2969.4" y="161.7" class="st10" width="19.1" height="118.8"/>
				<rect x="2900.4" y="175.1" class="st1" width="26.9" height="4.6"/>
				<rect x="2961.6" y="175.1" class="st1" width="26.9" height="4.6"/>
				<rect x="2938.8" y="74.5" class="st10" width="19.1" height="39.5"/>
				<rect x="3118.4" y="72.5" class="st10" width="15.7" height="41.5"/>
			</g>
			<path class="st4" d="M3602.1,280.5c-5.9-17.2-35.2-51-72.5-41.8c-40.7,10-49.6-11.8-66.4-20.9c-30.7-16.6-45.8,24.6-65,3.4
				c-26.8-29.6-48.5-32.6-65.8-5.3c-24.9,39.2-65.7-4.2-74.8,64.6H3602.1z"/>
			<g>
				<path class="st2" d="M2454.3,280.5c-3.6-3.8-9.8-6.4-15.4-6.9c-5.8-0.5-9.7,3.3-8,6.9H2454.3z"/>
			</g>
			
				<linearGradient id="SVGID_4_" gradientUnits="userSpaceOnUse" x1="2266.1719" y1="-180.8404" x2="3642.272" y2="-180.8404" gradientTransform="matrix(1 0 0 -1 0 179.0192)">
				<stop  offset="0" style="stop-color:#FFD984"/>
				<stop  offset="1" style="stop-color:#D80F1F"/>
			</linearGradient>
			<path class="st11" d="M3642.3,430.9v8.3H2386.8c-71.1,0-120.6-19.6-120.6-43.8s49.5-43.8,120.6-43.8l0,0c0,0,343.9,0,387.1,0
				c128.9,0,189.8-71.1,329.2-71.1h112.6c-174.2,0-164.7,79.3-373.3,79.3H2442c-30.5,0-47.1,15.9-47.1,35.5s16.6,35.5,47.1,35.5
				L3642.3,430.9L3642.3,430.9z"/>
			<g>
				<g>
					<polygon class="st1" points="2773.3,280.5 2770.1,280.5 2770.1,246.4 2775.2,246.4 					"/>
					<polygon class="st1" points="2792.3,280.5 2789.3,280.5 2783.9,246.4 2788.9,246.4 					"/>
					<polygon class="st1" points="2792.4,217.1 2789.7,217.1 2783.9,246.4 2788.9,246.4 					"/>
					<rect x="2770.1" y="246.4" class="st1" width="18.8" height="6.3"/>
				</g>
				<rect x="2779.7" y="246.4" class="st1" width="13.8" height="6.3"/>
				<g>
					<polygon class="st1" points="2692.2,280.5 2689,280.5 2689,246.4 2694,246.4 					"/>
					<polygon class="st1" points="2711.2,280.5 2708.2,280.5 2702.8,246.4 2707.8,246.4 					"/>
					<polygon class="st1" points="2711.3,217.1 2708.6,217.1 2702.8,246.4 2707.8,246.4 					"/>
					<rect x="2689" y="246.4" class="st1" width="18.8" height="6.3"/>
				</g>
				<rect x="2682.1" y="246.4" class="st1" width="97.6" height="6.3"/>
				<g>
					<polygon class="st1" points="2698.9,223.5 2796.6,223.5 2797.7,217.1 2700.1,217.1 					"/>
					<polygon class="st1" points="2697.2,233.2 2794.8,233.2 2796,226.9 2698.3,226.9 					"/>
				</g>
			</g>
			<g>
				<g>
					
						<linearGradient id="SVGID_5_" gradientUnits="userSpaceOnUse" x1="3532.2251" y1="-71.8403" x2="3252.8921" y2="-107.1738" gradientTransform="matrix(1 0 0 -1 0 179.0192)">
						<stop  offset="0" style="stop-color:#F9C41C"/>
						<stop  offset="1" style="stop-color:#D80F1F"/>
					</linearGradient>
					<path class="st12" d="M3352.3,265.4c-3.1,0.7-3.9,6.9-3.6,15.1h14.2C3359.3,271.3,3355.5,264.6,3352.3,265.4z"/>
				</g>
				<g>
					
						<linearGradient id="SVGID_6_" gradientUnits="userSpaceOnUse" x1="3532.2788" y1="-72.2682" x2="3252.9465" y2="-107.6015" gradientTransform="matrix(1 0 0 -1 0 179.0192)">
						<stop  offset="0" style="stop-color:#F9C41C"/>
						<stop  offset="1" style="stop-color:#D80F1F"/>
					</linearGradient>
					<path class="st13" d="M3317.3,280.5h22.9c-5.4-3.5-11.1-7.1-16.1-7.6C3318.9,272.4,3317.9,276.4,3317.3,280.5z"/>
				</g>
				<g>
					
						<linearGradient id="SVGID_7_" gradientUnits="userSpaceOnUse" x1="3530.4373" y1="-57.7096" x2="3251.1038" y2="-93.0432" gradientTransform="matrix(1 0 0 -1 0 179.0192)">
						<stop  offset="0" style="stop-color:#F9C41C"/>
						<stop  offset="1" style="stop-color:#D80F1F"/>
					</linearGradient>
					<path class="st14" d="M3511.4,264.7c-17.8,2.7-28.2,6.9-28.2,6.9s15.5-18.7,0.9-16.8c-7.5,1-14.6,7.7-14.6,7.7s6.7-20.6-3-21.1
						c-7.7-0.4-19.4,19.9-19.4,19.9s3.8-9.1-5.6-8.7c-8.4,0.3-13.1,5-13.1,5s11.1-52.8,1.5-49.6c-10.5,3.4-27.5,54.1-27.5,54.1
						s-1.1-32-9.1-30.7c-8.4,1.3-12.2,33.4-12.2,33.4s-11.6-28.2-12.4,15.7h143.7C3525.2,272,3528.8,262,3511.4,264.7z"/>
				</g>
			</g>
			<rect x="3103.1" y="243.8" class="st9" width="112.6" height="36.7"/>
		</g>
		<g>
			
				<linearGradient id="SVGID_8_" gradientUnits="userSpaceOnUse" x1="3408.3015" y1="-5.9091" x2="3408.3015" y2="194.2892" gradientTransform="matrix(1 0 0 -1 0 180.0192)">
				<stop  offset="0" style="stop-color:#A0000C"/>
				<stop  offset="1" style="stop-color:#D80F1F"/>
			</linearGradient>
			<path class="st15" d="M3492.7,35c0.4-26.1-22.8-34.3-45.4-27.1c-17.1,5.5-18.4,7.9-61.6-16.7c-12.1-6.9-34.5-9-44.6,4
				c-5.9,7.6-7.4,18.8-5.8,28c1.6,8.9,8.2,21.8,0.9,29.8c-6.9,7.6-19,5.2-27.4,10c-8.6,4.9-11.9,14.8-12.1,24.2
				c-0.5,21.8,7.8,46.1,22.5,62c29.6,31.9,81.5,44.3,129.5,32.1c105.8-26.9,66-83.8,53.6-98.9C3488.8,66.2,3492.4,53,3492.7,35z"/>
			
				<linearGradient id="SVGID_9_" gradientUnits="userSpaceOnUse" x1="3373.2175" y1="194.2892" x2="3373.2175" y2="17.1589" gradientTransform="matrix(1 0 0 -1 0 180.0192)">
				<stop  offset="3.968250e-03" style="stop-color:#EF800A"/>
				<stop  offset="1" style="stop-color:#D80F1F"/>
			</linearGradient>
			<path class="st16" d="M3448.6,7.5c-0.4,0.1-0.9,0.3-1.3,0.4c-17.1,5.5-18.4,7.9-61.6-16.7c-12.1-6.9-34.6-9-44.6,4
				c-5.9,7.6-7.4,18.8-5.8,28c1.6,8.9,8.2,21.8,0.9,29.8c-6.9,7.6-19,5.2-27.4,10c-8.6,4.9-11.9,14.8-12.1,24.1
				c-0.5,21.8,8.7,45.3,22.5,62c1.8,2.2,3.7,4.3,5.7,6.3c47.4,28.8-1.9-33.4,37.2-59.1c19.3-12.7,56.7-26.1,40.4-46.3
				c-11.9-14.8-20.9-20.6-17.3-28.7c2-4.5,7.8-8.7,26.2-5.4C3436.4,20.6,3454.8,11.7,3448.6,7.5z"/>
			<polygon class="st17" points="3407.7,280.5 3419.3,280.5 3418.3,210.2 3422.7,95.1 3418.4,91.8 3411.7,205.8 3392.3,135.1 
				3389.1,138.4 3408.3,216.4 			"/>
			<polygon class="st17" points="3437.4,110.9 3419.2,138 3419,143 3439.1,112.1 			"/>
			<polygon class="st17" points="3409.9,101.1 3417.9,117.2 3417.8,120.7 3408.7,101.6 			"/>
			<polygon class="st17" points="3380.5,144.3 3393.9,156.2 3395,159.3 3379.4,145.1 			"/>
		</g>
		
			<linearGradient id="SVGID_10_" gradientUnits="userSpaceOnUse" x1="2591.8955" y1="-4.3327" x2="2591.8955" y2="194.2892" gradientTransform="matrix(1 0 0 -1 0 180.0192)">
			<stop  offset="0" style="stop-color:#A0000C"/>
			<stop  offset="1" style="stop-color:#D80F1F"/>
		</linearGradient>
		<path class="st18" d="M2689.3,51.8c-4.3-7-13.1-13.6-24.2-15.3c-18.5-2.7-12.2-23.2-28.2-28.6c-17-5.7-18.4,7.9-61.8-16.7
			c-12.1-6.9-34.6-9-44.6,4c-5.8,7.6-7.3,18.8-5.6,28c1.7,8.9,8.3,21.8,1.1,29.8c-6.9,7.6-19,5.2-27.4,10
			c-8.5,4.9-11.8,14.8-11.9,24.2c-0.3,21.8,9.1,45.3,22.9,62c28.9,34.7,80.9,43,122,28c24.3-8.8,43.3-26.8,54.4-50.1
			C2696.6,105,2703.1,74,2689.3,51.8z"/>
	</g>
	
		<linearGradient id="SVGID_11_" gradientUnits="userSpaceOnUse" x1="2557.2825" y1="151.5807" x2="2557.2825" y2="7.046" gradientTransform="matrix(1 0 0 -1 0 180.0192)">
		<stop  offset="3.968250e-03" style="stop-color:#EF800A"/>
		<stop  offset="1" style="stop-color:#D80F1F"/>
	</linearGradient>
	<path class="st19" d="M2624.9,6.4c-9.2,0.4-18.7,2.5-49.8-15.2c-12.1-6.9-34.6-9-44.6,4c-5.8,7.6-7.3,18.8-5.6,28
		c1.6,8.9,8.3,21.8,1.1,29.8c-6.9,7.6-19,5.2-27.4,10c-8.5,4.9-11.8,14.8-11.9,24.1c-0.3,21.8,9.1,45.3,22.9,62
		c1.3,1.6,2.7,3.1,4.1,4.6c52.2,28.4,14.4-58.1,31.8-73.9c11-9.9,32.6,4.1,42.4-2.8c4.9-3.5,4.5-10.4,0.7-15.6
		c-11.7-16.2-30.6-33.4-21.3-43.2c5-5.2,14.9-2.4,33.6-2.3C2622.6,16.1,2633.7,10.5,2624.9,6.4z"/>
	<polygon class="st17" points="2602.5,280.5 2590.9,280.5 2590.4,210.2 2573.5,102 2576.9,98.2 2596.8,204 2609.8,134.8 
		2613.6,138.8 2601,217.9 	"/>
	<polygon class="st17" points="2632.4,126.8 2607.4,163.6 2607.4,160.5 2630.9,125.3 	"/>
	<polygon class="st17" points="2582.7,153.1 2557.8,127.5 2558.8,126 2582.7,149.5 	"/>
	<polygon class="st17" points="2588.8,95.8 2582.6,130.4 2581.2,127 2587.4,95.4 	"/>
</g>
<g>
	<g>
		<g>
			<path class="st1" d="M672,201.9c3.5-4.4,10.9-11.2,20.4-10.8c7.8,0.3,9.8,3.7,14,3.3c5.8-0.5,8.6-16.6,22.6-4.6
				c7.9,6.8,9-7.5,16.2-13.2c10.9-8.7,19.9,10.7,24.4,25.3L672,201.9L672,201.9z"/>
			
				<linearGradient id="SVGID_12_" gradientUnits="userSpaceOnUse" x1="15.8228" y1="-153.6318" x2="879.0193" y2="-153.6318" gradientTransform="matrix(1 0 0 -1 0 179.0192)">
				<stop  offset="0" style="stop-color:#EF800A"/>
				<stop  offset="1" style="stop-color:#DD400B"/>
			</linearGradient>
			<path class="st20" d="M645.9,331.1c-26.4,12.2-52.2,5.5-85-16.5c-96.8-64.7-165.3-55.9-255.6,2.5
				c-19.2,12.4-32.5,27.6-102.3,18.4c-78.4-10.2-158.6,11.8-187.1,60.2H879C854.4,348.9,762.6,277.2,645.9,331.1z"/>
			<path class="st1" d="M281.4,201.9c13.7-20.2,29.8-1.9,38.8-11.5c19.1-20.8,25.2-16.9,33.6-10.4c16.5,12.7,12.5-20.8,24.6-23.9
				c9.5-2.5,14.6,19.9,22.6,25.1c10.3,6.8,12.3-13.8,21.6-10.1c7.1,2.8,13.3,24.7,16.4,30.8L281.4,201.9L281.4,201.9z"/>
			<path class="st1" d="M454.5,201.9c0.5-4.8,7.9-21,23.8-10.3c8.5,5.7,7.7-6.6,14.1-11.3c5.7-4.1,15.6,9.1,21.7,21.5L454.5,201.9
				L454.5,201.9z"/>
			<path class="st1" d="M519.7,201.9c0.6-4.7,4-9.6,9.6-9.6c5.6,0,11.8,4.8,15,9.6H519.7z"/>
			<path class="st4" d="M114.2,395.7c3.7-6.6,22.3-19.6,46-16.1c25.8,3.8,31.5-4.6,42.2-8c19.5-6.4,34.5,14.7,41.3,1.3
				c8.6-17.1,22.6-25.5,65.1-8.7c10.1,4,9.4-4.8,14-10c8.9-10,19.8,8.5,24.7,7.5c5.6-1.2,3.9-9,7.2-15.8c6.9-14.1,18.7-0.8,27-2
				c8.2-1.2,12.5-16.6,21.8-13.5c19.7,6.7,13.5,45.9,12.3,54.7c5.6-7.5,15.5-13,15.5,10.7L114.2,395.7L114.2,395.7z"/>
			<g>
				
					<linearGradient id="SVGID_13_" gradientUnits="userSpaceOnUse" x1="207.8611" y1="-193.2601" x2="351.6422" y2="-212.7674" gradientTransform="matrix(1 0 0 -1 0 179.0192)">
					<stop  offset="0" style="stop-color:#F9C41C"/>
					<stop  offset="1" style="stop-color:#D80F1F"/>
				</linearGradient>
				<path class="st21" d="M208.4,395.7H305c5-20-14.7-10-14.7-10s7.4-21-0.2-18.8c-7.4,2.1-10.6,18.4-10.6,18.4s-4-26.7-12.7-28.5
					c-5.6-1.1-1.2,25.4-1.2,25.4s-3.3-2.8-8.1-2.9c-4-0.1-3.1,5.1-3.1,5.1s-8.4-17.2-12.8-17c-5.5,0.3,0.4,18.4,0.4,18.4
					s-10.8-11.7-15-11.5c-5.9,0.4,4.4,17.2,4.4,17.2s-7.8-4.7-17.2-3.9C207.7,388.4,205.1,391.1,208.4,395.7z"/>
			</g>
			
				<linearGradient id="SVGID_14_" gradientUnits="userSpaceOnUse" x1="656.3167" y1="-182.6758" x2="656.3167" y2="-5.9437" gradientTransform="matrix(1 0 0 -1 0 179.0192)">
				<stop  offset="0" style="stop-color:#A0000C"/>
				<stop  offset="1" style="stop-color:#D80F1F"/>
			</linearGradient>
			<path class="st22" d="M683.3,286.2c-1.3,41.5-18.7,75.5-30.2,75.5s-25.2-45.3-23.9-86.9s20.5-68.3,33.7-63.5
				C677.8,216.7,684.6,244.7,683.3,286.2z"/>
			<g>
				<polygon class="st7" points="508.1,395.7 602.5,395.7 602.5,307.3 555.2,238.5 508.1,307.3 				"/>
				<rect x="524.7" y="323.5" class="st1" width="91.6" height="72.3"/>
				<rect x="616.3" y="323.5" class="st7" width="94.4" height="72.3"/>
				<rect x="538.6" y="339.8" class="st8" width="63.9" height="56"/>
				<rect x="538.5" y="339.8" class="st7" width="4.3" height="56"/>
				<rect x="546.9" y="276.1" class="st9" width="16.8" height="31.2"/>
				<rect x="559.3" y="276.1" class="st1" width="4.3" height="31.2"/>
				<g>
					<rect x="542.8" y="339.8" class="st9" width="59.6" height="1.2"/>
					<rect x="542.8" y="344.3" class="st9" width="59.6" height="1.2"/>
					<rect x="542.8" y="348.9" class="st9" width="59.6" height="1.2"/>
					<rect x="542.8" y="353.5" class="st9" width="59.6" height="1.2"/>
					<rect x="542.8" y="358" class="st9" width="59.6" height="1.2"/>
					<rect x="542.8" y="362.6" class="st9" width="59.6" height="1.2"/>
					<rect x="542.8" y="367.2" class="st9" width="59.6" height="1.2"/>
					<rect x="542.8" y="371.7" class="st9" width="59.6" height="1.2"/>
					<rect x="542.8" y="376.2" class="st9" width="59.6" height="1.2"/>
					<rect x="542.8" y="380.8" class="st9" width="59.6" height="1.2"/>
					<rect x="542.8" y="385.4" class="st9" width="59.6" height="1.2"/>
					<rect x="542.8" y="389.9" class="st9" width="59.6" height="1.2"/>
					<rect x="542.8" y="394.5" class="st9" width="59.6" height="1.2"/>
				</g>
				<polygon class="st4" points="452.5,238.5 555.2,238.5 508.1,307.3 405.3,307.3 				"/>
				<polygon class="st1" points="472.4,307.3 472.4,265.5 441,265.5 441,307.3 405.3,307.3 405.3,395.7 508.1,395.7 508.1,307.3 
									"/>
				<rect x="447.4" y="277.1" class="st9" width="18.5" height="30.2"/>
				<rect x="447.4" y="277.1" class="st7" width="4.3" height="30.2"/>
				<rect x="431.2" y="323.5" class="st9" width="18.5" height="56"/>
				<rect x="431.2" y="323.5" class="st7" width="4.3" height="56"/>
				<rect x="463.6" y="323.5" class="st9" width="18.5" height="72.3"/>
				<rect x="463.6" y="323.5" class="st7" width="4.3" height="72.3"/>
				<polygon class="st7" points="472.4,265.5 501.1,265.5 472.4,307.3 				"/>
				<rect x="439.7" y="332.6" class="st10" width="10.1" height="46.8"/>
				<rect x="472" y="332.6" class="st10" width="10.1" height="63.1"/>
				<rect x="435.5" y="339.8" class="st1" width="14.2" height="2.4"/>
				<rect x="467.9" y="339.8" class="st1" width="14.2" height="2.4"/>
				<rect x="455.8" y="286.3" class="st10" width="10.1" height="21"/>
				<rect x="551" y="285.3" class="st10" width="8.3" height="22"/>
			</g>
			<path class="st4" d="M807.1,395.7c-3.1-9.1-18.6-27.1-38.4-22.2c-21.6,5.3-26.3-6.3-35.2-11.1c-16.3-8.8-24.3,13.1-34.4,1.8
				c-14.2-15.7-25.7-17.3-34.8-2.8c-13.2,20.8-34.8-2.2-39.6,34.3H807.1z"/>
			<g>
				<path class="st2" d="M199.3,395.7c-1.9-2-5.2-3.4-8.2-3.7c-3.1-0.3-5.1,1.8-4.2,3.7H199.3z"/>
			</g>
			
				<linearGradient id="SVGID_15_" gradientUnits="userSpaceOnUse" x1="99.6534" y1="-258.8466" x2="828.3926" y2="-258.8466" gradientTransform="matrix(1 0 0 -1 0 179.0192)">
				<stop  offset="0" style="stop-color:#FFD984"/>
				<stop  offset="1" style="stop-color:#D80F1F"/>
			</linearGradient>
			<path class="st23" d="M828.4,475.6v4.4H163.5c-37.7,0-63.9-10.4-63.9-23.3s26.2-23.3,63.9-23.3l0,0c0,0,182.1,0,205,0
				c68.3,0,100.5-37.8,174.3-37.8h59.6c-92.3,0-87.2,42.1-197.7,42.1h-212c-16.2,0-24.9,8.4-24.9,18.9c0,10.4,8.8,18.9,24.9,18.9
				L828.4,475.6L828.4,475.6z"/>
			<g>
				<g>
					<polygon class="st1" points="368.2,395.7 366.5,395.7 366.5,377.6 369.2,377.6 					"/>
					<polygon class="st1" points="378.3,395.7 376.7,395.7 373.8,377.6 376.5,377.6 					"/>
					<polygon class="st1" points="378.3,362.1 376.9,362.1 373.8,377.6 376.5,377.6 					"/>
					<rect x="366.5" y="377.6" class="st1" width="10" height="3.3"/>
				</g>
				<rect x="371.6" y="377.6" class="st1" width="7.3" height="3.3"/>
				<g>
					<polygon class="st1" points="325.2,395.7 323.6,395.7 323.6,377.6 326.2,377.6 					"/>
					<polygon class="st1" points="335.3,395.7 333.7,395.7 330.9,377.6 333.5,377.6 					"/>
					<polygon class="st1" points="335.4,362.1 333.9,362.1 330.9,377.6 333.5,377.6 					"/>
					<rect x="323.6" y="377.6" class="st1" width="10" height="3.3"/>
				</g>
				<rect x="319.9" y="377.6" class="st1" width="51.7" height="3.3"/>
				<g>
					<polygon class="st1" points="328.8,365.5 380.5,365.5 381.1,362.1 329.4,362.1 					"/>
					<polygon class="st1" points="327.9,370.6 379.6,370.6 380.2,367.3 328.5,367.3 					"/>
				</g>
			</g>
			<g>
				<g>
					
						<linearGradient id="SVGID_16_" gradientUnits="userSpaceOnUse" x1="770.114" y1="-201" x2="622.188" y2="-219.7115" gradientTransform="matrix(1 0 0 -1 0 179.0192)">
						<stop  offset="0" style="stop-color:#F9C41C"/>
						<stop  offset="1" style="stop-color:#D80F1F"/>
					</linearGradient>
					<path class="st24" d="M674.8,387.7c-1.6,0.4-2.1,3.7-1.9,8h7.5C678.5,390.8,676.5,387.3,674.8,387.7z"/>
				</g>
				<g>
					
						<linearGradient id="SVGID_17_" gradientUnits="userSpaceOnUse" x1="770.1431" y1="-201.2319" x2="622.2175" y2="-219.9433" gradientTransform="matrix(1 0 0 -1 0 179.0192)">
						<stop  offset="0" style="stop-color:#F9C41C"/>
						<stop  offset="1" style="stop-color:#D80F1F"/>
					</linearGradient>
					<path class="st25" d="M656.3,395.7h12.1c-2.9-1.9-5.9-3.8-8.5-4C657.1,391.4,656.6,393.6,656.3,395.7z"/>
				</g>
				<g>
					
						<linearGradient id="SVGID_18_" gradientUnits="userSpaceOnUse" x1="769.1644" y1="-193.4763" x2="621.2341" y2="-212.1884" gradientTransform="matrix(1 0 0 -1 0 179.0192)">
						<stop  offset="0" style="stop-color:#F9C41C"/>
						<stop  offset="1" style="stop-color:#D80F1F"/>
					</linearGradient>
					<path class="st26" d="M759.1,387.3c-9.4,1.4-14.9,3.7-14.9,3.7s8.2-9.9,0.5-8.9c-4,0.5-7.7,4.1-7.7,4.1s3.5-10.9-1.6-11.2
						c-4.1-0.2-10.3,10.6-10.3,10.6s2-4.8-3-4.6c-4.4,0.2-6.9,2.7-6.9,2.7s5.9-28,0.8-26.3c-5.6,1.8-14.6,28.7-14.6,28.7
						s-0.6-17-4.8-16.3c-4.4,0.7-6.5,17.7-6.5,17.7s-6.1-15-6.6,8.3h76.1C766.4,391.2,768.3,385.9,759.1,387.3z"/>
				</g>
			</g>
			<rect x="542.8" y="376.2" class="st9" width="59.6" height="19.5"/>
		</g>
		<g>
			
				<linearGradient id="SVGID_19_" gradientUnits="userSpaceOnUse" x1="704.4893" y1="-165.4905" x2="704.4893" y2="-59.1868" gradientTransform="matrix(1 0 0 -1 0 180.0192)">
				<stop  offset="0" style="stop-color:#A0000C"/>
				<stop  offset="1" style="stop-color:#D80F1F"/>
			</linearGradient>
			<path class="st27" d="M749.2,265.4c0.2-13.9-12.1-18.2-24-14.4c-9.1,2.9-9.7,4.2-32.6-8.9c-6.4-3.7-18.3-4.8-23.6,2.1
				c-3.1,4-3.9,10-3.1,14.9c0.8,4.7,4.3,11.6,0.5,15.8c-3.7,4-10.1,2.8-14.5,5.3c-4.6,2.6-6.3,7.9-6.4,12.9
				c-0.3,11.6,4.1,24.5,11.9,32.9c15.7,16.9,43.2,23.5,68.6,17c56-14.3,35-44.5,28.4-52.5C747.1,281.9,749,274.9,749.2,265.4z"/>
			
				<linearGradient id="SVGID_20_" gradientUnits="userSpaceOnUse" x1="685.9099" y1="-59.1868" x2="685.9099" y2="-153.2416" gradientTransform="matrix(1 0 0 -1 0 180.0192)">
				<stop  offset="3.968250e-03" style="stop-color:#EF800A"/>
				<stop  offset="1" style="stop-color:#D80F1F"/>
			</linearGradient>
			<path class="st28" d="M725.8,250.8c-0.2,0.1-0.5,0.2-0.7,0.2c-9.1,2.9-9.7,4.2-32.6-8.9c-6.4-3.7-18.3-4.8-23.6,2.1
				c-3.1,4-3.9,10-3.1,14.9c0.8,4.7,4.3,11.6,0.5,15.8c-3.7,4-10.1,2.8-14.5,5.3c-4.6,2.6-6.3,7.9-6.4,12.8
				c-0.3,11.6,4.6,24.1,11.9,32.9c1,1.2,2,2.3,3,3.3c25.1,15.3-1-17.7,19.7-31.4c10.2-6.7,30-13.9,21.4-24.6
				c-6.3-7.9-11.1-10.9-9.2-15.2c1.1-2.4,4.1-4.6,13.9-2.9C719.4,257.7,729.1,253,725.8,250.8z"/>
			<polygon class="st17" points="704.2,395.7 710.3,395.7 709.8,358.4 712.1,297.3 709.8,295.5 706.3,356.1 696,318.5 694.3,320.3 
				704.5,361.7 			"/>
			<polygon class="st17" points="719.9,305.7 710.2,320.1 710.1,322.7 720.8,306.3 			"/>
			<polygon class="st17" points="705.3,300.5 709.6,309 709.5,310.9 704.7,300.7 			"/>
			<polygon class="st17" points="689.8,323.4 696.8,329.7 697.4,331.4 689.2,323.8 			"/>
		</g>
		
			<linearGradient id="SVGID_21_" gradientUnits="userSpaceOnUse" x1="272.1464" y1="-164.6535" x2="272.1464" y2="-59.1868" gradientTransform="matrix(1 0 0 -1 0 180.0192)">
			<stop  offset="0" style="stop-color:#A0000C"/>
			<stop  offset="1" style="stop-color:#D80F1F"/>
		</linearGradient>
		<path class="st29" d="M323.7,274.3c-2.3-3.7-6.9-7.2-12.8-8.1c-9.8-1.4-6.5-12.3-14.9-15.2c-9-3-9.7,4.2-32.7-8.9
			c-6.4-3.7-18.3-4.8-23.6,2.1c-3.1,4-3.9,10-3,14.9c0.9,4.7,4.4,11.6,0.6,15.8c-3.7,4-10.1,2.8-14.5,5.3c-4.5,2.6-6.2,7.9-6.3,12.9
			c-0.2,11.6,4.8,24.1,12.1,32.9c15.3,18.4,42.8,22.8,64.6,14.9c12.9-4.7,22.9-14.2,28.8-26.6C327.6,302.5,331,286.1,323.7,274.3z"
			/>
	</g>
	
		<linearGradient id="SVGID_22_" gradientUnits="userSpaceOnUse" x1="253.8164" y1="-81.8647" x2="253.8164" y2="-158.6114" gradientTransform="matrix(1 0 0 -1 0 180.0192)">
		<stop  offset="3.968250e-03" style="stop-color:#EF800A"/>
		<stop  offset="1" style="stop-color:#D80F1F"/>
	</linearGradient>
	<path class="st30" d="M289.6,250.2c-4.9,0.2-9.9,1.3-26.4-8.1c-6.4-3.7-18.3-4.8-23.6,2.1c-3.1,4-3.9,10-3,14.9
		c0.8,4.7,4.4,11.6,0.6,15.8c-3.7,4-10.1,2.8-14.5,5.3c-4.5,2.6-6.2,7.9-6.3,12.8c-0.2,11.6,4.8,24.1,12.1,32.9
		c0.7,0.8,1.4,1.6,2.2,2.4c27.6,15.1,7.6-30.9,16.8-39.2c5.8-5.3,17.3,2.2,22.5-1.5c2.6-1.9,2.4-5.5,0.4-8.3
		c-6.2-8.6-16.2-17.7-11.3-22.9c2.6-2.8,7.9-1.3,17.8-1.2C288.4,255.3,294.3,252.4,289.6,250.2z"/>
	<polygon class="st17" points="277.7,395.7 271.6,395.7 271.3,358.4 262.4,300.9 264.2,298.9 274.7,355.1 281.6,318.4 283.6,320.5 
		277,362.5 	"/>
	<polygon class="st17" points="293.6,314.1 280.3,333.7 280.3,332 292.8,313.3 	"/>
	<polygon class="st17" points="267.3,328.1 254.1,314.5 254.6,313.7 267.3,326.2 	"/>
	<polygon class="st17" points="270.5,297.7 267.2,316 266.5,314.2 269.8,297.4 	"/>
</g>
<g>
	<path class="st31" d="M148.7-309.7v12.8c0,1.6-1.3,3-3,3h-17.9c-1.6,0-3-1.3-3-3v-12.8H148.7L148.7-309.7z"/>
	<path class="st31" d="M124.9-317.1h23.7c0.9,0,1.6,0.7,1.6,1.6v4.2c0,0.9-0.7,1.6-1.6,1.6h-23.7c-0.9,0-1.6-0.7-1.6-1.6v-4.2
		C123.4-316.4,124-317.1,124.9-317.1L124.9-317.1z"/>
	<path class="st32" d="M148.7-317.1H140c0.9,0,1.6,0.7,1.6,1.6v4.2c0,0.9-0.7,1.6-1.6,1.6h8.7c0.9,0,1.6-0.7,1.6-1.6v-4.2
		C150.2-316.4,149.6-317.1,148.7-317.1L148.7-317.1z"/>
	<path class="st32" d="M145.8-293.9c1.6,0,3-1.3,3-3v-12.8H125v3.4h16.6v9.5c0,1.6-1.3,3-3,3L145.8-293.9L145.8-293.9z"/>
	<path class="st31" d="M119.9-334.8h33.9v5.8c0,0.9-0.7,1.6-1.6,1.6h-30.7c-0.9,0-1.6-0.7-1.6-1.6V-334.8L119.9-334.8z"/>
	<path class="st32" d="M153.8-334.8h-12.8v5.8c0,0.9-0.7,1.6-1.6,1.6h12.8c0.9,0,1.6-0.7,1.6-1.6V-334.8L153.8-334.8z"/>
	
		<linearGradient id="SVGID_23_" gradientUnits="userSpaceOnUse" x1="87.2653" y1="563.3448" x2="186.2668" y2="563.3448" gradientTransform="matrix(1 0 0 -1 0 179.0192)">
		<stop  offset="0" style="stop-color:#ED8022"/>
		<stop  offset="1" style="stop-color:#DB4326"/>
	</linearGradient>
	<path class="st33" d="M138.8-433.8c-0.7,0-1.4-0.1-2.1-0.1c-0.7,0-1.4,0-2.1,0.1c-26.4,1.1-47.4,22.8-47.4,49.4
		c0,21.2,18,40.5,32.6,49.5h16.9h16.9c14.5-9,32.6-28.2,32.6-49.5C186.3-411,165.2-432.7,138.8-433.8z"/>
	<path class="st34" d="M139-433.8c-0.8,0-1.4-0.1-2.2-0.1c-0.8,0-1.4,0-2.2,0.1c-22.7,1.3-40.6,23-40.6,49.4
		c0,21.2,15.6,40.5,28.2,49.5h14.7h14.6c12.6-9,28.2-28.2,28.2-49.5C179.7-410.8,161.7-432.4,139-433.8z"/>
	
		<linearGradient id="SVGID_24_" gradientUnits="userSpaceOnUse" x1="107.0403" y1="563.3448" x2="166.6175" y2="563.3448" gradientTransform="matrix(1 0 0 -1 0 179.0192)">
		<stop  offset="0" style="stop-color:#ED8022"/>
		<stop  offset="1" style="stop-color:#DB4326"/>
	</linearGradient>
	<path class="st35" d="M136.8-433.8c-16.4,0-29.8,22.2-29.8,49.5c0,21.2,10.8,40.5,19.6,49.5h10.2H147c8.8-9,19.6-28.2,19.6-49.5
		C166.6-411.7,153.3-433.8,136.8-433.8z"/>
	<path class="st34" d="M136.8-433.8c-6.5,0-11.9,22.2-11.9,49.5c0,21.2,4.3,40.5,7.8,49.5h4.1h4.1c3.5-9,7.8-28.2,7.8-49.5
		C148.7-411.7,143.4-433.8,136.8-433.8z"/>
	
		<ellipse transform="matrix(0.4247 -0.9053 0.9053 0.4247 429.2432 -124.5047)" class="st36" cx="116.7" cy="-400" rx="25.8" ry="22.9"/>
	<path class="st37" d="M137.5-390.2c-6,12.9-20.3,19-31.7,13.6c-5.7-2.6-9.6-7.6-11.5-13.5c1.4-13.8,7.7-25.8,16.8-33.7
		c5.4-2,11.2-1.9,16.5,0.6C139.1-418,143.4-403.2,137.5-390.2z"/>
	<path class="st37" d="M137.5-390.2c-6,12.9-20.3,19-31.7,13.6c-5.7-2.6-9.6-7.6-11.5-13.5c1.4-13.8,7.7-25.8,16.8-33.7
		c5.4-2,11.2-1.9,16.5,0.6C139.1-418,143.4-403.2,137.5-390.2z"/>
	<path class="st38" d="M137.5-390.2c-5.7,12.2-18.7,18.3-29.8,14.4c-0.4-2.8-0.6-5.5-0.6-8.4c0-17,5.2-32,13-40.9
		c2.6,0.1,5.1,0.8,7.6,1.9C139.1-418,143.4-403.2,137.5-390.2z"/>
	<path class="st36" d="M137.5-390.2c-5.7,12.2-18.7,18.3-29.8,14.4c-0.4-2.8-0.6-5.5-0.6-8.4c0-17,5.2-32,13-40.9
		c2.6,0.1,5.1,0.8,7.6,1.9C139.1-418,143.4-403.2,137.5-390.2z"/>
	<path class="st37" d="M137.5-390.2c-2.8,5.9-7.2,10.3-12.3,12.9c-0.1-2.3-0.1-4.7-0.1-7c0-15.4,1.7-29.1,4.3-38.2
		C139.5-416.5,143.2-402.5,137.5-390.2z"/>
	<path class="st37" d="M137.5-390.2c-2.8,5.9-7.2,10.3-12.3,12.9c-0.1-2.3-0.1-4.7-0.1-7c0-15.4,1.7-29.1,4.3-38.2
		C139.5-416.5,143.2-402.5,137.5-390.2z"/>
</g>
</svg>
