<?xml version="1.0" encoding="utf-8"?>
<!-- Generator: Adobe Illustrator 24.2.0, SVG Export Plug-In . SVG Version: 6.00 Build 0)  -->
<svg version="1.1" id="Layer_1" xmlns="http://www.w3.org/2000/svg" xmlns:xlink="http://www.w3.org/1999/xlink" x="0px" y="0px"
	 viewBox="0 0 1080 480" style="enable-background:new 0 0 1080 480;" xml:space="preserve">
<style type="text/css">
	.st0{fill-rule:evenodd;clip-rule:evenodd;fill:#B9E3D6;}
	.st1{fill-rule:evenodd;clip-rule:evenodd;fill:#F6EAC1;}
	.st2{fill-rule:evenodd;clip-rule:evenodd;fill:#C6D061;}
	.st3{fill-rule:evenodd;clip-rule:evenodd;fill:#9CA744;}
	.st4{fill-rule:evenodd;clip-rule:evenodd;fill:#757C38;}
	.st5{fill-rule:evenodd;clip-rule:evenodd;fill:#7C7470;}
	.st6{fill-rule:evenodd;clip-rule:evenodd;fill:#D2B174;}
	.st7{fill-rule:evenodd;clip-rule:evenodd;fill:#F9E6AE;}
	.st8{fill-rule:evenodd;clip-rule:evenodd;fill:#42403D;}
	.st9{fill-rule:evenodd;clip-rule:evenodd;fill:#BCBCBC;}
	.st10{fill-rule:evenodd;clip-rule:evenodd;fill:#6F3E33;}
	.st11{fill-rule:evenodd;clip-rule:evenodd;fill:#645F5C;}
	.st12{fill-rule:evenodd;clip-rule:evenodd;fill:#959595;}
	.st13{fill-rule:evenodd;clip-rule:evenodd;fill:#818181;}
	.st14{fill-rule:evenodd;clip-rule:evenodd;fill:#A9A9A9;}
	.st15{fill-rule:evenodd;clip-rule:evenodd;fill:#F0F0F0;}
	.st16{fill-rule:evenodd;clip-rule:evenodd;fill:#BDBDBD;}
	.st17{fill-rule:evenodd;clip-rule:evenodd;fill:#405662;}
	.st18{fill-rule:evenodd;clip-rule:evenodd;fill:#E7BF74;}
	.st19{fill-rule:evenodd;clip-rule:evenodd;fill:#F5F5F5;}
	.st20{fill-rule:evenodd;clip-rule:evenodd;fill:#FFFFFF;}
	.st21{fill-rule:evenodd;clip-rule:evenodd;fill:#B89966;}
	.st22{fill-rule:evenodd;clip-rule:evenodd;fill:#9F7E49;}
	.st23{fill-rule:evenodd;clip-rule:evenodd;fill:#A58859;}
	.st24{fill-rule:evenodd;clip-rule:evenodd;fill:#4A2C26;}
	.st25{fill:#6F3E33;}
	.st26{fill-rule:evenodd;clip-rule:evenodd;fill:#77623A;}
	.st27{fill-rule:evenodd;clip-rule:evenodd;fill:#27343A;}
	.st28{fill-rule:evenodd;clip-rule:evenodd;fill:#4C4847;}
	.st29{fill-rule:evenodd;clip-rule:evenodd;fill:#759B99;}
	.st30{fill-rule:evenodd;clip-rule:evenodd;fill:#89B2B0;}
	.st31{fill-rule:evenodd;clip-rule:evenodd;fill:#7F4343;}
	.st32{fill-rule:evenodd;clip-rule:evenodd;fill:#5B3434;}
	.st33{fill-rule:evenodd;clip-rule:evenodd;fill:#4C6972;}
	.st34{fill-rule:evenodd;clip-rule:evenodd;fill:#8B5347;}
	.st35{fill:#9D6152;}
	.st36{fill:#8B5347;}
	.st37{fill-rule:evenodd;clip-rule:evenodd;fill:#282E31;}
	.st38{fill-rule:evenodd;clip-rule:evenodd;fill:#BBB9B1;}
	.st39{fill-rule:evenodd;clip-rule:evenodd;fill:#D67627;}
	.st40{fill-rule:evenodd;clip-rule:evenodd;fill:#4E4E4E;}
	.st41{fill-rule:evenodd;clip-rule:evenodd;fill:#252525;}
	.st42{fill-rule:evenodd;clip-rule:evenodd;fill:#CF8127;}
	.st43{fill-rule:evenodd;clip-rule:evenodd;fill:#AD5918;}
	.st44{fill-rule:evenodd;clip-rule:evenodd;fill:#B8D0CC;}
	.st45{fill-rule:evenodd;clip-rule:evenodd;fill:#CEECF8;}
	.st46{fill-rule:evenodd;clip-rule:evenodd;fill:#45576C;}
	.st47{fill-rule:evenodd;clip-rule:evenodd;fill:#75919C;}
	.st48{fill-rule:evenodd;clip-rule:evenodd;fill:#213443;}
	.st49{fill-rule:evenodd;clip-rule:evenodd;fill:#EBA956;}
	.st50{fill:none;}
	.st51{fill:#BBB9B1;}
	.st52{fill:#D67627;}
	.st53{fill:#EBA956;}
	.st54{fill:#252525;}
	.st55{fill:#4E4E4E;}
	.st56{fill:#75919C;}
	.st57{fill:#CEECF8;}
	.st58{fill:#AD5918;}
	.st59{fill:#45576C;}
	.st60{fill:#213443;}
	.st61{fill:#B8D0CC;}
	.st62{fill-rule:evenodd;clip-rule:evenodd;fill:#F4D3DA;}
	.st63{fill-rule:evenodd;clip-rule:evenodd;fill:#BEC85D;}
	.st64{fill:#FFFFFF;}
	.st65{fill:url(#SVGID_1_);}
	.st66{fill:url(#SVGID_2_);}
	.st67{fill:#9D9494;}
	.st68{fill:url(#SVGID_3_);}
	.st69{fill:#1A2240;}
	.st70{fill:#415680;}
	.st71{fill:url(#SVGID_4_);}
	.st72{fill:url(#SVGID_5_);}
	.st73{fill:url(#SVGID_6_);}
	.st74{fill:url(#SVGID_7_);}
	.st75{fill:url(#SVGID_8_);}
	.st76{fill:#4F6AA8;}
	.st77{fill:#F6EAC1;}
	.st78{filter:url(#Adobe_OpacityMaskFilter);}
	.st79{filter:url(#Adobe_OpacityMaskFilter_1_);}
	.st80{mask:url(#SVGID_9_);fill-rule:evenodd;clip-rule:evenodd;fill:url(#SVGID_10_);}
	.st81{opacity:0.75;fill-rule:evenodd;clip-rule:evenodd;fill:url(#SVGID_11_);}
	.st82{fill-rule:evenodd;clip-rule:evenodd;fill:#C9996E;}
	.st83{fill-rule:evenodd;clip-rule:evenodd;fill:#FFD86B;}
	.st84{fill-rule:evenodd;clip-rule:evenodd;fill:url(#SVGID_12_);}
	.st85{fill-rule:evenodd;clip-rule:evenodd;fill:#82760A;}
	.st86{fill-rule:evenodd;clip-rule:evenodd;fill:#CCCCCC;}
	.st87{fill-rule:evenodd;clip-rule:evenodd;fill:#999797;}
	.st88{fill-rule:evenodd;clip-rule:evenodd;fill:#EDEDED;}
	.st89{fill-rule:evenodd;clip-rule:evenodd;fill:#666666;}
	.st90{fill-rule:evenodd;clip-rule:evenodd;fill:#CFC12C;}
	.st91{filter:url(#Adobe_OpacityMaskFilter_2_);}
	.st92{filter:url(#Adobe_OpacityMaskFilter_3_);}
	.st93{mask:url(#SVGID_13_);fill-rule:evenodd;clip-rule:evenodd;fill:url(#SVGID_14_);}
	.st94{fill-rule:evenodd;clip-rule:evenodd;fill:url(#SVGID_15_);}
	.st95{filter:url(#Adobe_OpacityMaskFilter_4_);}
	.st96{filter:url(#Adobe_OpacityMaskFilter_5_);}
	.st97{mask:url(#SVGID_16_);fill-rule:evenodd;clip-rule:evenodd;fill:url(#SVGID_17_);}
	.st98{fill-rule:evenodd;clip-rule:evenodd;fill:url(#SVGID_18_);}
	.st99{fill-rule:evenodd;clip-rule:evenodd;fill:url(#SVGID_19_);}
	.st100{fill-rule:evenodd;clip-rule:evenodd;fill:url(#SVGID_20_);}
	.st101{fill-rule:evenodd;clip-rule:evenodd;fill:url(#SVGID_21_);}
	.st102{fill-rule:evenodd;clip-rule:evenodd;fill:#A2A2A2;}
	.st103{fill-rule:evenodd;clip-rule:evenodd;fill:#D3D3D3;}
	.st104{fill-rule:evenodd;clip-rule:evenodd;fill:#BA481A;}
	.st105{fill-rule:evenodd;clip-rule:evenodd;fill:#FF8543;}
	.st106{fill-rule:evenodd;clip-rule:evenodd;fill:#E65D21;}
	.st107{fill-rule:evenodd;clip-rule:evenodd;fill:#9E2E01;}
	.st108{fill-rule:evenodd;clip-rule:evenodd;fill:#5E3B1D;}
	.st109{fill-rule:evenodd;clip-rule:evenodd;fill:#FFA469;}
	.st110{fill-rule:evenodd;clip-rule:evenodd;fill:#3D2208;}
	.st111{fill-rule:evenodd;clip-rule:evenodd;fill:#42D9E0;}
	.st112{fill-rule:evenodd;clip-rule:evenodd;fill:#9E3B0C;}
	.st113{fill-rule:evenodd;clip-rule:evenodd;fill:#1D5152;}
	.st114{fill-rule:evenodd;clip-rule:evenodd;fill:#B54012;}
	.st115{filter:url(#Adobe_OpacityMaskFilter_6_);}
	.st116{filter:url(#Adobe_OpacityMaskFilter_7_);}
	.st117{mask:url(#SVGID_22_);fill-rule:evenodd;clip-rule:evenodd;fill:url(#SVGID_23_);}
	.st118{fill-rule:evenodd;clip-rule:evenodd;fill:url(#SVGID_24_);}
	.st119{filter:url(#Adobe_OpacityMaskFilter_8_);}
	.st120{filter:url(#Adobe_OpacityMaskFilter_9_);}
	.st121{mask:url(#SVGID_25_);fill-rule:evenodd;clip-rule:evenodd;fill:url(#SVGID_26_);}
	.st122{fill-rule:evenodd;clip-rule:evenodd;fill:url(#SVGID_27_);}
	.st123{fill-rule:evenodd;clip-rule:evenodd;fill:#C3BA43;}
	.st124{fill:#5F4B36;}
	.st125{fill:#765A3F;}
	.st126{fill-rule:evenodd;clip-rule:evenodd;fill:#A39F35;}
	.st127{fill-rule:evenodd;clip-rule:evenodd;fill:#F2E9E9;}
	.st128{fill-rule:evenodd;clip-rule:evenodd;fill:#DAD0D0;}
	.st129{fill-rule:evenodd;clip-rule:evenodd;fill:#989090;}
	.st130{fill-rule:evenodd;clip-rule:evenodd;fill:#5A4E4E;}
	.st131{fill-rule:evenodd;clip-rule:evenodd;fill:#A3532F;}
	.st132{fill-rule:evenodd;clip-rule:evenodd;fill:#DF7A4D;}
	.st133{fill-rule:evenodd;clip-rule:evenodd;fill:#CB6538;}
	.st134{fill-rule:evenodd;clip-rule:evenodd;fill:#34271A;}
	.st135{fill-rule:evenodd;clip-rule:evenodd;fill:#BC582E;}
	.st136{fill-rule:evenodd;clip-rule:evenodd;fill:#7E381A;}
	.st137{fill-rule:evenodd;clip-rule:evenodd;fill:#4C3823;}
	.st138{fill-rule:evenodd;clip-rule:evenodd;fill:#9E4C27;}
	.st139{fill-rule:evenodd;clip-rule:evenodd;fill:#89BCB3;}
	.st140{fill-rule:evenodd;clip-rule:evenodd;fill:#893A18;}
	.st141{fill-rule:evenodd;clip-rule:evenodd;fill:#385657;}
	.st142{fill-rule:evenodd;clip-rule:evenodd;fill:#68533B;}
	.st143{fill-rule:evenodd;clip-rule:evenodd;fill:#7F7F7F;}
	.st144{fill-rule:evenodd;clip-rule:evenodd;fill:#3D3D3D;}
	.st145{fill-rule:evenodd;clip-rule:evenodd;fill:#DFB75D;}
	.st146{fill-rule:evenodd;clip-rule:evenodd;fill:#5D432A;}
	.st147{fill-rule:evenodd;clip-rule:evenodd;fill:#F5D986;}
	.st148{fill-rule:evenodd;clip-rule:evenodd;fill:#7D5A37;}
	.st149{fill-rule:evenodd;clip-rule:evenodd;fill:#E0D8CE;}
	.st150{fill-rule:evenodd;clip-rule:evenodd;fill:#476265;}
	.st151{fill-rule:evenodd;clip-rule:evenodd;fill:#9ABEB8;}
	.st152{fill-rule:evenodd;clip-rule:evenodd;fill:#8EB9BC;}
	.st153{fill-rule:evenodd;clip-rule:evenodd;fill:#D5EDE0;}
	.st154{fill-rule:evenodd;clip-rule:evenodd;fill:#74AFAF;}
	.st155{fill-rule:evenodd;clip-rule:evenodd;fill:#695540;}
	.st156{fill-rule:evenodd;clip-rule:evenodd;fill:#A98B6A;}
	.st157{fill-rule:evenodd;clip-rule:evenodd;fill:#D5D5D5;}
	.st158{fill-rule:evenodd;clip-rule:evenodd;fill:#44636A;}
	.st159{fill-rule:evenodd;clip-rule:evenodd;fill:#94CECE;}
	.st160{fill-rule:evenodd;clip-rule:evenodd;fill:#909090;}
	.st161{fill-rule:evenodd;clip-rule:evenodd;fill:#3E3429;}
	.st162{fill-rule:evenodd;clip-rule:evenodd;fill:#989898;}
	.st163{fill-rule:evenodd;clip-rule:evenodd;fill:#70A5A5;}
	.st164{fill-rule:evenodd;clip-rule:evenodd;fill:#B2B2B2;}
	.st165{fill-rule:evenodd;clip-rule:evenodd;fill:#90704E;}
	.st166{fill-rule:evenodd;clip-rule:evenodd;fill:#62513F;}
	.st167{fill-rule:evenodd;clip-rule:evenodd;fill:#2C271F;}
	.st168{fill-rule:evenodd;clip-rule:evenodd;fill:#656666;}
	.st169{fill-rule:evenodd;clip-rule:evenodd;fill:#434343;}
	.st170{fill-rule:evenodd;clip-rule:evenodd;fill:#AED3CA;}
	.st171{fill-rule:evenodd;clip-rule:evenodd;fill:#6DA0A0;}
	.st172{fill-rule:evenodd;clip-rule:evenodd;fill:#535353;}
	.st173{fill-rule:evenodd;clip-rule:evenodd;fill:#7D6143;}
	.st174{fill-rule:evenodd;clip-rule:evenodd;fill:#CBCBCB;}
	.st175{fill-rule:evenodd;clip-rule:evenodd;fill:#534536;}
	.st176{fill-rule:evenodd;clip-rule:evenodd;fill:#8AACA2;}
	.st177{fill:#8AACA2;}
	.st178{filter:url(#Adobe_OpacityMaskFilter_10_);}
	.st179{filter:url(#Adobe_OpacityMaskFilter_11_);}
	.st180{mask:url(#SVGID_28_);fill-rule:evenodd;clip-rule:evenodd;fill:url(#SVGID_29_);}
	.st181{fill-rule:evenodd;clip-rule:evenodd;fill:url(#SVGID_30_);}
	.st182{filter:url(#Adobe_OpacityMaskFilter_12_);}
	.st183{filter:url(#Adobe_OpacityMaskFilter_13_);}
	.st184{mask:url(#SVGID_31_);fill-rule:evenodd;clip-rule:evenodd;fill:url(#SVGID_32_);}
	.st185{fill-rule:evenodd;clip-rule:evenodd;fill:url(#SVGID_33_);}
	.st186{filter:url(#Adobe_OpacityMaskFilter_14_);}
	.st187{filter:url(#Adobe_OpacityMaskFilter_15_);}
	.st188{mask:url(#SVGID_34_);fill-rule:evenodd;clip-rule:evenodd;fill:url(#SVGID_35_);}
	.st189{fill-rule:evenodd;clip-rule:evenodd;fill:url(#SVGID_36_);}
	.st190{fill:url(#SVGID_37_);}
	.st191{fill:url(#SVGID_38_);}
	.st192{fill:url(#SVGID_39_);}
	.st193{fill:url(#SVGID_40_);}
	.st194{fill:url(#SVGID_41_);}
	.st195{fill:url(#SVGID_42_);}
	.st196{fill:url(#SVGID_43_);}
	.st197{fill:url(#SVGID_44_);}
	.st198{fill:url(#SVGID_45_);}
	.st199{fill:url(#SVGID_46_);}
	.st200{fill:url(#SVGID_47_);}
	.st201{fill:url(#SVGID_48_);}
	.st202{fill:url(#SVGID_49_);}
	.st203{fill:url(#SVGID_50_);}
	.st204{fill:url(#SVGID_51_);}
	.st205{fill:url(#SVGID_52_);}
	.st206{fill:url(#SVGID_53_);}
	.st207{fill:url(#SVGID_54_);}
	.st208{fill:url(#SVGID_55_);}
	.st209{fill:url(#SVGID_56_);}
	.st210{fill:url(#SVGID_57_);}
	.st211{fill:url(#SVGID_58_);}
	.st212{fill:url(#SVGID_59_);}
	.st213{fill:url(#SVGID_60_);}
	.st214{fill:url(#SVGID_61_);}
	.st215{fill:url(#SVGID_62_);}
	.st216{fill:url(#SVGID_63_);}
	.st217{fill:url(#SVGID_64_);}
	.st218{fill:url(#SVGID_65_);}
	.st219{fill:url(#SVGID_66_);}
	.st220{opacity:0.85;fill-rule:evenodd;clip-rule:evenodd;fill:#FFFFFF;}
	.st221{opacity:0.75;fill-rule:evenodd;clip-rule:evenodd;fill:#FFFFFF;}
	.st222{fill:url(#SVGID_67_);}
	.st223{fill:url(#SVGID_68_);}
	.st224{fill:url(#SVGID_69_);}
	.st225{fill:url(#SVGID_70_);}
	.st226{fill:url(#SVGID_71_);}
	.st227{fill:url(#SVGID_72_);}
	.st228{fill:url(#SVGID_73_);}
	.st229{fill:url(#SVGID_74_);}
	.st230{fill:url(#SVGID_75_);}
	.st231{fill:#F7CE8F;}
	.st232{fill:url(#SVGID_76_);}
	.st233{fill:#264057;}
	.st234{fill:#3A5A73;}
	.st235{fill:url(#SVGID_77_);}
	.st236{fill:url(#SVGID_78_);}
	.st237{fill:#2AAAD1;}
	.st238{fill:url(#SVGID_79_);}
	.st239{fill:url(#SVGID_80_);}
	.st240{fill:url(#SVGID_81_);}
	.st241{fill:url(#SVGID_82_);}
	.st242{opacity:0.8;fill-rule:evenodd;clip-rule:evenodd;fill:#FFFFFF;}
	.st243{opacity:0.65;fill-rule:evenodd;clip-rule:evenodd;fill:#FFFFFF;}
	.st244{opacity:0.5;fill-rule:evenodd;clip-rule:evenodd;fill:#FFFFFF;}
	.st245{fill:url(#SVGID_83_);}
	.st246{fill:url(#SVGID_84_);}
	.st247{fill:url(#SVGID_85_);}
	.st248{fill:url(#SVGID_86_);}
	.st249{fill:url(#SVGID_87_);}
	.st250{fill:url(#SVGID_88_);}
	.st251{fill:url(#SVGID_89_);}
	.st252{opacity:0.68;fill-rule:evenodd;clip-rule:evenodd;fill:#FFFFFF;}
	.st253{opacity:0.76;fill-rule:evenodd;clip-rule:evenodd;fill:#FFFFFF;}
	.st254{opacity:0.83;fill-rule:evenodd;clip-rule:evenodd;fill:#FFFFFF;}
	.st255{opacity:0.69;fill-rule:evenodd;clip-rule:evenodd;fill:#FFFFFF;}
	.st256{opacity:0.86;fill-rule:evenodd;clip-rule:evenodd;fill:#FFFFFF;}
	.st257{fill:#B3A1A9;}
	.st258{fill:url(#SVGID_90_);}
</style>
<g>
	<g>
		<polygon class="st62" points="0.8,-59.6 1080.8,-59.6 1080.8,417.8 0.8,417.8 0.8,-59.6 		"/>
		<g>
			<defs>
				<filter id="Adobe_OpacityMaskFilter" filterUnits="userSpaceOnUse" x="646" y="188.2" width="364.9" height="197.8">
					<feFlood  style="flood-color:white;flood-opacity:1" result="back"/>
					<feBlend  in="SourceGraphic" in2="back" mode="normal"/>
				</filter>
			</defs>
			<mask maskUnits="userSpaceOnUse" x="646" y="188.2" width="364.9" height="197.8" id="SVGID_1_">
				<g class="st78">
					<defs>
						<filter id="Adobe_OpacityMaskFilter_1_" filterUnits="userSpaceOnUse" x="646" y="188.2" width="364.9" height="197.8">
							<feFlood  style="flood-color:white;flood-opacity:1" result="back"/>
							<feBlend  in="SourceGraphic" in2="back" mode="normal"/>
						</filter>
					</defs>
					<mask maskUnits="userSpaceOnUse" x="646" y="188.2" width="364.9" height="197.8" id="SVGID_1_">
					</mask>
					<linearGradient id="SVGID_2_" gradientUnits="userSpaceOnUse" x1="818.0076" y1="353.6104" x2="849.6964" y2="166.4294">
						<stop  offset="0" style="stop-color:#000000"/>
						<stop  offset="2.389425e-02" style="stop-color:#121212"/>
						<stop  offset="9.433836e-02" style="stop-color:#444444"/>
						<stop  offset="0.1703" style="stop-color:#707070"/>
						<stop  offset="0.2502" style="stop-color:#979797"/>
						<stop  offset="0.3348" style="stop-color:#B7B7B7"/>
						<stop  offset="0.4256" style="stop-color:#D1D1D1"/>
						<stop  offset="0.525" style="stop-color:#E6E6E6"/>
						<stop  offset="0.6374" style="stop-color:#F4F4F4"/>
						<stop  offset="0.7736" style="stop-color:#FCFCFC"/>
						<stop  offset="1" style="stop-color:#FFFFFF"/>
					</linearGradient>
					<path style="mask:url(#SVGID_1_);fill-rule:evenodd;clip-rule:evenodd;fill:url(#SVGID_2_);" d="M971.1,303.5
						c-11.2,0-21.9,2.8-30.7,7.4c1.1-34.9-27-62.2-65.4-62.2c-11.5,0-22.7,2.4-33,6.8c-4.3-38.7-33.9-67.4-73.4-67.4
						c-28.4,0-55.3,14.8-73.5,37.4c-4.3-4.7-10.2-7.5-17-7.5c-15.4,0-29.6,14.5-31.7,32.3c-2.1,17.8,8.8,32.3,24.2,32.3
						c0.6,0,1.1,0,1.7-0.1c-3.4,46.9,28.7,84.1,73.7,84.1c18.2,0,35.9-6.1,51-16.5C806.5,371.5,829,386,857,386
						c26.6,0,51.7-13.1,67.3-32.7c6.7,8.1,19.2,13.5,34.6,13.5c25.1,0,48.2-14.1,51.6-31.6C1013.8,317.7,996.2,303.5,971.1,303.5z"
						/>
				</g>
			</mask>
			<linearGradient id="SVGID_3_" gradientUnits="userSpaceOnUse" x1="818.0076" y1="353.6104" x2="849.6964" y2="166.4294">
				<stop  offset="0" style="stop-color:#FCEFD2"/>
				<stop  offset="0.1708" style="stop-color:#FDF6E6"/>
				<stop  offset="0.3664" style="stop-color:#FEFBF4"/>
				<stop  offset="0.6043" style="stop-color:#FFFEFC"/>
				<stop  offset="1" style="stop-color:#FFFFFF"/>
			</linearGradient>
			<path style="opacity:0.75;fill-rule:evenodd;clip-rule:evenodd;fill:url(#SVGID_3_);" d="M971.1,303.5c-11.2,0-21.9,2.8-30.7,7.4
				c1.1-34.9-27-62.2-65.4-62.2c-11.5,0-22.7,2.4-33,6.8c-4.3-38.7-33.9-67.4-73.4-67.4c-28.4,0-55.3,14.8-73.5,37.4
				c-4.3-4.7-10.2-7.5-17-7.5c-15.4,0-29.6,14.5-31.7,32.3c-2.1,17.8,8.8,32.3,24.2,32.3c0.6,0,1.1,0,1.7-0.1
				c-3.4,46.9,28.7,84.1,73.7,84.1c18.2,0,35.9-6.1,51-16.5C806.5,371.5,829,386,857,386c26.6,0,51.7-13.1,67.3-32.7
				c6.7,8.1,19.2,13.5,34.6,13.5c25.1,0,48.2-14.1,51.6-31.6C1013.8,317.7,996.2,303.5,971.1,303.5z"/>
			<path class="st82" d="M1080.8,378.8v38.7H595.1C747.9,330.5,945.1,311.7,1080.8,378.8z"/>
			<path class="st83" d="M722.5,417.4H141.8C304.5,236.4,587,293.2,722.5,417.4L722.5,417.4z"/>
			<linearGradient id="SVGID_4_" gradientUnits="userSpaceOnUse" x1="418.1841" y1="298.1027" x2="403.7747" y2="379.8223">
				<stop  offset="0" style="stop-color:#FFBB40"/>
				<stop  offset="0.2774" style="stop-color:#F6B53E"/>
				<stop  offset="0.7283" style="stop-color:#DEA338"/>
				<stop  offset="1" style="stop-color:#CC9633"/>
			</linearGradient>
			<path style="fill-rule:evenodd;clip-rule:evenodd;fill:url(#SVGID_4_);" d="M652.5,417.4H141.8
				C284.9,258.3,533.3,308.1,652.5,417.4L652.5,417.4z"/>
			<path class="st85" d="M462.4,367.4c10.7,0,19.3,8.6,19.3,19.3c0,10.7-8.6,19.3-19.3,19.3c-6.8,0-12.9-3.6-16.3-8.9
				c-2.3,2-5.4,3.1-8.7,3.1c-7.5,0-13.5-6-13.5-13.5c0-7.5,6-13.5,13.5-13.5c3.3,0,6.3,1.2,8.7,3.1
				C449.6,371,455.6,367.4,462.4,367.4L462.4,367.4z"/>
			<g>
				<polygon class="st86" points="770.1,417.4 807.1,417.4 807.1,244.2 770.1,244.2 770.1,417.4 				"/>
				<polygon class="st87" points="807.1,417.4 819.2,417.4 819.2,244.2 807.1,244.2 807.1,417.4 				"/>
				<path class="st86" d="M794.7,219.7c13.6,0,24.5,11,24.5,24.5h-49.1C770.1,230.6,781.1,219.7,794.7,219.7L794.7,219.7z"/>
				<path class="st88" d="M788.6,225.7c10.2,0,18.5,8.3,18.5,18.5h-37C770.1,234,778.4,225.7,788.6,225.7L788.6,225.7z"/>
				<path class="st20" d="M783.2,225.7c3.2-0.2,5.8,2.2,5.7,5.3c0,3.1-2.6,5.8-5.8,5.9c-3.2,0.2-5.8-2.2-5.7-5.3
					C777.4,228.5,780,225.8,783.2,225.7L783.2,225.7z"/>
				<g>
					<g>
						<path class="st87" d="M770.1,244.2h37v3.2h-37c-0.9,0-1.6-0.7-1.6-1.6C768.6,244.9,769.3,244.2,770.1,244.2L770.1,244.2z"/>
						<path class="st89" d="M819.2,244.2h-12.1v3.2h12.1c0.9,0,1.6-0.7,1.6-1.6C820.8,244.9,820.1,244.2,819.2,244.2L819.2,244.2z"
							/>
					</g>
					<g>
						<path class="st87" d="M770.1,263.4h37v3.2h-37c-0.9,0-1.6-0.7-1.6-1.6C768.6,264.2,769.3,263.4,770.1,263.4L770.1,263.4z"/>
						<path class="st89" d="M819.2,263.4h-12.1v3.2h12.1c0.9,0,1.6-0.7,1.6-1.6C820.8,264.2,820.1,263.4,819.2,263.4L819.2,263.4z"
							/>
					</g>
					<g>
						<path class="st87" d="M770.1,282.7h37v3.2h-37c-0.9,0-1.6-0.7-1.6-1.6C768.6,283.4,769.3,282.7,770.1,282.7L770.1,282.7z"/>
						<path class="st89" d="M819.2,282.7h-12.1v3.2h12.1c0.9,0,1.6-0.7,1.6-1.6C820.8,283.4,820.1,282.7,819.2,282.7L819.2,282.7z"
							/>
					</g>
					<g>
						<path class="st87" d="M770.1,301.9h37v3.2h-37c-0.9,0-1.6-0.7-1.6-1.6C768.6,302.6,769.3,301.9,770.1,301.9L770.1,301.9z"/>
						<path class="st89" d="M819.2,301.9h-12.1v3.2h12.1c0.9,0,1.6-0.7,1.6-1.6C820.8,302.6,820.1,301.9,819.2,301.9L819.2,301.9z"
							/>
					</g>
					<g>
						<path class="st87" d="M770.1,321.2h37v3.2h-37c-0.9,0-1.6-0.7-1.6-1.6C768.6,321.9,769.3,321.2,770.1,321.2L770.1,321.2z"/>
						<path class="st89" d="M819.2,321.2h-12.1v3.2h12.1c0.9,0,1.6-0.7,1.6-1.6C820.8,321.9,820.1,321.2,819.2,321.2L819.2,321.2z"
							/>
					</g>
					<g>
						<path class="st87" d="M770.1,340.4h37v3.2h-37c-0.9,0-1.6-0.7-1.6-1.6C768.6,341.1,769.3,340.4,770.1,340.4L770.1,340.4z"/>
						<path class="st89" d="M819.2,340.4h-12.1v3.2h12.1c0.9,0,1.6-0.7,1.6-1.6C820.8,341.1,820.1,340.4,819.2,340.4L819.2,340.4z"
							/>
					</g>
					<g>
						<path class="st87" d="M770.1,359.7h37v3.2h-37c-0.9,0-1.6-0.7-1.6-1.6C768.6,360.4,769.3,359.7,770.1,359.7L770.1,359.7z"/>
						<path class="st89" d="M819.2,359.7h-12.1v3.2h12.1c0.9,0,1.6-0.7,1.6-1.6C820.8,360.4,820.1,359.7,819.2,359.7L819.2,359.7z"
							/>
					</g>
					<g>
						<path class="st87" d="M770.1,378.9h37v3.2h-37c-0.9,0-1.6-0.7-1.6-1.6C768.6,379.6,769.3,378.9,770.1,378.9L770.1,378.9z"/>
						<path class="st89" d="M819.2,378.9h-12.1v3.2h12.1c0.9,0,1.6-0.7,1.6-1.6C820.8,379.6,820.1,378.9,819.2,378.9L819.2,378.9z"
							/>
					</g>
					<g>
						<path class="st87" d="M770.1,398.1h37v3.2h-37c-0.9,0-1.6-0.7-1.6-1.6C768.6,398.9,769.3,398.1,770.1,398.1L770.1,398.1z"/>
						<path class="st89" d="M819.2,398.1h-12.1v3.2h12.1c0.9,0,1.6-0.7,1.6-1.6C820.8,398.9,820.1,398.1,819.2,398.1L819.2,398.1z"
							/>
					</g>
				</g>
			</g>
			<g>
				<polygon class="st86" points="825,417.4 862,417.4 862,244.2 825,244.2 825,417.4 				"/>
				<polygon class="st87" points="862,417.4 874.1,417.4 874.1,244.2 862,244.2 862,417.4 				"/>
				<path class="st86" d="M849.5,219.7c13.6,0,24.5,11,24.5,24.5H825C825,230.6,836,219.7,849.5,219.7L849.5,219.7z"/>
				<path class="st88" d="M843.5,225.7c10.2,0,18.5,8.3,18.5,18.5h-37C825,234,833.3,225.7,843.5,225.7L843.5,225.7z"/>
				<path class="st20" d="M838.1,225.7c3.2-0.2,5.8,2.2,5.7,5.3c0,3.1-2.6,5.8-5.8,5.9c-3.2,0.2-5.8-2.2-5.7-5.3
					C832.3,228.5,834.9,225.8,838.1,225.7L838.1,225.7z"/>
				<g>
					<g>
						<path class="st87" d="M825,244.2h37v3.2h-37c-0.9,0-1.6-0.7-1.6-1.6C823.4,244.9,824.1,244.2,825,244.2L825,244.2z"/>
						<path class="st89" d="M874.1,244.2H862v3.2h12.1c0.9,0,1.6-0.7,1.6-1.6C875.7,244.9,875,244.2,874.1,244.2L874.1,244.2z"/>
					</g>
					<g>
						<path class="st87" d="M825,263.4h37v3.2h-37c-0.9,0-1.6-0.7-1.6-1.6C823.4,264.2,824.1,263.4,825,263.4L825,263.4z"/>
						<path class="st89" d="M874.1,263.4H862v3.2h12.1c0.9,0,1.6-0.7,1.6-1.6C875.7,264.2,875,263.4,874.1,263.4L874.1,263.4z"/>
					</g>
					<g>
						<path class="st87" d="M825,282.7h37v3.2h-37c-0.9,0-1.6-0.7-1.6-1.6C823.4,283.4,824.1,282.7,825,282.7L825,282.7z"/>
						<path class="st89" d="M874.1,282.7H862v3.2h12.1c0.9,0,1.6-0.7,1.6-1.6C875.7,283.4,875,282.7,874.1,282.7L874.1,282.7z"/>
					</g>
					<g>
						<path class="st87" d="M825,301.9h37v3.2h-37c-0.9,0-1.6-0.7-1.6-1.6C823.4,302.6,824.1,301.9,825,301.9L825,301.9z"/>
						<path class="st89" d="M874.1,301.9H862v3.2h12.1c0.9,0,1.6-0.7,1.6-1.6C875.7,302.6,875,301.9,874.1,301.9L874.1,301.9z"/>
					</g>
					<g>
						<path class="st87" d="M825,321.2h37v3.2h-37c-0.9,0-1.6-0.7-1.6-1.6C823.4,321.9,824.1,321.2,825,321.2L825,321.2z"/>
						<path class="st89" d="M874.1,321.2H862v3.2h12.1c0.9,0,1.6-0.7,1.6-1.6C875.7,321.9,875,321.2,874.1,321.2L874.1,321.2z"/>
					</g>
					<g>
						<path class="st87" d="M825,340.4h37v3.2h-37c-0.9,0-1.6-0.7-1.6-1.6C823.4,341.1,824.1,340.4,825,340.4L825,340.4z"/>
						<path class="st89" d="M874.1,340.4H862v3.2h12.1c0.9,0,1.6-0.7,1.6-1.6C875.7,341.1,875,340.4,874.1,340.4L874.1,340.4z"/>
					</g>
					<g>
						<path class="st87" d="M825,359.7h37v3.2h-37c-0.9,0-1.6-0.7-1.6-1.6C823.4,360.4,824.1,359.7,825,359.7L825,359.7z"/>
						<path class="st89" d="M874.1,359.7H862v3.2h12.1c0.9,0,1.6-0.7,1.6-1.6C875.7,360.4,875,359.7,874.1,359.7L874.1,359.7z"/>
					</g>
					<g>
						<path class="st87" d="M825,378.9h37v3.2h-37c-0.9,0-1.6-0.7-1.6-1.6C823.4,379.6,824.1,378.9,825,378.9L825,378.9z"/>
						<path class="st89" d="M874.1,378.9H862v3.2h12.1c0.9,0,1.6-0.7,1.6-1.6C875.7,379.6,875,378.9,874.1,378.9L874.1,378.9z"/>
					</g>
					<g>
						<path class="st87" d="M825,398.1h37v3.2h-37c-0.9,0-1.6-0.7-1.6-1.6C823.4,398.9,824.1,398.1,825,398.1L825,398.1z"/>
						<path class="st89" d="M874.1,398.1H862v3.2h12.1c0.9,0,1.6-0.7,1.6-1.6C875.7,398.9,875,398.1,874.1,398.1L874.1,398.1z"/>
					</g>
				</g>
			</g>
			<path class="st90" d="M689.7,417.4v-19.3c0-8.6-7-15.5-15.5-15.5c-8.6,0-15.5,7-15.5,15.5v19.3H689.7z"/>
			<g>
				<defs>
					<filter id="Adobe_OpacityMaskFilter_2_" filterUnits="userSpaceOnUse" x="443.4" y="215.9" width="77" height="28.8">
						<feFlood  style="flood-color:white;flood-opacity:1" result="back"/>
						<feBlend  in="SourceGraphic" in2="back" mode="normal"/>
					</filter>
				</defs>
				<mask maskUnits="userSpaceOnUse" x="443.4" y="215.9" width="77" height="28.8" id="SVGID_5_">
					<g class="st91">
						<defs>
							<filter id="Adobe_OpacityMaskFilter_3_" filterUnits="userSpaceOnUse" x="443.4" y="215.9" width="77" height="28.8">
								<feFlood  style="flood-color:white;flood-opacity:1" result="back"/>
								<feBlend  in="SourceGraphic" in2="back" mode="normal"/>
							</filter>
						</defs>
						<mask maskUnits="userSpaceOnUse" x="443.4" y="215.9" width="77" height="28.8" id="SVGID_5_">
						</mask>
						<linearGradient id="SVGID_6_" gradientUnits="userSpaceOnUse" x1="476.4542" y1="263.6609" x2="487.5667" y2="223.1798">
							<stop  offset="0" style="stop-color:#000000"/>
							<stop  offset="2.942652e-02" style="stop-color:#121212"/>
							<stop  offset="0.1089" style="stop-color:#3D3D3D"/>
							<stop  offset="0.1946" style="stop-color:#646464"/>
							<stop  offset="0.2855" style="stop-color:#848484"/>
							<stop  offset="0.383" style="stop-color:#9E9E9E"/>
							<stop  offset="0.4898" style="stop-color:#B3B3B3"/>
							<stop  offset="0.6104" style="stop-color:#C1C1C1"/>
							<stop  offset="0.7567" style="stop-color:#C9C9C9"/>
							<stop  offset="1" style="stop-color:#CCCCCC"/>
						</linearGradient>
						<path style="mask:url(#SVGID_5_);fill-rule:evenodd;clip-rule:evenodd;fill:url(#SVGID_6_);" d="M467.6,231.6
							c-7.4-8.5-22.8-4-24.2,13.1h77c-0.1-9.9-10.5-12.8-17.1-6.5C502.5,209.7,474.2,209.7,467.6,231.6L467.6,231.6z"/>
					</g>
				</mask>
				<linearGradient id="SVGID_7_" gradientUnits="userSpaceOnUse" x1="476.4542" y1="263.6609" x2="487.5667" y2="223.1798">
					<stop  offset="0" style="stop-color:#FCEFD2"/>
					<stop  offset="0.1708" style="stop-color:#FDF6E6"/>
					<stop  offset="0.3664" style="stop-color:#FEFBF4"/>
					<stop  offset="0.6043" style="stop-color:#FFFEFC"/>
					<stop  offset="1" style="stop-color:#FFFFFF"/>
				</linearGradient>
				<path style="fill-rule:evenodd;clip-rule:evenodd;fill:url(#SVGID_7_);" d="M467.6,231.6c-7.4-8.5-22.8-4-24.2,13.1h77
					c-0.1-9.9-10.5-12.8-17.1-6.5C502.5,209.7,474.2,209.7,467.6,231.6L467.6,231.6z"/>
				<defs>
					<filter id="Adobe_OpacityMaskFilter_4_" filterUnits="userSpaceOnUse" x="415.5" y="233.6" width="22.2" height="11.2">
						<feFlood  style="flood-color:white;flood-opacity:1" result="back"/>
						<feBlend  in="SourceGraphic" in2="back" mode="normal"/>
					</filter>
				</defs>
				<mask maskUnits="userSpaceOnUse" x="415.5" y="233.6" width="22.2" height="11.2" id="SVGID_8_">
					<g class="st95">
						<defs>
							<filter id="Adobe_OpacityMaskFilter_5_" filterUnits="userSpaceOnUse" x="415.5" y="233.6" width="22.2" height="11.2">
								<feFlood  style="flood-color:white;flood-opacity:1" result="back"/>
								<feBlend  in="SourceGraphic" in2="back" mode="normal"/>
							</filter>
						</defs>
						<mask maskUnits="userSpaceOnUse" x="415.5" y="233.6" width="22.2" height="11.2" id="SVGID_8_">
						</mask>
						<linearGradient id="SVGID_9_" gradientUnits="userSpaceOnUse" x1="425.282" y1="249.6137" x2="436.3944" y2="209.1326">
							<stop  offset="0" style="stop-color:#000000"/>
							<stop  offset="2.942652e-02" style="stop-color:#121212"/>
							<stop  offset="0.1089" style="stop-color:#3D3D3D"/>
							<stop  offset="0.1946" style="stop-color:#646464"/>
							<stop  offset="0.2855" style="stop-color:#848484"/>
							<stop  offset="0.383" style="stop-color:#9E9E9E"/>
							<stop  offset="0.4898" style="stop-color:#B3B3B3"/>
							<stop  offset="0.6104" style="stop-color:#C1C1C1"/>
							<stop  offset="0.7567" style="stop-color:#C9C9C9"/>
							<stop  offset="1" style="stop-color:#CCCCCC"/>
						</linearGradient>
						<path style="mask:url(#SVGID_8_);fill-rule:evenodd;clip-rule:evenodd;fill:url(#SVGID_9_);" d="M437.7,244.8
							c-0.8-18.2-19.9-11.3-22.2,0H437.7L437.7,244.8z"/>
					</g>
				</mask>
				<linearGradient id="SVGID_10_" gradientUnits="userSpaceOnUse" x1="425.282" y1="249.6137" x2="436.3944" y2="209.1326">
					<stop  offset="0" style="stop-color:#FCEFD2"/>
					<stop  offset="0.1708" style="stop-color:#FDF6E6"/>
					<stop  offset="0.3664" style="stop-color:#FEFBF4"/>
					<stop  offset="0.6043" style="stop-color:#FFFEFC"/>
					<stop  offset="1" style="stop-color:#FFFFFF"/>
				</linearGradient>
				<path style="fill-rule:evenodd;clip-rule:evenodd;fill:url(#SVGID_10_);" d="M437.7,244.8c-0.8-18.2-19.9-11.3-22.2,0H437.7
					L437.7,244.8z"/>
			</g>
			<g>
				<linearGradient id="SVGID_11_" gradientUnits="userSpaceOnUse" x1="617.8925" y1="473.3751" x2="583.067" y2="399.5566">
					<stop  offset="0" style="stop-color:#6E4732"/>
					<stop  offset="1" style="stop-color:#82760A"/>
				</linearGradient>
				<path style="fill-rule:evenodd;clip-rule:evenodd;fill:url(#SVGID_11_);" d="M481.7,417.4c0-12.9,10.5-23.4,23.4-23.4
					c2.6,0,5.1,0.4,7.5,1.2c-0.3-1.6-0.4-3.3-0.4-5c0-15.8,12.8-28.5,28.5-28.5c7.6,0,14.5,3,19.6,7.8c2.5-7.3,9.4-12.6,17.6-12.6
					c3.5,0,6.7,1,9.5,2.6c-0.4-1.8-0.6-3.7-0.6-5.6c0-15.8,12.8-28.5,28.5-28.5c9.9,0,18.6,5,23.7,12.6c3.1-2.5,7.1-4.1,11.4-4.1
					c9.9,0,18,8.1,18,18v65.5H481.7L481.7,417.4z"/>
				<linearGradient id="SVGID_12_" gradientUnits="userSpaceOnUse" x1="726.5942" y1="422.0925" x2="691.7687" y2="348.274">
					<stop  offset="0" style="stop-color:#6E4732"/>
					<stop  offset="1" style="stop-color:#82760A"/>
				</linearGradient>
				<path class="st84" d="M707.2,324.4c-14.2,0-25.7,11.5-25.7,25.7v67.3h51.5v-67.3C732.9,335.9,721.4,324.4,707.2,324.4z"/>
				<linearGradient id="SVGID_13_" gradientUnits="userSpaceOnUse" x1="696.0565" y1="436.4995" x2="661.2309" y2="362.6812">
					<stop  offset="0" style="stop-color:#6E4732"/>
					<stop  offset="1" style="stop-color:#82760A"/>
				</linearGradient>
				<path style="fill-rule:evenodd;clip-rule:evenodd;fill:url(#SVGID_13_);" d="M674.2,347.9c-10.6,0-19.2,8.6-19.2,19.2v50.3h38.5
					v-50.3C693.4,356.5,684.8,347.9,674.2,347.9z"/>
			</g>
			<path class="st90" d="M688.5,417.4H560.2l0,0c0-12.2,9.9-22,22-22c2.7,0,5.3,0.5,7.7,1.4c0-0.5-0.1-0.9-0.1-1.4
				c0-8.9,7.2-16.1,16.1-16.1c8.7,0,15.9,7,16,15.7c4.1-3,9.1-4.7,14.5-4.7c10,0,18.6,6,22.5,14.6
				C671.9,398.4,687.3,406.5,688.5,417.4L688.5,417.4z"/>
			<path class="st90" d="M704,417.4v-19.3c0-8.6-7-15.5-15.5-15.5c-8.6,0-15.5,7-15.5,15.5v19.3H704z"/>
			<g>
				<polygon class="st102" points="825,371.8 681.9,371.8 683.5,375.8 826.6,375.8 825,371.8 				"/>
				<polygon class="st20" points="880.5,334.1 737.5,334.1 681.9,371.8 825,371.8 880.5,334.1 				"/>
				<polygon class="st103" points="825,371.8 880.5,334.1 936,371.8 934.4,375.8 880.5,339.2 826.6,375.8 825,371.8 				"/>
				<polygon class="st102" points="917.9,371 875.8,342.4 880.5,339.2 934.4,375.8 917.9,375.8 917.9,371 				"/>
				<polygon class="st104" points="917.9,371 875.8,342.4 826.6,375.8 824.3,375.8 824.3,417.4 917.9,417.4 917.9,371 				"/>
				<polygon class="st105" points="824.3,417.4 824.3,380.9 700,380.9 700,417.4 824.3,417.4 				"/>
				<polygon class="st106" points="700,380.9 700,417.4 770.2,417.4 755.8,380.9 700,380.9 				"/>
				<polygon class="st107" points="856.5,355.4 826.6,375.8 824.3,375.8 824.3,417.4 880.9,417.4 856.5,355.4 				"/>
				<polygon class="st108" points="839.8,382.6 899.3,382.6 899.3,417.4 839.8,417.4 839.8,382.6 				"/>
				<polygon class="st109" points="899.3,382.6 902.4,382.6 902.4,417.4 899.3,417.4 899.3,382.6 				"/>
				<polygon class="st110" points="839.8,382.6 863.9,382.6 877.6,417.4 839.8,417.4 839.8,382.6 				"/>
				<polygon class="st106" points="824.3,380.9 824.3,375.8 700,375.8 700,380.9 824.3,380.9 				"/>
				<polygon class="st111" points="775,382.6 803,382.6 803,394.6 775,394.6 775,382.6 				"/>
				<polygon class="st112" points="771.9,382.6 775,382.6 775,394.6 771.9,394.6 771.9,382.6 				"/>
				<polygon class="st113" points="775,382.6 803,382.6 803,385.6 784.3,385.6 787.9,394.6 775,394.6 775,382.6 				"/>
				<polygon class="st112" points="721.3,382.6 724.4,382.6 724.4,394.6 721.3,394.6 721.3,382.6 				"/>
				<polygon class="st114" points="700,375.8 700,380.9 755.8,380.9 753.8,375.8 700,375.8 				"/>
				<polygon class="st111" points="724.4,382.6 752.4,382.6 752.4,394.6 724.4,394.6 724.4,382.6 				"/>
				<polygon class="st113" points="724.4,382.6 752.4,382.6 752.4,385.6 735.1,385.6 738.7,394.6 724.4,394.6 724.4,382.6 				"/>
				<polygon class="st88" points="755.8,334.1 737.5,334.1 681.9,371.8 770.6,371.8 				"/>
			</g>
			<g>
				<rect x="663.1" y="397.5" class="st20" width="2.8" height="20"/>
				<rect x="601.5" y="397.5" class="st20" width="2.8" height="20"/>
				<rect x="539.9" y="397.5" class="st20" width="2.8" height="20"/>
				<rect x="539.9" y="399.7" class="st20" width="249.3" height="3.4"/>
				<rect x="539.9" y="410.6" class="st20" width="249.3" height="3.4"/>
				<rect x="786.4" y="397.5" class="st20" width="2.8" height="20"/>
				<rect x="724.7" y="397.5" class="st20" width="2.8" height="20"/>
			</g>
			<defs>
				<filter id="Adobe_OpacityMaskFilter_6_" filterUnits="userSpaceOnUse" x="581" y="160.6" width="163.6" height="46.9">
					<feFlood  style="flood-color:white;flood-opacity:1" result="back"/>
					<feBlend  in="SourceGraphic" in2="back" mode="normal"/>
				</filter>
			</defs>
			<mask maskUnits="userSpaceOnUse" x="581" y="160.6" width="163.6" height="46.9" id="SVGID_14_">
				<g class="st115">
					<defs>
						<filter id="Adobe_OpacityMaskFilter_7_" filterUnits="userSpaceOnUse" x="581" y="160.6" width="163.6" height="46.9">
							<feFlood  style="flood-color:white;flood-opacity:1" result="back"/>
							<feBlend  in="SourceGraphic" in2="back" mode="normal"/>
						</filter>
					</defs>
					<mask maskUnits="userSpaceOnUse" x="581" y="160.6" width="163.6" height="46.9" id="SVGID_14_">
					</mask>
					<linearGradient id="SVGID_15_" gradientUnits="userSpaceOnUse" x1="640.8362" y1="251.2637" x2="686.209" y2="157.6096">
						<stop  offset="0" style="stop-color:#000000"/>
						<stop  offset="2.389425e-02" style="stop-color:#121212"/>
						<stop  offset="9.433836e-02" style="stop-color:#444444"/>
						<stop  offset="0.1703" style="stop-color:#707070"/>
						<stop  offset="0.2502" style="stop-color:#979797"/>
						<stop  offset="0.3348" style="stop-color:#B7B7B7"/>
						<stop  offset="0.4256" style="stop-color:#D1D1D1"/>
						<stop  offset="0.525" style="stop-color:#E6E6E6"/>
						<stop  offset="0.6374" style="stop-color:#F4F4F4"/>
						<stop  offset="0.7736" style="stop-color:#FCFCFC"/>
						<stop  offset="1" style="stop-color:#FFFFFF"/>
					</linearGradient>
					<path style="mask:url(#SVGID_14_);fill-rule:evenodd;clip-rule:evenodd;fill:url(#SVGID_15_);" d="M604.8,199.4
						c-5.2-9.3-22-8.9-23.8,8.1h163.5c0.9-11-11.6-13-18.7-9c2.7-10.9-11.8-22.8-23.3-9.1c-1-41.1-47.8-34.6-59.1-2.9
						C633.1,174.6,609.9,176.1,604.8,199.4L604.8,199.4z"/>
				</g>
			</mask>
			<linearGradient id="SVGID_16_" gradientUnits="userSpaceOnUse" x1="640.8362" y1="251.2637" x2="686.209" y2="157.6096">
				<stop  offset="0" style="stop-color:#FCEFD2"/>
				<stop  offset="0.1708" style="stop-color:#FDF6E6"/>
				<stop  offset="0.3664" style="stop-color:#FEFBF4"/>
				<stop  offset="0.6043" style="stop-color:#FFFEFC"/>
				<stop  offset="1" style="stop-color:#FFFFFF"/>
			</linearGradient>
			<path style="fill-rule:evenodd;clip-rule:evenodd;fill:url(#SVGID_16_);" d="M604.8,199.4c-5.2-9.3-22-8.9-23.8,8.1h163.5
				c0.9-11-11.6-13-18.7-9c2.7-10.9-11.8-22.8-23.3-9.1c-1-41.1-47.8-34.6-59.1-2.9C633.1,174.6,609.9,176.1,604.8,199.4
				L604.8,199.4z"/>
			<defs>
				<filter id="Adobe_OpacityMaskFilter_8_" filterUnits="userSpaceOnUse" x="564" y="246" width="136.6" height="36.6">
					<feFlood  style="flood-color:white;flood-opacity:1" result="back"/>
					<feBlend  in="SourceGraphic" in2="back" mode="normal"/>
				</filter>
			</defs>
			<mask maskUnits="userSpaceOnUse" x="564" y="246" width="136.6" height="36.6" id="SVGID_17_">
				<g class="st119">
					<defs>
						<filter id="Adobe_OpacityMaskFilter_9_" filterUnits="userSpaceOnUse" x="564" y="246" width="136.6" height="36.6">
							<feFlood  style="flood-color:white;flood-opacity:1" result="back"/>
							<feBlend  in="SourceGraphic" in2="back" mode="normal"/>
						</filter>
					</defs>
					<mask maskUnits="userSpaceOnUse" x="564" y="246" width="136.6" height="36.6" id="SVGID_17_">
					</mask>
					<linearGradient id="SVGID_18_" gradientUnits="userSpaceOnUse" x1="624.2514" y1="307.9319" x2="648.683" y2="230.5655">
						<stop  offset="0" style="stop-color:#000000"/>
						<stop  offset="2.389425e-02" style="stop-color:#121212"/>
						<stop  offset="9.433836e-02" style="stop-color:#444444"/>
						<stop  offset="0.1703" style="stop-color:#707070"/>
						<stop  offset="0.2502" style="stop-color:#979797"/>
						<stop  offset="0.3348" style="stop-color:#B7B7B7"/>
						<stop  offset="0.4256" style="stop-color:#D1D1D1"/>
						<stop  offset="0.525" style="stop-color:#E6E6E6"/>
						<stop  offset="0.6374" style="stop-color:#F4F4F4"/>
						<stop  offset="0.7736" style="stop-color:#FCFCFC"/>
						<stop  offset="1" style="stop-color:#FFFFFF"/>
					</linearGradient>
					<path style="mask:url(#SVGID_17_);fill-rule:evenodd;clip-rule:evenodd;fill:url(#SVGID_18_);" d="M588.8,274.6
						c-4.4-12.3-20.9-3.8-24.8,8h136.5c1.8-13.5-13.3-16.4-22.8-5.4c2.7-19.2-22.4-25.6-33.2-7.4C647.1,239,599.9,235.4,588.8,274.6
						L588.8,274.6z"/>
				</g>
			</mask>
			<linearGradient id="SVGID_19_" gradientUnits="userSpaceOnUse" x1="624.2514" y1="307.9319" x2="648.683" y2="230.5655">
				<stop  offset="0" style="stop-color:#FCEFD2"/>
				<stop  offset="0.1708" style="stop-color:#FDF6E6"/>
				<stop  offset="0.3664" style="stop-color:#FEFBF4"/>
				<stop  offset="0.6043" style="stop-color:#FFFEFC"/>
				<stop  offset="1" style="stop-color:#FFFFFF"/>
			</linearGradient>
			<path class="st99" d="M588.8,274.6c-4.4-12.3-20.9-3.8-24.8,8h136.5c1.8-13.5-13.3-16.4-22.8-5.4c2.7-19.2-22.4-25.6-33.2-7.4
				C647.1,239,599.9,235.4,588.8,274.6L588.8,274.6z"/>
		</g>
		<g>
			<path class="st50" d="M973.4,460.1l-20.8,0.1l0.1-0.2l-18.8,0.1v8c0,0,0,0.1,0,0.1c13.3-0.7,30.5-1.1,49.3-1.1
				c10.5,0,20.6,0.1,29.7,0.4v-7.2L973.4,460.1z"/>
			<path class="st77" d="M1030.1,468.1v0.2c0,1.7-1.3,3-3,3h-11.2c-1.7,0-3-1.3-3-3v-0.8c-9.1-0.2-19.2-0.4-29.7-0.4
				c-18.8,0-36.1,0.4-49.3,1.1c-0.1,1.6-1.4,2.9-3,2.9h-11.2c-1.2,0-2.2-0.7-2.7-1.6c-6.2,0.6-9.7,1.4-9.7,2.2
				c0,2.5,34,4.5,75.9,4.5c41.9,0,75.9-2,75.9-4.5C1059.1,470.2,1047.8,468.9,1030.1,468.1z"/>
			<path class="st52" d="M1039.6,382.1c-0.8,0-1.5-0.7-1.5-1.5l0,0C1038,381.4,1038.7,382.1,1039.6,382.1l1.6,0c0,0,0,0,0,0H1039.6z
				"/>
			<path class="st52" d="M1044.1,382.5c0,1-0.5,1.8-1.2,2.4l-5.8,4.1v0l5.8-4.1C1043.7,384.3,1044.1,383.4,1044.1,382.5l0-0.4h0
				V382.5z"/>
			<path class="st52" d="M1048.4,382.1h-4.2v0L1048.4,382.1c1.4,0,2.5-1.1,2.5-2.5C1050.8,381,1049.7,382.1,1048.4,382.1z"/>
			<rect x="1044.1" y="382.1" class="st52" width="0" height="0"/>
			<polygon class="st52" points="905,365.8 905,365.8 905.4,365.8 			"/>
			<path class="st52" d="M905.6,381.8c0,0.1,0,0.2,0.1,0.3h1.6c0.8,0,1.5-0.7,1.5-1.5l-0.6-13.3c0-0.8-0.7-1.4-1.5-1.4h-1.2v14.5
				L905.6,381.8z"/>
			<path class="st52" d="M909.7,386.4l0-0.2l0,0l0-0.8l-2.4-1.2c-0.8-0.4-1.4-1.2-1.6-2h-0.2H905h-2.4v0.4c0,0.9,0.5,1.8,1.2,2.4
				l5.8,4.1L909.7,386.4L909.7,386.4z"/>
			<path class="st52" d="M905.4,380.3v1.8h0.2c0-0.1,0-0.2-0.1-0.3L905.4,380.3z"/>
			<path class="st53" d="M905,380.3v-14.4l-5.6,0.1c-1.3,0-2.3,1-2.4,2.3l-1.1,11.2c-0.1,1.5,1,2.7,2.5,2.7h4.2v-1.8H905z"/>
			<polygon class="st53" points="905.4,380.3 905.4,365.8 905,365.8 905,380.3 			"/>
			<rect x="902.6" y="380.3" class="st53" width="2.4" height="1.8"/>
			<rect x="905" y="380.3" class="st53" width="0.4" height="1.8"/>
			<path class="st54" d="M1030.1,468.1C1030.1,468.1,1030.1,468.1,1030.1,468.1l0-7.9c0,0,0,0,0,0V468.1z"/>
			<path class="st55" d="M933.9,468.1v-8l-14.9,0.1c-0.8,0-1.5-0.1-2.3-0.2v8.2c0,0.5,0.1,0.9,0.3,1.4c4.4-0.5,10.1-0.9,16.9-1.2
				C933.9,468.1,933.9,468.1,933.9,468.1z"/>
			<path class="st55" d="M919.6,471.1h11.2c1.6,0,2.9-1.3,3-2.9c-6.8,0.3-12.5,0.8-16.9,1.2C917.5,470.4,918.5,471.1,919.6,471.1z"
				/>
			<path class="st53" d="M907.3,441.9l0-0.7c0,0,0.2,1.3,10.8,2.1h15.8v0.6c3.4,0,7.3,0,11.7,0l2.2,1.1c-0.6-0.3-0.4-1.1,0.2-1.1
				h11.1l0.9-2.3l-7.8,0c-11.3,0-16.3-10.4-17.8-14.6c-0.3-0.9,0.3-1.8,1.3-1.8h2.4h28.7l1.1-2.6h-41.7c-0.3,0-0.7-0.1-1-0.3
				c-3-0.1-14.1-0.3-17-1.8l0.5-10.7c0,0,0,0,0,0l-1.7,37.9c-0.3,6,4,11.1,9.6,12.2v-15.3C911.4,444.1,907.5,443.2,907.3,441.9z
				 M909.8,429.2c0.3-1,1.4-1.5,2.4-1.2l14.6,4.1c1,0.3,1.9,1,2.2,2l1,2.5c0.4,1,0.3,2-0.2,2.9c-0.7,1.1-1.9,1.8-3.2,1.7l-15-1.3
				c-0.7-0.1-1.3-0.5-1.6-1.2C909.3,437,908.3,433.7,909.8,429.2z"/>
			<path class="st53" d="M919.9,326.7h52.8h0.7h33.5l4.2-10.3l-10.9-1.3c-8.9-1-17.9-1.5-26.8-1.5c-9,0-17.9,0.5-26.8,1.5l-28.7,3.3
				c-2.9,0.3-5.1,2.7-5.2,5.6l-0.4,9.7C912.4,329.9,915.8,326.7,919.9,326.7z"/>
			<path class="st53" d="M1038.4,418.1l0.1,2.3c0,0,0,0,0,0l0.9,20.9c0,0,0,0,0,0l0,0.7c0,0,0,0,0,0l0.3,5.9c0,0.3,0,0.6,0,0.9
				c0-0.3,0-0.7,0-1l-1.7-37.9c0,0,0,0,0,0L1038.4,418.1z"/>
			<path class="st53" d="M956.8,449.7l-0.5,0c0,0-7.3-0.5-11-4.3c0,0-5.1,0.1-11.5,0V460l18.8-0.1L956.8,449.7z M942.5,455.4
				c-2.3,0-4.1-1.8-4.1-4.1c0-2.3,1.8-4.1,4.1-4.1c2.3,0,4.1,1.8,4.1,4.1C946.6,453.6,944.8,455.4,942.5,455.4z"/>
			<polygon class="st53" points="1037.9,407.3 1037.9,407.3 1038,407.4 1037.1,389 1037.1,389 			"/>
			<path class="st53" d="M923.4,408.9l-0.7-8.6c0-0.5,0.1-1,0.5-1.3c0.3-0.4,0.8-0.6,1.3-0.6h48.9v0.5h-48.9c-0.4,0-0.7,0.1-1,0.4
				c-0.3,0.3-0.4,0.6-0.3,0.9l0.7,8.7c18.2,1,44.6,0.8,48.9,0.7l0,0c0,0,0.1,0,0.3,0c0,0,0,0,0.1,0l4.4-10.8h-4.1v-0.5h4.3l3.3-8.2
				l-7.7,0.2l-25.4-0.5l-3.5,4.7c0.4,0.2,0.6,0.6,0.6,1.1c0,0.7-0.6,1.3-1.3,1.3H941c-0.7,0-1.3-0.6-1.3-1.3s0.6-1.3,1.3-1.3h1.8
				l3.6-4.5l-34.8-0.7v1.2l-1.8-1.3l-0.1,0l0,0l0,0l-0.8,18.4l0,0C911.7,408.1,917,408.6,923.4,408.9z"/>
			<polygon class="st53" points="911.8,341 911.9,338.6 910.9,360 911.1,355.9 			"/>
			
				<rect x="1037.1" y="389" transform="matrix(0.9981 -6.237830e-02 6.237830e-02 0.9981 -22.2445 65.4518)" class="st53" width="0" height="0"/>
			<polygon class="st53" points="911.5,390.3 911.5,389.1 909.7,389 			"/>
			<polygon class="st53" points="909.8,386.4 909.8,386.4 909.6,389 909.7,389 			"/>
			<path class="st53" d="M933.9,443.4h-15.8c3.8,0.3,8.9,0.5,15.8,0.6V443.4z"/>
			<path class="st53" d="M933.9,460v-14.7c-5.5-0.1-12-0.3-17.2-0.8v15.3c0.7,0.1,1.5,0.2,2.3,0.2L933.9,460z"/>
			<polygon class="st54" points="909.7,389 909.7,389 909.7,389 			"/>
			<polygon class="st54" points="1002.5,337.5 981.3,337.5 1002.5,337.5 			"/>
			<polygon class="st54" points="911.8,341 911.1,355.9 911.5,347.7 			"/>
			<polygon class="st55" points="911.5,386.4 911.5,389.1 946.4,389.8 948.8,386.8 			"/>
			<polygon class="st54" points="924.5,337.6 971.1,337.4 924.6,337.6 			"/>
			<polygon class="st55" points="975.5,387 975.5,386.8 975.5,380.2 975.5,337.4 973.1,337.4 971.3,337.4 971.3,380.2 971.3,386.8 
				971.3,387 950.3,386.8 948,389.8 973.4,390.4 981.1,390.2 982.4,386.9 			"/>
			<polygon class="st55" points="909.8,386.4 909.7,389 909.7,389 911.5,389.1 911.5,386.4 			"/>
			<path class="st52" d="M968.8,420.4l3.3-8.2c-1.9,0-5.9,0.1-11,0.1c-10.4,0-25.4-0.1-37-0.8l0.8,9.5c0.1,0.6,0.6,1.1,1.3,1.1h9.1
				v-1.7H968.8z M930.3,415.9c-0.6,0-1-0.5-1-1c0-0.6,0.5-1,1-1c0.6,0,1,0.5,1,1C931.3,415.4,930.9,415.9,930.3,415.9z"/>
			<polygon class="st52" points="1038.5,420.4 1038.4,418.1 1038.5,420.5 			"/>
			<path class="st52" d="M924.4,421l-0.8-9.5c-6.4-0.4-11.8-0.9-14.8-1.7l-0.5,10.7c3,1.5,14,1.8,17,1.8
				C924.8,422,924.4,421.5,924.4,421z"/>
			<polygon class="st56" points="1037.1,385.3 1036.9,382.8 1037.1,385.3 			"/>
			<polygon class="st57" points="978.2,362.8 977.9,380.2 982.2,380.2 983.7,377.2 986.3,377.2 987.3,374.8 			"/>
			<path class="st57" d="M976.9,361C976.9,360.9,976.9,360.9,976.9,361l1.2-21.3c0-0.7,0.7-0.6,0.7,0.1l-0.5,21.4l0,0.8l9.5,12
				l14.8-36.3l-21.2-0.1l-0.1,0l-5.8,0v0v42.7h1.7L976.9,361z"/>
			<polygon class="st55" points="973.4,398.4 973.4,398.9 977.5,398.9 977.7,398.4 			"/>
			<path class="st52" d="M911.6,439.8l15,1.3c1.3,0.1,2.6-0.5,3.2-1.7c0.5-0.9,0.6-2,0.2-2.9l-1-2.5c-0.4-1-1.2-1.7-2.2-2l-14.6-4.1
				c-1-0.3-2,0.3-2.4,1.2c-1.5,4.5-0.6,7.9,0.1,9.5C910.2,439.3,910.9,439.8,911.6,439.8z M910.2,432.6c0-2.1,2-3.7,4.1-3.1
				l10.1,2.8c1.4,0.4,2.4,1.7,2.4,3.1c0,1.8-1.5,3.3-3.4,3.2l-10.1-0.4c-1.7-0.1-3.1-1.5-3.1-3.2V432.6z"/>
			<path class="st52" d="M912.1,334.1l-0.1,2.4l0,0l0,0l-0.1,1.1h0l0,1l0.2-4.8C912.1,333.9,912.1,334,912.1,334.1z"/>
			<path class="st52" d="M912,337.1l61.4-0.4l29.4,0.2l4.1-10.2h-33.5h-0.7h-52.8c-4.1,0-7.5,3.1-7.8,7.1l-0.2,4.8l-0.1,2.4
				L912,337.1z"/>
			<path class="st52" d="M911.7,343.1c0-0.8,0.2-1.5,0.5-2.2c0.1-0.3,0.3-0.6,0.5-0.9c0.3-0.4,0.7-0.8,1.1-1.2
				c0.3-0.2,0.6-0.4,0.9-0.6c0.3-0.2,0.6-0.3,1-0.4c0.5-0.2,1-0.2,1.6-0.2l7.3,0l0,0l46.6-0.2l0.1,0h0l0,0h0v0l1.8,0l2.4,0v0l5.8,0
				l21.2,0.1l0.3-0.6l-29.4-0.2l-61.4,0.4l-0.2,3.9l-0.3,6.6L911.7,343.1z"/>
			<polygon class="st52" points="981.3,337.5 975.5,337.4 981.3,337.5 			"/>
			<polygon class="st56" points="909.7,386.1 909.7,385.3 909.7,385.3 909.7,386.1 			"/>
			<polygon class="st56" points="910,380.2 911.1,355.9 910.9,360 910,380.2 			"/>
			<path class="st57" d="M938.3,365.7c0.3-1.2,1.4-2.1,2.6-2.1h9.3c1.4,0,2.5,1,2.7,2.3l1.6,13.6l14-17.7l0-0.8l-0.5-21.4
				c0-0.7,0.6-0.8,0.7-0.1l1.2,21.2c0,0,0,0,0,0.1l-0.3,19.2h1.7v-42.7h0v0h0l-0.1,0l0,0l-46.6,0.2l0,0l-7.3,0
				c-0.6,0-1.1,0.1-1.6,0.2c-0.3,0.1-0.7,0.2-1,0.4c-0.3,0.2-0.6,0.4-0.9,0.6c-0.4,0.3-0.8,0.7-1.1,1.2c-0.2,0.3-0.4,0.6-0.5,0.9
				c-0.3,0.7-0.5,1.4-0.5,2.2l-0.2,4.5l0,0l-0.4,8.2l-1.1,24.3h25L938.3,365.7z"/>
			<polygon class="st57" points="955.3,380.2 968.9,380.2 968.5,362.8 			"/>
			<path class="st56" d="M911.5,347.7L911.5,347.7l0.2-4.5c0-0.8,0.2-1.5,0.5-2.2c-0.3,0.7-0.5,1.4-0.5,2.2L911.5,347.7z"/>
			<path class="st56" d="M912.8,340.1c0.3-0.4,0.7-0.8,1.1-1.2C913.4,339.2,913.1,339.6,912.8,340.1z"/>
			<polygon class="st56" points="971.2,337.4 971.3,337.4 971.1,337.4 			"/>
			<polygon class="st56" points="924.5,337.6 924.5,337.6 917.3,337.7 			"/>
			<path class="st56" d="M912.8,340.1c-0.2,0.3-0.4,0.6-0.5,0.9C912.4,340.7,912.6,340.4,912.8,340.1z"/>
			<path class="st56" d="M915.7,337.9c-0.3,0.1-0.7,0.2-1,0.4C915,338.1,915.3,338,915.7,337.9z"/>
			<rect x="971.3" y="337.4" class="st56" width="0" height="0"/>
			<path class="st57" d="M913.3,438.2l10.1,0.4c1.8,0.1,3.4-1.4,3.4-3.2c0-1.4-1-2.7-2.4-3.1l-10.1-2.8c-2.1-0.6-4.1,1-4.1,3.1v2.4
				C910.2,436.7,911.6,438.2,913.3,438.2z"/>
			<polygon class="st54" points="1038.1,409.8 1038.1,409.8 1038,407.4 1038,407.7 			"/>
			<path class="st54" d="M908.7,409.8C908.7,409.8,908.7,409.8,908.7,409.8l0.2-2.4L908.7,409.8z"/>
			<polygon class="st54" points="1037.9,407.3 1038,407.5 1038,407.7 1038,407.4 1037.9,407.3 			"/>
			<path class="st55" d="M908.8,408.5c0,0,1.9,1.4,14.7,1.4l-0.1-1c-6.4-0.4-11.7-0.9-14.5-1.6l0,0l-0.1,2.4c0,0,0,0,0,0
				L908.8,408.5z"/>
			<path class="st55" d="M972.6,410.9l0.5-1.2c0,0,0,0-0.1,0c-0.2,0-0.3,0-0.3,0l0,0c-4.2,0-30.7,0.3-48.9-0.7l0.1,1L972.6,410.9z"
				/>
			<path class="st55" d="M923.4,409.9c-12.8,0-14.7-1.4-14.7-1.4l-0.1,1.3c3,0.8,8.4,1.3,14.8,1.7L923.4,409.9z"/>
			<path class="st55" d="M972.1,412.2l0.5-1.3l-48.7-1l0.1,1.5c11.7,0.6,26.6,0.8,37,0.8C966.2,412.2,970.2,412.2,972.1,412.2z"/>
			<path class="st52" d="M942.5,447.2c-2.3,0-4.1,1.8-4.1,4.1c0,2.3,1.8,4.1,4.1,4.1c2.3,0,4.1-1.8,4.1-4.1
				C946.6,449.1,944.8,447.2,942.5,447.2z M942.6,454.5c-1.8,0-3.3-1.5-3.3-3.3s1.5-3.3,3.3-3.3s3.3,1.5,3.3,3.3
				S944.4,454.5,942.6,454.5z"/>
			<path class="st57" d="M942.6,447.9c-1.8,0-3.3,1.5-3.3,3.3s1.5,3.3,3.3,3.3s3.3-1.5,3.3-3.3S944.4,447.9,942.6,447.9z"/>
			<path class="st58" d="M944.2,394.8c0.1,0.2,0.2,0.5,0.2,0.7c0,0.7-0.6,1.3-1.3,1.3s-1.3-0.6-1.3-1.3c0-0.5,0.4-1,0.8-1.2l0.1-0.1
				H941c-0.7,0-1.3,0.6-1.3,1.3s0.6,1.3,1.3,1.3h2.8c0.7,0,1.3-0.6,1.3-1.3c0-0.5-0.3-0.9-0.6-1.1L944.2,394.8L944.2,394.8z"/>
			<path class="st52" d="M942.7,394.4c-0.5,0.2-0.8,0.6-0.8,1.2c0,0.7,0.6,1.3,1.3,1.3s1.3-0.6,1.3-1.3c0-0.3-0.1-0.5-0.2-0.7h-1.8
				L942.7,394.4z"/>
			<path class="st52" d="M951.4,439.7c-2.4,0-4.6-0.8-6.4-1.9c-0.3-0.2-0.5-0.6-0.4-0.9c0.1-0.4,0.4-0.7,0.8-0.7h16.9l0.9-2.1h-20.8
				c-0.9,0-1.8-0.4-2.4-1.2c-1.5-2.1-2.5-4.2-3.1-5.8c-0.4-1,0.3-2,1.4-2h-2.4c-0.9,0-1.6,0.9-1.3,1.8c1.6,4.3,6.5,14.6,17.8,14.6
				l7.8,0l0.8-1.9H951.4z"/>
			<path class="st55" d="M944.6,437c-0.1,0.4,0.1,0.7,0.4,0.9c1.8,1.1,3.9,1.8,6.4,1.9h9.5l1.4-3.4h-16.9
				C945,436.3,944.7,436.6,944.6,437z"/>
			<path class="st55" d="M936.8,427.2c0.6,1.5,1.6,3.7,3.1,5.8c0.5,0.8,1.4,1.2,2.4,1.2h20.8l3.7-9h-28.7
				C937.1,425.2,936.4,426.2,936.8,427.2z"/>
			<path class="st55" d="M930.3,413.9c-0.6,0-1,0.5-1,1c0,0.6,0.5,1,1,1c0.6,0,1-0.5,1-1C931.3,414.3,930.9,413.9,930.3,413.9z"/>
			<polygon class="st55" points="968.8,420.4 935.3,420.4 935.3,422.1 968.1,422.1 			"/>
			<path class="st55" d="M959.2,443.9H948c-0.6,0-0.8,0.9-0.2,1.1l9.6,3.1L959.2,443.9z"/>
			<path class="st55" d="M923.1,400.2c0-0.3,0.1-0.7,0.3-0.9c0.3-0.3,0.6-0.4,1-0.4h48.9v-0.5h-48.9c-0.5,0-1,0.2-1.3,0.6
				c-0.3,0.4-0.5,0.8-0.5,1.3l0.7,8.6c0.2,0,0.3,0,0.5,0L923.1,400.2z"/>
			<path class="st55" d="M935.3,422.3H926c0,0-0.3,0-0.8,0c0.3,0.2,0.6,0.3,1,0.3h41.7l0.1-0.2H935.3z"/>
			<path class="st55" d="M935.3,422.3v-0.2h-9.1c-0.7,0-1.2-0.5-1.3-1.1l-0.8-9.5c-0.2,0-0.4,0-0.5,0l0.8,9.5c0,0.6,0.4,1.1,0.9,1.3
				c0.5,0,0.8,0,0.8,0H935.3z"/>
			<path class="st55" d="M924,409.9l-0.1-1c-0.2,0-0.4,0-0.5,0l0.1,1c0.1,0,0.1,0,0.2,0L924,409.9z"/>
			<path class="st55" d="M924.1,411.5l-0.1-1.5l-0.4,0c-0.1,0-0.1,0-0.2,0l0.1,1.5C923.7,411.5,923.9,411.5,924.1,411.5z"/>
			<polygon class="st55" points="935.3,422.1 935.3,422.3 968,422.3 968.1,422.1 			"/>
			<polygon class="st55" points="975.5,386.8 975.5,387 982.4,386.9 982.5,386.7 			"/>
			<path class="st59" d="M986.3,377.2h-2.6l-1.5,2.9h-4.3l-0.1,2.6c0,0.7-0.6,0.7-0.7,0l0-2.6h-1.7v6.6l7-0.1L986.3,377.2z"/>
			<polygon class="st60" points="909.7,386.1 909.7,386.4 909.8,386.4 909.8,386.1 			"/>
			<polygon class="st60" points="909.8,386.1 909.8,386.4 909.8,386.4 909.8,386.1 			"/>
			<polygon class="st55" points="950.3,386.8 971.3,387 971.3,386.8 950.5,386.6 			"/>
			<polygon class="st55" points="911.5,386.2 911.5,386.4 948.8,386.8 948.9,386.5 			"/>
			<polygon class="st55" points="911.5,386.2 909.8,386.1 909.8,386.4 911.5,386.4 			"/>
			<polygon class="st60" points="910,380.2 910,380.2 909.7,385.3 909.8,385.3 			"/>
			<polygon class="st60" points="909.8,385.3 909.7,385.3 909.7,386.1 909.8,386.1 			"/>
			<polygon class="st60" points="909.8,385.3 910,380.2 910,380.2 909.8,385.3 			"/>
			<polygon class="st60" points="909.8,385.3 909.8,386.1 909.8,386.1 909.8,385.3 			"/>
			<path class="st59" d="M969.6,382.7c0,0.7-0.6,0.7-0.7,0l-0.1-2.6h-13.5l-4.9,6.4l20.8,0.2v-6.6h-1.7L969.6,382.7z"/>
			<path class="st59" d="M911.5,386.1L911.5,386.1l37.4,0.4l5.6-7l-1.6-13.6c-0.2-1.3-1.3-2.3-2.7-2.3h-9.3c-1.3,0-2.3,0.9-2.6,2.1
				l-3.2,14.4h-25l-0.2,5.2L911.5,386.1z"/>
			<g>
				<polygon class="st59" points="910,380.2 910.9,360 909.7,385.3 909.7,385.3 910,380.2 				"/>
				<polygon class="st59" points="909.8,385.3 909.8,386.1 911.5,386.2 911.5,386.1 				"/>
			</g>
			<path class="st53" d="M977.4,361.8v-0.9l0.8,1l0-0.8l0.5-21.4c0-0.7-0.6-0.8-0.7-0.1l-1.2,21.2c0,0,0,0,0,0.1l0.3,19.2h0.7
				l0.3-17.3L977.4,361.8z"/>
			<path class="st53" d="M977.2,382.7c0,0.7,0.6,0.7,0.7,0l0.1-2.6h-0.7L977.2,382.7z"/>
			<path class="st53" d="M969.3,361.8l-0.8,1.1l0.3,17.3h0.7l0.3-19.2c0,0,0,0,0-0.1l-1.2-21.2c0-0.7-0.7-0.6-0.7,0.1l0.5,21.4
				l0,0.8l0.8-1V361.8z"/>
			<path class="st53" d="M968.9,382.7c0,0.7,0.6,0.7,0.7,0l0-2.6h-0.7L968.9,382.7z"/>
			<path class="st52" d="M918.1,443.4c-10.6-0.8-10.8-2.1-10.8-2.1l0,0.7c0.3,1.3,4.2,2.1,9.4,2.6v-1.2H918.1z"/>
			<path class="st52" d="M945.4,445.4c3.7,3.8,11,4.3,11,4.3l0.5,0l0.5-1.3c-1.5-0.2-3-0.6-4.4-1.2l-5.1-2.2l-2.2-1.1
				c-4.4,0-8.3,0-11.7,0v1.4C940.3,445.5,945.4,445.4,945.4,445.4z"/>
			<path class="st52" d="M1039.5,441.9l0-0.7c0,0,0,0,0,0L1039.5,441.9C1039.5,442,1039.5,441.9,1039.5,441.9z"/>
			<path class="st52" d="M918.1,443.4h-1.4v1.2c5.2,0.5,11.7,0.7,17.2,0.8V444C927,443.9,921.8,443.7,918.1,443.4z"/>
			<path class="st55" d="M957.3,448.4l0.1-0.2l-9.6-3.1l5.1,2.2C954.3,447.8,955.8,448.2,957.3,448.4z"/>
			<polygon class="st52" points="987.3,374.8 987.7,373.8 978.3,361.9 978.2,362.8 			"/>
			<polygon class="st52" points="977.4,361.8 978.2,362.8 978.3,361.9 977.4,360.8 			"/>
			<path class="st52" d="M942.8,394.3h0.4h0.6c0.3,0,0.5,0.1,0.7,0.2l3.5-4.7l-1.6,0L942.8,394.3z"/>
			<polygon class="st52" points="948.8,386.8 946.4,389.8 948,389.8 950.3,386.8 			"/>
			<polygon class="st52" points="955.3,380.2 968.5,362.8 968.5,361.9 954.5,379.5 954.6,380.2 			"/>
			<path class="st52" d="M943.2,394.3h-0.4l-0.1,0.1C942.9,394.3,943,394.3,943.2,394.3z"/>
			<path class="st52" d="M943.2,394.3c0.4,0,0.8,0.2,1,0.5h0l0.3-0.3c-0.2-0.1-0.4-0.2-0.7-0.2H943.2z"/>
			<path class="st52" d="M942.4,394.8h1.8c-0.2-0.3-0.6-0.5-1-0.5c-0.1,0-0.3,0-0.4,0.1L942.4,394.8z"/>
			<polygon class="st52" points="948.9,386.5 948.8,386.8 950.3,386.8 950.5,386.6 			"/>
			<polygon class="st52" points="955.3,380.2 954.6,380.2 954.5,379.5 948.9,386.5 950.5,386.6 			"/>
			<polygon class="st52" points="969.3,361.8 969.3,360.8 968.5,361.9 968.5,362.8 			"/>
			<path class="st58" d="M1034.2,324.1l0.4,9.8c0,0,0,0.1,0,0.1l0.1,2.4h0l0,0l0.1,1.1h0l0,0.2l1,22.1l1.1,22.8l-1.1-22.9l-1-22.2
				l0-0.2h0l-0.1-1.1l0,0h0l-0.1-2.4c0,0,0-0.1,0-0.1l-0.4-9.9c-0.1-2.9-2.4-5.3-5.2-5.6l-17.8-2.1l-0.1,0.2l17.9,2.1
				C1031.9,318.8,1034.1,321.2,1034.2,324.1z"/>
			<path class="st52" d="M1039.5,384.1c0.8-0.4,1.4-1.2,1.6-2h0C1040.9,383,1040.3,383.7,1039.5,384.1l-2.4,1.1l0,0L1039.5,384.1z"
				/>
			<path class="st58" d="M1030.1,459.9v0.2c5.4-1,9.5-5.7,9.6-11.4C1039.5,454.3,1035.5,458.9,1030.1,459.9z"/>
			<polygon class="st58" points="1012.9,460 973.4,459.8 952.6,459.9 952.6,460.2 973.4,460.1 1012.9,460.3 1012.9,467.5 
				1012.9,467.5 			"/>
			<polygon class="st58" points="1030.1,468.1 1030.1,468.1 1030.1,468.1 			"/>
			<path class="st58" d="M1038.1,409.8C1038.1,409.8,1038.1,409.8,1038.1,409.8L1038.1,409.8
				C1038.1,409.8,1038.1,409.8,1038.1,409.8L1038.1,409.8z"/>
			<path class="st52" d="M1040.1,365.8h1.2h0.4v0l5.6,0.1c1.3,0,2.3,1,2.4,2.3l1.1,11.2c0,0.1,0,0.2,0,0.2c0-0.1,0-0.2,0-0.3
				l-1.1-11.2c-0.1-1.3-1.2-2.2-2.4-2.3l-5.6-0.1v0L1040.1,365.8c-0.8-0.1-1.4,0.6-1.5,1.3l-0.6,13.4c0,0,0,0,0,0l0.6-13.3
				C1038.7,366.4,1039.3,365.8,1040.1,365.8z"/>
			<path class="st58" d="M1041.2,381.8l0.2-1.5v-14.5h-1.2c-0.8,0-1.4,0.6-1.5,1.4l-0.6,13.3c0,0.8,0.6,1.5,1.5,1.5h1.6c0,0,0,0,0,0
				h0C1041.1,382,1041.2,381.9,1041.2,381.8z"/>
			<polygon class="st52" points="1041.7,365.8 1041.4,365.8 1041.7,365.8 			"/>
			<path class="st58" d="M1037.1,386.1l0,0.2l-0.1,0l0.1,2.6l5.8-4.1c0.8-0.6,1.2-1.5,1.2-2.4v-0.4h-2.4h-0.4h-0.2
				c-0.2,0.9-0.8,1.6-1.6,2l-2.4,1.2L1037.1,386.1L1037.1,386.1z"/>
			<path class="st52" d="M1041.4,380.3l-0.2,1.5c0,0.1,0,0.2-0.1,0.3h0.2V380.3z"/>
			<path class="st52" d="M1049.8,368.2c-0.1-1.3-1.2-2.2-2.4-2.3l-5.6-0.1v14.4h2.4v1.8h4.2c1.4,0,2.5-1.1,2.5-2.5
				c0-0.1,0-0.2,0-0.2L1049.8,368.2z"/>
			<polygon class="st52" points="1041.7,365.8 1041.4,365.8 1041.4,380.3 1041.7,380.3 			"/>
			<polygon class="st52" points="1044.1,382.1 1044.1,382.1 1044.1,382.1 1044.1,380.3 1041.7,380.3 1041.7,382.1 			"/>
			<rect x="1041.4" y="380.3" class="st52" width="0.4" height="1.8"/>
			<path class="st54" d="M1027.8,460.1l-14.9-0.1v7.4c0,0,0,0,0,0v0.8c0,1.7,1.3,3,3,3h11.2c1.7,0,3-1.3,3-3v-0.2c0,0,0,0,0,0
				c0,0,0,0,0,0v-7.9c0,0,0,0,0,0v-0.2C1029.4,460,1028.6,460.1,1027.8,460.1z"/>
			<path class="st52" d="M1023.7,399c0.3,0.4,0.5,0.8,0.5,1.3l-0.7,8.6c6.4-0.4,11.7-0.9,14.5-1.6l-0.8-18.3l0,0l0,0l-0.1,0
				l-1.8,1.3v-1.2l-34.8,0.7l3.6,4.5h1.8c0.7,0,1.3,0.6,1.3,1.3s-0.6,1.3-1.3,1.3h-2.8c-0.7,0-1.3-0.6-1.3-1.3
				c0-0.5,0.3-0.9,0.6-1.1l-3.5-4.7l-17.7,0.4l-3.3,8.2h44.6C1022.8,398.4,1023.3,398.6,1023.7,399z"/>
			<polygon class="st58" points="1035.6,355 1035.8,360 1034.8,337.9 1035,341.3 			"/>
			<path class="st52" d="M1001.4,445.4c-3.7,3.8-11,4.3-11,4.3l-17,0.2l-16.6-0.2l-4.2,10.2l20.7-0.1l39.5,0.2v-14.7
				C1006.5,445.5,1001.4,445.4,1001.4,445.4z M1004.2,455.4c-2.3,0-4.1-1.8-4.1-4.1c0-2.3,1.8-4.1,4.1-4.1c2.3,0,4.1,1.8,4.1,4.1
				C1008.3,453.6,1006.5,455.4,1004.2,455.4z"/>
			<path class="st58" d="M1038,409.8l0.4,8.3L1038,409.8C1038.1,409.8,1038.1,409.8,1038,409.8L1038,409.8
				C1038.1,409.8,1038,409.8,1038,409.8z"/>
			<path class="st52" d="M1039.5,442c-0.3,1.3-4.2,2.1-9.4,2.6v15.3c5.3-1,9.4-5.6,9.6-11.1c0-0.3,0-0.6,0-0.9L1039.5,442z"/>
			<polygon class="st58" points="988.5,448.5 988.5,448.5 988.5,448.5 			"/>
			<path class="st52" d="M1026.8,326.7c4.2,0,7.7,3.2,7.9,7.2l-0.4-9.8c-0.1-2.9-2.4-5.3-5.2-5.6l-17.9-2.1l-4.2,10.3H1026.8z"/>
			<path class="st52" d="M998.7,443.9c0.6,0,0.8,0.9,0.2,1.1l2.2-1.1c4.4,0,8.3,0,11.7,0v-0.6h15.8c9.8-0.7,10.7-1.9,10.8-2.1
				l-0.9-20.9c-3,1.5-14,1.8-17,1.8c-0.3,0.2-0.6,0.3-1,0.3h-47.2v-0.2h0v0.2h-5.5l-1.1,2.6h6.6h35.2h2.4c0.9,0,1.6,0.9,1.3,1.8
				c-1.6,4.3-6.5,14.6-17.8,14.6l-21.1,0.1l-13.3-0.1l-0.9,2.3h14.2H998.7z M1016.7,436.5l1-2.5c0.4-1,1.2-1.7,2.2-2l14.6-4.1
				c1-0.3,2,0.3,2.4,1.2c1.5,4.5,0.6,7.9-0.1,9.5c-0.3,0.7-0.9,1.1-1.6,1.2l-15,1.3c-1.3,0.1-2.6-0.5-3.2-1.7
				C1016.4,438.5,1016.4,437.5,1016.7,436.5z"/>
			<path class="st52" d="M973.3,409.7c4.3,0,31.2,0.3,49.5-0.7l0.7-8.7c0-0.3-0.1-0.7-0.3-0.9c-0.3-0.3-0.6-0.4-1-0.4h-44.8
				l-4.4,10.8C973.2,409.7,973.3,409.7,973.3,409.7L973.3,409.7z"/>
			<polygon class="st58" points="958.3,448.5 958.3,448.5 958.3,448.5 			"/>
			<polygon class="st52" points="1035.2,390.3 1037,389 1035.2,389.1 			"/>
			<polygon class="st58" points="1037,386.4 1037.1,389 1037.1,389 1037.1,389 1037.1,389 1037,386.4 			"/>
			<path class="st52" d="M1012.9,443.4v0.6c6.9-0.1,12-0.3,15.8-0.6H1012.9z"/>
			<path class="st52" d="M1012.9,460l14.9,0.1c0.8,0,1.5-0.1,2.3-0.2v-15.3c-5.2,0.5-11.7,0.7-17.2,0.8V460z"/>
			<path class="st58" d="M1035.6,355l-0.6-13.7l0.3,6.4l-0.2-4.5c0-1-0.3-1.9-0.8-2.6c0.4,0.8,0.7,1.7,0.8,2.6L1035.6,355z"/>
			<polygon class="st54" points="998,386.8 1000.4,389.8 1035.2,389.1 1035.2,386.4 			"/>
			<polygon class="st58" points="1037.1,389 1037.1,389 1037,389 			"/>
			<polygon class="st54" points="996.5,386.8 982.4,386.9 981.1,390.2 998.8,389.8 			"/>
			<path class="st58" d="M1029.5,337.7c2,0,3.8,1.1,4.8,2.8C1033.3,338.8,1031.5,337.7,1029.5,337.7l-7.4,0l0,0l-19.6-0.1l0,0
				L1029.5,337.7z"/>
			<polygon class="st54" points="1035.2,386.4 1035.2,389.1 1037,389 1037.1,389 1037,386.4 			"/>
			<path class="st58" d="M1022.4,421c0,0.6-0.4,1.1-0.9,1.3c3-0.1,14.1-0.3,17-1.8l-0.1-2.3l-0.4-8.3c-3,0.8-8.4,1.3-14.8,1.6
				L1022.4,421z"/>
			<path class="st58" d="M973.1,412.2c-0.2,0-0.5,0-0.9,0l-3.3,8.2h4.6h38.1v1.7h9.1c0.7,0,1.2-0.5,1.3-1.1l0.8-9.5
				c-11.8,0.6-27,0.8-37.6,0.8C978.9,412.2,974.4,412.2,973.1,412.2z M1016.5,413.9c0.6,0,1,0.5,1,1c0,0.6-0.5,1-1,1
				c-0.6,0-1-0.5-1-1C1015.5,414.3,1015.9,413.9,1016.5,413.9z"/>
			<path class="st58" d="M1020.2,441.1l15-1.3c0.7-0.1,1.3-0.5,1.6-1.2c0.7-1.6,1.6-5,0.1-9.5c-0.3-1-1.4-1.5-2.4-1.2l-14.6,4.1
				c-1,0.3-1.9,1-2.2,2l-1,2.5c-0.4,1-0.3,2,0.2,2.9C1017.6,440.6,1018.9,441.2,1020.2,441.1z M1022.4,432.3l10.1-2.8
				c2.1-0.6,4.1,1,4.1,3.1v2.4c0,1.7-1.4,3.2-3.1,3.2l-10.1,0.4c-1.8,0.1-3.4-1.4-3.4-3.2C1020,433.9,1021,432.6,1022.4,432.3z"/>
			<polygon class="st58" points="1036.7,380.2 1036.8,380.2 1037.1,385.3 1037.1,385.3 1037.1,385.3 1037.1,385.3 1036.9,382.8 
				1035.8,360 			"/>
			<polygon class="st58" points="1037.1,386.1 1037.1,385.3 1037.1,385.3 1037.1,386.1 			"/>
			<polygon class="st58" points="1036.7,380.2 1036.7,380.2 1035.8,360 1035.6,355 			"/>
			<polygon class="st56" points="987.3,374.8 986.3,377.2 989.2,377.2 			"/>
			<path class="st56" d="M1029.5,337.7l-27-0.1l-14.8,36.3l2.7,3.4h4.9l2.5-11.3c0.3-1.4,1.5-2.3,2.9-2.3h8.7c1.5,0,2.8,1.1,3,2.6
				l1.3,11h11.9l3,2.9h7.9l-1.1-25.2l-0.6-11.8c0-1-0.3-1.9-0.8-2.6C1033.3,338.8,1031.5,337.7,1029.5,337.7z"/>
			<path class="st61" d="M1023.4,438.6l10.1-0.4c1.7-0.1,3.1-1.5,3.1-3.2v-2.4c0-2.1-2-3.7-4.1-3.1l-10.1,2.8
				c-1.4,0.4-2.4,1.7-2.4,3.1C1020,437.2,1021.5,438.6,1023.4,438.6z"/>
			<path class="st58" d="M1004.2,447.2c-2.3,0-4.1,1.8-4.1,4.1c0,2.3,1.8,4.1,4.1,4.1c2.3,0,4.1-1.8,4.1-4.1
				C1008.3,449.1,1006.5,447.2,1004.2,447.2z M1004.2,454.5c-1.8,0-3.3-1.5-3.3-3.3s1.5-3.3,3.3-3.3c1.8,0,3.3,1.5,3.3,3.3
				S1006,454.5,1004.2,454.5z"/>
			<path class="st61" d="M1004.2,447.9c-1.8,0-3.3,1.5-3.3,3.3s1.5,3.3,3.3,3.3c1.8,0,3.3-1.5,3.3-3.3S1006,447.9,1004.2,447.9z"/>
			<path class="st58" d="M1004.9,395.6c0,0.7-0.6,1.3-1.3,1.3c-0.7,0-1.3-0.6-1.3-1.3c0-0.3,0.1-0.5,0.2-0.7h0l-0.3-0.3
				c-0.4,0.2-0.6,0.6-0.6,1.1c0,0.7,0.6,1.3,1.3,1.3h2.8c0.7,0,1.3-0.6,1.3-1.3s-0.6-1.3-1.3-1.3h-1.8l0.1,0.1
				C1004.5,394.5,1004.9,395,1004.9,395.6z"/>
			<path class="st58" d="M1002.6,394.8c-0.1,0.2-0.2,0.5-0.2,0.7c0,0.7,0.6,1.3,1.3,1.3c0.7,0,1.3-0.6,1.3-1.3c0-0.5-0.4-1-0.8-1.2
				l0.4,0.5H1002.6z"/>
			<path class="st54" d="M1016.5,415.9c0.6,0,1-0.5,1-1c0-0.6-0.5-1-1-1c-0.6,0-1,0.5-1,1C1015.5,415.4,1015.9,415.9,1016.5,415.9z"
				/>
			<path class="st54" d="M1023.3,399.3c0.3,0.3,0.4,0.6,0.3,0.9l-0.7,8.7c0.2,0,0.4,0,0.5,0l0.7-8.6c0-0.5-0.1-1-0.5-1.3
				c-0.3-0.4-0.8-0.6-1.3-0.6h-44.6l-0.2,0.5h44.8C1022.7,398.9,1023,399,1023.3,399.3z"/>
			<path class="st54" d="M1011.5,422.3h-38.1v0.2h47.2c0.3,0,0.7-0.1,1-0.3c-0.5,0-0.8,0-0.8,0H1011.5z"/>
			<path class="st54" d="M1022.4,421l0.8-9.5c-0.2,0-0.3,0-0.5,0l-0.8,9.5c-0.1,0.6-0.6,1.1-1.3,1.1h-9.1v0.2h9.3c0,0,0.3,0,0.8,0
				C1022,422,1022.3,421.5,1022.4,421z"/>
			<path class="st58" d="M1034.8,337.7L1034.8,337.7l0-1.1l0,0h0l-0.1-2.4c0,0,0-0.1,0-0.1l0.2,3.9L1034.8,337.7z"/>
			<path class="st58" d="M1035,341.3l-0.1-3.4l-0.2-3.9c-0.3-4-3.7-7.2-7.9-7.2h-19.8l-4.1,10.2l32,0.2L1035,341.3z"/>
			<path class="st58" d="M1022.1,337.6L1022.1,337.6l7.4,0c2,0,3.8,1.1,4.8,2.8c0.4,0.8,0.7,1.7,0.8,2.6l0.2,4.5l-0.3-6.4l-0.2-4.1
				l-32-0.2l-0.3,0.6L1022.1,337.6z"/>
			<path class="st58" d="M1038.1,409.8C1038.1,409.8,1038.1,409.8,1038.1,409.8l-0.1-2.1L1038.1,409.8z"/>
			<path class="st54" d="M973.4,410.9l49.4-1l0.1-1c-18.4,1-45.3,0.8-49.5,0.7l0,0c0,0-0.1,0-0.2,0l-0.5,1.2L973.4,410.9z"/>
			<path class="st54" d="M1023.3,409.9c12.8,0,14.7-1.4,14.7-1.4l0.1,1.3c0,0,0,0,0,0l-0.1-2.1l0-0.2l0-0.2
				c-2.9,0.7-8.2,1.2-14.5,1.6L1023.3,409.9z"/>
			<path class="st54" d="M973.1,412.2c1.3,0,5.9,0.1,12,0.1c10.6,0,25.8-0.1,37.6-0.8l0.1-1.5l-49.4,1l-0.8,0l-0.5,1.3
				C972.5,412.2,972.8,412.2,973.1,412.2z"/>
			<path class="st54" d="M1023.3,409.9l-0.1,1.5c6.4-0.4,11.8-0.9,14.8-1.6l-0.1-1.3C1038,408.5,1036.1,409.9,1023.3,409.9z"/>
			<path class="st54" d="M1023.3,409.9l0.1-1c-0.2,0-0.3,0-0.5,0l-0.1,1l0.4,0C1023.2,409.9,1023.3,409.9,1023.3,409.9z"/>
			<path class="st54" d="M1023.2,411.4l0.1-1.5c-0.1,0-0.1,0-0.2,0l-0.4,0l-0.1,1.5C1022.8,411.5,1023,411.4,1023.2,411.4z"/>
			<path class="st58" d="M994.5,441.6c11.3,0,16.3-10.4,17.8-14.6c0.3-0.9-0.3-1.8-1.3-1.8h-2.4c1.1,0,1.8,1.1,1.4,2
				c-0.6,1.5-1.6,3.7-3.1,5.8c-0.5,0.8-1.4,1.2-2.4,1.2h-31.1h-10.2l-0.9,2.1h11.1h28c0.4,0,0.7,0.3,0.8,0.7
				c0.1,0.4-0.1,0.7-0.4,0.9c-1.8,1.1-3.9,1.8-6.4,1.9h-22h-12.5l-0.8,1.9l13.3,0.1L994.5,441.6z"/>
			<path class="st54" d="M973.4,439.7h22c2.4,0,4.6-0.8,6.4-1.9c0.3-0.2,0.5-0.6,0.4-0.9c-0.1-0.4-0.4-0.7-0.8-0.7h-28h-11.1
				l-1.4,3.4H973.4z"/>
			<path class="st54" d="M973.4,434.2h31.1c0.9,0,1.8-0.4,2.4-1.2c1.5-2.1,2.5-4.2,3.1-5.8c0.4-1-0.3-2-1.4-2h-35.2h-6.6l-3.7,9
				H973.4z"/>
			<polygon class="st54" points="1011.5,422.1 1011.5,420.4 973.4,420.4 968.8,420.4 968.1,422.1 973.4,422.1 973.4,422.3 
				973.4,422.3 973.4,422.1 			"/>
			<rect x="973.4" y="422.1" class="st54" width="38.1" height="0.2"/>
			<path class="st54" d="M958.3,448.5C958.3,448.5,958.3,448.5,958.3,448.5l15.1,0l15.1,0c0,0,0,0,0,0l10.5-3.4
				c0.6-0.3,0.4-1.1-0.2-1.1h-25.4h-14.2l-1.7,4.2L958.3,448.5z"/>
			<polygon class="st54" points="973.4,422.3 968,422.3 967.9,422.6 973.4,422.6 			"/>
			<polygon class="st54" points="968.1,422.1 968,422.3 973.4,422.3 973.4,422.1 			"/>
			<polygon class="st58" points="1037.1,386.4 1037.1,386.1 1037,386.1 1037,386.4 			"/>
			<polygon class="st58" points="1037,386.4 1037,386.4 1037,386.1 1037,386.1 			"/>
			<polygon class="st54" points="997.8,386.5 998,386.8 1035.2,386.4 1035.2,386.2 			"/>
			<polygon class="st54" points="982.5,386.7 982.4,386.9 996.5,386.8 996.3,386.6 			"/>
			<polygon class="st54" points="1035.2,386.2 1035.2,386.4 1037,386.4 1037,386.1 			"/>
			<polygon class="st58" points="1037.1,385.3 1036.8,380.2 1036.7,380.2 1037,385.3 			"/>
			<polygon class="st58" points="1037,386.1 1037.1,386.1 1037.1,385.3 1037,385.3 			"/>
			<polygon class="st58" points="1036.9,385.3 1037,385.3 1036.7,380.2 1036.7,380.2 			"/>
			<polygon class="st58" points="1037,386.1 1037,385.3 1036.9,385.3 1037,386.1 			"/>
			<path class="st60" d="M1025.8,377.2h-11.9l-1.3-11c-0.2-1.5-1.5-2.6-3-2.6h-8.7c-1.4,0-2.6,1-2.9,2.3l-2.5,11.3h-4.9l7.4,9.3
				l37.4-0.4v0l1.7-0.8l-0.2-5.2h-7.9L1025.8,377.2z"/>
			<polygon class="st60" points="986.3,377.2 982.5,386.7 996.3,386.6 989.2,377.2 			"/>
			<polygon class="st60" points="1035.2,386.2 1037,386.1 1036.9,385.3 1035.2,386.1 			"/>
			<path class="st58" d="M990.4,449.7c0,0,7.3-0.5,11-4.3c0,0,5.1,0.1,11.5,0V444c-3.4,0-7.3,0-11.7,0l-2.2,1.1l-5.1,2.2
				c-1.7,0.7-3.5,1.1-5.4,1.2l0,0h0c-0.3,0-0.5,0-0.8,0h-14.3h-14.3c-0.3,0-0.5,0-0.8,0h0l0,0c-0.3,0-0.6,0-1-0.1l-0.5,1.3l16.6,0.2
				L990.4,449.7z"/>
			<path class="st58" d="M1028.7,443.4h1.4v1.2c5.2-0.5,9.1-1.3,9.4-2.6l0-0.7C1039.4,441.5,1038.5,442.6,1028.7,443.4z"/>
			<path class="st58" d="M1028.7,443.4c-3.8,0.3-8.9,0.5-15.8,0.6v1.4c5.5-0.1,12-0.3,17.2-0.8v-1.2H1028.7z"/>
			<path class="st54" d="M957.4,448.2l-0.1,0.2c0.3,0,0.6,0.1,1,0.1L957.4,448.2z"/>
			<path class="st54" d="M988.5,448.5l-15.1,0h14.3C988,448.5,988.2,448.5,988.5,448.5z"/>
			<path class="st54" d="M999,445.1l-10.5,3.4c1.9-0.1,3.7-0.5,5.4-1.2L999,445.1z"/>
			<path class="st54" d="M973.4,448.5l-15.1,0c0.3,0,0.5,0,0.8,0H973.4z"/>
			<path class="st58" d="M1002.3,394.5c0.2-0.1,0.4-0.2,0.7-0.2h0.6h0.4l-3.6-4.5l-1.6,0L1002.3,394.5z"/>
			<polygon class="st58" points="996.5,386.8 998.8,389.8 1000.4,389.8 998,386.8 			"/>
			<polygon class="st58" points="989.2,377.2 990.4,377.2 987.7,373.8 987.3,374.8 			"/>
			<path class="st58" d="M1002.6,394.8c0.2-0.3,0.6-0.5,1-0.5h-0.6c-0.3,0-0.5,0.1-0.7,0.2L1002.6,394.8L1002.6,394.8z"/>
			<path class="st58" d="M1004,394.4L1004,394.4l-0.4-0.1C1003.7,394.3,1003.9,394.3,1004,394.4z"/>
			<path class="st58" d="M1002.6,394.8h1.8l-0.4-0.5c-0.1,0-0.3-0.1-0.4-0.1C1003.2,394.3,1002.8,394.5,1002.6,394.8z"/>
			<polygon class="st58" points="997.8,386.5 996.3,386.6 996.5,386.8 998,386.8 			"/>
			<polygon class="st58" points="989.2,377.2 996.3,386.6 997.8,386.5 990.4,377.2 			"/>
		</g>
	</g>
	<g>
		<path class="st123" d="M74.5,297.9c9,0,27.9,6.5,27.9,45.8c0,39.3-16.6,48.1-28,48.1c-11.5,0-27.8-4.5-27.8-41.7
			S65.5,297.9,74.5,297.9L74.5,297.9z"/>
		<path class="st124" d="M73.5,371L64,357.1c-0.3-0.5-0.2-1.1,0.3-1.4c0.5-0.3,1.1-0.2,1.4,0.3l7.8,11.4l0-37.3c0-0.5,0.4-1,1-1
			c0.5,0,1,0.4,1,1l0,21.1l4.1-6c0.3-0.5,0.9-0.6,1.4-0.3c0.5,0.3,0.6,0.9,0.3,1.4l-5.8,8.4l-0.1,77.9h-2L73.5,371L73.5,371z"/>
		<path class="st123" d="M197.4,228.9c8.7,0,27.2,58.5,27.2,108.3c0,49.8-16.1,61-27.2,61c-11.1,0-27-5.7-27-52.8
			S188.7,228.9,197.4,228.9L197.4,228.9z"/>
		<path class="st125" d="M196.4,432.7l0.1-90.9L187,328c-0.3-0.5-0.2-1.1,0.3-1.4c0.5-0.3,1.1-0.2,1.4,0.3l7.8,11.4l0-17.8
			c0,0,0-0.1,0-0.1l0-28.2c0-0.5,0.4-1,1-1c0.5,0,1,0.4,1,1l0,25l4.1-6c0.3-0.5,0.9-0.6,1.4-0.3c0.5,0.3,0.6,0.9,0.3,1.4l-5.7,8.4
			l0,20.7c0,0.1,0,0.1,0,0.2l0,25.8l7.8-11.4c0.3-0.5,0.9-0.6,1.4-0.3c0.5,0.3,0.6,0.9,0.3,1.4l-9.5,13.9l0,61.7H196.4L196.4,432.7z
			"/>
		<path class="st123" d="M547.9,309.5c9,0,27.9,6.5,27.9,45.8c0,39.3-16.6,48.1-28,48.1S520,399,520,361.8
			C520,324.6,539,309.5,547.9,309.5L547.9,309.5z"/>
		<path class="st125" d="M546.9,382.6l-9.4-13.8c-0.3-0.5-0.2-1.1,0.3-1.4c0.5-0.3,1.1-0.2,1.4,0.3l7.8,11.4l0-37.3c0-0.5,0.4-1,1-1
			c0.5,0,1,0.4,1,1l0,21.1l4.1-6c0.3-0.5,0.9-0.6,1.4-0.3c0.5,0.3,0.6,0.9,0.3,1.4l-5.8,8.4l-0.1,66.3h-2L546.9,382.6L546.9,382.6z"
			/>
		<path class="st126" d="M113.1,325.5c25.5,0,39.1,74.4-0.1,74.4c-9.1,0-22-3.6-22-33C91,337.4,106,325.5,113.1,325.5L113.1,325.5z"
			/>
		<path class="st124" d="M112.1,366.4l-4.1-6c-0.3-0.5-0.9-0.6-1.4-0.3c-0.5,0.3-0.6,0.9-0.3,1.4l5.8,8.4l0,15.8c0,0,0,0.1,0,0.1
			l0.1,46.8h2l-0.1-46.6l9.4-13.8c0.3-0.5,0.2-1.1-0.3-1.4c-0.5-0.3-1.1-0.2-1.4,0.3l-7.8,11.4l0-33.1c0-0.5-0.4-1-1-1
			c-0.5,0-1,0.4-1,1L112.1,366.4L112.1,366.4z"/>
		<path class="st126" d="M497.3,281.6c30.8,0,47.3,89.9-0.1,89.9c-11,0-26.7-4.3-26.7-39.9S488.7,281.6,497.3,281.6L497.3,281.6z"/>
		<path class="st124" d="M497.8,337.2l-4.1-6c-0.3-0.5-0.9-0.6-1.4-0.3c-0.5,0.3-0.6,0.9-0.3,1.4l5.8,8.4l0,15.8c0,0,0,0.1,0,0.1
			l0.1,76.1h2l-0.1-75.8l9.4-13.8c0.3-0.5,0.2-1.1-0.3-1.4c-0.5-0.3-1.1-0.2-1.4,0.3l-7.8,11.4l0-33.1c0-0.5-0.4-1-1-1
			c-0.5,0-1,0.4-1,1L497.8,337.2L497.8,337.2z"/>
		<path class="st123" d="M4.9,432.7h598.8c2,0,3.6,1.6,3.6,3.6v3.8c0,2-1.6,3.6-3.6,3.6H4.9c-2,0-3.6-1.6-3.6-3.6v-3.8
			C1.3,434.3,2.9,432.7,4.9,432.7L4.9,432.7z"/>
		<path class="st126" d="M-59.1,432.7h378.2l6.3,11H-59.1c-2.4,0-4.3-1.6-4.3-3.6v-3.8C-63.4,434.3-61.4,432.7-59.1,432.7
			L-59.1,432.7z"/>
		<polygon class="st127" points="399,273.6 291.9,273.6 329.4,352.4 348.8,352.4 399,273.6 		"/>
		<polygon class="st128" points="291.9,273.6 278.3,273.6 228.1,352.4 329.4,352.4 291.9,273.6 		"/>
		<polygon class="st129" points="348.8,352.4 228.1,352.4 230.6,358.5 351.3,358.5 348.8,352.4 		"/>
		<polygon class="st130" points="348.8,352.4 399,273.6 449.2,352.4 446.8,358.5 399,283.5 351.3,358.5 348.8,352.4 		"/>
		<polygon class="st129" points="433.5,350.1 395.1,289.8 399,283.5 446.8,358.5 433.5,358.5 433.5,350.1 		"/>
		<polygon class="st131" points="433.5,350.1 395.1,289.8 351.3,358.5 348.7,358.5 348.7,432.7 433.5,432.7 433.5,350.1 		"/>
		<polygon class="st132" points="348.7,432.7 348.7,369.4 290,369.4 320.2,432.7 348.7,432.7 		"/>
		<polygon class="st133" points="243.8,369.4 243.8,432.7 320.2,432.7 290,369.4 243.8,369.4 		"/>
		<polygon class="st134" points="379.4,375.7 399,375.7 399,431.9 379.4,387 379.4,375.7 		"/>
		<polygon class="st135" points="399,375.7 402.8,375.7 402.8,432.7 399.4,432.7 399,431.9 399,375.7 		"/>
		<polygon class="st136" points="423.9,369.7 433.5,389.9 433.5,432.7 402.8,432.7 402.8,375.7 379.4,375.7 379.4,387 367.7,360 
			379.5,369.7 423.9,369.7 		"/>
		<polygon class="st137" points="379.4,387 399,431.9 399,432.7 379.4,432.7 379.4,387 		"/>
		<polygon class="st138" points="243.8,358.5 243.8,369.4 290,369.4 284.9,358.5 243.8,358.5 		"/>
		<polygon class="st135" points="348.7,369.4 348.7,358.5 284.9,358.5 290,369.4 348.7,369.4 		"/>
		<polygon class="st139" points="308.3,375.7 326.4,375.7 326.4,413.8 308.3,375.7 		"/>
		<polygon class="st140" points="300.2,375.7 305.3,375.7 305.3,415.1 300.2,415.1 300.2,375.7 		"/>
		<polygon class="st141" points="305.3,375.7 308.3,375.7 326.4,413.8 326.4,415.1 305.3,415.1 305.3,375.7 		"/>
		<polygon class="st137" points="305.3,375.7 308.3,375.7 310,379.3 309,379.3 309,411.5 325.3,411.5 326.4,413.8 326.4,415.1 
			305.3,415.1 305.3,375.7 		"/>
		<path class="st142" d="M308.3,375.7h18.2v3.7H310L308.3,375.7L308.3,375.7z M325.3,411.5h1.1v2.3L325.3,411.5L325.3,411.5z"/>
		<polygon class="st139" points="274.2,375.7 292.4,375.7 292.4,413.8 274.2,375.7 		"/>
		<polygon class="st140" points="266.1,375.7 271.3,375.7 271.3,415.1 266.1,415.1 266.1,375.7 		"/>
		<polygon class="st141" points="271.3,375.7 274.2,375.7 292.4,413.8 292.4,415.1 271.3,415.1 271.3,375.7 		"/>
		<polygon class="st137" points="271.3,375.7 274.2,375.7 276,379.3 275,379.3 275,411.5 291.3,411.5 292.4,413.8 292.4,415.1 
			271.3,415.1 271.3,375.7 		"/>
		<path class="st142" d="M274.2,375.7h18.2v3.7H276L274.2,375.7L274.2,375.7z M291.3,411.5h1.1v2.3L291.3,411.5L291.3,411.5z"/>
		<polygon class="st132" points="275.8,340.2 316.8,340.2 316.8,315.5 293.1,296.1 275.8,310.3 275.8,340.2 		"/>
		<polygon class="st139" points="297.5,310.3 309.4,310.3 309.4,335.2 297.5,310.3 		"/>
		<polygon class="st140" points="283.1,310.3 288.3,310.3 288.3,336.5 283.1,336.5 283.1,310.3 		"/>
		<polygon class="st141" points="288.3,310.3 297.5,310.3 309.4,335.2 309.4,336.5 288.3,336.5 288.3,310.3 		"/>
		<polygon class="st137" points="288.3,310.3 297.5,310.3 299.3,313.9 292,313.9 292,332.9 308.3,332.9 309.4,335.2 309.4,336.5 
			288.3,336.5 288.3,310.3 		"/>
		<path class="st142" d="M297.5,310.3h11.9v3.7h-10.1L297.5,310.3L297.5,310.3z M308.3,332.9h1.1v2.3L308.3,332.9L308.3,332.9z"/>
		<polygon class="st131" points="316.8,340.2 332.5,315.5 316.8,315.5 316.8,340.2 		"/>
		<polygon class="st20" points="263,315.5 259.7,308.2 289.9,283.5 320.5,308.2 316.8,315.5 289.9,293.5 263,315.5 		"/>
		<polygon class="st129" points="342.2,315.5 349,308.2 320.5,308.2 316.8,315.5 342.2,315.5 		"/>
		<polygon class="st128" points="349,308.2 332.4,283.5 289.9,283.5 320.5,308.2 349,308.2 		"/>
		<polygon class="st129" points="275.8,315.4 275.8,310.3 293.1,296.1 289.9,293.5 263,315.5 275.8,315.4 		"/>
		<polygon class="st20" points="367.7,350.1 383,362.7 379.5,369.7 367.7,360 367.7,350.1 		"/>
		<polygon class="st129" points="426.4,369.7 430,362.7 383,362.7 379.5,369.7 426.4,369.7 		"/>
		<polygon class="st128" points="430,362.7 414.6,350.1 367.7,350.1 383,362.7 430,362.7 		"/>
		<polygon class="st141" points="379.4,387 391.1,413.8 391.1,432.7 379.4,432.7 379.4,387 		"/>
		<polygon class="st139" points="379.4,375.7 391.1,375.7 391.1,413.8 379.4,387 379.4,375.7 		"/>
		<polygon class="st143" points="350.8,251.8 359.8,251.8 359.8,240.8 350.8,240.8 350.8,251.8 		"/>
		<polygon class="st132" points="359.5,251.8 344.1,251.8 344.1,273.6 359.5,273.6 359.5,251.8 		"/>
		<polygon class="st131" points="359.5,251.8 366.5,251.8 366.5,273.6 359.5,273.6 359.5,251.8 		"/>
		<polygon class="st144" points="357.2,251.8 359.8,251.8 359.8,240.8 357.2,240.8 357.2,251.8 		"/>
		<polygon class="st145" points="161.7,432.7 161.7,388 158.1,384.7 154.6,388 154.6,432.7 161.7,432.7 		"/>
		<polygon class="st145" points="173.9,432.7 173.9,388 170.4,384.7 166.8,388 166.8,432.7 173.9,432.7 		"/>
		<polygon class="st145" points="186.2,432.7 186.2,388 182.6,384.7 179,388 179,432.7 186.2,432.7 		"/>
		<polygon class="st145" points="198.4,432.7 198.4,388 194.8,384.7 191.3,388 191.3,432.7 198.4,432.7 		"/>
		<polygon class="st145" points="210.7,432.7 210.7,396.3 205.7,386 203.5,388 203.5,432.7 210.7,432.7 		"/>
		<polygon class="st145" points="222.9,432.7 222.9,422 215.8,407 215.8,432.7 222.9,432.7 		"/>
		<polygon class="st146" points="163.8,432.7 163.8,388 160.2,384.7 158.1,384.7 161.7,388 161.7,432.7 163.8,432.7 		"/>
		<polygon class="st146" points="176,432.7 176,388 172.4,384.7 170.4,384.7 173.9,388 173.9,432.7 176,432.7 		"/>
		<polygon class="st146" points="188.3,432.7 188.3,388 184.7,384.7 182.6,384.7 186.2,388 186.2,432.7 188.3,432.7 		"/>
		<polygon class="st146" points="200.5,432.7 200.5,388 196.9,384.7 194.8,384.7 198.4,388 198.4,432.7 200.5,432.7 		"/>
		<polygon class="st146" points="212.7,432.7 212.7,400.7 210.7,396.3 210.7,432.7 212.7,432.7 		"/>
		<polygon class="st146" points="225,432.7 225,426.4 222.9,422 222.9,432.7 225,432.7 		"/>
		<polygon class="st147" points="210.7,396.3 210.7,388 207.1,384.7 205.7,386 210.7,396.3 		"/>
		<polygon class="st147" points="222.9,422 222.9,388 219.3,384.7 215.8,388 215.8,407 222.9,422 		"/>
		<polygon class="st147" points="235.1,432.7 235.1,388 231.6,384.7 228,388 228,432.7 235.1,432.7 		"/>
		<polygon class="st147" points="247.4,432.7 247.4,388 243.8,384.7 240.3,388 240.3,432.7 247.4,432.7 		"/>
		<polygon class="st147" points="259.5,432.7 259.5,388 255.9,384.7 252.3,388 252.3,432.7 259.5,432.7 		"/>
		<polygon class="st148" points="212.7,400.7 212.7,388 209.2,384.7 207.1,384.7 210.7,388 210.7,396.3 212.7,400.7 		"/>
		<polygon class="st148" points="225,426.4 225,388 221.4,384.7 219.3,384.7 222.9,388 222.9,422 225,426.4 		"/>
		<polygon class="st148" points="237.2,432.7 237.2,388 233.7,384.7 231.6,384.7 235.1,388 235.1,432.7 237.2,432.7 		"/>
		<polygon class="st148" points="249.5,432.7 249.5,388 245.9,384.7 243.8,384.7 247.4,388 247.4,432.7 249.5,432.7 		"/>
		<polygon class="st148" points="261.6,432.7 261.6,388 258,384.7 255.9,384.7 259.5,388 259.5,432.7 261.6,432.7 		"/>
	</g>
</g>
<path class="st64" d="M0-62.5h1080V92.4c0,0-72.1,0-118.5,0c-144.9,0-176.4,36.8-298.2,36.8c-131.4,0-161.9-58.4-285.6-58.4
	c-21.2,0-49.6,0-72.6,0c-81.3,0-102.5-34.3-186.8-34.3c-34.3,0-118.5,0-118.5,0L0-62.5z"/>
</svg>
