<?xml version="1.0" encoding="utf-8"?>
<!-- Generator: Adobe Illustrator 28.1.0, SVG Export Plug-In . SVG Version: 6.00 Build 0)  -->
<svg version="1.1" id="Layer_1" xmlns="http://www.w3.org/2000/svg" xmlns:xlink="http://www.w3.org/1999/xlink" x="0px" y="0px"
	 viewBox="0 0 36 36" style="enable-background:new 0 0 36 36;" xml:space="preserve">
<style type="text/css">
	.st0{fill:#FFFFFF;}
	.st1{fill-rule:evenodd;clip-rule:evenodd;fill:#FFFFFF;}
</style>
<path class="st0" d="M17.3,11.1c0-0.8-0.6-1.4-1.4-1.4s-1.4,0.6-1.4,1.4v9.7c0,0.4,0.1,0.7,0.4,1l4.1,4.1c0.5,0.5,1.4,0.5,2,0
	s0.5-1.4,0-2l-3.8-3.8L17.3,11.1L17.3,11.1z"/>
<path class="st1" d="M18,0C8.1,0,0,8.1,0,18s8.1,18,18,18s18-8.1,18-18S27.9,0,18,0z M2.8,18C2.8,9.6,9.6,2.8,18,2.8
	S33.2,9.6,33.2,18S26.4,33.2,18,33.2S2.8,26.4,2.8,18z"/>
</svg>
