<?xml version="1.0" encoding="utf-8"?>
<!-- Generator: Adobe Illustrator 28.0.0, SVG Export Plug-In . SVG Version: 6.00 Build 0)  -->
<svg version="1.1" id="Layer_1" xmlns="http://www.w3.org/2000/svg" xmlns:xlink="http://www.w3.org/1999/xlink" x="0px" y="0px"
	 viewBox="0 0 36 36" style="enable-background:new 0 0 36 36;" xml:space="preserve">
<style type="text/css">
	.st0{fill:#010101;}
	.st1{fill-rule:evenodd;clip-rule:evenodd;fill:#010101;}
</style>
<path class="st0" d="M17.31,11.08c0-0.76-0.62-1.38-1.38-1.38s-1.38,0.62-1.38,1.38v9.69c0,0.37,0.15,0.72,0.41,0.98l4.15,4.15
	c0.54,0.54,1.42,0.54,1.96,0c0.54-0.54,0.54-1.42,0-1.96l-3.75-3.75V11.08z"/>
<path class="st1" d="M18,0C8.06,0,0,8.06,0,18c0,9.94,8.06,18,18,18c9.94,0,18-8.06,18-18C36,8.06,27.94,0,18,0z M2.77,18
	C2.77,9.59,9.59,2.77,18,2.77c8.41,0,15.23,6.82,15.23,15.23c0,8.41-6.82,15.23-15.23,15.23C9.59,33.23,2.77,26.41,2.77,18z"/>
</svg>
