<?xml version="1.0" encoding="utf-8"?>
<!-- Generator: Adobe Illustrator 27.8.1, SVG Export Plug-In . SVG Version: 6.00 Build 0)  -->
<svg version="1.1" id="Layer_1" xmlns="http://www.w3.org/2000/svg" xmlns:xlink="http://www.w3.org/1999/xlink" x="0px" y="0px"
	 viewBox="0 0 72 72" style="enable-background:new 0 0 72 72;" xml:space="preserve">
<style type="text/css">
	.st0{fill:#010101;}
</style>
<g>
	<g>
		<path class="st0" d="M25.3,23.87c0.73,0.23,1.5-0.17,1.73-0.9c0.16-0.51,0.01-1.07-0.39-1.43c-0.73-0.23-1.5,0.17-1.73,0.9
			C24.75,22.94,24.9,23.5,25.3,23.87z"/>
		<path class="st0" d="M29.35,38.93l2.44,1.22c0.6,0.3,1.34,0.06,1.64-0.55s0.06-1.34-0.55-1.64l0,0l-2.44-1.22
			c-0.6-0.3-1.34-0.06-1.64,0.55C28.5,37.89,28.75,38.63,29.35,38.93L29.35,38.93z"/>
		<path class="st0" d="M39.66,40.27c0.19,0,0.37-0.04,0.54-0.12l2.44-1.22c0.6-0.3,0.85-1.03,0.55-1.64
			c-0.3-0.6-1.03-0.85-1.64-0.55l-2.44,1.22c-0.6,0.31-0.84,1.04-0.53,1.64C38.79,40.01,39.21,40.27,39.66,40.27z"/>
		<path class="st0" d="M46.37,23.87c0.56-0.51,0.6-1.38,0.09-1.95c-0.36-0.4-0.92-0.55-1.43-0.39c-0.56,0.51-0.6,1.38-0.09,1.95
			C45.3,23.88,45.86,24.03,46.37,23.87z"/>
		<path class="st0" d="M61.63,45.15H43.86c0.25-0.42,0.43-0.87,0.54-1.34c1.69-0.32,3.06-1.54,3.57-3.17
			c0.01-0.04,0.03-0.09,0.04-0.14l2.99-15.62c0.38-1.24,0.6-2.53,0.65-3.83c2.95,0.83,6.11-0.01,8.26-2.18l1.73-1.73
			c0.48-0.48,0.48-1.25,0-1.73l-1.73-1.73c-1.97-1.95-4.77-2.83-7.5-2.35l1.8-4.81c0.09-0.23,0.1-0.48,0.04-0.72l-0.83-3.32
			C53,0.72,51.22-0.34,49.46,0.1C48,0.47,46.98,1.78,46.98,3.28l-1.57,2.64L44.1,5.48c-1.19-0.4-2.44-0.6-3.7-0.6h-8.8
			c-1.26,0-2.51,0.2-3.7,0.6l-1.32,0.44l-1.56-2.6V3.28c0-1.81-1.47-3.27-3.28-3.27c-1.5,0-2.81,1.02-3.17,2.48l-0.83,3.32
			c-0.06,0.24-0.05,0.49,0.04,0.72l1.8,4.81c-2.73-0.48-5.53,0.4-7.5,2.35l-1.73,1.73c-0.48,0.48-0.48,1.25,0,1.73l1.73,1.73
			c2.15,2.17,5.32,3.01,8.26,2.18c0.05,1.3,0.27,2.59,0.65,3.83l2.99,15.62c0.01,0.05,0.02,0.09,0.04,0.14
			c0.51,1.64,1.89,2.86,3.57,3.17c0.11,0.47,0.3,0.92,0.54,1.34H10.37c-0.67,0-1.22,0.55-1.22,1.22v24.4c0,0.67,0.55,1.22,1.22,1.22
			h51.25c0.67,0,1.22-0.55,1.22-1.22V46.37C62.85,45.7,62.3,45.15,61.63,45.15z M53.18,69.56H18.82c-0.54-3.74-3.48-6.68-7.22-7.22
			v-7.52c3.74-0.54,6.68-3.48,7.22-7.22h34.36c0.54,3.74,3.48,6.68,7.22,7.22v7.52C56.67,62.88,53.73,65.82,53.18,69.56z
			 M60.41,52.35c-2.39-0.49-4.27-2.36-4.76-4.76h4.76V52.35z M49.25,4.29c0.11-0.19,0.17-0.41,0.17-0.63V3.28
			c0-0.46,0.37-0.84,0.83-0.84c0.39,0,0.72,0.26,0.81,0.64l0.73,2.95l-1.28,3.42c-0.5-1.24-1.49-2.23-2.74-2.72L49.25,4.29z
			 M43.33,7.8l3.44,1.15c0.92,0.31,1.57,1.13,1.66,2.1l0.24,2.68c0.06,0.67,0.65,1.17,1.33,1.11c0.2-0.02,0.39-0.08,0.56-0.19
			c2.42-1.57,5.6-1.24,7.65,0.79l0.86,0.86l-0.86,0.86c-1.91,1.92-4.86,2.33-7.22,1.01c-0.59-0.32-1.33-0.11-1.66,0.49
			c-0.12,0.21-0.17,0.45-0.14,0.7c0.15,1.65-0.03,3.3-0.52,4.88c-0.01,0.04-0.03,0.09-0.03,0.13l-0.45,2.36l-5.64-0.56
			c-2.33-0.23-4.1-2.18-4.09-4.52V7.32h1.96C41.4,7.32,42.38,7.48,43.33,7.8z M28.67,7.8c0.94-0.31,1.93-0.48,2.93-0.47H36v14.31
			c-0.01,3.59,2.71,6.61,6.29,6.96l5.42,0.54l-1.43,7.48l-2.04-2.02c-1.82-1.83-4.3-2.86-6.89-2.86h-3.25
			c-2.21,0-4.35,0.75-6.08,2.13l-2.46,1.94l-0.45-2.36l2.54-2.12c2.93-2.45,4-6.49,2.66-10.07L25.66,8.8L28.67,7.8z M20.93,3.07
			c0.11-0.45,0.56-0.72,1.01-0.61c0.37,0.09,0.64,0.43,0.64,0.81v0.38c0,0.22,0.06,0.44,0.17,0.63l1.46,2.44
			c-1.25,0.49-2.24,1.47-2.74,2.72L20.2,6.03L20.93,3.07z M22.27,18.21c-0.38-0.25-0.86-0.27-1.25-0.05
			c-2.36,1.32-5.31,0.9-7.22-1.01l-0.86-0.86l0.86-0.86c1.92-1.9,4.86-2.31,7.23-1.02l0.02,0.01l0.22,0.11
			c0.02,0.01,0.04,0.02,0.06,0.03c0.04,0.02,0.08,0.04,0.12,0.06c0.56,0.37,1.32,0.21,1.69-0.35c0.11-0.17,0.18-0.36,0.19-0.56
			l0.24-2.68c0.02-0.17,0.06-0.34,0.12-0.51l4.34,11.57c0.98,2.61,0.2,5.55-1.94,7.34l-1.51,1.26l-1.22-6.35
			c-0.01-0.05-0.02-0.09-0.03-0.13c-0.49-1.58-0.67-3.24-0.52-4.88C22.86,18.89,22.65,18.46,22.27,18.21L22.27,18.21z M26.37,39.97
			l-0.28-1.46l3.46-2.73c1.29-1.03,2.9-1.6,4.56-1.6h3.25c1.94-0.01,3.8,0.77,5.17,2.14l3.21,3.17l-0.09,0.48
			c-0.36,0.96-1.29,1.57-2.31,1.53H28.68C27.66,41.54,26.72,40.92,26.37,39.97z M30.23,43.93h11.55c-0.44,0.75-1.24,1.22-2.11,1.22
			h-7.32C31.47,45.15,30.66,44.69,30.23,43.93z M16.35,47.59c-0.49,2.39-2.36,4.27-4.76,4.76v-4.76H16.35z M11.59,64.8
			c2.39,0.49,4.27,2.36,4.76,4.76h-4.76V64.8z M55.65,69.56c0.49-2.39,2.36-4.27,4.76-4.76v4.76H55.65z"/>
		<path class="st0" d="M36,50.03c-4.72,0-8.54,3.82-8.54,8.54s3.82,8.54,8.54,8.54s8.54-3.82,8.54-8.54
			C44.54,53.86,40.72,50.04,36,50.03z M36,64.68c-3.37,0-6.1-2.73-6.1-6.1c0-3.37,2.73-6.1,6.1-6.1c3.37,0,6.1,2.73,6.1,6.1
			C42.1,61.94,39.37,64.67,36,64.68z"/>
	</g>
	<path class="st0" d="M50,53.5h-4c-0.55,0-1,0.45-1,1s0.45,1,1,1h4c0.55,0,1-0.45,1-1S50.55,53.5,50,53.5z"/>
	<path class="st0" d="M26,53.5h-4c-0.55,0-1,0.45-1,1s0.45,1,1,1h4c0.55,0,1-0.45,1-1S26.55,53.5,26,53.5z"/>
</g>
</svg>
