<?xml version="1.0" encoding="utf-8"?>
<!-- Generator: Adobe Illustrator 25.0.0, SVG Export Plug-In . SVG Version: 6.00 Build 0)  -->
<svg version="1.1" id="Layer_1" xmlns="http://www.w3.org/2000/svg" xmlns:xlink="http://www.w3.org/1999/xlink" x="0px" y="0px"
	 viewBox="0 0 24 24" style="enable-background:new 0 0 24 24;" xml:space="preserve">
<style type="text/css">
	.st0{fill:#454545;}
</style>
<g>
	<path class="st0" d="M22.6,1.4c-0.5-0.5-1.4-0.5-2,0L12,10L3.4,1.4c-0.5-0.5-1.4-0.5-2,0c-0.5,0.5-0.5,1.4,0,2L10,12l-8.6,8.6
		c-0.5,0.5-0.5,1.4,0,2C1.7,22.9,2,23,2.4,23s0.7-0.1,1-0.4L12,14l8.6,8.6c0.3,0.3,0.6,0.4,1,0.4s0.7-0.1,1-0.4c0.5-0.5,0.5-1.4,0-2
		L14,12l8.6-8.6C23.1,2.9,23.1,2,22.6,1.4z"/>
</g>
</svg>
