<svg width="19" height="24" viewBox="0 0 19 24" fill="none" xmlns="http://www.w3.org/2000/svg">
<path d="M0.307824 8.55387C0.307824 7.5229 0.489132 6.54892 0.846416 5.63986C1.18777 4.75691 1.69494 3.94654 2.34088 3.25193C2.9855 2.56644 3.72318 1.97369 4.53258 1.4908C5.36301 0.991422 6.26207 0.614674 7.20154 0.372374C8.15236 0.1242 9.13142 -0.000955936 10.1145 5.49713e-06C11.6329 5.49713e-06 13.0461 0.319368 14.3566 0.955442C15.6499 1.57992 16.7508 2.53826 17.5441 3.73031C18.3627 4.94283 18.7693 6.31436 18.7693 7.84359C18.7693 8.7606 18.6786 9.65773 18.4933 10.535C18.3114 11.4117 18.0221 12.2631 17.6321 13.07C17.2603 13.8511 16.7742 14.5732 16.1896 15.2128C15.6021 15.8422 14.8905 16.3447 14.0993 16.689C13.2402 17.0632 12.3109 17.2516 11.373 17.2416C10.7211 17.2416 10.0705 17.0892 9.4279 16.7831C8.78532 16.4783 8.32405 16.0595 8.04676 15.5229C7.94944 15.8952 7.81612 16.4332 7.63881 17.1369C7.46817 17.8392 7.35352 18.2924 7.30286 18.4978C7.24953 18.7019 7.15088 19.0425 7.0069 19.5142C6.90926 19.8632 6.78399 20.2039 6.63229 20.5333L6.17368 21.4264C5.97535 21.8097 5.75364 22.1805 5.50977 22.5369C5.26847 22.8841 4.96985 23.2989 4.6139 23.7759L4.41526 23.8462L4.28328 23.703C4.14063 22.2016 4.06731 21.3032 4.06731 21.0063C4.06731 20.1278 4.17262 19.1419 4.3806 18.0473C4.58457 16.954 4.90719 15.5798 5.34046 13.9274C5.77374 12.2762 6.0217 11.3049 6.08836 11.0173C5.78307 10.3985 5.62842 9.59015 5.62842 8.59628C5.62842 7.80251 5.87772 7.0591 6.37765 6.35942C6.87892 5.66239 7.51216 5.31387 8.28006 5.31387C8.86798 5.31387 9.32391 5.50735 9.65054 5.89562C9.97849 6.28256 10.1385 6.77022 10.1385 7.36521C10.1385 7.99599 9.92783 8.90902 9.50389 10.103C9.07995 11.2983 8.86931 12.1901 8.86931 12.7824C8.86931 13.3827 9.08528 13.885 9.51722 14.2785C9.94349 14.6723 10.5072 14.8857 11.089 14.8735C11.6169 14.8735 12.1062 14.7543 12.5608 14.5144C13.0083 14.2816 13.3956 13.9492 13.6926 13.5431C14.3395 12.6609 14.8007 11.6581 15.0485 10.5946C15.1764 10.0354 15.2751 9.50401 15.3364 9.00443C15.4017 8.50219 15.4297 8.02779 15.4297 7.57724C15.4297 5.92477 14.9018 4.63672 13.8526 3.71441C12.7981 2.7921 11.425 2.3336 9.73586 2.3336C7.81479 2.3336 6.20834 2.95112 4.92185 4.19014C3.63403 5.42519 2.98612 6.99549 2.98612 8.89974C2.98612 9.31981 3.05011 9.72531 3.17143 10.1176C3.29008 10.5085 3.41939 10.8199 3.55938 11.0505C3.69802 11.2771 3.82867 11.4984 3.94732 11.7024C4.06731 11.9065 4.12996 12.0523 4.12996 12.1397C4.12996 12.4074 4.05931 12.7559 3.91666 13.1866C3.76868 13.6173 3.59404 13.832 3.3834 13.832C3.3634 13.832 3.28075 13.8174 3.13677 13.7869C2.63812 13.6389 2.1878 13.3623 1.83161 12.9852C1.45358 12.5943 1.15525 12.1344 0.953068 11.6309C0.751466 11.1291 0.594444 10.6108 0.4838 10.0818C0.364258 9.58124 0.305183 9.06832 0.307824 8.55387Z" fill="white"/>
</svg>
