<svg width="24" height="23" viewBox="0 0 24 23" fill="none" xmlns="http://www.w3.org/2000/svg">
<path d="M5.41326 22.3077V7.25673H0.301587V22.3077H5.41326ZM2.85809 5.20054C4.64062 5.20054 5.75016 4.0448 5.75016 2.60052C5.71695 1.12366 4.64069 0 2.89191 0C1.14341 0 0 1.12368 0 2.60052C0 4.04487 1.10927 5.20054 2.82472 5.20054H2.85793H2.85809ZM8.24256 22.3077H13.3542V13.9025C13.3542 13.4527 13.3875 13.0033 13.5224 12.6817C13.892 11.783 14.733 10.8521 16.1451 10.8521C17.9948 10.8521 18.7348 12.2323 18.7348 14.2556V22.3076H23.8462V13.6775C23.8462 9.05444 21.3243 6.90338 17.9611 6.90338C15.2036 6.90338 13.9929 8.41187 13.3202 9.43929H13.3544V7.25642H8.24268C8.30976 8.66872 8.24268 22.3074 8.24268 22.3074L8.24256 22.3077Z" fill="white"/>
</svg>
