<svg xmlns="http://www.w3.org/2000/svg" xmlns:xlink="http://www.w3.org/1999/xlink" viewBox="0 0 308.09 69.73"><defs><style>.cls-1,.cls-2{fill:#221f1f;}.cls-2{stroke:#221f1f;stroke-miterlimit:10;stroke-width:0.87px;}.cls-3{fill:#f2f2f2;}.cls-4{fill:#b92026;}.cls-5{fill:#addddf;}.cls-6{fill:#0b3051;}.cls-7{fill:#007774;}.cls-8{fill:#51c2bf;}.cls-9{fill:#665d60;}.cls-10{fill:url(#linear-gradient);}.cls-11{fill:#544c50;}.cls-12{fill:#f9ce41;}</style><linearGradient id="linear-gradient" x1="14.9" y1="46.37" x2="76.75" y2="13.34" gradientUnits="userSpaceOnUse"><stop offset="0" stop-color="#221f1f"/><stop offset="1" stop-color="#221f1f" stop-opacity="0.7"/></linearGradient></defs><title>MIRC_Logo_WebCropped</title><g id="Layer_2" data-name="Layer 2"><g id="Header"><path class="cls-1" d="M136.09,15.12h4.85L143.71,29l2.94-13.86h4.68l.42,22h-3.33l-.36-14.93L145.18,37.1h-2.83l-3-15-.34,15H135.7Z"/><path class="cls-1" d="M156.14,36a5.22,5.22,0,0,1-1.4-3.93V26.43a5.24,5.24,0,0,1,1.4-3.93,6.59,6.59,0,0,1,8,0,5.24,5.24,0,0,1,1.4,3.93v5.65a5.22,5.22,0,0,1-1.4,3.93,6.59,6.59,0,0,1-8,0Zm5-2a4,4,0,0,0,.27-1.67V26.16a4.07,4.07,0,0,0-.27-1.68,1,1,0,0,0-1-.57,1,1,0,0,0-1,.58,4.11,4.11,0,0,0-.27,1.67v6.22a4,4,0,0,0,.26,1.65,1.19,1.19,0,0,0,2,0Z"/><path class="cls-1" d="M172.57,35.93V37.1h-4.19v-22h4.19v7.46a5,5,0,0,1,3.33-1.44,2.92,2.92,0,0,1,2.7,1.41,6.74,6.74,0,0,1,.84,3.5v6.14a6.89,6.89,0,0,1-.91,3.76,3,3,0,0,1-2.69,1.42A5.06,5.06,0,0,1,172.57,35.93ZM175,34a4,4,0,0,0,.28-1.67V25.78c0-1.37-.41-2.06-1.22-2.06a2.56,2.56,0,0,0-1.47.6v9.82a2.43,2.43,0,0,0,1.44.49A1,1,0,0,0,175,34Z"/><path class="cls-1" d="M182.36,15.77h4.21v3.07h-4.21Zm0,5.64h4.19V37.1h-4.19Z"/><path class="cls-1" d="M190,15.12h4.16v22H190Z"/><path class="cls-1" d="M198.39,36A5.63,5.63,0,0,1,197,31.89V26.62a5.55,5.55,0,0,1,1.39-4.07,5.33,5.33,0,0,1,4-1.41,5,5,0,0,1,3.94,1.41,6.16,6.16,0,0,1,1.24,4.18v2.74h-6.4v2.64a4.6,4.6,0,0,0,.26,1.75,1,1,0,0,0,1,.58,1.15,1.15,0,0,0,1-.42,2.26,2.26,0,0,0,.31-1.34V31.16h3.89v1.35a4.73,4.73,0,0,1-1.33,3.61,5.42,5.42,0,0,1-3.83,1.25A5.35,5.35,0,0,1,198.39,36Zm5.28-8.44V26a2.75,2.75,0,0,0-.3-1.48,1.09,1.09,0,0,0-1-.45,1,1,0,0,0-.93.49,3.75,3.75,0,0,0-.29,1.74v1.22Z"/><path class="cls-1" d="M217.87,15.12h4.55v22h-4.55Z"/><path class="cls-1" d="M225.85,21.41H230V23a5.71,5.71,0,0,1,3.88-1.85,2.46,2.46,0,0,1,2.12,1,4.23,4.23,0,0,1,.74,2.57V37.1h-4.19V25.38a1.68,1.68,0,0,0-.22-1,.86.86,0,0,0-.75-.31,3.28,3.28,0,0,0-1.58.65V37.1h-4.16Z"/><path class="cls-1" d="M241.14,35.84a7.61,7.61,0,0,1-.82-3.84V24.1h-1.58V21.41h1.58V16.69h4.25v4.72h2.32V24.1h-2.32v8.49a1.27,1.27,0,0,0,.4,1.06,1.82,1.82,0,0,0,1.18.33,5.55,5.55,0,0,0,1-.11v3.2l-1,.15a10.57,10.57,0,0,1-1.94.07A3.52,3.52,0,0,1,241.14,35.84Z"/><path class="cls-1" d="M250.65,36a5.63,5.63,0,0,1-1.37-4.07V26.62a5.59,5.59,0,0,1,1.38-4.07,5.37,5.37,0,0,1,4-1.41,5,5,0,0,1,3.93,1.41,6.11,6.11,0,0,1,1.25,4.18v2.74h-6.4v2.64a4.41,4.41,0,0,0,.26,1.75,1,1,0,0,0,1,.58,1.12,1.12,0,0,0,1-.42,2.19,2.19,0,0,0,.32-1.34V31.16h3.88v1.35a4.69,4.69,0,0,1-1.33,3.61,6.43,6.43,0,0,1-7.83-.16Zm5.28-8.44V26a2.75,2.75,0,0,0-.3-1.48,1.1,1.1,0,0,0-1-.45,1,1,0,0,0-.93.49,3.63,3.63,0,0,0-.29,1.74v1.22Z"/><path class="cls-1" d="M262.67,21.41h4.18v2.53q1.5-2.72,3.28-2.72a3.63,3.63,0,0,1,.61.08V25a4.48,4.48,0,0,0-.89-.11,3.19,3.19,0,0,0-1.65.48,4.89,4.89,0,0,0-1.35,1.37V37.1h-4.18Z"/><path class="cls-1" d="M272.9,21.41h4.16V23a5.69,5.69,0,0,1,3.88-1.85,2.47,2.47,0,0,1,2.12,1,4.23,4.23,0,0,1,.73,2.57V37.1h-4.18V25.38a1.76,1.76,0,0,0-.22-1,.86.86,0,0,0-.75-.31,3.28,3.28,0,0,0-1.58.65V37.1H272.9Z"/><path class="cls-1" d="M287.88,36a5.63,5.63,0,0,1-1.37-4.07V26.62a5.55,5.55,0,0,1,1.39-4.07,5.33,5.33,0,0,1,4-1.41,5,5,0,0,1,3.93,1.41,6.11,6.11,0,0,1,1.25,4.18v2.74h-6.4v2.64a4.6,4.6,0,0,0,.26,1.75,1,1,0,0,0,1,.58,1.12,1.12,0,0,0,.95-.42,2.19,2.19,0,0,0,.32-1.34V31.16H297v1.35a4.69,4.69,0,0,1-1.33,3.61,6.43,6.43,0,0,1-7.83-.16Zm5.28-8.44V26a2.75,2.75,0,0,0-.3-1.48,1.09,1.09,0,0,0-1-.45,1,1,0,0,0-.93.49,3.75,3.75,0,0,0-.29,1.74v1.22Z"/><path class="cls-1" d="M301.19,35.84a7.51,7.51,0,0,1-.82-3.84V24.1h-1.58V21.41h1.58V16.69h4.24v4.72h2.33V24.1h-2.33v8.49a1.27,1.27,0,0,0,.41,1.06,1.79,1.79,0,0,0,1.17.33,5.57,5.57,0,0,0,1-.11v3.2l-1,.15a10.61,10.61,0,0,1-1.94.07A3.49,3.49,0,0,1,301.19,35.84Z"/><path class="cls-2" d="M141,54.64l-2.67-4.43h-2.09v4.43h-.69V45h2.82a5.49,5.49,0,0,1,1.33.14,2.79,2.79,0,0,1,1,.44,2.28,2.28,0,0,1,.65.79,2.74,2.74,0,0,1,.23,1.17,2.41,2.41,0,0,1-.68,1.81,3.16,3.16,0,0,1-1.85.81l2.72,4.47Zm-2.81-5a3.35,3.35,0,0,0,2-.51,1.88,1.88,0,0,0,.7-1.59,1.68,1.68,0,0,0-.71-1.53,3.78,3.78,0,0,0-2-.44h-2v4.07Z"/><path class="cls-2" d="M147.75,45h5.39v.58h-4.7v3.64h3.94v.59h-3.94v4.23h4.85v.59h-5.54Z"/><path class="cls-2" d="M159,52.9a3.93,3.93,0,0,0,1.29,1,3.73,3.73,0,0,0,1.59.35,2.82,2.82,0,0,0,1.8-.53,1.92,1.92,0,0,0,.51-2.16,1.66,1.66,0,0,0-.38-.53,2.67,2.67,0,0,0-.56-.4l-.68-.33-1.49-.65a6,6,0,0,1-.68-.33,2.64,2.64,0,0,1-.64-.47,2.37,2.37,0,0,1-.49-.67,2.06,2.06,0,0,1-.19-.93,2.18,2.18,0,0,1,.21-1,2.39,2.39,0,0,1,.6-.74,2.75,2.75,0,0,1,.91-.49,3.58,3.58,0,0,1,1.14-.18,3.72,3.72,0,0,1,1.6.34,4,4,0,0,1,1.14.82l-.39.45a3.37,3.37,0,0,0-1-.72,3.1,3.1,0,0,0-1.33-.27,2.51,2.51,0,0,0-1.58.46,1.51,1.51,0,0,0-.6,1.26,1.47,1.47,0,0,0,.17.72,1.83,1.83,0,0,0,.42.5,3.53,3.53,0,0,0,.55.37l.57.27,1.49.64a8.29,8.29,0,0,1,.79.39,3.09,3.09,0,0,1,.66.52,2.06,2.06,0,0,1,.45.69,2.35,2.35,0,0,1,.18,1,2.39,2.39,0,0,1-.23,1,2.5,2.5,0,0,1-.63.82,3.09,3.09,0,0,1-1,.54,4,4,0,0,1-1.3.19,4.35,4.35,0,0,1-3.32-1.44Z"/><path class="cls-2" d="M174.35,54.81a3.7,3.7,0,0,1-1.63-.35,3.62,3.62,0,0,1-1.28-1,4.82,4.82,0,0,1-.84-1.59,7.22,7.22,0,0,1,0-4.12,4.66,4.66,0,0,1,.84-1.56,3.57,3.57,0,0,1,1.28-1,4.1,4.1,0,0,1,3.27,0,3.69,3.69,0,0,1,1.29,1,4.83,4.83,0,0,1,.83,1.56,7.22,7.22,0,0,1,0,4.12,5,5,0,0,1-.83,1.59,3.65,3.65,0,0,1-2.93,1.37Zm0-.61a2.93,2.93,0,0,0,1.36-.31,3,3,0,0,0,1-.9,4.24,4.24,0,0,0,.68-1.38,6.42,6.42,0,0,0,.24-1.82,6.23,6.23,0,0,0-.24-1.8,4.18,4.18,0,0,0-.68-1.37,3.14,3.14,0,0,0-1-.87,3,3,0,0,0-1.36-.3,2.93,2.93,0,0,0-2.42,1.17,4.17,4.17,0,0,0-.67,1.37,6.23,6.23,0,0,0-.24,1.8,6.42,6.42,0,0,0,.24,1.82,4.23,4.23,0,0,0,.67,1.38,2.9,2.9,0,0,0,2.42,1.21Z"/><path class="cls-2" d="M184.49,45h.68v5.86a5.19,5.19,0,0,0,.22,1.6,2.79,2.79,0,0,0,.58,1,2,2,0,0,0,.82.55,3,3,0,0,0,1,.16,3.11,3.11,0,0,0,1-.16,2,2,0,0,0,.85-.55,2.8,2.8,0,0,0,.59-1,4.88,4.88,0,0,0,.23-1.6V45h.64v5.93a5.25,5.25,0,0,1-.29,1.87,3.1,3.1,0,0,1-.74,1.19,2.63,2.63,0,0,1-1.06.63,4.33,4.33,0,0,1-2.47,0A2.56,2.56,0,0,1,185.5,54a3.1,3.1,0,0,1-.74-1.19,5.52,5.52,0,0,1-.27-1.87Z"/><path class="cls-2" d="M203.29,54.64l-2.68-4.43h-2.09v4.43h-.68V45h2.82a5.49,5.49,0,0,1,1.33.14,2.74,2.74,0,0,1,1,.44,2.08,2.08,0,0,1,.65.79,2.6,2.6,0,0,1,.23,1.17,2.41,2.41,0,0,1-.67,1.81,3.16,3.16,0,0,1-1.85.81l2.72,4.47Zm-2.81-5a3.35,3.35,0,0,0,2-.51,1.87,1.87,0,0,0,.69-1.59,1.67,1.67,0,0,0-.7-1.53,3.8,3.8,0,0,0-2-.44h-2v4.07Z"/><path class="cls-2" d="M209.42,49.8a6.6,6.6,0,0,1,.31-2.06,4.57,4.57,0,0,1,.86-1.57,3.74,3.74,0,0,1,1.33-1,4.36,4.36,0,0,1,1.72-.34,3.16,3.16,0,0,1,1.5.35,3.56,3.56,0,0,1,1.05.81l-.42.43a3.08,3.08,0,0,0-.93-.7,2.62,2.62,0,0,0-1.2-.27,3.43,3.43,0,0,0-1.46.3,3.35,3.35,0,0,0-1.11.87,4,4,0,0,0-.69,1.37,6.3,6.3,0,0,0-.24,1.81,6.42,6.42,0,0,0,.24,1.82,4.06,4.06,0,0,0,.69,1.38,3,3,0,0,0,2.51,1.2,3.11,3.11,0,0,0,1.35-.29,3.78,3.78,0,0,0,1.12-.89l.42.42a4.32,4.32,0,0,1-1.27,1,3.55,3.55,0,0,1-1.65.36,3.89,3.89,0,0,1-1.68-.35,3.61,3.61,0,0,1-1.3-1,4.51,4.51,0,0,1-.85-1.58A6.69,6.69,0,0,1,209.42,49.8Z"/><path class="cls-2" d="M222.33,45h5.39v.58H223v3.64h4v.59h-4v4.23h4.86v.59h-5.54Z"/><path class="cls-2" d="M240.07,49.8a6.61,6.61,0,0,1,.3-2.06,4.75,4.75,0,0,1,.86-1.57,3.74,3.74,0,0,1,1.33-1,4.36,4.36,0,0,1,1.72-.34,3.16,3.16,0,0,1,1.5.35,3.56,3.56,0,0,1,1.05.81l-.42.43a3.16,3.16,0,0,0-.92-.7,2.69,2.69,0,0,0-1.21-.27,3.43,3.43,0,0,0-1.46.3,3.22,3.22,0,0,0-1.1.87A3.86,3.86,0,0,0,241,48a6.3,6.3,0,0,0-.24,1.81,6.42,6.42,0,0,0,.24,1.82,4.06,4.06,0,0,0,.69,1.38,3,3,0,0,0,2.51,1.2,3.11,3.11,0,0,0,1.35-.29A4,4,0,0,0,246.7,53l.41.42a4.2,4.2,0,0,1-1.27,1,3.55,3.55,0,0,1-1.65.36,3.89,3.89,0,0,1-1.68-.35,3.61,3.61,0,0,1-1.3-1,4.51,4.51,0,0,1-.85-1.58A6.7,6.7,0,0,1,240.07,49.8Z"/><path class="cls-2" d="M253,45h5.39v.58h-4.71v3.64h4v.59h-4v4.23h4.86v.59H253Z"/><path class="cls-2" d="M264.51,45h.72l4.15,6.79,1.1,1.92h.06l-.06-1.4q0-.7,0-1.41V45h.66v9.63h-.72l-4.15-6.8-1.1-1.91h-.06c0,.47,0,.92.06,1.36s0,.9,0,1.37v6h-.66Z"/><path class="cls-2" d="M280,45.59h-3.14V45h7v.58h-3.13v9H280Z"/><path class="cls-2" d="M289.54,45h5.39v.58h-4.71v3.64h3.95v.59h-3.95v4.23h4.86v.59h-5.54Z"/><path class="cls-2" d="M306.53,54.64l-2.67-4.43h-2.09v4.43h-.69V45h2.82a5.49,5.49,0,0,1,1.33.14,2.79,2.79,0,0,1,1,.44,2.28,2.28,0,0,1,.65.79,2.74,2.74,0,0,1,.23,1.17,2.41,2.41,0,0,1-.68,1.81,3.16,3.16,0,0,1-1.85.81l2.72,4.47Zm-2.81-5a3.35,3.35,0,0,0,2-.51,1.87,1.87,0,0,0,.69-1.59,1.67,1.67,0,0,0-.7-1.53,3.78,3.78,0,0,0-2-.44h-2v4.07Z"/><path class="cls-3" d="M49.26,66.69a94.87,94.87,0,0,0,12.79-9.14,24.61,24.61,0,0,0,7,6.09c2.64,1.49,4.8,3.59,8.83,4.26a75.28,75.28,0,0,0,12.19,1.22C95,69.12,99.31,69,104.7,67c6.39-2.44,8.49-4.64,12.93-10.2,2.44-3,6.33-11.36,7-16,.47-3.54.66-9.93-1-15.22A42.61,42.61,0,0,0,117,12.29c-2.66-3.55-6.37-6.15-10.63-8.86-4.87-3.1-11.08-4-19-3.1C82.44.86,74.87,5.64,73.1,7.41s-4,4.43-4,4.43l-4,4a113.36,113.36,0,0,1-9.31-6.64,38.25,38.25,0,0,0-16-8c-6.64-1.33-10.63.44-14.17.44S19.05,3,13.74,6.09,6.2,15,4.43,16.72,0,26.91,0,30.45s-.08,8.82.83,12.17c.7,2.57,3.05,11.88,5.82,14.86,3.93,4.23,9.74,7.53,12,8.86s11.69,3.39,13.9,3.39S44.69,69.43,49.26,66.69Z"/><path class="cls-4" d="M79.13,13.21l.81.84L82.58,12l1.4-.73,2.49-1.34,3.15-1.17a20.53,20.53,0,0,1,3.23-.49l3.51.37,1.83.52,1.61.69,1.7.69,1.32.79L105,12.94l1.31,1.41s.47-.56.77-.85a8.64,8.64,0,0,0,.69-.74l.5-.47-1-.9-2.08-1.57-1.86-1.34L101,7.1,97.62,5.85s-3-.47-3.36-.56a9.68,9.68,0,0,0-2.09,0c-.36,0-2.3.16-2.3.16l-2.45.8-2.2.84L82.44,8.56,79.32,11l-1.24,1,.52.69Z"/><path class="cls-4" d="M101.5,18.66l.16.09.93-1.15.93-.78-.9-.91-1.38-1.12a19,19,0,0,0-3.63-2.11A14.12,14.12,0,0,0,94.76,12l-1.87-.1-3.64.72L85.81,14,83.6,15.48l-.85.82-.4.51.8.6,1.22,1.24.16.07L85.4,18l2.72-2.18,2.87-1,1.9,0a17.8,17.8,0,0,1,2.27.16l1.73.45,2.92,1.72Z"/><path class="cls-4" d="M97.28,23.5l1.65-1.94-.16-.3-.56-.36-1.87-1.23a8.7,8.7,0,0,0-2.83-.91c-1.72.11-3,.34-3,.34l-1.83,1-1.43,1.25-.16.13.65.72.39.57.71.75a3.87,3.87,0,0,1,.45-.39l.9-.75.93-.56,1.83-.43,1.26.23,1.79.84,1,.77Z"/><path class="cls-4" d="M93.26,25.65h-.19a3.92,3.92,0,0,0-1.38.22,3.75,3.75,0,0,0-2.38,3.43,3.8,3.8,0,0,0,.63,2,4,4,0,0,0,2.42,1.62H93l.08,0a4.65,4.65,0,0,0,2.49-.76,3.74,3.74,0,0,0,1.3-2.75,3.93,3.93,0,0,0-.66-2.26A3.84,3.84,0,0,0,93.26,25.65Z"/><path class="cls-5" d="M113.19,14.16,101.53,26l11.89-11.61Z"/><path class="cls-6" d="M105.61,58.76A20.46,20.46,0,0,1,94,58.94a54.51,54.51,0,0,0-14-1.22,21.51,21.51,0,0,0-8.8,2.22l.38.3a25.26,25.26,0,0,0,4,2.32c4.54,2.2,9.88,3,15.6,3a30.07,30.07,0,0,0,20.13-7.71A24.22,24.22,0,0,0,105.61,58.76Z"/><path class="cls-7" d="M121.1,41.81a30,30,0,0,1-1.59,4.53,35.76,35.76,0,0,1-4.14,7,30.32,30.32,0,0,1-4,4.43,24.22,24.22,0,0,0-5.72.94A20.54,20.54,0,0,1,94,59a53.56,53.56,0,0,0-14-1.23,21.51,21.51,0,0,0-8.81,2.22c-.35-.28-.69-.57-1-.87l.92-.24c2.76-1.77,6.13-3.87,8.1-4.84,4.22-2.08,9.37-2.05,13.92-2.51a40.62,40.62,0,0,0,13.48-3.41c2.24-1,4.23-2.74,6.36-4a20.89,20.89,0,0,1,7.36-2.18Z"/><path class="cls-5" d="M113.42,14.42,101.53,26l-.74.76a11.85,11.85,0,0,1,3.41,10c0,.47-.12.91-.2,1.35,2.21-2.29,3.79-5.15,6.19-7.49,2.62-2.56,5.8-5.05,9.35-6.18-.27-.67-.55-1.33-.83-2A28.73,28.73,0,0,0,113.42,14.42Z"/><path class="cls-5" d="M82.79,44.34c-.26-.19-.52-.39-.77-.6-4.58-3.76-5-4.4-4.93-4.44l-12,13.28c1.05,1.49,1.91,2.71,2.71,3.75A28.23,28.23,0,0,0,71,53.81c.66-.56,1.32-1.08,2-1.56A19.51,19.51,0,0,1,78,49a50.94,50.94,0,0,1,7.77-2.74A20.93,20.93,0,0,1,82.79,44.34Z"/><path class="cls-8" d="M121.53,30.94a36.31,36.31,0,0,0-2-6.45c-3.55,1.13-6.73,3.62-9.35,6.18-2.4,2.34-4,5.2-6.19,7.49a12.66,12.66,0,0,1-.8,2.55,12.28,12.28,0,0,1-11,7.32,11,11,0,0,1-2.27-.24,15,15,0,0,1-4.14-1.53A50.94,50.94,0,0,0,78,49a19.51,19.51,0,0,0-5,3.25c-.69.48-1.35,1-2,1.56a28.23,28.23,0,0,1-3.22,2.52c.41.54.81,1,1.21,1.49l.11.11.6.64h0c.16.17.33.34.51.5l.92-.24c2.76-1.77,6.13-3.87,8.1-4.84.32-.16.66-.3,1-.44,4-1.64,8.73-1.65,12.93-2.07a40.74,40.74,0,0,0,13.49-3.41c2.23-1,4.21-2.74,6.34-4a21,21,0,0,1,7.37-2.18l.75-.14a25.6,25.6,0,0,0,.87-6.5A22.46,22.46,0,0,0,121.53,30.94Z"/><path class="cls-9" d="M49.5,25.29c-.71,2.24-.21,4.67,0,7.05a13.09,13.09,0,0,0,1.58,1.58c.07,0,10.76-12,10.76-12-2.38-2.64-4.56-5.1-6.9-7.27A8.13,8.13,0,0,1,53.77,18C52.38,20.32,50.33,22.69,49.5,25.29Z"/><path class="cls-10" d="M73,14.26C66.64,21,50.67,38.66,43.42,43.9c-3.46,2.5-6.84,4.3-10.18,4.3A12.29,12.29,0,0,1,21.23,37c-1-10.35,8.42-14.38,13.94-13.68,1.39.17,6.43,1.56,11.56,6.17,0-.1-.07-.19-.1-.28a9,9,0,0,1-.2-4.4c.42-2.61,2-4.83,3.68-6.84,1.2-1.47,2.45-3.74,2-5.76A29.86,29.86,0,0,0,48,9.6,36.14,36.14,0,0,0,32.85,6,27.21,27.21,0,0,0,19.6,8.84,27.75,27.75,0,0,0,6.73,22.68C5,26.57,3.46,30.85,3.46,35.47c0,6.75,2.85,13.06,6.6,18.09A30.1,30.1,0,0,0,34.23,65.69c5.73,0,11.07-.76,15.6-3A31.21,31.21,0,0,0,59.9,54.59l.23-.22C64.27,50.08,77.29,35.55,84.7,28Z"/><path class="cls-11" d="M50.11,18c-1.64,2-3.26,4.23-3.68,6.84a9,9,0,0,0,.2,4.4c0,.09.07.18.1.28.53.47,1.07,1,1.6,1.53.37.39.77.87,1.19,1.34-.23-2.38-.73-4.81,0-7.05.83-2.6,2.88-5,4.27-7.32A8.13,8.13,0,0,0,55,14.6C54,13.75,53.09,13,52.1,12.19,52.56,14.21,51.31,16.48,50.11,18Z"/><path class="cls-12" d="M70.88,32.41l-2.37-2.14c2.54-2.82,7.17-7.57,7.17-7.57l1.95,2.51S73.43,29.58,70.88,32.41Z"/><path class="cls-12" d="M34.91,59.13h0a26.25,26.25,0,0,1-8.53-1.8l1.05-3a22.41,22.41,0,0,0,7.46,1.23h0a24.91,24.91,0,0,0,5-.51l.64,3.13A28.76,28.76,0,0,1,34.91,59.13ZM52.8,51.92l-2.26-2.26c2-2,5.56-5.53,9.73-10.06l2,2.63C58.32,47.37,54.78,49.93,52.8,51.92ZM15.34,49.08c-.09-.11-.16-.23-.25-.34-3.59-4.57-4.39-7.08-4.8-13l3.19-.15a21.79,21.79,0,0,0,4.24,11.28c.07.11.14.2.21.3ZM17,24.42l-2.61-1.84a28.56,28.56,0,0,1,3.55-4.68c2.05-1.89,4.95-3,7.92-3.83l.88,3.07a15.74,15.74,0,0,0-6.38,3.46A24.15,24.15,0,0,0,17,24.42Z"/><path class="cls-12" d="M47.28,22.07c-.06.12-5.86-4.28-8.59-4.77l.89-3.07c2.21.64,7,2.76,9.38,5.16A22.83,22.83,0,0,0,47.28,22.07Z"/></g></g></svg>