<?xml version="1.0" encoding="utf-8"?>
<!-- Generator: Adobe Illustrator 27.2.0, SVG Export Plug-In . SVG Version: 6.00 Build 0)  -->
<svg version="1.1" id="Layer_2" xmlns="http://www.w3.org/2000/svg" xmlns:xlink="http://www.w3.org/1999/xlink" x="0px" y="0px"
	 viewBox="0 0 72 72" style="enable-background:new 0 0 72 72;" xml:space="preserve">
<style type="text/css">
	.st0{enable-background:new    ;}
	.st1{fill:#141414;}
	.st2{fill:#E3530D;}
	.st3{fill:none;}
	.st4{fill:#FBD784;}
	.st5{fill:#A8A8A8;}
</style>
<g id="XMLID_174_">
	<g class="st0">
		<polygon class="st1" points="44,16.3 41.9,15.9 39.7,15.9 37.7,16.3 35.9,17 35.8,31.9 37.6,31.1 39.7,30.7 41.9,30.7 44,31.1 
			45.8,31.9 45.8,17 		"/>
		<g>
			<polygon class="st2" points="35.9,17 35.8,31.9 25.9,26.1 25.9,11.3 			"/>
		</g>
		<polygon class="st2" points="57.3,24 55.9,22.8 45.8,17 45.8,31.9 55.8,37.7 57.2,38.8 57.9,40.2 57.9,25.4 		"/>
		<polygon class="st1" points="14.8,29.6 14.1,30.8 14,45.6 14.7,44.4 16,43.4 16,28.6 		"/>
		<path class="st3" d="M37.5,35.5l0,14.8c-1.3-1-0.7-0.8-4.1-2.7c-1.5-0.9-3.8-2.2-7.3-4.2l0-14.8c3.5,2,5.8,3.3,7.3,4.2
			C36.7,34.8,36.2,34.5,37.5,35.5z"/>
		<path class="st2" d="M37.5,35.5c-1.3-1-0.7-0.8-4.1-2.7c-1.5-0.9-3.8-2.2-7.3-4.2l0,14.8c3.5,2,5.8,3.3,7.3,4.2
			c3.4,2,2.9,1.7,4.1,2.7l0.6,1.4l0-14.8L37.5,35.5z"/>
		<path class="st1" d="M72,26.4c-0.1,0.5-0.3,0.9-0.4,1.4c0,0.1-0.1,0.2-0.1,0.2c-0.2,0.5-0.4,1-0.7,1.5c-0.1,0.1-0.1,0.2-0.2,0.3
			c-0.3,0.5-0.6,0.9-0.9,1.3c-0.1,0.1-0.1,0.2-0.2,0.2c-0.3,0.4-0.6,0.7-1,1.1c-0.1,0.1-0.2,0.2-0.3,0.3c-0.3,0.2-0.9,0.7-1,0.8
			c-0.2,0.2-0.4,0.3-0.7,0.5c-0.5,0.3-0.3,0.2-0.8,0.5c-3.6,2-8.3,2.9-12.4,3.3c-0.4,0-0.7,0.1-1.1,0.1l0,14.8
			c1.7-0.2,3.6-0.4,4.7-0.6c0.1,0,0.3,0,0.4-0.1c0.1,0,0.2-0.1,0.4-0.1c2.9-0.5,5.9-1.4,8.5-2.9c0.1-0.1,0.3-0.2,0.4-0.3
			c0.7-0.5,0.7-0.5,1.1-0.8c0.2-0.2,0.4-0.3,0.6-0.5c0,0,0.1-0.1,0.1-0.1c0.1-0.1,0.1-0.1,0.2-0.2c0.3-0.3,0.7-0.7,1-1.1
			c0-0.1,0.1-0.1,0.1-0.2c0,0,0-0.1,0.1-0.1c0.3-0.4,0.6-0.9,0.9-1.3c0,0,0.1-0.1,0.1-0.1c0-0.1,0.1-0.1,0.1-0.2
			c0.3-0.5,0.5-1,0.7-1.5c0-0.1,0.1-0.1,0.1-0.2c0,0,0-0.1,0-0.1c0.2-0.4,0.3-0.9,0.4-1.4L72,26.4z"/>
		<path class="st1" d="M52.1,52.8l0-14.8c-0.3,1.1-0.8,2.3-1.3,3.3c-0.5,0.9-1.3,1.9-2.1,2.7c-0.1,0.1-0.2,0.2-0.3,0.2
			c-3.1,2.7-7.8,3.9-11.8,4.8l0,14.8c3.2-0.7,7.1-1.7,9.9-3.4c0.1,0,0.1-0.1,0.2-0.1c0.8-0.5,1.2-0.8,1.7-1.3
			c0.1-0.1,0.2-0.1,0.2-0.2c0,0,0,0,0.1-0.1c0.4-0.4,0.7-0.7,1.1-1.1c0,0,0.1-0.1,0.1-0.1c0,0,0.1-0.1,0.1-0.2
			c0.6-0.8,1-1.4,1.4-2.3c0-0.1,0.1-0.2,0.1-0.3c0.1-0.2,0.2-0.4,0.3-0.6c0,0,0-0.1,0-0.1C51.9,53.6,52,53.2,52.1,52.8z"/>
		<g>
			<path class="st4" d="M58.6,12.9c1.5,0.9,3.7,2.2,7.2,4.2c3.4,2.4,2.3,1.5,4.8,4.3c1.4,3,1.1,1.9,1.4,5
				c-1.9,7.1-7.7,10.4-19.8,11.6c-1.9,6.8-6.6,9.2-15.6,11.1c-9.3,0.8-13.2,0.2-20.4-3.2c-2.3-1.3-4.2-2.4-5.8-3.4
				c-8-4.6-8.5-5.2-10.3-9.7c0-3.4-0.3-2.1,1-5.4c2.5-3,1.4-2,5-4.6l10,5.8l-1.3,1l-0.7,1.2l0,1.3l0.7,1.2c1.2,0.9,0.6,0.6,4,2.6
				c1.5,0.9,3.8,2.2,7.3,4.2l2,0.8l2.4,0.4l2.4-0.1l2.2-0.6l1.7-1l1-1.3l0.2-1.4l-0.6-1.4c-1.3-1-0.7-0.8-4.1-2.7
				c-1.5-0.9-3.8-2.2-7.3-4.2l9.9-5.8l10,5.8l2,0.8l2.4,0.4l2.4-0.1l2.2-0.6l1.7-1l1-1.3l0.2-1.4L57.3,24l-1.4-1.2l-10-5.8L44,16.3
				l-2.1-0.4h-2.2l-2.1,0.4L35.9,17l-10-5.8c4.5-2.1,2.7-1.4,7.9-2.9c5.7-0.8,3.5-0.6,9.3-0.6c5.7,0.7,3.6,0.3,8.9,1.8
				C55.4,11.1,55,10.8,58.6,12.9z"/>
		</g>
		<g class="st0">
			<path class="st5" d="M36.6,49.1l0,14.8c-1.7,0.2-3.2,0.3-4.6,0.3l0-14.8C33.4,49.3,34.9,49.2,36.6,49.1"/>
			<path class="st2" d="M36.6,49.1c-9.4,0.9-13.3,0.1-20.4-3.2C2.5,38,2.2,38.2,0.1,32.8c0-1,0-1.6,0-2C0,53.5,0,42.8,0,47.6
				c2.2,5.4,2.4,5.1,16.1,13.1c3,1.4,4.9,2.1,6.4,2.5c0.1,0,0.1,0,0.2,0c0.5,0.1,1.1,0.3,1.7,0.4c0.5,0.1,1,0.2,1.4,0.2
				c0.1,0,0.1,0,0.2,0c0.1,0,0.2,0,0.3,0c0.3,0,0.7,0.1,1.1,0.1c0.1,0,0.2,0,0.3,0c0.4,0,1.3,0.1,1.8,0.1c0.1,0,1.1,0,1.2,0
				c0.2,0,1.3,0,1.4,0v0c1.4,0,2.9-0.1,4.6-0.3L36.6,49.1z"/>
		</g>
	</g>
</g>
</svg>
