<?xml version="1.0" encoding="utf-8"?>
<!-- Generator: Adobe Illustrator 27.2.0, SVG Export Plug-In . SVG Version: 6.00 Build 0)  -->
<svg version="1.1" id="Layer_2" xmlns="http://www.w3.org/2000/svg" xmlns:xlink="http://www.w3.org/1999/xlink" x="0px" y="0px"
	 viewBox="0 0 72 72" style="enable-background:new 0 0 72 72;" xml:space="preserve">
<style type="text/css">
	.st0{enable-background:new    ;}
	.st1{fill:#141414;}
	.st2{fill:#E3530D;}
	.st3{fill:none;}
	.st4{fill:#FBD784;}
</style>
<g id="XMLID_175_">
	<g class="st0">
		<polygon class="st1" points="47.2,16.2 45.3,15.8 43.3,15.8 41.5,16.2 39.9,16.8 39.8,30 41.4,29.4 43.3,29 45.3,29 47.1,29.4 
			48.7,30 48.8,16.8 		"/>
		<g>
			<polygon class="st2" points="39.9,16.8 39.8,30.1 31,24.9 31,11.7 			"/>
		</g>
		<path class="st3" d="M59,23.1l0,13.2c-1.2-1-0.7-0.8-3.7-2.5c-1.3-0.8-3.4-1.9-6.5-3.8l0-13.2c3.2,1.8,5.2,3,6.5,3.8
			C58.3,22.3,57.8,22.1,59,23.1z"/>
		<path class="st2" d="M59,23.1c-1.2-1-0.7-0.8-3.7-2.5c-1.3-0.8-3.4-1.9-6.5-3.8l0,13.2c3.2,1.8,5.2,3,6.5,3.8
			c3,1.7,2.5,1.5,3.7,2.5l0.5,1.3l0-13.2L59,23.1z"/>
		<path class="st1" d="M72,38.3l0-13.2c-0.7,2.7-0.3,1.8-2,4.4c-2.6,2.3-1.5,1.5-4.8,3.5c-4,1.5-2.4,1.1-6.9,2.1l-3.9,0.4l0,13.2
			l3.9-0.4c0.3-0.1,0.5-0.1,0.8-0.2c3.5-0.8,2.3-0.5,6.1-1.9c0.3-0.2,0.6-0.3,0.9-0.5c0.4-0.2,1.3-0.7,1.7-1
			c0.3-0.2,0.5-0.4,0.7-0.6c0.1-0.1,1.1-1,1.5-1.4c0.3-0.4,0.9-1.4,1-1.5c0.1-0.2,0.2-0.3,0.2-0.3c0.1-0.2,0.2-0.4,0.3-0.6
			C71.6,39.9,71.9,38.6,72,38.3z"/>
		<g>
			<polygon class="st2" points="54.5,35.4 54.4,48.6 23.4,46.1 23.4,32.9 			"/>
		</g>
		<g>
			<polygon class="st1" points="44.5,45.1 44.4,58.3 35.6,63.4 35.6,50.2 			"/>
		</g>
		<g>
			<path class="st4" d="M61.9,14.2c7.3,4.2,6.6,3.9,8.8,6.4c1.3,2.7,1,1.7,1.3,4.5c-0.7,2.7-0.3,1.8-2,4.4c-2.6,2.3-1.5,1.5-4.8,3.5
				c-4,1.5-2.4,1.1-6.9,2.1l-3.9,0.4l-31-2.5l21.1,12.2l-8.8,5.1L0.1,29.7l8.8-5.1l45,3.6l2.2-0.4l1.8-0.8l1.2-1.2l0.3-1.3L59,23.1
				c-1.2-1-0.7-0.8-3.7-2.5c-1.3-0.8-3.4-1.9-6.5-3.8l-1.6-0.7l-1.9-0.4l-2,0l-1.9,0.4l-1.6,0.7L31,11.7l3.3-1.5
				c4.7-1.3,2.9-0.9,7.9-1.6c5.2,0,3.3-0.1,8.3,0.5c4.7,1.3,3.1,0.7,7.1,2.6C59.3,12.7,60.7,13.5,61.9,14.2z"/>
		</g>
		<g>
			<polygon class="st2" points="35.6,50.2 35.6,63.4 0,42.9 0.1,29.7 			"/>
		</g>
	</g>
</g>
</svg>
