<svg width="1280" height="960" viewBox="0 0 1280 960" fill="none" xmlns="http://www.w3.org/2000/svg">
<rect width="1280" height="960" fill="#DBDBDB"/>
<path fill-rule="evenodd" clip-rule="evenodd" d="M740 420C740 408.954 731.046 400 720 400H560C548.954 400 540 408.954 540 420V540C540 551.046 548.954 560 560 560H720C731.046 560 740 551.046 740 540V420ZM615 430C623.284 430 630 436.716 630 445C630 453.284 623.284 460 615 460C606.716 460 600 453.284 600 445C600 436.716 606.716 430 615 430ZM705 530C707.761 530 710 527.762 710 525V521.6C709.993 520.519 709.643 519.469 709 518.6L666.5 461.9C665.533 460.677 664.059 459.964 662.5 459.964C660.941 459.964 659.467 460.677 658.5 461.9L629.7 499.1C628.746 500.347 627.27 501.085 625.7 501.1C624.227 501.102 622.832 500.441 621.9 499.3L607.4 481.8C606.437 480.644 605.005 479.983 603.5 480C602.127 480.144 600.868 480.827 600 481.9L571.1 518.6C570.387 519.437 569.996 520.501 570 521.6V525C570 527.762 572.239 530 575 530H705Z" fill="black" fill-opacity="0.15"/>
</svg>
