<svg width="201" height="70" viewBox="0 0 201 70" fill="none" xmlns="http://www.w3.org/2000/svg">
<g clip-path="url(#clip0_439_1347)">
<path fill-rule="evenodd" clip-rule="evenodd" d="M47.3014 61.9847C53.3095 59.0237 58.1519 54.0786 61.0371 47.9576C63.9223 41.8366 64.6796 34.9018 63.1853 28.2866C61.691 21.6714 58.0334 15.7671 52.8104 11.5387C47.5874 7.31033 41.1078 5.00799 34.4309 5.00799C27.7539 5.00799 21.2743 7.31033 16.0513 11.5387C10.8283 15.7671 7.17073 21.6714 5.67641 28.2866C4.1821 34.9018 4.93943 41.8366 7.82462 47.9576C10.7098 54.0786 15.5522 59.0237 21.5603 61.9847L22.0942 62.2518L20.7965 67.1695L20.0244 66.7938C12.8941 63.4547 7.10048 57.7389 3.60384 50.5939C0.1072 43.4489 -0.882437 35.3038 0.798976 27.5086C2.48039 19.7135 6.73188 12.7366 12.8487 7.73431C18.9655 2.73205 26.5803 0.00488281 34.4309 0.00488281C42.2814 0.00488281 49.8962 2.73205 56.013 7.73431C62.1298 12.7366 66.3813 19.7135 68.0627 27.5086C69.7441 35.3038 68.7545 43.4489 65.2579 50.5939C61.7612 57.7389 55.9676 63.4547 48.8373 66.7938L48.0652 67.1528L46.7675 62.2435L47.3014 61.9847Z" fill="#186190"/>
<path fill-rule="evenodd" clip-rule="evenodd" d="M36.7881 64.8821C39.3319 64.6784 41.8388 64.1395 44.246 63.279L44.977 63.0119L46.2583 67.8878L45.6258 68.1049C38.4904 70.592 30.7497 70.633 23.5891 68.2218L22.9484 68.0131L24.2297 63.1454L24.9525 63.3959C27.2562 64.1902 29.6484 64.6894 32.0736 64.8821V55.6979C29.9274 55.2582 27.9368 54.2405 26.3099 52.7512C24.683 51.2619 23.4795 49.3557 22.8252 47.2318C22.6128 46.5628 22.4616 45.8752 22.3735 45.1779C22.3072 44.6574 22.2742 44.1331 22.2749 43.6082V39.9513L32.435 32.988L34.4309 31.6187L41.248 36.2943L41.8887 35.9019V23.8539C41.9218 22.84 41.754 21.8296 41.3952 20.8829C41.0363 19.9362 40.4938 19.0726 39.7999 18.3434C39.106 17.6142 38.275 17.0344 37.3561 16.6383C36.4373 16.2423 35.4494 16.0383 34.4514 16.0383C33.4534 16.0383 32.4655 16.2423 31.5467 16.6383C30.6278 17.0344 29.7967 17.6142 29.1028 18.3434C28.409 19.0726 27.8665 19.9362 27.5076 20.8829C27.1488 21.8296 26.9809 22.84 27.0141 23.8539V34.9918L22.2996 38.223V23.8539C22.2996 22.2312 22.614 20.6244 23.2249 19.1252C23.8358 17.626 24.7312 16.2638 25.86 15.1163C26.9887 13.9689 28.3288 13.0587 29.8036 12.4377C31.2785 11.8167 32.8592 11.4971 34.4555 11.4971C36.0518 11.4971 37.6326 11.8167 39.1074 12.4377C40.5822 13.0587 41.9223 13.9689 43.051 15.1163C44.1798 16.2638 45.0752 17.626 45.6861 19.1252C46.297 20.6244 46.6114 22.2312 46.6114 23.8539V32.6373L48.7716 31.1595L50.4143 30.0574L49.0016 27.8783L58.4306 27.3022L54.1432 35.9019L52.7305 33.7311L42.9811 40.4105L41.248 41.6044L38.899 39.993L34.4309 36.9288L26.9895 42.0302V43.5832C26.9912 44.0254 27.0296 44.4667 27.1044 44.9024C27.3713 46.3889 28.0678 47.761 29.1049 48.8436C30.1421 49.9261 31.473 50.6701 32.9278 50.9806C33.9163 51.1921 34.9372 51.1921 35.9257 50.9806C37.6057 50.6312 39.1159 49.704 40.2021 48.3551C41.2882 47.0062 41.8838 45.318 41.8887 43.5748V42.8985L46.6114 39.6674V43.5748C46.6008 46.4363 45.6168 49.206 43.8264 51.4141C42.0359 53.6221 39.5493 55.1327 36.7881 55.6896V64.8821Z" fill="#24AAE0"/>
<path fill-rule="evenodd" clip-rule="evenodd" d="M108.681 39.8256C110.123 41.1727 112.011 41.9202 113.97 41.9202C115.929 41.9202 117.817 41.1727 119.26 39.8256C119.937 39.105 120.465 38.2532 120.812 37.3208C121.16 36.3885 121.319 35.3947 121.28 34.3986C121.318 33.4025 121.159 32.4088 120.812 31.4765C120.465 30.5443 119.937 29.6924 119.26 28.9716C117.817 27.6244 115.929 26.8769 113.97 26.8769C112.011 26.8769 110.123 27.6244 108.681 28.9716C108.003 29.6924 107.475 30.5443 107.128 31.4765C106.781 32.4088 106.622 33.4025 106.66 34.3986C106.622 35.3947 106.781 36.3885 107.128 37.3208C107.475 38.2532 108.003 39.105 108.681 39.8256ZM122.644 25.7989C123.759 26.9184 124.636 28.2601 125.218 29.7398C125.8 31.2196 126.076 32.8056 126.027 34.3986C126.077 35.9917 125.803 37.5782 125.22 39.0582C124.638 40.5381 123.761 41.8796 122.644 42.9983C120.263 45.1797 117.171 46.387 113.966 46.387C110.761 46.387 107.669 45.1797 105.288 42.9983C104.173 41.8784 103.297 40.5367 102.715 39.057C102.132 37.5773 101.857 35.9915 101.905 34.3986C101.858 32.8058 102.134 31.2204 102.717 29.741C103.299 28.2615 104.174 26.9196 105.288 25.7989C107.669 23.6174 110.761 22.4102 113.966 22.4102C117.171 22.4102 120.263 23.6174 122.644 25.7989Z" fill="#24AAE0"/>
<path fill-rule="evenodd" clip-rule="evenodd" d="M170.766 34.9002V22.9941H175.481V34.9002C175.481 38.0395 174.75 41.1454 172.466 43.408C170.183 45.6707 167.415 46.3887 164.393 46.3887C162.919 46.4585 161.447 46.2318 160.06 45.7217C158.673 45.2117 157.399 44.4282 156.311 43.4164C154.027 41.1621 153.304 38.0228 153.304 34.8835V22.9941H158.019V34.9002C157.891 36.808 158.504 38.6908 159.727 40.1435C161.02 41.2898 162.677 41.9214 164.393 41.9214C166.108 41.9214 167.765 41.2898 169.058 40.1435C170.281 38.6908 170.895 36.808 170.766 34.9002Z" fill="#186190"/>
<path fill-rule="evenodd" clip-rule="evenodd" d="M197.616 25.7989C198.73 26.9196 199.606 28.2615 200.188 29.741C200.77 31.2204 201.046 32.8058 201 34.3986C201.048 35.9915 200.772 37.5773 200.19 39.057C199.608 40.5367 198.731 41.8784 197.616 42.9983C196.465 44.1318 195.101 45.0166 193.604 45.5993C192.108 46.1819 190.511 46.4502 188.91 46.3881C186.92 46.4125 184.952 45.9666 183.16 45.0856V39.2411C183.316 39.4332 183.481 39.6252 183.653 39.8089C185.097 41.1566 186.986 41.9044 188.947 41.9044C190.907 41.9044 192.796 41.1566 194.24 39.8089C194.918 39.0883 195.446 38.2365 195.793 37.3041C196.14 36.3718 196.299 35.378 196.261 34.3819C196.299 33.3858 196.14 32.3921 195.793 31.4598C195.445 30.5276 194.918 29.6757 194.24 28.9549C192.796 27.6071 190.907 26.8594 188.947 26.8594C186.986 26.8594 185.097 27.6071 183.653 28.9549C182.313 30.4253 181.575 32.3606 181.592 34.3652V55.3301H176.885V33.906C176.896 32.3955 177.2 30.902 177.78 29.5109C178.359 28.1199 179.202 26.8585 180.261 25.7989C182.642 23.6174 185.733 22.4102 188.939 22.4102C192.144 22.4102 195.235 23.6174 197.616 25.7989Z" fill="#186190"/>
<path fill-rule="evenodd" clip-rule="evenodd" d="M97.0832 25.7989C98.1974 26.9196 99.0729 28.2615 99.655 29.741C100.237 31.2204 100.514 32.8058 100.467 34.3986C100.515 35.9915 100.239 37.5773 99.6571 39.057C99.0748 40.5367 98.1986 41.8784 97.0832 42.9983C95.9354 44.1287 94.5747 45.0117 93.0829 45.5943C91.591 46.1768 89.9987 46.4468 88.4016 46.3881C86.4137 46.4203 84.4455 45.983 82.6521 45.1106V39.2411C82.8082 39.4332 82.9642 39.6252 83.1449 39.8089C84.5891 41.1566 86.4781 41.9044 88.4385 41.9044C90.3989 41.9044 92.288 41.1566 93.7321 39.8089C94.4087 39.0879 94.9355 38.2358 95.2813 37.3034C95.627 36.371 95.7845 35.3774 95.7444 34.3819C95.784 33.3863 95.6263 32.3929 95.2806 31.4606C94.9349 30.5282 94.4083 29.6761 93.7321 28.9549C92.288 27.6071 90.3989 26.8594 88.4385 26.8594C86.4781 26.8594 84.5891 27.6071 83.1449 28.9549C81.8046 30.4253 81.0671 32.3606 81.0834 34.3652V55.3301H76.3853V33.906C76.3964 32.3955 76.7003 30.902 77.2795 29.5109C77.8588 28.1199 78.702 26.8585 79.761 25.7989C82.1418 23.6174 85.2333 22.4102 88.4385 22.4102C91.6437 22.4102 94.7352 23.6174 97.116 25.7989" fill="#24AAE0"/>
<path fill-rule="evenodd" clip-rule="evenodd" d="M130.816 42.9986C129.7 41.8787 128.824 40.537 128.242 39.0573C127.66 37.5776 127.384 35.9918 127.432 34.3989C127.385 32.8061 127.662 31.2207 128.244 29.7412C128.826 28.2618 129.702 26.9199 130.816 25.7991C131.964 24.6695 133.325 23.787 134.817 23.2045C136.308 22.622 137.901 22.3516 139.498 22.4093C141.485 22.3805 143.452 22.8176 145.247 23.6868V29.5312C145.094 29.3321 144.93 29.1425 144.754 28.9635C143.311 27.6164 141.424 26.8688 139.465 26.8688C137.506 26.8688 135.618 27.6164 134.175 28.9635C133.498 29.6843 132.97 30.5362 132.623 31.4685C132.276 32.4008 132.117 33.3944 132.155 34.3905C132.116 35.3866 132.275 36.3804 132.622 37.3128C132.969 38.2451 133.498 39.0969 134.175 39.8175C135.618 41.1646 137.506 41.9122 139.465 41.9122C141.424 41.9122 143.311 41.1646 144.754 39.8175C146.096 38.3514 146.834 36.4181 146.816 34.4156V17.7672H143.884L149.083 8.58301L154.282 17.7672H151.53V34.8915C151.52 36.4021 151.217 37.8958 150.637 39.287C150.058 40.6782 149.214 41.9395 148.155 42.9986C145.772 45.1806 142.679 46.3881 139.473 46.3881C136.266 46.3881 133.173 45.1806 130.791 42.9986" fill="#24AAE0"/>
</g>
<defs>
<clipPath id="clip0_439_1347">
<rect width="201" height="70" fill="white"/>
</clipPath>
</defs>
</svg>
