<?xml version="1.0" encoding="UTF-8"?>
<svg id="Layer_1" data-name="Layer 1" xmlns="http://www.w3.org/2000/svg" version="1.1" viewBox="0 0 72 72">
  <defs>
    <style>
      .cls-1 {
        fill: #fff;
        stroke-width: 0px;
      }
    </style>
  </defs>
  <g>
    <path class="cls-1" d="M24,0v8c0-.5,0,0,0,0h0c-8.6,0-15.5,6.6-16,15.1v24.8H0v-26C.2,12.2,9.4-.2,24,0Z"/>
    <path class="cls-1" d="M24,12v8h0c-2.2,0-4,1.8-4,4v24h-8v-24c0-6.5,5.4-11.9,12-11.9Z"/>
  </g>
  <g>
    <path class="cls-1" d="M47.9,0c-16.2,0-24.2,13.5-24,24v36c4.4,0,8-3.5,8-8v-28.8c.5-8.5,7.5-15.1,16.1-15.1,21.1.6,21,31.4,0,31.9v8c15,0,24.1-11.8,24.1-24S63,0,47.9,0Z"/>
    <path class="cls-1" d="M52.1,24c0,2.2-1.9,4.2-4.1,4.2v7.8c7.8-.2,11.9-6.1,12-12,0-6-3.9-12-12-12s-12,5.5-12,12.1v28c0,6.7-5.4,11.9-12,11.9v8c11,0,20-9,20-20h0v-28c0-2.2,1.8-4,4-4,2.2,0,4.1,1.8,4.1,4Z"/>
  </g>
</svg>