<?xml version="1.0" encoding="utf-8"?>
<!-- Generator: Adobe Illustrator 27.1.1, SVG Export Plug-In . SVG Version: 6.00 Build 0)  -->
<svg version="1.1" id="Layer_1" xmlns="http://www.w3.org/2000/svg" xmlns:xlink="http://www.w3.org/1999/xlink" x="0px" y="0px"
	 viewBox="0 0 72 72" style="enable-background:new 0 0 72 72;" xml:space="preserve">
<style type="text/css">
	.st0{fill:#E3530D;}
</style>
<g>
	<g>
		<path class="st0" d="M24,0v8.01c0-0.48,0,0,0,0l0,0c-8.56,0-15.52,6.65-16,15.14c0,0.24,0,24.83,0,24.83H0V22.03
			C0.16,12.18,9.36-0.24,24,0z"/>
		<path class="st0" d="M24,12.02v8.01l0,0l0,0c-2.16,0-4,1.84-4,4c0,0.16,0,15.46,0,15.46s0,4.81,0,8.49h-8c0-3.68,0-20.02,0-24.03
			C12,17.46,17.36,12.02,24,12.02z"/>
	</g>
	<g>
		<path class="st0" d="M47.92,0c-16.24,0-24.16,13.53-24,24.03v35.96c4.4,0,8-3.52,8-8.01c0-0.32,0-28.51,0-28.83
			C32.4,14.66,39.44,8.01,48,8.01c21.12,0.56,20.96,31.39-0.08,31.95v8.01C62.88,47.97,72,36.2,72,23.95C72,11.86,62.96,0,47.92,0z"
			/>
		<path class="st0" d="M52.08,24.03c0,2.16-1.92,4.16-4.08,4.16v7.77c7.84-0.24,11.92-6.09,12-12.01c0.08-6.01-3.92-12.01-12-12.01
			c-6.64,0-12,5.45-12,12.09v28.03c0,6.65-5.36,11.93-12,11.93V72c11.04,0,20-8.97,20-20.02l0,0c0,0,0-27.87,0-27.95
			c0-2.16,1.84-4,4-4C50.16,20.02,52.08,21.87,52.08,24.03z"/>
	</g>
</g>
</svg>
