<?xml version="1.0" encoding="utf-8"?>
<!-- Generator: Adobe Illustrator 28.2.0, SVG Export Plug-In . SVG Version: 6.00 Build 0)  -->
<svg version="1.1" id="Layer_1" xmlns="http://www.w3.org/2000/svg" xmlns:xlink="http://www.w3.org/1999/xlink" x="0px" y="0px"
	 viewBox="0 0 132 72" style="enable-background:new 0 0 132 72;" xml:space="preserve">
<style type="text/css">
	.st0{fill:#FFFFFF;}
</style>
<g>
	<g>
		<path class="st0" d="M25.8,59.2v7.6h4.7H34c0.4,0,0.6,0.2,0.6,0.6v4.1c0,0.4-0.2,0.6-0.6,0.6h-3.5H21h-6.3c-0.4,0-0.6-0.2-0.6-0.6
			v-4.1c0-0.4,0.2-0.6,0.6-0.6H21h2v-7.6C11.2,58.5,0.6,48.7,0.6,36.5V26.2h2.8v10.4c0,10.9,10,19.9,20.9,19.9s20.9-9,20.9-19.9
			V26.2h2.8v10.4C48.2,48.7,37.6,58.5,25.8,59.2z"/>
		<g>
			<path class="st0" d="M30.6,1.2v7.4h-2v-8c-1-0.3-2.1-0.4-3.1-0.5v8.5h-2V0c-1.1,0.1-2.2,0.2-3.2,0.5v8h-2V1.1
				C11.9,3.6,7.3,9.8,7.3,17.2l0,7.6l7-6.4l2.9,2.6l7.1-6.3l8,7l3.6-2.3l5.4,5.1v-7.3C41.3,9.9,36.9,3.7,30.6,1.2z"/>
			<path class="st0" d="M7.3,34.3v-8.9l6.7-4l7.8,3.9l-3.4-2.7l5.9-4.3l7.6,6.1l3.9-2.8l5.4,3.5l0,10.2c0,9.5-7.6,17.2-17,17.2
				c-0.4,0-0.9,0-1.3,0c3.5-2.5,11.1-8.7,8.5-13.4c-2.9-5.4-13-6.2-11-7.7c2.6-2.1,18.9-5.4,20.8-5.7c-9.2-0.2-32,4.6-26.1,8.1
				c5.2,3.1,7.1,3.4,7.1,6.2c0,3.2-7.4,6.4-10.1,7.4c-3-3.1-4.8-7.3-4.8-11.9L7.3,34.3z"/>
		</g>
	</g>
	<g>
		<path class="st0" d="M66.6,46c1.2,0,2.4,0.1,3.5,0.3c1.2,0.2,2.2,0.6,3.1,1L72.1,53l-0.6,0.3c-1.8-1-3.5-1.5-4.9-1.5
			c-1.6,0-2.9,0.6-3.8,1.8c-0.9,1.2-1.3,2.9-1.3,5c0,2.5,0.5,4.4,1.4,5.7c1,1.3,2.3,2,4.1,2c1.6,0,3.4-0.4,5.4-1.3l0.5,0.4L72.2,71
			c-2.1,0.7-4.3,1-6.6,1c-3.4,0-6.1-1.1-8-3.4c-1.9-2.2-2.9-5.4-2.9-9.4c0-4.1,1.1-7.4,3.2-9.7C60,47.2,62.9,46,66.6,46z"/>
		<path class="st0" d="M84.7,46c2.8,0,4.9,0.6,6.5,1.9c1.6,1.2,2.3,3,2.3,5.2c0,0.6-0.1,2.7-0.3,6.1c0,1-0.1,2-0.2,3.1
			c-0.1,1.1-0.1,2-0.1,2.7c0,0.6,0.1,1,0.3,1.3c0.2,0.2,0.5,0.3,1,0.3c0.4,0,0.8-0.1,1.4-0.2l0.5,0.4l-0.6,3.8
			c-1.1,0.8-2.5,1.2-3.9,1.3c-1.1-0.1-2-0.5-2.7-1.2c-0.7-0.7-1.2-1.6-1.4-2.8H87c-1.8,1.9-3.6,3.2-5.5,4c-2.6,0-4.6-0.7-6.1-2
			c-1.5-1.3-2.2-3.1-2.2-5.4c0-1.8,0.5-3.2,1.4-4.2c0.9-1,2.3-1.7,4.2-2.1l8.2-1.6v-2.2c0-2.3-1.1-3.5-3.4-3.5
			c-1.1,0-2.3,0.3-3.5,0.8c-1.2,0.5-2.6,1.3-4.2,2.4l-0.5-0.3L74.5,49c1.5-1,3.2-1.7,4.9-2.2C81.2,46.3,83,46,84.7,46z M81.2,61.5
			c-0.6,0.1-1,0.4-1.3,0.7c-0.3,0.3-0.4,0.8-0.4,1.5c0,0.9,0.3,1.7,0.8,2.2c0.5,0.5,1.2,0.8,2.1,0.8c1.4,0,2.9-0.8,4.4-2.5l0.1-4
			L81.2,61.5z"/>
		<path class="st0" d="M106.9,46.1c2.4,0,4.7,0.4,6.9,1.2l-1,5.3l-0.9,0.3c-1-0.7-2.1-1.2-3.1-1.6c-1-0.4-1.9-0.5-2.7-0.5
			c-0.9,0-1.5,0.2-2,0.7c-0.5,0.4-0.8,1-0.8,1.6c0,0.8,0.3,1.4,1,1.8c0.7,0.5,1.7,1,3.1,1.6c1.4,0.6,2.6,1.1,3.5,1.7
			s1.7,1.3,2.4,2.2c0.7,0.9,1,2.1,1,3.5c0,1.4-0.4,2.8-1.1,4s-1.9,2.2-3.4,3c-1.5,0.8-3.3,1.2-5.5,1.2c-2.6,0-5.2-0.5-8-1.6l0.8-5.6
			l0.7-0.4c1.1,0.9,2.3,1.7,3.7,2.2c1.4,0.6,2.6,0.8,3.6,0.8c1,0,1.7-0.2,2.3-0.7c0.5-0.5,0.8-1.1,0.8-1.7c0-0.8-0.3-1.4-1-1.8
			c-0.7-0.5-1.7-1-3.1-1.6c-1.5-0.6-2.7-1.2-3.6-1.7c-0.9-0.5-1.7-1.3-2.4-2.2c-0.7-1-1-2.2-1-3.6c0-2.3,0.9-4.2,2.6-5.7
			C101.5,46.8,103.9,46.1,106.9,46.1z"/>
		<path class="st0" d="M127.1,66.2c1.1,0,2.3-0.3,3.6-0.9l0.6,0.5l-0.7,4.2c-1.8,0.9-3.7,1.5-5.6,1.7c-4.8-0.5-7.2-2.9-7.2-7.1
			l0.3-4.5L118,51h-3.3l-0.3-0.4l0.4-3.9h3.2v-4.1l6.5-2.1l0.5,0.4l-0.2,5.8h6.4l0.2,0.4L131,51h-6.4l-0.3,12c0,1.1,0.2,2,0.6,2.4
			C125.4,65.9,126.1,66.2,127.1,66.2z"/>
	</g>
	<g>
		<path class="st0" d="M73,29.1c2.8,4.4,5.6,8.4,8.3,12L81.2,42c-2.3,0.8-4.7,1.3-7.1,1.4l-0.8-0.6c-2.6-4.4-4.7-8.3-6.3-11.6h-5.2
			v0.7l0.3,10.9h-7.3l0.4-10.3L54.9,8.3l13.3-0.1c3.6,0,6.4,0.9,8.4,2.7c2,1.8,3,4.3,3,7.6c0,2.2-0.6,4.2-1.7,6.1
			C76.7,26.4,75.1,28,73,29.1z M62,25.6l5.3,0.2c3-1,4.6-3.2,4.6-6.6c0-1.8-0.5-3.2-1.5-4.1c-1-0.9-2.5-1.4-4.5-1.5l-3.6,0.2
			L62,25.6z"/>
		<polygon class="st0" points="100,42.9 91.3,42.9 80.7,8.3 88.2,8.3 89,12.9 95.6,36.1 96,36.1 103.6,13.3 104.5,8.3 111.7,8.3 		
			"/>
	</g>
</g>
</svg>
