<?xml version="1.0" encoding="UTF-8"?>
<svg id="Logo" xmlns="http://www.w3.org/2000/svg" version="1.1" viewBox="0 0 48 24">
  <defs>
    <style>
      .cls-1 {
        fill: #fff;
        stroke-width: 0px;
      }
    </style>
  </defs>
  <g>
    <path class="cls-1" d="M23.28,10.24c-1.61,0-2.92,1.31-2.92,2.92s1.31,2.92,2.92,2.92,2.92-1.31,2.92-2.92-1.31-2.92-2.92-2.92ZM23.28,15.05c-1.04,0-1.89-.85-1.89-1.89s.85-1.89,1.89-1.89,1.89.85,1.89,1.89-.85,1.89-1.89,1.89Z"/>
    <path class="cls-1" d="M32.19,12.64v-5.8c0-3.77-3.07-6.84-6.84-6.84h-6.19c-3.77,0-6.84,3.07-6.84,6.84s3.07,6.84,6.84,6.84h.08v-1.04h-.08c-3.2,0-5.8-2.6-5.8-5.8s2.6-5.8,5.8-5.8h6.19c3.2,0,5.8,2.6,5.8,5.8v5.8h-3.84v1.04h8.35v-1.04h-3.48Z"/>
    <path class="cls-1" d="M23,9.62v-4.12c0-1.56-1.27-2.83-2.82-2.83h-1.72c-1.56,0-2.83,1.27-2.83,2.83s1.27,2.83,2.83,2.83h2.79l1.76,1.29ZM16.66,5.5c0-.99.8-1.79,1.79-1.79h1.72c.99,0,1.79.8,1.79,1.79v2.07l-.38-.28h-3.13c-.99,0-1.79-.8-1.79-1.79Z"/>
    <path class="cls-1" d="M29.17,5.75c0-1.07-.87-1.93-1.93-1.93h-1.05c-1.07,0-1.93.87-1.93,1.93v2.92l1.34-.99h1.64c1.07,0,1.93-.87,1.93-1.93ZM27.24,6.65h-1.95v-.9c0-.49.4-.9.9-.9h1.05c.49,0,.9.4.9.9s-.4.9-.9.9Z"/>
  </g>
  <g>
    <g>
      <path class="cls-1" d="M1.44,18.95h2.39c.74,0,1.52.57,1.52,1.64,0,.83-.47,1.36-1.03,1.56l1.13,1.79h-1.14l-1.07-1.7h-.81v1.7h-.99v-4.99ZM3.67,21.26c.37,0,.68-.26.68-.67s-.31-.68-.68-.68h-1.24v1.36h1.24Z"/>
      <path class="cls-1" d="M5.47,18.95h1.05l1.31,3.35,1.3-3.35h1.05l-1.96,4.99h-.79l-1.96-4.99Z"/>
    </g>
    <g>
      <path class="cls-1" d="M13.85,19.6c-1.07,0-1.79.77-1.79,1.84s.71,1.83,1.79,1.83c.64,0,1.14-.32,1.43-.72l.58.44c-.43.62-1.13,1-2.02,1-1.48,0-2.51-1.07-2.51-2.55s1.03-2.55,2.51-2.55c.88,0,1.59.38,2.02,1l-.58.42c-.29-.41-.8-.71-1.43-.71Z"/>
      <path class="cls-1" d="M16.15,22.17c0-1.07.74-1.83,1.81-1.83s1.79.77,1.79,1.83-.74,1.83-1.79,1.83-1.81-.78-1.81-1.83ZM19.07,22.17c0-.67-.44-1.17-1.11-1.17s-1.12.49-1.12,1.17.45,1.17,1.12,1.17,1.11-.51,1.11-1.17Z"/>
      <path class="cls-1" d="M23.55,21.76v2.17h-.69v-2.07c0-.65-.46-.92-.91-.92s-.89.27-.89.92v2.07h-.69v-3.53h.69v.43c.27-.35.68-.48,1.09-.48.68,0,1.4.39,1.4,1.41Z"/>
      <path class="cls-1" d="M23.89,20.4h.72l1.01,2.59,1.02-2.59h.72l-1.4,3.53h-.68l-1.39-3.53Z"/>
      <path class="cls-1" d="M30.96,22.17v.2h-2.78c.07.63.51,1.04,1.13,1.04.51,0,.83-.23,1-.48l.48.35c-.31.44-.84.73-1.48.73-1.07,0-1.79-.78-1.79-1.83s.69-1.83,1.75-1.83,1.7.77,1.7,1.83ZM28.19,21.91h2.13c-.08-.59-.46-1.02-1.05-1.02s-1,.41-1.08,1.02Z"/>
      <path class="cls-1" d="M34.75,21.76v2.17h-.69v-2.07c0-.65-.46-.92-.91-.92s-.89.27-.89.92v2.07h-.69v-3.53h.69v.43c.27-.35.68-.48,1.09-.48.68,0,1.4.39,1.4,1.41Z"/>
      <path class="cls-1" d="M36.39,20.93v1.99c0,.38.25.45.49.45h.29v.55h-.56c-.59,0-.91-.33-.91-.9v-2.09h-.48v-.53h.48v-1.08h.69v1.08h.82v.53h-.82Z"/>
      <path class="cls-1" d="M37.75,19.32c0-.25.21-.39.41-.39s.4.14.4.39-.2.41-.4.41-.41-.16-.41-.41ZM37.81,23.93v-3.53h.69v3.53h-.69Z"/>
      <path class="cls-1" d="M39.17,22.17c0-1.07.74-1.83,1.81-1.83s1.79.77,1.79,1.83-.74,1.83-1.79,1.83-1.81-.78-1.81-1.83ZM42.09,22.17c0-.67-.44-1.17-1.11-1.17s-1.12.49-1.12,1.17.45,1.17,1.12,1.17,1.11-.51,1.11-1.17Z"/>
      <path class="cls-1" d="M46.56,21.76v2.17h-.69v-2.07c0-.65-.46-.92-.9-.92s-.89.27-.89.92v2.07h-.69v-3.53h.69v.43c.27-.35.68-.48,1.09-.48.68,0,1.4.39,1.4,1.41Z"/>
    </g>
  </g>
</svg>