<svg xmlns="http://www.w3.org/2000/svg" id="Layer_1" viewBox="0 0 1902.66 537.2"><defs><style>.cls-1,.cls-2{fill:#fff;}.cls-3{fill:#db2115;}.cls-4{fill:#2a3241;}.cls-2{isolation:isolate;opacity:.8;}</style></defs><g><path class="cls-4" d="M829.92,273.89c8.09-12.52,12.13-27.92,12.13-46.19s-3.94-33.6-11.83-46.54c-7.88-12.95-19.4-23.3-33.12-29.76-14.18-6.85-30.73-10.27-49.65-10.27h-110.04v254.93h69.19v-84.22h23.91l44.8,84.22h75.18l-51.77-95.05c12.7-5.96,23.51-15.34,31.19-27.13Zm-123.31-77.59h24.4c7.09-.17,14.15,.95,20.85,3.29,5.41,1.94,10.07,5.53,13.31,10.27,3.13,4.65,4.69,10.6,4.68,17.86,0,7.26-1.57,13.13-4.68,17.61-3.27,4.61-7.93,8.04-13.31,9.77-6.73,2.18-13.78,3.22-20.85,3.05h-24.4v-61.84Z"></path><polygon class="cls-4" points="987.41 320.87 985.42 320.87 933.14 141.13 854.98 141.13 939.11 396.07 1033.72 396.07 1117.85 141.13 1039.69 141.13 987.41 320.87"></polygon><polygon class="cls-4" points="1281.14 141.13 1211.95 141.13 1211.95 396.07 1384.14 396.07 1384.14 340.31 1281.14 340.31 1281.14 141.13"></polygon><rect class="cls-4" x="1412.02" y="141.13" width="69.27" height="254.93"></rect><polygon class="cls-4" points="1514.14 396.07 1583.33 396.07 1583.33 296.46 1682.42 296.46 1682.42 240.7 1583.33 240.7 1583.33 196.89 1693.38 196.89 1693.38 141.13 1514.14 141.13 1514.14 396.07"></polygon><polygon class="cls-4" points="1902.49 196.89 1902.49 141.13 1718.76 141.13 1718.76 396.07 1902.06 396.07 1902.06 340.31 1788.04 340.31 1788.04 296.46 1893.1 296.46 1893.1 240.7 1788.04 240.7 1788.04 196.89 1902.49 196.89"></polygon></g><g><path class="cls-3" d="M449.58,87.62C401.24,39.28,336.97,12.66,268.6,12.66S135.96,39.28,87.62,87.62C39.28,135.96,12.66,200.23,12.66,268.6s26.62,132.64,74.96,180.98,112.61,74.96,180.98,74.96,132.64-26.62,180.98-74.96,74.96-112.61,74.96-180.98-26.62-132.64-74.96-180.98Z"></path><path class="cls-2" d="M457.56,278.28h41.84c1.66-.03,3.14-1.08,3.7-2.65,.53-1.59,.53-3.18-1.05-4.24-24.36-23.83-46.07-51.89-62.49-85.25h32.84c1.12,.02,2.14-.6,2.65-1.59,.53-1.06,0-2.12-.53-3.17-25.96-25.42-47.12-56.66-58.79-100.08-.34-1.46-1.8-2.38-3.26-2.04-1.01,.23-1.8,1.02-2.04,2.04-11.65,43.42-32.83,74.66-58.78,100.08-.92,.79-1.14,2.12-.53,3.17,.51,.99,1.53,1.61,2.65,1.59h32.83c-15.86,31.74-36.99,60.57-62.48,85.25-1.14,1.09-1.55,2.74-1.06,4.24,.33,1.51,1.64,2.6,3.18,2.65h42.36c-5.3,9.53-11.12,19.06-16.95,28.06,36.54,11.65,39.19,13.77,40.78,14.83,7.94,6.35,12.18,18.53,12.18,24.88,0,15.89-1.06,25.42-2.12,31.77,10.06,5.3,12.18,9.54,12.18,13.77-.02,2.31,.16,4.61,.53,6.89,1.05,16.41,1.05,18,0,20.65s-4.24,6.88-7.42,10.06c1.59,0,3.71,.53,6.36,.53,11.65,0,12.18-2.65,12.18-2.65v-33.89h67.24c6.85-12.65,12.86-25.74,18-39.18-21.06-22.91-39.2-48.34-54-75.72Z"></path><path class="cls-1" d="M404.61,392.12c0-2.65-13.77-8.47-13.77-8.47,2.65-2.65,3.7-33.36,3.7-37.07s-3.17-13.23-8.47-17.47c-5.3-4.24-86.84-28.06-86.84-28.06-2.12-2.65-55.07-47.13-65.13-55.6-1-.96-2.31-1.53-3.7-1.59h-92.67c-3.2,.03-5.79,2.62-5.82,5.82v173.15c.02,3.21,2.61,5.8,5.82,5.83h133.44c1.06,22.24,19.59,39.71,42.36,40.24,22.77,0,41.83-17.47,42.89-40.24h15.36c1.58,.53,20.12,2.12,22.76,.53,2.64-1.59,10.59-10.06,11.12-11.65,.53-2.65-1.05-22.77-1.05-25.42Zm-244.11-21.71c-.12,1.71-1.47,3.06-3.18,3.18h-2.12c-1.7-.12-3.05-1.48-3.17-3.18v-23.81c.12-1.7,1.47-3.05,3.17-3.17h2.12c1.7,.12,3.06,1.47,3.18,3.17v23.81Zm114.37-52.95c-.02,3.21-2.61,5.8-5.82,5.83h-85.78c-3.21-.03-5.8-2.62-5.83-5.83v-52.42c.03-3.21,2.62-5.8,5.83-5.83h41.83c1.55,.05,3.04,.6,4.24,1.59l43.95,41.3c1.21,1.1,1.96,2.61,2.11,4.24v11.12h-.53Zm38.66,132.91c-13.77,0-24.36-11.12-24.36-24.89s11.12-24.36,24.89-24.36,24.34,11.12,24.34,24.89-11.12,24.36-24.89,24.36h.02Zm71.48-78.9c-.07,1.14-.97,2.05-2.11,2.13h-6.89c-2.65-.02-4.99-1.73-5.82-4.24l-3.71-13.76c-.89-3.08,.88-6.29,3.96-7.19,.61-.18,1.24-.25,1.86-.22h11.1c1.14,.08,2.04,.98,2.12,2.12l-.51,21.16Z"></path><path class="cls-1" d="M458.53,78.67C407.8,27.94,340.35,0,268.6,0S129.4,27.94,78.67,78.67C27.94,129.4,0,196.85,0,268.6s27.94,139.2,78.67,189.93c50.73,50.73,118.18,78.67,189.93,78.67s139.2-27.94,189.93-78.67c50.73-50.73,78.67-118.18,78.67-189.93s-27.94-139.2-78.67-189.93ZM32.61,169.2h5.08c6.41,.05,11.6,5.24,11.65,11.65v82.6c-.05,6.41-5.24,11.6-11.65,11.65H12.74c-.05-2.16-.08-4.33-.08-6.5,0-34.71,6.87-68.35,19.95-99.4ZM449.58,449.58c-48.34,48.34-112.61,74.96-180.98,74.96s-132.64-26.62-180.98-74.96c-7-7-13.53-14.34-19.6-21.98h50.15c3.21-.03,5.8-2.62,5.82-5.83V245.45c.02-5.84,4.75-10.58,10.59-10.6h169.42c27,0,41.83-31.77,24.36-52.42-9.42-11.19-19.69-21.63-30.72-31.24-13.03-11.03-26.84-21.11-41.3-30.18-12.28-7.52-26.37-11.54-40.77-11.65H68.21c6.02-7.55,12.49-14.81,19.41-21.74C135.96,39.28,200.24,12.66,268.6,12.66s132.64,26.62,180.98,74.96c48.34,48.34,74.96,112.61,74.96,180.98s-26.62,132.64-74.96,180.98Zm-355.8-43.69V131.07c.08-1.14,.98-2.04,2.12-2.12h4.24c1.13,.08,2.03,.99,2.11,2.12V405.89c-.08,1.13-.98,2.04-2.11,2.12h-4.24c-1.14-.08-2.04-.98-2.12-2.12Zm97.43-221.83v-29.69c.03-3.21,2.62-5.8,5.83-5.83h49.77c1.94,0,3.75,.99,4.77,2.65l16.41,24.89c3.71,5.82-.53,13.77-7.41,13.77v.04h-63.54c-3.21-.03-5.8-2.62-5.83-5.83Z"></path></g></svg>