<?xml version="1.0" encoding="UTF-8"?>
<svg id="Layer_1" data-name="Layer 1" xmlns="http://www.w3.org/2000/svg" version="1.1" viewBox="0 0 30 36">
  <defs>
    <style>
      .cls-1 {
        fill: #000;
        stroke-width: 0px;
      }
    </style>
  </defs>
  <path class="cls-1" d="M29.9,19.4l-5.4-9.4c-.1-.2-.4-.3-.5-.1l-2,1.2c-.1,0-.2.2-.2.4v.7c-2.1-.9-4.1-1-5.6,0-1.6-3.1-4-5.7-6.4-7.2l-1.5-.9V.4c0-.1,0-.3-.2-.4s-.3,0-.4,0L2.2,2.9.2,4.1c0,0-.2.1-.2.3,0,.1,0,.2,0,.3l5.4,9.4c.1.2.4.3.5.1l2-1.2c.1,0,.2-.2.2-.4v-.5c1.9,1.6,3.4,4.4,3.4,6.7v11.2c0,.2,0,.3.2.4l4,2.4c0,0,.1,0,.2,0s.1,0,.2,0l2-1.2c.1,0,.2-.2.2-.4v-11.2c0-.5.1-.9.3-1.3.6,0,1.3.3,2.1.7l1.1.7v3.5c0,.1,0,.3.2.4.1,0,.3,0,.4,0l5.5-2.9,2-1.2c0,0,.2-.1.2-.3,0-.1,0-.2,0-.3h0ZM22.6,11.7h0s1.4-.9,1.4-.9l5,8.7-1.5.9-5-8.6h0ZM14.1,13.5c-1.6-3.2-4-5.8-6.5-7.3l-1.4-.8.4-.2,1-.6,1.7,1c2.4,1.4,4.7,4,6.2,7.1l-1.3.8s0,0,0,0c0,0,0,0,0,0h0s0,0,0,0ZM16.5,12.8c1.4-.8,3.3-.7,5.5.4,0,0,.1,0,.2,0v1.7s-1.2-.7-1.2-.7c-1.5-.9-3-1.4-4.3-1.4s-.1,0-.2,0h0ZM22.4,19.5l-1.3-.8c-.9-.6-1.9-.9-2.7-.8,0,0,0,0-.1,0-1.5,0-2.4,1.3-2.5,3.1v10.8s-3.4-2-3.4-2v-11c0-2.8-1.9-6.2-4.3-7.9,0,0,0,0,0,0,0,0,0,0,0,0h0c0,0-.2-.1-.2-.2l-1.7-1c0,0-.1,0-.2,0,0,0-.1.1-.1.2v2.8S1,4.6,1,4.6l1.6-1,3.1-1.6v3.3s0,0,0,0c0,0,0,0,0,0,0,0,0,0,0,0l1.7,1c2.5,1.5,4.8,4.2,6.4,7.4,0,0,0,0,.1.1,0,0,0,0,0,0,0,0,0,0,.1,0l.6-.3c1.6-.8,3.8-.5,6.1.9l1.5.9s0,0,.1,0,0,0,0,0c0,0,.1-.1.1-.2v-2.4s0,0,0,0c0,0,0,0,0,0v-.3s4.6,8,4.6,8l-4.7,2.5v-3.1c0-.2,0-.3-.2-.4h0Z"/>
  <path class="cls-1" d="M5.9,16.9c-1.9-1.1-3.4-.2-3.4,2,0,2.2,1.5,5,3.4,6.1,1.9,1.1,3.4.2,3.4-2,0-2.2-1.5-5-3.4-6.1h0ZM7.7,23.5l-.6.4-1.2-2.2-1.2.7-.6-1.1,1.2-.7-1.2-2.2.6-.4,1.2,2.2,1.2-.7.6,1.1-1.2.7,1.2,2.2Z"/>
  <path class="cls-1" d="M23.4,27.4c-1.9-1.1-3.4-.2-3.4,2,0,2.2,1.5,5,3.4,6.1,1.9,1.1,3.4.2,3.4-2,0-2.2-1.5-5-3.4-6.1h0ZM25.7,31.4l-2.4,2.5-1.9-3.5.6-.3,1.2,2.2,1.8-1.9.7,1h0Z"/>
</svg>