<svg width="19" height="19" viewBox="0 0 19 19" fill="none" xmlns="http://www.w3.org/2000/svg">
<path d="M3.16667 12.6667C1.39333 12.6667 0 11.2734 0 9.50004C0 7.72671 1.39333 6.33337 3.16667 6.33337C4.94 6.33337 6.33333 7.72671 6.33333 9.50004C6.33333 11.2734 4.94 12.6667 3.16667 12.6667ZM3.16667 7.60004C2.09 7.60004 1.26667 8.42337 1.26667 9.50004C1.26667 10.5767 2.09 11.4 3.16667 11.4C4.24333 11.4 5.06667 10.5767 5.06667 9.50004C5.06667 8.42337 4.24333 7.60004 3.16667 7.60004Z" fill="black"/>
<path d="M15.8333 6.33333C14.06 6.33333 12.6666 4.94 12.6666 3.16667C12.6666 1.39333 14.06 0 15.8333 0C17.6066 0 19 1.39333 19 3.16667C19 4.94 17.6066 6.33333 15.8333 6.33333ZM15.8333 1.26667C14.7566 1.26667 13.9333 2.09 13.9333 3.16667C13.9333 4.24333 14.7566 5.06667 15.8333 5.06667C16.91 5.06667 17.7333 4.24333 17.7333 3.16667C17.7333 2.09 16.91 1.26667 15.8333 1.26667Z" fill="black"/>
<path d="M15.8333 19C14.06 19 12.6666 17.6066 12.6666 15.8333C12.6666 14.06 14.06 12.6666 15.8333 12.6666C17.6066 12.6666 19 14.06 19 15.8333C19 17.6066 17.6066 19 15.8333 19ZM15.8333 13.9333C14.7566 13.9333 13.9333 14.7566 13.9333 15.8333C13.9333 16.91 14.7566 17.7333 15.8333 17.7333C16.91 17.7333 17.7333 16.91 17.7333 15.8333C17.7333 14.7566 16.91 13.9333 15.8333 13.9333Z" fill="black"/>
<path d="M5.59687 10.0278L13.9861 14.1587L13.4032 15.3056L5.01392 11.1747L5.59687 10.0278Z" fill="black"/>
<path d="M13.4038 3.69458L13.9861 4.84276L5.59626 8.97236L5.01392 7.82418L13.4038 3.69458Z" fill="black"/>
</svg>
