<?xml version="1.0" encoding="utf-8"?>
<!-- Generator: Adobe Illustrator 25.2.0, SVG Export Plug-In . SVG Version: 6.00 Build 0)  -->
<svg version="1.1" xmlns="http://www.w3.org/2000/svg" xmlns:xlink="http://www.w3.org/1999/xlink" x="0px" y="0px"
	 viewBox="0 0 480 480" style="enable-background:new 0 0 480 480;" xml:space="preserve">
<style type="text/css">
	.st0{fill:#E3530D;}
	.st1{fill:#FFFFFF;}
	.st2{fill:none;stroke:#000000;stroke-width:6.0719;stroke-miterlimit:10;}
	.st3{fill:none;stroke:#000000;stroke-width:3;stroke-linecap:round;stroke-miterlimit:10;}
	.st4{fill:none;stroke:#FFFFFF;stroke-width:3;stroke-linecap:round;stroke-miterlimit:10;}
	.st5{fill:none;stroke:#FFFFFF;stroke-width:4;stroke-linecap:round;stroke-miterlimit:10;}
	.st6{fill:none;stroke:#000000;stroke-width:3;stroke-miterlimit:10;}
	.st7{fill:none;}
</style>
<g id="Layer_1">
	<rect x="673.8" class="st0" width="480.5" height="480"/>
	<path class="st1" d="M1064.1,128.4l-281.3,26.4c-13.6,1.3-23.5,13.4-22,27l10,91.8c1.4,12.6,12.1,22,24.8,21.8l26.6-0.5
		c6.6-0.1,12.2,5,12.5,11.7l0.9,19.1c0.3,5.8,7.7,8.5,11.9,4.3l32.8-32.8c2.2-2.2,5.3-3.5,8.4-3.6l173.2-3.4
		c12.9-0.3,23.4-10.5,23.9-23.4l4.9-113C1091.5,139,1078.9,127.1,1064.1,128.4z"/>
	<rect x="800.8" y="176.3" class="st7" width="256.9" height="194.3"/>
	<text transform="matrix(1 0 0 1 821.0225 232.5659)" style="font-family:'RiftSoft-Bold'; font-size:48.575px; letter-spacing:3;">Congrats!</text>
	<path class="st2" d="M1051,118.7l-281.3,26.4c-13.6,1.3-23.5,13.4-22,27l10,91.8c1.4,12.6,12.1,22,24.8,21.8l26.6-0.5
		c6.6-0.1,12.2,5,12.5,11.7l0.9,19.1c0.3,5.8,7.7,8.5,11.9,4.3l32.8-32.8c2.2-2.2,5.3-3.5,8.4-3.6l173.2-3.4
		c12.9-0.3,23.4-10.5,23.9-23.4l4.9-113C1078.4,129.3,1065.8,117.3,1051,118.7z"/>
	<line class="st3" x1="1107.5" y1="138.2" x2="1113" y2="132"/>
	<line class="st3" x1="747.5" y1="138.2" x2="753" y2="132"/>
	<line class="st3" x1="763.5" y1="309.2" x2="769" y2="303"/>
	<line class="st3" x1="1025.5" y1="307.2" x2="1031" y2="301"/>
	<line class="st3" x1="1089.5" y1="303.2" x2="1095" y2="297"/>
	<line class="st3" x1="961.5" y1="306.2" x2="967" y2="300"/>
	<line class="st4" x1="974.4" y1="105.9" x2="968.2" y2="100.4"/>
	<line class="st3" x1="843.4" y1="123.9" x2="837.2" y2="118.4"/>
	<line class="st3" x1="1115.5" y1="243.2" x2="1121" y2="237"/>
	<circle class="st3" cx="930.2" cy="89.2" r="4.2"/>
	<circle class="st3" cx="795.2" cy="313.2" r="4.2"/>
	<circle class="st3" cx="1068.2" cy="312.2" r="4.2"/>
	<line class="st3" x1="930.5" y1="114.2" x2="936" y2="108"/>
	<line class="st3" x1="911.5" y1="333.2" x2="917" y2="327"/>
	<circle class="st3" cx="799.2" cy="118.2" r="4.2"/>
	<line class="st3" x1="723.4" y1="191.9" x2="717.2" y2="186.4"/>
	<circle class="st3" cx="738.2" cy="253.2" r="4.2"/>
	<line class="st3" x1="1043.5" y1="102.2" x2="1049" y2="96"/>
	<line class="st3" x1="875.4" y1="327.9" x2="869.2" y2="322.4"/>
	<circle class="st3" cx="1005.2" cy="106.2" r="4.2"/>
	<line class="st4" x1="741.4" y1="285.9" x2="735.2" y2="280.4"/>
	<line class="st4" x1="732.5" y1="220.2" x2="738" y2="214"/>
	<line class="st4" x1="819.4" y1="338.9" x2="813.2" y2="333.4"/>
	<line class="st4" x1="732.4" y1="131.9" x2="726.2" y2="126.4"/>
	<line class="st4" x1="719.4" y1="234.9" x2="713.2" y2="229.4"/>
	<line class="st4" x1="1033.5" y1="328.2" x2="1039" y2="322"/>
	<circle class="st4" cx="933.2" cy="308.2" r="4.2"/>
	<line class="st4" x1="775.4" y1="128.9" x2="769.2" y2="123.4"/>
	<line class="st4" x1="897.5" y1="309.2" x2="903" y2="303"/>
	<circle class="st4" cx="731.2" cy="161.2" r="4.2"/>
	<line class="st4" x1="997.4" y1="314.9" x2="991.2" y2="309.4"/>
	<line class="st4" x1="897.5" y1="110.2" x2="903" y2="104"/>
	<circle class="st4" cx="869.2" cy="114.2" r="4.2"/>
	<line class="st5" x1="1090.4" y1="104.9" x2="1084.2" y2="99.4"/>
	<line class="st4" x1="1102.5" y1="212.2" x2="1108" y2="206"/>
	<line class="st4" x1="1097.5" y1="279.2" x2="1103" y2="273"/>
	<circle class="st4" cx="1122.2" cy="176.2" r="4.2"/>
	<g>
		<g>
			<path class="st1" d="M749.2,387.6c-1.8,1-2.5,3.4-1.5,5.2l0.2,0.3l-22,22.6c-1.2-0.5-2.6-0.4-3.9,0.2l-7.4,4.1
				c-1.7,1-2.6,2.9-2.3,4.7l-4.4,2.5c-2.2,1.2-3,4-1.8,6.1l5.3,9.6c1.2,2.2,4,3,6.1,1.8l4.5-2.5c1.4,1,3.3,1.2,4.9,0.4l1.4,0.5
				l7.1,12.8c0.4,0.7,1.1,1.2,2,1.2c0.4,0,0.8-0.1,1.2-0.3c0.4-0.2,0.7-0.5,0.9-0.9l1.4-2.4c0.4-0.7,0.4-1.6,0-2.3l-6.9-12.5
				l0.4-0.2c1.4-0.8,2.2-2.2,2.3-3.7l30.6-6.5c1.1,1.7,3.3,2.3,5.1,1.3c1.8-1,2.5-3.4,1.5-5.2l-19.6-35.3
				C753.4,387.3,751.1,386.6,749.2,387.6z"/>
			<path class="st1" d="M769.9,388c-0.4,0.2-0.9,0.2-1.4-0.1c-0.5-0.4-0.7-1.2-0.2-1.7l16.1-21.2c0.4-0.5,1.2-0.7,1.7-0.2
				c0.5,0.4,0.7,1.2,0.2,1.7l-16.1,21.2C770.2,387.8,770,387.9,769.9,388z"/>
			<path class="st1" d="M802.4,387l-25.3,14c-0.6,0.3-1.4,0.1-1.7-0.5s-0.1-1.4,0.5-1.7l25.3-14c0.6-0.3,1.4-0.1,1.7,0.5
				S803,386.7,802.4,387z"/>
			<path class="st1" d="M808.6,411.5c-0.1,0.1-0.3,0.1-0.5,0.1l-24.1,2.9c-0.7,0.1-1.3-0.4-1.4-1.1c-0.1-0.7,0.4-1.3,1.1-1.4
				l24.1-2.9c0.7-0.1,1.3,0.4,1.4,1.1C809.3,410.8,809,411.3,808.6,411.5z"/>
		</g>
		<g>
			<path class="st6" d="M725.1,431.7l-7.4,4.1c-1.6,0.9-3.6,0.3-4.5-1.3l-8.1-14.6c-0.9-1.6-0.3-3.6,1.3-4.5l7.4-4.1
				c1.6-0.9,3.6-0.3,4.5,1.3l8.1,14.6C727.3,428.8,726.7,430.8,725.1,431.7z"/>
			<path class="st6" d="M763.1,422.8L763.1,422.8c-1.3,0.7-2.8,0.2-3.5-1l-19.6-35.3c-0.7-1.3-0.2-2.8,1-3.5h0
				c1.3-0.7,2.8-0.2,3.5,1l19.6,35.3C764.8,420.6,764.4,422.1,763.1,422.8z"/>
			<path class="st6" d="M713.5,435l-5.3,2.9c-1.6,0.9-3.6,0.3-4.4-1.3l-5.3-9.6c-0.9-1.6-0.3-3.6,1.3-4.4l5.3-2.9L713.5,435z"/>
			<polygon class="st6" points="717.6,411.3 726.9,428 759.4,421.2 740.8,387.5 			"/>
			<path class="st6" d="M723.6,432.5l7.5,13.6c0.2,0.3,0.2,0.7,0,1l-1.4,2.4c-0.4,0.7-1.5,0.7-1.9,0l-7.3-13.2c0,0-0.1-0.1-0.1-0.1
				l-1.9-0.7c-0.1-0.1-0.2-0.2,0-0.3L723.6,432.5z"/>
			<line class="st3" x1="760.5" y1="381.2" x2="776.7" y2="360"/>
			<line class="st3" x1="767.7" y1="394.2" x2="793.1" y2="380.2"/>
			<line class="st3" x1="775.1" y1="407.6" x2="799.2" y2="404.7"/>
		</g>
	</g>
	<rect x="673.8" y="-528" class="st0" width="480.5" height="480"/>
	<path class="st1" d="M1064.1-399.6l-281.3,26.4c-13.6,1.3-23.5,13.4-22,27l10,91.8c1.4,12.6,12.1,22,24.8,21.8l26.6-0.5
		c6.6-0.1,12.2,5,12.5,11.7l0.9,19.1c0.3,5.8,7.7,8.5,11.9,4.3l32.8-32.8c2.2-2.2,5.3-3.5,8.4-3.6l173.2-3.4
		c12.9-0.3,23.4-10.5,23.9-23.4l4.9-113C1091.5-389,1078.9-400.9,1064.1-399.6z"/>
	<rect x="800.8" y="-351.7" class="st7" width="256.9" height="194.3"/>
	
		<text transform="matrix(1 0 0 1 821.0225 -295.4341)" style="font-family:'RiftSoft-Bold'; font-size:48.575px; letter-spacing:3;">Congrats!</text>
	<path class="st2" d="M1051-409.3l-281.3,26.4c-13.6,1.3-23.5,13.4-22,27l10,91.8c1.4,12.6,12.1,22,24.8,21.8l26.6-0.5
		c6.6-0.1,12.2,5,12.5,11.7l0.9,19.1c0.3,5.8,7.7,8.5,11.9,4.3l32.8-32.8c2.2-2.2,5.3-3.5,8.4-3.6l173.2-3.4
		c12.9-0.3,23.4-10.5,23.9-23.4l4.9-113C1078.4-398.7,1065.8-410.7,1051-409.3z"/>
	<line class="st3" x1="1107.5" y1="-389.8" x2="1113" y2="-396"/>
	<line class="st3" x1="747.5" y1="-389.8" x2="753" y2="-396"/>
	<line class="st3" x1="763.5" y1="-218.8" x2="769" y2="-225"/>
	<line class="st3" x1="1025.5" y1="-220.8" x2="1031" y2="-227"/>
	<line class="st3" x1="1089.5" y1="-224.8" x2="1095" y2="-231"/>
	<line class="st3" x1="961.5" y1="-221.8" x2="967" y2="-228"/>
	<line class="st4" x1="974.4" y1="-422.1" x2="968.2" y2="-427.6"/>
	<line class="st3" x1="843.4" y1="-404.1" x2="837.2" y2="-409.6"/>
	<line class="st3" x1="1115.5" y1="-284.8" x2="1121" y2="-291"/>
	<circle class="st3" cx="930.2" cy="-438.8" r="4.2"/>
	<circle class="st3" cx="795.2" cy="-214.8" r="4.2"/>
	<circle class="st3" cx="1068.2" cy="-215.8" r="4.2"/>
	<line class="st3" x1="930.5" y1="-413.8" x2="936" y2="-420"/>
	<line class="st3" x1="911.5" y1="-194.8" x2="917" y2="-201"/>
	<circle class="st3" cx="799.2" cy="-409.8" r="4.2"/>
	<line class="st3" x1="723.4" y1="-336.1" x2="717.2" y2="-341.6"/>
	<circle class="st3" cx="738.2" cy="-274.8" r="4.2"/>
	<line class="st3" x1="1043.5" y1="-425.8" x2="1049" y2="-432"/>
	<line class="st3" x1="875.4" y1="-200.1" x2="869.2" y2="-205.6"/>
	<circle class="st3" cx="1005.2" cy="-421.8" r="4.2"/>
	<line class="st4" x1="741.4" y1="-242.1" x2="735.2" y2="-247.6"/>
	<line class="st4" x1="732.5" y1="-307.8" x2="738" y2="-314"/>
	<line class="st4" x1="819.4" y1="-189.1" x2="813.2" y2="-194.6"/>
	<line class="st4" x1="732.4" y1="-396.1" x2="726.2" y2="-401.6"/>
	<line class="st4" x1="719.4" y1="-293.1" x2="713.2" y2="-298.6"/>
	<line class="st4" x1="1033.5" y1="-199.8" x2="1039" y2="-206"/>
	<circle class="st4" cx="933.2" cy="-219.8" r="4.2"/>
	<line class="st4" x1="775.4" y1="-399.1" x2="769.2" y2="-404.6"/>
	<line class="st4" x1="897.5" y1="-218.8" x2="903" y2="-225"/>
	<circle class="st4" cx="731.2" cy="-366.8" r="4.2"/>
	<line class="st4" x1="997.4" y1="-213.1" x2="991.2" y2="-218.6"/>
	<line class="st4" x1="897.5" y1="-417.8" x2="903" y2="-424"/>
	<circle class="st4" cx="869.2" cy="-413.8" r="4.2"/>
	<line class="st5" x1="1090.4" y1="-423.1" x2="1084.2" y2="-428.6"/>
	<line class="st4" x1="1102.5" y1="-315.8" x2="1108" y2="-322"/>
	<line class="st4" x1="1097.5" y1="-248.8" x2="1103" y2="-255"/>
	<circle class="st4" cx="1122.2" cy="-351.8" r="4.2"/>
	<g>
		<g>
			<path class="st1" d="M749.2-140.4c-1.8,1-2.5,3.4-1.5,5.2l0.2,0.3l-22,22.6c-1.2-0.5-2.6-0.4-3.9,0.2l-7.4,4.1
				c-1.7,1-2.6,2.9-2.3,4.7l-4.4,2.5c-2.2,1.2-3,4-1.8,6.1l5.3,9.6c1.2,2.2,4,3,6.1,1.8l4.5-2.5c1.4,1,3.3,1.2,4.9,0.4l1.4,0.5
				l7.1,12.8c0.4,0.7,1.1,1.2,2,1.2c0.4,0,0.8-0.1,1.2-0.3c0.4-0.2,0.7-0.5,0.9-0.9l1.4-2.4c0.4-0.7,0.4-1.6,0-2.3l-6.9-12.5
				l0.4-0.2c1.4-0.8,2.2-2.2,2.3-3.7l30.6-6.5c1.1,1.7,3.3,2.3,5.1,1.3c1.8-1,2.5-3.4,1.5-5.2l-19.6-35.3
				C753.4-140.7,751.1-141.4,749.2-140.4z"/>
			<path class="st1" d="M769.9-140c-0.4,0.2-0.9,0.2-1.4-0.1c-0.5-0.4-0.7-1.2-0.2-1.7l16.1-21.2c0.4-0.5,1.2-0.7,1.7-0.2
				c0.5,0.4,0.7,1.2,0.2,1.7l-16.1,21.2C770.2-140.2,770-140.1,769.9-140z"/>
			<path class="st1" d="M802.4-141l-25.3,14c-0.6,0.3-1.4,0.1-1.7-0.5s-0.1-1.4,0.5-1.7l25.3-14c0.6-0.3,1.4-0.1,1.7,0.5
				C803.2-142.1,803-141.3,802.4-141z"/>
			<path class="st1" d="M808.6-116.5c-0.1,0.1-0.3,0.1-0.5,0.1l-24.1,2.9c-0.7,0.1-1.3-0.4-1.4-1.1c-0.1-0.7,0.4-1.3,1.1-1.4
				l24.1-2.9c0.7-0.1,1.3,0.4,1.4,1.1C809.3-117.2,809-116.7,808.6-116.5z"/>
		</g>
		<g>
			<path class="st6" d="M725.1-96.3l-7.4,4.1c-1.6,0.9-3.6,0.3-4.5-1.3l-8.1-14.6c-0.9-1.6-0.3-3.6,1.3-4.5l7.4-4.1
				c1.6-0.9,3.6-0.3,4.5,1.3l8.1,14.6C727.3-99.2,726.7-97.2,725.1-96.3z"/>
			<path class="st6" d="M763.1-105.2L763.1-105.2c-1.3,0.7-2.8,0.2-3.5-1l-19.6-35.3c-0.7-1.3-0.2-2.8,1-3.5h0
				c1.3-0.7,2.8-0.2,3.5,1l19.6,35.3C764.8-107.4,764.4-105.9,763.1-105.2z"/>
			<path class="st6" d="M713.5-93l-5.3,2.9c-1.6,0.9-3.6,0.3-4.4-1.3l-5.3-9.6c-0.9-1.6-0.3-3.6,1.3-4.4l5.3-2.9L713.5-93z"/>
			<polygon class="st6" points="717.6,-116.7 726.9,-100 759.4,-106.8 740.8,-140.5 			"/>
			<path class="st6" d="M723.6-95.5l7.5,13.6c0.2,0.3,0.2,0.7,0,1l-1.4,2.4c-0.4,0.7-1.5,0.7-1.9,0l-7.3-13.2c0,0-0.1-0.1-0.1-0.1
				l-1.9-0.7c-0.1-0.1-0.2-0.2,0-0.3L723.6-95.5z"/>
			<line class="st3" x1="760.5" y1="-146.8" x2="776.7" y2="-168"/>
			<line class="st3" x1="767.7" y1="-133.8" x2="793.1" y2="-147.8"/>
			<line class="st3" x1="775.1" y1="-120.4" x2="799.2" y2="-123.3"/>
		</g>
	</g>
	<rect x="-0.2" y="-528" class="st0" width="480.5" height="480"/>
	<path class="st1" d="M390.1-399.6l-281.3,26.4c-13.6,1.3-23.5,13.4-22,27l10,91.8c1.4,12.6,12.1,22,24.8,21.8l26.6-0.5
		c6.6-0.1,12.2,5,12.5,11.7l0.9,19.1c0.3,5.8,7.7,8.5,11.9,4.3l32.8-32.8c2.2-2.2,5.3-3.5,8.4-3.6l173.2-3.4
		c12.9-0.3,23.4-10.5,23.9-23.4l4.9-113C417.5-389,404.9-400.9,390.1-399.6z"/>
	<rect x="126.8" y="-351.7" class="st7" width="256.9" height="194.3"/>
	
		<text transform="matrix(1 0 0 1 130.0225 -295.4341)" style="font-family:'RiftSoft-Bold'; font-size:48.575px; letter-spacing:3;">Thank you!</text>
	<path class="st2" d="M377-409.3L95.7-382.9c-13.6,1.3-23.5,13.4-22,27l10,91.8c1.4,12.6,12.1,22,24.8,21.8l26.6-0.5
		c6.6-0.1,12.2,5,12.5,11.7l0.9,19.1c0.3,5.8,7.7,8.5,11.9,4.3l32.8-32.8c2.2-2.2,5.3-3.5,8.4-3.6l173.2-3.4
		c12.9-0.3,23.4-10.5,23.9-23.4l4.9-113C404.4-398.7,391.8-410.7,377-409.3z"/>
	<line class="st3" x1="433.5" y1="-389.8" x2="439" y2="-396"/>
	<line class="st3" x1="73.5" y1="-389.8" x2="79" y2="-396"/>
	<line class="st3" x1="89.5" y1="-218.8" x2="95" y2="-225"/>
	<line class="st3" x1="351.5" y1="-220.8" x2="357" y2="-227"/>
	<line class="st3" x1="415.5" y1="-224.8" x2="421" y2="-231"/>
	<line class="st3" x1="287.5" y1="-221.8" x2="293" y2="-228"/>
	<line class="st4" x1="300.4" y1="-422.1" x2="294.2" y2="-427.6"/>
	<line class="st3" x1="169.4" y1="-404.1" x2="163.2" y2="-409.6"/>
	<line class="st3" x1="441.5" y1="-284.8" x2="447" y2="-291"/>
	<circle class="st3" cx="256.2" cy="-438.8" r="4.2"/>
	<circle class="st3" cx="121.2" cy="-214.8" r="4.2"/>
	<circle class="st3" cx="394.2" cy="-215.8" r="4.2"/>
	<line class="st3" x1="256.5" y1="-413.8" x2="262" y2="-420"/>
	<line class="st3" x1="237.5" y1="-194.8" x2="243" y2="-201"/>
	<circle class="st3" cx="125.2" cy="-409.8" r="4.2"/>
	<line class="st3" x1="49.4" y1="-336.1" x2="43.2" y2="-341.6"/>
	<circle class="st3" cx="64.2" cy="-274.8" r="4.2"/>
	<line class="st3" x1="369.5" y1="-425.8" x2="375" y2="-432"/>
	<line class="st3" x1="201.4" y1="-200.1" x2="195.2" y2="-205.6"/>
	<circle class="st3" cx="331.2" cy="-421.8" r="4.2"/>
	<line class="st4" x1="67.4" y1="-242.1" x2="61.2" y2="-247.6"/>
	<line class="st4" x1="58.5" y1="-307.8" x2="64" y2="-314"/>
	<line class="st4" x1="145.4" y1="-189.1" x2="139.2" y2="-194.6"/>
	<line class="st4" x1="58.4" y1="-396.1" x2="52.2" y2="-401.6"/>
	<line class="st4" x1="45.4" y1="-293.1" x2="39.2" y2="-298.6"/>
	<line class="st4" x1="359.5" y1="-199.8" x2="365" y2="-206"/>
	<circle class="st4" cx="259.2" cy="-219.8" r="4.2"/>
	<line class="st4" x1="101.4" y1="-399.1" x2="95.2" y2="-404.6"/>
	<line class="st4" x1="223.5" y1="-218.8" x2="229" y2="-225"/>
	<circle class="st4" cx="57.2" cy="-366.8" r="4.2"/>
	<line class="st4" x1="323.4" y1="-213.1" x2="317.2" y2="-218.6"/>
	<line class="st4" x1="223.5" y1="-417.8" x2="229" y2="-424"/>
	<circle class="st4" cx="195.2" cy="-413.8" r="4.2"/>
	<line class="st5" x1="416.4" y1="-423.1" x2="410.2" y2="-428.6"/>
	<line class="st4" x1="428.5" y1="-315.8" x2="434" y2="-322"/>
	<line class="st4" x1="423.5" y1="-248.8" x2="429" y2="-255"/>
	<circle class="st4" cx="448.2" cy="-351.8" r="4.2"/>
	<g>
		<g>
			<path class="st1" d="M75.2-140.4c-1.8,1-2.5,3.4-1.5,5.2l0.2,0.3l-22,22.6c-1.2-0.5-2.6-0.4-3.9,0.2l-7.4,4.1
				c-1.7,1-2.6,2.9-2.3,4.7l-4.4,2.5c-2.2,1.2-3,4-1.8,6.1l5.3,9.6c1.2,2.2,4,3,6.1,1.8l4.5-2.5c1.4,1,3.3,1.2,4.9,0.4l1.4,0.5
				l7.1,12.8c0.4,0.7,1.1,1.2,2,1.2c0.4,0,0.8-0.1,1.2-0.3c0.4-0.2,0.7-0.5,0.9-0.9l1.4-2.4c0.4-0.7,0.4-1.6,0-2.3l-6.9-12.5
				l0.4-0.2c1.4-0.8,2.2-2.2,2.3-3.7l30.6-6.5c1.1,1.7,3.3,2.3,5.1,1.3c1.8-1,2.5-3.4,1.5-5.2l-19.6-35.3
				C79.4-140.7,77.1-141.4,75.2-140.4z"/>
			<path class="st1" d="M95.9-140c-0.4,0.2-0.9,0.2-1.4-0.1c-0.5-0.4-0.7-1.2-0.2-1.7l16.1-21.2c0.4-0.5,1.2-0.7,1.7-0.2
				c0.5,0.4,0.7,1.2,0.2,1.7l-16.1,21.2C96.2-140.2,96-140.1,95.9-140z"/>
			<path class="st1" d="M128.4-141l-25.3,14c-0.6,0.3-1.4,0.1-1.7-0.5s-0.1-1.4,0.5-1.7l25.3-14c0.6-0.3,1.4-0.1,1.7,0.5
				C129.2-142.1,129-141.3,128.4-141z"/>
			<path class="st1" d="M134.6-116.5c-0.1,0.1-0.3,0.1-0.5,0.1l-24.1,2.9c-0.7,0.1-1.3-0.4-1.4-1.1c-0.1-0.7,0.4-1.3,1.1-1.4
				l24.1-2.9c0.7-0.1,1.3,0.4,1.4,1.1C135.3-117.2,135-116.7,134.6-116.5z"/>
		</g>
		<g>
			<path class="st6" d="M51.1-96.3l-7.4,4.1c-1.6,0.9-3.6,0.3-4.5-1.3l-8.1-14.6c-0.9-1.6-0.3-3.6,1.3-4.5l7.4-4.1
				c1.6-0.9,3.6-0.3,4.5,1.3l8.1,14.6C53.3-99.2,52.7-97.2,51.1-96.3z"/>
			<path class="st6" d="M89.1-105.2L89.1-105.2c-1.3,0.7-2.8,0.2-3.5-1l-19.6-35.3c-0.7-1.3-0.2-2.8,1-3.5l0,0
				c1.3-0.7,2.8-0.2,3.5,1l19.6,35.3C90.8-107.4,90.4-105.9,89.1-105.2z"/>
			<path class="st6" d="M39.5-93l-5.3,2.9c-1.6,0.9-3.6,0.3-4.4-1.3l-5.3-9.6c-0.9-1.6-0.3-3.6,1.3-4.4l5.3-2.9L39.5-93z"/>
			<polygon class="st6" points="43.6,-116.7 52.9,-100 85.4,-106.8 66.8,-140.5 			"/>
			<path class="st6" d="M49.6-95.5l7.5,13.6c0.2,0.3,0.2,0.7,0,1l-1.4,2.4c-0.4,0.7-1.5,0.7-1.9,0l-7.3-13.2c0,0-0.1-0.1-0.1-0.1
				l-1.9-0.7c-0.1-0.1-0.2-0.2,0-0.3L49.6-95.5z"/>
			<line class="st3" x1="86.5" y1="-146.8" x2="102.7" y2="-168"/>
			<line class="st3" x1="93.7" y1="-133.8" x2="119.1" y2="-147.8"/>
			<line class="st3" x1="101.1" y1="-120.4" x2="125.2" y2="-123.3"/>
		</g>
	</g>
	<rect y="-0.2" transform="matrix(-1.836970e-16 1 -1 -1.836970e-16 480 5.684342e-14)" class="st0" width="480" height="480.5"/>
	<path class="st1" d="M390.1,128.4c14.8-1.4,27.3,10.6,26.7,25.4l-4.9,113c-0.6,12.9-11,23.1-23.9,23.4l-173.2,3.4
		c-3.2,0.1-6.2,1.3-8.4,3.6l-32.8,32.8c-4.2,4.2-11.6,1.5-11.9-4.3l-0.9-19.1c-0.3-6.6-5.8-11.8-12.5-11.7l-26.6,0.5
		c-12.6,0.2-23.4-9.2-24.8-21.8l-10-91.8c-1.5-13.6,8.4-25.7,22-27L390.1,128.4z"/>
	<rect x="126.8" y="176.3" class="st7" width="256.9" height="194.3"/>
	<g>
		<path d="M152.3,200.5v1.1c0,1.3-0.7,1.9-1.9,1.9h-3.7v27.1c0,1.3-0.7,1.9-1.9,1.9h-1.7c-1.3,0-1.9-0.7-1.9-1.9v-27.1h-3.7
			c-1.3,0-1.9-0.7-1.9-1.9v-1.1c0-1.3,0.7-1.9,1.9-1.9h13.1C151.6,198.6,152.3,199.2,152.3,200.5z"/>
		<path d="M160.6,198.6h1.7c1.3,0,1.9,0.7,1.9,1.9v12.2h6.5v-12.2c0-1.3,0.7-1.9,1.9-1.9h1.7c1.3,0,1.9,0.7,1.9,1.9v30.1
			c0,1.3-0.7,1.9-1.9,1.9h-1.7c-1.3,0-1.9-0.7-1.9-1.9v-12.8h-6.5v12.8c0,1.3-0.7,1.9-1.9,1.9h-1.7c-1.3,0-1.9-0.7-1.9-1.9v-30.1
			C158.7,199.2,159.4,198.6,160.6,198.6z"/>
		<path d="M200.5,232.6h-1.8c-1.2,0-1.9-0.6-2.1-1.8l-0.9-5.8h-6.2l-0.9,5.8c-0.2,1.2-0.9,1.8-2.1,1.8H185c-1.3,0-2-0.7-1.7-2.1
			l5.6-30.2c0.2-1.2,1-1.7,2.1-1.7h3.5c1.2,0,1.9,0.6,2.1,1.7l5.7,30.2C202.5,231.8,201.9,232.6,200.5,232.6z M195,220.3l-2.4-15.1
			l-2.4,15.1H195z"/>
		<path d="M212.4,232.6h-1.3c-1.3,0-1.9-0.7-1.9-1.9v-30.1c0-1.3,0.7-1.9,1.9-1.9h2c1.1,0,1.8,0.5,2.2,1.6l6.6,19.4v-19.1
			c0-1.3,0.7-1.9,1.9-1.9h1.3c1.3,0,1.9,0.7,1.9,1.9v30.1c0,1.3-0.7,1.9-1.9,1.9h-1.7c-1.1,0-1.8-0.5-2.2-1.6l-6.9-20.5v20.2
			C214.3,231.9,213.6,232.6,212.4,232.6z"/>
		<path d="M251.8,232.6h-1.7c-1.1,0-1.8-0.5-2.2-1.6l-4.2-13.2l-2.5,5v7.9c0,1.3-0.7,1.9-1.9,1.9h-1.7c-1.3,0-1.9-0.7-1.9-1.9v-30.1
			c0-1.3,0.7-1.9,1.9-1.9h1.7c1.3,0,1.9,0.7,1.9,1.9v13.4l5.5-13.8c0.4-1,1.2-1.5,2.2-1.5h2c1.5,0,2.1,1,1.4,2.3l-5.3,10.5l6.4,19
			C253.8,231.6,253.2,232.6,251.8,232.6z"/>
		<path d="M281,230.6c0,1.3-0.7,1.9-1.9,1.9h-1.7c-1.3,0-1.9-0.7-1.9-1.9v-10.2l-6.2-19.7c-0.4-1.3,0.2-2.2,1.6-2.2h1.9
			c1.2,0,1.8,0.5,2.1,1.7l3.4,14.1l3.4-14.1c0.3-1.2,1-1.7,2.1-1.7h1.8c1.4,0,2,0.9,1.6,2.2l-6.2,19.7V230.6z"/>
		<path d="M302.2,198.2h0.4c5.1,0,8.5,2,8.5,7.2v20.4c0,5.1-3.4,7.2-8.5,7.2h-0.4c-5.1,0-8.5-2-8.5-7.2v-20.4
			C293.6,200.2,297,198.2,302.2,198.2z M302.4,228c1.8,0,3.1-0.7,3.1-3.1v-18.7c0-2.4-1.3-3.1-3.1-3.1s-3.1,0.7-3.1,3.1v18.7
			C299.3,227.3,300.5,228,302.4,228z"/>
		<path d="M336.4,200.5v25.3c0,5.2-3.3,7.2-8.5,7.2h-0.2c-5.1,0-8.5-1.9-8.5-7.2v-25.3c0-1.3,0.7-1.9,1.9-1.9h1.7
			c1.3,0,1.9,0.7,1.9,1.9v24.4c0,2.4,1.1,3.1,2.9,3.1c1.8,0,2.9-0.7,2.9-3.1v-24.4c0-1.3,0.7-1.9,1.9-1.9h1.7
			C335.7,198.6,336.4,199.2,336.4,200.5z"/>
		<path d="M349.9,200.5v3.3l-0.7,18c0,1.2-0.7,1.9-1.9,1.9h-0.4c-1.2,0-1.9-0.7-1.9-1.9l-0.7-18v-3.3c0-1.3,0.7-1.9,1.9-1.9h1.7
			C349.2,198.6,349.9,199.2,349.9,200.5z M349.9,228.2v2.4c0,1.3-0.7,1.9-1.9,1.9h-1.7c-1.3,0-1.9-0.7-1.9-1.9v-2.4
			c0-1.3,0.7-1.9,1.9-1.9h1.7C349.2,226.3,349.9,226.9,349.9,228.2z"/>
	</g>
	<path d="M155.5,325.3c-1.3,0-2.5-0.2-3.8-0.7c-3.7-1.4-6.1-4.7-6.2-8.5l-0.9-19.1c-0.2-5-4.3-8.8-9.4-8.8l-26.6,0.5
		c-14.3,0.3-26.3-10.2-27.8-24.5l-10-91.8c-0.8-7.4,1.3-14.6,6-20.4c4.7-5.7,11.3-9.3,18.7-10l281.3-26.4c7.9-0.7,15.7,2,21.5,7.4
		c5.8,5.5,8.9,13.2,8.5,21.1l-4.9,113c-0.6,14.5-12.4,26-26.9,26.3l-173.2,3.4c-2.4,0-4.6,1-6.3,2.7l-32.8,32.8
		C160.6,324.3,158.1,325.3,155.5,325.3z M135.4,282.1c8.2,0,14.9,6.3,15.3,14.6l0.9,19.1c0.1,2.1,1.8,2.9,2.4,3.1
		c1.2,0.5,3,0.5,4.4-0.9l32.8-32.8c2.8-2.8,6.5-4.4,10.5-4.5l173.2-3.4c11.3-0.2,20.5-9.2,21-20.5l4.9-113
		c0.3-6.2-2.2-12.2-6.6-16.4c-4.5-4.3-10.6-6.4-16.7-5.8l-0.3-3l0.3,3L96,148.1c-5.8,0.5-10.9,3.3-14.6,7.8
		c-3.7,4.5-5.3,10.1-4.7,15.9l10,91.8c1.2,11.1,10.5,19.3,21.7,19.1l26.6-0.5C135.1,282.1,135.3,282.1,135.4,282.1z"/>
	<path d="M433.5,139.7c-0.4,0-0.7-0.1-1-0.4c-0.6-0.5-0.7-1.5-0.1-2.1l5.5-6.2c0.5-0.6,1.5-0.7,2.1-0.1c0.6,0.5,0.7,1.5,0.1,2.1
		l-5.5,6.2C434.4,139.5,434,139.7,433.5,139.7z"/>
	<path d="M73.5,139.7c-0.4,0-0.7-0.1-1-0.4c-0.6-0.5-0.7-1.5-0.1-2.1l5.5-6.2c0.6-0.6,1.5-0.7,2.1-0.1c0.6,0.5,0.7,1.5,0.1,2.1
		l-5.5,6.2C74.4,139.5,74,139.7,73.5,139.7z"/>
	<path d="M89.5,310.7c-0.4,0-0.7-0.1-1-0.4c-0.6-0.5-0.7-1.5-0.1-2.1l5.5-6.2c0.5-0.6,1.5-0.7,2.1-0.1c0.6,0.5,0.7,1.5,0.1,2.1
		l-5.5,6.2C90.4,310.5,90,310.7,89.5,310.7z"/>
	<path d="M351.5,308.7c-0.4,0-0.7-0.1-1-0.4c-0.6-0.5-0.7-1.5-0.1-2.1l5.5-6.2c0.5-0.6,1.5-0.7,2.1-0.1c0.6,0.5,0.7,1.5,0.1,2.1
		l-5.5,6.2C352.4,308.5,352,308.7,351.5,308.7z"/>
	<path d="M415.5,304.7c-0.4,0-0.7-0.1-1-0.4c-0.6-0.5-0.7-1.5-0.1-2.1l5.5-6.2c0.5-0.6,1.5-0.7,2.1-0.1c0.6,0.5,0.7,1.5,0.1,2.1
		l-5.5,6.2C416.4,304.5,416,304.7,415.5,304.7z"/>
	<path d="M287.5,307.7c-0.4,0-0.7-0.1-1-0.4c-0.6-0.5-0.7-1.5-0.1-2.1l5.5-6.2c0.5-0.6,1.5-0.7,2.1-0.1c0.6,0.5,0.7,1.5,0.1,2.1
		l-5.5,6.2C288.4,307.5,288,307.7,287.5,307.7z"/>
	<path class="st1" d="M300.4,107.4c-0.4,0-0.7-0.1-1-0.4l-6.2-5.5c-0.6-0.5-0.7-1.5-0.1-2.1c0.5-0.6,1.5-0.7,2.1-0.1l6.2,5.5
		c0.6,0.5,0.7,1.5,0.1,2.1C301.2,107.2,300.8,107.4,300.4,107.4z"/>
	<path d="M169.4,125.4c-0.4,0-0.7-0.1-1-0.4l-6.2-5.5c-0.6-0.5-0.7-1.5-0.1-2.1c0.6-0.6,1.5-0.7,2.1-0.1l6.2,5.5
		c0.6,0.5,0.7,1.5,0.1,2.1C170.2,125.2,169.8,125.4,169.4,125.4z"/>
	<path d="M441.5,244.7c-0.4,0-0.7-0.1-1-0.4c-0.6-0.5-0.7-1.5-0.1-2.1l5.5-6.2c0.5-0.6,1.5-0.7,2.1-0.1c0.6,0.5,0.7,1.5,0.1,2.1
		l-5.5,6.2C442.4,244.5,442,244.7,441.5,244.7z"/>
	<path d="M256.2,95c-3.2,0-5.8-2.6-5.8-5.8s2.6-5.8,5.8-5.8s5.8,2.6,5.8,5.8S259.4,95,256.2,95z M256.2,86.5c-1.5,0-2.8,1.2-2.8,2.8
		s1.2,2.8,2.8,2.8s2.8-1.2,2.8-2.8S257.8,86.5,256.2,86.5z"/>
	<path d="M121.2,319c-3.2,0-5.8-2.6-5.8-5.8s2.6-5.8,5.8-5.8s5.8,2.6,5.8,5.8S124.4,319,121.2,319z M121.2,310.5
		c-1.5,0-2.8,1.2-2.8,2.8s1.2,2.8,2.8,2.8s2.8-1.2,2.8-2.8S122.8,310.5,121.2,310.5z"/>
	<path d="M394.2,318c-3.2,0-5.8-2.6-5.8-5.8s2.6-5.8,5.8-5.8s5.8,2.6,5.8,5.8S397.4,318,394.2,318z M394.2,309.5
		c-1.5,0-2.8,1.2-2.8,2.8s1.2,2.8,2.8,2.8s2.8-1.2,2.8-2.8S395.8,309.5,394.2,309.5z"/>
	<path d="M256.5,115.7c-0.4,0-0.7-0.1-1-0.4c-0.6-0.5-0.7-1.5-0.1-2.1l5.5-6.2c0.5-0.6,1.5-0.7,2.1-0.1c0.6,0.5,0.7,1.5,0.1,2.1
		l-5.5,6.2C257.4,115.5,257,115.7,256.5,115.7z"/>
	<path d="M237.5,334.7c-0.4,0-0.7-0.1-1-0.4c-0.6-0.5-0.7-1.5-0.1-2.1l5.5-6.2c0.5-0.6,1.5-0.7,2.1-0.1c0.6,0.5,0.7,1.5,0.1,2.1
		l-5.5,6.2C238.4,334.5,238,334.7,237.5,334.7z"/>
	<path d="M125.2,124c-3.2,0-5.8-2.6-5.8-5.8s2.6-5.8,5.8-5.8s5.8,2.6,5.8,5.8S128.4,124,125.2,124z M125.2,115.5
		c-1.5,0-2.8,1.2-2.8,2.8s1.2,2.8,2.8,2.8s2.8-1.2,2.8-2.8S126.8,115.5,125.2,115.5z"/>
	<path d="M49.4,193.4c-0.4,0-0.7-0.1-1-0.4l-6.2-5.5c-0.6-0.5-0.7-1.5-0.1-2.1c0.5-0.6,1.5-0.7,2.1-0.1l6.2,5.5
		c0.6,0.5,0.7,1.5,0.1,2.1C50.2,193.2,49.8,193.4,49.4,193.4z"/>
	<path d="M64.2,259c-3.2,0-5.8-2.6-5.8-5.8s2.6-5.8,5.8-5.8s5.8,2.6,5.8,5.8S67.4,259,64.2,259z M64.2,250.5c-1.5,0-2.8,1.2-2.8,2.8
		s1.2,2.8,2.8,2.8s2.8-1.2,2.8-2.8S65.8,250.5,64.2,250.5z"/>
	<path d="M369.5,103.7c-0.4,0-0.7-0.1-1-0.4c-0.6-0.5-0.7-1.5-0.1-2.1l5.5-6.2c0.5-0.6,1.5-0.7,2.1-0.1c0.6,0.5,0.7,1.5,0.1,2.1
		l-5.5,6.2C370.4,103.5,370,103.7,369.5,103.7z"/>
	<path d="M201.4,329.4c-0.4,0-0.7-0.1-1-0.4l-6.2-5.5c-0.6-0.5-0.7-1.5-0.1-2.1c0.6-0.6,1.5-0.7,2.1-0.1l6.2,5.5
		c0.6,0.5,0.7,1.5,0.1,2.1C202.2,329.2,201.8,329.4,201.4,329.4z"/>
	<path d="M331.2,112c-3.2,0-5.8-2.6-5.8-5.8s2.6-5.8,5.8-5.8s5.8,2.6,5.8,5.8S334.4,112,331.2,112z M331.2,103.5
		c-1.5,0-2.8,1.2-2.8,2.8s1.2,2.8,2.8,2.8s2.8-1.2,2.8-2.8S332.8,103.5,331.2,103.5z"/>
	<path class="st1" d="M67.4,287.4c-0.4,0-0.7-0.1-1-0.4l-6.2-5.5c-0.6-0.5-0.7-1.5-0.1-2.1c0.6-0.6,1.5-0.7,2.1-0.1l6.2,5.5
		c0.6,0.5,0.7,1.5,0.1,2.1C68.2,287.2,67.8,287.4,67.4,287.4z"/>
	<path class="st1" d="M58.5,221.7c-0.4,0-0.7-0.1-1-0.4c-0.6-0.5-0.7-1.5-0.1-2.1l5.5-6.2c0.5-0.6,1.5-0.7,2.1-0.1
		c0.6,0.5,0.7,1.5,0.1,2.1l-5.5,6.2C59.4,221.5,59,221.7,58.5,221.7z"/>
	<path class="st1" d="M145.4,340.4c-0.4,0-0.7-0.1-1-0.4l-6.2-5.5c-0.6-0.5-0.7-1.5-0.1-2.1c0.6-0.6,1.5-0.7,2.1-0.1l6.2,5.5
		c0.6,0.5,0.7,1.5,0.1,2.1C146.2,340.2,145.8,340.4,145.4,340.4z"/>
	<path class="st1" d="M58.4,133.4c-0.4,0-0.7-0.1-1-0.4l-6.2-5.5c-0.6-0.5-0.7-1.5-0.1-2.1c0.6-0.6,1.5-0.7,2.1-0.1l6.2,5.5
		c0.6,0.5,0.7,1.5,0.1,2.1C59.2,133.2,58.8,133.4,58.4,133.4z"/>
	<path class="st1" d="M45.4,236.4c-0.4,0-0.7-0.1-1-0.4l-6.2-5.5c-0.6-0.5-0.7-1.5-0.1-2.1c0.6-0.6,1.5-0.7,2.1-0.1l6.2,5.5
		c0.6,0.5,0.7,1.5,0.1,2.1C46.2,236.2,45.8,236.4,45.4,236.4z"/>
	<path class="st1" d="M359.5,329.7c-0.4,0-0.7-0.1-1-0.4c-0.6-0.5-0.7-1.5-0.1-2.1l5.5-6.2c0.5-0.6,1.5-0.7,2.1-0.1
		c0.6,0.5,0.7,1.5,0.1,2.1l-5.5,6.2C360.4,329.5,360,329.7,359.5,329.7z"/>
	<path class="st1" d="M259.2,314c-3.2,0-5.8-2.6-5.8-5.8s2.6-5.8,5.8-5.8s5.8,2.6,5.8,5.8S262.4,314,259.2,314z M259.2,305.5
		c-1.5,0-2.8,1.2-2.8,2.8s1.2,2.8,2.8,2.8s2.8-1.2,2.8-2.8S260.8,305.5,259.2,305.5z"/>
	<path class="st1" d="M101.4,130.4c-0.4,0-0.7-0.1-1-0.4l-6.2-5.5c-0.6-0.5-0.7-1.5-0.1-2.1c0.6-0.6,1.5-0.7,2.1-0.1l6.2,5.5
		c0.6,0.5,0.7,1.5,0.1,2.1C102.2,130.2,101.8,130.4,101.4,130.4z"/>
	<path class="st1" d="M223.5,310.7c-0.4,0-0.7-0.1-1-0.4c-0.6-0.5-0.7-1.5-0.1-2.1l5.5-6.2c0.6-0.6,1.5-0.7,2.1-0.1
		c0.6,0.5,0.7,1.5,0.1,2.1l-5.5,6.2C224.4,310.5,224,310.7,223.5,310.7z"/>
	<path class="st1" d="M57.2,167c-3.2,0-5.8-2.6-5.8-5.8s2.6-5.8,5.8-5.8s5.8,2.6,5.8,5.8S60.4,167,57.2,167z M57.2,158.5
		c-1.5,0-2.8,1.2-2.8,2.8s1.2,2.8,2.8,2.8s2.8-1.2,2.8-2.8S58.8,158.5,57.2,158.5z"/>
	<path class="st1" d="M323.4,316.4c-0.4,0-0.7-0.1-1-0.4l-6.2-5.5c-0.6-0.5-0.7-1.5-0.1-2.1c0.5-0.6,1.5-0.7,2.1-0.1l6.2,5.5
		c0.6,0.5,0.7,1.5,0.1,2.1C324.2,316.2,323.8,316.4,323.4,316.4z"/>
	<path class="st1" d="M223.5,111.7c-0.4,0-0.7-0.1-1-0.4c-0.6-0.5-0.7-1.5-0.1-2.1l5.5-6.2c0.6-0.6,1.5-0.7,2.1-0.1
		c0.6,0.5,0.7,1.5,0.1,2.1l-5.5,6.2C224.4,111.5,224,111.7,223.5,111.7z"/>
	<path class="st1" d="M195.2,120c-3.2,0-5.8-2.6-5.8-5.8s2.6-5.8,5.8-5.8s5.8,2.6,5.8,5.8S198.4,120,195.2,120z M195.2,111.5
		c-1.5,0-2.8,1.2-2.8,2.8s1.2,2.8,2.8,2.8s2.8-1.2,2.8-2.8S196.8,111.5,195.2,111.5z"/>
	<path class="st1" d="M416.4,106.9c-0.5,0-0.9-0.2-1.3-0.5l-6.2-5.5c-0.8-0.7-0.9-2-0.2-2.8c0.7-0.8,2-0.9,2.8-0.2l6.2,5.5
		c0.8,0.7,0.9,2,0.2,2.8C417.5,106.6,416.9,106.9,416.4,106.9z"/>
	<path class="st1" d="M428.5,213.7c-0.4,0-0.7-0.1-1-0.4c-0.6-0.5-0.7-1.5-0.1-2.1l5.5-6.2c0.5-0.6,1.5-0.7,2.1-0.1
		c0.6,0.5,0.7,1.5,0.1,2.1l-5.5,6.2C429.4,213.5,429,213.7,428.5,213.7z"/>
	<path class="st1" d="M423.5,280.7c-0.4,0-0.7-0.1-1-0.4c-0.6-0.5-0.7-1.5-0.1-2.1l5.5-6.2c0.5-0.6,1.5-0.7,2.1-0.1
		c0.6,0.5,0.7,1.5,0.1,2.1l-5.5,6.2C424.4,280.5,424,280.7,423.5,280.7z"/>
	<path class="st1" d="M448.2,182c-3.2,0-5.8-2.6-5.8-5.8s2.6-5.8,5.8-5.8s5.8,2.6,5.8,5.8S451.4,182,448.2,182z M448.2,173.5
		c-1.5,0-2.8,1.2-2.8,2.8s1.2,2.8,2.8,2.8s2.8-1.2,2.8-2.8S449.8,173.5,448.2,173.5z"/>
	<g>
		<g>
			<path class="st1" d="M75.2,387.6c1.8-1,4.2-0.4,5.2,1.5l19.6,35.3c1,1.8,0.4,4.2-1.5,5.2c-1.8,1-4,0.4-5.1-1.3l-30.6,6.5
				c-0.1,1.5-0.9,2.9-2.3,3.7l-0.4,0.2l6.9,12.5c0.4,0.7,0.4,1.6,0,2.3l-1.4,2.4c-0.2,0.4-0.5,0.7-0.9,0.9c-0.3,0.2-0.7,0.3-1.2,0.3
				c-0.8,0-1.6-0.5-2-1.2l-7.1-12.8l-1.4-0.5c-1.6,0.9-3.5,0.7-4.9-0.4l-4.5,2.5c-2.2,1.2-4.9,0.4-6.1-1.8l-5.3-9.6
				c-1.2-2.2-0.4-4.9,1.8-6.1l4.4-2.5c-0.3-1.8,0.6-3.7,2.3-4.7L48,416c1.2-0.7,2.6-0.7,3.9-0.2l22-22.6l-0.2-0.3
				C72.7,391,73.4,388.6,75.2,387.6z"/>
			<path class="st1" d="M95.9,388c0.1-0.1,0.3-0.2,0.4-0.3l16.1-21.2c0.4-0.5,0.3-1.3-0.2-1.7c-0.5-0.4-1.3-0.3-1.7,0.2l-16.1,21.2
				c-0.4,0.5-0.3,1.3,0.2,1.7C94.9,388.2,95.5,388.3,95.9,388z"/>
			<path class="st1" d="M128.4,387c0.6-0.3,0.8-1.1,0.5-1.7s-1.1-0.8-1.7-0.5l-25.3,14c-0.6,0.3-0.8,1.1-0.5,1.7s1.1,0.8,1.7,0.5
				L128.4,387z"/>
			<path class="st1" d="M134.6,411.5c0.4-0.2,0.7-0.7,0.6-1.2c-0.1-0.7-0.7-1.2-1.4-1.1l-24.1,2.9c-0.7,0.1-1.2,0.7-1.1,1.4
				c0.1,0.7,0.7,1.2,1.4,1.1l24.1-2.9C134.3,411.6,134.4,411.6,134.6,411.5z"/>
		</g>
		<g>
			<path d="M42.1,437.7c-1.7,0-3.3-0.9-4.2-2.5l-8.1-14.6c-0.6-1.1-0.8-2.4-0.4-3.6c0.4-1.2,1.2-2.2,2.3-2.9l7.4-4.1
				c2.3-1.3,5.2-0.4,6.5,1.9l8.1,14.6c0.6,1.1,0.8,2.4,0.4,3.6c-0.4,1.2-1.2,2.2-2.3,2.9l-7.4,4.1C43.7,437.5,42.9,437.7,42.1,437.7
				z M41.5,412.4c-0.3,0-0.6,0.1-0.9,0.2l-7.4,4.1c-0.4,0.2-0.7,0.6-0.9,1.1c-0.1,0.5-0.1,0.9,0.2,1.4l8.1,14.6
				c0.5,0.9,1.6,1.2,2.4,0.7l7.4-4.1c0.4-0.2,0.7-0.6,0.9-1.1c0.1-0.5,0.1-0.9-0.2-1.4L43,413.3C42.7,412.7,42.1,412.4,41.5,412.4z"
				/>
			<path d="M87.9,424.7c-1.4,0-2.8-0.8-3.6-2.1l-19.6-35.3c-0.5-1-0.7-2.1-0.4-3.1s1-1.9,1.9-2.4c2-1.1,4.5-0.4,5.6,1.6l19.6,35.3
				c0.5,1,0.7,2.1,0.4,3.1s-1,1.9-2,2.4C89.2,424.5,88.6,424.7,87.9,424.7z M68.3,384.2c-0.2,0-0.4,0-0.5,0.1
				c-0.3,0.1-0.4,0.4-0.5,0.7c-0.1,0.3,0,0.6,0.1,0.8l19.6,35.3c0.1,0.3,0.4,0.4,0.7,0.5c0.3,0.1,0.6,0,0.8-0.1h0
				c0.3-0.1,0.4-0.4,0.5-0.7c0.1-0.3,0-0.6-0.1-0.8l-19.6-35.3C69.1,384.4,68.7,384.2,68.3,384.2z"/>
			<path d="M32.7,439.8c-0.4,0-0.9-0.1-1.3-0.2c-1.2-0.4-2.2-1.2-2.9-2.3l-5.3-9.6c-0.6-1.1-0.8-2.4-0.4-3.6
				c0.4-1.2,1.2-2.2,2.3-2.9l6.6-3.6l10,18l-6.6,3.6C34.3,439.6,33.5,439.8,32.7,439.8z M30.5,421.7l-4,2.2
				c-0.4,0.2-0.7,0.6-0.8,1.1c-0.1,0.5-0.1,0.9,0.2,1.3l5.3,9.6c0.2,0.4,0.6,0.7,1.1,0.8c0.5,0.1,0.9,0.1,1.3-0.2l4-2.2L30.5,421.7z
				"/>
			<path d="M52.1,429.7L41.8,411l25.4-26l20.6,37.2L52.1,429.7z M45.5,411.5l8.2,14.8l29.5-6.2L66.5,390L45.5,411.5z"/>
			<path d="M54.8,451.6C54.8,451.6,54.8,451.6,54.8,451.6c-0.9,0-1.8-0.5-2.2-1.3l-7-12.7l-1.5-0.5c-0.6-0.2-1-0.8-1.1-1.4
				c-0.1-0.7,0.3-1.3,0.9-1.6l6.4-3.5l8.3,14.9c0.4,0.8,0.4,1.7,0,2.5l-1.4,2.4C56.6,451.1,55.7,451.6,54.8,451.6z M47.6,435.3
				c0.1,0.1,0.2,0.2,0.3,0.4l6.9,12.5l0.9-1.6L49,434.5L47.6,435.3z M46,437.8C46,437.8,46,437.8,46,437.8L46,437.8z M45.3,437.2
				C45.3,437.2,45.3,437.2,45.3,437.2L45.3,437.2z M45.1,434.2L45.1,434.2C45.1,434.2,45.1,434.2,45.1,434.2z"/>
			<path d="M86.5,382.7c-0.3,0-0.6-0.1-0.9-0.3c-0.7-0.5-0.8-1.4-0.3-2.1l16.1-21.2c0.5-0.7,1.4-0.8,2.1-0.3
				c0.7,0.5,0.8,1.4,0.3,2.1l-16.1,21.2C87.4,382.5,87,382.7,86.5,382.7z"/>
			<path d="M93.8,395.7c-0.5,0-1-0.3-1.3-0.8c-0.4-0.7-0.1-1.6,0.6-2l25.3-14c0.7-0.4,1.6-0.1,2,0.6c0.4,0.7,0.1,1.6-0.6,2l-25.3,14
				C94.2,395.7,94,395.7,93.8,395.7z"/>
			<path d="M101.1,409.1c-0.7,0-1.4-0.6-1.5-1.3c-0.1-0.8,0.5-1.6,1.3-1.7l24.1-2.9c0.8-0.1,1.6,0.5,1.7,1.3
				c0.1,0.8-0.5,1.6-1.3,1.7l-24.1,2.9C101.3,409.1,101.2,409.1,101.1,409.1z"/>
		</g>
	</g>
	<g>
		<rect x="-525.2" class="st0" width="480.5" height="480"/>
		<path class="st1" d="M-134.9,128.4l-281.3,26.4c-13.6,1.3-23.5,13.4-22,27l10,91.8c1.4,12.6,12.1,22,24.8,21.8l26.6-0.5
			c6.6-0.1,12.2,5,12.5,11.7l0.9,19.1c0.3,5.8,7.7,8.5,11.9,4.3l32.8-32.8c2.2-2.2,5.3-3.5,8.4-3.6l173.2-3.4
			c12.9-0.3,23.4-10.5,23.9-23.4l4.9-113C-107.5,139-120.1,127.1-134.9,128.4z"/>
		<path class="st7" d="M-398.2,370.5"/>
		<g>
			<path d="M-358.5,220.7v5.1c0,5.2-3.4,7.2-8.5,7.2h-0.1c-5.1,0-8.5-1.9-8.5-7.2v-20.4c0-5.1,3.4-7.2,8.5-7.2h0.1
				c5.1,0,8.5,2.1,8.5,7.2v4.3c0,1.3-0.7,1.9-1.9,1.9h-1.7c-1.3,0-1.9-0.7-1.9-1.9v-3.4c0-2.4-1.2-3.1-3-3.1c-1.8,0-3,0.7-3,3.1
				v18.7c0,2.4,1.2,3.1,3,3.1c1.8,0,3-0.7,3-3.1v-4.2c0-1.3,0.7-1.9,1.9-1.9h1.7C-359.2,218.7-358.5,219.4-358.5,220.7z"/>
			<path d="M-342.1,198.2h0.4c5.1,0,8.5,2,8.5,7.2v20.4c0,5.1-3.4,7.2-8.5,7.2h-0.4c-5.1,0-8.5-2-8.5-7.2v-20.4
				C-350.6,200.2-347.2,198.2-342.1,198.2z M-341.9,228c1.8,0,3.1-0.7,3.1-3.1v-18.7c0-2.4-1.3-3.1-3.1-3.1s-3.1,0.7-3.1,3.1v18.7
				C-345,227.3-343.7,228-341.9,228z"/>
			<path d="M-321.6,232.6h-1.3c-1.3,0-1.9-0.7-1.9-1.9v-30.1c0-1.3,0.7-1.9,1.9-1.9h2c1.1,0,1.8,0.5,2.2,1.6l6.6,19.4v-19.1
				c0-1.3,0.7-1.9,1.9-1.9h1.3c1.3,0,1.9,0.7,1.9,1.9v30.1c0,1.3-0.7,1.9-1.9,1.9h-1.7c-1.1,0-1.8-0.5-2.2-1.6l-6.9-20.5v20.2
				C-319.7,231.9-320.4,232.6-321.6,232.6z"/>
			<path d="M-281.1,217v8.7c0,5.2-3.4,7.2-8.5,7.2h-0.4c-5.1,0-8.5-1.9-8.5-7.2v-20.4c0-5.1,3.4-7.2,8.5-7.2h0.4
				c5.1,0,8.5,2.1,8.5,7.2v2.9c0,1.3-0.7,1.9-1.9,1.9h-1.7c-1.3,0-1.9-0.7-1.9-1.9v-2c0-2.4-1.3-3.1-3.1-3.1s-3.1,0.7-3.1,3.1v18.7
				c0,2.4,1.3,3.1,3.1,3.1s3.1-0.7,3.1-3.1v-5.1h-1.4c-1.3,0-1.9-0.7-1.9-1.9V217c0-1.3,0.7-1.9,1.9-1.9h5.1
				C-281.8,215.1-281.1,215.8-281.1,217z"/>
			<path d="M-256.7,232.6h-1.7c-1.1,0-1.8-0.5-2.2-1.6l-3.8-11.9h-2.9v11.6c0,1.3-0.7,1.9-1.9,1.9h-1.7c-1.3,0-1.9-0.7-1.9-1.9
				v-30.1c0-1.3,0.7-1.9,1.9-1.9h6.8c5.1,0,8.5,2,8.5,7.2v6.1c0,3.3-1.4,5.3-3.7,6.3l4.1,12.2C-254.7,231.6-255.3,232.6-256.7,232.6
				z M-267.3,214.2h3c1.8,0,3.1-0.7,3.1-3.1v-4.4c0-2.4-1.3-3.1-3.1-3.1h-3V214.2z"/>
			<path d="M-231.7,232.6h-1.8c-1.2,0-1.9-0.6-2.1-1.8l-0.9-5.8h-6.2l-0.9,5.8c-0.2,1.2-0.9,1.8-2.1,1.8h-1.5c-1.3,0-2-0.7-1.7-2.1
				l5.6-30.2c0.2-1.2,1-1.7,2.1-1.7h3.5c1.2,0,1.9,0.6,2.1,1.7l5.7,30.2C-229.7,231.8-230.4,232.6-231.7,232.6z M-237.3,220.3
				l-2.4-15.1l-2.4,15.1H-237.3z"/>
			<path d="M-210.4,200.5v1.1c0,1.3-0.7,1.9-1.9,1.9h-3.7v27.1c0,1.3-0.7,1.9-1.9,1.9h-1.7c-1.3,0-1.9-0.7-1.9-1.9v-27.1h-3.7
				c-1.3,0-1.9-0.7-1.9-1.9v-1.1c0-1.3,0.7-1.9,1.9-1.9h13.1C-211.1,198.6-210.4,199.2-210.4,200.5z"/>
			<path d="M-190,210.7h-1.7c-1.3,0-1.9-0.7-1.9-1.9V206c0-2.1-1.2-2.9-2.9-2.9c-1.7,0-2.9,0.8-2.9,2.9v2.3c0,1.7,0.6,2.5,2.2,3.4
				l4,2.2c3.3,1.8,5.2,3.4,5.2,7v4.9c0,5.2-3.3,7.1-8.4,7.1h-0.1c-5.1,0-8.4-1.8-8.4-7.1v-4c0-1.3,0.7-1.9,1.9-1.9h1.7
				c1.3,0,1.9,0.7,1.9,1.9v3.2c0,2.1,1.2,3,2.9,3c1.7,0,2.9-0.9,2.9-3v-2.7c0-1.7-0.5-2.6-2.2-3.5l-3.9-2.2c-3.3-1.9-5.2-3.4-5.2-7
				v-4.5c0-5.1,3.7-7,8.4-7h0.1c4.7,0,8.4,1.9,8.4,7v3.6C-188.1,210-188.8,210.7-190,210.7z"/>
			<path d="M-175.2,200.5v3.3l-0.7,18c0,1.2-0.7,1.9-1.9,1.9h-0.4c-1.2,0-1.9-0.7-1.9-1.9l-0.7-18v-3.3c0-1.3,0.7-1.9,1.9-1.9h1.7
				C-175.9,198.6-175.2,199.2-175.2,200.5z M-175.2,228.2v2.4c0,1.3-0.7,1.9-1.9,1.9h-1.7c-1.3,0-1.9-0.7-1.9-1.9v-2.4
				c0-1.3,0.7-1.9,1.9-1.9h1.7C-175.9,226.3-175.2,226.9-175.2,228.2z"/>
		</g>
		<path d="M-369.5,325.3c-1.3,0-2.5-0.2-3.8-0.7c-3.7-1.4-6.1-4.7-6.2-8.5l-0.9-19.1c-0.2-5-4.3-8.8-9.2-8.8c-0.1,0-0.1,0-0.2,0
			l-26.6,0.5c-14.3,0.3-26.3-10.2-27.8-24.5l-10-91.8c-0.8-7.4,1.3-14.6,6-20.4c4.7-5.7,11.3-9.3,18.7-10l281.3-26.4
			c7.9-0.7,15.7,2,21.5,7.4c5.8,5.5,8.9,13.2,8.5,21.1l-4.9,113c-0.6,14.5-12.4,26-26.9,26.3l-173.2,3.4c-2.4,0-4.6,1-6.3,2.7
			l-32.8,32.8C-364.4,324.3-366.9,325.3-369.5,325.3z M-389.6,282.1c8.2,0,14.9,6.3,15.3,14.6l0.9,19.1c0.1,2.1,1.8,2.9,2.4,3.1
			c1.2,0.5,3,0.5,4.4-0.9l32.8-32.8c2.8-2.8,6.5-4.4,10.5-4.5l173.2-3.4c11.3-0.2,20.5-9.2,21-20.5l4.9-113
			c0.3-6.2-2.2-12.2-6.6-16.4c-4.5-4.3-10.6-6.4-16.7-5.8L-429,148.1c-5.8,0.5-10.9,3.3-14.6,7.8c-3.7,4.5-5.3,10.1-4.7,15.9
			l10,91.8c1.2,11.1,10.5,19.3,21.7,19.1l26.6-0.5C-389.9,282.1-389.7,282.1-389.6,282.1z"/>
		<path d="M-91.5,139.7c-0.4,0-0.7-0.1-1-0.4c-0.6-0.5-0.7-1.5-0.1-2.1l5.5-6.2c0.5-0.6,1.5-0.7,2.1-0.1c0.6,0.5,0.7,1.5,0.1,2.1
			l-5.5,6.2C-90.6,139.5-91,139.7-91.5,139.7z"/>
		<path d="M-451.5,139.7c-0.4,0-0.7-0.1-1-0.4c-0.6-0.5-0.7-1.5-0.1-2.1l5.5-6.2c0.6-0.6,1.5-0.7,2.1-0.1c0.6,0.5,0.7,1.5,0.1,2.1
			l-5.5,6.2C-450.6,139.5-451,139.7-451.5,139.7z"/>
		<path d="M-435.5,310.7c-0.4,0-0.7-0.1-1-0.4c-0.6-0.5-0.7-1.5-0.1-2.1l5.5-6.2c0.5-0.6,1.5-0.7,2.1-0.1c0.6,0.5,0.7,1.5,0.1,2.1
			l-5.5,6.2C-434.6,310.5-435,310.7-435.5,310.7z"/>
		<path d="M-173.5,308.7c-0.4,0-0.7-0.1-1-0.4c-0.6-0.5-0.7-1.5-0.1-2.1l5.5-6.2c0.5-0.6,1.5-0.7,2.1-0.1c0.6,0.5,0.7,1.5,0.1,2.1
			l-5.5,6.2C-172.6,308.5-173,308.7-173.5,308.7z"/>
		<path d="M-109.5,304.7c-0.4,0-0.7-0.1-1-0.4c-0.6-0.5-0.7-1.5-0.1-2.1l5.5-6.2c0.5-0.6,1.5-0.7,2.1-0.1c0.6,0.5,0.7,1.5,0.1,2.1
			l-5.5,6.2C-108.6,304.5-109,304.7-109.5,304.7z"/>
		<path d="M-237.5,307.7c-0.4,0-0.7-0.1-1-0.4c-0.6-0.5-0.7-1.5-0.1-2.1l5.5-6.2c0.5-0.6,1.5-0.7,2.1-0.1c0.6,0.5,0.7,1.5,0.1,2.1
			l-5.5,6.2C-236.6,307.5-237,307.7-237.5,307.7z"/>
		<path class="st1" d="M-224.6,107.4c-0.4,0-0.7-0.1-1-0.4l-6.2-5.5c-0.6-0.5-0.7-1.5-0.1-2.1c0.5-0.6,1.5-0.7,2.1-0.1l6.2,5.5
			c0.6,0.5,0.7,1.5,0.1,2.1C-223.8,107.2-224.2,107.4-224.6,107.4z"/>
		<path d="M-355.6,125.4c-0.4,0-0.7-0.1-1-0.4l-6.2-5.5c-0.6-0.5-0.7-1.5-0.1-2.1c0.6-0.6,1.5-0.7,2.1-0.1l6.2,5.5
			c0.6,0.5,0.7,1.5,0.1,2.1C-354.8,125.2-355.2,125.4-355.6,125.4z"/>
		<path d="M-83.5,244.7c-0.4,0-0.7-0.1-1-0.4c-0.6-0.5-0.7-1.5-0.1-2.1l5.5-6.2c0.5-0.6,1.5-0.7,2.1-0.1c0.6,0.5,0.7,1.5,0.1,2.1
			l-5.5,6.2C-82.6,244.5-83,244.7-83.5,244.7z"/>
		<path d="M-268.8,95c-3.2,0-5.8-2.6-5.8-5.8s2.6-5.8,5.8-5.8s5.8,2.6,5.8,5.8S-265.6,95-268.8,95z M-268.8,86.5
			c-1.5,0-2.8,1.2-2.8,2.8s1.2,2.8,2.8,2.8s2.8-1.2,2.8-2.8S-267.2,86.5-268.8,86.5z"/>
		<path d="M-403.8,319c-3.2,0-5.8-2.6-5.8-5.8s2.6-5.8,5.8-5.8s5.8,2.6,5.8,5.8S-400.6,319-403.8,319z M-403.8,310.5
			c-1.5,0-2.8,1.2-2.8,2.8s1.2,2.8,2.8,2.8s2.8-1.2,2.8-2.8S-402.2,310.5-403.8,310.5z"/>
		<path d="M-130.8,318c-3.2,0-5.8-2.6-5.8-5.8s2.6-5.8,5.8-5.8s5.8,2.6,5.8,5.8S-127.6,318-130.8,318z M-130.8,309.5
			c-1.5,0-2.8,1.2-2.8,2.8s1.2,2.8,2.8,2.8s2.8-1.2,2.8-2.8S-129.2,309.5-130.8,309.5z"/>
		<path d="M-268.5,115.7c-0.4,0-0.7-0.1-1-0.4c-0.6-0.5-0.7-1.5-0.1-2.1l5.5-6.2c0.5-0.6,1.5-0.7,2.1-0.1c0.6,0.5,0.7,1.5,0.1,2.1
			l-5.5,6.2C-267.6,115.5-268,115.7-268.5,115.7z"/>
		<path d="M-287.5,334.7c-0.4,0-0.7-0.1-1-0.4c-0.6-0.5-0.7-1.5-0.1-2.1l5.5-6.2c0.5-0.6,1.5-0.7,2.1-0.1c0.6,0.5,0.7,1.5,0.1,2.1
			l-5.5,6.2C-286.6,334.5-287,334.7-287.5,334.7z"/>
		<path d="M-399.8,124c-3.2,0-5.8-2.6-5.8-5.8s2.6-5.8,5.8-5.8s5.8,2.6,5.8,5.8S-396.6,124-399.8,124z M-399.8,115.5
			c-1.5,0-2.8,1.2-2.8,2.8s1.2,2.8,2.8,2.8s2.8-1.2,2.8-2.8S-398.2,115.5-399.8,115.5z"/>
		<path d="M-475.6,193.4c-0.4,0-0.7-0.1-1-0.4l-6.2-5.5c-0.6-0.5-0.7-1.5-0.1-2.1c0.5-0.6,1.5-0.7,2.1-0.1l6.2,5.5
			c0.6,0.5,0.7,1.5,0.1,2.1C-474.8,193.2-475.2,193.4-475.6,193.4z"/>
		<path d="M-460.8,259c-3.2,0-5.8-2.6-5.8-5.8s2.6-5.8,5.8-5.8s5.8,2.6,5.8,5.8S-457.6,259-460.8,259z M-460.8,250.5
			c-1.5,0-2.8,1.2-2.8,2.8s1.2,2.8,2.8,2.8s2.8-1.2,2.8-2.8S-459.2,250.5-460.8,250.5z"/>
		<path d="M-155.5,103.7c-0.4,0-0.7-0.1-1-0.4c-0.6-0.5-0.7-1.5-0.1-2.1l5.5-6.2c0.5-0.6,1.5-0.7,2.1-0.1c0.6,0.5,0.7,1.5,0.1,2.1
			l-5.5,6.2C-154.6,103.5-155,103.7-155.5,103.7z"/>
		<path d="M-323.6,329.4c-0.4,0-0.7-0.1-1-0.4l-6.2-5.5c-0.6-0.5-0.7-1.5-0.1-2.1c0.6-0.6,1.5-0.7,2.1-0.1l6.2,5.5
			c0.6,0.5,0.7,1.5,0.1,2.1C-322.8,329.2-323.2,329.4-323.6,329.4z"/>
		<path d="M-193.8,112c-3.2,0-5.8-2.6-5.8-5.8s2.6-5.8,5.8-5.8s5.8,2.6,5.8,5.8S-190.6,112-193.8,112z M-193.8,103.5
			c-1.5,0-2.8,1.2-2.8,2.8s1.2,2.8,2.8,2.8s2.8-1.2,2.8-2.8S-192.2,103.5-193.8,103.5z"/>
		<path class="st1" d="M-457.6,287.4c-0.4,0-0.7-0.1-1-0.4l-6.2-5.5c-0.6-0.5-0.7-1.5-0.1-2.1c0.6-0.6,1.5-0.7,2.1-0.1l6.2,5.5
			c0.6,0.5,0.7,1.5,0.1,2.1C-456.8,287.2-457.2,287.4-457.6,287.4z"/>
		<path class="st1" d="M-466.5,221.7c-0.4,0-0.7-0.1-1-0.4c-0.6-0.5-0.7-1.5-0.1-2.1l5.5-6.2c0.5-0.6,1.5-0.7,2.1-0.1
			c0.6,0.5,0.7,1.5,0.1,2.1l-5.5,6.2C-465.6,221.5-466,221.7-466.5,221.7z"/>
		<path class="st1" d="M-379.6,340.4c-0.4,0-0.7-0.1-1-0.4l-6.2-5.5c-0.6-0.5-0.7-1.5-0.1-2.1c0.6-0.6,1.5-0.7,2.1-0.1l6.2,5.5
			c0.6,0.5,0.7,1.5,0.1,2.1C-378.8,340.2-379.2,340.4-379.6,340.4z"/>
		<path class="st1" d="M-466.6,133.4c-0.4,0-0.7-0.1-1-0.4l-6.2-5.5c-0.6-0.5-0.7-1.5-0.1-2.1c0.6-0.6,1.5-0.7,2.1-0.1l6.2,5.5
			c0.6,0.5,0.7,1.5,0.1,2.1C-465.8,133.2-466.2,133.4-466.6,133.4z"/>
		<path class="st1" d="M-479.6,236.4c-0.4,0-0.7-0.1-1-0.4l-6.2-5.5c-0.6-0.5-0.7-1.5-0.1-2.1c0.6-0.6,1.5-0.7,2.1-0.1l6.2,5.5
			c0.6,0.5,0.7,1.5,0.1,2.1C-478.8,236.2-479.2,236.4-479.6,236.4z"/>
		<path class="st1" d="M-165.5,329.7c-0.4,0-0.7-0.1-1-0.4c-0.6-0.5-0.7-1.5-0.1-2.1l5.5-6.2c0.5-0.6,1.5-0.7,2.1-0.1
			c0.6,0.5,0.7,1.5,0.1,2.1l-5.5,6.2C-164.6,329.5-165,329.7-165.5,329.7z"/>
		<path class="st1" d="M-265.8,314c-3.2,0-5.8-2.6-5.8-5.8s2.6-5.8,5.8-5.8s5.8,2.6,5.8,5.8S-262.6,314-265.8,314z M-265.8,305.5
			c-1.5,0-2.8,1.2-2.8,2.8s1.2,2.8,2.8,2.8s2.8-1.2,2.8-2.8S-264.2,305.5-265.8,305.5z"/>
		<path class="st1" d="M-423.6,130.4c-0.4,0-0.7-0.1-1-0.4l-6.2-5.5c-0.6-0.5-0.7-1.5-0.1-2.1c0.6-0.6,1.5-0.7,2.1-0.1l6.2,5.5
			c0.6,0.5,0.7,1.5,0.1,2.1C-422.8,130.2-423.2,130.4-423.6,130.4z"/>
		<path class="st1" d="M-301.5,310.7c-0.4,0-0.7-0.1-1-0.4c-0.6-0.5-0.7-1.5-0.1-2.1l5.5-6.2c0.6-0.6,1.5-0.7,2.1-0.1
			c0.6,0.5,0.7,1.5,0.1,2.1l-5.5,6.2C-300.6,310.5-301,310.7-301.5,310.7z"/>
		<path class="st1" d="M-467.8,167c-3.2,0-5.8-2.6-5.8-5.8s2.6-5.8,5.8-5.8s5.8,2.6,5.8,5.8S-464.6,167-467.8,167z M-467.8,158.5
			c-1.5,0-2.8,1.2-2.8,2.8s1.2,2.8,2.8,2.8s2.8-1.2,2.8-2.8S-466.2,158.5-467.8,158.5z"/>
		<path class="st1" d="M-201.6,316.4c-0.4,0-0.7-0.1-1-0.4l-6.2-5.5c-0.6-0.5-0.7-1.5-0.1-2.1c0.5-0.6,1.5-0.7,2.1-0.1l6.2,5.5
			c0.6,0.5,0.7,1.5,0.1,2.1C-200.8,316.2-201.2,316.4-201.6,316.4z"/>
		<path class="st1" d="M-301.5,111.7c-0.4,0-0.7-0.1-1-0.4c-0.6-0.5-0.7-1.5-0.1-2.1l5.5-6.2c0.6-0.6,1.5-0.7,2.1-0.1
			c0.6,0.5,0.7,1.5,0.1,2.1l-5.5,6.2C-300.6,111.5-301,111.7-301.5,111.7z"/>
		<path class="st1" d="M-329.8,120c-3.2,0-5.8-2.6-5.8-5.8s2.6-5.8,5.8-5.8s5.8,2.6,5.8,5.8S-326.6,120-329.8,120z M-329.8,111.5
			c-1.5,0-2.8,1.2-2.8,2.8s1.2,2.8,2.8,2.8s2.8-1.2,2.8-2.8S-328.2,111.5-329.8,111.5z"/>
		<path class="st1" d="M-108.6,106.9c-0.5,0-0.9-0.2-1.3-0.5l-6.2-5.5c-0.8-0.7-0.9-2-0.2-2.8c0.7-0.8,2-0.9,2.8-0.2l6.2,5.5
			c0.8,0.7,0.9,2,0.2,2.8C-107.5,106.6-108.1,106.9-108.6,106.9z"/>
		<path class="st1" d="M-96.5,213.7c-0.4,0-0.7-0.1-1-0.4c-0.6-0.5-0.7-1.5-0.1-2.1l5.5-6.2c0.5-0.6,1.5-0.7,2.1-0.1
			c0.6,0.5,0.7,1.5,0.1,2.1l-5.5,6.2C-95.6,213.5-96,213.7-96.5,213.7z"/>
		<path class="st1" d="M-101.5,280.7c-0.4,0-0.7-0.1-1-0.4c-0.6-0.5-0.7-1.5-0.1-2.1l5.5-6.2c0.5-0.6,1.5-0.7,2.1-0.1
			c0.6,0.5,0.7,1.5,0.1,2.1l-5.5,6.2C-100.6,280.5-101,280.7-101.5,280.7z"/>
		<path class="st1" d="M-76.8,182c-3.2,0-5.8-2.6-5.8-5.8s2.6-5.8,5.8-5.8s5.8,2.6,5.8,5.8S-73.6,182-76.8,182z M-76.8,173.5
			c-1.5,0-2.8,1.2-2.8,2.8s1.2,2.8,2.8,2.8s2.8-1.2,2.8-2.8S-75.2,173.5-76.8,173.5z"/>
		<g>
			<g>
				<path class="st1" d="M-449.8,387.6c-1.8,1-2.5,3.4-1.5,5.2l0.2,0.3l-22,22.6c-1.2-0.5-2.6-0.4-3.9,0.2l-7.4,4.1
					c-1.7,1-2.6,2.9-2.3,4.7l-4.4,2.5c-2.2,1.2-3,4-1.8,6.1l5.3,9.6c1.2,2.2,4,3,6.1,1.8l4.5-2.5c1.4,1,3.3,1.2,4.9,0.4l1.4,0.5
					l7.1,12.8c0.4,0.7,1.1,1.2,2,1.2c0.4,0,0.8-0.1,1.2-0.3c0.4-0.2,0.7-0.5,0.9-0.9l1.4-2.4c0.4-0.7,0.4-1.6,0-2.3l-6.9-12.5
					l0.4-0.2c1.4-0.8,2.2-2.2,2.3-3.7l30.6-6.5c1.1,1.7,3.3,2.3,5.1,1.3c1.8-1,2.5-3.4,1.5-5.2l-19.6-35.3
					C-445.6,387.3-447.9,386.6-449.8,387.6z"/>
				<path class="st1" d="M-429.1,388c-0.4,0.2-0.9,0.2-1.4-0.1c-0.5-0.4-0.7-1.2-0.2-1.7l16.1-21.2c0.4-0.5,1.2-0.7,1.7-0.2
					c0.5,0.4,0.7,1.2,0.2,1.7l-16.1,21.2C-428.8,387.8-429,387.9-429.1,388z"/>
				<path class="st1" d="M-396.6,387l-25.3,14c-0.6,0.3-1.4,0.1-1.7-0.5s-0.1-1.4,0.5-1.7l25.3-14c0.6-0.3,1.4-0.1,1.7,0.5
					S-396,386.7-396.6,387z"/>
				<path class="st1" d="M-390.4,411.5c-0.1,0.1-0.3,0.1-0.5,0.1l-24.1,2.9c-0.7,0.1-1.3-0.4-1.4-1.1c-0.1-0.7,0.4-1.3,1.1-1.4
					l24.1-2.9c0.7-0.1,1.3,0.4,1.4,1.1C-389.7,410.8-390,411.3-390.4,411.5z"/>
			</g>
			<g>
				<path d="M-482.9,437.7c-1.7,0-3.3-0.9-4.2-2.5l-8.1-14.6c-0.6-1.1-0.8-2.4-0.4-3.6c0.4-1.2,1.2-2.2,2.3-2.9l7.4-4.1
					c2.3-1.3,5.2-0.4,6.5,1.9l8.1,14.6c0.6,1.1,0.8,2.4,0.4,3.6c-0.4,1.2-1.2,2.2-2.3,2.9l-7.4,4.1
					C-481.3,437.5-482.1,437.7-482.9,437.7z M-483.5,412.4c-0.3,0-0.6,0.1-0.9,0.2l-7.4,4.1c-0.4,0.2-0.7,0.6-0.9,1.1
					c-0.1,0.5-0.1,0.9,0.2,1.4l8.1,14.6c0.5,0.9,1.6,1.2,2.4,0.7l7.4-4.1c0.4-0.2,0.7-0.6,0.9-1.1c0.1-0.5,0.1-0.9-0.2-1.4
					l-8.1-14.6C-482.3,412.7-482.9,412.4-483.5,412.4z"/>
				<path d="M-437.1,424.7c-1.4,0-2.8-0.8-3.6-2.1l-19.6-35.3c-0.5-1-0.7-2.1-0.4-3.1s1-1.9,1.9-2.4c2-1.1,4.5-0.4,5.6,1.6
					l19.6,35.3c0.5,1,0.7,2.1,0.4,3.1s-1,1.9-2,2.4C-435.8,424.5-436.4,424.7-437.1,424.7z M-456.7,384.2c-0.2,0-0.4,0-0.5,0.1
					c-0.3,0.1-0.4,0.4-0.5,0.7c-0.1,0.3,0,0.6,0.1,0.8l19.6,35.3c0.1,0.3,0.4,0.4,0.7,0.5c0.3,0.1,0.6,0,0.8-0.1h0
					c0.3-0.1,0.4-0.4,0.5-0.7c0.1-0.3,0-0.6-0.1-0.8l-19.6-35.3C-455.9,384.4-456.3,384.2-456.7,384.2z"/>
				<path d="M-492.3,439.8c-0.4,0-0.9-0.1-1.3-0.2c-1.2-0.4-2.2-1.2-2.9-2.3l-5.3-9.6c-0.6-1.1-0.8-2.4-0.4-3.6
					c0.4-1.2,1.2-2.2,2.3-2.9l6.6-3.6l10,18l-6.6,3.6C-490.7,439.6-491.5,439.8-492.3,439.8z M-494.5,421.7l-4,2.2
					c-0.4,0.2-0.7,0.6-0.8,1.1c-0.1,0.5-0.1,0.9,0.2,1.3l5.3,9.6c0.2,0.4,0.6,0.7,1.1,0.8c0.5,0.1,0.9,0.1,1.3-0.2l4-2.2
					L-494.5,421.7z"/>
				<path d="M-472.9,429.7l-10.4-18.7l25.4-26l20.6,37.2L-472.9,429.7z M-479.5,411.5l8.2,14.8l29.5-6.2l-16.7-30.1L-479.5,411.5z"
					/>
				<path d="M-470.2,451.6C-470.2,451.6-470.2,451.6-470.2,451.6c-0.9,0-1.8-0.5-2.2-1.3l-7-12.7l-1.5-0.5c-0.6-0.2-1-0.8-1.1-1.4
					c-0.1-0.7,0.3-1.3,0.9-1.6l6.4-3.5l8.3,14.9c0.4,0.8,0.4,1.7,0,2.5l-1.4,2.4C-468.4,451.1-469.3,451.6-470.2,451.6z
					 M-477.4,435.3c0.1,0.1,0.2,0.2,0.3,0.4l6.9,12.5l0.9-1.6l-6.7-12.1L-477.4,435.3z M-479,437.8C-479,437.8-479,437.8-479,437.8
					L-479,437.8z M-479.7,437.2C-479.7,437.2-479.7,437.2-479.7,437.2L-479.7,437.2z M-479.9,434.2L-479.9,434.2
					C-479.9,434.2-479.9,434.2-479.9,434.2z"/>
				<path d="M-438.5,382.7c-0.3,0-0.6-0.1-0.9-0.3c-0.7-0.5-0.8-1.4-0.3-2.1l16.1-21.2c0.5-0.7,1.4-0.8,2.1-0.3
					c0.7,0.5,0.8,1.4,0.3,2.1l-16.1,21.2C-437.6,382.5-438,382.7-438.5,382.7z"/>
				<path d="M-431.2,395.7c-0.5,0-1-0.3-1.3-0.8c-0.4-0.7-0.1-1.6,0.6-2l25.3-14c0.7-0.4,1.6-0.1,2,0.6c0.4,0.7,0.1,1.6-0.6,2
					l-25.3,14C-430.8,395.7-431,395.7-431.2,395.7z"/>
				<path d="M-423.9,409.1c-0.7,0-1.4-0.6-1.5-1.3c-0.1-0.8,0.5-1.6,1.3-1.7l24.1-2.9c0.8-0.1,1.6,0.5,1.7,1.3
					c0.1,0.8-0.5,1.6-1.3,1.7l-24.1,2.9C-423.7,409.1-423.8,409.1-423.9,409.1z"/>
			</g>
		</g>
	</g>
</g>
<g id="Layer_2">
</g>
</svg>
