<?xml version="1.0" encoding="UTF-8"?>
<svg id="Layer_1" data-name="Layer 1" xmlns="http://www.w3.org/2000/svg" version="1.1" viewBox="0 0 30 30">
  <defs>
    <style>
      .cls-1 {
        fill: #000;
        stroke-width: 0px;
      }
    </style>
  </defs>
  <path class="cls-1" d="M15.7,11.9c.4.3.9.4,1.3.4s.5,0,.8-.2c.6-.3.9-1,.9-1.9,0-1.8-1.2-3.9-2.7-4.8-.8-.4-1.5-.5-2.1-.2-.6.3-.9,1-.9,1.9,0,1.8,1.2,3.9,2.7,4.8h0ZM18.3,10.2c0,.2,0,.5,0,.7-.2,0-.4-.1-.5-.2-1.5-.9-2.7-2.9-2.7-4.6,0-.2,0-.4,0-.6.2,0,.4.1.6.3,1.4.8,2.6,2.8,2.6,4.5h0Z"/>
  <path class="cls-1" d="M29.9,21.3l-5.4-4.7s0,0-.1,0l-2.1-.6c1-1.5,1.8-3.1,1.8-4.5,0-3.8-2.7-8.6-6.1-10.5-1.7-1-3.4-1.2-4.6-.4l-1.9,1.1s0,0,0,0c-1.2.7-1.8,2.1-1.8,4,0,1.4.7,3.7,1.7,6.3L.2,18.3c0,0-.2.1-.2.2,0,.1,0,.2,0,.3l4.9,4.9s0,0,.1,0l5.1,1.5,5.4,4.7c0,0,.1,0,.2,0s.1,0,.2,0l13.8-8.1c0,0,.2-.2.2-.3,0-.1,0-.2-.1-.3h0ZM23.6,17l-4.2,2.5c.7-.8,1.7-1.8,2.5-3l1.7.5h0ZM13.1,1.6c.8,0,1.7.3,2.7.8,3.2,1.9,5.9,6.4,5.9,10.1,0,3-3.9,7.1-5.4,8.6l-.3.2c-1.1-2.3-5.8-12.4-5.7-15.8,0-1.7.6-2.9,1.6-3.4,0,0,0,0,0,0,0,0,0,0,0,0l.7-.4c.2,0,.4,0,.6,0h0ZM13.6,1c1-.6,2.4-.4,4,.4,1.5.9,2.8,2.3,3.9,3.9l-1.5.9c-1.1-1.7-2.5-3.2-4-4.1-1-.6-1.9-.9-2.7-.9l.4-.2h0ZM5.4,23.2L.9,18.7l10.5-6.2c.8,2,1.6,4.1,2.4,5.7l-8.4,4.9h0s0,0,0,0ZM10.5,24.6l-4.7-1.3,8.1-4.8c.3.8.7,1.5.9,2-.6.5-.5,1.1.2,1.5l-4.5,2.6s0,0,0,0h0ZM15.9,29.3l-5-4.4,4.5-2.7c.8.3,1.9.3,2.5-.2.7-.4.8-1,.3-1.4,0,0,.2-.2.2-.2l5.6-3.3h0s5,4.3,5,4.3l-13.2,7.7h0Z"/>
</svg>